<?xml version="1.0" standalone="no"?>
<!DOCTYPE svg PUBLIC "-//W3C//DTD SVG 1.1//EN" "http://www.w3.org/Graphics/SVG/1.1/DTD/svg11.dtd" >
<svg xmlns="http://www.w3.org/2000/svg">
<metadata></metadata>
<defs>
<font id="blackletter686_btregular" horiz-adv-x="1024" >
<font-face units-per-em="2048" ascent="1638" descent="-410" />
<missing-glyph horiz-adv-x="303" />
<glyph horiz-adv-x="2048" />
<glyph horiz-adv-x="2048" />
<glyph unicode="&#xd;" horiz-adv-x="303" />
<glyph unicode=" "  horiz-adv-x="303" />
<glyph unicode="&#x09;" horiz-adv-x="303" />
<glyph unicode="&#xa0;" horiz-adv-x="303" />
<glyph unicode="!" horiz-adv-x="463" d="M72 63l159 162l111 -110l33 32l16 -16l-160 -160l-110 111l-33 -35zM111 319q4 7 12 20q17 27 24 37v812l-16 -8l-6 20q60 26 111.5 73.5t99.5 119.5l16 -19q-8 -17 -16.5 -31.5t-22.5 -34.5v-808l19 6l6 -21q-58 -25 -110 -68.5t-101 -109.5zM137 98l94 -94l58 57 l-94 93zM172 402q16 17 32.5 31.5t35.5 27.5v778q-19 -14 -36 -24.5t-32 -18.5v-794z" />
<glyph unicode="&#x22;" horiz-adv-x="551" d="M100 881v553h86v-553h-86zM365 881v553h86v-553h-86z" />
<glyph unicode="#" horiz-adv-x="1575" d="M129 494l31 90h336l100 282h-360l28 90h365l176 498h110l-174 -498h271l176 498h110l-174 -498h322l-31 -90h-323l-101 -282h348l-30 -90h-351l-174 -494h-112l176 494h-270l-179 -494h-110l174 494h-334zM610 584h269l100 282h-270z" />
<glyph unicode="$" horiz-adv-x="592" d="M-12 -20q44 100 103 151t130 51q16 0 31.5 -4t32.5 -12v317l-88 -77q-26 27 -51 47t-50 34l-57 -41l-14 19l71 53v389h-12v23q59 0 107 14.5t94 46.5v199h34v-168q7 4 13 9t12 11q20 -15 51 -44q51 -48 76 -48q14 0 26 11.5t21 33.5l21 -8q-23 -73 -61.5 -109t-94.5 -36 q-15 0 -29.5 3.5t-33.5 12.5l-1 -313l99 80q18 -15 44 -44q37 -40 64 -40q13 0 23 5t24 19l13 -20l-74 -60v-368h12v-25q-54 -1 -105.5 -18t-99.5 -49v-201h-34v176l-2 -1q-17 -14 -25 -28h-20q-25 40 -58.5 61t-68.5 21q-34 0 -60.5 -20t-46.5 -62zM66 68q1 0 5 1 q27 7 42 7q40 0 75 -19.5t62 -56.5q11 11 26 23t31 22q-28 34 -64.5 54t-70.5 20q-29 0 -55.5 -13t-50.5 -38zM109 506q1 -1 5 -4q59 -41 83 -66l34 35l-61 57v387q-9 -2 -32 -4q-11 -1 -17 -2v-395zM242 549l34 -41l9 8v361q-10 8 -20.5 19.5t-22.5 27.5v-375zM256 946 q28 -41 63 -62.5t74 -21.5q24 0 42 8t31 24q-5 0 -11 -0.5t-13 -0.5q-29 0 -62.5 21.5t-72.5 64.5q-14 -11 -27 -19t-24 -14zM319 512l1 -359q9 -6 19 -13.5t27 -22.5l1 391l-21 27zM362 547l29 -33v-421q8 2 19 5.5t30 8.5v356l61 46q-28 6 -52.5 21t-53.5 45z" />
<glyph unicode="%" horiz-adv-x="1090" d="M25 510l69 51v520h-14v17h35q66 0 116 18.5t113 65.5q20 -12 47.5 -39t46.5 -27q9 0 19.5 4t25.5 15l13 -13l-64 -43v-524h17v-18h-29q-66 0 -125.5 -20t-122.5 -62h-12q-17 18 -36.5 36t-43.5 39l-41 -30zM96 541q14 -12 29.5 -26.5t44.5 -43.5l53 31l-57 45v534h-47 v-526zM227 561l45 -35l27 9v540l-43 33l-29 -8v-539zM229 -2l598 1184h45l-591 -1184h-52zM270 1116l54 -37v-538l15 3q24 6 31 7l1 514l35 25q-24 4 -46.5 15t-48.5 32zM612 33l70 53v520h-14v17h34q63 0 115.5 18.5t114.5 63.5q21 -12 47 -39t45 -27q9 0 19 4.5t28 15.5 l12 -12l-63 -43v-524h14v-19h-26q-64 0 -123.5 -20t-124.5 -64h-12q-21 23 -41 42.5t-39 35.5l-43 -32zM685 64q5 -6 18 -18q36 -32 53 -50l55 31l-59 45v534h-45v-526zM815 84l45 -35l27 10v539l-43 35l-29 -10v-539zM858 639l51 -37l1 -536l36 6q7 1 10 2v514l37 26 q-23 5 -45.5 16t-48.5 32z" />
<glyph unicode="&#x26;" horiz-adv-x="1049" d="M18 72l82 69v514h-18l2 25q6 0 18.5 -1t18.5 -1q72 0 136 22t114 64q-52 99 -112 187t-128 165l-20 -16l-19 18l363 275q52 -42 110.5 -115.5t136.5 -198.5l29 17l10 -23q-65 -38 -125.5 -92.5t-117.5 -126.5q58 -100 103 -182.5t85 -161.5l158 211q46 -56 73.5 -80.5 t45.5 -24.5q16 0 27 11t16 32h24q-10 -70 -48.5 -112.5t-90.5 -42.5q-30 0 -61.5 15t-69.5 48l-62 -84q66 -129 126 -226.5t116 -168.5l109 88l14 -18q-27 -23 -85 -73.5t-126 -113.5h-23q-53 66 -107.5 152.5t-125.5 216.5l-270 -369h-23q-43 38 -94.5 70t-114.5 61 l-59 -49zM115 121q49 -23 97.5 -54t98.5 -73l45 61l-172 117v485l-59 -4v-520zM154 1135q152 -181 358 -577t334 -562l47 39q-118 154 -325.5 550t-368.5 586zM252 1214q54 -58 111 -138.5t124 -194.5q6 6 16 18q48 55 77 82q-61 105 -118 182.5t-112 130.5zM256 223l84 -59 v192h-84v-133zM256 379h84v133h-84v-133zM256 537h84v176q-18 -11 -38.5 -20.5t-45.5 -18.5v-137zM362 147l41 -28l179 241q-52 108 -100 200t-99 181l-21 -14v-580zM369 1311q47 -48 102 -122.5t127 -189.5l45 37q-73 119 -127 190t-100 109zM778 588q27 -30 55.5 -45 t57.5 -15t52 14t37 41q-18 -9 -32 -13.5t-22 -4.5q-24 0 -52.5 19t-60.5 55z" />
<glyph unicode="'" horiz-adv-x="285" d="M100 881v553h86v-553h-86z" />
<glyph unicode="(" horiz-adv-x="770" d="M299 520q0 318 88 560.5t266 414.5l15 -10q-109 -168 -166.5 -418.5t-57.5 -560.5q0 -296 61.5 -543t176.5 -414l-12 -10q-181 163 -276 415t-95 566zM371 508q0 -281 66.5 -517t185.5 -380q-98 174 -148.5 405.5t-50.5 501.5q0 268 49.5 506t138.5 403 q-116 -140 -178.5 -378t-62.5 -541z" />
<glyph unicode=")" horiz-adv-x="770" d="M88 1489l12 6q178 -159 274.5 -408t96.5 -550q0 -335 -86 -578.5t-266 -419.5l-17 15q109 169 166.5 419.5t57.5 558.5q0 296 -61.5 543t-176.5 414zM147 1427q97 -176 148 -404.5t51 -487.5q0 -281 -48.5 -520t-137.5 -404q115 139 177 377t62 542q0 281 -66.5 517 t-185.5 380z" />
<glyph unicode="*" horiz-adv-x="639" d="M14 1061l84 174l226 -156l-80 301l192 -47l-80 -258l262 162l9 -182l-256 -8l231 -207l-170 -72l-92 260l-109 -297l-120 148l202 170zM49 1087l260 -28l-225 102zM164 842l57 -68l111 264zM281 1346l57 -271l29 252zM356 1042l123 -233l78 31zM367 1067l235 43l-2 84z " />
<glyph unicode="+" horiz-adv-x="1706" d="M254 569v82h559v570h80v-570h559v-82h-559v-569h-80v569h-559z" />
<glyph unicode="," horiz-adv-x="463" d="M100 8l154 160l98 -98q17 -17 27 -36t10 -32q0 -24 -15.5 -50t-72.5 -85l-147 -152l-19 19l86 86q18 17 27.5 36t9.5 35q0 12 -5.5 24t-14.5 22l-91 88l-32 -33zM166 43l88 -92l5 -5q26 -25 26 -42q0 -3 -1.5 -7.5t-6.5 -14.5l40 40q10 10 14.5 18t4.5 15q0 11 -7.5 25.5 t-21.5 27.5l-86 90z" />
<glyph unicode="-" horiz-adv-x="797" d="M86 299l150 150h475l-148 -150h-477zM133 322h430l51 51h-428z" />
<glyph unicode="." horiz-adv-x="463" d="M72 63l159 162l111 -110l33 32l16 -16l-160 -160l-110 111l-33 -35zM137 98l94 -94l58 57l-94 93z" />
<glyph unicode="/" horiz-adv-x="569" d="M-39 -190l590 1425h55l-590 -1425h-55z" />
<glyph unicode="0" horiz-adv-x="606" d="M16 45l84 76v778h-18v23h43q74 0 135 25.5t143 94.5q27 -17 59.5 -55.5t55.5 -38.5q12 0 25.5 7t30.5 21l14 -18l-76 -63v-784h16v-23h-14q-88 0 -164.5 -30.5t-156.5 -98.5h-15q-19 30 -41.5 58.5t-52.5 58.5l-53 -47zM103 91q3 -5 9 -12q53 -60 78 -91l66 45l-72 67 v799h-61v-786zM262 119l55 -51l33 14v805l-55 51l-33 -16v-803zM313 948l62 -55v-803l3 1q33 10 58 13v768l43 37q-31 8 -59 25.5t-55 46.5z" />
<glyph unicode="1" horiz-adv-x="371" d="M18 897q66 61 99 91t61 54l51 -51q24 -24 32.5 -43.5t8.5 -70.5v-750l47 -41l41 33l13 -19q-48 -37 -83.5 -70.5t-66.5 -70.5h-22q-20 33 -43.5 61t-57.5 58l-65 -55l-13 18l84 74v780l-22 27l-47 -39zM98 940l29 -37v-801l-10 -10q34 -33 56 -58t38 -50l51 55l-67 57 v826l-52 59z" />
<glyph unicode="2" horiz-adv-x="563" d="M29 0v6q0 137 75 273.5t203 228.5v379l-53 51l-35 -16v-279h8v-22q-90 1 -130 30.5t-40 93.5v154h-18v23h43q74 0 135 25.5t143 94.5q27 -17 59.5 -55.5t55.5 -38.5q13 0 27 7.5t28 21.5l15 -19l-74 -63v-422q-155 -47 -253 -123.5t-136 -179.5q22 11 46.5 17t49.5 6 q42 0 108.5 -17.5t88.5 -17.5q80 0 90 154v3h22q-2 -17 -3 -26.5t-1 -16.5q0 -28 6.5 -78.5t6.5 -72.5q0 -61 -31 -91t-94 -30q-37 0 -109 15.5t-108 15.5q-27 0 -59 -8t-66 -23zM51 33q26 10 52 15t51 5q42 0 115 -15t108 -15q47 0 71.5 22.5t24.5 67.5q0 4 -2 22.5 t-2 32.5q-8 -38 -32 -58t-62 -20q-25 0 -95 17.5t-114 17.5q-31 0 -57 -6.5t-47 -19.5q-6 -20 -8.5 -36.5t-2.5 -29.5zM80 758q0 -52 13.5 -72.5t47.5 -29.5v243h-61v-141zM170 338q53 47 109 85.5t114 68.5v380l43 37q-28 7 -54 23.5t-58 48.5l-54 -33l62 -55v-397 q-60 -43 -99.5 -82t-62.5 -76z" />
<glyph unicode="3" horiz-adv-x="555" d="M-57 -16q19 67 81 114t130 47q39 0 72 -17t63 -52l10 6v446l-31 17q-29 -19 -50.5 -44t-34.5 -56q4 -9 6.5 -19t3.5 -23q-1 -12 -5 -17t-12 -5q-10 0 -15 9.5t-5 27.5q0 47 38.5 93t104.5 77v299l-55 51l-35 -16v-273h8v-24q-90 1 -130 30.5t-40 94.5v149h-16v23h43 q74 0 135.5 26t142.5 94q27 -17 58.5 -55.5t54.5 -38.5q12 0 24.5 6.5t31.5 21.5l14 -18l-74 -63v-264h24v-23q-70 -10 -113 -21t-75 -28q42 -19 89 -30.5t99 -14.5v-20h-24v-379h24v-21q-92 0 -166 -33t-135 -102h-20q-26 34 -55 51t-64 17q-24 0 -49 -10.5t-53 -32.5z M-6 37q12 5 25 7.5t30 2.5q35 0 65.5 -15.5t61.5 -49.5q10 17 21 29.5t28 25.5q-32 28 -56 38.5t-56 10.5q-38 0 -69 -13t-50 -36zM72 762q0 -51 13.5 -71t47.5 -29v237h-61v-137zM262 948l60 -55v-297q18 6 48 13q9 2 13 3v260l45 37q-31 8 -59 25.5t-56 46.5zM322 92 q18 6 49 14l12 3v395q-5 1 -13 3q-37 8 -48 13v-428z" />
<glyph unicode="4" horiz-adv-x="606" d="M10 338q0 80 151 348q121 216 189 356q48 -26 65 -54.5t17 -104.5v-557h55q6 10 9.5 20.5t3.5 20.5q0 21 -7.5 58.5t-7.5 55.5q0 49 30.5 80t84.5 37q-9 -14 -13.5 -29.5t-4.5 -33.5q0 -26 10 -70.5t10 -63.5q0 -49 -30.5 -74.5t-90.5 -25.5h-49v-174l47 -41l41 33 l12 -19q-48 -37 -83.5 -70.5t-65.5 -70.5h-23q-19 33 -43 61t-57 58l-65 -55l-13 18l84 74v198h-61q-37 0 -84 -3.5t-99 -9.5l-10 17q0 3 -1 10t-1 11zM33 343q2 -11 2 -19l69 8q-11 26 -16.5 49.5t-5.5 46.5q0 16 3 40.5t9 55.5q-4 -9 -13 -28q-48 -104 -48 -150v-3z M115 467q0 -62 33 -96.5t94 -34.5q4 0 12 1t12 1v487l-82 -147q-34 -63 -51.5 -116.5t-17.5 -94.5zM279 92q21 -21 42 -43t50 -55l53 45l-68 57v748q0 56 -5.5 74t-18.5 28l-43 -80v-764zM508 481q0 -16 8 -54t8 -60q0 -11 -3 -22t-9 -23q25 10 36 25t11 38t-10 69t-10 66 q0 11 0.5 18.5t0.5 14.5q-17 -10 -24.5 -25.5t-7.5 -46.5z" />
<glyph unicode="5" horiz-adv-x="559" d="M-61 -10q26 69 85.5 116.5t118.5 47.5q40 0 76 -19t66 -55l20 8v406l-92 67l-121 -88l-12 8v408q0 63 28 99t78 36q25 0 92.5 -19.5t110.5 -19.5q42 0 67 9.5t36 29.5v-55q0 -76 -29.5 -110t-93.5 -34q-24 0 -91 18.5t-110 18.5q-19 0 -56 -23q-7 -4 -9 -5l-1 -324 l230 172q44 -52 75.5 -75t57.5 -23q23 0 41 13t41 48v-22q0 -28 -21 -57.5t-59 -55.5v-389h18v-25q-87 0 -164 -34t-143 -103h-22q-23 41 -49 58.5t-68 17.5q-25 0 -51.5 -12t-48.5 -33zM-4 45q16 6 30 9t29 3q33 0 59.5 -13t53.5 -44q10 10 23 19.5t32 21.5 q-26 26 -56 39.5t-63 13.5q-27 0 -53 -11.5t-55 -37.5zM102 897l1 -36h1q34 26 56 26q35 0 109 -18.5t112 -18.5q39 0 59 20t24 63q-13 -11 -28.5 -16.5t-40.5 -5.5q-45 0 -122 19.5t-105 19.5t-47 -16t-19 -37zM233 578l95 -70v-412q14 6 29 10.5t30 8.5v397l39 27 q-29 0 -62.5 19t-76.5 60z" />
<glyph unicode="6" horiz-adv-x="606" d="M16 45l84 76v778h-18v23h43q74 0 135 25.5t143 94.5q43 -31 70 -43t53 -12q16 0 36 6.5t59 24.5q-27 -69 -80.5 -111.5t-110.5 -42.5q-37 0 -70.5 18.5t-64.5 55.5l-35 -16v-392l189 104q9 -10 22 -27q41 -50 72 -50q8 0 21.5 6t41.5 25l10 -21l-104 -75v-381h16v-23h-14 q-88 0 -164.5 -30.5t-156.5 -98.5h-15q-19 30 -41.5 58.5t-52.5 58.5l-53 -47zM98 90q23 -22 45.5 -47.5t46.5 -54.5l66 45l-72 67v799h-61v-786zM260 119l57 -51l33 14v414l-28 36l-62 -30v-383zM318 952q27 -32 57.5 -48.5t62.5 -16.5q31 0 65.5 19.5t59.5 51.5 q-29 -14 -51.5 -21t-40.5 -7q-27 0 -51 13t-49 42q-10 -7 -39 -24q-10 -6 -14 -9zM342 545l33 -45v-410l3 1q33 10 58 13v371l53 37q-26 2 -48.5 19t-39.5 47z" />
<glyph unicode="7" horiz-adv-x="518" d="M27 659q0 3 3 15q23 81 23 170q0 38 -7 120q-1 7 -1 11q19 24 47.5 36.5t63.5 12.5q41 0 111.5 -19.5t103.5 -19.5q22 0 49 4t80 16q2 -13 3 -24.5t1 -22.5q0 -91 -97 -300q-16 -34 -24 -52q-59 -128 -85 -213.5t-26 -148.5q0 -42 11.5 -77t35.5 -71l95 80l14 -18 l-209 -199h-22q-42 72 -59 126.5t-17 113.5q0 84 39.5 172t150.5 233q8 10 23 29q104 135 118 198q-20 -5 -35.5 -7.5t-29.5 -2.5q-38 0 -110.5 19.5t-104.5 19.5q-28 0 -52 -7t-44 -22v-36q0 -78 -8.5 -114t-26.5 -36q-6 0 -10 4t-4 10zM74 895q0 -12 1 -20.5t3 -16.5 q19 11 41.5 16t54.5 5q40 0 112.5 -18.5t106.5 -18.5q48 0 66 18.5t18 71.5q-19 -10 -43 -15.5t-53 -5.5q-33 0 -101 19.5t-106 19.5q-50 0 -75 -14t-25 -41zM143 199q0 -54 17.5 -108t52.5 -109l55 55q-31 36 -46 76t-15 88q0 67 36 162.5t165 336.5q-163 -210 -214 -311.5 t-51 -189.5z" />
<glyph unicode="8" horiz-adv-x="606" d="M16 45l84 76v385h-20v20q61 2 113.5 12t91.5 27q-59 26 -103.5 37.5t-83.5 11.5v23h21v262h-13v23h37q63 0 123 27.5t137 92.5q27 -17 59.5 -55.5t55.5 -38.5q12 0 25.5 7t30.5 21l14 -18l-86 -69v-252h20v-22q-34 -2 -76 -14t-102 -38q31 -18 77 -27.5t107 -9.5v-20h-16 v-395h16v-23h-14q-88 0 -164.5 -30.5t-156.5 -98.5h-15q-19 30 -41.5 58.5t-52.5 58.5l-53 -47zM103 91q3 -5 9 -12q53 -60 78 -91l66 45l-72 67v412q-10 -1 -30 -4t-31 -5v-390zM147 635l43 -8v272h-43v-264zM262 119l55 -51l33 14v448l-39 21l-49 -23v-409zM266 604 l47 -26l33 16v293l-51 51l-29 -16v-318zM313 948l58 -55v-291l59 21v249l49 37q-31 8 -59 25.5t-55 46.5zM375 90l3 1q33 10 58 13v402q-14 3 -36 8t-25 6v-430z" />
<glyph unicode="9" horiz-adv-x="606" d="M-10 -12q26 67 81 110t111 43q37 0 69.5 -18t63.5 -55l35 16v389l-186 -106q-36 51 -54.5 66.5t-39.5 15.5q-9 0 -24.5 -7.5t-39.5 -23.5l-10 20l104 76v385h-10v23h43q74 0 133.5 25t143.5 95q26 -17 59 -55.5t55 -38.5q12 0 25.5 7t30.5 21l14 -18l-76 -63v-784h19v-23 h-17q-90 0 -160 -28.5t-151 -100.5q-50 37 -75 48t-48 11q-20 0 -44.5 -7.5t-51.5 -22.5zM49 47q28 14 50 21.5t34 7.5q32 0 57 -13t51 -42q10 6 21.5 13.5t30.5 18.5q-27 32 -57 48t-62 16q-31 0 -65.5 -19t-59.5 -51zM80 469q38 -6 88 -69l2 -3l47 27l-33 43v434 q-5 -1 -15 -1.5t-44 -0.5v-405zM260 510l29 -41l61 35v383l-55 49l-35 -16v-410zM319 948l62 -55v-803l3 1q34 10 58 13v768l43 37q-30 8 -57 25t-55 47z" />
<glyph unicode=":" horiz-adv-x="463" d="M72 63l159 162l111 -110l33 32l16 -16l-160 -160l-110 111l-33 -35zM72 504l159 160l111 -111l33 35l16 -17l-160 -161l-110 110l-33 -33zM137 98l94 -94l58 57l-94 93zM137 537l94 -93l58 56l-94 94z" />
<glyph unicode=";" horiz-adv-x="463" d="M72 504l159 160l111 -111l33 35l16 -17l-160 -161l-110 110l-33 -33zM98 8l156 160l98 -100q17 -17 26 -35t9 -35q0 -23 -19.5 -53.5t-66.5 -79.5l-149 -150l-19 19l86 86q21 21 30 37t9 32q0 14 -5 25.5t-15 22.5l-91 88l-32 -33zM137 537l94 -93l58 56l-94 94zM166 43 l88 -92q3 -4 8 -9q23 -25 23 -38q0 -3 -1.5 -7.5t-6.5 -14.5l40 40q9 9 14 17.5t5 15.5q0 11 -7.5 25.5t-21.5 27.5l-88 90z" />
<glyph unicode="&#x3c;" horiz-adv-x="1706" d="M264 580v61l1178 483v-90l-1045 -424l1045 -424v-88z" />
<glyph unicode="=" horiz-adv-x="1706" d="M254 387v82h1198v-82h-1198zM254 752v79h1198v-79h-1198z" />
<glyph unicode="&#x3e;" horiz-adv-x="1706" d="M264 98v88l1045 424l-1045 424v90l1178 -483v-61z" />
<glyph unicode="?" horiz-adv-x="653" d="M113 1237v20q101 4 170 34t139 102l106 -113l76 41v-23l-76 -59v-381h25v-18q-112 -11 -173 -58t-61 -123q0 -36 20 -78t60 -94l35 25l10 -14l-159 -131q-49 43 -73 95.5t-24 115.5q0 87 47 149t142 102v398l-58 41h-28v-285l18 -2v-16q-93 0 -137.5 34t-44.5 107v133z M150 1106q0 -40 15.5 -65t49.5 -37v241l-65 -4v-135zM176 63l160 162l108 -110l35 32l17 -16l-160 -160l-111 111l-32 -35zM207 578q0 -49 18.5 -92t59.5 -89l51 41q-38 51 -55 92.5t-17 81.5q0 50 24.5 95.5t73.5 89.5q-78 -31 -116.5 -85.5t-38.5 -133.5zM242 98l94 -94 l55 57l-92 93zM332 1284l69 -53v-393l50 14v356l32 35l-39 8l-65 60z" />
<glyph unicode="@" horiz-adv-x="2048" d="M121 522q0 162 50.5 307t147.5 265q144 175 345.5 265.5t449.5 90.5q160 0 304.5 -44t248.5 -124q128 -98 194 -226.5t66 -277.5q0 -169 -63 -308t-181 -232q-67 -54 -145.5 -82.5t-159.5 -28.5q-95 0 -143.5 36.5t-48.5 108.5q0 12 3 34q1 3 1 5q-49 -88 -125 -136 t-166 -48q-154 0 -233.5 83t-79.5 243q0 228 134.5 386t326.5 158q95 0 160 -43t96 -127l61 129h80l-137 -553q-10 -36 -15.5 -64.5t-5.5 -43.5q0 -44 30.5 -68t86.5 -24q48 0 100 19.5t103 56.5q101 74 162 207t61 282q0 273 -199.5 439.5t-525.5 166.5q-168 0 -310.5 -48 t-258.5 -144q-154 -128 -232 -297t-78 -375q0 -327 221.5 -522t591.5 -195q161 0 324 50.5t299 142.5l29 -45q-146 -110 -308.5 -165t-339.5 -55q-187 0 -343 46.5t-277 138.5q-152 115 -226.5 267.5t-74.5 348.5zM690 446q0 -115 57.5 -180t159.5 -65q111 0 196 72.5 t116 193.5l63 254q-22 99 -81.5 151t-151.5 52q-152 0 -255.5 -138t-103.5 -340z" />
<glyph unicode="A" horiz-adv-x="1100" d="M14 -121q0 122 77.5 207t201.5 100l153 672q-36 56 -68 81.5t-65 25.5q-39 0 -61.5 -31.5t-26.5 -89.5h-20q0 110 48 178t124 68q29 0 56 -11t54 -35l21 72q-32 143 -84.5 209t-134.5 66q-67 0 -113.5 -42t-46.5 -102q0 -41 19 -76.5t55 -62.5l-17 -16q-44 36 -66 78 t-22 92q0 96 75.5 164.5t184.5 68.5t172.5 -62.5t110.5 -226.5l283 -989q13 -48 31.5 -80t41.5 -49l88 80l15 -16l-205 -185q-43 33 -72 79.5t-47 113.5l-71 268h-332l-55 -242q55 -1 104.5 -21.5t99.5 -62.5l70 58l12 -17l-207 -176q-58 32 -95.5 45t-70.5 13 q-77 0 -131.5 -54.5t-54.5 -132.5q0 -107 83.5 -182.5t217.5 -85.5v-20q-152 9 -242 98.5t-90 230.5zM31 -115v-6q15 76 70.5 122t131.5 46q41 0 81 -12.5t81 -38.5l60 53q-44 33 -89 49.5t-92 16.5q-101 0 -172 -67t-71 -163zM127 1329l2 -2q29 43 71.5 64.5t96.5 21.5 q83 0 135 -60t96 -214l174 -619h-307l-14 -65h342l72 -267q21 -85 44 -123t60 -69l43 39q-32 24 -52.5 59t-43.5 115l-266 958q-45 158 -104 225.5t-150 67.5q-70 0 -120.5 -33.5t-78.5 -97.5zM236 950l6 -2q12 18 31 27.5t44 9.5q33 0 60.5 -17t77.5 -75l18 84 q-30 31 -59.5 46t-61.5 15q-41 0 -71 -23t-45 -65zM412 592h241l-129 483z" />
<glyph unicode="B" horiz-adv-x="1245" d="M-18 1235q0 103 81.5 181.5t190.5 78.5q115 0 236 -117q41 -39 63 -57q29 -23 60 -37t53 -14q30 0 61 20.5t57 59.5l21 -11q-49 -80 -114.5 -124t-135.5 -44q-33 0 -64 11t-57 30q-47 34 -87 70.5t-40 40.5q0 10 -48.5 36.5t-94.5 26.5q-68 0 -112 -44t-44 -111 q0 -62 39.5 -106t112.5 -64l-6 -21q-91 27 -131.5 73.5t-40.5 121.5zM76 1391q23 10 46 15t44 5q47 0 85 -18t103 -78l12 -12q114 -107 191 -107q32 0 61.5 10t61.5 31q-6 -1 -16 -2q-22 -2 -31 -2q-45 0 -87 20t-95 68q-11 9 -31 27q-117 104 -197 104q-41 0 -78 -15.5 t-69 -45.5zM248 -150q0 144 96.5 239t241.5 95q69 0 135 -26t133 -80l33 14v559q-11 -6 -23 -13t-35 -20v-190q0 -106 -36 -148.5t-131 -60.5v27l16 4v889l-60 -25v-708q0 -106 -35.5 -147.5t-131.5 -59.5v24l16 4v385h-45q-71 0 -104 -21t-33 -67v-49h-25v57 q0 130 46.5 181t160.5 51v323l-16 -2v25q136 3 258.5 70.5t248.5 212.5q25 -39 83 -107q116 -136 116 -231q0 -75 -32.5 -144t-100.5 -141q33 -44 64 -69t53 -25q13 0 30 7.5t39 23.5l9 -21l-80 -55v-506h35l-1 -25q-160 -5 -257.5 -35.5t-172.5 -97.5q-70 47 -122.5 65.5 t-108.5 18.5q-103 0 -169.5 -61.5t-66.5 -159.5q0 -112 77 -181.5t210 -78.5v-21q-153 11 -234 88.5t-81 212.5zM279 578q14 31 52.5 45t108.5 14h54v-403q12 2 25 8t28 16v838l-53 -9v-387q-11 0 -22 -1l-11 -1q-96 0 -137.5 -27t-44.5 -93zM326 16l6 -4q40 31 86.5 47.5 t93.5 16.5q58 0 108.5 -16.5t120.5 -61.5l52 43q-60 47 -116.5 68.5t-119.5 21.5q-74 0 -128.5 -27t-102.5 -88zM702 1149l1 -893q13 3 26.5 9t27.5 15l1 900zM829 648q24 11 50 27q6 4 8 5v248q-6 7 -9 13.5t-4 12.5q0 12 8.5 21.5t16.5 9.5t16.5 -9.5t8.5 -21.5 q0 -3 -3 -9.5t-10 -17.5v-231q63 54 96 115t33 123q0 81 -48.5 158t-147.5 153l-15 -14v-583zM864 1264q107 -92 154 -168t47 -154q0 -35 -11 -72t-34 -77q45 46 66.5 96.5t21.5 109.5q0 70 -47 145.5t-148 164.5zM911 95q13 3 28 6l40 8v174h-68v-188zM911 307h68v133h-68 v-133zM911 465h68v156l-51 57l-17 -14v-199zM942 690l62 -63v-516l65 8v483l27 29q-33 8 -62 29.5t-59 60.5z" />
<glyph unicode="C" horiz-adv-x="948" d="M86 618q0 235 97.5 433t283.5 342l10 -21q-109 -95 -170 -286t-61 -437q0 -250 82.5 -389t230.5 -139q34 0 61 8t50 25v483q-1 3 -2 8q-9 36 -9 45q1 12 3.5 25.5t7.5 28.5v382q-35 8 -64 28t-57 56l-27 -22v-645q0 -129 -38 -182.5t-140 -73.5v22l18 6v777l-22 -7v23 q69 28 140.5 82.5t174.5 159.5q23 -25 54 -67q40 -54 67 -54q36 0 60 47.5t24 122.5v22h19v-20q0 -123 -50 -197t-135 -78v-382q5 -15 7.5 -28.5t3.5 -25.5q-1 -7 -7 -36q-2 -10 -4 -18v-468q56 36 90.5 104t40.5 156h21v-18q0 -129 -38.5 -224.5t-113.5 -154.5v-254 q0 -92 -29.5 -134t-93.5 -42q-38 0 -62 22t-24 58q0 29 19 47t49 18q20 0 32.5 -11t12.5 -28t-9 -27t-24 -10q-12 0 -21 7.5t-9 19.5q0 10 3.5 16.5t16.5 16.5h-8q-17 0 -28 -12.5t-11 -32.5q0 -28 18 -44t49 -16q50 0 72.5 35t22.5 115v239q-38 -23 -77.5 -35t-78.5 -12 q-187 0 -307.5 181.5t-120.5 469.5zM109 618q0 -273 114 -444.5t291 -171.5q51 0 87.5 9t68.5 28v72q-35 -24 -69.5 -36t-70.5 -12q-158 0 -258 158t-100 418q0 165 43.5 320.5t134.5 314.5q-122 -150 -181.5 -312t-59.5 -344zM387 324q15 3 29 10t28 18v784l-14 -7 q-29 -16 -43 -26v-779zM567 1227q37 -44 65 -62t58 -18q38 0 69 18t54 54q-18 -13 -34.5 -19t-33.5 -6h-10q-27 0 -54 16.5t-67 57.5zM694 57q47 44 76.5 100.5t46.5 135.5q-39 -76 -65 -110.5t-58 -59.5v-66z" />
<glyph unicode="D" horiz-adv-x="985" d="M23 1460l18 6q23 -83 64.5 -116t119.5 -33q60 0 188.5 38t196.5 38q124 0 193 -78.5t69 -218.5v-969l19 -2v-25q-13 1 -25 1.5t-22 0.5q-85 0 -151 -31.5t-128 -103.5q-68 46 -121.5 65t-109.5 19q-102 0 -168 -61.5t-66 -159.5q0 -111 77 -181t210 -79l-2 -21 q-152 11 -233.5 89.5t-81.5 214.5q0 142 97 236.5t241 94.5q19 0 39 -2.5t42 -7.5v1040q-103 -25 -145.5 -32.5t-67.5 -7.5q-101 0 -160.5 66.5t-92.5 219.5zM63 1368q25 -83 80 -126.5t136 -43.5q49 0 153 25.5t158 25.5q83 0 118 -39t35 -137l1 -958q19 4 33 6t24 2v987 q0 105 -50.5 158t-150.5 53q-53 0 -170 -30.5t-176 -30.5q-56 0 -103.5 27t-87.5 81zM74 475v57q0 130 46.5 181t160.5 51v211q0 84 39.5 125t132.5 53v-23l-21 -4v-720q0 -106 -35.5 -147.5t-132.5 -59.5v24l17 4v385h-45q-72 0 -105 -21t-33 -67v-49h-24zM92 578 q15 31 53.5 45t108.5 14h53v-403q12 2 25 8t28 16v840q-26 -14 -39.5 -41t-13.5 -66v-2v-289q-11 0 -21.5 -1t-11.5 -1q-96 0 -137.5 -27.5t-44.5 -92.5zM150 16l6 -4q40 32 85 48t93 16q57 0 108.5 -16.5t116.5 -57.5l47 45q-57 45 -111.5 65.5t-113.5 20.5 q-73 0 -127.5 -27.5t-103.5 -89.5zM514 166l47 -16v1075q-1 0 -16.5 -3t-30.5 -5v-1051zM586 141q20 -11 50 -27t38 -20l45 17v301q-5 0 -15 2q-41 6 -55 6q-8 0 -34 -4q-19 -3 -29 -5v-270zM586 436q2 1 5 1q47 7 68 7q7 0 38 -6q13 -2 22 -3v462q-25 -6 -40.5 -8t-29.5 -2 q-9 0 -24.5 3t-38.5 9v-463zM586 922q26 -6 41.5 -8.5t25.5 -2.5q11 0 26.5 2.5t39.5 8.5v161q0 77 -30 108.5t-103 32.5v-302z" />
<glyph unicode="E" horiz-adv-x="1174" d="M-82 1233q0 104 80.5 183t189.5 79q62 0 112 -22.5t114 -81.5q45 -44 84.5 -67.5t68.5 -23.5q22 0 43.5 11t51.5 37l20 -17q-46 -61 -104.5 -94t-118.5 -33q-77 0 -177 85l-1 1q-6 5 -15 13q-96 83 -166 83q-68 0 -112.5 -44t-44.5 -111q0 -62 39 -106t112 -64l-4 -21 q-88 25 -130 72t-42 121zM12 1391q24 10 46 15t42 5q49 0 89.5 -19t105.5 -79q56 -52 91 -69t75 -17q31 0 61.5 10.5t59.5 32.5q-5 -1 -12 -2q-23 -2 -33 -2q-43 0 -80.5 15.5t-91.5 61.5l-1 1q-127 108 -206 108q-41 0 -77 -15t-69 -46zM248 -156q0 160 118.5 263 t310.5 108l1 975q0 75 39 117.5t108 42.5q42 0 100.5 -29t82.5 -29q27 0 47 23.5t37 77.5l18 -11q-24 -109 -71 -166t-113 -57q-42 0 -101.5 31t-79.5 31q-22 0 -32.5 -15.5t-10.5 -48.5v-473q30 63 74 97t94 34q39 0 75.5 -19.5t74.5 -60.5q19 20 28 30t17 21l16 -14 q-47 -58 -94.5 -104t-97.5 -80q-46 66 -69 85t-48 19q-27 0 -46 -20.5t-23 -54.5l-1 -402q102 -6 193 -37.5t180 -91.5q28 17 49 33.5t37 34.5l17 -15q-23 -27 -69 -62.5t-161 -109.5q-132 60 -228.5 86.5t-174.5 26.5q-116 0 -192.5 -69t-76.5 -173q0 -118 75 -187.5 t212 -80.5v-20q-150 9 -232.5 86.5t-82.5 207.5zM260 475v57q0 130 46.5 181t160.5 51v231q0 84 39.5 125t132.5 54v-23l-21 -4v-725q0 -106 -36 -148.5t-131 -60.5v27l16 4v368h-45q-71 0 -104 -21t-33 -67v-49h-25zM279 578q14 31 52.5 45t108.5 14h54v-387q13 3 25.5 8.5 t27.5 15.5v844q-26 -14 -39.5 -41t-13.5 -65v-4v-308q-11 0 -22 -1l-11 -1q-96 0 -137.5 -27t-44.5 -93zM319 12q46 50 99.5 72t130.5 22q79 0 177 -27t220 -83l70 41q-106 66 -200 95.5t-195 29.5t-183.5 -41t-118.5 -109zM703 1221q10 9 22 14.5t20 5.5q31 0 91 -29.5 t92 -29.5q41 0 76 29.5t59 84.5q-32 -28 -54.5 -39.5t-43.5 -11.5q-22 0 -78 20.5t-94 20.5q-30 0 -53 -16.5t-37 -48.5zM719 684q14 14 28.5 20.5t32.5 6.5q30 0 55 -19t62 -71q15 11 30.5 24.5t33.5 30.5q-36 46 -66 64t-68 18q-32 0 -61 -20t-47 -54z" />
<glyph unicode="F" horiz-adv-x="1108" d="M-49 -131q0 143 96 248.5t221 105.5q105 0 253 -87q17 -10 26 -15q52 -30 94 -44t82 -14q62 0 94.5 39.5t32.5 114.5v987q-2 3 -8 8q-20 19 -31 33l-14 -16v-889q0 -105 -36 -147t-132 -60v27l18 4v975l-61 -25v-657q0 -106 -36 -147.5t-132 -59.5v24l18 7v331h-45 q-72 0 -105.5 -21t-33.5 -67v-49h-25v57q0 129 47.5 180.5t161.5 51.5v323l-18 -2v25q137 3 256.5 70.5t243.5 212.5q21 -26 50 -69q42 -60 70 -60q36 0 60 47.5t24 122.5v22h19v-24q0 -104 -37 -172t-107 -93v-1396q0 -90 -28.5 -130t-91.5 -40q-41 0 -63.5 19.5 t-22.5 53.5q0 31 17.5 49.5t47.5 18.5q20 0 32.5 -12t12.5 -29t-8.5 -26t-24.5 -9q-12 0 -20 7.5t-8 19.5q0 10 3 16t15 15h-10q-16 0 -25.5 -12t-9.5 -31q0 -28 17.5 -42t50.5 -14q49 0 70.5 33t21.5 113v841h-99v-374q0 -131 -64 -201t-181 -70q-53 0 -103 15.5t-119 54.5 q-3 2 -12 7q-131 75 -207 75q-85 0 -149 -72t-64 -170q0 -149 93 -231t262 -82v-15h-6q-176 0 -274.5 84.5t-98.5 235.5zM-49 1233q0 104 80.5 183t189.5 79q115 0 237 -117q40 -39 62 -57q29 -23 60 -37t53 -14q30 0 61 20.5t58 59.5l20 -11q-49 -80 -114.5 -124 t-135.5 -44q-32 0 -63.5 11t-57.5 30q-47 34 -87 70.5t-40 40.5q0 10 -47.5 36.5t-93.5 26.5q-68 0 -113 -44.5t-45 -112.5q0 -61 39.5 -104.5t112.5 -63.5l-4 -21q-89 27 -130.5 73.5t-41.5 119.5zM45 1391q24 10 45.5 15t42.5 5q48 0 87.5 -18.5t103.5 -77.5l15 -15 q110 -104 185 -104q32 0 61.5 10t59.5 31q-3 0 -10 -1q-25 -3 -35 -3q-45 0 -87 20t-95 68q-11 9 -30 26q-117 105 -198 105q-41 0 -76.5 -15t-68.5 -46zM66 100q36 22 67.5 31.5t67.5 9.5q64 0 208 -69.5t222 -69.5q68 0 104 13t66 42q-28 -17 -58 -24.5t-69 -7.5 q-78 0 -221.5 77.5t-214.5 77.5q-50 0 -93 -20t-79 -60zM248 578q15 31 53 45t109 14h51v-350q13 3 25.5 8.5t27.5 15.5v785l-53 -9v-387q-11 0 -22 -1l-11 -1q-96 0 -136.5 -27.5t-43.5 -92.5zM672 170q13 3 25.5 9t27.5 16v985l-53 -31v-979zM829 1262q36 -43 64.5 -60.5 t58.5 -17.5q39 0 69.5 17t53.5 52q-25 -11 -43 -16.5t-33 -5.5q-28 0 -55.5 16t-66.5 58zM874 637h99v61h-99v-61zM874 764h99v399q-3 0 -9.5 -1t-9.5 -1q-19 0 -38 6t-42 19v-422z" />
<glyph unicode="G" horiz-adv-x="983" d="M66 629q0 234 80 425t241 339l14 -17q-83 -82 -126.5 -264t-43.5 -453q0 -328 66.5 -492.5t198.5 -164.5q10 0 25 1.5t31 4.5l1 965h25v-180q81 105 134 207t81 206q-20 -34 -50.5 -51.5t-70.5 -17.5q-37 0 -71 20t-64 60l-35 -29v-725q0 -128 -39 -182t-141 -74v22l20 4 v859l-23 -7v23q68 28 139.5 81.5t178.5 160.5q20 -23 48 -60q42 -55 67 -55q37 0 59.5 61.5t22.5 169.5h24q-4 -191 -73.5 -368.5t-206.5 -347.5v-725q68 73 97.5 158t29.5 212q0 95 -18 180t-56 175l20 16q109 -58 164 -147t55 -207q0 -147 -80.5 -263t-211.5 -159v-219 q0 -90 -29.5 -130t-93.5 -40q-40 0 -63 19.5t-23 53.5q0 30 18.5 49t48.5 19q20 0 32.5 -12t12.5 -29t-8.5 -26t-23.5 -9q-13 0 -21 7.5t-8 19.5q0 10 3 16t15 15h-8q-17 0 -27 -12t-10 -31q0 -28 17.5 -42t50.5 -14q49 0 70.5 33t21.5 113v200q-10 0 -29 -2q-27 -2 -35 -2 q-182 0 -302.5 188t-120.5 474zM90 631q0 -220 80 -390t207 -225q-106 93 -163.5 259.5t-57.5 381.5q0 176 37.5 334t115.5 312q-109 -143 -164 -311.5t-55 -360.5zM367 242q13 2 27 9t30 20v865q-5 -2 -14 -7q-30 -16 -43 -25v-862zM555 1233q31 -39 59 -57.5t56 -18.5 q30 0 60 18.5t50 50.5q-23 -11 -39.5 -16.5t-27.5 -5.5q-25 0 -50.5 15.5t-62.5 54.5zM598 16q81 37 135.5 144.5t54.5 232.5q0 116 -29.5 195.5t-92.5 132.5q31 -71 47 -152.5t16 -173.5q0 -124 -32 -216t-99 -163z" />
<glyph unicode="H" horiz-adv-x="1245" d="M-18 1235q0 103 81.5 181.5t190.5 78.5q115 0 236 -117q41 -39 63 -57q29 -23 60 -37t53 -14q31 0 61 20.5t57 61.5l21 -13q-49 -80 -114.5 -124t-135.5 -44q-33 0 -64 11t-57 30q-47 34 -87 70.5t-40 40.5q0 10 -48.5 36.5t-94.5 26.5q-68 0 -112 -44t-44 -111 q0 -62 39.5 -106t112.5 -64l-6 -21q-91 27 -131.5 73.5t-40.5 121.5zM76 1391q23 10 46 15t44 5q47 0 85 -18t103 -78l12 -12q114 -107 191 -107q32 0 61.5 10t59.5 31q-3 0 -11 -1q-24 -3 -34 -3q-45 0 -87 20t-95 68q-11 9 -31 27q-117 104 -197 104q-41 0 -78 -15.5 t-69 -45.5zM248 -150q0 144 96.5 239t241.5 95q68 0 132.5 -25t129.5 -77l39 37v1108q0 76 39 121t104 45q35 0 68.5 -20.5t93.5 -84.5l45 51l16 -16q-53 -63 -97.5 -107t-82.5 -71l-43 63q-20 27 -42 41.5t-42 14.5q-7 0 -14.5 -3t-20.5 -12v-590l129 113q21 -30 45 -55.5 t52 -44.5q21 4 39 12.5t34 22.5l9 -21l-80 -55v-527h35v-24q-88 -13 -139.5 -60t-51.5 -112q0 -55 79 -129t79 -135q0 -54 -48.5 -96t-136.5 -64l-8 20q44 28 62 58t18 73q0 42 -35 125.5t-35 135.5q0 20 5.5 44t15.5 52v291h-68v-142h19v-20l-187 -154q-70 47 -122.5 65.5 t-108.5 18.5q-103 0 -169.5 -61.5t-66.5 -159.5q0 -112 77 -181.5t210 -78.5v-21q-153 11 -234 88.5t-81 212.5zM260 475v57q0 130 46.5 181t160.5 51v211q0 84 39.5 125t132.5 53v-23l-21 -4v-720q0 -106 -35.5 -147.5t-131.5 -59.5v24l16 4v385h-45q-71 0 -104 -21 t-33 -67v-49h-25zM279 578q14 31 52.5 45t108.5 14h54v-403q12 2 25 8t28 16v840q-26 -14 -39.5 -41t-13.5 -66v-2v-289q-11 0 -22 -1l-11 -1q-96 0 -137.5 -27t-44.5 -93zM326 16l6 -4q40 31 86.5 47.5t93.5 16.5q58 0 108.5 -16.5t120.5 -61.5l52 43q-60 47 -116.5 68.5 t-119.5 21.5q-74 0 -128.5 -27t-102.5 -88zM662 219v27l16 4v825q0 84 39.5 125t132.5 53v-22l-21 -4v-799q0 -106 -36 -148.5t-131 -60.5zM702 1087l1 -831q13 3 26.5 9t27.5 15l1 918q-27 -14 -41.5 -41.5t-14.5 -64.5v-5zM907 1274q13 6 23 9t20 3q25 0 48.5 -15.5 t48.5 -47.5l30 -43q18 11 33 25t27 30q-39 54 -68.5 75t-62.5 21q-32 0 -56.5 -14t-42.5 -43zM911 307h68v133h-68v-133zM911 465h68v156l-37 32l-31 -24v-164zM961 668l43 -41v-604q11 11 26 21.5t39 25.5v532l26 28q-22 6 -43.5 19.5t-58.5 48.5zM1016 -467l4 -6 q35 18 50 45.5t15 71.5q0 27 -13.5 58t-41.5 65l-8 -5q16 -36 23.5 -67t7.5 -60q0 -27 -9 -51.5t-28 -50.5z" />
<glyph unicode="I" d="M-6 -113q0 153 79 255t197 102q65 0 116.5 -26t108.5 -88q13 -14 37 -41q75 -87 127 -87q56 0 82.5 63t26.5 197v813q0 84 39.5 125t132.5 53v-22l-20 -4v-942q0 -154 -71 -236t-204 -82q-80 0 -222 67.5t-204 67.5q-92 0 -148.5 -59.5t-56.5 -159.5q0 -146 90.5 -228.5 t249.5 -82.5h23v-23q-6 0 -14.5 1t-12.5 1q-170 0 -263 88t-93 248zM43 37q39 46 82 68t96 22q65 0 180.5 -55.5t178.5 -73.5q-32 23 -88 71q-136 117 -234 117q-71 0 -131.5 -42t-83.5 -107zM72 1233q0 104 80.5 183t189.5 79q115 0 236 -117q41 -39 63 -57q29 -23 60 -37 t53 -14q30 0 61 21t57 61l21 -13q-49 -80 -114.5 -124t-135.5 -44q-32 0 -63.5 11t-57.5 30q-47 34 -87 70.5t-40 40.5q0 10 -47.5 36.5t-93.5 26.5q-68 0 -113 -44t-45 -111q0 -62 39.5 -106t112.5 -64l-4 -21q-90 27 -131 73t-41 120zM166 1391q23 10 45 15t43 5 q48 0 87.5 -18.5t102.5 -77.5q6 -5 16 -15q109 -104 185 -104q32 0 61.5 10t59.5 31q-3 0 -11 -1q-24 -3 -34 -3q-45 0 -87 20t-95 68q-11 9 -30 26q-118 105 -198 105q-41 0 -76.5 -15t-68.5 -46zM348 475v57q0 129 47.5 180.5t161.5 51.5v211q0 84 39 125t131 53v-23 l-20 -4v-780q0 -105 -36 -147t-132 -60v25l18 4v444h-45q-72 0 -105.5 -21t-33.5 -67v-49h-25zM369 578q14 31 52.5 45t108.5 14h52v-461q12 3 25 9t28 16v897q-26 -14 -39.5 -41t-13.5 -66v-2v-289q-11 0 -22 -1l-11 -1q-96 0 -136.5 -27t-43.5 -93zM729 2q65 30 92 88 t27 176v932q-27 -14 -41 -41.5t-14 -64.5v-5v-833q0 -102 -16 -165t-48 -87z" />
<glyph unicode="J" d="M72 1231q0 105 80 184.5t190 79.5q115 0 236 -117q41 -39 63 -57q29 -23 60 -37t53 -14q30 0 61 21t57 61l21 -13q-49 -80 -114.5 -124t-135.5 -44q-32 0 -63.5 11t-57.5 30q-46 34 -85.5 70.5t-39.5 40.5q0 10 -48.5 36.5t-94.5 26.5q-68 0 -113 -44t-45 -111 q0 -62 39.5 -106t112.5 -64l-4 -21q-90 27 -131 73t-41 118zM166 1391q23 10 45 15t43 5q48 0 87.5 -18.5t102.5 -77.5q6 -5 16 -15q109 -104 185 -104q32 0 61.5 10t59.5 31q-3 0 -11 -1q-24 -3 -34 -3q-45 0 -87 20t-95 68q-11 9 -30 26q-117 105 -196 105q-42 0 -78 -15 t-69 -46zM242 252q0 37 9.5 71.5t29.5 67.5l-17 17l17 16l157 -145q-23 -39 -33 -68.5t-10 -56.5q0 -67 49 -109.5t123 -42.5q108 0 154.5 69t46.5 248v756q0 84 39.5 125t132.5 53v-22l-20 -4v-908q0 -166 -91.5 -259t-253.5 -93q-140 0 -236.5 83t-96.5 202zM311 207 q0 -69 42 -124t114 -81v4q-50 27 -73 62.5t-23 83.5q0 29 8.5 58.5t26.5 61.5l-56 54q-19 -29 -29 -58.5t-10 -60.5zM348 473v59q0 128 47 179t162 51v211q0 84 39 125t131 53v-23l-20 -2v-768q0 -105 -36 -146.5t-132 -59.5v26l18 4v428h-45q-72 0 -105.5 -21t-33.5 -67 v-49h-25zM369 578q14 31 52.5 45t108.5 14h52v-446q12 2 25 8t28 16v883q-26 -14 -39.5 -41t-13.5 -66v-2v-289q-11 0 -22 -1l-11 -1q-96 0 -136.5 -27t-43.5 -93zM666 4l2 -4q98 27 139 97t41 218v883q-27 -14 -41 -41.5t-14 -64.5v-5v-804q0 -124 -29 -186.5t-98 -92.5z " />
<glyph unicode="K" horiz-adv-x="1245" d="M-82 1233q0 104 80.5 183t189.5 79q62 0 112 -22.5t114 -81.5q45 -44 84.5 -67.5t68.5 -23.5q23 0 45 12.5t50 39.5l20 -21q-46 -61 -104.5 -94t-118.5 -33q-77 0 -177 85l-1 1q-6 5 -15 13q-96 83 -166 83q-68 0 -112.5 -44t-44.5 -111q0 -62 39 -106t112 -64l-4 -21 q-88 25 -130 72t-42 121zM12 1391q24 10 46 15t42 5q50 0 90.5 -19.5t104.5 -80.5q58 -52 92.5 -68t73.5 -16q31 0 61.5 10.5t59.5 32.5q-5 -1 -12 -2q-23 -2 -33 -2q-43 0 -80.5 15.5t-91.5 61.5l-1 1q-127 108 -206 108q-41 0 -77 -15t-69 -46zM203 -150q0 146 97 240 t245 94q33 0 66 -7t67 -21v997q0 98 46 151.5t130 53.5q50 0 96 -25.5t103 -85.5l26 19l13 -21l-170 -121q-47 74 -76 98.5t-62 24.5q-22 0 -42.5 -13.5t-39.5 -41.5v-442q31 25 77.5 72t105.5 112l207 -285q-50 -30 -95.5 -60t-87.5 -61q82 -73 128 -234t102 -210l80 76 l14 -17q-22 -21 -61 -59q-92 -90 -121 -117q-56 25 -88.5 70t-53.5 129l-9 39q-38 163 -107 235q-29 -24 -50.5 -43.5t-40.5 -38.5v-211q25 -12 46.5 -25.5t42.5 -28.5l47 50l18 -14l-158 -162q-69 47 -121.5 65.5t-107.5 18.5q-104 0 -171 -61t-67 -160q0 -112 77 -181.5 t210 -78.5v-21q-153 11 -234 88.5t-81 212.5zM260 475v57q0 130 46.5 181t160.5 51v231q0 84 39.5 125t132.5 54v-23l-21 -4v-725q0 -106 -36 -148.5t-131 -60.5v27l16 4v368h-45q-71 0 -104 -21t-33 -67v-49h-25zM279 578q14 31 52.5 45t108.5 14h54v-387q13 3 25.5 8.5 t27.5 15.5v844q-26 -14 -39.5 -41t-13.5 -65v-4v-308q-11 0 -22 -1l-11 -1q-96 0 -137.5 -27t-44.5 -93zM281 16l8 -4q41 32 86.5 48t93.5 16q57 0 108.5 -17t120.5 -61l45 47q-58 46 -113 66t-116 20q-75 0 -130 -27t-103 -88zM702 391q49 46 110 95t140 106l-153 213 q-27 -27 -89 -78l-7 -6zM707 1225q18 21 37 32t38 11q41 0 75.5 -26t72.5 -85l61 45q-33 53 -78 82t-94 29q-43 0 -69 -20.5t-43 -67.5zM815 455q37 -42 60 -90.5t45 -143.5q21 -100 50.5 -150t78.5 -73l45 37q-40 33 -65.5 78.5t-49.5 136.5l-6 24q-39 149 -115 215z M817 823l158 -219l41 27l-166 227z" />
<glyph unicode="L" horiz-adv-x="1245" d="M-35 1233q0 104 81.5 183t191.5 79q61 0 111 -22.5t114 -81.5q46 -45 84.5 -68t66.5 -23q23 0 46.5 12.5t50.5 39.5l18 -21q-46 -61 -104.5 -94t-118.5 -33q-77 0 -177 85l-1 1q-5 4 -15 13q-96 83 -166 83q-68 0 -112.5 -44t-44.5 -111q0 -62 40 -106t113 -64l-6 -21 q-90 27 -131 73t-41 120zM59 1391q24 10 46 15t42 5q49 0 89.5 -19t105.5 -79q56 -52 91 -69t75 -17q30 0 60 10.5t61 32.5q-5 -1 -12 -2q-23 -2 -33 -2q-43 0 -79.5 16t-91.5 64q-1 1 -6 5q-123 101 -200 101q-42 0 -78.5 -15.5t-69.5 -45.5zM248 -156q0 161 123.5 266 t312.5 105q100 0 197.5 -32.5t195.5 -98.5v383q-14 28 -41 76q-57 99 -57 147q0 71 110 131q9 5 14 8l9 -8q-17 -15 -25 -30t-8 -31q0 -23 27 -78.5t27 -99.5q0 -25 -7 -52.5t-24 -66.5v-365q11 9 23 20t36 36l17 -15q-23 -27 -69 -62.5t-161 -109.5q-132 60 -228.5 86.5 t-174.5 26.5q-116 0 -192.5 -69t-76.5 -173q0 -118 75 -187.5t212 -80.5v-20q-150 9 -232.5 86.5t-82.5 207.5zM260 475v57q0 130 46.5 181t160.5 51v231q0 84 39.5 125t132.5 54v-23l-21 -4v-725q0 -106 -36 -148.5t-131 -60.5v27l16 4v368h-45q-71 0 -104 -21t-33 -67v-49 h-25zM279 578q14 31 52.5 45t108.5 14h54v-387q13 3 25.5 8.5t27.5 15.5v844q-26 -14 -39.5 -41t-13.5 -65v-4v-308q-11 0 -22 -1l-11 -1q-96 0 -137.5 -27t-44.5 -93zM319 12q46 50 99.5 72t130.5 22q79 0 177 -27t220 -83l70 41q-106 66 -200 95.5t-195 29.5t-183.5 -41 t-118.5 -109zM662 262v25l16 4v772q0 135 82 224t203 89q59 0 109 -22t102 -70q12 9 23.5 22t21.5 29l14 -10q-22 -40 -178 -173l-8 -7q-70 112 -103.5 149t-60.5 37q-29 0 -41.5 -23t-12.5 -79v-760q0 -105 -35.5 -147t-131.5 -60zM702 1038l1 -741q13 3 26.5 9t27.5 15 l1 926q-28 -35 -42 -87.5t-14 -121.5zM916 1343q37 -24 72 -67.5t63 -99.5l53 47q-42 61 -87 89.5t-101 30.5zM1004 692q0 -45 30 -100q6 -12 6 -14q0 -3 17 -31.5t30 -54.5q1 2 3 9q4 15 4 23q0 37 -25 104.5t-25 102.5q1 21 3 32t7 23q-25 -14 -37.5 -38t-12.5 -56z" />
<glyph unicode="M" horiz-adv-x="1434" d="M-35 -119q0 142 98 245t236 103q85 0 212.5 -72.5t158.5 -72.5t49 31t18 86v975l-59 -33v-727q0 -106 -36 -147.5t-132 -59.5v24l16 5v374h-45q-71 0 -104 -21t-33 -67v-49h-25v57q0 130 47 181t160 51v330h-16v24q113 13 213.5 80t196.5 195q48 -45 66 -85.5t18 -105.5 v-14q16 7 29.5 15.5t22.5 16.5l1 150q-8 8 -12.5 17.5t-4.5 19.5q0 18 8 29.5t19 11.5q10 0 18.5 -12t8.5 -29q0 -8 -3.5 -18t-9.5 -19v-133q49 42 82 78.5t60 77.5q18 -18 45 -52q49 -59 82 -59q28 0 52 32.5t44 96.5l20 -6q-20 -77 -54.5 -133t-82.5 -86v-1049l27 -24 l47 41l18 -21q-51 -43 -96 -82.5t-86 -77.5q-40 33 -57 63.5t-17 82.5v22v471h-84v-460l23 26l18 -20l-194 -185q-24 33 -49 59.5t-52 47.5l-43 -33l-12 16l74 64v485h-84v-399q0 -115 -44 -177.5t-124 -62.5q-57 0 -185 75t-206 75q-93 0 -153 -69.5t-60 -172.5 q0 -143 85.5 -223.5t241.5 -85.5v-23q-165 0 -258.5 88.5t-93.5 243.5zM25 1233q0 106 78 184t180 78q95 0 232 -126q31 -29 48 -44q32 -27 58.5 -40t50.5 -13q27 0 56.5 20t55.5 58l21 -11q-49 -78 -113.5 -121.5t-128.5 -43.5q-79 0 -206 115q0 1 -1 1q-1 1 -2 3 q-97 89 -168 89q-54 0 -94.5 -44.5t-40.5 -106.5t39.5 -106t112.5 -64l-4 -21q-91 27 -132.5 73.5t-41.5 119.5zM90 117q31 15 61.5 22.5t61.5 7.5q76 0 203 -72.5t176 -72.5q50 0 82 21t49 65q-21 -23 -44.5 -34t-49.5 -11q-46 0 -171 69.5t-196 69.5q-52 0 -92.5 -15.5 t-79.5 -49.5zM121 1391q23 9 41 13.5t31 4.5q41 0 78.5 -18.5t99.5 -75.5q6 -6 20 -19q108 -100 174 -100q28 0 56.5 10.5t53.5 30.5q-6 -1 -14 -1.5t-22 -0.5q-39 0 -80.5 20t-93.5 66q-8 7 -21 19q-121 110 -192 110q-35 0 -67.5 -14.5t-63.5 -44.5zM338 578 q15 31 53.5 45t108.5 14h51v-391q14 3 27.5 9t27.5 15v844l-55 -14v-400q-124 0 -166.5 -26t-46.5 -96zM762 637h84v63h-84v-63zM762 764h84v436l-28 32q-7 -4 -25.5 -20t-30.5 -24v-424zM836 1253l36 -39v-1099l-20 -19q21 -18 41 -40t41 -50l49 47l-45 45v1131 q0 19 -12 39t-34 36zM1004 131l28 -27l25 25v1061l-53 -37v-1022zM1081 637h84v63h-84v-63zM1081 764h84v453l-28 34q-4 -3 -23 -19t-33 -28v-440zM1155 1270l35 -39v-1110q0 -42 11.5 -67t39.5 -48l59 55l-43 39v1092l74 47q-35 0 -66.5 15t-72.5 53z" />
<glyph unicode="N" horiz-adv-x="1100" d="M-31 1262q0 96 75.5 164.5t184.5 68.5q101 0 162 -53t131 -236l99 -260q41 -15 76 -23t63 -8q32 0 63 8t64 23v201q-46 0 -85 17.5t-77 56.5l-37 -27l-12 16q49 40 87.5 84t72.5 99q72 -91 100 -114.5t51 -23.5q28 0 49.5 31t40.5 100l23 -6q-27 -103 -73 -159.5 t-116 -71.5l1 -955q0 -1 3 -6q42 -82 68 -100l90 80l14 -16l-204 -185q-38 28 -69.5 75.5t-57.5 117.5l-88 243q-42 15 -78.5 23t-63.5 8q-31 0 -61 -7.5t-64 -23.5v-217q50 -8 92 -28.5t82 -55.5l70 58l12 -17l-204 -176q-53 31 -102 45.5t-99 14.5q-97 0 -155 -52 t-58 -137q0 -108 82.5 -183t216.5 -85v-20q-153 9 -242.5 98.5t-89.5 230.5q0 136 94 223.5t242 87.5h6q15 -2 29 -2v443h-43q-79 0 -113.5 -21t-34.5 -67v-49h-24v57q0 130 48 180.5t167 50.5v369q-47 134 -94.5 187t-116.5 53q-73 0 -119.5 -41t-46.5 -103q0 -41 19 -76.5 t55 -62.5l-15 -16q-45 37 -67.5 79t-22.5 91zM-2 1329q40 45 80 64.5t90 19.5q134 0 232 -255q5 -13 8 -20l366 -950q4 -9 11 -29q42 -116 100 -161l45 37q-50 36 -101 169q-1 4 -2 5l-366 958q-72 184 -126.5 238.5t-137.5 54.5q-70 0 -121 -33.5t-78 -97.5zM23 -117v-4 q15 84 77.5 129t161.5 45q45 0 90.5 -13.5t96.5 -41.5l59 49q-45 36 -96.5 54t-110.5 18q-123 0 -200.5 -66.5t-77.5 -169.5zM182 596q15 30 51.5 43.5t100.5 13.5q7 0 21.5 1t21.5 1v61q-109 -1 -149.5 -27.5t-45.5 -92.5zM401 430q38 15 67 22t52 7q29 0 59.5 -5.5 t73.5 -19.5l-252 660v-664zM635 915l252 -655l-1 659q-31 -13 -62 -19.5t-64 -6.5q-29 0 -60 5.5t-65 16.5zM745 1239q26 -33 62 -51.5t76 -18.5q33 0 63 13.5t51 38.5q-8 -3 -18.5 -3.5t-30.5 -0.5q-30 0 -63.5 20t-79.5 66z" />
<glyph unicode="O" horiz-adv-x="985" d="M96 643q0 227 82.5 423t245.5 357l12 -12q-87 -98 -131.5 -287t-44.5 -462q0 -332 65.5 -496t196.5 -164h13q13 0 21 1.5t15 4.5v1229l-43 -37v-731q0 -127 -39.5 -181.5t-142.5 -74.5v23l23 6v862l-23 -8v24q56 22 110 59t115 97v151q-6 9 -10 19t-4 20q0 15 6.5 22 t20.5 7q13 0 20.5 -7.5t7.5 -21.5q0 -10 -4 -20.5t-12 -18.5v-129q19 19 40 43.5t42 51.5q116 -141 173.5 -320.5t57.5 -402.5q0 -254 -80.5 -429.5t-232.5 -252.5v-217q0 -90 -29 -130t-94 -40q-40 0 -63 19.5t-23 53.5q0 30 19 49t49 19q19 0 32 -12t13 -29t-8.5 -26 t-24.5 -9q-13 0 -21 7.5t-8 19.5q0 10 3 16t16 15h-8q-17 0 -27 -12t-10 -31q0 -28 17 -42t50 -14q50 0 71 33t21 113v204q-2 0 -9 -1q-35 -7 -52 -7q-175 0 -294.5 192t-119.5 484zM121 641q0 -223 76.5 -393t201.5 -230l4 9q-105 77 -163 248t-58 405q0 161 37 313.5 t111 296.5q-103 -130 -156 -295t-53 -354zM393 1110l1 -860q14 3 28 10t28 18l1 864q-5 -2 -15 -7q-29 -16 -43 -25zM596 16q61 46 101.5 140.5t58.5 234.5q-28 16 -52 23.5t-49 7.5q-14 0 -28.5 -1.5t-30.5 -5.5v-399zM596 443q16 2 31.5 3.5t29.5 2.5q25 0 51 -6.5 t54 -18.5q3 53 4.5 96t1.5 78q0 66 -4 122.5t-12 108.5q-24 -14 -49 -21t-56 -7q-12 0 -25 1.5t-26 3.5v-363zM596 832q13 -4 25 -5.5t28 -1.5q25 0 47.5 7.5t48.5 23.5q-17 99 -54 196.5t-95 196.5v-417zM608 1272q95 -155 140 -320.5t45 -365.5q0 -174 -30 -303.5 t-91 -219.5q79 63 125.5 211t46.5 342q0 210 -49.5 386.5t-145.5 306.5z" />
<glyph unicode="P" horiz-adv-x="1133" d="M4 1235q0 112 82.5 186t208.5 74q139 0 209.5 -83t70.5 -247v-94l62 45v217q-9 9 -12.5 17.5t-3.5 19.5q0 17 8 30t18 13q9 0 19 -13.5t10 -29.5q0 -6 -4 -16t-10 -20v-197q38 30 101 90t150 149q29 -22 71.5 -71.5t70.5 -49.5q27 0 51 38.5t39 107.5l20 -4 q-13 -77 -47 -134.5t-90 -99.5v-1038h23v-25h-21q-106 0 -177.5 -32t-119.5 -101l-71 51v-303q-71 -34 -132 -75t-114 -91l-17 23l27 20v504q-100 -3 -161.5 -47.5t-61.5 -111.5q0 -41 22 -70.5t68 -48.5l-6 -21q-63 26 -93 70.5t-30 112.5q0 111 68.5 182.5t193.5 91.5v358 h-45q-71 0 -104 -21t-33 -67v-49h-25v57q0 129 47 180.5t160 51.5v383q0 120 -48 178.5t-145 58.5q-78 0 -137 -52.5t-59 -121.5q0 -62 36.5 -102t106.5 -55l-4 -17q-84 17 -128 68t-44 131zM25 1256q25 71 82 112t131 41q106 0 159.5 -64.5t53.5 -191.5v-453q-11 0 -22 -1 l-11 -1q-96 0 -136.5 -27.5t-43.5 -92.5q14 30 53 44.5t108 14.5h52v-451q-136 -12 -199.5 -65.5t-65.5 -154.5q19 74 85.5 113t178.5 42l1 -510q12 11 40 31q11 8 17 12v1499q0 153 -62.5 228t-189.5 75q-47 0 -95.5 -21t-82.5 -57q-24 -27 -37 -56.5t-16 -65.5zM575 -299 q16 9 31.5 17t30.5 14v1351l-62 -45v-1337zM662 47l63 -45q7 10 17 20.5t26 24.5q-27 24 -53 41.5t-53 30.5v-72zM662 205q48 -21 90.5 -49t83.5 -66l34 16v316q-28 10 -55 15t-49 5q-28 0 -53.5 -5t-50.5 -15v-217zM662 444q30 11 55 16t49 5q20 0 46.5 -5t57.5 -16v404 q-25 -9 -52 -14t-54 -5q-19 0 -44 4.5t-58 14.5v-404zM662 870q29 -10 54.5 -15t47.5 -5q29 0 55 5t51 15v318l-67 45q-53 -49 -84.5 -77t-56.5 -50v-236zM819 1251l76 -51v-1089l63 12v1038l68 55q-36 7 -72.5 26t-85.5 56z" />
<glyph unicode="Q" horiz-adv-x="985" d="M96 643q0 227 82.5 423t245.5 357l12 -12q-88 -99 -132 -289.5t-44 -476.5q0 -321 65.5 -482t196.5 -161q15 0 26 0.5t23 1.5v1233l-43 -37v-729q0 -127 -39.5 -181.5t-142.5 -74.5v23l23 4v862l-23 -8v24q56 22 110 59t115 97v151q-7 8 -10.5 17.5t-3.5 21.5 q0 14 7 21.5t20 7.5q12 0 19 -7.5t7 -21.5q0 -7 -3.5 -17t-10.5 -22v-129q19 19 40 43.5t42 51.5q116 -141 173.5 -320.5t57.5 -402.5q0 -273 -95 -460.5t-251 -227.5v-4q12 2 23.5 3t29.5 1q65 0 98 -36t52 -134q26 -115 47.5 -151t54.5 -36q15 0 30.5 10t31.5 29l14 -16 q-34 -42 -68 -62t-71 -20q-57 0 -94.5 42.5t-90.5 193.5q-3 10 -10 31q-38 114 -92 114q-12 0 -26 -3t-33 -10l-4 13q20 6 40 10.5t41 7.5l1 6q-5 -2 -10.5 -3t-16.5 -1q-177 0 -295.5 191.5t-118.5 484.5zM121 641q0 -223 76.5 -393t201.5 -230l4 9q-105 77 -163 248 t-58 405q0 161 37 313.5t111 296.5q-103 -130 -156 -295t-53 -354zM393 1110l1 -860q14 3 28 10t28 18l1 864q-5 -2 -15 -7q-29 -16 -43 -25zM547 -37q53 -12 101 -165q1 -2 1 -3q39 -120 73.5 -163.5t84.5 -43.5q7 0 14.5 1.5t17.5 4.5q-48 8 -76 44.5t-56 142.5 q-33 118 -61.5 151t-76.5 33q-6 0 -12 -0.5t-10 -1.5zM596 16q61 46 101.5 140.5t58.5 234.5q-28 16 -52 23.5t-49 7.5q-14 0 -28.5 -1.5t-30.5 -5.5v-399zM596 443q16 2 31.5 3.5t29.5 2.5q25 0 51 -6.5t54 -18.5q3 53 4.5 96t1.5 78q0 66 -4 122.5t-12 108.5 q-24 -14 -49 -21t-56 -7q-12 0 -25 1.5t-26 3.5v-363zM596 832q13 -4 25 -5.5t28 -1.5q25 0 47.5 7.5t48.5 23.5q-17 99 -54 196.5t-95 196.5v-417zM608 1272q95 -155 140 -320.5t45 -365.5q0 -174 -30 -303.5t-91 -219.5q79 63 125.5 211t46.5 342q0 210 -49.5 386.5 t-145.5 306.5z" />
<glyph unicode="R" horiz-adv-x="1174" d="M-23 1227q0 120 80 194t209 74q133 0 208 -81t75 -226v-23q14 4 28.5 11t30.5 18v139q-8 8 -11 16.5t-3 20.5q0 17 8 30t19 13q9 0 17.5 -13t8.5 -30q0 -7 -3.5 -16t-10.5 -21v-125q30 17 79.5 64t114.5 121q23 -40 113 -148.5t90 -197.5q0 -84 -43 -163.5t-137 -168.5 q69 -73 111 -299t116 -326q17 17 32.5 35.5t31.5 40.5l18 -16q-45 -62 -91.5 -106.5t-98.5 -76.5q-76 82 -125.5 317.5t-120.5 336.5q-9 -4 -39 -18.5t-51 -22.5v-437q14 -6 37 -21.5t55 -39.5l39 37l20 -19l-163 -133q-70 47 -122.5 65.5t-109.5 18.5q-103 0 -169 -61.5 t-66 -159.5q0 -112 76.5 -181.5t209.5 -78.5v-21q-153 11 -234 88.5t-81 212.5q0 144 96.5 239t241.5 95q32 0 67.5 -7t77.5 -23v1005q-14 -7 -28.5 -13.5t-30.5 -12.5v-711q0 -106 -36 -148.5t-132 -60.5v27l16 4v368h-45q-71 0 -104 -21t-33 -67v-49h-25v57 q0 130 46.5 181t160.5 51v383q0 120 -47.5 178.5t-144.5 58.5q-79 0 -138 -52.5t-59 -121.5q0 -62 36.5 -102t107.5 -55l-5 -17q-79 15 -124.5 66t-45.5 125zM-4 1255q25 72 82 113t131 41q107 0 160 -63.5t53 -192.5v-453q-11 0 -21 -1l-10 -1q-97 0 -138 -27.5t-44 -92.5 q15 31 53 45t109 14h51v-387q13 3 27 9t30 15v879q0 153 -62.5 228t-189.5 75q-88 0 -156.5 -58.5t-74.5 -142.5zM203 16l6 -4q40 31 86.5 47.5t93.5 16.5q58 0 110 -17t122 -61l49 43q-60 47 -116.5 68.5t-119.5 21.5q-74 0 -128 -27t-103 -88zM633 604q130 56 203 141 t73 181q0 80 -48.5 157t-145.5 152q-33 -25 -50 -38t-32 -23v-570zM733 1253q108 -92 154.5 -166.5t46.5 -152.5q0 -35 -11 -72t-34 -78q44 46 65 95.5t21 109.5q0 72 -47.5 148t-145.5 163zM745 635q64 -77 119 -321q5 -24 8 -37q36 -152 57.5 -203t49.5 -76l49 37 q-77 77 -121 298l-12 60q-27 128 -49.5 185.5t-52.5 87.5z" />
<glyph unicode="S" horiz-adv-x="1020" d="M18 -129q0 146 115.5 259.5t272.5 113.5h16l78 270q-17 13 -49 37q-316 238 -316 373q0 52 22 98t70 94l10 -6q-3 -21 -4.5 -35t-1.5 -22q0 -69 47.5 -143t135.5 -142q45 -36 129 -94q225 -157 225 -283q0 -50 -23 -91t-71 -77l-12 8q0 6 1 15q3 25 3 30 q0 60 -34.5 112.5t-113.5 111.5l-76 -262q71 -15 128.5 -45.5t107.5 -79.5q83 75 116 135.5t33 134.5q0 158 -285 362l-12 9q-133 97 -190 178.5t-57 169.5q0 120 79.5 205.5t192.5 85.5q46 0 93.5 -19.5t107.5 -62.5q34 31 55.5 61.5t32.5 63.5l14 -17q-24 -72 -165 -204 q-41 -39 -62 -60q-53 88 -89 118t-81 30q-47 0 -76 -29.5t-29 -77.5q0 -70 68.5 -150.5t196.5 -162.5l20 43q27 55 58 82.5t67 27.5q50 0 105.5 -36.5t70.5 -36.5q19 0 33.5 15.5t21.5 45.5l21 -6q-26 -93 -60.5 -134.5t-85.5 -41.5q-41 0 -98.5 41t-83.5 41q-6 -1 -14 -3.5 t-10 -2.5l-27 -48q173 -117 239 -207.5t66 -201.5q0 -126 -184 -302q-118 -113 -180 -192q-63 49 -105 77t-76 44q-45 -175 -112.5 -271t-143.5 -96q-58 0 -91.5 40t-33.5 110zM45 -133q0 -55 26.5 -88t67.5 -33q72 0 132 89t106 261q-28 13 -56 19t-57 6q-94 0 -156.5 -72 t-62.5 -182zM145 111q37 18 67 26t60 8q65 0 141.5 -36.5t164.5 -110.5l47 53q-83 70 -152.5 100.5t-140.5 30.5q-55 0 -101 -17.5t-86 -53.5zM158 936q0 -76 53 -145.5t199 -174.5q166 -120 222 -187t56 -134q0 -1 -1 -11t-1 -20q19 14 29 37.5t10 52.5q0 111 -214 262 q-65 46 -99 72q-129 97 -179.5 172.5t-50.5 163.5q-13 -23 -18.5 -44t-5.5 -44zM305 1108q0 -81 50.5 -157t152.5 -150q22 -17 65 -48q279 -201 279 -374q0 -35 -9.5 -70.5t-29.5 -72.5q39 31 59.5 79t20.5 109q0 175 -290 384q-49 35 -75 54q-106 79 -154 147t-65 158 q-2 -20 -3 -34t-1 -25zM393 1311l4 -6q20 10 36.5 14t35.5 4q46 0 86 -30.5t80 -96.5q19 19 33.5 33t29.5 28q-52 53 -96 76t-90 23q-32 0 -60.5 -11t-58.5 -34zM678 946h16q35 0 89.5 -39t90.5 -39q28 0 47.5 16t39.5 56q-14 -9 -25 -13.5t-21 -4.5q-37 0 -92.5 30.5 t-83.5 30.5q-18 0 -33.5 -9t-27.5 -28z" />
<glyph unicode="T" horiz-adv-x="1139" d="M2 1243q0 105 89.5 178.5t217.5 73.5q76 0 149.5 -23t192.5 -90q89 -50 146 -71t104 -21q51 0 91 21.5t69 64.5l18 -10q-44 -65 -82.5 -102.5t-78.5 -55.5v-465q4 -14 7 -28t3 -25q0 -6 -7 -36q-2 -10 -3 -17v-469q56 36 91.5 104.5t41.5 155.5h18v-18 q0 -129 -38.5 -224.5t-112.5 -154.5v-254q0 -92 -30 -134t-93 -42q-38 0 -61 22t-23 58q0 29 17.5 47t47.5 18q20 0 32.5 -11t12.5 -28t-8.5 -27t-24.5 -10q-12 0 -20 7.5t-8 19.5t3.5 18.5t14.5 14.5h-8q-16 0 -26.5 -12.5t-10.5 -32.5q0 -28 18 -44t50 -16q48 0 70 34.5 t22 115.5v239q-42 -24 -79 -35.5t-75 -11.5q-183 0 -307.5 166.5t-124.5 421.5q0 189 70.5 342.5t222.5 292.5l16 -14q-74 -121 -111.5 -254.5t-37.5 -280.5q0 -244 84.5 -382t230.5 -138q34 0 61 8t50 25v483q-1 3 -2 9q-8 35 -8 44q0 12 2.5 25t7.5 29v452 q-30 -9 -56.5 -13.5t-48.5 -4.5q-104 0 -328 139l-30 18q-54 34 -107 52t-98 18q-81 0 -137.5 -53.5t-56.5 -126.5q0 -58 36.5 -101.5t102.5 -62.5l-4 -23q-81 24 -122.5 75.5t-41.5 129.5zM51 1350q34 39 78 59.5t98 20.5q50 0 104.5 -19.5t122.5 -60.5q18 -11 53 -33 q183 -115 281 -115q57 0 107.5 21.5t99.5 66.5q-37 -18 -72 -26.5t-71 -8.5q-52 0 -115.5 24t-154.5 77q-96 54 -161 77.5t-136 30.5q-84 0 -144.5 -29.5t-89.5 -84.5zM332 565q0 -245 116 -404t289 -159q51 0 87.5 9t68.5 28v72q-36 -25 -69 -36.5t-68 -11.5 q-154 0 -255.5 150t-101.5 385q0 125 33 243.5t105 252.5q-100 -107 -152.5 -243t-52.5 -286zM567 289v22l21 4v578q0 130 38 181.5t140 74.5v-23l-21 -6v-575q0 -128 -38.5 -182t-139.5 -74zM612 918l1 -594q13 2 27.5 9.5t27.5 19.5v732q-31 -25 -43.5 -59.5t-12.5 -107.5 zM918 57q47 45 77 102t47 134q-36 -71 -63.5 -107.5t-60.5 -62.5v-66z" />
<glyph unicode="U" horiz-adv-x="1133" d="M4 1235q0 112 82.5 186t208.5 74q139 0 209.5 -83t70.5 -247v-745q0 -107 -35 -148t-130 -59v25l16 6v377h-45q-71 0 -104 -21.5t-33 -67.5v-47h-25v58q0 129 47 180t160 51v373q0 120 -48 178.5t-145 58.5q-78 0 -137 -52.5t-59 -121.5q0 -62 36.5 -102t106.5 -55 l-4 -17q-84 17 -128 68t-44 131zM25 1256q25 71 82 112t131 41q106 0 159.5 -64.5t53.5 -191.5v-444h-33q-96 0 -136.5 -28t-43.5 -93q14 30 52 43.5t109 13.5h52v-395q15 3 29 9t28 15v879q0 153 -62.5 228t-189.5 75q-48 0 -96.5 -21.5t-81.5 -58.5q-24 -25 -37 -54.5 t-16 -65.5zM156 -150q0 144 96.5 239t243.5 95q34 0 69 -7t72 -21v1177q-9 9 -12.5 17.5t-3.5 19.5q0 17 8 30t18 13q9 0 19 -13.5t10 -29.5q0 -6 -4 -16t-10 -20v-464q29 -10 54.5 -15t47.5 -5q29 0 55 5t51 15v217l-96 103l-45 -33l-16 19l168 122q16 -15 44 -41 q71 -69 101 -69q28 0 49.5 31t40.5 100l23 -6q-18 -68 -44.5 -115.5t-66.5 -83.5v-981l29 -31l47 41l14 -16l-180 -160q-37 29 -52.5 60t-15.5 90v305q-28 10 -55 15t-49 5q-28 0 -53.5 -5t-50.5 -15v-279q27 -12 48 -25.5t40 -29.5l43 39l16 -18l-158 -142 q-70 47 -122.5 65.5t-108.5 18.5q-103 0 -169.5 -61.5t-66.5 -159.5q0 -112 77 -181.5t210 -79.5v-20q-153 11 -234 88.5t-81 212.5zM233 16l7 -4q40 31 86 47.5t94 16.5q58 0 110 -17t121 -61l49 43q-57 47 -113.5 68.5t-119.5 21.5q-75 0 -130 -27t-104 -88zM662 444 q30 11 55 16t49 5q20 0 46.5 -5t57.5 -16v404q-25 -9 -52 -14t-54 -5q-19 0 -44 4.5t-58 14.5v-404zM793 1206l102 -106v-989q0 -42 11 -67t38 -46l57 55l-43 56v997l51 41q-48 3 -89 25t-82 69z" />
<glyph unicode="V" horiz-adv-x="1133" d="M4 1235q0 112 82.5 186t208.5 74q139 0 209.5 -83t70.5 -247v-43l62 39v172q-9 9 -12.5 17.5t-3.5 19.5q0 17 8 30t18 13q9 0 19 -13.5t10 -29.5q0 -6 -4 -16t-10 -20v-154q57 42 112.5 81t114.5 78q10 -11 27 -30q74 -84 110 -84q29 0 49.5 29.5t40.5 101.5l23 -6 q-18 -68 -44.5 -115.5t-66.5 -83.5v-1025h25v-25q-12 0 -26 0.5t-40 0.5q-106 0 -184 -31.5t-152 -103.5q-70 47 -122.5 65.5t-108.5 18.5q-103 0 -169.5 -61.5t-66.5 -159.5q0 -112 77 -181.5t210 -79.5v-20q-153 11 -234 88.5t-81 212.5q0 144 96.5 239t243.5 95 q33 0 68 -7t73 -21v972l-62 -41v-667q0 -106 -34.5 -147.5t-130.5 -59.5v25l16 6v377h-45q-71 0 -104 -21.5t-33 -67.5v-47h-25v58q0 129 47 180t160 51v373q0 120 -48 178.5t-145 58.5q-78 0 -137 -52.5t-59 -121.5q0 -62 36.5 -102t106.5 -55l-4 -17q-84 17 -128 68 t-44 131zM25 1256q25 71 82 112t131 41q106 0 159.5 -64.5t53.5 -191.5v-444h-33q-96 0 -136.5 -28t-43.5 -93q14 30 52 43.5t109 13.5h52v-395q15 3 29 9t28 15v879q0 153 -62.5 228t-189.5 75q-48 0 -96.5 -21.5t-81.5 -58.5q-24 -25 -37 -54.5t-16 -65.5zM233 16l7 -4 q40 31 86 47.5t94 16.5q58 0 110 -17t121 -61l49 43q-57 47 -113.5 68.5t-119.5 21.5q-75 0 -130 -27t-104 -88zM662 143q26 -11 48.5 -25.5t45.5 -35.5q24 13 52.5 22.5t61.5 16.5v301q-28 10 -55 15t-49 5q-28 0 -53.5 -5t-50.5 -15v-279zM662 444q30 11 55 16t49 5 q20 0 46.5 -5t57.5 -16v404q-25 -9 -52 -14t-54 -5q-19 0 -44 4.5t-58 14.5v-404zM662 870q29 -10 54.5 -15t47.5 -5q29 0 55 5t51 15v254l-106 97l-102 -72v-279zM782 1235l113 -98v-1014l63 4v1016l51 40q-48 4 -89 26t-82 69z" />
<glyph unicode="W" horiz-adv-x="1434" d="M106 1235q0 112 82 186t207 74t203 -76.5t78 -199.5q0 -5 -1 -22t-1 -30q13 9 28 18t35 19v166q-7 7 -10.5 16.5t-3.5 20.5q0 18 8 30.5t19 12.5q9 0 17.5 -13t8.5 -30q0 -6 -4 -16t-10 -21v-143q37 23 75.5 63t82.5 103q48 -45 66 -85.5t18 -105.5v-14q16 7 29.5 15.5 t22.5 16.5l1 150q-7 7 -11 16.5t-4 20.5q0 18 8.5 30.5t18.5 12.5q9 0 17.5 -12.5t9.5 -30.5q0 -6 -4 -16t-11 -21v-133q53 48 84.5 83t57.5 73q18 -18 45 -52q49 -59 82 -59q28 0 52 32.5t44 96.5l20 -6q-20 -77 -54.5 -133t-82.5 -86v-1060h25v-25q-11 0 -23.5 0.5 t-38.5 0.5q-108 0 -191.5 -32t-160.5 -103q-26 30 -53.5 58t-61.5 57l-172 -115q-51 40 -94 58t-86 18q-78 0 -133 -60.5t-55 -152.5q0 -112 76.5 -181.5t209.5 -78.5v-21q-154 11 -234.5 89t-80.5 217q0 137 83.5 229t205.5 92q89 0 182 -61q8 -5 10 -6v1067l-59 -33v-727 q0 -106 -36 -147.5t-132 -59.5v24l16 5v374h-45q-71 0 -104 -21t-33 -67v-49h-25v57q0 130 47 181t160 51v383q0 120 -47.5 178.5t-144.5 58.5q-79 0 -138 -52.5t-59 -121.5q0 -62 36.5 -102t107.5 -55l-5 -17q-83 17 -126.5 67.5t-43.5 131.5zM125 1255q25 72 82 113 t131 41q106 0 159.5 -64.5t53.5 -191.5v-450q-127 -4 -168 -30.5t-45 -94.5q15 31 53.5 45t108.5 14h51v-391q13 3 27.5 9.5t29.5 16.5v881q0 153 -62.5 228t-189.5 75q-88 0 -156.5 -58.5t-74.5 -142.5zM334 18l6 -6q43 32 73 44t60 12q43 0 85 -16.5t95 -53.5l58 41 q-50 45 -96 64.5t-101 19.5q-52 0 -100 -27.5t-80 -77.5zM762 94l16 -16l68 48v310h-84v-342zM762 461h84v377h-84v-377zM762 862h84v338l-28 34q-5 -3 -15 -12q-27 -25 -41 -34v-326zM836 1253l36 -39v-1101l-20 -17q23 -20 45 -44t43 -54l51 47l-53 53v1131q0 19 -12 39 t-34 36zM1004 131l53 -51v1110l-53 -37v-1022zM1081 94q21 10 42 16t42 9v317h-84v-342zM1081 461h84v377h-84v-377zM1081 862h84v355l-28 34q-4 -3 -23 -19t-33 -28v-342zM1155 1270l35 -39v-1110q12 3 26.5 4.5t40.5 1.5v1065l74 47q-35 0 -66.5 15t-72.5 53z" />
<glyph unicode="X" horiz-adv-x="1020" d="M18 -121q0 132 88.5 219.5t225.5 87.5q5 0 22.5 -1.5t26.5 -2.5l170 428l-8 17q-6 0 -19.5 -1t-21.5 -1q-85 0 -116.5 -14t-46.5 -52h-15v33q0 83 45.5 132.5t124.5 49.5h4l-117 352q-9 29 -32 66.5t-52 69.5l-88 -80l-14 16l202 195q42 -40 71.5 -87.5t53.5 -115.5 l121 -350l131 338q-15 8 -29 20.5t-32 32.5l-35 -27l-10 17q40 35 75.5 77t69.5 95q18 -20 46 -55q61 -74 89 -74q26 0 45 31t35 98l21 -4q-26 -112 -74.5 -172t-112.5 -60q-10 0 -24.5 2.5t-36.5 7.5l-144 -366l9 -25q13 -1 24.5 -1.5t22.5 -0.5q90 0 119 16.5t38 59.5h19 v-47q0 -85 -43.5 -130t-128.5 -49l139 -430q7 -22 28.5 -54.5t43.5 -51.5l90 80l14 -16l-207 -185q-41 32 -71 78t-54 115l-137 409l-153 -393q35 -11 64.5 -28t55.5 -42l78 68l15 -16l-203 -191q-52 29 -95 43.5t-79 14.5q-85 0 -140 -52.5t-55 -134.5q0 -107 83.5 -182.5 t217.5 -85.5l-2 -20q-152 9 -242 98.5t-90 230.5zM37 -117v-4q15 79 72.5 124.5t142.5 45.5q37 0 77.5 -12t90.5 -39l51 53q-47 33 -91 48.5t-91 15.5q-107 0 -179.5 -67t-72.5 -165zM315 1278q29 -30 53 -73.5t46 -104.5l131 -391h-13q-99 0 -143 -26.5t-47 -86.5 q12 31 56 43t165 12l154 -463q30 -85 54.5 -125t57.5 -65l41 37q-29 22 -55 65.5t-47 108.5l-143 440q8 0 24.5 1t24.5 1q105 0 148 33.5t48 116.5q-16 -53 -53.5 -72.5t-152.5 -19.5h-41h-19l-139 411q-32 90 -55.5 129t-55.5 66zM729 1249q22 -32 55.5 -50.5t69.5 -18.5 q30 0 56 13t46 38q-10 -3 -20.5 -4.5t-22.5 -1.5q-26 0 -56 18.5t-73 63.5z" />
<glyph unicode="Y" horiz-adv-x="1133" d="M4 1235q0 112 82.5 186t208.5 74q139 0 209.5 -83t70.5 -247v-991q0 -64 14.5 -102t47.5 -62v1323q-9 9 -12.5 17.5t-3.5 19.5q0 17 8 30t18 13q9 0 19 -13.5t10 -29.5q0 -6 -4 -16t-10 -20v-464q29 -10 54.5 -15t47.5 -5q29 0 55 5t51 15v217l-106 97l-45 -31l-12 20 q11 8 45.5 33t135.5 98q11 -11 27 -30q75 -86 111 -86q29 0 49.5 30t40.5 101l23 -6q-18 -68 -44.5 -115.5t-66.5 -83.5v-852q0 -146 -80 -220.5t-239 -74.5q-2 0 -2 -2q63 -4 98 -28t35 -64q0 -35 -26 -57.5t-66 -22.5q-38 0 -60 16t-22 41q0 21 14.5 35.5t36.5 14.5 q16 0 24 -6.5t9 -20.5q0 -11 -8 -19t-19 -8q-8 0 -14.5 6.5t-6.5 14.5q1 4 1.5 7.5t2.5 10.5q-10 -3 -16 -11.5t-6 -18.5q0 -21 17 -34.5t44 -13.5q33 0 52.5 17.5t19.5 44.5q0 35 -37 58.5t-96 23.5q-70 0 -114 -29t-44 -74q0 -63 185 -118q9 -3 13 -4q140 -42 191.5 -88 t51.5 -119q0 -37 -13.5 -70.5t-40.5 -60.5l-16 8q11 12 16 23t5 22q0 61 -180 116q-18 6 -28 9q-160 49 -213 95t-53 120q0 86 64.5 137t175.5 51q-134 22 -196 94.5t-62 208.5v349h-45q-71 0 -104 -21.5t-33 -67.5v-47h-25v58q0 129 47 180t160 51v373q0 120 -48 178.5 t-145 58.5q-78 0 -137 -52.5t-59 -121.5q0 -62 36.5 -102t106.5 -55l-4 -17q-84 17 -128 68t-44 131zM25 1256q25 71 82 112t131 41q106 0 159.5 -64.5t53.5 -191.5v-444h-33q-96 0 -136.5 -28t-43.5 -93q14 30 52 43.5t109 13.5h52v-344q0 -122 29.5 -186t99.5 -97 q-38 42 -55 97t-17 133v905q0 153 -62.5 228t-189.5 75q-48 0 -96.5 -21.5t-81.5 -58.5q-24 -25 -37 -54.5t-16 -65.5zM465 -203q0 -75 44.5 -117.5t197.5 -89.5q17 -5 48 -14q177 -52 177 -123q0 1 2 6q6 18 6 27q0 51 -50.5 89.5t-172.5 76.5q-7 2 -22 7q-199 61 -199 169 q0 19 5.5 37.5t16.5 38.5q-29 -24 -41 -47.5t-12 -59.5zM662 4q12 -2 18.5 -3t11.5 -1q7 0 18.5 1t16.5 1q74 0 108.5 46t34.5 145v229q-28 10 -55 15t-49 5q-28 0 -53.5 -5t-50.5 -15v-418zM662 444q30 11 55 16t49 5q20 0 46.5 -5t57.5 -16v404q-25 -9 -52 -14t-54 -5 q-19 0 -44 4.5t-58 14.5v-404zM782 1198l113 -98v-922q0 -69 -20 -111t-62 -63q80 21 112.5 72t32.5 164v866l51 41q-48 3 -89 25t-82 69z" />
<glyph unicode="Z" horiz-adv-x="834" d="M16 1235q0 104 81 182t192 78q65 0 115.5 -24t142.5 -115q51 -52 76.5 -71t40.5 -19q20 0 30.5 19t10.5 56h28v-20q0 -129 -70.5 -281.5t-219.5 -348.5q-34 9 -61.5 13.5t-51.5 4.5q-50 0 -83.5 -14t-53.5 -44q19 6 31 8.5t24 2.5q34 0 73.5 -7.5t86.5 -21.5 q-121 -161 -195 -316t-107 -317h-34q27 151 98.5 304.5t187.5 311.5q-25 11 -55 17t-61 6q-30 0 -48 -7.5t-30 -23.5l-17 8q47 80 102 117t126 37q21 0 39.5 -3.5t36.5 -10.5q101 135 162.5 256t86.5 235q-28 -36 -57.5 -51.5t-69.5 -15.5q-49 0 -95.5 25.5t-100.5 82.5 q-51 56 -91 78.5t-87 22.5q-69 0 -113.5 -43.5t-44.5 -110.5q0 -62 39.5 -106.5t114.5 -65.5l-7 -21q-87 25 -129.5 72t-42.5 121zM111 1393q22 10 45 15t43 5q50 0 92.5 -20.5t91.5 -69.5q7 -8 21 -23q87 -94 167 -94q33 0 57 11.5t44 35.5q-2 0 -5 -1q-23 -7 -34 -7 q-27 0 -57 16t-84 60q-13 10 -35 30q-117 103 -199 103q-41 0 -78 -15.5t-69 -45.5zM158 0q28 140 101 287.5t202 324.5q16 -4 33 -6t34 -2q45 0 83 22.5t73 69.5q-30 -15 -58 -22.5t-57 -7.5q-13 0 -30 2t-35 6q151 211 217.5 363.5t66.5 281.5v22h33v-18 q0 -126 -59 -271.5t-184 -328.5q10 -3 20.5 -4.5t26.5 -1.5q37 0 62 12t48 41l15 -8q-56 -94 -109 -137t-113 -43q-11 0 -22 1.5t-23 3.5q-106 -148 -171.5 -269t-102.5 -234q51 60 116.5 91.5t139.5 31.5q67 0 135 -30t145 -95l70 59l16 -20l-196 -154q-116 69 -183 95 t-118 26q-67 0 -100.5 -20.5t-45.5 -67.5h-30zM231 90q24 13 50 19t57 6q93 0 279 -107q11 -6 18 -10l55 37q-78 59 -148.5 88t-138.5 29q-49 0 -90.5 -15t-81.5 -47z" />
<glyph unicode="[" horiz-adv-x="770" d="M307 -440v1925h314v-25h-154v-1878h154v-22h-314zM330 -418h61v1878h-61v-1878z" />
<glyph unicode="\" horiz-adv-x="569" d="M-37 1235h55l590 -1425h-55z" />
<glyph unicode="]" horiz-adv-x="770" d="M156 -418h151v1878h-151v25h311v-1925h-311v22zM330 -418h61v1878h-61v-1878z" />
<glyph unicode="^" horiz-adv-x="2048" d="M424 901l539 557h118l541 -557h-125l-473 469l-475 -469h-125z" />
<glyph unicode="_" d="M0 -403h1024v-80h-1024v80z" />
<glyph unicode="`" d="M285 1081l118 115l334 -358h-67zM342 1087l315 -217h21l-281 267z" />
<glyph unicode="a" horiz-adv-x="598" d="M0 41l84 74v321h-18v19h20q56 0 99.5 8t76.5 24q-17 26 -55 59t-154 116v20l127 96q15 -15 37 -41q40 -48 63 -51l115 92q24 -20 57 -58t54 -38q12 0 25 6.5t31 21.5l13 -18l-75 -63v-496l26 -35l43 37l15 -16q-40 -34 -77 -70.5t-73 -77.5h-20q-37 28 -52.5 62t-15.5 96 v485l-61 48l-97 -72q70 -56 98.5 -98.5t28.5 -88.5q0 -33 -4 -46t-14 -13q-5 0 -8.5 4t-3.5 8q0 6 5 23.5t5 30.5t-5 27.5t-18 33.5l-22 -12v-332l24 -29l29 29l12 -16q-24 -24 -52 -52.5t-81 -87.5h-22q-17 30 -37.5 56.5t-44.5 50.5l-66 -55zM76 674l96 -70l67 47 q-34 5 -63.5 18t-56.5 36zM96 92q24 -25 42 -48.5t34 -49.5l47 51l-45 51v342l-68 -2v-334zM303 676l66 -49v-512q0 -42 12 -70t39 -49l55 53l-49 60v489l43 45h-6q-29 0 -57 15t-62 49z" />
<glyph unicode="b" horiz-adv-x="606" d="M16 53l84 78v924l-18 -8l-6 20q58 25 109.5 69t101.5 109l16 -12l-6 -9q-23 -36 -35 -50v-492q29 12 62.5 35t78.5 61q27 -17 60 -56.5t55 -39.5q12 0 25 6.5t31 21.5l14 -18l-76 -63v-508h16v-25h-14q-88 0 -164.5 -29.5t-156.5 -95.5h-15q-18 28 -40 54.5t-54 58.5 l-53 -45zM102 100q18 -20 39.5 -45t48.5 -59l66 47l-72 68v991q-25 -18 -38 -26t-23 -13v-942zM262 129l55 -53l33 16v529l-55 51l-33 -15v-528zM313 684l62 -55v-529l3 1q33 10 58 14v491l43 39q-32 8 -60 25t-54 45z" />
<glyph unicode="c" horiz-adv-x="494" d="M-4 63l86 76v504h-14v25h16q70 0 136.5 27.5t129.5 82.5q7 -7 19 -21q63 -71 86 -71q18 0 32 22t23 66l22 -6q-20 -95 -69.5 -151t-112.5 -56q-29 0 -55.5 12.5t-50.5 36.5v-442l101 -77l20 16q45 37 69 53l12 -17q-51 -39 -104 -82.5t-104 -89.5h-21l-156 123l-53 -47z M80 106l147 -114l58 49l-117 94v518q-17 -3 -32.5 -4.5t-29.5 -1.5v-516zM238 678q14 -43 44 -67.5t66 -24.5q30 0 56.5 14.5t41.5 38.5q-11 -6 -18.5 -8t-13.5 -2q-35 0 -63.5 19t-55.5 61q-15 -10 -29 -17.5t-28 -13.5z" />
<glyph unicode="d" horiz-adv-x="606" d="M16 53l84 78v502h-18v24h45q50 0 84.5 8t64.5 25q-97 93 -124 134.5t-27 80.5q0 59 90 152q10 9 14 14l16 -17q-10 -9 -22.5 -22.5t-25.5 -29.5l321 -332l55 41l15 -19l-76 -63v-508h16v-25h-14q-88 0 -164.5 -29.5t-156.5 -95.5h-15q-18 28 -40 54.5t-54 58.5l-53 -45z M98 100q19 -18 39 -41t53 -63l66 47l-72 68v524q-10 -1 -23 -1.5t-38 -0.5v-512zM147 913q0 -31 17.5 -62.5t60.5 -74.5l150 -147v-529l3 1q33 10 58 14v491l21 21l-162 164q-77 76 -101.5 113t-25.5 66q-11 -14 -16 -27.5t-5 -29.5zM262 129l55 -53l33 16v529l-55 51 l-33 -17v-526z" />
<glyph unicode="e" horiz-adv-x="494" d="M-4 63l86 76v504h-14v25h16q70 0 136.5 27.5t129.5 82.5l166 -233q-71 -57 -139 -116.5t-133 -123.5v-137l101 -77l20 16q45 37 69 53l12 -17q-51 -39 -104 -82.5t-104 -89.5h-21l-156 123l-53 -47zM80 106l147 -114l58 49l-117 94v518q-17 -3 -32.5 -4.5t-29.5 -1.5 v-516zM231 678l160 -203l53 45l-139 195q-13 -10 -29.5 -18.5t-44.5 -18.5zM244 338q31 29 63.5 58t67.5 61l-131 170v-289z" />
<glyph unicode="f" horiz-adv-x="434" d="M0 580v16q0 54 31 99.5t92 80.5v277h-23v22h25q71 0 134.5 29t115.5 86q12 -14 33 -38q46 -54 69 -54q18 0 34 19.5t32 62.5l20 -9q-26 -99 -69 -145.5t-109 -46.5q-29 0 -52 8.5t-44 26.5v-252h24q45 0 82 5t68 15q0 -90 -42.5 -134t-131.5 -46v-448l65 -64l70 60 l16 -15q-65 -59 -107.5 -97t-76.5 -67h-20q-35 32 -69 59t-67 50l-59 -53l-16 18l98 86v471q-28 0 -58.5 -5.5t-64.5 -16.5zM25 610q20 8 49 12.5t73 6.5v-508l-26 -25q53 -40 79 -61t48 -39l45 41l-80 76v516h61q68 0 103 18t49 60q-21 -7 -45.5 -10t-61.5 -3h-106v370 q-18 -4 -34 -7t-31 -4l-1 -359q-48 -4 -80.5 -26t-41.5 -58zM268 1081q24 -38 55.5 -59t65.5 -21q31 0 53.5 11.5t34.5 31.5q-13 -2 -19 -3t-9 -1q-33 0 -62.5 19t-56.5 57q-12 -8 -24 -15t-38 -20z" />
<glyph unicode="g" horiz-adv-x="606" d="M16 53l84 78v502h-18v24h43q74 0 135 26t143 95q27 -17 60 -56.5t55 -39.5q12 0 25 6.5t31 21.5l14 -18l-76 -63v-369q0 -67 5 -93t16 -43q5 -8 20 -25q45 -51 45 -97q0 -52 -116 -149.5t-189 -198.5h-27q-32 52 -55.5 72t-48.5 20q-30 0 -51.5 -14.5t-30.5 -40.5l-21 10 q27 83 76.5 129.5t110.5 46.5q36 0 73 -18.5t68 -53.5q13 10 26.5 23.5t28.5 29.5q6 23 8.5 38t2.5 26q0 47 -21 85.5t-70 82.5q-37 -24 -78 -53t-91 -66h-15q-18 28 -40 54.5t-54 58.5l-53 -45zM102 100q18 -20 39.5 -45t48.5 -59l66 47l-72 68v522h-61v-512zM106 -244 q17 9 30.5 13t25.5 4q34 0 65 -24.5t54 -69.5q15 21 27 36.5t23 29.5q-33 34 -62.5 49.5t-63.5 15.5q-32 0 -55 -12.5t-44 -41.5zM262 129l45 -47l43 29v510l-55 51l-33 -15v-528zM313 684l62 -55v-510q59 -63 80.5 -104.5t21.5 -86.5q0 -9 -0.5 -18.5t-3.5 -29.5 q26 16 37.5 37t11.5 52q0 35 -43 97.5t-43 123.5v416l43 39q-32 8 -60 25t-54 45z" />
<glyph unicode="h" horiz-adv-x="612" d="M18 41l82 74v940l-16 -8l-8 20q58 25 109.5 69t101.5 109l18 -12q-10 -16 -20.5 -31t-20.5 -28v-517l148 121q25 -18 56 -57t54 -39q12 0 25 6.5t31 21.5l14 -18l-76 -63v-531l25 4v-20q-112 -29 -172 -94t-60 -158q0 -75 35.5 -120.5t93.5 -45.5q51 0 83 31t32 80 q0 41 -23.5 67.5t-58.5 26.5q-19 0 -33 -10t-20 -27q3 1 6 1.5t10 0.5q11 0 20 -8t9 -19q0 -14 -11 -24t-26 -10q-16 0 -26.5 12t-10.5 31q0 31 25.5 53t60.5 22q44 0 72 -32t28 -82q0 -56 -37.5 -94.5t-91.5 -38.5q-73 0 -116 50t-43 136q0 52 18.5 97t56.5 85v598l-51 54 l-47 -35v-502l27 -29l31 29l12 -18q-41 -38 -74.5 -72t-60.5 -66h-23q-17 30 -37 56.5t-45 50.5l-63 -55zM111 92q28 -30 46 -53t31 -45l48 51l-46 51v1012q-14 -12 -29.5 -22t-37.5 -21v-963zM326 676l59 -62v-583q8 7 20 15t37 24v536l37 33q-31 9 -58 25.5t-54 44.5z" />
<glyph unicode="i" horiz-adv-x="371" d="M8 633l156 145q25 -18 56 -57t54 -39q12 0 25 6.5t30 21.5l15 -18l-74 -63v-502l25 -31l31 31l12 -18q-40 -37 -73 -71t-62 -67h-23q-17 30 -37 56.5t-45 50.5l-65 -55l-13 18l84 74v489l-41 47l-40 -35zM29 946q50 31 91 62t73 63q2 -3 9 -11q68 -83 95 -83q11 0 24 8.5 t29 28.5l17 -15q-41 -57 -85 -86.5t-89 -29.5q-31 0 -62.5 14.5t-67.5 44.5l-22 -14zM82 668l45 -54v-512l-10 -10q24 -26 42 -49.5t34 -48.5l47 51l-45 51v510l36 33q-32 9 -59 25.5t-49 42.5zM88 956q23 -24 50 -37.5t55 -13.5q21 0 44 9.5t52 29.5q-3 0 -10.5 -1 t-10.5 -1q-32 0 -60.5 14.5t-57.5 44.5q-12 -11 -27 -22t-35 -23z" />
<glyph unicode="j" horiz-adv-x="350" d="M-4 651l158 127q25 -18 56 -57t54 -39q12 0 25 6.5t31 21.5l14 -18l-76 -63v-434q0 -66 33 -148t33 -117q0 -91 -60 -169.5t-153 -108.5q49 45 73.5 91t24.5 95q0 61 -54 134q-16 20 -22 30q-16 27 -23.5 54t-7.5 73v481l-49 54l-47 -35zM29 946q50 31 91 62t73 63 q2 -3 9 -11q68 -83 95 -83q11 0 24 8.5t29 28.5l17 -15q-41 -57 -85 -86.5t-89 -29.5q-31 0 -62.5 14.5t-67.5 44.5l-22 -14zM68 676l59 -62v-499q0 -56 53 -134.5t53 -144.5q0 -30 -8 -57t-26 -55q36 33 55.5 74.5t19.5 84.5q0 44 -46 128t-46 159v436l39 33 q-31 9 -58 25.5t-54 44.5zM88 956q23 -24 50 -37.5t55 -13.5q21 0 44 9.5t52 29.5q-3 0 -10.5 -1t-10.5 -1q-32 0 -60.5 14.5t-57.5 44.5q-12 -11 -27 -22t-35 -23z" />
<glyph unicode="k" horiz-adv-x="616" d="M18 41l82 74v940l-16 -8l-8 20q58 25 109.5 69t101.5 109l18 -12q-3 -5 -10 -16q-19 -31 -29 -44v-528l183 133l137 -246l-144 -104q33 -63 63.5 -179t65.5 -157l50 35l12 -18q-45 -36 -82 -70t-68 -68h-16q-63 76 -102 204.5t-54 158.5l-45 -27v-180l25 -29l31 29 l12 -18q-41 -38 -74.5 -72t-60.5 -66h-23q-17 30 -37 56.5t-45 50.5l-63 -55zM111 92q28 -30 46 -53t31 -45l48 51l-46 51v1012q-14 -12 -29.5 -22t-37.5 -21v-963zM266 334l187 131l-119 199l-68 -50v-280zM334 350q16 -41 40 -123q47 -161 101 -225l37 37q-46 62 -77 179 t-58 161zM354 678l115 -199l43 31l-117 201z" />
<glyph unicode="l" horiz-adv-x="360" d="M16 41l84 74v940l-18 -8l-6 20q58 25 109.5 69t101.5 109l16 -12q-11 -17 -20 -31t-17 -25v-1050l25 -31l31 31l12 -18q-40 -37 -73.5 -71t-61.5 -67h-23q-17 30 -37 56.5t-45 50.5l-65 -55zM113 92q24 -26 42 -49.5t33 -48.5l48 51l-46 51v1012q-26 -20 -40.5 -29.5 t-26.5 -15.5v-961z" />
<glyph unicode="m" horiz-adv-x="868" d="M20 41l84 74v518l-18 20l-43 -41l-16 19l141 147q51 -17 75 -52t27 -95q43 34 82.5 70.5t77.5 76.5q42 -16 62.5 -43t29.5 -78q44 34 79 63t67 58q18 -17 46 -49q40 -47 64 -47q12 0 25 6.5t31 21.5l14 -18l-76 -63v-496l29 -35l41 37l14 -16q-40 -34 -77 -70.5 t-72 -77.5h-21q-37 28 -52.5 62t-15.5 96v481l-51 54l-45 -35v-496l27 -35l18 17l13 -19q-48 -45 -75 -72t-50 -53h-21q-37 28 -52 62t-15 96v502l-29 28l-68 -59v-473l25 -31l18 19l11 -19q-28 -26 -57 -56t-64 -69h-23q-17 30 -37 56.5t-45 50.5l-65 -55zM98 666l29 -27 v-537l-10 -10q24 -26 42 -49.5t34 -48.5l47 51l-45 51v496q0 58 -10 82t-35 41zM356 672l35 -33v-524q0 -42 12 -70t39 -49l56 53l-39 57v457q0 81 -11.5 108.5t-39.5 47.5zM582 676l59 -62v-499q0 -42 12 -70t39 -49l56 53l-50 60v497l37 33q-31 9 -58 25.5t-54 44.5z" />
<glyph unicode="n" horiz-adv-x="616" d="M20 41l84 74v518l-18 20l-43 -41l-16 19l141 147q46 -13 69.5 -42t29.5 -78l149 120q25 -18 56 -57t54 -39q12 0 25 6.5t30 21.5l17 -18l-76 -63v-496l27 -35l41 37l14 -16q-39 -34 -76.5 -70.5t-72.5 -77.5h-21q-37 28 -52 62t-15 96v481l-52 54l-45 -35v-502l25 -31 l31 31l12 -18q-40 -37 -73 -71t-62 -67h-23q-17 30 -37 56.5t-45 50.5l-65 -55zM98 666l29 -27v-537l-10 -10q24 -26 42 -49.5t34 -48.5l47 51l-45 51v496q0 58 -10 82t-35 41zM332 676l59 -62v-499q0 -42 12 -70t39 -49l56 53l-52 60v497l39 33q-31 9 -58 25.5t-54 44.5z " />
<glyph unicode="o" horiz-adv-x="606" d="M16 53l84 78v502h-18v24h43q74 0 135 26t143 95q27 -17 60 -56.5t55 -39.5q12 0 25 6.5t31 21.5l14 -18l-76 -63v-508h16v-25h-14q-88 0 -164.5 -29.5t-156.5 -95.5h-15q-18 28 -40 54.5t-54 58.5l-53 -45zM102 100q18 -20 39.5 -45t48.5 -59l66 47l-72 68v522h-61v-512z M262 129l55 -53l33 16v529l-55 51l-33 -15v-528zM313 684l62 -55v-529l3 1q33 10 58 14v491l43 39q-32 8 -60 25t-54 45z" />
<glyph unicode="p" horiz-adv-x="616" d="M-28 -12q3 73 39.5 126.5t103.5 84.5v426l-25 26l-43 -43l-16 15l135 155q53 -16 79 -44t31 -77q29 16 65 46.5t79 74.5q26 -19 57.5 -60.5t54.5 -41.5q13 0 25.5 6.5t29.5 21.5l17 -18l-76 -63v-502l25 2v-25h-8q-67 0 -123.5 -23.5t-110.5 -74.5l-30 16v-307l24 12v-24 q-42 -20 -89.5 -62t-117.5 -120l-18 16l35 37l-1 483q-29 -3 -63.5 -18.5t-78.5 -44.5zM4 31q31 19 64 29t69 11v-478q16 17 33 34t35 34v402q33 -7 57 -15.5t45 -20.5l43 39q-44 30 -78 46t-67 23v473q0 43 -13.5 68t-44.5 39l-43 -47l33 -35v-498q-49 -11 -80 -35.5 t-53 -68.5zM281 190q25 -10 74 -36q11 -6 15 -8l1 468l-49 45l-41 -26v-443zM340 674l55 -53v-492l35 -25l27 7v497l43 27q-37 10 -66.5 28.5t-52.5 45.5z" />
<glyph unicode="q" horiz-adv-x="606" d="M16 53l84 78v502h-18v24h43q74 0 135 26t143 95q27 -17 60 -56.5t55 -39.5q12 0 25 6.5t31 21.5l14 -18l-76 -63v-1061l33 -37l-17 -16q-75 83 -121 123t-85 59v24l28 -14v361q-28 -9 -62.5 -29.5t-94.5 -67.5h-15q-18 28 -40 54.5t-54 58.5l-53 -45zM102 100 q18 -20 39.5 -45t48.5 -59l66 47l-72 68v522h-61v-512zM262 129l55 -53l33 16v529l-55 51l-33 -15v-528zM313 684l62 -55v-930q10 -8 30 -26t31 -27v960l43 39q-32 8 -60 25t-54 45z" />
<glyph unicode="r" horiz-adv-x="526" d="M4 45l100 86v502l-18 20l-43 -41l-16 19l143 147q48 -18 70.5 -47.5t25.5 -76.5l101 124q7 -11 21 -32q57 -89 93 -89q20 0 31.5 15t19.5 53l21 -6q-15 -89 -57.5 -139t-102.5 -50q-35 0 -68.5 16.5t-58.5 45.5v-438l76 -56l61 52l15 -15l-19 -16q-109 -98 -166 -148h-18 q-35 32 -68.5 59t-66.5 50l-62 -53zM97 97q23 -18 49.5 -40t76.5 -67l58 51l-86 72v479q0 58 -10 82t-35 41l-52 -49l29 -27v-518zM272 625q24 -34 54.5 -52t64.5 -18q36 0 64.5 18.5t41.5 50.5q-14 -9 -28.5 -13.5t-30.5 -4.5q-33 0 -60 17.5t-54 58.5z" />
<glyph unicode="s" horiz-adv-x="545" d="M-39 -8q44 99 102 151t125 52q30 0 62 -11t65 -32v227l-28 27l-117 -103q-26 28 -51 48t-49 34l-58 -41l-14 18l72 54v225h-13v23q81 0 143 27.5t117 86.5q17 -14 45 -40q56 -54 82 -54q14 0 26 11.5t22 33.5l20 -8q-23 -72 -62 -109t-94 -37q-33 0 -64.5 16t-62.5 48 v-174l43 -43l119 100q20 -16 49.5 -49t51.5 -33q16 0 53 32l2 1l12 -18l-76 -60v-264h15v-24q-76 -2 -142.5 -36t-124.5 -100h-22q-24 47 -56 72t-69 25q-32 0 -58 -20.5t-49 -63.5zM39 80q13 6 23.5 9t21.5 3q37 0 71.5 -22.5t65.5 -67.5q16 21 50 48q7 5 9 8 q-29 33 -65 52t-70 19q-31 0 -58 -12.5t-48 -36.5zM82 403q29 -18 50.5 -35t37.5 -34l49 45l-57 61l-1 215q-17 -4 -34 -7t-32 -5l-1 -231zM229 682q29 -42 63.5 -64t72.5 -22q23 0 40.5 8.5t32.5 26.5q-5 -1 -11.5 -1.5t-12.5 -0.5q-30 0 -64 21t-71 62q-12 -8 -24.5 -16 t-25.5 -14zM307 420l33 -35v-291q20 8 36.5 14t30.5 11l1 243l45 35q-41 10 -66 24t-41 34z" />
<glyph unicode="t" horiz-adv-x="426" d="M0 580v16q0 54 31 99.5t92 80.5v137l-23 -4v23q62 16 115 59.5t98 114.5l21 -12q-11 -20 -23.5 -38.5t-25.5 -35.5v-258h26q46 0 83.5 5t68.5 15q0 -92 -43.5 -136t-134.5 -44v-450l65 -64l72 59l14 -16q-59 -53 -180 -160h-20q-35 32 -69 59t-67 50l-59 -53l-16 18 l98 86v471q-28 0 -58.5 -5.5t-64.5 -16.5zM25 610q20 8 49 12.5t73 6.5v-508l-26 -25q53 -40 79 -61t48 -39l45 41l-80 76v516h61q68 0 103 18t49 60q-21 -7 -45.5 -10t-61.5 -3h-106v267q-17 -13 -33 -22.5t-32 -16.5l-1 -228q-48 -4 -80.5 -26t-41.5 -58z" />
<glyph unicode="u" horiz-adv-x="616" d="M20 41l84 74v518l-18 20l-43 -41l-16 19l141 147q54 -15 78 -52.5t24 -104.5v-494l39 -39q13 9 41 25q10 6 17 10v487l-52 54l-14 -9l-14 19l129 104q25 -18 56 -57t54 -39q12 0 25 6.5t30 21.5l17 -18l-76 -63v-496l27 -35l41 37l14 -16q-39 -34 -76.5 -70.5 t-72.5 -77.5h-21q-31 23 -47.5 52.5t-20.5 70.5q-37 -17 -78 -48t-85 -75h-23q-17 30 -37 56.5t-45 50.5l-65 -55zM98 666l29 -27v-537l-10 -10q24 -26 42 -49.5t34 -48.5l53 47l-51 55v496q0 58 -10 82t-35 41zM330 676l61 -62v-499q0 -42 12 -70t39 -49l56 53l-52 60v497 l39 33q-31 9 -58 25.5t-54 44.5z" />
<glyph unicode="v" horiz-adv-x="606" d="M12 877q0 74 58.5 126t142.5 52q58 0 93.5 -30.5t35.5 -78.5q0 -36 -23.5 -63t-54.5 -27q-23 0 -36 12.5t-13 34.5q0 19 9 29t26 10q14 0 24.5 -10t10.5 -23q0 -2 -1 -7l-3 -15q17 6 27.5 22t10.5 37q0 33 -26.5 56.5t-65.5 23.5q-40 0 -67 -25t-27 -63q0 -39 60.5 -124 t70.5 -150q53 44 87.5 72.5t51.5 41.5q27 -17 60 -56.5t55 -39.5q12 0 25 6.5t31 21.5l14 -18l-76 -63v-508h16v-25h-14q-84 0 -160 -31.5t-139 -93.5h-18q-27 31 -56 57t-61 48l-49 -37l-15 14l84 72v483q0 57 -44 142t-44 127zM37 879q0 -42 43 -124t43 -151v-489l-21 -19 q38 -31 104 -93l3 -3l55 43l-80 68v493q0 74 -51 165.5t-51 127.5q0 29 11.5 58t37.5 63q-48 -25 -71 -59t-23 -80zM262 129l62 -49l26 12v529l-47 45l-41 -31v-506zM317 678l58 -49v-529l3 1q33 10 58 14v491l43 39q-32 8 -60 25t-54 45z" />
<glyph unicode="w" horiz-adv-x="858" d="M12 877q0 74 58.5 126t142.5 52q58 0 93.5 -30.5t35.5 -78.5q0 -36 -23.5 -63t-54.5 -27q-23 0 -36 12.5t-13 34.5q0 19 9 29t26 10q14 0 24.5 -10t10.5 -23q0 -2 -1 -7l-3 -15q17 6 27.5 22t10.5 37q0 33 -26.5 56.5t-65.5 23.5q-40 0 -67 -25t-27 -63 q0 -39 60.5 -123.5t66.5 -148.5q34 23 69.5 50.5t76.5 61.5q47 -26 70.5 -51.5t35.5 -62.5q31 22 64.5 49t78.5 65q27 -17 59 -56.5t54 -39.5q12 0 25 6.5t31 21.5l14 -18l-76 -63v-508h18v-25h-14q-81 0 -154.5 -30.5t-144.5 -94.5h-18q-23 21 -50 43.5t-65 51.5 q-29 -20 -58 -43t-59 -52h-22q-32 33 -59.5 58.5t-55.5 46.5l-49 -37l-15 14l84 72v483q0 57 -44 142t-44 127zM37 879q0 -42 43 -124t43 -151v-489l-21 -19q38 -31 104 -93l3 -3l55 43l-80 68v493q0 74 -51 165.5t-51 127.5q0 29 11.5 58t37.5 63q-48 -25 -71 -59t-23 -80z M262 129l51 -45l37 31v522l-37 35l-51 -37v-506zM334 688l41 -43v-543l-21 -16q18 -14 53.5 -43t53.5 -43l55 43l-80 68v479q0 48 -14 80t-43 51zM512 129l63 -49l27 12v529l-47 45l-43 -35v-502zM571 678l54 -49v-529l3 1q33 10 58 14v491l45 39q-32 8 -60 25t-55 45z" />
<glyph unicode="x" horiz-adv-x="553" d="M-31 -14q39 110 83.5 165.5t94.5 55.5q24 0 47 -11.5t46 -33.5l20 35q-61 205 -105 304t-92 144l-45 -43l-16 19l158 157q41 -30 75 -79.5t60 -118.5l92 198h12q26 -56 47 -81t41 -25q25 0 46.5 25.5t31.5 68.5l21 -4q-26 -109 -71 -167t-103 -58q-26 0 -49 10t-46 31 l-12 -25q13 -39 36 -110q101 -309 179 -347l68 49l12 -18q-65 -51 -102 -86t-68 -70h-27q-45 42 -77.5 91t-55.5 108l-96 -199h-27q-17 47 -37.5 68.5t-46.5 21.5q-22 0 -42.5 -22t-28.5 -57zM23 68q12 9 24.5 13.5t24.5 4.5q25 0 47 -19t43 -59l35 70q-24 36 -43 49.5 t-43 13.5q-25 0 -47.5 -18.5t-40.5 -54.5zM80 664q87 -91 176 -372q15 -45 22 -68q26 -80 63 -138.5t75 -83.5l43 35q-94 77 -163 304q-1 2 -1 3q-54 176 -92 255.5t-78 111.5zM330 606q19 -22 40.5 -33.5t45.5 -11.5q36 0 67 29t47 80q-21 -28 -41.5 -41t-42.5 -13 q-18 0 -36 11t-48 43z" />
<glyph unicode="y" horiz-adv-x="612" d="M20 43l84 72v518l-18 20l-43 -41l-16 19l141 147q54 -15 78 -52.5t24 -104.5v-494l56 -51l41 8v526l-52 54l-14 -9l-14 19l129 104q25 -18 56 -57t54 -39q12 0 25 6t33 23l14 -19l-76 -63v-535h15v-24h-80q-117 0 -199 -53t-82 -121q0 -72 162 -121q6 -2 8 -2 q143 -42 189.5 -86.5t46.5 -118.5q0 -40 -15 -77.5t-43 -70.5l-18 13q22 32 28.5 47.5t6.5 27.5q0 25 -26.5 41.5t-121.5 42.5q-172 50 -222 97t-50 127q0 49 18 96.5t51 87.5l-92 78l-65 -55zM98 666l29 -27v-537l-10 -10l87 -77q13 5 32 16t24 14l-65 51v496q0 58 -10 82 t-35 41zM154 -205q7 -56 36.5 -88.5t100.5 -58.5q42 -16 118 -35q121 -31 140 -69q2 11 3 17.5t1 10.5q0 60 -184 109q-39 10 -60 16q-65 19 -102.5 43t-52.5 55zM330 676l61 -62v-524l55 4v512l39 33q-31 9 -58 25.5t-54 44.5z" />
<glyph unicode="z" horiz-adv-x="522" d="M-23 -6q36 89 86 167t117 150q-26 9 -46.5 13t-39.5 4q-17 0 -38 -9.5t-42 -27.5l-14 10q45 82 97.5 123t113.5 41q19 0 44 -3.5t57 -10.5q23 24 47.5 54.5t57.5 79.5q-19 -9 -36 -13.5t-35 -4.5q-55 0 -127.5 51.5t-101.5 51.5q-21 0 -39.5 -13.5t-34.5 -40.5l-18 9 q37 69 89 111t97 42q49 0 123 -48t98 -48q19 0 35.5 12.5t32.5 36.5l18 -8q-27 -64 -70 -130t-112 -151q16 -5 32.5 -7.5t37.5 -2.5q24 0 46 14.5t35 38.5l21 -8q-36 -97 -84 -143.5t-113 -46.5q-20 0 -44.5 3t-61.5 11q-50 -50 -117 -145q-14 -20 -20 -29q31 32 64.5 47.5 t68.5 15.5q49 0 124 -53t103 -53q23 0 41.5 18t38.5 60l16 -10q-44 -93 -91 -137t-103 -44t-133 53.5t-107 53.5q-27 0 -47 -19.5t-45 -72.5zM37 328q16 11 32.5 16.5t34.5 5.5q11 0 32.5 -5t62.5 -17l46 52q-26 10 -45.5 13.5t-37.5 3.5q-37 0 -67 -16.5t-58 -52.5zM60 93 q11 5 19.5 7t18.5 2q29 0 106 -50t128 -50q34 0 59.5 10.5t44.5 32.5q-10 -6 -22.5 -9t-30.5 -3q-48 0 -118.5 51t-112.5 51q-26 0 -48 -10.5t-44 -31.5zM90 680q7 4 15 6t18 2q32 0 103.5 -50t127.5 -50q23 0 44.5 9t41.5 27q-13 -3 -22 -4t-19 -2q-49 0 -119 52.5 t-104 52.5q-21 0 -41.5 -10.5t-44.5 -32.5zM222 319q22 -4 45 -7t42 -3q36 0 68.5 19.5t56.5 54.5q-20 -14 -39.5 -20.5t-42.5 -6.5q-14 0 -34.5 4t-49.5 13z" />
<glyph unicode="{" d="M176 485v90q10 -1 20.5 -1.5t28.5 -0.5q139 0 196.5 64.5t57.5 222.5v240q0 227 68.5 302t257.5 75h43v-88h-37q-135 0 -182 -51.5t-47 -213.5v-241q0 -175 -43 -248t-152 -105q109 -32 152 -104t43 -248v-241q0 -162 46.5 -212.5t180.5 -50.5h39v-88h-43 q-189 0 -257.5 74.5t-68.5 300.5v240q0 158 -58 222t-200 64q-7 0 -21.5 -1t-23.5 -1z" />
<glyph unicode="|" d="M467 -483v2048h90v-2048h-90z" />
<glyph unicode="}" d="M176 -326h39q134 0 180.5 50.5t46.5 212.5v241q0 174 43.5 247t153.5 105q-110 32 -153.5 105t-43.5 248v241q0 162 -47 213.5t-182 51.5h-37v88h43q189 0 257.5 -75t68.5 -302v-240q0 -158 58 -222.5t200 -64.5q7 0 21.5 1t23.5 1v-90q-9 0 -23.5 1t-21.5 1 q-142 0 -200 -64t-58 -222v-240q0 -226 -68.5 -300.5t-257.5 -74.5h-43v88z" />
<glyph unicode="~" horiz-adv-x="1706" d="M178 481v92q105 74 201 110t186 36q100 0 271 -61q12 -5 19 -7q8 -3 27 -10q168 -61 261 -61q83 0 175 37.5t212 121.5v-92q-106 -74 -202 -110.5t-185 -36.5q-99 0 -266 61q-16 6 -22 8q-12 4 -33 12q-167 60 -257 60q-83 0 -175 -37.5t-212 -122.5z" />
<glyph unicode="&#xa1;" horiz-adv-x="463" d="M72 1219l159 161l111 -110l33 33l16 -17l-160 -160l-110 111l-33 -35zM111 -14q7 12 16.5 26t19.5 28v812l-16 -6l-6 20q58 25 109.5 69t101.5 109l16 -14q-10 -16 -30 -43q-6 -8 -9 -13v-810l19 8l6 -20q-58 -26 -110.5 -71t-100.5 -110zM139 1255l92 -94l58 58l-94 92z M172 59q23 23 38.5 37t31.5 27v782q-13 -10 -30 -21t-40 -24v-801z" />
<glyph unicode="&#xa2;" horiz-adv-x="522" d="M-4 92l86 76v475h-14v23h10q61 0 117 18.5t110 56.5v211h35v-194q28 -35 56 -54.5t48 -19.5q21 0 36 22t24 66l20 -4q-21 -97 -66 -148t-108 -51h-10v-428l27 -20q32 26 52 41t38 26l12 -16q-63 -51 -95 -77t-34 -27v-263h-35v232l-43 -37h-20l-181 123l-53 -47zM80 135 l172 -115l53 50l-137 94v489q-2 0 -7 -1q-38 -7 -55 -7v-485zM238 676q17 -40 46.5 -61t67.5 -21q29 0 53 13.5t41 39.5q-1 0 -4 -1q-24 -7 -34 -7q-30 0 -59 17t-57 50q-12 -9 -25.5 -16.5t-28.5 -13.5zM244 199l61 -37v413q-16 6 -30.5 15.5t-30.5 25.5v-417z" />
<glyph unicode="&#xa3;" horiz-adv-x="707" d="M-63 -27q109 99 209.5 150.5t199.5 61.5v282h74q68 0 103 24.5t42 77.5q-20 -23 -52.5 -35t-76.5 -12h-90v361q0 79 36.5 119t109.5 40q38 0 74 -18t79 -59l51 49l17 -15l-170 -180h-19q-29 54 -57 80.5t-57 26.5q-21 0 -30 -13t-9 -43v-276h104q53 0 75 14t30 49h20 q-2 -116 -42.5 -164.5t-135.5 -48.5h-51v-258q74 0 144 -22t144 -70l43 31l17 -16l-158 -148h-24q-60 49 -134 74.5t-153 25.5q-85 0 -159 -24.5t-144 -75.5zM6 348v62q0 81 33.5 123.5t103.5 50.5v121q0 108 38 154t130 56v-18l-14 -4v-477q0 -116 -38.5 -170t-135.5 -76 v18l20 7v249h-8q-56 0 -83 -22.5t-27 -69.5v-4h-19zM31 424q14 22 43.5 32.5t77.5 10.5h10h4v-262q13 4 27.5 12.5t29.5 20.5v626q-30 -18 -43.5 -49t-13.5 -88v-202q-66 -3 -99 -27.5t-36 -73.5zM55 43q38 19 88 29t107 10q80 0 155.5 -23.5t147.5 -70.5l47 45 q-53 45 -122 69.5t-144 24.5q-83 0 -150.5 -20.5t-128.5 -63.5zM371 938q12 5 21.5 7.5t19.5 2.5q34 0 67 -27.5t58 -76.5l53 57q-37 44 -69 66t-60 22q-32 0 -54 -12.5t-36 -38.5z" />
<glyph unicode="&#xa4;" horiz-adv-x="1241" d="M94 418l207 205q-45 57 -68.5 123.5t-23.5 138.5q0 71 23.5 137.5t68.5 124.5l-207 205l58 59l206 -207q60 48 125 71t138 23q72 0 138 -23.5t126 -70.5l205 207l59 -59l-207 -205q45 -58 68.5 -124.5t23.5 -137.5q0 -73 -23 -138.5t-69 -123.5l207 -205l-59 -60 l-205 207q-58 -45 -125 -68.5t-139 -23.5q-74 0 -139 23t-124 69l-206 -207zM291 887q0 -138 97 -235t235 -97q137 0 234 97t97 235q0 137 -96.5 233.5t-234.5 96.5t-235 -97t-97 -233z" />
<glyph unicode="&#xa5;" horiz-adv-x="715" d="M16 582v41h134v129h-134v41h134v106l-19 19l-43 -39l-14 16l139 147q54 -15 78 -52.5t24 -104.5v-406l56 -49l41 8v439l-52 53l-14 -8l-14 18l131 102q25 -17 56 -55.5t54 -38.5q12 0 25 6.5t30 21.5l15 -18l-76 -63v-102h133v-41h-133v-129h133v-41h-133v-133h15v-25 h-80q-110 0 -192.5 -49t-82.5 -105q0 -63 143 -83q68 -10 107 -19q83 -19 130.5 -66t47.5 -108q0 -8 -0.5 -16t-1.5 -17q-58 37 -183 56q-6 1 -9 1q-174 29 -234.5 73t-60.5 126q0 35 16.5 66.5t50.5 62.5l-90 86l-63 -55l-12 18l82 74v113h-134zM143 932l29 -27v-450 l-10 -11l90 -84q20 18 31 26t22 13l-63 52v407q0 54 -10.5 79t-36.5 42zM193 195q27 -110 231 -144q126 -22 198 -47q-3 41 -37 61.5t-153 36.5q-122 17 -168.5 36.5t-70.5 56.5zM377 942l59 -63v-437l56 7v421l38 35q-31 9 -58 26t-54 44z" />
<glyph unicode="&#xa6;" d="M467 -350v758h90v-758h-90zM467 674v758h90v-758h-90z" />
<glyph unicode="&#xa7;" horiz-adv-x="885" d="M90 735q0 71 36 132.5t107 113.5l-86 158l314 254q28 -25 56.5 -36t68.5 -11q41 0 75 8.5t68 27.5q-44 -73 -100.5 -109t-126.5 -36q-38 0 -66 10t-55 33l-92 -68l459 -788q24 -39 38.5 -90t14.5 -98q0 -74 -34 -134.5t-103 -111.5l90 -156l-322 -252q-29 21 -58.5 30 t-66.5 9q-39 0 -73 -9t-70 -30q43 74 99 110t128 36q38 0 66 -10t55 -33l96 75l-454 787q-35 59 -49.5 103t-14.5 85zM111 745q0 -39 12 -77.5t45 -96.5l459 -794l59 45l-475 817q-38 65 -54 108.5t-22 90.5q-12 -30 -18 -53t-6 -40zM178 1124l479 -818l9 -15 q61 -104 67 -174q9 27 13 47.5t4 40.5q0 45 -12 86t-38 84l-462 794zM188 860q0 -29 14.5 -66.5t47.5 -95.5l401 -688q31 22 44.5 46.5t13.5 60.5q0 57 -54 146l-6 10l-405 688q-30 -21 -43 -44t-13 -57zM209 -375q37 8 60.5 11.5t41.5 3.5q29 0 57 -6.5t56 -18.5l49 37 q-18 21 -43 31t-59 10q-46 0 -83.5 -16t-78.5 -52zM401 1298q24 -23 47.5 -33t55.5 -10q45 0 84 17.5t77 54.5q-25 -7 -51.5 -10.5t-54.5 -3.5q-33 0 -59.5 5.5t-48.5 16.5z" />
<glyph unicode="&#xa8;" d="M203 987l131 133l135 -135l-133 -131zM252 987l84 -82l82 82l-84 82zM553 987l131 133l135 -135l-133 -131zM604 987l82 -82l82 82l-84 82z" />
<glyph unicode="&#xa9;" horiz-adv-x="1706" d="M123 721q0 145 56 279t161 241q101 103 232 157t280 54t282.5 -55t237.5 -160q103 -102 157 -235t54 -281q0 -150 -53.5 -280t-157.5 -232q-107 -106 -241.5 -162.5t-278.5 -56.5q-145 0 -277 55.5t-237 161.5q-105 104 -160 236t-55 278zM195 721q0 -130 50 -249.5 t144 -213.5t213.5 -144.5t249.5 -50.5t251.5 51t217.5 146q93 92 141.5 209.5t48.5 251.5q0 133 -49 252.5t-141 212.5q-95 95 -215 144.5t-254 49.5q-133 0 -251.5 -49t-209.5 -141q-95 -97 -145.5 -218t-50.5 -251zM471 725q0 205 107 328t282 123q132 0 222.5 -72 t103.5 -186h-105q-20 81 -79.5 126.5t-147.5 45.5q-126 0 -196 -97.5t-70 -273.5q0 -169 71.5 -267t194.5 -98q91 0 156 52.5t84 140.5h102q-11 -123 -108 -201t-240 -78q-173 0 -275 123.5t-102 333.5z" />
<glyph unicode="&#xaa;" horiz-adv-x="449" d="M0 975l63 51v225h-14v13h17q41 0 73.5 6t57.5 18q-22 32 -147 115l-9 6v14l94 68q10 -10 25 -27q32 -35 50 -36l87 63q19 -15 43.5 -41.5t38.5 -26.5q8 0 17.5 4.5t25.5 16.5l10 -12l-57 -46v-346l20 -24l33 24l10 -10q-29 -23 -56.5 -49t-55.5 -55h-15 q-28 20 -39.5 43.5t-11.5 66.5v340l-47 33l-72 -49q52 -38 74.5 -69t22.5 -62q0 -22 -3.5 -31.5t-11.5 -9.5q-3 0 -6.5 3t-3.5 5q0 4 4 16t4 21t-3.5 18.5t-12.5 24.5l-17 -8v-234l19 -18l20 18l11 -10q-28 -25 -76 -74q-17 -16 -25 -24h-16q-14 21 -28.5 39t-33.5 36 l-49 -38zM57 1417l72 -47l51 33q-27 3 -49 12t-41 25zM72 1012q20 -21 33.5 -37t23.5 -33l35 35l-33 37v239l-51 -2v-233zM227 1419l49 -35v-358q0 -30 9.5 -49.5t29.5 -32.5l41 37l-37 41v342l33 33h-4q-22 0 -43 10.5t-47 34.5z" />
<glyph unicode="&#xab;" horiz-adv-x="786" d="M113 367l123 286h157l-127 -286l121 -273h-151zM137 367l109 -248h65l-110 248l114 262h-65zM412 367l123 286h157l-127 -286l121 -273h-154zM436 367l109 -248h63l-108 248l114 262h-65z" />
<glyph unicode="&#xac;" horiz-adv-x="1706" d="M254 774v82h1198v-502h-78v420h-1120z" />
<glyph unicode="&#xad;" horiz-adv-x="797" d="M86 299l150 150h475l-148 -150h-477zM133 322h430l51 51h-428z" />
<glyph unicode="&#xae;" horiz-adv-x="1706" d="M123 721q0 145 56 279t161 241q101 103 232 157t280 54t282.5 -55t237.5 -160q103 -102 157 -235t54 -281q0 -150 -53.5 -280t-157.5 -232q-107 -106 -241.5 -162.5t-278.5 -56.5q-145 0 -277 55.5t-237 161.5q-105 104 -160 236t-55 278zM195 721q0 -130 50 -249.5 t144 -213.5t213.5 -144.5t249.5 -50.5t251.5 51t217.5 146q93 92 141.5 209.5t48.5 251.5q0 133 -49 252.5t-141 212.5q-95 95 -215 144.5t-254 49.5q-133 0 -251.5 -49t-209.5 -141q-95 -97 -145.5 -218t-50.5 -251zM569 309v846h305q180 0 264.5 -56.5t84.5 -176.5 q0 -89 -55.5 -149t-147.5 -71l190 -393h-131l-182 377h-213v-377h-115zM684 764h168q145 0 199.5 36t54.5 126q0 78 -61.5 114.5t-192.5 36.5h-168v-313z" />
<glyph unicode="&#xaf;" d="M254 924v127h516v-127h-516zM289 956h446v62h-446v-62z" />
<glyph unicode="&#xb0;" horiz-adv-x="674" d="M63 1176q0 114 80.5 194t194.5 80q112 0 192 -80.5t80 -193.5q0 -114 -80 -193.5t-194 -79.5q-115 0 -194 79t-79 194zM125 1176q0 -89 62.5 -151t150.5 -62t150.5 62t62.5 151q0 87 -63 150t-150 63q-89 0 -151 -62t-62 -151z" />
<glyph unicode="&#xb1;" horiz-adv-x="1706" d="M254 59v82h1198v-82h-1198zM254 727v80h559v354h80v-354h559v-80h-559v-352h-80v352h-559z" />
<glyph unicode="&#xb2;" horiz-adv-x="373" d="M18 406q0 81 50.5 163.5t134.5 137.5v227l-35 31l-23 -11v-168h5v-12q-59 0 -86 18t-27 56v92h-10v14h26q49 0 89.5 15.5t95.5 56.5q17 -10 39 -32.5t36 -22.5q9 0 18.5 4t18.5 12l10 -10l-49 -39v-252q-102 -29 -166.5 -74.5t-91.5 -107.5q16 6 32.5 9t31.5 3 q29 0 72.5 -10t58.5 -10q53 0 59 93v1h14q-1 -5 -1.5 -10t-0.5 -15q0 -17 4.5 -47.5t4.5 -44.5q0 -37 -20.5 -54.5t-63.5 -17.5q-24 0 -71 9.5t-71 9.5q-18 0 -39 -4.5t-44 -13.5zM35 422q16 6 33.5 9t33.5 3q28 0 75.5 -9t70.5 -9q32 0 47.5 13t15.5 40q0 3 -1 14t-1 18 q-4 -21 -20 -33.5t-41 -12.5q-16 0 -63 11t-76 11q-19 0 -36 -4t-32 -12q-3 -11 -4.5 -20.5t-1.5 -18.5zM53 856q0 -32 9 -44t32 -17v145h-41v-84zM113 604q38 31 75 54t72 38v230l28 20q-16 4 -33 13.5t-42 29.5l-35 -18l41 -33v-240q-40 -24 -66 -47.5t-40 -46.5z" />
<glyph unicode="&#xb3;" horiz-adv-x="367" d="M-37 391q12 41 53 69.5t86 28.5q26 0 48 -10.5t40 -32.5l7 5v268l-21 10q-20 -13 -33.5 -28t-21.5 -33q3 -7 4.5 -13t1.5 -12t-2.5 -9t-7.5 -3q-7 0 -10.5 5t-4.5 15q0 29 26 57t69 46v180l-35 31l-25 -11v-163h6v-15q-60 2 -86 19.5t-26 56.5v88h-11v14h29q48 0 88 15.5 t96 56.5q18 -10 39 -32.5t35 -22.5q8 0 16 3t21 13l8 -10l-47 -39v-158h14v-14q-53 -7 -79 -13.5t-43 -15.5q25 -11 56.5 -18t65.5 -8v-13h-14v-227h14v-12q-59 0 -108 -20.5t-90 -61.5h-12q-18 20 -37.5 30.5t-40.5 10.5q-18 0 -35 -7t-33 -20zM-4 424q9 3 18 4.5t19 1.5 q21 0 41.5 -9.5t42.5 -29.5q6 10 13 17.5t20 15.5q-22 16 -38.5 22.5t-37.5 6.5q-24 0 -44 -7.5t-34 -21.5zM47 858q0 -29 9 -41.5t32 -17.5v141h-41v-82zM172 971l41 -33v-178q13 3 32 7q5 1 7 1v158l31 20q-19 4 -37.5 14.5t-38.5 28.5zM213 457q8 2 21 5.5t18 4.5v237 q-13 2 -35 8q-2 0 -4 1v-256z" />
<glyph unicode="&#xb4;" d="M336 838l336 358l116 -115l-385 -243h-67zM395 870h21l315 217l-55 50z" />
<glyph unicode="&#xb5;" horiz-adv-x="1094" d="M-111 -424l316 1487h121l-123 -590q-9 -43 -13 -77t-4 -64q0 -126 60 -192t174 -66q127 0 219.5 109t136.5 313l125 567h121l-166 -786q-2 -9 -5 -24q-20 -92 -20 -112q0 -31 17.5 -47t50.5 -16q9 0 18.5 0.5t20.5 1.5l-18 -96q-3 -1 -8 -2q-49 -11 -68 -11 q-68 0 -100.5 31.5t-32.5 95.5q0 7 0.5 16t3.5 29q-43 -83 -123.5 -127.5t-188.5 -44.5q-97 0 -169.5 45.5t-104.5 126.5l-119 -567h-121z" />
<glyph unicode="&#xb6;" d="M90 1130q0 157 108.5 253t286.5 96h447v-64h-129v-1415h-70v1415h-192v-1415h-70v782q-175 8 -278 102.5t-103 245.5z" />
<glyph unicode="&#xb7;" horiz-adv-x="303" d="M63 518q0 38 28 65t65 27q35 0 63.5 -28.5t28.5 -63.5q0 -37 -27 -64.5t-65 -27.5q-39 0 -66 26.5t-27 65.5z" />
<glyph unicode="&#xb8;" d="M231 -336l17 37q65 -39 120 -57.5t107 -18.5q55 0 89 28.5t34 74.5q0 42 -30.5 66t-84.5 24q-17 0 -27 -0.5t-20 -1.5v49q37 8 69 12t62 4q80 0 124 -37.5t44 -103.5q0 -79 -60 -126.5t-161 -47.5q-70 0 -145 26t-138 72zM496 -403q5 0 14 -1.5t14 -1.5q82 0 130 38 t48 102q0 53 -36.5 83.5t-100.5 30.5q-15 0 -23 -0.5t-13 -1.5q50 -15 76 -46.5t26 -75.5q0 -54 -36 -87.5t-99 -39.5z" />
<glyph unicode="&#xb9;" horiz-adv-x="244" d="M12 940q9 7 45.5 38t59.5 48l35 -31q15 -14 20.5 -25.5t5.5 -41.5v-451l31 -24l29 20l6 -12q-37 -26 -59 -45t-40 -39h-14q-13 20 -28.5 37t-36.5 35l-43 -33l-9 10l56 45v467l-17 16l-30 -22zM66 965l18 -21v-481l-6 -6l3 -3q42 -39 58 -63l33 33l-43 35v495l-35 35z " />
<glyph unicode="&#xba;" horiz-adv-x="455" d="M12 983l64 55v351h-15v18h33q57 0 102 18t107 66q21 -12 45 -40t41 -28q10 1 18.5 5t23.5 15l9 -11l-55 -46v-356h12v-16h-12q-67 0 -124 -21t-116 -67h-12q-9 14 -23 31t-47 49l-40 -33zM78 1016q11 -12 24.5 -26.5t40.5 -45.5l50 33l-54 47v365h-47v-359zM197 1036 l41 -37l24 13v368l-41 37l-24 -10v-371zM236 1425l45 -39v-370q12 4 23.5 6.5t22.5 3.5l1 344l32 29q-23 4 -45 16t-41 31z" />
<glyph unicode="&#xbb;" horiz-adv-x="786" d="M113 94l127 287l-121 272h153l121 -272l-123 -287h-157zM147 119h66l113 262l-109 248h-63l108 -248zM397 94l127 287l-121 272h154l121 -272l-123 -287h-158zM432 119h68l112 262l-110 248h-64l109 -248z" />
<glyph unicode="&#xbc;" horiz-adv-x="958" d="M-109 -39l973 1081h51l-972 -1081h-52zM12 465l54 41v438l-15 14l-28 -22l-11 8q24 21 49 41t52 41l32 -29q15 -13 20 -24t5 -39v-420l31 -22l24 16l8 -10q-26 -19 -49 -38t-45 -40h-14q-12 18 -26.5 33t-37.5 32l-41 -30zM61 969l19 -21v-448l-6 -6q18 -16 32.5 -30 t26.5 -30l33 31l-43 31v462l-33 33zM582 188q0 45 86 180.5t129 215.5q29 -15 40 -31.5t11 -58.5v-312l35 1q5 10 6.5 14.5t1.5 7.5q0 11 -5 33t-5 32q0 27 19 44t54 22q-6 -10 -9 -19t-3 -18q0 -14 6 -39t6 -35q0 -28 -19 -42.5t-56 -14.5h-31v-96l29 -23l26 17l8 -11 q-27 -18 -50.5 -37t-43.5 -41h-14q-13 18 -27 33t-37 33l-41 -31l-8 11l53 40v113h-38q-18 0 -48.5 -2t-66.5 -6l-6 10l-1 4t-1 6zM596 195l1 -5t1 -10l43 6q-8 19 -11 30.5t-3 23.5q0 11 2 24.5t6 28.5q-2 -4 -7 -13q-32 -60 -32 -85zM647 262q0 -35 21 -54.5t59 -19.5h16 v275l-51 -84q-22 -34 -33.5 -64t-11.5 -53zM752 51q18 -15 45 -43l12 -12l33 27l-41 30v420q0 31 -4 41.5t-12 15.5l-27 -45v-428zM895 270q0 -9 5 -30.5t5 -34.5q0 -7 -1.5 -13t-3.5 -11q14 5 21 13.5t7 20.5q0 14 -6.5 39.5t-6.5 36.5v18q-11 -5 -15.5 -13.5t-4.5 -25.5z " />
<glyph unicode="&#xbd;" horiz-adv-x="930" d="M-109 -39l973 1081h51l-972 -1081h-52zM12 465l54 41v438l-15 14l-28 -22l-11 8q24 21 49 41t52 41l32 -29q15 -13 20 -24t5 -39v-420l31 -22l24 16l8 -10q-26 -19 -49 -38t-45 -40h-14q-12 18 -26.5 33t-37.5 32l-41 -30zM61 969l19 -21v-448l-6 -6q18 -16 32.5 -30 t26.5 -30l33 31l-43 31v462l-33 33zM594 0v4q0 77 47.5 153t128.5 128v211l-35 28l-22 -8v-156h6v-12q-57 0 -82 16.5t-25 53.5v86h-12v12h27q47 0 85 14t91 54q16 -10 37 -32t34 -22q8 0 17 4.5t18 12.5l11 -10l-48 -35v-238q-97 -26 -159 -68.5t-86 -100.5q13 6 28.5 9.5 t32.5 4.5q27 0 68.5 -10.5t54.5 -10.5q51 0 57 88h14q0 -4 -0.5 -9t-0.5 -15q0 -16 3 -44t3 -40q0 -35 -19.5 -51.5t-58.5 -16.5q-24 0 -69 8t-68 8q-19 0 -39.5 -4t-38.5 -12zM608 18q17 6 33 9.5t31 3.5q26 0 72.5 -9.5t68.5 -9.5q29 0 45 13.5t16 37.5q0 3 -2 13t-2 18 q-4 -21 -19 -32t-40 -11q-15 0 -59 9.5t-72 9.5q-20 0 -36 -3.5t-30 -11.5q-3 -9 -4.5 -18.5t-1.5 -18.5zM627 424q0 -29 8 -40.5t28 -16.5l1 137h-37v-80zM682 188q34 28 70 50t71 36v215l26 20q-17 4 -32.5 12.5t-36.5 27.5l-35 -19l39 -30v-221q-38 -26 -63 -47.5 t-39 -43.5z" />
<glyph unicode="&#xbe;" horiz-adv-x="1073" d="M-36 435q13 37 52 63t80 26q26 0 47 -9t39 -30l6 2v250l-18 11q-18 -11 -32 -25t-23 -31q3 -4 4.5 -9.5t1.5 -14.5q-1 -8 -2.5 -10t-7.5 -3q-6 0 -9.5 5.5t-3.5 15.5q0 26 24.5 52.5t65.5 43.5v166l-34 29l-23 -9v-151h6v-14q-57 0 -82.5 16.5t-25.5 52.5v84h-11v12h29 q46 0 84.5 15t89.5 53q18 -10 37.5 -31.5t34.5 -21.5q8 0 16 3.5t19 12.5l8 -10l-45 -35v-149h14v-12q-36 -4 -65.5 -10.5t-53.5 -16.5q27 -11 57 -17t62 -8v-12h-14v-213h14v-10q-56 0 -103 -19t-85 -57h-15q-15 18 -33.5 27.5t-39.5 9.5q-14 0 -29.5 -5.5t-35.5 -16.5z M-4 463q10 3 18.5 4.5t16.5 1.5q22 0 41 -9t39 -28q6 10 13 17.5t17 13.5q-20 17 -34.5 23t-34.5 6q-24 0 -44 -8t-32 -21zM8 -39l973 1081h51l-973 -1081h-51zM45 868q0 -26 8.5 -37.5t30.5 -16.5v132h-39v-78zM166 973l37 -31v-165l30 6q6 1 9 1v148l28 20q-19 3 -36.5 12 t-36.5 27zM203 494q18 5 26 7l12 3l1 220q-15 3 -35 8q-3 1 -4 1v-239zM698 188q0 45 86.5 180.5t128.5 215.5q30 -15 41 -31.5t11 -58.5v-312l35 1q4 9 6 14t2 8q0 11 -5.5 33t-5.5 32q0 27 19.5 44t54.5 22q-7 -11 -9.5 -19t-2.5 -18q0 -14 6 -39t6 -35q0 -28 -19 -42.5 t-57 -14.5h-30v-96l28 -23l27 17l8 -11q-28 -18 -51 -37t-43 -41h-14q-13 18 -27 33t-37 33l-41 -31l-8 11l53 40v113h-39q-17 0 -47.5 -2t-66.5 -6l-7 10q0 1 -1 5t-1 5zM713 195q0 -1 1 -5.5t1 -9.5l43 6q-8 19 -11.5 30.5t-3.5 23.5q0 11 2.5 24.5t6.5 28.5q-3 -5 -7 -13 q-32 -60 -32 -85zM764 262q0 -35 20.5 -54.5t59.5 -19.5h16v275l-51 -84q-22 -34 -33.5 -64t-11.5 -53zM868 51q19 -15 46 -43l12 -12l32 27l-40 30v420q-1 32 -4.5 42t-11.5 15l-28 -45v-428zM1012 270q0 -9 5 -30.5t5 -34.5q0 -6 -1.5 -12t-4.5 -13q15 6 21.5 14.5 t6.5 20.5q0 14 -6 39.5t-6 36.5v18q-11 -5 -15.5 -13.5t-4.5 -25.5z" />
<glyph unicode="&#xbf;" horiz-adv-x="653" d="M45 31v22l76 60v381h-25v18q111 10 172.5 57t61.5 121q0 35 -19.5 77.5t-60.5 96.5l-35 -26l-10 16l160 131q47 -43 71.5 -96t24.5 -115q0 -87 -46.5 -149.5t-142.5 -102.5v-397l56 -41h30v285l-18 2v16q94 0 138 -34.5t44 -106.5v-133l15 2l-1 -21q-102 -5 -171 -32.5 t-138 -90.5l-108 101zM145 86l88 -86l52 43l-88 78v383l-52 -10v-408zM154 1219l159 161l111 -110l33 33l16 -17l-160 -160l-108 111l-33 -35zM221 1251l92 -94l58 57l-95 93zM268 879q45 -53 65.5 -98.5t20.5 -90.5q0 -40 -16 -72.5t-51 -62.5q54 23 81 64.5t27 101.5 q0 48 -17.5 96.5t-55.5 104.5zM381 90l72 14v142q0 59 -16 84.5t-56 34.5v-275z" />
<glyph unicode="&#xc0;" horiz-adv-x="1100" d="M14 -121q0 122 77.5 207t201.5 100l153 672q-36 56 -68 81.5t-65 25.5q-39 0 -61.5 -31.5t-26.5 -89.5h-20q0 110 48 178t124 68q29 0 56 -11t54 -35l21 72q-32 143 -84.5 209t-134.5 66q-67 0 -113.5 -42t-46.5 -102q0 -41 19 -76.5t55 -62.5l-17 -16q-44 36 -66 78 t-22 92q0 96 75.5 164.5t184.5 68.5t172.5 -62.5t110.5 -226.5l283 -989q13 -48 31.5 -80t41.5 -49l88 80l15 -16l-205 -185q-43 33 -72 79.5t-47 113.5l-71 268h-332l-55 -242q55 -1 104.5 -21.5t99.5 -62.5l70 58l12 -17l-207 -176q-58 32 -95.5 45t-70.5 13 q-77 0 -131.5 -54.5t-54.5 -132.5q0 -107 83.5 -182.5t217.5 -85.5v-20q-152 9 -242 98.5t-90 230.5zM31 -115v-6q15 76 70.5 122t131.5 46q41 0 81 -12.5t81 -38.5l60 53q-44 33 -89 49.5t-92 16.5q-101 0 -172 -67t-71 -163zM127 1329l2 -2q29 43 71.5 64.5t96.5 21.5 q83 0 135 -60t96 -214l174 -619h-307l-14 -65h342l72 -267q21 -85 44 -123t60 -69l43 39q-32 24 -52.5 59t-43.5 115l-266 958q-45 158 -104 225.5t-150 67.5q-70 0 -120.5 -33.5t-78.5 -97.5zM172 1779l118 115l334 -358h-67zM229 1785l315 -217h21l-281 267zM236 950l6 -2 q12 18 31 27.5t44 9.5q33 0 60.5 -17t77.5 -75l18 84q-30 31 -59.5 46t-61.5 15q-41 0 -71 -23t-45 -65zM412 592h241l-129 483z" />
<glyph unicode="&#xc1;" horiz-adv-x="1100" d="M14 -121q0 122 77.5 207t201.5 100l153 672q-36 56 -68 81.5t-65 25.5q-39 0 -61.5 -31.5t-26.5 -89.5h-20q0 110 48 178t124 68q29 0 56 -11t54 -35l21 72q-32 143 -84.5 209t-134.5 66q-67 0 -113.5 -42t-46.5 -102q0 -41 19 -76.5t55 -62.5l-17 -16q-44 36 -66 78 t-22 92q0 96 75.5 164.5t184.5 68.5t172.5 -62.5t110.5 -226.5l283 -989q13 -48 31.5 -80t41.5 -49l88 80l15 -16l-205 -185q-43 33 -72 79.5t-47 113.5l-71 268h-332l-55 -242q55 -1 104.5 -21.5t99.5 -62.5l70 58l12 -17l-207 -176q-58 32 -95.5 45t-70.5 13 q-77 0 -131.5 -54.5t-54.5 -132.5q0 -107 83.5 -182.5t217.5 -85.5v-20q-152 9 -242 98.5t-90 230.5zM31 -115v-6q15 76 70.5 122t131.5 46q41 0 81 -12.5t81 -38.5l60 53q-44 33 -89 49.5t-92 16.5q-101 0 -172 -67t-71 -163zM127 1329l2 -2q29 43 71.5 64.5t96.5 21.5 q83 0 135 -60t96 -214l174 -619h-307l-14 -65h342l72 -267q21 -85 44 -123t60 -69l43 39q-32 24 -52.5 59t-43.5 115l-266 958q-45 158 -104 225.5t-150 67.5q-70 0 -120.5 -33.5t-78.5 -97.5zM223 1536l336 358l116 -115l-385 -243h-67zM236 950l6 -2q12 18 31 27.5t44 9.5 q33 0 60.5 -17t77.5 -75l18 84q-30 31 -59.5 46t-61.5 15q-41 0 -71 -23t-45 -65zM282 1568h21l315 217l-55 50zM412 592h241l-129 483z" />
<glyph unicode="&#xc2;" horiz-adv-x="1100" d="M14 -121q0 122 77.5 207t201.5 100l153 672q-36 56 -68 81.5t-65 25.5q-39 0 -61.5 -31.5t-26.5 -89.5h-20q0 110 48 178t124 68q29 0 56 -11t54 -35l21 72q-32 143 -84.5 209t-134.5 66q-67 0 -113.5 -42t-46.5 -102q0 -41 19 -76.5t55 -62.5l-17 -16q-44 36 -66 78 t-22 92q0 96 75.5 164.5t184.5 68.5t172.5 -62.5t110.5 -226.5l283 -989q13 -48 31.5 -80t41.5 -49l88 80l15 -16l-205 -185q-43 33 -72 79.5t-47 113.5l-71 268h-332l-55 -242q55 -1 104.5 -21.5t99.5 -62.5l70 58l12 -17l-207 -176q-58 32 -95.5 45t-70.5 13 q-77 0 -131.5 -54.5t-54.5 -132.5q0 -107 83.5 -182.5t217.5 -85.5v-20q-152 9 -242 98.5t-90 230.5zM31 -115v-6q15 76 70.5 122t131.5 46q41 0 81 -12.5t81 -38.5l60 53q-44 33 -89 49.5t-92 16.5q-101 0 -172 -67t-71 -163zM108 1536l232 348h118l232 -348h-58l-233 211 l-233 -211h-58zM127 1329l2 -2q29 43 71.5 64.5t96.5 21.5q83 0 135 -60t96 -214l174 -619h-307l-14 -65h342l72 -267q21 -85 44 -123t60 -69l43 39q-32 24 -52.5 59t-43.5 115l-266 958q-45 158 -104 225.5t-150 67.5q-70 0 -120.5 -33.5t-78.5 -97.5zM151 1564h17l231 226 l231 -226h17l-209 285h-80zM236 950l6 -2q12 18 31 27.5t44 9.5q33 0 60.5 -17t77.5 -75l18 84q-30 31 -59.5 46t-61.5 15q-41 0 -71 -23t-45 -65zM412 592h241l-129 483z" />
<glyph unicode="&#xc3;" horiz-adv-x="1100" d="M14 -121q0 122 77.5 207t201.5 100l153 672q-36 56 -68 81.5t-65 25.5q-39 0 -61.5 -31.5t-26.5 -89.5h-20q0 110 48 178t124 68q29 0 56 -11t54 -35l21 72q-32 143 -84.5 209t-134.5 66q-67 0 -113.5 -42t-46.5 -102q0 -41 19 -76.5t55 -62.5l-17 -16q-44 36 -66 78 t-22 92q0 96 75.5 164.5t184.5 68.5t172.5 -62.5t110.5 -226.5l283 -989q13 -48 31.5 -80t41.5 -49l88 80l15 -16l-205 -185q-43 33 -72 79.5t-47 113.5l-71 268h-332l-55 -242q55 -1 104.5 -21.5t99.5 -62.5l70 58l12 -17l-207 -176q-58 32 -95.5 45t-70.5 13 q-77 0 -131.5 -54.5t-54.5 -132.5q0 -107 83.5 -182.5t217.5 -85.5v-20q-152 9 -242 98.5t-90 230.5zM31 -115v-6q15 76 70.5 122t131.5 46q41 0 81 -12.5t81 -38.5l60 53q-44 33 -89 49.5t-92 16.5q-101 0 -172 -67t-71 -163zM112 1577q19 106 68 159.5t129 53.5 q19 0 34 -2t29 -7l110 -28q24 -6 36 -8t20 -3q37 0 58 19.5t36 66.5h54q-20 -103 -68.5 -153.5t-126.5 -50.5q-15 0 -33 2.5t-41 7.5l-109 27q-12 3 -26 4.5t-30 1.5q-33 0 -53.5 -21t-35.5 -69h-51zM127 1329l2 -2q29 43 71.5 64.5t96.5 21.5q83 0 135 -60t96 -214 l174 -619h-307l-14 -65h342l72 -267q21 -85 44 -123t60 -69l43 39q-32 24 -52.5 59t-43.5 115l-266 958q-45 158 -104 225.5t-150 67.5q-70 0 -120.5 -33.5t-78.5 -97.5zM159 1640q24 29 50 42t57 13q38 0 114 -21.5t111 -21.5q52 0 88.5 28t55.5 81q-20 -24 -44.5 -34.5 t-56.5 -10.5q-39 0 -115 20.5t-112 20.5q-56 0 -94 -30.5t-54 -86.5zM236 950l6 -2q12 18 31 27.5t44 9.5q33 0 60.5 -17t77.5 -75l18 84q-30 31 -59.5 46t-61.5 15q-41 0 -71 -23t-45 -65zM412 592h241l-129 483z" />
<glyph unicode="&#xc4;" horiz-adv-x="1100" d="M14 -121q0 122 77.5 207t201.5 100l153 672q-36 56 -68 81.5t-65 25.5q-39 0 -61.5 -31.5t-26.5 -89.5h-20q0 110 48 178t124 68q29 0 56 -11t54 -35l21 72q-32 143 -84.5 209t-134.5 66q-67 0 -113.5 -42t-46.5 -102q0 -41 19 -76.5t55 -62.5l-17 -16q-44 36 -66 78 t-22 92q0 96 75.5 164.5t184.5 68.5t172.5 -62.5t110.5 -226.5l283 -989q13 -48 31.5 -80t41.5 -49l88 80l15 -16l-205 -185q-43 33 -72 79.5t-47 113.5l-71 268h-332l-55 -242q55 -1 104.5 -21.5t99.5 -62.5l70 58l12 -17l-207 -176q-58 32 -95.5 45t-70.5 13 q-77 0 -131.5 -54.5t-54.5 -132.5q0 -107 83.5 -182.5t217.5 -85.5v-20q-152 9 -242 98.5t-90 230.5zM31 -115v-6q15 76 70.5 122t131.5 46q41 0 81 -12.5t81 -38.5l60 53q-44 33 -89 49.5t-92 16.5q-101 0 -172 -67t-71 -163zM90 1685l131 133l135 -135l-133 -131z M127 1329l2 -2q29 43 71.5 64.5t96.5 21.5q83 0 135 -60t96 -214l174 -619h-307l-14 -65h342l72 -267q21 -85 44 -123t60 -69l43 39q-32 24 -52.5 59t-43.5 115l-266 958q-45 158 -104 225.5t-150 67.5q-70 0 -120.5 -33.5t-78.5 -97.5zM139 1685l84 -82l82 82l-84 82z M236 950l6 -2q12 18 31 27.5t44 9.5q33 0 60.5 -17t77.5 -75l18 84q-30 31 -59.5 46t-61.5 15q-41 0 -71 -23t-45 -65zM412 592h241l-129 483zM440 1685l131 133l135 -135l-133 -131zM491 1685l82 -82l82 82l-84 82z" />
<glyph unicode="&#xc5;" horiz-adv-x="1100" d="M14 -121q0 122 77.5 207t201.5 100l156 672q-39 56 -71 81.5t-65 25.5q-39 0 -61.5 -31.5t-26.5 -89.5h-20q0 110 48 178t124 68q29 0 56 -11t54 -35l21 72q-32 143 -84.5 209t-134.5 66q-67 0 -113.5 -42t-46.5 -102q0 -41 19 -76.5t55 -62.5l-17 -16q-44 36 -66 78 t-22 92q0 96 75.5 164.5t184.5 68.5t172.5 -62.5t110.5 -226.5l283 -989q13 -48 31.5 -80t41.5 -49l88 80l15 -16l-205 -185q-43 33 -72 79.5t-47 113.5l-71 268h-332l-55 -242q55 -1 104.5 -21.5t99.5 -62.5l70 58l12 -17l-207 -176q-58 32 -95.5 45t-70.5 13 q-77 0 -131.5 -54.5t-54.5 -132.5q0 -107 83.5 -182.5t217.5 -85.5v-20q-152 9 -242 98.5t-90 230.5zM31 -115v-6q15 76 70.5 122t131.5 46q40 0 80 -12t82 -37l60 49q-44 34 -88.5 51t-92.5 17q-101 0 -172 -67t-71 -163zM127 1329l4 -2q27 42 69 64t97 22q83 0 135 -60 t96 -214l174 -619h-307l-14 -65h342l72 -267q21 -85 44 -123t60 -67l43 37q-32 24 -52.5 59t-43.5 115l-266 958q-45 158 -104 225.5t-150 67.5q-70 0 -120.5 -33.5t-78.5 -97.5zM236 950l6 -2q12 18 31 27.5t44 9.5q33 0 60.5 -17t77.5 -75l18 84q-30 31 -59.5 46t-61.5 15 q-41 0 -71 -23t-45 -65zM391 1706q0 74 52.5 126t125.5 52q74 0 126.5 -52t52.5 -126t-52.5 -126t-126.5 -52t-126 52t-52 126zM412 592h241l-129 483zM446 1706q0 -50 37 -86.5t88 -36.5t86 36t35 87q0 49 -36 86t-85 37t-87 -37t-38 -86z" />
<glyph unicode="&#xc6;" horiz-adv-x="1554" d="M14 -121q0 122 77.5 207t201.5 100l498 863q42 74 84 99.5t110 25.5h43v-23h-20v-729q0 -106 -36 -148.5t-132 -60.5v27l16 4v184h-397l-137 -241q53 -2 101.5 -22t98.5 -63l70 58l12 -17l-207 -176q-58 32 -95.5 45t-70.5 13q-77 0 -131.5 -54.5t-54.5 -132.5 q0 -107 83.5 -182.5t217.5 -85.5v-20q-152 9 -242 98.5t-90 230.5zM31 -115v-6q15 76 70.5 122t131.5 46q40 0 80 -12t82 -37l60 47q-43 35 -88 52.5t-93 17.5q-101 0 -172 -67t-71 -163zM307 1233q0 104 80.5 183t190.5 79q61 0 111 -22.5t114 -81.5q45 -44 84.5 -67.5 t68.5 -23.5q23 0 45 12.5t50 39.5l18 -21q-46 -61 -104.5 -94t-118.5 -33q-43 0 -79 16t-97 70q-4 3 -10 9q-101 87 -173 87q-67 0 -111 -44t-44 -111q0 -62 39 -106t112 -64l-4 -21q-90 27 -131 73t-41 120zM401 1391q24 10 46 15t42 5q48 0 87.5 -18t105.5 -80 q55 -51 91 -68.5t77 -17.5q30 0 58.5 10t60.5 33q-6 -1 -14 -2q-20 -2 -29 -2q-43 0 -80.5 15.5t-91.5 61.5l-1 1q-127 108 -206 108q-41 0 -77 -15t-69 -46zM473 455h408v-205q13 3 27 9t28 16v871q-17 -1 -30.5 -6t-24.5 -13v-607h-371zM555 592h301v516l-6 -10zM657 -141 q0 145 114 245.5t296 110.5v975q0 75 39 117.5t108 42.5q42 0 100.5 -29t82.5 -29q25 0 44 20t38 66l20 -4q-24 -104 -71.5 -159.5t-112.5 -55.5q-42 0 -101 31t-79 31q-22 0 -32.5 -14.5t-10.5 -45.5v-477q30 63 73.5 97t94.5 34q38 0 74.5 -19.5t74.5 -60.5q19 20 28 30 t17 21l16 -14q-47 -58 -94.5 -104t-97.5 -80q-46 66 -69 85t-48 19q-27 0 -46 -20.5t-23 -54.5v-402q101 -6 192 -37.5t180 -91.5q28 17 49.5 33.5t36.5 34.5l15 -15q-24 -29 -72.5 -66t-155.5 -106q-130 59 -225.5 86t-169.5 27q-106 0 -180 -65.5t-74 -161.5 q0 -98 69 -162t183 -72v-18q-128 6 -205.5 77t-77.5 181zM727 12q44 49 96.5 71.5t120.5 22.5q73 0 169.5 -26.5t221.5 -81.5l70 39q-102 63 -194 94t-181 31q-103 0 -185.5 -41t-117.5 -109zM1092 1221q10 9 22 14.5t21 5.5q30 0 90 -29.5t92 -29.5q41 0 76 29.5t59 84.5 q-32 -28 -54.5 -39.5t-43.5 -11.5q-22 0 -78 20.5t-94 20.5q-30 0 -53.5 -17t-36.5 -48zM1108 684q14 14 28.5 20.5t32.5 6.5q31 0 55.5 -18.5t61.5 -71.5q15 11 30.5 24.5t33.5 30.5q-36 46 -66 64t-67 18q-32 0 -61.5 -20t-47.5 -54z" />
<glyph unicode="&#xc7;" horiz-adv-x="948" d="M86 618q0 235 97.5 433t283.5 342l10 -13q-109 -101 -170 -293.5t-61 -437.5q0 -251 83 -389.5t232 -138.5q33 0 59.5 8t49.5 25v483q-1 3 -2 8q-9 36 -9 45q1 12 3.5 25.5t7.5 28.5v382q-35 8 -64 28t-57 56l-27 -22v-645q0 -129 -38 -182.5t-140 -73.5v22l18 6v777 l-22 -7v23q69 28 140.5 82.5t174.5 159.5q23 -25 54 -67q40 -54 67 -54q36 0 60 47.5t24 122.5v22h19v-20q0 -123 -50 -197t-135 -78v-382q5 -15 7.5 -28.5t3.5 -25.5q-1 -7 -7 -36q-2 -10 -4 -18v-468q56 36 90.5 104t40.5 156h21v-18q0 -199 -91.5 -319t-240.5 -120 q-189 0 -308.5 179.5t-119.5 467.5zM109 618q0 -273 114 -444.5t291 -171.5q51 0 87.5 9t68.5 28v72q-35 -24 -69.5 -36t-70.5 -12q-158 0 -258 158t-100 418q0 165 43.5 320.5t134.5 314.5q-122 -150 -181.5 -312t-59.5 -344zM195 -336l16 37q66 -39 120.5 -57.5 t106.5 -18.5q55 0 88 28t33 75q0 42 -30 66t-83 24q-17 0 -26.5 -0.5t-19.5 -1.5l-1 49q38 8 69 12t60 4q80 0 125 -37.5t45 -103.5q0 -78 -61 -126t-162 -48q-70 0 -144 25.5t-136 72.5zM387 324q15 3 29 10t28 18v784l-14 -7q-29 -16 -43 -26v-779zM459 -403q5 0 14 -1.5 t14 -1.5q82 0 129.5 38t47.5 102q0 53 -36 83.5t-100 30.5h-22t-14 -2q50 -15 76 -46.5t26 -75.5q0 -54 -36 -87.5t-99 -39.5zM567 1227q37 -44 65 -62t58 -18q38 0 69 18t54 54q-31 -15 -47.5 -20t-30.5 -5q-27 0 -54 16.5t-67 57.5zM694 57q47 44 76.5 100.5t46.5 135.5 q-39 -76 -65 -110.5t-58 -59.5v-66z" />
<glyph unicode="&#xc8;" horiz-adv-x="1174" d="M-82 1233q0 104 80.5 183t189.5 79q62 0 112 -22.5t114 -81.5q45 -44 84.5 -67.5t68.5 -23.5q22 0 43.5 11t51.5 37l20 -17q-46 -61 -104.5 -94t-118.5 -33q-77 0 -177 85l-1 1q-6 5 -15 13q-96 83 -166 83q-68 0 -112.5 -44t-44.5 -111q0 -62 39 -106t112 -64l-4 -21 q-88 25 -130 72t-42 121zM12 1391q24 10 46 15t42 5q49 0 89.5 -19t105.5 -79q56 -52 91 -69t75 -17q31 0 61.5 10.5t59.5 32.5q-5 -1 -12 -2q-23 -2 -33 -2q-43 0 -80.5 15.5t-91.5 61.5l-1 1q-127 108 -206 108q-41 0 -77 -15t-69 -46zM248 -156q0 160 118.5 263 t310.5 108l1 975q0 75 39 117.5t108 42.5q42 0 100.5 -29t82.5 -29q27 0 47 23.5t37 77.5l18 -11q-24 -109 -71 -166t-113 -57q-42 0 -101.5 31t-79.5 31q-22 0 -32.5 -15.5t-10.5 -48.5v-473q30 63 74 97t94 34q39 0 75.5 -19.5t74.5 -60.5q19 20 28 30t17 21l16 -14 q-47 -58 -94.5 -104t-97.5 -80q-46 66 -69 85t-48 19q-27 0 -46 -20.5t-23 -54.5l-1 -402q102 -6 193 -37.5t180 -91.5q28 17 49 33.5t37 34.5l17 -15q-23 -27 -69 -62.5t-161 -109.5q-132 60 -228.5 86.5t-174.5 26.5q-116 0 -192.5 -69t-76.5 -173q0 -118 75 -187.5 t212 -80.5v-20q-150 9 -232.5 86.5t-82.5 207.5zM260 475v57q0 130 46.5 181t160.5 51v231q0 84 39.5 125t132.5 54v-23l-21 -4v-725q0 -106 -36 -148.5t-131 -60.5v27l16 4v368h-45q-71 0 -104 -21t-33 -67v-49h-25zM279 578q14 31 52.5 45t108.5 14h54v-387q13 3 25.5 8.5 t27.5 15.5v844q-26 -14 -39.5 -41t-13.5 -65v-4v-308q-11 0 -22 -1l-11 -1q-96 0 -137.5 -27t-44.5 -93zM319 12q46 50 99.5 72t130.5 22q79 0 177 -27t220 -83l70 41q-106 66 -200 95.5t-195 29.5t-183.5 -41t-118.5 -109zM447 1779l118 115l334 -358h-67zM504 1785 l315 -217h21l-281 267zM703 1221q10 9 22 14.5t20 5.5q31 0 91 -29.5t92 -29.5q41 0 76 29.5t59 84.5q-32 -28 -54.5 -39.5t-43.5 -11.5q-22 0 -78 20.5t-94 20.5q-30 0 -53 -16.5t-37 -48.5zM719 684q14 14 28.5 20.5t32.5 6.5q30 0 55 -19t62 -71q15 11 30.5 24.5 t33.5 30.5q-36 46 -66 64t-68 18q-32 0 -61 -20t-47 -54z" />
<glyph unicode="&#xc9;" horiz-adv-x="1174" d="M-82 1233q0 104 80.5 183t189.5 79q62 0 112 -22.5t114 -81.5q45 -44 84.5 -67.5t68.5 -23.5q22 0 43.5 11t51.5 37l20 -17q-46 -61 -104.5 -94t-118.5 -33q-77 0 -177 85l-1 1q-6 5 -15 13q-96 83 -166 83q-68 0 -112.5 -44t-44.5 -111q0 -62 39 -106t112 -64l-4 -21 q-88 25 -130 72t-42 121zM12 1391q24 10 46 15t42 5q49 0 89.5 -19t105.5 -79q56 -52 91 -69t75 -17q31 0 61.5 10.5t59.5 32.5q-5 -1 -12 -2q-23 -2 -33 -2q-43 0 -80.5 15.5t-91.5 61.5l-1 1q-127 108 -206 108q-41 0 -77 -15t-69 -46zM248 -156q0 160 118.5 263 t310.5 108l1 975q0 75 39 117.5t108 42.5q42 0 100.5 -29t82.5 -29q27 0 47 23.5t37 77.5l18 -11q-24 -109 -71 -166t-113 -57q-42 0 -101.5 31t-79.5 31q-22 0 -32.5 -15.5t-10.5 -48.5v-473q30 63 74 97t94 34q39 0 75.5 -19.5t74.5 -60.5q19 20 28 30t17 21l16 -14 q-47 -58 -94.5 -104t-97.5 -80q-46 66 -69 85t-48 19q-27 0 -46 -20.5t-23 -54.5l-1 -402q102 -6 193 -37.5t180 -91.5q28 17 49 33.5t37 34.5l17 -15q-23 -27 -69 -62.5t-161 -109.5q-132 60 -228.5 86.5t-174.5 26.5q-116 0 -192.5 -69t-76.5 -173q0 -118 75 -187.5 t212 -80.5v-20q-150 9 -232.5 86.5t-82.5 207.5zM260 475v57q0 130 46.5 181t160.5 51v231q0 84 39.5 125t132.5 54v-23l-21 -4v-725q0 -106 -36 -148.5t-131 -60.5v27l16 4v368h-45q-71 0 -104 -21t-33 -67v-49h-25zM279 578q14 31 52.5 45t108.5 14h54v-387q13 3 25.5 8.5 t27.5 15.5v844q-26 -14 -39.5 -41t-13.5 -65v-4v-308q-11 0 -22 -1l-11 -1q-96 0 -137.5 -27t-44.5 -93zM319 12q46 50 99.5 72t130.5 22q79 0 177 -27t220 -83l70 41q-106 66 -200 95.5t-195 29.5t-183.5 -41t-118.5 -109zM498 1536l336 358l116 -115l-385 -243h-67z M557 1568h21l315 217l-55 50zM703 1221q10 9 22 14.5t20 5.5q31 0 91 -29.5t92 -29.5q41 0 76 29.5t59 84.5q-32 -28 -54.5 -39.5t-43.5 -11.5q-22 0 -78 20.5t-94 20.5q-30 0 -53 -16.5t-37 -48.5zM719 684q14 14 28.5 20.5t32.5 6.5q30 0 55 -19t62 -71q15 11 30.5 24.5 t33.5 30.5q-36 46 -66 64t-68 18q-32 0 -61 -20t-47 -54z" />
<glyph unicode="&#xca;" horiz-adv-x="1174" d="M-82 1233q0 104 80.5 183t189.5 79q62 0 112 -22.5t114 -81.5q45 -44 84.5 -67.5t68.5 -23.5q22 0 43.5 11t51.5 37l20 -17q-46 -61 -104.5 -94t-118.5 -33q-77 0 -177 85l-1 1q-6 5 -15 13q-96 83 -166 83q-68 0 -112.5 -44t-44.5 -111q0 -62 39 -106t112 -64l-4 -21 q-88 25 -130 72t-42 121zM12 1391q24 10 46 15t42 5q49 0 89.5 -19t105.5 -79q56 -52 91 -69t75 -17q31 0 61.5 10.5t59.5 32.5q-5 -1 -12 -2q-23 -2 -33 -2q-43 0 -80.5 15.5t-91.5 61.5l-1 1q-127 108 -206 108q-41 0 -77 -15t-69 -46zM248 -156q0 160 118.5 263 t310.5 108l1 975q0 75 39 117.5t108 42.5q42 0 100.5 -29t82.5 -29q27 0 47 23.5t37 77.5l18 -11q-24 -109 -71 -166t-113 -57q-42 0 -101.5 31t-79.5 31q-22 0 -32.5 -15.5t-10.5 -48.5v-473q30 63 74 97t94 34q39 0 75.5 -19.5t74.5 -60.5q19 20 28 30t17 21l16 -14 q-47 -58 -94.5 -104t-97.5 -80q-46 66 -69 85t-48 19q-27 0 -46 -20.5t-23 -54.5l-1 -402q102 -6 193 -37.5t180 -91.5q28 17 49 33.5t37 34.5l17 -15q-23 -27 -69 -62.5t-161 -109.5q-132 60 -228.5 86.5t-174.5 26.5q-116 0 -192.5 -69t-76.5 -173q0 -118 75 -187.5 t212 -80.5v-20q-150 9 -232.5 86.5t-82.5 207.5zM260 475v57q0 130 46.5 181t160.5 51v231q0 84 39.5 125t132.5 54v-23l-21 -4v-725q0 -106 -36 -148.5t-131 -60.5v27l16 4v368h-45q-71 0 -104 -21t-33 -67v-49h-25zM279 578q14 31 52.5 45t108.5 14h54v-387q13 3 25.5 8.5 t27.5 15.5v844q-26 -14 -39.5 -41t-13.5 -65v-4v-308q-11 0 -22 -1l-11 -1q-96 0 -137.5 -27t-44.5 -93zM319 12q46 50 99.5 72t130.5 22q79 0 177 -27t220 -83l70 41q-106 66 -200 95.5t-195 29.5t-183.5 -41t-118.5 -109zM383 1536l232 348h118l232 -348h-58l-233 211 l-233 -211h-58zM426 1564h17l231 226l231 -226h17l-209 285h-80zM703 1221q10 9 22 14.5t20 5.5q31 0 91 -29.5t92 -29.5q41 0 76 29.5t59 84.5q-32 -28 -54.5 -39.5t-43.5 -11.5q-22 0 -78 20.5t-94 20.5q-30 0 -53 -16.5t-37 -48.5zM719 684q14 14 28.5 20.5t32.5 6.5 q30 0 55 -19t62 -71q15 11 30.5 24.5t33.5 30.5q-36 46 -66 64t-68 18q-32 0 -61 -20t-47 -54z" />
<glyph unicode="&#xcb;" horiz-adv-x="1174" d="M-82 1233q0 104 80.5 183t189.5 79q62 0 112 -22.5t114 -81.5q45 -44 84.5 -67.5t68.5 -23.5q22 0 43.5 11t51.5 37l20 -17q-46 -61 -104.5 -94t-118.5 -33q-77 0 -177 85l-1 1q-6 5 -15 13q-96 83 -166 83q-68 0 -112.5 -44t-44.5 -111q0 -62 39 -106t112 -64l-4 -21 q-88 25 -130 72t-42 121zM12 1391q24 10 46 15t42 5q49 0 89.5 -19t105.5 -79q56 -52 91 -69t75 -17q31 0 61.5 10.5t59.5 32.5q-5 -1 -12 -2q-23 -2 -33 -2q-43 0 -80.5 15.5t-91.5 61.5l-1 1q-127 108 -206 108q-41 0 -77 -15t-69 -46zM248 -156q0 160 118.5 263 t310.5 108l1 975q0 75 39 117.5t108 42.5q42 0 100.5 -29t82.5 -29q27 0 47 23.5t37 77.5l18 -11q-24 -109 -71 -166t-113 -57q-42 0 -101.5 31t-79.5 31q-22 0 -32.5 -15.5t-10.5 -48.5v-473q30 63 74 97t94 34q39 0 75.5 -19.5t74.5 -60.5q19 20 28 30t17 21l16 -14 q-47 -58 -94.5 -104t-97.5 -80q-46 66 -69 85t-48 19q-27 0 -46 -20.5t-23 -54.5l-1 -402q102 -6 193 -37.5t180 -91.5q28 17 49 33.5t37 34.5l17 -15q-23 -27 -69 -62.5t-161 -109.5q-132 60 -228.5 86.5t-174.5 26.5q-116 0 -192.5 -69t-76.5 -173q0 -118 75 -187.5 t212 -80.5v-20q-150 9 -232.5 86.5t-82.5 207.5zM260 475v57q0 130 46.5 181t160.5 51v231q0 84 39.5 125t132.5 54v-23l-21 -4v-725q0 -106 -36 -148.5t-131 -60.5v27l16 4v368h-45q-71 0 -104 -21t-33 -67v-49h-25zM279 578q14 31 52.5 45t108.5 14h54v-387q13 3 25.5 8.5 t27.5 15.5v844q-26 -14 -39.5 -41t-13.5 -65v-4v-308q-11 0 -22 -1l-11 -1q-96 0 -137.5 -27t-44.5 -93zM319 12q46 50 99.5 72t130.5 22q79 0 177 -27t220 -83l70 41q-106 66 -200 95.5t-195 29.5t-183.5 -41t-118.5 -109zM365 1685l131 133l135 -135l-133 -131zM414 1685 l84 -82l82 82l-84 82zM703 1221q10 9 22 14.5t20 5.5q31 0 91 -29.5t92 -29.5q41 0 76 29.5t59 84.5q-32 -28 -54.5 -39.5t-43.5 -11.5q-22 0 -78 20.5t-94 20.5q-30 0 -53 -16.5t-37 -48.5zM715 1685l131 133l135 -135l-133 -131zM719 684q14 14 28.5 20.5t32.5 6.5 q30 0 55 -19t62 -71q15 11 30.5 24.5t33.5 30.5q-36 46 -66 64t-68 18q-32 0 -61 -20t-47 -54zM766 1685l82 -82l82 82l-84 82z" />
<glyph unicode="&#xcc;" d="M-6 -113q0 153 79 255t197 102q65 0 116.5 -26t108.5 -88q13 -14 37 -41q75 -87 127 -87q56 0 82.5 63t26.5 197v813q0 84 39.5 125t132.5 53v-22l-20 -4v-942q0 -154 -71 -236t-204 -82q-80 0 -222 67.5t-204 67.5q-92 0 -148.5 -59.5t-56.5 -159.5q0 -146 90.5 -228.5 t249.5 -82.5h23v-23q-6 0 -14.5 1t-12.5 1q-170 0 -263 88t-93 248zM43 37q39 46 82 68t96 22q65 0 180.5 -55.5t178.5 -73.5q-32 23 -88 71q-136 117 -234 117q-71 0 -131.5 -42t-83.5 -107zM72 1233q0 104 80.5 183t189.5 79q115 0 236 -117q41 -39 63 -57q29 -23 60 -37 t53 -14q30 0 61 21t57 61l21 -13q-49 -80 -114.5 -124t-135.5 -44q-32 0 -63.5 11t-57.5 30q-47 34 -87 70.5t-40 40.5q0 10 -47.5 36.5t-93.5 26.5q-68 0 -113 -44t-45 -111q0 -62 39.5 -106t112.5 -64l-4 -21q-90 27 -131 73t-41 120zM166 1391q23 10 45 15t43 5 q48 0 87.5 -18.5t102.5 -77.5q6 -5 16 -15q109 -104 185 -104q32 0 61.5 10t59.5 31q-3 0 -11 -1q-24 -3 -34 -3q-45 0 -87 20t-95 68q-11 9 -30 26q-118 105 -198 105q-41 0 -76.5 -15t-68.5 -46zM348 475v57q0 129 47.5 180.5t161.5 51.5v211q0 84 39 125t131 53v-23 l-20 -4v-780q0 -105 -36 -147t-132 -60v25l18 4v444h-45q-72 0 -105.5 -21t-33.5 -67v-49h-25zM369 578q14 31 52.5 45t108.5 14h52v-461q12 3 25 9t28 16v897q-26 -14 -39.5 -41t-13.5 -66v-2v-289q-11 0 -22 -1l-11 -1q-96 0 -136.5 -27t-43.5 -93zM496 1779l118 115 l334 -358h-67zM553 1785l315 -217h21l-281 267zM729 2q65 30 92 88t27 176v932q-27 -14 -41 -41.5t-14 -64.5v-5v-833q0 -102 -16 -165t-48 -87z" />
<glyph unicode="&#xcd;" d="M-6 -113q0 153 79 255t197 102q65 0 116.5 -26t108.5 -88q13 -14 37 -41q75 -87 127 -87q56 0 82.5 63t26.5 197v813q0 84 39.5 125t132.5 53v-22l-20 -4v-942q0 -154 -71 -236t-204 -82q-80 0 -222 67.5t-204 67.5q-92 0 -148.5 -59.5t-56.5 -159.5q0 -146 90.5 -228.5 t249.5 -82.5h23v-23q-6 0 -14.5 1t-12.5 1q-170 0 -263 88t-93 248zM43 37q39 46 82 68t96 22q65 0 180.5 -55.5t178.5 -73.5q-32 23 -88 71q-136 117 -234 117q-71 0 -131.5 -42t-83.5 -107zM72 1233q0 104 80.5 183t189.5 79q115 0 236 -117q41 -39 63 -57q29 -23 60 -37 t53 -14q30 0 61 21t57 61l21 -13q-49 -80 -114.5 -124t-135.5 -44q-32 0 -63.5 11t-57.5 30q-47 34 -87 70.5t-40 40.5q0 10 -47.5 36.5t-93.5 26.5q-68 0 -113 -44t-45 -111q0 -62 39.5 -106t112.5 -64l-4 -21q-90 27 -131 73t-41 120zM166 1391q23 10 45 15t43 5 q48 0 87.5 -18.5t102.5 -77.5q6 -5 16 -15q109 -104 185 -104q32 0 61.5 10t59.5 31q-3 0 -11 -1q-24 -3 -34 -3q-45 0 -87 20t-95 68q-11 9 -30 26q-118 105 -198 105q-41 0 -76.5 -15t-68.5 -46zM348 475v57q0 129 47.5 180.5t161.5 51.5v211q0 84 39 125t131 53v-23 l-20 -4v-780q0 -105 -36 -147t-132 -60v25l18 4v444h-45q-72 0 -105.5 -21t-33.5 -67v-49h-25zM369 578q14 31 52.5 45t108.5 14h52v-461q12 3 25 9t28 16v897q-26 -14 -39.5 -41t-13.5 -66v-2v-289q-11 0 -22 -1l-11 -1q-96 0 -136.5 -27t-43.5 -93zM547 1536l336 358 l116 -115l-385 -243h-67zM606 1568h21l315 217l-55 50zM729 2q65 30 92 88t27 176v932q-27 -14 -41 -41.5t-14 -64.5v-5v-833q0 -102 -16 -165t-48 -87z" />
<glyph unicode="&#xce;" d="M-6 -113q0 153 79 255t197 102q65 0 116.5 -26t108.5 -88q13 -14 37 -41q75 -87 127 -87q56 0 82.5 63t26.5 197v813q0 84 39.5 125t132.5 53v-22l-20 -4v-942q0 -154 -71 -236t-204 -82q-80 0 -222 67.5t-204 67.5q-92 0 -148.5 -59.5t-56.5 -159.5q0 -146 90.5 -228.5 t249.5 -82.5h23v-23q-6 0 -14.5 1t-12.5 1q-170 0 -263 88t-93 248zM43 37q39 46 82 68t96 22q65 0 180.5 -55.5t178.5 -73.5q-32 23 -88 71q-136 117 -234 117q-71 0 -131.5 -42t-83.5 -107zM72 1233q0 104 80.5 183t189.5 79q115 0 236 -117q41 -39 63 -57q29 -23 60 -37 t53 -14q30 0 61 21t57 61l21 -13q-49 -80 -114.5 -124t-135.5 -44q-32 0 -63.5 11t-57.5 30q-47 34 -87 70.5t-40 40.5q0 10 -47.5 36.5t-93.5 26.5q-68 0 -113 -44t-45 -111q0 -62 39.5 -106t112.5 -64l-4 -21q-90 27 -131 73t-41 120zM166 1391q23 10 45 15t43 5 q48 0 87.5 -18.5t102.5 -77.5q6 -5 16 -15q109 -104 185 -104q32 0 61.5 10t59.5 31q-3 0 -11 -1q-24 -3 -34 -3q-45 0 -87 20t-95 68q-11 9 -30 26q-118 105 -198 105q-41 0 -76.5 -15t-68.5 -46zM348 475v57q0 129 47.5 180.5t161.5 51.5v211q0 84 39 125t131 53v-23 l-20 -4v-780q0 -105 -36 -147t-132 -60v25l18 4v444h-45q-72 0 -105.5 -21t-33.5 -67v-49h-25zM369 578q14 31 52.5 45t108.5 14h52v-461q12 3 25 9t28 16v897q-26 -14 -39.5 -41t-13.5 -66v-2v-289q-11 0 -22 -1l-11 -1q-96 0 -136.5 -27t-43.5 -93zM432 1536l232 348h118 l232 -348h-58l-233 211l-233 -211h-58zM475 1564h17l231 226l231 -226h17l-209 285h-80zM729 2q65 30 92 88t27 176v932q-27 -14 -41 -41.5t-14 -64.5v-5v-833q0 -102 -16 -165t-48 -87z" />
<glyph unicode="&#xcf;" d="M-6 -113q0 153 79 255t197 102q65 0 116.5 -26t108.5 -88q13 -14 37 -41q75 -87 127 -87q56 0 82.5 63t26.5 197v813q0 84 39.5 125t132.5 53v-22l-20 -4v-942q0 -154 -71 -236t-204 -82q-80 0 -222 67.5t-204 67.5q-92 0 -148.5 -59.5t-56.5 -159.5q0 -146 90.5 -228.5 t249.5 -82.5h23v-23q-6 0 -14.5 1t-12.5 1q-170 0 -263 88t-93 248zM43 37q39 46 82 68t96 22q65 0 180.5 -55.5t178.5 -73.5q-32 23 -88 71q-136 117 -234 117q-71 0 -131.5 -42t-83.5 -107zM72 1233q0 104 80.5 183t189.5 79q115 0 236 -117q41 -39 63 -57q29 -23 60 -37 t53 -14q30 0 61 21t57 61l21 -13q-49 -80 -114.5 -124t-135.5 -44q-32 0 -63.5 11t-57.5 30q-47 34 -87 70.5t-40 40.5q0 10 -47.5 36.5t-93.5 26.5q-68 0 -113 -44t-45 -111q0 -62 39.5 -106t112.5 -64l-4 -21q-90 27 -131 73t-41 120zM166 1391q23 10 45 15t43 5 q48 0 87.5 -18.5t102.5 -77.5q6 -5 16 -15q109 -104 185 -104q32 0 61.5 10t59.5 31q-3 0 -11 -1q-24 -3 -34 -3q-45 0 -87 20t-95 68q-11 9 -30 26q-118 105 -198 105q-41 0 -76.5 -15t-68.5 -46zM348 475v57q0 129 47.5 180.5t161.5 51.5v211q0 84 39 125t131 53v-23 l-20 -4v-780q0 -105 -36 -147t-132 -60v25l18 4v444h-45q-72 0 -105.5 -21t-33.5 -67v-49h-25zM369 578q14 31 52.5 45t108.5 14h52v-461q12 3 25 9t28 16v897q-26 -14 -39.5 -41t-13.5 -66v-2v-289q-11 0 -22 -1l-11 -1q-96 0 -136.5 -27t-43.5 -93zM414 1685l131 133 l135 -135l-133 -131zM463 1685l84 -82l82 82l-84 82zM729 2q65 30 92 88t27 176v932q-27 -14 -41 -41.5t-14 -64.5v-5v-833q0 -102 -16 -165t-48 -87zM764 1685l131 133l135 -135l-133 -131zM815 1685l82 -82l82 82l-84 82z" />
<glyph unicode="&#xd0;" horiz-adv-x="985" d="M23 1460l18 6q22 -81 63 -113t121 -32q60 0 188.5 36t196.5 36q124 0 193 -78.5t69 -218.5v-969l19 -2v-25q-13 1 -25 1.5t-22 0.5q-85 0 -151 -31.5t-128 -103.5q-68 46 -121.5 65t-109.5 19q-102 0 -168 -61.5t-66 -159.5q0 -111 77 -181t210 -79l-2 -21 q-152 11 -233.5 89.5t-81.5 214.5q0 141 96.5 236t239.5 95q32 0 67 -7t78 -23v475q-20 -9 -49 -13t-70 -4v-206q0 -106 -35.5 -147.5t-132.5 -59.5v24l17 4v385h-45q-72 0 -105 -21t-33 -67v-30h-24v38q0 130 46.5 181t160.5 51v211q0 84 39.5 125t132.5 53v-23l-21 -4 v-362h45q15 0 33 1.5t41 5.5v449q-60 -9 -153 -27.5t-122 -18.5q-101 0 -160.5 66.5t-92.5 219.5zM63 1368q25 -83 80 -126.5t136 -43.5q49 0 153 25.5t158 25.5q83 0 118 -39t35 -137l1 -958q19 4 33 6t24 2v987q0 103 -50 154t-151 51q-53 0 -170 -27.5t-176 -27.5 q-56 0 -103.5 27t-87.5 81zM92 578q15 31 53.5 45t108.5 14h53v-403q12 2 25 8t28 16v379h46q110 0 157.5 28t52.5 95q-18 -33 -61.5 -46.5t-146.5 -13.5h-48v398q-26 -14 -39.5 -41t-13.5 -66v-2v-289q-11 0 -21.5 -1t-11.5 -1q-96 0 -137.5 -27.5t-44.5 -92.5zM150 16 l6 -4q40 32 85 48t93 16q57 0 108.5 -16.5t116.5 -57.5l47 45q-57 45 -111.5 65.5t-113.5 20.5q-73 0 -127.5 -27.5t-103.5 -89.5zM575 141q29 -11 52.5 -22.5t46.5 -24.5l45 17v972q0 77 -29 109.5t-96 32.5h-19v-447q24 8 36 26t12 48v31h24v-39q0 -93 -16 -133t-56 -70 v-500z" />
<glyph unicode="&#xd1;" horiz-adv-x="1100" d="M-31 1262q0 96 75.5 164.5t184.5 68.5q101 0 162 -53t131 -236l99 -260q41 -15 76 -23t63 -8q32 0 63 8t64 23v201q-46 0 -85 17.5t-77 56.5l-37 -27l-12 16q49 40 87.5 84t72.5 99q72 -91 100 -114.5t51 -23.5q28 0 49.5 31t40.5 100l23 -6q-27 -103 -73 -159.5 t-116 -71.5l1 -955q0 -1 3 -6q42 -82 68 -100l90 80l14 -16l-204 -185q-38 28 -69.5 75.5t-57.5 117.5l-88 243q-42 15 -78.5 23t-63.5 8q-31 0 -61 -7.5t-64 -23.5v-217q50 -8 92 -28.5t82 -55.5l70 58l12 -17l-204 -176q-53 31 -102 45.5t-99 14.5q-97 0 -155 -52 t-58 -137q0 -108 82.5 -183t216.5 -85v-20q-153 9 -242.5 98.5t-89.5 230.5q0 136 94 223.5t242 87.5h6q15 -2 29 -2v443h-43q-79 0 -113.5 -21t-34.5 -67v-49h-24v57q0 130 48 180.5t167 50.5v369q-47 134 -94.5 187t-116.5 53q-73 0 -119.5 -41t-46.5 -103q0 -41 19 -76.5 t55 -62.5l-15 -16q-45 37 -67.5 79t-22.5 91zM-2 1329q40 45 80 64.5t90 19.5q134 0 232 -255q5 -13 8 -20l366 -950q4 -9 11 -29q42 -116 100 -161l45 37q-50 36 -101 169q-1 4 -2 5l-366 958q-72 184 -126.5 238.5t-137.5 54.5q-70 0 -121 -33.5t-78 -97.5zM23 -117v-4 q15 84 77.5 129t161.5 45q45 0 90.5 -13.5t96.5 -41.5l59 49q-45 36 -96.5 54t-110.5 18q-123 0 -200.5 -66.5t-77.5 -169.5zM182 596q15 30 51.5 43.5t100.5 13.5q7 0 21.5 1t21.5 1v61q-109 -1 -149.5 -27.5t-45.5 -92.5zM350 1577q19 106 68 159.5t129 53.5q19 0 34 -2 t29 -7l110 -28q24 -6 36 -8t20 -3q37 0 58 19.5t36 66.5h54q-20 -103 -68.5 -153.5t-126.5 -50.5q-15 0 -33 2.5t-41 7.5l-109 27q-12 3 -26 4.5t-30 1.5q-33 0 -53.5 -21t-35.5 -69h-51zM397 1640q24 29 50 42t57 13q38 0 114 -21.5t111 -21.5q52 0 88.5 28t55.5 81 q-20 -24 -44.5 -34.5t-56.5 -10.5q-39 0 -115 20.5t-112 20.5q-56 0 -94 -30.5t-54 -86.5zM401 430q38 15 67 22t52 7q29 0 59.5 -5.5t73.5 -19.5l-252 660v-664zM635 915l252 -655l-1 659q-31 -13 -62 -19.5t-64 -6.5q-29 0 -60 5.5t-65 16.5zM745 1239q26 -33 62 -51.5 t76 -18.5q33 0 63 13.5t51 38.5q-8 -3 -18.5 -3.5t-30.5 -0.5q-30 0 -63.5 20t-79.5 66z" />
<glyph unicode="&#xd2;" horiz-adv-x="985" d="M96 643q0 227 82.5 423t245.5 357l12 -12q-87 -98 -131.5 -287t-44.5 -462q0 -332 65.5 -496t196.5 -164h13q13 0 21 1.5t15 4.5v1229l-43 -37v-731q0 -127 -39.5 -181.5t-142.5 -74.5v23l23 6v862l-23 -8v24q56 22 110 59t115 97v151q-6 9 -10 19t-4 20q0 15 6.5 22 t20.5 7q13 0 20.5 -7.5t7.5 -21.5q0 -10 -4 -20.5t-12 -18.5v-129q19 19 40 43.5t42 51.5q116 -141 173.5 -320.5t57.5 -402.5q0 -254 -80.5 -429.5t-232.5 -252.5v-217q0 -90 -29 -130t-94 -40q-40 0 -63 19.5t-23 53.5q0 30 19 49t49 19q19 0 32 -12t13 -29t-8.5 -26 t-24.5 -9q-13 0 -21 7.5t-8 19.5q0 10 3 16t16 15h-8q-17 0 -27 -12t-10 -31q0 -28 17 -42t50 -14q50 0 71 33t21 113v204q-2 0 -9 -1q-35 -7 -52 -7q-175 0 -294.5 192t-119.5 484zM121 641q0 -223 76.5 -393t201.5 -230l4 9q-105 77 -163 248t-58 405q0 161 37 313.5 t111 296.5q-103 -130 -156 -295t-53 -354zM305 1779l118 115l334 -358h-67zM362 1785l315 -217h21l-281 267zM393 1110l1 -860q14 3 28 10t28 18l1 864q-5 -2 -15 -7q-29 -16 -43 -25zM596 16q61 46 101.5 140.5t58.5 234.5q-28 16 -52 23.5t-49 7.5q-14 0 -28.5 -1.5 t-30.5 -5.5v-399zM596 443q16 2 31.5 3.5t29.5 2.5q25 0 51 -6.5t54 -18.5q3 53 4.5 96t1.5 78q0 66 -4 122.5t-12 108.5q-24 -14 -49 -21t-56 -7q-12 0 -25 1.5t-26 3.5v-363zM596 832q13 -4 25 -5.5t28 -1.5q25 0 47.5 7.5t48.5 23.5q-17 99 -54 196.5t-95 196.5v-417z M608 1272q95 -155 140 -320.5t45 -365.5q0 -174 -30 -303.5t-91 -219.5q79 63 125.5 211t46.5 342q0 210 -49.5 386.5t-145.5 306.5z" />
<glyph unicode="&#xd3;" horiz-adv-x="985" d="M96 643q0 227 82.5 423t245.5 357l12 -12q-87 -98 -131.5 -287t-44.5 -462q0 -332 65.5 -496t196.5 -164h13q13 0 21 1.5t15 4.5v1229l-43 -37v-731q0 -127 -39.5 -181.5t-142.5 -74.5v23l23 6v862l-23 -8v24q56 22 110 59t115 97v151q-6 9 -10 19t-4 20q0 15 6.5 22 t20.5 7q13 0 20.5 -7.5t7.5 -21.5q0 -10 -4 -20.5t-12 -18.5v-129q19 19 40 43.5t42 51.5q116 -141 173.5 -320.5t57.5 -402.5q0 -254 -80.5 -429.5t-232.5 -252.5v-217q0 -90 -29 -130t-94 -40q-40 0 -63 19.5t-23 53.5q0 30 19 49t49 19q19 0 32 -12t13 -29t-8.5 -26 t-24.5 -9q-13 0 -21 7.5t-8 19.5q0 10 3 16t16 15h-8q-17 0 -27 -12t-10 -31q0 -28 17 -42t50 -14q50 0 71 33t21 113v204q-2 0 -9 -1q-35 -7 -52 -7q-175 0 -294.5 192t-119.5 484zM121 641q0 -223 76.5 -393t201.5 -230l4 9q-105 77 -163 248t-58 405q0 161 37 313.5 t111 296.5q-103 -130 -156 -295t-53 -354zM356 1536l336 358l116 -115l-385 -243h-67zM393 1110l1 -860q14 3 28 10t28 18l1 864q-5 -2 -15 -7q-29 -16 -43 -25zM415 1568h21l315 217l-55 50zM596 16q61 46 101.5 140.5t58.5 234.5q-28 16 -52 23.5t-49 7.5 q-14 0 -28.5 -1.5t-30.5 -5.5v-399zM596 443q16 2 31.5 3.5t29.5 2.5q25 0 51 -6.5t54 -18.5q3 53 4.5 96t1.5 78q0 66 -4 122.5t-12 108.5q-24 -14 -49 -21t-56 -7q-12 0 -25 1.5t-26 3.5v-363zM596 832q13 -4 25 -5.5t28 -1.5q25 0 47.5 7.5t48.5 23.5q-17 99 -54 196.5 t-95 196.5v-417zM608 1272q95 -155 140 -320.5t45 -365.5q0 -174 -30 -303.5t-91 -219.5q79 63 125.5 211t46.5 342q0 210 -49.5 386.5t-145.5 306.5z" />
<glyph unicode="&#xd4;" horiz-adv-x="985" d="M96 643q0 227 82.5 423t245.5 357l12 -12q-87 -98 -131.5 -287t-44.5 -462q0 -332 65.5 -496t196.5 -164h13q13 0 21 1.5t15 4.5v1229l-43 -37v-731q0 -127 -39.5 -181.5t-142.5 -74.5v23l23 6v862l-23 -8v24q56 22 110 59t115 97v151q-6 9 -10 19t-4 20q0 15 6.5 22 t20.5 7q13 0 20.5 -7.5t7.5 -21.5q0 -10 -4 -20.5t-12 -18.5v-129q19 19 40 43.5t42 51.5q116 -141 173.5 -320.5t57.5 -402.5q0 -254 -80.5 -429.5t-232.5 -252.5v-217q0 -90 -29 -130t-94 -40q-40 0 -63 19.5t-23 53.5q0 30 19 49t49 19q19 0 32 -12t13 -29t-8.5 -26 t-24.5 -9q-13 0 -21 7.5t-8 19.5q0 10 3 16t16 15h-8q-17 0 -27 -12t-10 -31q0 -28 17 -42t50 -14q50 0 71 33t21 113v204q-2 0 -9 -1q-35 -7 -52 -7q-175 0 -294.5 192t-119.5 484zM121 641q0 -223 76.5 -393t201.5 -230l4 9q-105 77 -163 248t-58 405q0 161 37 313.5 t111 296.5q-103 -130 -156 -295t-53 -354zM241 1536l232 348h118l232 -348h-58l-233 211l-233 -211h-58zM284 1564h17l231 226l231 -226h17l-209 285h-80zM393 1110l1 -860q14 3 28 10t28 18l1 864q-5 -2 -15 -7q-29 -16 -43 -25zM596 16q61 46 101.5 140.5t58.5 234.5 q-28 16 -52 23.5t-49 7.5q-14 0 -28.5 -1.5t-30.5 -5.5v-399zM596 443q16 2 31.5 3.5t29.5 2.5q25 0 51 -6.5t54 -18.5q3 53 4.5 96t1.5 78q0 66 -4 122.5t-12 108.5q-24 -14 -49 -21t-56 -7q-12 0 -25 1.5t-26 3.5v-363zM596 832q13 -4 25 -5.5t28 -1.5q25 0 47.5 7.5 t48.5 23.5q-17 99 -54 196.5t-95 196.5v-417zM608 1272q95 -155 140 -320.5t45 -365.5q0 -174 -30 -303.5t-91 -219.5q79 63 125.5 211t46.5 342q0 210 -49.5 386.5t-145.5 306.5z" />
<glyph unicode="&#xd5;" horiz-adv-x="985" d="M96 643q0 227 82.5 423t245.5 357l12 -12q-87 -98 -131.5 -287t-44.5 -462q0 -332 65.5 -496t196.5 -164h13q13 0 21 1.5t15 4.5v1229l-43 -37v-731q0 -127 -39.5 -181.5t-142.5 -74.5v23l23 6v862l-23 -8v24q56 22 110 59t115 97v151q-6 9 -10 19t-4 20q0 15 6.5 22 t20.5 7q13 0 20.5 -7.5t7.5 -21.5q0 -10 -4 -20.5t-12 -18.5v-129q19 19 40 43.5t42 51.5q116 -141 173.5 -320.5t57.5 -402.5q0 -254 -80.5 -429.5t-232.5 -252.5v-217q0 -90 -29 -130t-94 -40q-40 0 -63 19.5t-23 53.5q0 30 19 49t49 19q19 0 32 -12t13 -29t-8.5 -26 t-24.5 -9q-13 0 -21 7.5t-8 19.5q0 10 3 16t16 15h-8q-17 0 -27 -12t-10 -31q0 -28 17 -42t50 -14q50 0 71 33t21 113v204q-2 0 -9 -1q-35 -7 -52 -7q-175 0 -294.5 192t-119.5 484zM121 641q0 -223 76.5 -393t201.5 -230l4 9q-105 77 -163 248t-58 405q0 161 37 313.5 t111 296.5q-103 -130 -156 -295t-53 -354zM245 1577q19 106 68 159.5t129 53.5q19 0 34 -2t29 -7l110 -28q24 -6 36 -8t20 -3q37 0 58 19.5t36 66.5h54q-20 -103 -68.5 -153.5t-126.5 -50.5q-15 0 -33 2.5t-41 7.5l-109 27q-12 3 -26 4.5t-30 1.5q-33 0 -53.5 -21t-35.5 -69 h-51zM292 1640q24 29 50 42t57 13q38 0 114 -21.5t111 -21.5q52 0 88.5 28t55.5 81q-20 -24 -44.5 -34.5t-56.5 -10.5q-39 0 -115 20.5t-112 20.5q-56 0 -94 -30.5t-54 -86.5zM393 1110l1 -860q14 3 28 10t28 18l1 864q-5 -2 -15 -7q-29 -16 -43 -25zM596 16 q61 46 101.5 140.5t58.5 234.5q-28 16 -52 23.5t-49 7.5q-14 0 -28.5 -1.5t-30.5 -5.5v-399zM596 443q16 2 31.5 3.5t29.5 2.5q25 0 51 -6.5t54 -18.5q3 53 4.5 96t1.5 78q0 66 -4 122.5t-12 108.5q-24 -14 -49 -21t-56 -7q-12 0 -25 1.5t-26 3.5v-363zM596 832 q13 -4 25 -5.5t28 -1.5q25 0 47.5 7.5t48.5 23.5q-17 99 -54 196.5t-95 196.5v-417zM608 1272q95 -155 140 -320.5t45 -365.5q0 -174 -30 -303.5t-91 -219.5q79 63 125.5 211t46.5 342q0 210 -49.5 386.5t-145.5 306.5z" />
<glyph unicode="&#xd6;" horiz-adv-x="985" d="M96 643q0 227 82.5 423t245.5 357l12 -12q-87 -98 -131.5 -287t-44.5 -462q0 -332 65.5 -496t196.5 -164h13q13 0 21 1.5t15 4.5v1229l-43 -37v-731q0 -127 -39.5 -181.5t-142.5 -74.5v23l23 6v862l-23 -8v24q56 22 110 59t115 97v151q-6 9 -10 19t-4 20q0 15 6.5 22 t20.5 7q13 0 20.5 -7.5t7.5 -21.5q0 -10 -4 -20.5t-12 -18.5v-129q19 19 40 43.5t42 51.5q116 -141 173.5 -320.5t57.5 -402.5q0 -254 -80.5 -429.5t-232.5 -252.5v-217q0 -90 -29 -130t-94 -40q-40 0 -63 19.5t-23 53.5q0 30 19 49t49 19q19 0 32 -12t13 -29t-8.5 -26 t-24.5 -9q-13 0 -21 7.5t-8 19.5q0 10 3 16t16 15h-8q-17 0 -27 -12t-10 -31q0 -28 17 -42t50 -14q50 0 71 33t21 113v204q-2 0 -9 -1q-35 -7 -52 -7q-175 0 -294.5 192t-119.5 484zM121 641q0 -223 76.5 -393t201.5 -230l4 9q-105 77 -163 248t-58 405q0 161 37 313.5 t111 296.5q-103 -130 -156 -295t-53 -354zM223 1685l131 133l135 -135l-133 -131zM272 1685l84 -82l82 82l-84 82zM393 1110l1 -860q14 3 28 10t28 18l1 864q-5 -2 -15 -7q-29 -16 -43 -25zM573 1685l131 133l135 -135l-133 -131zM596 16q61 46 101.5 140.5t58.5 234.5 q-28 16 -52 23.5t-49 7.5q-14 0 -28.5 -1.5t-30.5 -5.5v-399zM596 443q16 2 31.5 3.5t29.5 2.5q25 0 51 -6.5t54 -18.5q3 53 4.5 96t1.5 78q0 66 -4 122.5t-12 108.5q-24 -14 -49 -21t-56 -7q-12 0 -25 1.5t-26 3.5v-363zM596 832q13 -4 25 -5.5t28 -1.5q25 0 47.5 7.5 t48.5 23.5q-17 99 -54 196.5t-95 196.5v-417zM608 1272q95 -155 140 -320.5t45 -365.5q0 -174 -30 -303.5t-91 -219.5q79 63 125.5 211t46.5 342q0 210 -49.5 386.5t-145.5 306.5zM624 1685l82 -82l82 82l-84 82z" />
<glyph unicode="&#xd7;" horiz-adv-x="1706" d="M309 123l488 487l-488 488l58 57l487 -487l487 487l58 -57l-488 -488l488 -487l-58 -57l-487 487l-487 -487z" />
<glyph unicode="&#xd8;" horiz-adv-x="985" d="M96 643q0 227 82.5 423t245.5 357l12 -12q-87 -98 -131.5 -287t-44.5 -462q0 -167 16 -288t50 -210l43 112v828l-23 -8v24q85 35 170 104.5t162 168.5q23 -30 41 -56t33 -51l116 299l45 -18l-129 -336q63 -118 94 -259t31 -302q0 -303 -116.5 -503t-282.5 -200 q-36 0 -81 17.5t-101 54.5l-127 -322l-47 21l133 332q-95 102 -143 247t-48 326zM121 641q0 -223 76.5 -393t201.5 -230l4 9q-105 77 -163 248t-58 405q0 161 37 313.5t111 296.5q-103 -130 -156 -295t-53 -354zM354 109q39 -58 77.5 -82.5t90.5 -24.5q91 0 147.5 94.5 t86.5 294.5q-37 16 -73 23.5t-77 7.5q-30 0 -66.5 -8t-74.5 -23zM393 340l58 152v650q-5 -2 -15 -7q-29 -16 -43 -25v-770zM473 422q40 12 75.5 18t67.5 6q34 0 69.5 -7t74.5 -21q0 6 1 19q7 115 7 163q0 47 -2 88t-6 80q-17 -4 -34.5 -6t-37.5 -2q-16 0 -36.5 2t-45.5 6z M520 678l156 405q-18 46 -39 89t-45 83q-13 -13 -29.5 -27t-42.5 -32v-518zM608 1272q95 -155 140 -320.5t45 -365.5q0 -174 -30 -303.5t-91 -219.5q79 63 125.5 211t46.5 342q0 210 -49.5 386.5t-145.5 306.5zM617 792q18 -6 34 -9t33 -3q27 0 42 2.5t29 7.5 q-8 61 -21.5 118t-31.5 110z" />
<glyph unicode="&#xd9;" horiz-adv-x="1133" d="M4 1235q0 112 82.5 186t208.5 74q139 0 209.5 -83t70.5 -247v-745q0 -107 -35 -148t-130 -59v25l16 6v377h-45q-71 0 -104 -21.5t-33 -67.5v-47h-25v58q0 129 47 180t160 51v373q0 120 -48 178.5t-145 58.5q-78 0 -137 -52.5t-59 -121.5q0 -62 36.5 -102t106.5 -55 l-4 -17q-84 17 -128 68t-44 131zM25 1256q25 71 82 112t131 41q106 0 159.5 -64.5t53.5 -191.5v-444h-33q-96 0 -136.5 -28t-43.5 -93q14 30 52 43.5t109 13.5h52v-395q15 3 29 9t28 15v879q0 153 -62.5 228t-189.5 75q-48 0 -96.5 -21.5t-81.5 -58.5q-24 -25 -37 -54.5 t-16 -65.5zM156 -150q0 144 96.5 239t243.5 95q34 0 69 -7t72 -21v1177q-9 9 -12.5 17.5t-3.5 19.5q0 17 8 30t18 13q9 0 19 -13.5t10 -29.5q0 -6 -4 -16t-10 -20v-464q29 -10 54.5 -15t47.5 -5q29 0 55 5t51 15v217l-96 103l-45 -33l-16 19l168 122q16 -15 44 -41 q71 -69 101 -69q28 0 49.5 31t40.5 100l23 -6q-18 -68 -44.5 -115.5t-66.5 -83.5v-981l29 -31l47 41l14 -16l-180 -160q-37 29 -52.5 60t-15.5 90v305q-28 10 -55 15t-49 5q-28 0 -53.5 -5t-50.5 -15v-279q27 -12 48 -25.5t40 -29.5l43 39l16 -18l-158 -142 q-70 47 -122.5 65.5t-108.5 18.5q-103 0 -169.5 -61.5t-66.5 -159.5q0 -112 77 -181.5t210 -79.5v-20q-153 11 -234 88.5t-81 212.5zM233 16l7 -4q40 31 86 47.5t94 16.5q58 0 110 -17t121 -61l49 43q-57 47 -113.5 68.5t-119.5 21.5q-75 0 -130 -27t-104 -88zM484 1779 l118 115l334 -358h-67zM541 1785l315 -217h21l-281 267zM662 444q30 11 55 16t49 5q20 0 46.5 -5t57.5 -16v404q-25 -9 -52 -14t-54 -5q-19 0 -44 4.5t-58 14.5v-404zM793 1206l102 -106v-989q0 -42 11 -67t38 -46l57 55l-43 56v997l51 41q-48 3 -89 25t-82 69z" />
<glyph unicode="&#xda;" horiz-adv-x="1133" d="M4 1235q0 112 82.5 186t208.5 74q139 0 209.5 -83t70.5 -247v-745q0 -107 -35 -148t-130 -59v25l16 6v377h-45q-71 0 -104 -21.5t-33 -67.5v-47h-25v58q0 129 47 180t160 51v373q0 120 -48 178.5t-145 58.5q-78 0 -137 -52.5t-59 -121.5q0 -62 36.5 -102t106.5 -55 l-4 -17q-84 17 -128 68t-44 131zM25 1256q25 71 82 112t131 41q106 0 159.5 -64.5t53.5 -191.5v-444h-33q-96 0 -136.5 -28t-43.5 -93q14 30 52 43.5t109 13.5h52v-395q15 3 29 9t28 15v879q0 153 -62.5 228t-189.5 75q-48 0 -96.5 -21.5t-81.5 -58.5q-24 -25 -37 -54.5 t-16 -65.5zM156 -150q0 144 96.5 239t243.5 95q34 0 69 -7t72 -21v1177q-9 9 -12.5 17.5t-3.5 19.5q0 17 8 30t18 13q9 0 19 -13.5t10 -29.5q0 -6 -4 -16t-10 -20v-464q29 -10 54.5 -15t47.5 -5q29 0 55 5t51 15v217l-96 103l-45 -33l-16 19l168 122q16 -15 44 -41 q71 -69 101 -69q28 0 49.5 31t40.5 100l23 -6q-18 -68 -44.5 -115.5t-66.5 -83.5v-981l29 -31l47 41l14 -16l-180 -160q-37 29 -52.5 60t-15.5 90v305q-28 10 -55 15t-49 5q-28 0 -53.5 -5t-50.5 -15v-279q27 -12 48 -25.5t40 -29.5l43 39l16 -18l-158 -142 q-70 47 -122.5 65.5t-108.5 18.5q-103 0 -169.5 -61.5t-66.5 -159.5q0 -112 77 -181.5t210 -79.5v-20q-153 11 -234 88.5t-81 212.5zM233 16l7 -4q40 31 86 47.5t94 16.5q58 0 110 -17t121 -61l49 43q-57 47 -113.5 68.5t-119.5 21.5q-75 0 -130 -27t-104 -88zM535 1536 l336 358l116 -115l-385 -243h-67zM594 1568h21l315 217l-55 50zM662 444q30 11 55 16t49 5q20 0 46.5 -5t57.5 -16v404q-25 -9 -52 -14t-54 -5q-19 0 -44 4.5t-58 14.5v-404zM793 1206l102 -106v-989q0 -42 11 -67t38 -46l57 55l-43 56v997l51 41q-48 3 -89 25t-82 69z" />
<glyph unicode="&#xdb;" horiz-adv-x="1133" d="M4 1235q0 112 82.5 186t208.5 74q139 0 209.5 -83t70.5 -247v-745q0 -107 -35 -148t-130 -59v25l16 6v377h-45q-71 0 -104 -21.5t-33 -67.5v-47h-25v58q0 129 47 180t160 51v373q0 120 -48 178.5t-145 58.5q-78 0 -137 -52.5t-59 -121.5q0 -62 36.5 -102t106.5 -55 l-4 -17q-84 17 -128 68t-44 131zM25 1256q25 71 82 112t131 41q106 0 159.5 -64.5t53.5 -191.5v-444h-33q-96 0 -136.5 -28t-43.5 -93q14 30 52 43.5t109 13.5h52v-395q15 3 29 9t28 15v879q0 153 -62.5 228t-189.5 75q-48 0 -96.5 -21.5t-81.5 -58.5q-24 -25 -37 -54.5 t-16 -65.5zM156 -150q0 144 96.5 239t243.5 95q34 0 69 -7t72 -21v1177q-9 9 -12.5 17.5t-3.5 19.5q0 17 8 30t18 13q9 0 19 -13.5t10 -29.5q0 -6 -4 -16t-10 -20v-464q29 -10 54.5 -15t47.5 -5q29 0 55 5t51 15v217l-96 103l-45 -33l-16 19l168 122q16 -15 44 -41 q71 -69 101 -69q28 0 49.5 31t40.5 100l23 -6q-18 -68 -44.5 -115.5t-66.5 -83.5v-981l29 -31l47 41l14 -16l-180 -160q-37 29 -52.5 60t-15.5 90v305q-28 10 -55 15t-49 5q-28 0 -53.5 -5t-50.5 -15v-279q27 -12 48 -25.5t40 -29.5l43 39l16 -18l-158 -142 q-70 47 -122.5 65.5t-108.5 18.5q-103 0 -169.5 -61.5t-66.5 -159.5q0 -112 77 -181.5t210 -79.5v-20q-153 11 -234 88.5t-81 212.5zM233 16l7 -4q40 31 86 47.5t94 16.5q58 0 110 -17t121 -61l49 43q-57 47 -113.5 68.5t-119.5 21.5q-75 0 -130 -27t-104 -88zM420 1536 l232 348h118l232 -348h-58l-233 211l-233 -211h-58zM463 1564h17l231 226l231 -226h17l-209 285h-80zM662 444q30 11 55 16t49 5q20 0 46.5 -5t57.5 -16v404q-25 -9 -52 -14t-54 -5q-19 0 -44 4.5t-58 14.5v-404zM793 1206l102 -106v-989q0 -42 11 -67t38 -46l57 55l-43 56 v997l51 41q-48 3 -89 25t-82 69z" />
<glyph unicode="&#xdc;" horiz-adv-x="1133" d="M4 1235q0 112 82.5 186t208.5 74q139 0 209.5 -83t70.5 -247v-745q0 -107 -35 -148t-130 -59v25l16 6v377h-45q-71 0 -104 -21.5t-33 -67.5v-47h-25v58q0 129 47 180t160 51v373q0 120 -48 178.5t-145 58.5q-78 0 -137 -52.5t-59 -121.5q0 -62 36.5 -102t106.5 -55 l-4 -17q-84 17 -128 68t-44 131zM25 1256q25 71 82 112t131 41q106 0 159.5 -64.5t53.5 -191.5v-444h-33q-96 0 -136.5 -28t-43.5 -93q14 30 52 43.5t109 13.5h52v-395q15 3 29 9t28 15v879q0 153 -62.5 228t-189.5 75q-48 0 -96.5 -21.5t-81.5 -58.5q-24 -25 -37 -54.5 t-16 -65.5zM156 -150q0 144 96.5 239t243.5 95q34 0 69 -7t72 -21v1177q-9 9 -12.5 17.5t-3.5 19.5q0 17 8 30t18 13q9 0 19 -13.5t10 -29.5q0 -6 -4 -16t-10 -20v-464q29 -10 54.5 -15t47.5 -5q29 0 55 5t51 15v217l-96 103l-45 -33l-16 19l168 122q16 -15 44 -41 q71 -69 101 -69q28 0 49.5 31t40.5 100l23 -6q-18 -68 -44.5 -115.5t-66.5 -83.5v-981l29 -31l47 41l14 -16l-180 -160q-37 29 -52.5 60t-15.5 90v305q-28 10 -55 15t-49 5q-28 0 -53.5 -5t-50.5 -15v-279q27 -12 48 -25.5t40 -29.5l43 39l16 -18l-158 -142 q-70 47 -122.5 65.5t-108.5 18.5q-103 0 -169.5 -61.5t-66.5 -159.5q0 -112 77 -181.5t210 -79.5v-20q-153 11 -234 88.5t-81 212.5zM233 16l7 -4q40 31 86 47.5t94 16.5q58 0 110 -17t121 -61l49 43q-57 47 -113.5 68.5t-119.5 21.5q-75 0 -130 -27t-104 -88zM402 1685 l131 133l135 -135l-133 -131zM451 1685l84 -82l82 82l-84 82zM662 444q30 11 55 16t49 5q20 0 46.5 -5t57.5 -16v404q-25 -9 -52 -14t-54 -5q-19 0 -44 4.5t-58 14.5v-404zM752 1685l131 133l135 -135l-133 -131zM793 1206l102 -106v-989q0 -42 11 -67t38 -46l57 55l-43 56 v997l51 41q-48 3 -89 25t-82 69zM803 1685l82 -82l82 82l-84 82z" />
<glyph unicode="&#xdd;" horiz-adv-x="1133" d="M4 1235q0 112 82.5 186t208.5 74q139 0 209.5 -83t70.5 -247v-991q0 -64 14.5 -102t47.5 -62v1323q-9 9 -12.5 17.5t-3.5 19.5q0 17 8 30t18 13q9 0 19 -13.5t10 -29.5q0 -6 -4 -16t-10 -20v-464q29 -10 54.5 -15t47.5 -5q29 0 55 5t51 15v217l-106 97l-45 -31l-12 20 q11 8 45.5 33t135.5 98q11 -11 27 -30q75 -86 111 -86q29 0 49.5 30t40.5 101l23 -6q-18 -68 -44.5 -115.5t-66.5 -83.5v-852q0 -146 -80 -220.5t-239 -74.5q-2 0 -2 -2q63 -4 98 -28t35 -64q0 -35 -26 -57.5t-66 -22.5q-38 0 -60 16t-22 41q0 21 14.5 35.5t36.5 14.5 q16 0 24 -6.5t9 -20.5q0 -11 -8 -19t-19 -8q-8 0 -14.5 6.5t-6.5 14.5q1 4 1.5 7.5t2.5 10.5q-10 -3 -16 -11.5t-6 -18.5q0 -21 17 -34.5t44 -13.5q33 0 52.5 17.5t19.5 44.5q0 35 -37 58.5t-96 23.5q-70 0 -114 -29t-44 -74q0 -63 185 -118q9 -3 13 -4q140 -42 191.5 -88 t51.5 -119q0 -37 -13.5 -70.5t-40.5 -60.5l-16 8q11 12 16 23t5 22q0 61 -180 116q-18 6 -28 9q-160 49 -213 95t-53 120q0 86 64.5 137t175.5 51q-134 22 -196 94.5t-62 208.5v349h-45q-71 0 -104 -21.5t-33 -67.5v-47h-25v58q0 129 47 180t160 51v373q0 120 -48 178.5 t-145 58.5q-78 0 -137 -52.5t-59 -121.5q0 -62 36.5 -102t106.5 -55l-4 -17q-84 17 -128 68t-44 131zM25 1256q25 71 82 112t131 41q106 0 159.5 -64.5t53.5 -191.5v-444h-33q-96 0 -136.5 -28t-43.5 -93q14 30 52 43.5t109 13.5h52v-344q0 -122 29.5 -186t99.5 -97 q-38 42 -55 97t-17 133v905q0 153 -62.5 228t-189.5 75q-48 0 -96.5 -21.5t-81.5 -58.5q-24 -25 -37 -54.5t-16 -65.5zM465 -203q0 -75 44.5 -117.5t197.5 -89.5q17 -5 48 -14q177 -52 177 -123q0 1 2 6q6 18 6 27q0 51 -50.5 89.5t-172.5 76.5q-7 2 -22 7q-199 61 -199 169 q0 19 5.5 37.5t16.5 38.5q-29 -24 -41 -47.5t-12 -59.5zM600 1536l336 358l116 -115l-385 -243h-67zM659 1568h21l315 217l-55 50zM662 4q12 -2 18.5 -3t11.5 -1q7 0 18.5 1t16.5 1q74 0 108.5 46t34.5 145v229q-28 10 -55 15t-49 5q-28 0 -53.5 -5t-50.5 -15v-418zM662 444 q30 11 55 16t49 5q20 0 46.5 -5t57.5 -16v404q-25 -9 -52 -14t-54 -5q-19 0 -44 4.5t-58 14.5v-404zM782 1198l113 -98v-922q0 -69 -20 -111t-62 -63q80 21 112.5 72t32.5 164v866l51 41q-48 3 -89 25t-82 69z" />
<glyph unicode="&#xde;" horiz-adv-x="1133" d="M4 1235q0 112 82.5 186t208.5 74q139 0 209.5 -83t70.5 -247v-260l62 47v381q-9 9 -12.5 17.5t-3.5 19.5q0 17 8 30t18 13q9 0 19 -13.5t10 -29.5q0 -6 -4 -16t-10 -20v-363q38 30 101 90t150 149q29 -22 71.5 -71t70.5 -49q27 0 51 38t39 107l20 -4q-13 -76 -47 -134 t-90 -100v-872h23v-25h-21q-105 0 -177 -31t-120 -98l-71 47v-303q-71 -34 -132 -75t-114 -91l-17 23l27 20v504q-100 -3 -161.5 -47.5t-61.5 -111.5q0 -41 22 -70.5t68 -48.5l-6 -21q-63 26 -93 70.5t-30 112.5q0 111 68.5 182.5t193.5 91.5v358h-45q-71 0 -104 -21 t-33 -67v-49h-25v57q0 129 47 180.5t160 51.5v383q0 120 -48 178.5t-145 58.5q-78 0 -137 -53t-59 -123q0 -60 36.5 -100t106.5 -55l-4 -17q-84 17 -128 68t-44 131zM25 1256q25 71 82 112t131 41q106 0 159.5 -64.5t53.5 -191.5v-455h-33q-96 0 -136.5 -27.5t-43.5 -92.5 q14 30 53 44.5t108 14.5h52v-451q-136 -12 -199.5 -65.5t-65.5 -154.5q19 74 85.5 113t178.5 42l1 -510q12 11 40 31q11 8 17 12v1499q0 153 -62.5 228t-189.5 75q-48 0 -96.5 -21.5t-81.5 -58.5q-24 -25 -37 -54.5t-16 -65.5zM575 -299q16 9 31.5 17t30.5 14v1188l-62 -48 v-1171zM662 47l63 -45q7 10 17 20.5t26 24.5q-27 24 -53 41.5t-53 30.5v-72zM662 205q48 -21 90.5 -49t83.5 -66l34 16v277q-28 10 -55 15t-49 5q-28 0 -53.5 -4.5t-50.5 -15.5v-178zM662 406q27 9 52.5 13.5t51.5 4.5q22 0 48.5 -4.5t55.5 -13.5v333q-26 -9 -52 -13.5 t-54 -4.5q-20 0 -45 4.5t-57 13.5v-333zM662 762q29 -11 54.5 -16t47.5 -5q29 0 55 5t51 16v260l-67 47q-14 -13 -43 -40q-68 -63 -98 -89v-178zM819 1085l76 -51v-923l63 12v872l68 56q-38 7 -74 26t-80 56z" />
<glyph unicode="&#xdf;" horiz-adv-x="606" d="M0 580v16q0 54 31 99.5t92 80.5v277h-23v22h21q68 0 141 28t160 87q58 -53 86.5 -115t28.5 -135q0 -95 -34 -163t-104 -113l2 -7l66 29q8 -9 21 -25q36 -43 59 -43q13 1 25 7t30 22l14 -18l-75 -64v-538l24 12v-25q-42 -20 -89.5 -61.5t-117.5 -120.5l-18 16l35 37v672 l-47 68l-39 -9v-489l24 -29l29 29l12 -16q-25 -24 -52.5 -52.5t-80.5 -87.5h-22q-17 30 -37.5 56.5t-44.5 50.5l-66 -55l-12 18l84 74v487q-28 0 -58.5 -5.5t-64.5 -16.5zM25 610q20 8 49 12.5t73 6.5l-2 -527l-10 -10q24 -25 42 -48.5t34 -49.5l47 51l-45 51v968 q-18 -4 -34 -7t-31 -4l-1 -359q-48 -4 -80.5 -26t-41.5 -58zM289 641q74 12 118 57.5t44 110.5q0 64 -43 140.5t-117 142.5zM319 1102q80 -88 118 -159.5t38 -133.5q0 -16 -3.5 -33.5t-12.5 -40.5q20 28 30.5 62t10.5 75q0 66 -33.5 136.5t-89.5 121.5zM350 633l47 -70v-653 q15 16 33.5 34.5t34.5 33.5v565l42 37q-29 7 -56 24t-56 47z" />
<glyph unicode="&#xe0;" horiz-adv-x="598" d="M0 41l84 74v321h-18v19h20q56 0 99.5 8t76.5 24q-17 26 -55 59t-154 116v20l127 96q15 -15 37 -41q40 -48 63 -51l115 92q24 -20 57 -58t54 -38q12 0 25 6.5t31 21.5l13 -18l-75 -63v-496l26 -35l43 37l15 -16q-40 -34 -77 -70.5t-73 -77.5h-20q-37 28 -52.5 62t-15.5 96 v485l-61 48l-97 -72q70 -56 98.5 -98.5t28.5 -88.5q0 -33 -4 -46t-14 -13q-5 0 -8.5 4t-3.5 8q0 6 5 23.5t5 30.5t-5 27.5t-18 33.5l-22 -12v-332l24 -29l29 29l12 -16q-24 -24 -52 -52.5t-81 -87.5h-22q-17 30 -37.5 56.5t-44.5 50.5l-66 -55zM72 1081l118 115l334 -358 h-67zM76 674l96 -70l67 47q-34 5 -63.5 18t-56.5 36zM96 92q24 -25 42 -48.5t34 -49.5l47 51l-45 51v342l-68 -2v-334zM129 1087l315 -217h21l-281 267zM303 676l66 -49v-512q0 -42 12 -70t39 -49l55 53l-49 60v489l43 45h-6q-29 0 -57 15t-62 49z" />
<glyph unicode="&#xe1;" horiz-adv-x="598" d="M0 41l84 74v321h-18v19h20q56 0 99.5 8t76.5 24q-17 26 -55 59t-154 116v20l127 96q15 -15 37 -41q40 -48 63 -51l115 92q24 -20 57 -58t54 -38q12 0 25 6.5t31 21.5l13 -18l-75 -63v-496l26 -35l43 37l15 -16q-40 -34 -77 -70.5t-73 -77.5h-20q-37 28 -52.5 62t-15.5 96 v485l-61 48l-97 -72q70 -56 98.5 -98.5t28.5 -88.5q0 -33 -4 -46t-14 -13q-5 0 -8.5 4t-3.5 8q0 6 5 23.5t5 30.5t-5 27.5t-18 33.5l-22 -12v-332l24 -29l29 29l12 -16q-24 -24 -52 -52.5t-81 -87.5h-22q-17 30 -37.5 56.5t-44.5 50.5l-66 -55zM76 674l96 -70l67 47 q-34 5 -63.5 18t-56.5 36zM96 92q24 -25 42 -48.5t34 -49.5l47 51l-45 51v342l-68 -2v-334zM123 838l336 358l116 -115l-385 -243h-67zM182 870h21l315 217l-55 50zM303 676l66 -49v-512q0 -42 12 -70t39 -49l55 53l-49 60v489l43 45h-6q-29 0 -57 15t-62 49z" />
<glyph unicode="&#xe2;" horiz-adv-x="598" d="M0 41l84 74v321h-18v19h20q56 0 99.5 8t76.5 24q-17 26 -55 59t-154 116v20l127 96q15 -15 37 -41q40 -48 63 -51l115 92q24 -20 57 -58t54 -38q12 0 25 6.5t31 21.5l13 -18l-75 -63v-496l26 -35l43 37l15 -16q-40 -34 -77 -70.5t-73 -77.5h-20q-37 28 -52.5 62t-15.5 96 v485l-61 48l-97 -72q70 -56 98.5 -98.5t28.5 -88.5q0 -33 -4 -46t-14 -13q-5 0 -8.5 4t-3.5 8q0 6 5 23.5t5 30.5t-5 27.5t-18 33.5l-22 -12v-332l24 -29l29 29l12 -16q-24 -24 -52 -52.5t-81 -87.5h-22q-17 30 -37.5 56.5t-44.5 50.5l-66 -55zM8 838l232 348h118l232 -348 h-58l-233 211l-233 -211h-58zM51 866h17l231 226l231 -226h17l-209 285h-80zM76 674l96 -70l67 47q-34 5 -63.5 18t-56.5 36zM96 92q24 -25 42 -48.5t34 -49.5l47 51l-45 51v342l-68 -2v-334zM303 676l66 -49v-512q0 -42 12 -70t39 -49l55 53l-49 60v489l43 45h-6 q-29 0 -57 15t-62 49z" />
<glyph unicode="&#xe3;" horiz-adv-x="598" d="M0 41l84 74v321h-18v19h20q56 0 99.5 8t76.5 24q-17 26 -55 59t-154 116v20l127 96q15 -15 37 -41q40 -48 63 -51l115 92q24 -20 57 -58t54 -38q12 0 25 6.5t31 21.5l13 -18l-75 -63v-496l26 -35l43 37l15 -16q-40 -34 -77 -70.5t-73 -77.5h-20q-37 28 -52.5 62t-15.5 96 v485l-61 48l-97 -72q70 -56 98.5 -98.5t28.5 -88.5q0 -33 -4 -46t-14 -13q-5 0 -8.5 4t-3.5 8q0 6 5 23.5t5 30.5t-5 27.5t-18 33.5l-22 -12v-332l24 -29l29 29l12 -16q-24 -24 -52 -52.5t-81 -87.5h-22q-17 30 -37.5 56.5t-44.5 50.5l-66 -55zM12 879q19 106 68 159.5 t129 53.5q19 0 34 -2t29 -7l110 -28q24 -6 36 -8t20 -3q37 0 58 19.5t36 66.5h54q-20 -103 -68.5 -153.5t-126.5 -50.5q-15 0 -33 2.5t-41 7.5l-109 27q-12 3 -26 4.5t-30 1.5q-33 0 -53.5 -21t-35.5 -69h-51zM59 942q24 29 50 42t57 13q38 0 114 -21.5t111 -21.5 q52 0 88.5 28t55.5 81q-20 -24 -44.5 -34.5t-56.5 -10.5q-39 0 -115 20.5t-112 20.5q-56 0 -94 -30.5t-54 -86.5zM76 674l96 -70l67 47q-34 5 -63.5 18t-56.5 36zM96 92q24 -25 42 -48.5t34 -49.5l47 51l-45 51v342l-68 -2v-334zM303 676l66 -49v-512q0 -42 12 -70t39 -49 l55 53l-49 60v489l43 45h-6q-29 0 -57 15t-62 49z" />
<glyph unicode="&#xe4;" horiz-adv-x="598" d="M-10 987l131 133l135 -135l-133 -131zM0 41l84 74v321h-18v19h20q56 0 99.5 8t76.5 24q-17 26 -55 59t-154 116v20l127 96q15 -15 37 -41q40 -48 63 -51l115 92q24 -20 57 -58t54 -38q12 0 25 6.5t31 21.5l13 -18l-75 -63v-496l26 -35l43 37l15 -16q-40 -34 -77 -70.5 t-73 -77.5h-20q-37 28 -52.5 62t-15.5 96v485l-61 48l-97 -72q70 -56 98.5 -98.5t28.5 -88.5q0 -33 -4 -46t-14 -13q-5 0 -8.5 4t-3.5 8q0 6 5 23.5t5 30.5t-5 27.5t-18 33.5l-22 -12v-332l24 -29l29 29l12 -16q-24 -24 -52 -52.5t-81 -87.5h-22q-17 30 -37.5 56.5 t-44.5 50.5l-66 -55zM39 987l84 -82l82 82l-84 82zM76 674l96 -70l67 47q-34 5 -63.5 18t-56.5 36zM96 92q24 -25 42 -48.5t34 -49.5l47 51l-45 51v342l-68 -2v-334zM303 676l66 -49v-512q0 -42 12 -70t39 -49l55 53l-49 60v489l43 45h-6q-29 0 -57 15t-62 49zM340 987 l131 133l135 -135l-133 -131zM391 987l82 -82l82 82l-84 82z" />
<glyph unicode="&#xe5;" horiz-adv-x="598" d="M0 41l84 74v321h-18v19h20q56 0 99.5 8t76.5 24q-17 26 -55 59t-154 116v20l127 96q15 -15 37 -41q40 -48 63 -51l115 92q24 -20 57 -58t54 -38q12 0 25 6.5t31 21.5l13 -18l-75 -63v-496l26 -35l43 37l15 -16q-40 -34 -77 -70.5t-73 -77.5h-20q-37 28 -52.5 62t-15.5 96 v485l-61 48l-97 -72q70 -56 98.5 -98.5t28.5 -88.5q0 -33 -4 -46t-14 -13q-5 0 -8.5 4t-3.5 8q0 6 5 23.5t5 30.5t-5 27.5t-18 33.5l-22 -12v-332l24 -29l29 29l12 -16q-24 -24 -52 -52.5t-81 -87.5h-22q-17 30 -37.5 56.5t-44.5 50.5l-66 -55zM76 674l100 -70l63 47 q-34 5 -63.5 18t-56.5 36zM96 92q25 -26 42.5 -50t31.5 -48l49 51l-45 51v342l-68 -2v-334zM117 1034q0 84 57 142.5t139 58.5q84 0 142.5 -58.5t58.5 -142.5q0 -83 -58 -139.5t-143 -56.5q-83 0 -139.5 56.5t-56.5 139.5zM172 1036q0 -59 42 -101t101 -42q60 0 102 41.5 t42 101.5q0 57 -43.5 100.5t-100.5 43.5q-58 0 -100.5 -42.5t-42.5 -101.5zM303 676l66 -49v-512q0 -42 12 -70t39 -49l55 53l-49 60v489l43 45h-6q-29 0 -57 15t-62 49z" />
<glyph unicode="&#xe6;" horiz-adv-x="754" d="M0 41l84 74v321h-18v19h20q56 0 99.5 8t76.5 24q-17 26 -55 59t-154 116v20l127 96q15 -15 37 -41q40 -48 63 -51l115 92l3 -3q53 -57 79 -81q29 10 61 30.5t72 53.5l168 -233q-71 -57 -139 -116.5t-133 -123.5v-137l99 -77q6 5 20 16q45 37 69 53l13 -17 q-54 -41 -106.5 -84t-102.5 -88h-19l-157 123q-30 -23 -64 -53t-76 -70h-22q-17 30 -37.5 56.5t-44.5 50.5l-66 -55zM76 674l100 -70l63 47q-34 5 -63.5 18t-56.5 36zM96 92q24 -25 42 -48.5t34 -49.5l49 45l-47 57v342l-68 -2v-334zM188 590q70 -56 98.5 -98.5t28.5 -88.5 q0 -33 -4 -46t-14 -13q-5 0 -8.5 4t-3.5 8q0 6 5 23.5t5 30.5t-5 27.5t-18 33.5l-22 -12v-332l31 -37l65 53v471l-61 48zM303 676l64 -49v-496l-27 -25l147 -114l58 49l-117 94v518q-28 0 -75 45l-8 8zM494 678l159 -203l52 45l-140 195q-17 -12 -33.5 -20.5t-37.5 -16.5z M506 338q27 26 92 85l37 34l-129 170v-289z" />
<glyph unicode="&#xe7;" horiz-adv-x="494" d="M-58 -336l17 37q65 -39 120 -57.5t107 -18.5q55 0 89 28.5t34 74.5q0 42 -30.5 66t-84.5 24q-17 0 -27 -0.5t-20 -1.5v49q37 8 69 12t62 4q80 0 124 -37.5t44 -103.5q0 -79 -60 -126.5t-161 -47.5q-70 0 -145 26t-138 72zM-4 63l86 76v504h-14v25h16q70 0 136.5 27.5 t129.5 82.5q7 -7 19 -21q63 -71 86 -71q18 0 32 22t23 66l22 -6q-20 -95 -69.5 -151t-112.5 -56q-29 0 -55.5 12.5t-50.5 36.5v-442l101 -77l20 16q45 37 69 53l12 -17q-51 -39 -104 -82.5t-104 -89.5h-21l-156 123l-53 -47zM80 106l147 -114l58 49l-117 94v518 q-17 -3 -32.5 -4.5t-29.5 -1.5v-516zM207 -403q5 0 14 -1.5t14 -1.5q82 0 130 38t48 102q0 53 -36.5 83.5t-100.5 30.5q-15 0 -23 -0.5t-13 -1.5q50 -15 76 -46.5t26 -75.5q0 -54 -36 -87.5t-99 -39.5zM238 678q14 -43 44 -67.5t66 -24.5q30 0 56.5 14.5t41.5 38.5 q-11 -6 -18.5 -8t-13.5 -2q-35 0 -63.5 19t-55.5 61q-15 -10 -29 -17.5t-28 -13.5z" />
<glyph unicode="&#xe8;" horiz-adv-x="494" d="M-4 63l86 76v504h-14v25h16q70 0 136.5 27.5t129.5 82.5l166 -233q-71 -57 -139 -116.5t-133 -123.5v-137l101 -77l20 16q45 37 69 53l12 -17q-51 -39 -104 -82.5t-104 -89.5h-21l-156 123l-53 -47zM29 1081l118 115l334 -358h-67zM80 106l147 -114l58 49l-117 94v518 q-17 -3 -32.5 -4.5t-29.5 -1.5v-516zM86 1087l315 -217h21l-281 267zM231 678l160 -203l53 45l-139 195q-13 -10 -29.5 -18.5t-44.5 -18.5zM244 338q31 29 63.5 58t67.5 61l-131 170v-289z" />
<glyph unicode="&#xe9;" horiz-adv-x="494" d="M-4 63l86 76v504h-14v25h16q70 0 136.5 27.5t129.5 82.5l166 -233q-71 -57 -139 -116.5t-133 -123.5v-137l101 -77l20 16q45 37 69 53l12 -17q-51 -39 -104 -82.5t-104 -89.5h-21l-156 123l-53 -47zM80 106l147 -114l58 49l-117 94v518q-17 -3 -32.5 -4.5t-29.5 -1.5 v-516zM80 838l336 358l116 -115l-385 -243h-67zM139 870h21l315 217l-55 50zM231 678l160 -203l53 45l-139 195q-13 -10 -29.5 -18.5t-44.5 -18.5zM244 338q31 29 63.5 58t67.5 61l-131 170v-289z" />
<glyph unicode="&#xea;" horiz-adv-x="494" d="M-35 838l232 348h118l232 -348h-58l-233 211l-233 -211h-58zM-4 63l86 76v504h-14v25h16q70 0 136.5 27.5t129.5 82.5l166 -233q-71 -57 -139 -116.5t-133 -123.5v-137l101 -77l20 16q45 37 69 53l12 -17q-51 -39 -104 -82.5t-104 -89.5h-21l-156 123l-53 -47zM8 866h17 l231 226l231 -226h17l-209 285h-80zM80 106l147 -114l58 49l-117 94v518q-17 -3 -32.5 -4.5t-29.5 -1.5v-516zM231 678l160 -203l53 45l-139 195q-13 -10 -29.5 -18.5t-44.5 -18.5zM244 338q31 29 63.5 58t67.5 61l-131 170v-289z" />
<glyph unicode="&#xeb;" horiz-adv-x="494" d="M-53 987l131 133l135 -135l-133 -131zM-4 63l86 76v504h-14v25h16q70 0 136.5 27.5t129.5 82.5l166 -233q-71 -57 -139 -116.5t-133 -123.5v-137l101 -77l20 16q45 37 69 53l12 -17q-51 -39 -104 -82.5t-104 -89.5h-21l-156 123l-53 -47zM-4 987l84 -82l82 82l-84 82z M80 106l147 -114l58 49l-117 94v518q-17 -3 -32.5 -4.5t-29.5 -1.5v-516zM231 678l160 -203l53 45l-139 195q-13 -10 -29.5 -18.5t-44.5 -18.5zM244 338q31 29 63.5 58t67.5 61l-131 170v-289zM297 987l131 133l135 -135l-133 -131zM348 987l82 -82l82 82l-84 82z" />
<glyph unicode="&#xec;" horiz-adv-x="371" d="M-49 1081l118 115l334 -358h-67zM8 633l156 145q25 -18 56 -57t54 -39q12 0 25 6.5t30 21.5l15 -18l-74 -63v-502l25 -31l31 31l12 -18q-40 -37 -73 -71t-62 -67h-23q-17 30 -37 56.5t-45 50.5l-65 -55l-13 18l84 74v489l-41 47l-40 -35zM8 1087l315 -217h21l-281 267z M82 668l45 -54v-512l-10 -10q24 -26 42 -49.5t34 -48.5l47 51l-45 51v510l36 33q-32 9 -59 25.5t-49 42.5z" />
<glyph unicode="&#xed;" horiz-adv-x="371" d="M2 838l336 358l116 -115l-385 -243h-67zM8 633l156 145q25 -18 56 -57t54 -39q12 0 25 6.5t30 21.5l15 -18l-74 -63v-502l25 -31l31 31l12 -18q-40 -37 -73 -71t-62 -67h-23q-17 30 -37 56.5t-45 50.5l-65 -55l-13 18l84 74v489l-41 47l-40 -35zM61 870h21l315 217 l-55 50zM82 668l45 -54v-512l-10 -10q24 -26 42 -49.5t34 -48.5l47 51l-45 51v510l36 33q-32 9 -59 25.5t-49 42.5z" />
<glyph unicode="&#xee;" horiz-adv-x="371" d="M-113 838l232 348h118l232 -348h-58l-233 211l-233 -211h-58zM-70 866h17l231 226l231 -226h17l-209 285h-80zM8 633l156 145q25 -18 56 -57t54 -39q12 0 25 6.5t30 21.5l15 -18l-74 -63v-502l25 -31l31 31l12 -18q-40 -37 -73 -71t-62 -67h-23q-17 30 -37 56.5t-45 50.5 l-65 -55l-13 18l84 74v489l-41 47l-40 -35zM82 668l45 -54v-512l-10 -10q24 -26 42 -49.5t34 -48.5l47 51l-45 51v510l36 33q-32 9 -59 25.5t-49 42.5z" />
<glyph unicode="&#xef;" horiz-adv-x="371" d="M-131 987l131 133l135 -135l-133 -131zM-82 987l84 -82l82 82l-84 82zM8 633l156 145q25 -18 56 -57t54 -39q12 0 25 6.5t30 21.5l15 -18l-74 -63v-502l25 -31l31 31l12 -18q-40 -37 -73 -71t-62 -67h-23q-17 30 -37 56.5t-45 50.5l-65 -55l-13 18l84 74v489l-41 47 l-40 -35zM82 668l45 -54v-512l-10 -10q24 -26 42 -49.5t34 -48.5l47 51l-45 51v510l36 33q-32 9 -59 25.5t-49 42.5zM219 987l131 133l135 -135l-133 -131zM270 987l82 -82l82 82l-84 82z" />
<glyph unicode="&#xf0;" horiz-adv-x="635" d="M6 727l166 90q-16 19 -23.5 40.5t-7.5 53.5q0 31 18.5 62t84.5 96l16 -14q-11 -10 -23 -23t-26 -31l104 -110l189 100l18 -35l-178 -94l188 -192l56 41l14 -19l-76 -63v-508h17v-25h-19q-86 0 -161.5 -29.5t-155.5 -95.5h-14q-17 25 -38.5 50.5t-58.5 62.5l-51 -45 l-14 14l84 78v502h-19v24h43q51 0 86 8t66 25l-94 94l-172 -92zM117 100q17 -20 38.5 -45t49.5 -59l65 47l-71 68l-1 524q-10 -1 -22.5 -1.5t-38.5 -0.5v-512zM162 913q0 -31 17.5 -62.5t60.5 -74.5l149 -147v-529l3 1q34 10 59 14v491l20 21l-162 164q-77 76 -101 112.5 t-26 66.5q-11 -14 -15.5 -27t-4.5 -30zM274 129l58 -53l33 16v529l-56 51l-35 -13v-530z" />
<glyph unicode="&#xf1;" horiz-adv-x="616" d="M20 41l84 74v518l-18 20l-43 -41l-16 19l141 147q46 -13 69.5 -42t29.5 -78l149 120q25 -18 56 -57t54 -39q12 0 25 6.5t30 21.5l17 -18l-76 -63v-496l27 -35l41 37l14 -16q-39 -34 -76.5 -70.5t-72.5 -77.5h-21q-37 28 -52 62t-15 96v481l-52 54l-45 -35v-502l25 -31 l31 31l12 -18q-40 -37 -73 -71t-62 -67h-23q-17 30 -37 56.5t-45 50.5l-65 -55zM26 879q19 106 68 159.5t129 53.5q19 0 34 -2t29 -7l110 -28q24 -6 36 -8t20 -3q37 0 58 19.5t36 66.5h54q-20 -103 -68.5 -153.5t-126.5 -50.5q-15 0 -33 2.5t-41 7.5l-109 27q-12 3 -26 4.5 t-30 1.5q-33 0 -53.5 -21t-35.5 -69h-51zM73 942q24 29 50 42t57 13q38 0 114 -21.5t111 -21.5q52 0 88.5 28t55.5 81q-20 -24 -44.5 -34.5t-56.5 -10.5q-39 0 -115 20.5t-112 20.5q-56 0 -94 -30.5t-54 -86.5zM98 666l29 -27v-537l-10 -10q24 -26 42 -49.5t34 -48.5l47 51 l-45 51v496q0 58 -10 82t-35 41zM332 676l59 -62v-499q0 -42 12 -70t39 -49l56 53l-52 60v497l39 33q-31 9 -58 25.5t-54 44.5z" />
<glyph unicode="&#xf2;" horiz-adv-x="606" d="M16 53l84 78v502h-18v24h43q74 0 135 26t143 95q27 -17 60 -56.5t55 -39.5q12 0 25 6.5t31 21.5l14 -18l-76 -63v-508h16v-25h-14q-88 0 -164.5 -29.5t-156.5 -95.5h-15q-18 28 -40 54.5t-54 58.5l-53 -45zM76 1081l118 115l334 -358h-67zM102 100q18 -20 39.5 -45 t48.5 -59l66 47l-72 68v522h-61v-512zM133 1087l315 -217h21l-281 267zM262 129l55 -53l33 16v529l-55 51l-33 -15v-528zM313 684l62 -55v-529l3 1q33 10 58 14v491l43 39q-32 8 -60 25t-54 45z" />
<glyph unicode="&#xf3;" horiz-adv-x="606" d="M16 53l84 78v502h-18v24h43q74 0 135 26t143 95q27 -17 60 -56.5t55 -39.5q12 0 25 6.5t31 21.5l14 -18l-76 -63v-508h16v-25h-14q-88 0 -164.5 -29.5t-156.5 -95.5h-15q-18 28 -40 54.5t-54 58.5l-53 -45zM102 100q18 -20 39.5 -45t48.5 -59l66 47l-72 68v522h-61v-512z M127 838l336 358l116 -115l-385 -243h-67zM186 870h21l315 217l-55 50zM262 129l55 -53l33 16v529l-55 51l-33 -15v-528zM313 684l62 -55v-529l3 1q33 10 58 14v491l43 39q-32 8 -60 25t-54 45z" />
<glyph unicode="&#xf4;" horiz-adv-x="606" d="M12 838l232 348h118l232 -348h-58l-233 211l-233 -211h-58zM16 53l84 78v502h-18v24h43q74 0 135 26t143 95q27 -17 60 -56.5t55 -39.5q12 0 25 6.5t31 21.5l14 -18l-76 -63v-508h16v-25h-14q-88 0 -164.5 -29.5t-156.5 -95.5h-15q-18 28 -40 54.5t-54 58.5l-53 -45z M55 866h17l231 226l231 -226h17l-209 285h-80zM102 100q18 -20 39.5 -45t48.5 -59l66 47l-72 68v522h-61v-512zM262 129l55 -53l33 16v529l-55 51l-33 -15v-528zM313 684l62 -55v-529l3 1q33 10 58 14v491l43 39q-32 8 -60 25t-54 45z" />
<glyph unicode="&#xf5;" horiz-adv-x="606" d="M16 53l84 78v502h-18v24h43q74 0 135 26t143 95q27 -17 60 -56.5t55 -39.5q12 0 25 6.5t31 21.5l14 -18l-76 -63v-508h16v-25h-14q-88 0 -164.5 -29.5t-156.5 -95.5h-15q-18 28 -40 54.5t-54 58.5l-53 -45zM16 879q19 106 68 159.5t129 53.5q19 0 34 -2t29 -7l110 -28 q24 -6 36 -8t20 -3q37 0 58 19.5t36 66.5h54q-20 -103 -68.5 -153.5t-126.5 -50.5q-15 0 -33 2.5t-41 7.5l-109 27q-12 3 -26 4.5t-30 1.5q-33 0 -53.5 -21t-35.5 -69h-51zM63 942q24 29 50 42t57 13q38 0 114 -21.5t111 -21.5q52 0 88.5 28t55.5 81q-20 -24 -44.5 -34.5 t-56.5 -10.5q-39 0 -115 20.5t-112 20.5q-56 0 -94 -30.5t-54 -86.5zM102 100q18 -20 39.5 -45t48.5 -59l66 47l-72 68v522h-61v-512zM262 129l55 -53l33 16v529l-55 51l-33 -15v-528zM313 684l62 -55v-529l3 1q33 10 58 14v491l43 39q-32 8 -60 25t-54 45z" />
<glyph unicode="&#xf6;" horiz-adv-x="606" d="M-6 987l131 133l135 -135l-133 -131zM16 53l84 78v502h-18v24h43q74 0 135 26t143 95q27 -17 60 -56.5t55 -39.5q12 0 25 6.5t31 21.5l14 -18l-76 -63v-508h16v-25h-14q-88 0 -164.5 -29.5t-156.5 -95.5h-15q-18 28 -40 54.5t-54 58.5l-53 -45zM43 987l84 -82l82 82 l-84 82zM102 100q18 -20 39.5 -45t48.5 -59l66 47l-72 68v522h-61v-512zM262 129l55 -53l33 16v529l-55 51l-33 -15v-528zM313 684l62 -55v-529l3 1q33 10 58 14v491l43 39q-32 8 -60 25t-54 45zM344 987l131 133l135 -135l-133 -131zM395 987l82 -82l82 82l-84 82z" />
<glyph unicode="&#xf7;" horiz-adv-x="1706" d="M254 569v82h1198v-82h-1198zM756 264q0 41 29 71t69 30q41 0 69.5 -29.5t28.5 -71.5q0 -40 -28.5 -69t-69.5 -29t-69.5 28.5t-28.5 69.5zM756 956q0 41 28.5 70t69.5 29t69.5 -28.5t28.5 -70.5q0 -40 -28.5 -70t-69.5 -30t-69.5 29.5t-28.5 70.5z" />
<glyph unicode="&#xf8;" horiz-adv-x="606" d="M16 53l84 78v502h-18v24h43q74 0 135 26t143 95l48 -47l94 199l26 -10l-100 -213q13 -13 24 -19t23 -6t25 6.5t31 21.5l14 -18l-76 -63v-508h16v-25h-14q-88 0 -164.5 -29.5t-156.5 -95.5h-15l-31 43l-92 -198l-22 12l94 207l-43 49l-53 -45zM102 100q18 -20 39.5 -45 t48.5 -59l66 47l-72 68v522h-61v-512zM262 129l55 -53l33 16v379l-88 -238v-104zM262 299l88 238v84l-55 51l-33 -15v-358zM313 684l62 -55v-529l3 1q33 10 58 14v491l43 39q-32 8 -60 25t-54 45z" />
<glyph unicode="&#xf9;" horiz-adv-x="616" d="M20 41l84 74v518l-18 20l-43 -41l-16 19l141 147q54 -15 78 -52.5t24 -104.5v-494l39 -39q13 9 41 25q10 6 17 10v487l-52 54l-14 -9l-14 19l129 104q25 -18 56 -57t54 -39q12 0 25 6.5t30 21.5l17 -18l-76 -63v-496l27 -35l41 37l14 -16q-39 -34 -76.5 -70.5 t-72.5 -77.5h-21q-31 23 -47.5 52.5t-20.5 70.5q-37 -17 -78 -48t-85 -75h-23q-17 30 -37 56.5t-45 50.5l-65 -55zM82 1081l118 115l334 -358h-67zM98 666l29 -27v-537l-10 -10q24 -26 42 -49.5t34 -48.5l53 47l-51 55v496q0 58 -10 82t-35 41zM139 1087l315 -217h21 l-281 267zM330 676l61 -62v-499q0 -42 12 -70t39 -49l56 53l-52 60v497l39 33q-31 9 -58 25.5t-54 44.5z" />
<glyph unicode="&#xfa;" horiz-adv-x="616" d="M20 41l84 74v518l-18 20l-43 -41l-16 19l141 147q54 -15 78 -52.5t24 -104.5v-494l39 -39q13 9 41 25q10 6 17 10v487l-52 54l-14 -9l-14 19l129 104q25 -18 56 -57t54 -39q12 0 25 6.5t30 21.5l17 -18l-76 -63v-496l27 -35l41 37l14 -16q-39 -34 -76.5 -70.5 t-72.5 -77.5h-21q-31 23 -47.5 52.5t-20.5 70.5q-37 -17 -78 -48t-85 -75h-23q-17 30 -37 56.5t-45 50.5l-65 -55zM98 666l29 -27v-537l-10 -10q24 -26 42 -49.5t34 -48.5l53 47l-51 55v496q0 58 -10 82t-35 41zM133 838l336 358l116 -115l-385 -243h-67zM192 870h21 l315 217l-55 50zM330 676l61 -62v-499q0 -42 12 -70t39 -49l56 53l-52 60v497l39 33q-31 9 -58 25.5t-54 44.5z" />
<glyph unicode="&#xfb;" horiz-adv-x="616" d="M18 838l232 348h118l232 -348h-58l-233 211l-233 -211h-58zM20 41l84 74v518l-18 20l-43 -41l-16 19l141 147q54 -15 78 -52.5t24 -104.5v-494l39 -39q13 9 41 25q10 6 17 10v487l-52 54l-14 -9l-14 19l129 104q25 -18 56 -57t54 -39q12 0 25 6.5t30 21.5l17 -18l-76 -63 v-496l27 -35l41 37l14 -16q-39 -34 -76.5 -70.5t-72.5 -77.5h-21q-31 23 -47.5 52.5t-20.5 70.5q-37 -17 -78 -48t-85 -75h-23q-17 30 -37 56.5t-45 50.5l-65 -55zM61 866h17l231 226l231 -226h17l-209 285h-80zM98 666l29 -27v-537l-10 -10q24 -26 42 -49.5t34 -48.5l53 47 l-51 55v496q0 58 -10 82t-35 41zM330 676l61 -62v-499q0 -42 12 -70t39 -49l56 53l-52 60v497l39 33q-31 9 -58 25.5t-54 44.5z" />
<glyph unicode="&#xfc;" horiz-adv-x="616" d="M0 987l131 133l135 -135l-133 -131zM20 41l84 74v518l-18 20l-43 -41l-16 19l141 147q54 -15 78 -52.5t24 -104.5v-494l39 -39q13 9 41 25q10 6 17 10v487l-52 54l-14 -9l-14 19l129 104q25 -18 56 -57t54 -39q12 0 25 6.5t30 21.5l17 -18l-76 -63v-496l27 -35l41 37 l14 -16q-39 -34 -76.5 -70.5t-72.5 -77.5h-21q-31 23 -47.5 52.5t-20.5 70.5q-37 -17 -78 -48t-85 -75h-23q-17 30 -37 56.5t-45 50.5l-65 -55zM49 987l84 -82l82 82l-84 82zM98 666l29 -27v-537l-10 -10q24 -26 42 -49.5t34 -48.5l53 47l-51 55v496q0 58 -10 82t-35 41z M330 676l61 -62v-499q0 -42 12 -70t39 -49l56 53l-52 60v497l39 33q-31 9 -58 25.5t-54 44.5zM350 987l131 133l135 -135l-133 -131zM401 987l82 -82l82 82l-84 82z" />
<glyph unicode="&#xfd;" horiz-adv-x="612" d="M20 43l84 72v518l-18 20l-43 -41l-16 19l141 147q54 -15 78 -52.5t24 -104.5v-494l56 -51l41 8v526l-52 54l-14 -9l-14 19l129 104q25 -18 56 -57t54 -39q12 0 25 6t33 23l14 -19l-76 -63v-535h15v-24h-80q-117 0 -199 -53t-82 -121q0 -72 162 -121q6 -2 8 -2 q143 -42 189.5 -86.5t46.5 -118.5q0 -40 -15 -77.5t-43 -70.5l-18 13q22 32 28.5 47.5t6.5 27.5q0 25 -26.5 41.5t-121.5 42.5q-172 50 -222 97t-50 127q0 49 18 96.5t51 87.5l-92 78l-65 -55zM98 666l29 -27v-537l-10 -10l87 -77q13 5 32 16t24 14l-65 51v496q0 58 -10 82 t-35 41zM131 838l336 358l116 -115l-385 -243h-67zM154 -205q7 -56 36.5 -88.5t100.5 -58.5q42 -16 118 -35q121 -31 140 -69q2 11 3 17.5t1 10.5q0 60 -184 109q-39 10 -60 16q-65 19 -102.5 43t-52.5 55zM190 870h21l315 217l-55 50zM330 676l61 -62v-524l55 4v512l39 33 q-31 9 -58 25.5t-54 44.5z" />
<glyph unicode="&#xfe;" horiz-adv-x="616" d="M-28 -12q3 73 39.5 126.5t103.5 84.5v856l-19 -8l-6 20q58 25 110 69t101 109l16 -12q-10 -17 -19.5 -31t-16.5 -24v-521q28 19 62 49t77 72q26 -19 57.5 -60.5t54.5 -41.5q13 0 25.5 6.5t29.5 21.5l17 -18l-76 -63v-502l25 2v-25h-8q-67 0 -123.5 -23.5t-110.5 -74.5 l-30 16v-307l24 12v-24q-42 -20 -89.5 -62t-117.5 -120l-18 16l35 37l-1 483q-29 -3 -63.5 -18.5t-78.5 -44.5zM4 31q31 19 64 29t69 11v-478q16 17 33 34t35 34v402q33 -7 57 -15.5t45 -20.5l43 39q-44 30 -78 46t-67 23v973q-26 -20 -41 -29.5t-27 -15.5v-928 q-49 -11 -80 -35.5t-53 -68.5zM281 190q25 -10 74 -36q11 -6 15 -8l1 468l-49 45l-41 -26v-443zM340 674l55 -53v-492l35 -25l27 7v497l43 27q-37 10 -66.5 28.5t-52.5 45.5z" />
<glyph unicode="&#xff;" horiz-adv-x="612" d="M-2 987l131 133l135 -135l-133 -131zM20 43l84 72v518l-18 20l-43 -41l-16 19l141 147q54 -15 78 -52.5t24 -104.5v-494l56 -51l41 8v526l-52 54l-14 -9l-14 19l129 104q25 -18 56 -57t54 -39q12 0 25 6t33 23l14 -19l-76 -63v-535h15v-24h-80q-117 0 -199 -53t-82 -121 q0 -72 162 -121q6 -2 8 -2q143 -42 189.5 -86.5t46.5 -118.5q0 -40 -15 -77.5t-43 -70.5l-18 13q22 32 28.5 47.5t6.5 27.5q0 25 -26.5 41.5t-121.5 42.5q-172 50 -222 97t-50 127q0 49 18 96.5t51 87.5l-92 78l-65 -55zM47 987l84 -82l82 82l-84 82zM98 666l29 -27v-537 l-10 -10l87 -77q13 5 32 16t24 14l-65 51v496q0 58 -10 82t-35 41zM154 -205q7 -56 36.5 -88.5t100.5 -58.5q42 -16 118 -35q121 -31 140 -69q2 11 3 17.5t1 10.5q0 60 -184 109q-39 10 -60 16q-65 19 -102.5 43t-52.5 55zM330 676l61 -62v-524l55 4v512l39 33 q-31 9 -58 25.5t-54 44.5zM348 987l131 133l135 -135l-133 -131zM399 987l82 -82l82 82l-84 82z" />
<glyph unicode="&#x152;" horiz-adv-x="1458" d="M96 643q0 227 82.5 423t245.5 357l12 -12q-87 -98 -131.5 -287t-44.5 -462q0 -332 65.5 -496t196.5 -164q7 0 19.5 1.5t29.5 4.5v1194l-43 -22v-711q0 -127 -39.5 -181.5t-142.5 -74.5v23l23 6v856l-23 -4v26q54 16 108.5 44.5t116.5 72.5v190q-7 8 -10.5 17.5t-3.5 21.5 q0 15 6.5 22t20.5 7q11 0 18.5 -7.5t7.5 -21.5q0 -11 -3.5 -20.5t-10.5 -18.5v-172q36 23 81 57.5t97 80.5q68 -139 104.5 -310t36.5 -354q0 -155 -28 -290t-86 -257q41 14 82.5 22t86.5 11l1 975q0 75 39 116.5t108 41.5q42 0 100.5 -28t81.5 -28q28 0 46.5 23t35.5 78 l19 -9q-24 -110 -71 -167.5t-113 -57.5q-42 0 -100.5 31t-78.5 31q-22 0 -32.5 -14.5t-10.5 -45.5v-477q30 63 74 97t94 34q39 0 74 -19t74 -61q3 4 10 10q25 25 37 41l16 -14q-47 -58 -95 -104t-97 -80q-46 66 -69 85t-48 19q-27 0 -46 -20.5t-24 -55.5v-401 q102 -6 193 -37.5t180 -91.5q28 17 49 33.5t37 34.5l14 -15q-30 -37 -154 -129q-48 -37 -75 -57q-119 64 -216 95.5t-177 31.5q-106 0 -180 -65.5t-74 -161.5q0 -98 69 -162t183 -72l-2 -18q-132 6 -207.5 77.5t-75.5 188.5q0 35 8 65t24 57q-37 -8 -54.5 -11t-30.5 -3 q-172 0 -291 188.5t-119 479.5zM121 641q0 -223 76.5 -393t201.5 -230l4 9q-105 77 -163 248t-58 405q0 161 37 313.5t111 296.5q-103 -130 -156 -295t-53 -354zM393 1108l1 -858q14 3 28 10t28 18l1 855q-20 -11 -50 -22q-5 -2 -8 -3zM596 16q61 50 101 143.5t59 231.5 q-28 16 -52 23.5t-49 7.5q-14 0 -28.5 -1.5t-30.5 -5.5v-399zM596 443q16 2 31.5 3.5t29.5 2.5q25 0 51 -6.5t54 -18.5q3 46 4.5 90.5t1.5 85.5q0 58 -3 115t-9 114q-30 -14 -56.5 -21t-52.5 -7q-12 0 -24.5 1.5t-26.5 3.5v-363zM596 832q13 -4 25.5 -5.5t29.5 -1.5 q23 0 45.5 7.5t53.5 25.5q-12 105 -37.5 204t-65.5 193l-51 -34v-389zM627 14l6 -4q43 48 97 71t122 23q79 0 176 -30.5t209 -91.5l70 55q-102 62 -193.5 93.5t-171.5 31.5q-60 0 -115.5 -13.5t-109.5 -39.5q63 87 97 228.5t34 319.5q0 194 -32 358.5t-95 293.5l-53 -37 q62 -145 93.5 -312t31.5 -354q0 -224 -40.5 -367.5t-125.5 -224.5zM994 1221q10 9 22.5 14.5t21.5 5.5q31 0 90 -29.5t91 -29.5q41 0 77 30t60 84q-32 -28 -54.5 -39.5t-44.5 -11.5q-21 0 -77 20.5t-95 20.5q-30 0 -54 -17t-37 -48zM1012 684q14 14 28.5 20.5t32.5 6.5 q29 0 53 -17.5t62 -72.5q19 13 35 27t30 28q-35 46 -65 64t-68 18q-32 0 -61.5 -20t-46.5 -54z" />
<glyph unicode="&#x153;" horiz-adv-x="762" d="M16 53l84 78v502h-18v24h43q74 0 135 26t143 95q33 -35 50 -52.5t32 -31.5q33 14 64.5 34t66.5 50l168 -233q-71 -57 -139 -116.5t-133 -123.5v-137l99 -77q7 5 19 15q47 38 70 54l13 -17q-47 -36 -97 -77t-110 -95h-27l-137 105q-22 -16 -74.5 -52.5t-74.5 -52.5h-15 q-18 28 -40 54.5t-54 58.5l-53 -45zM102 100q18 -20 39.5 -45t48.5 -59l66 47l-72 68v522h-61v-512zM262 129l49 -49l39 31v510l-55 51l-33 -15v-528zM313 684l62 -59v-521l-13 -12l134 -100l57 49l-117 94v504l30 16q-24 7 -49.5 22t-51.5 38zM502 672l157 -197l52 45 l-139 194q-6 -3 -15 -9q-37 -25 -55 -33zM512 338q22 20 66 59t65 60l-131 170v-289z" />
<glyph unicode="&#x178;" horiz-adv-x="1133" d="M4 1235q0 112 82.5 186t208.5 74q139 0 209.5 -83t70.5 -247v-991q0 -64 14.5 -102t47.5 -62v1323q-9 9 -12.5 17.5t-3.5 19.5q0 17 8 30t18 13q9 0 19 -13.5t10 -29.5q0 -6 -4 -16t-10 -20v-464q29 -10 54.5 -15t47.5 -5q29 0 55 5t51 15v217l-106 97l-45 -31l-12 20 q11 8 45.5 33t135.5 98q11 -11 27 -30q75 -86 111 -86q29 0 49.5 30t40.5 101l23 -6q-18 -68 -44.5 -115.5t-66.5 -83.5v-852q0 -146 -80 -220.5t-239 -74.5q-2 0 -2 -2q63 -4 98 -28t35 -64q0 -35 -26 -57.5t-66 -22.5q-38 0 -60 16t-22 41q0 21 14.5 35.5t36.5 14.5 q16 0 24 -6.5t9 -20.5q0 -11 -8 -19t-19 -8q-8 0 -14.5 6.5t-6.5 14.5q1 4 1.5 7.5t2.5 10.5q-10 -3 -16 -11.5t-6 -18.5q0 -21 17 -34.5t44 -13.5q33 0 52.5 17.5t19.5 44.5q0 35 -37 58.5t-96 23.5q-70 0 -114 -29t-44 -74q0 -63 185 -118q9 -3 13 -4q140 -42 191.5 -88 t51.5 -119q0 -37 -13.5 -70.5t-40.5 -60.5l-16 8q11 12 16 23t5 22q0 61 -180 116q-18 6 -28 9q-160 49 -213 95t-53 120q0 86 64.5 137t175.5 51q-134 22 -196 94.5t-62 208.5v349h-45q-71 0 -104 -21.5t-33 -67.5v-47h-25v58q0 129 47 180t160 51v373q0 120 -48 178.5 t-145 58.5q-78 0 -137 -52.5t-59 -121.5q0 -62 36.5 -102t106.5 -55l-4 -17q-84 17 -128 68t-44 131zM25 1256q25 71 82 112t131 41q106 0 159.5 -64.5t53.5 -191.5v-444h-33q-96 0 -136.5 -28t-43.5 -93q14 30 52 43.5t109 13.5h52v-344q0 -122 29.5 -186t99.5 -97 q-38 42 -55 97t-17 133v905q0 153 -62.5 228t-189.5 75q-48 0 -96.5 -21.5t-81.5 -58.5q-24 -25 -37 -54.5t-16 -65.5zM465 -203q0 -75 44.5 -117.5t197.5 -89.5q17 -5 48 -14q177 -52 177 -123q0 1 2 6q6 18 6 27q0 51 -50.5 89.5t-172.5 76.5q-7 2 -22 7q-199 61 -199 169 q0 19 5.5 37.5t16.5 38.5q-29 -24 -41 -47.5t-12 -59.5zM467 1685l131 133l135 -135l-133 -131zM516 1685l84 -82l82 82l-84 82zM662 4q12 -2 18.5 -3t11.5 -1q7 0 18.5 1t16.5 1q74 0 108.5 46t34.5 145v229q-28 10 -55 15t-49 5q-28 0 -53.5 -5t-50.5 -15v-418zM662 444 q30 11 55 16t49 5q20 0 46.5 -5t57.5 -16v404q-25 -9 -52 -14t-54 -5q-19 0 -44 4.5t-58 14.5v-404zM782 1198l113 -98v-922q0 -69 -20 -111t-62 -63q80 21 112.5 72t32.5 164v866l51 41q-48 3 -89 25t-82 69zM817 1685l131 133l135 -135l-133 -131zM868 1685l82 -82l82 82 l-84 82z" />
<glyph unicode="&#x2c6;" d="M221 838l232 348h118l232 -348h-58l-233 211l-233 -211h-58zM264 866h17l231 226l231 -226h17l-209 285h-80z" />
<glyph unicode="&#x2dc;" d="M225 879q19 106 68 159.5t129 53.5q19 0 34 -2t29 -7l110 -28q24 -6 36 -8t20 -3q37 0 58 19.5t36 66.5h54q-20 -103 -68.5 -153.5t-126.5 -50.5q-15 0 -33 2.5t-41 7.5l-109 27q-12 3 -26 4.5t-30 1.5q-33 0 -53.5 -21t-35.5 -69h-51zM272 942q24 29 50 42t57 13 q38 0 114 -21.5t111 -21.5q52 0 88.5 28t55.5 81q-20 -24 -44.5 -34.5t-56.5 -10.5q-39 0 -115 20.5t-112 20.5q-56 0 -94 -30.5t-54 -86.5z" />
<glyph unicode="&#x2000;" horiz-adv-x="947" />
<glyph unicode="&#x2001;" horiz-adv-x="1894" />
<glyph unicode="&#x2002;" horiz-adv-x="947" />
<glyph unicode="&#x2003;" horiz-adv-x="1894" />
<glyph unicode="&#x2004;" horiz-adv-x="631" />
<glyph unicode="&#x2005;" horiz-adv-x="473" />
<glyph unicode="&#x2006;" horiz-adv-x="315" />
<glyph unicode="&#x2007;" horiz-adv-x="315" />
<glyph unicode="&#x2008;" horiz-adv-x="236" />
<glyph unicode="&#x2009;" horiz-adv-x="378" />
<glyph unicode="&#x200a;" horiz-adv-x="105" />
<glyph unicode="&#x2010;" horiz-adv-x="797" d="M86 299l150 150h475l-148 -150h-477zM133 322h430l51 51h-428z" />
<glyph unicode="&#x2011;" horiz-adv-x="797" d="M86 299l150 150h475l-148 -150h-477zM133 322h430l51 51h-428z" />
<glyph unicode="&#x2012;" horiz-adv-x="797" d="M86 299l150 150h475l-148 -150h-477zM133 322h430l51 51h-428z" />
<glyph unicode="&#x2013;" d="M0 322l119 118h905l-119 -118h-905zM49 338h840l49 49h-838z" />
<glyph unicode="&#x2014;" horiz-adv-x="2048" d="M0 322l119 118h1929l-119 -118h-1929zM49 338h1864l49 49h-1862z" />
<glyph unicode="&#x2018;" horiz-adv-x="463" d="M51 940q0 22 18 49.5t70 81.5l148 152l18 -21l-86 -84q-18 -18 -27.5 -36t-9.5 -35q0 -14 5.5 -25.5t15.5 -22.5l88 -86l35 31l14 -14l-156 -160l-96 98q-18 19 -27.5 37t-9.5 35zM104 983q0 -11 8 -26.5t21 -28.5l86 -88l55 55l-90 90q-16 17 -22 27.5t-6 21.5q0 5 1 9 t4 13l-40 -40q-9 -9 -13 -16.5t-4 -16.5z" />
<glyph unicode="&#x2019;" horiz-adv-x="463" d="M86 997l156 160l98 -100q17 -17 27 -35t10 -31q0 -25 -17 -52.5t-71 -84.5l-150 -149l-18 16l86 86q21 21 30 37.5t9 34.5q0 11 -5.5 22t-17.5 23l-88 90l-35 -33zM152 1032l92 -92q16 -16 22 -27.5t6 -23.5q0 -2 -1.5 -6.5t-3.5 -11.5l41 39q7 6 11.5 14.5t4.5 17.5 q-1 12 -8.5 26.5t-20.5 28.5l-88 90z" />
<glyph unicode="&#x201a;" horiz-adv-x="463" d="M86 37l158 160l98 -101q16 -16 25.5 -34t9.5 -31q0 -27 -18.5 -56.5t-69.5 -80.5l-150 -150l-18 16l86 86q22 23 31.5 39.5t9.5 32.5q0 12 -5.5 23t-17.5 22l-90 90l-33 -33zM154 72l90 -93l6 -6q24 -27 24 -45q0 -1 -3 -7.5t-5 -10.5l41 39q9 7 14 16t5 17q0 9 -8.5 24 t-22.5 31l-88 90z" />
<glyph unicode="&#x201c;" horiz-adv-x="950" d="M51 940q0 23 20.5 53.5t67.5 77.5l152 152l16 -21l-84 -84q-23 -23 -32 -39t-9 -32q0 -14 6 -26t16 -21l91 -89l35 35l14 -16l-158 -160l-98 100q-19 19 -28 36t-9 34zM104 983q0 -11 8 -25.5t21 -27.5l90 -90l56 53l-93 94l-6 6q-24 24 -24 41q0 6 1 10.5t4 11.5 l-38 -38q-9 -9 -14 -18t-5 -17zM535 942q0 22 18.5 50.5t69.5 78.5l151 152l19 -19l-86 -84q-22 -21 -31.5 -38.5t-9.5 -34.5q0 -12 5 -22t19 -24l88 -90l35 33l14 -14l-155 -160l-101 100q-18 19 -27 37t-9 35zM588 983q0 -12 7 -25.5t21 -27.5l91 -90l55 53l-92 94l-6 6 q-25 24 -25 43q0 3 1.5 8t4.5 13l-39 -39q-9 -9 -13.5 -18t-4.5 -17z" />
<glyph unicode="&#x201d;" horiz-adv-x="950" d="M86 997l158 160l100 -100q17 -17 26 -35.5t9 -36.5q0 -23 -18 -50.5t-70 -80.5l-152 -149l-18 16l86 86q23 23 33 40t10 32q0 10 -6 21t-19 24l-90 92l-35 -35zM154 1032l92 -92l5 -5q23 -22 23 -46q0 -2 -1.5 -6.5t-3.5 -11.5l40 38q9 9 12.5 16t4.5 17q0 13 -7.5 27.5 t-21.5 27.5l-88 90zM571 997l158 160l100 -100q19 -18 28 -36.5t9 -35.5q0 -22 -16.5 -48t-73.5 -83l-149 -149l-19 16l84 86q23 23 32 39t9 33q0 10 -6 22t-16 23l-90 90l-33 -33zM639 1032l92 -92l4 -4q27 -26 27 -45q0 -2 -1.5 -7t-4.5 -13l39 38q9 9 13.5 18t4.5 17 q0 10 -6.5 22t-24.5 31l-88 90z" />
<glyph unicode="&#x201e;" horiz-adv-x="950" d="M86 37l158 160l100 -101q17 -17 26 -35t9 -36q0 -24 -16.5 -50t-71.5 -81l-152 -150l-18 16l86 86q23 23 33 40t10 32q0 11 -6 22t-19 23l-90 92l-35 -35zM154 72l92 -92q1 -2 4 -5q24 -23 24 -47q0 -2 -1.5 -6.5t-4.5 -11.5l41 39q9 8 13 16.5t4 18.5q0 12 -7.5 25.5 t-21.5 27.5l-88 90zM571 37l158 160l100 -101q19 -18 28 -36t9 -35q0 -23 -18 -50.5t-72 -80.5l-149 -150l-19 16l84 86q23 23 32 39.5t9 32.5q0 11 -6 22.5t-16 22.5l-90 90l-33 -33zM639 72l92 -92q2 -3 6 -7q25 -23 25 -41q0 -3 -1.5 -8.5t-4.5 -13.5l39 39q8 7 13 16.5 t5 18.5q0 10 -6.5 22t-24.5 31l-88 90z" />
<glyph unicode="&#x2022;" horiz-adv-x="1208" d="M307 762q0 123 87 209t210 86q122 0 208.5 -86.5t86.5 -208.5t-87.5 -209.5t-209.5 -87.5q-123 0 -209 87t-86 210z" />
<glyph unicode="&#x2026;" horiz-adv-x="2048" d="M183 63l159 162l111 -110l33 32l16 -16l-160 -160l-110 111l-33 -35zM248 98l94 -94l58 57l-94 93zM865 63l159 162l111 -110l33 32l16 -16l-160 -160l-110 111l-33 -35zM930 98l94 -94l58 57l-94 93zM1549 63l159 162l111 -110l33 32l16 -16l-160 -160l-110 111l-33 -35 zM1614 98l94 -94l58 57l-94 93z" />
<glyph unicode="&#x202f;" horiz-adv-x="378" />
<glyph unicode="&#x2039;" horiz-adv-x="473" d="M113 367l123 286h157l-127 -286l121 -273h-151zM137 367l109 -248h65l-110 248l114 262h-65z" />
<glyph unicode="&#x203a;" horiz-adv-x="487" d="M113 94l127 287l-121 272h153l121 -272l-123 -287h-157zM147 119h68l113 262l-111 248h-63l108 -248z" />
<glyph unicode="&#x205f;" horiz-adv-x="473" />
<glyph unicode="&#x2122;" horiz-adv-x="1706" d="M274 1403v51h420v-51h-174v-479h-67v479h-179zM825 924v530h101l174 -440l162 440h102v-530h-59v479l-181 -479h-49l-190 479v-479h-60z" />
<glyph unicode="&#xe000;" horiz-adv-x="780" d="M0 0v780h780v-780h-780z" />
</font>
</defs>
</svg>
