<?xml version="1.0" standalone="no"?>
<!DOCTYPE svg PUBLIC "-//W3C//DTD SVG 1.1//EN" "http://www.w3.org/Graphics/SVG/1.1/DTD/svg11.dtd" >
<svg xmlns="http://www.w3.org/2000/svg">
<metadata></metadata>
<defs>
<font id="broken_15regular" horiz-adv-x="646" >
<font-face units-per-em="2048" ascent="1638" descent="-410" />
<missing-glyph horiz-adv-x="379" />
<glyph horiz-adv-x="2048" />
<glyph horiz-adv-x="2048" />
<glyph unicode="&#xd;" horiz-adv-x="2048" />
<glyph unicode=" "  horiz-adv-x="379" />
<glyph unicode="&#x09;" horiz-adv-x="379" />
<glyph unicode="&#xa0;" horiz-adv-x="379" />
<glyph unicode="!" horiz-adv-x="453" d="M75 299v26l6 6q29 -21 29 -214q7 -13 8.5 -34t4.5 -65l1 -17q0 -2 0 -1v-25h-7q-4 44 -24 161q-18 102 -18 163zM75 1300v5q45 0 133.5 13t133.5 13q9 0 9 -11v-13q0 -28 -11 -39v39h-13q-34 0 -101.5 -10.5t-101.5 -10.5q-49 0 -49 14zM106 1129v67q16 5 29 5l5 1l10 1 l29 2q50 3 62 3h11l49 -759v-100q-60 -7 -115 -7h-33zM146 160q0 35 27.5 60t63.5 25q90 0 90 -88q0 -90 -93 -90q-88 0 -88 93zM344 1208v49l7 7l5 -7q7 -125 13 -249q12 -220 25 -228q0 -6 -3.5 -14t-3.5 -14q0 -39 5.5 -118t5.5 -118h-4q-27 177 -38 437q-1 23 -7 127 q-5 78 -5 128z" />
<glyph unicode="&#x22;" horiz-adv-x="351" d="M83 1278l20 150q1 6 13 6q8 0 68 -11v-8l-52 -148h-9q-42 0 -40 11zM193 1278l20 150q1 6 13 6q8 0 68 -11v-8l-52 -148h-9q-42 0 -40 11z" />
<glyph unicode="#" horiz-adv-x="876" d="M21 418l5 2l4 -5l4 2l2 -4l-3 -3l-3 5l-4 -2h-1zM53 615q0 14 1 42q5 -5 8 -9q12 -5 31 -33q-4 -6 -14 -6t-26 6zM62 636l4 -5l4 2l4 -5l3 3l-2 4l-5 -2l-3 5zM79 -9q0 41 21 72q51 206 50 210l-7 11q1 7 13 20v7q0 10 -10 19t-10 29q0 -11 13 36q-38 -8 -36 -8 q-29 0 -29 18q0 4 6 27q19 72 26 80q13 13 80 13q25 0 29 6q6 10 12 13q5 22 5 41l1 -1q2 1 4 5q6 16 22 92h-20.5h-18.5q-9 0 -25 -4.5t-24 -4.5q-29 0 -29 18q0 4 6 27q19 72 26 80q13 13 80 13q23 0 33.5 12t25.5 10v6l-14 24l7 8q0 62 35 77q21 65 49 150q17 43 150 43 q19 0 19 -14q0 -22 -32 -103q-19 -68 -60 -201q23 -2 36 2q12 -5 33 -5q16 0 39 2l8 11v6l-14 24l7 8q0 62 35 77q21 65 49 150q17 43 150 43q19 0 19 -14q0 -22 -32 -103q-19 -67 -58 -196q16 1 82 -1q10 5 22 5q11 0 21 -4q-26 -140 -45 -139l-5 3l-1 -4q-40 15 -87 14 l-26 -1q-12 -53 -38 -159q25 2 91 0q11 5 23 5q10 0 20 -4q-26 -140 -45 -140l-5 4l-1 -4q-37 14 -87 14q-16 0 -36 -2q-32 -94 -65 -188q-33 -112 -33 -194h-6l2 -9q-3 -14 -25 -25q-58 -7 -156 -7q0 41 21 72q50 206 49 210l-6 11q0 7 13 20v7q0 10 -10 19t-10 29 q0 8 7 21.5t7 20.5q-19 4 -37 4h-24q-32 -92 -63 -184q-32 -108 -32 -189h-5l2 -9q-4 -14 -26 -25q-58 -7 -156 -7zM82 619l4 -5l3 2l-2 5zM149 372l14 -7q2 -6 4 -18q14 24 23 48q-9 0 -21 1q1 -17 -6 -20l-7 7zM152 284l4 -5l5 5l-5 6zM163 333l4 -6l5 6v1l-5 6zM231 535 l2 -5l3 9zM272 753q0 -6 9 -9l1 5l-5 8zM277 -80q9 0 25 -5.5t25 -5.5q0 -55 -18 -66q-15 12 -24 61q-8 11 -8 16zM305 -145l4 -6l5 6l-5 7zM323 905l5 -4l4 4l-4 7zM334 931l7 -11h7q-1 15 -7 17zM337 894l4 -6l4 6v1l-4 6zM401 537q40 -3 44 2q15 -6 33 -5l27 1q7 28 7 50 q0 -1 1 -1q5 7 10 26.5t17 75.5l-32 -1q-19 3 -57 5h-14q-11 -51 -36 -153zM419 372l14 -7q1 -6 4 -18q15 27 24 54l-22 -1q0 -21 -6 -24l-7 7zM422 284l4 -5l4 5l-4 6zM433 333l4 -6l4 6v1l-4 6zM548 1266q8 0 24.5 -5.5t24.5 -5.5q0 -55 -17 -66q-15 12 -24 62 q-8 10 -8 15zM564 1225l5 -4l4 4l-4 7l4 6v1l-4 7l-5 -7l5 -7zM575 1201l5 -5l4 5l-4 7zM593 905l5 -4l4 4l-4 7zM604 931l7 -11h6q0 15 -6 17zM606 894l5 -6l4 6v1l-4 6zM834 1225l5 7l-5 7l5 7l4 -7v-1l-4 -6l4 -7l-4 -4zM856 542q0 14 2 42q4 -4 7 -9q12 -5 31 -33 q-4 -6 -14 -6t-26 6zM886 546l3 -5l4 2l-3 5z" />
<glyph unicode="$" horiz-adv-x="589" d="M66 536q15 0 15 -26v-10h-2q-13 -1 -13 36zM66 839q0 37 6 68q8 40 41 76q40 46 85 64q-2 22 -4 43q-2 28 59 76q5 4 15 11q10 6 14 -5q8 -26 8 -57q1 -44 3 -55q91 -5 141 -71q46 -61 46 -158q0 -22 -107 -22l-1 -3l-2 1v2l-4 1l-1 2q-6 87 -56 102q14 -164 23 -224 q26 -8 33 -8l8 -4h23q30 -1 67 -50q32 -42 42 -78q31 -3 31 -12q0 2 -13 -9v-6q0 -2 2 -5t2 -5q0 -7 -10 -13q22 -21 22 -60h-7l-9 18q0 -66 -18 -144q-2 -2 -26 -43q-13 -21 -45 -39q-19 -10 -50 -20q8 -43 19 -78l-3 -2q2 -4 3 -7q2 -14 -7 -30q-31 -25 -87 -58 q-11 35 -7 68q-5 32 -13 95q-45 6 -50 6q2 0 -43 -13v6q7 7 10 13v5q0 9 -24 29q-31 24 -32 25q-48 55 -48 137q0 21 37 21q3 0 8.5 -2t8.5 -2q10 0 30.5 2t31.5 2h7l14 -64l5 -5l1 3l-2 7q0 15 -4 43q-3 6 -8 19q-3 9 0 17q11 -7 22 -41q3 -10 0 -14l-5 4q-3 -8 -1 -12 q0 -3 9 -1l2 4l5 -5l-3 -8q3 -3 4 -6q3 3 -5 101q-2 31 -9 94l-6 2q-61 24 -117 74q-61 55 -61 198zM127 141v16q0 7 1 12q18 -7 18 -32q0 -6 -9 -6q-10 0 -10 10zM196 836q0 -77 29 -104q-4 23 -9 61l-1 9q0 6 1 9l4 2q0 9 2 24l-2 6l-15 16l2 9l-3 9q-8 -17 -8 -41z M215 793v6v3l1 -9h-1zM215 892q1 -1 2 -1q1 2 1 4zM232 1284q11 1 31 8q15 -48 8 -63q-12 6 -30 45q-3 1 -9 10zM234 433q1 -4 4 -4q2 2 1 6l-1 1q-1 3 -4 4q-2 -3 0 -7zM238 420l3 -1l1 2q-1 3 -3 4zM249 1266q1 -3 4 -4q-2 -3 0 -7l3 -2q2 2 2 5q-1 3 -5 4q3 3 1 7v1 q-2 5 -4 4q-2 -3 -1 -8zM252 352q0 -9 13 -19q1 3 1 5zM265 357q1 -3 4 -4q2 3 1 7l-1 1q-1 3 -4 4q-2 -4 0 -8zM265 1238q1 -3 4 -3q2 3 1 6q-1 4 -4 4q-2 -3 -1 -7zM346 705v4l13 -13h-4q-9 0 -9 9zM353 528l7 -82l9 -111q20 11 23 43q-1 -14 -1 77q0 53 -38 73zM498 224 h7l8 -18h-1q-14 0 -14 18zM509 527q1 -4 4 -4q3 1 3 4v1q-1 4 -3 4q-4 -1 -4 -4v-1zM519 477q1 -4 4 -4q3 1 4 4v1q-1 3 -4 3q-4 0 -4 -3v-1zM532 202v4l2 4l2 2q0 4 1.5 13.5t1.5 13.5h12v-59q-3 6 -9 19q-3 1 -10 3zM532 384v14l4 -6q3 0 13 1v24l1 -135q0 14 -2.5 43.5 t-2.5 44.5q-2 2 -3 4l3 5q0 5 -13 5zM538 206q1 -4 4 -4q3 1 3 4v1q-1 3 -3 5q-4 0 -4 -5v-1zM560 911v16q0 20 4 37v-64q-4 5 -4 11z" />
<glyph unicode="%" horiz-adv-x="748" d="M53 739l1 7l32 378q4 47 40.5 79.5t84.5 32.5q52 0 95 -37t38 -88l-34 -386q-1 -7 -10 -29q-31 -71 -117 -71q-47 0 -88 33q-44 36 -42 81zM133 -9q0 41 21 72q9 39 30 119q10 31 20 66v25l-7 11q0 7 13 20v7q0 11 -10 19t-10 29q0 8 7 22t7 22q0 4 -1 11.5t-1 11.5 q0 11 8 17q13 -13 13 -54q0 -11 -6 -13l-7 7q-7 -6 -7 -11q0 -3 14 -7q2 -6 4 -18q7 0 41 101.5t34 127.5v9l1 -1q5 0 29 113t29 113q1 0 1 -1h7q4 8 14 23v6l-14 24l7 8q0 67 35 77q6 2 17 45q16 58 32 105q12 33 82 40q21 3 27 3q19 0 19 -14q0 -24 -32 -103 q-4 -16 -12 -47q-11 -43 -28 -97q-83 -264 -83 -284q0 -13 -68 -230q-27 -82 -53 -164q-29 -97 -29 -169h-5q1 -4 2 -9q-3 -14 -25 -25q-58 -7 -116 -7zM142 760q-4 -46 45 -46q35 0 39 48l27 319q5 66 -39 66q-38 0 -42 -45zM206 284l4 -5q3 2 5 5q0 4 -5 6q-4 -2 -4 -6z M206 410l4 -2l3 1q-1 4 -3 6zM206 426q0 -5 4 -7q5 1 5 6v2q-1 4 -5 5q-4 -2 -4 -6zM217 333q0 -4 4 -6q5 1 5 6v1q-1 4 -5 6q-4 -2 -4 -7zM377 905l5 -4q3 1 4 4q0 5 -4 7q-5 -2 -5 -7zM388 931q7 -5 7 -11h7q0 15 -7 17zM391 894q0 -4 4 -6q4 1 4 6v1q-1 4 -4 6 q-4 -2 -4 -7zM421 134v7l32 378q4 47 40.5 79.5t85.5 32.5q52 0 94.5 -37t38.5 -88l-34 -385q-1 -8 -10 -30q-31 -71 -118 -71q-46 0 -87 33q-44 36 -42 81zM510 155q-4 -45 45 -45q34 0 38 47l27 319q6 66 -38 66q-38 0 -42 -44zM561 1266q9 0 25 -5.5t25 -5.5 q0 -55 -18 -66q-15 12 -24 62q-4 3 -8 15zM578 1225l4 -4q3 1 5 4q0 5 -5 7q5 1 5 6v1q0 6 -5 7q-4 -2 -4 -7t4 -7q-4 -2 -4 -7zM589 1201q1 -4 4 -5q4 2 5 5q0 6 -5 7q-4 -2 -4 -7z" />
<glyph unicode="&#x26;" horiz-adv-x="779" d="M-11 778h12v-30q-12 0 -12 30zM-3 832q11 11 11 17q0 7 -7 7v2q0 21 13 30q-2 -5 -2 -10q0 -8 14 -25.5t14 -32.5q0 -11 -8 -20h8v-13q-39 0 -39 19q0 5 3.5 9.5t3.5 7.5v2q-4 5 -11 7zM8 1016v7h13v-7h-13zM8 1041q3 8 13 16v-16h-13zM12 1203q6 7 11 29q2 0 112 -23 q115 -24 143 -26l7 -7l-7 -7q-59 10 -178 25q-9 9 -88 9zM17 810q0 -4 2 -4q3 0 5 7l-3 7q-4 -3 -4 -8v-2zM51 333q0 128 159 307v7q-74 143 -74 254q0 149 110 199q33 15 46 15q137 0 194 -29q83 -42 83 -166q0 -138 -167 -305v-4l14 -7q-2 -27 28 -71q34 -50 39 -71l11 7 l-7 -18l45 -75h5q31 39 92 118q8 0 47.5 -36t45.5 -45v-5q-58 -75 -117 -163q37 -62 106 -184v-7q-47 0 -168 7l-49 81q-83 -92 -194 -92q-108 0 -181 89q-68 84 -68 194zM204 329q0 -59 30 -100q34 -44 92 -44q32 0 64 21q37 24 37 54v6q-66 120 -142 246q-81 -73 -81 -183 zM278 903q0 -58 56 -164q106 100 106 178q0 81 -69 81q-93 0 -93 -95zM425 603v1h22q0 -11 -7 -11q-15 0 -15 10zM476 576q43 0 43 -17v-5l-6 -6h-5l-7 6h-7q-2 -4 -7 -11q-11 6 -11 33zM519 480v18q3 6 7 7q11 0 11 -10v-10q0 -10 -11 -10q-5 0 -7 5zM530 653q0 14 13 14 v-8q0 -6 -6 -19q-7 2 -7 13zM537 512q2 6 8 6h30l-19 -24zM600 611q5 4 9 6q9 0 9 -19v-3q-13 0 -18 16zM625 548v13h4v-13h-4zM629 825v13h7v-13h-7zM642 520v23h5q7 -7 14 -7q0 -15 -17 -16h-2z" />
<glyph unicode="'" horiz-adv-x="230" d="M83 1278l20 150q1 6 13 6q8 0 68 -11v-8l-52 -148h-9q-42 0 -40 11z" />
<glyph unicode="(" horiz-adv-x="519" d="M32 569q0 15 5 79l10 4v20l39 34h4q-43 47 -43 74q0 92 82 281q96 220 187 220q18 0 54 -12.5t60 -12.5l7 -26l29 -29q-50 -33 -68 -65q-4 -6 -34 -86q-14 -9 -26 -24q3 -7 23 -49q-56 0 -78 -65l22 -24l-42 -42l-3 2q-12 -32 -20 -48l24 -19q-20 -18 -33 -44 q16 -11 16 -38l-30 -27q3 -14 5 -50h-18l5 -11l2 2l50 -35l-28 -20l12 -10l-32 -27q35 -40 66 -83l9 -46l19 11q26 0 46 -34l-42 -31l-16 17q18 -87 52 -146l36 35l53 -39l-53 -33l-29 24q11 -18 25 -37v4h60v-60h-19q9 -17 9 -35q0 -35 -59 -68q-49 -27 -107 -27 q0 36 -12 49q-77 84 -132 206q-7 23 -20 64l-13 10q-54 167 -54 267z" />
<glyph unicode=")" horiz-adv-x="530" d="M66 1189q0 31 45 57q41 23 74 23q53 0 104 -91l54 -99l29 -13q0 -27 16 -88h33v-42q14 -4 51 -16q-33 -23 -50 -41h12v-27q28 -8 40 -57q-18 -3 -27 -4q10 -23 10 -35q0 -25 -21 -34q7 -16 7 -27q0 -25 -18 -39h43v-58h-36l-1 -1h16q0 -7 -1 -14l23 -23h29l-57 -39 l-9 -10l-2 2l-1 -1l38 -13l-20 -34l17 -13q-27 -39 -51 -109q-28 -84 -41 -110l21 -19l-17 -16l9 -7q-53 -28 -103 -105q-54 -87 -97 -118q-33 33 -117 63v56q95 134 188 427q3 7 8 16h-9v116q6 -1 11 -3v51q-28 76 -60 231q-10 25 -13 35q0 5 3 22q-14 11 -26 27l-9 5l5 -1 q-14 18 -97 155zM166 1013l4 -4l26 -14q-1 15 -30 18zM313 685l1 1zM402 644l2 -4l2 -2v8z" />
<glyph unicode="*" horiz-adv-x="474" d="M56 1152q40 33 69 55q-16 16 -53 40l48 71q3 4 17 4q13 -1 18 -4q9 -6 28 -23q9 29 8 88h86q5 0 12 -11t7 -17q0 -11 -2 -30q-3 -22 -4 -30q28 7 78 35l42 -75q2 -4 -4.5 -16t-11.5 -15q-26 -9 -69 -31q20 -21 33 -30l17 -2l6 -3l9 -16l8 4q19 -13 16 -29q-6 -40 -7 -30 q-12 -12 -34 -37q-51 21 -85 39l2 -4v-7l-8 -16l8 -5q0 -22 -15 -28.5t-29 -12.5q-16 4 -50 8q-11 57 -16 97q-9 -3 -16 -7l-9 -15l-6 -3l-19 -1v-10q-10 -5 -19 -5t-19 9q-14 13 -18 15z" />
<glyph unicode="+" horiz-adv-x="559" d="M53 578v105q0 7 14.5 15.5t20.5 8.5q15 0 43 -4t42 -4q4 0 11.5 1.5t11.5 1.5q7 0 13 -3q6 24 6 41l-11 19v8l11 21l-11 6q0 27 18 34.5t36 15.5q20 -5 62 -10q15 -80 20 -135q44 -10 64 -10l19 10h8l21 -10l6 10q27 0 34.5 -17.5t15.5 -35.5q-5 -21 -10 -62 q-93 -18 -155 -23l2 -7l9 -8l-9 -20v-28l-6 11q-14 -38 -14 -119h-105q-6 0 -15 14t-9 21q0 14 4 42t4 42q0 4 -1 11.5t-1 11.5q0 11 6 18l-18 9h-28l11 5q-38 14 -120 14zM213 553l2 1h-1z" />
<glyph unicode="," horiz-adv-x="280" d="M43 -194q0 48 22 96q15 33 18 53q-6 4 -38 22v146h188q0 -23 5 -68.5t5 -68.5v-11l-81 -135q-20 -34 -119 -34z" />
<glyph unicode="-" horiz-adv-x="389" d="M63 528v86q0 19 22 19q9 0 26.5 -3t26.5 -3q3 0 7.5 1t7.5 1q12 0 13 -11l18 15h26q13 0 37 -7.5t37 -7.5l12 9h5l13 -9l4 9q17 0 22 -15t9 -29q-3 -17 -6 -50q-83 -21 -136 -21v4q-23 1 -28 1q-3 -1 -13 -5l-5 -7l-12 7h-18l7 5q-24 11 -75 11z" />
<glyph unicode="." horiz-adv-x="318" d="M67 290v11h152q15 0 15 -94q0 -9 -3 -25t-3 -25q-16 -15 -45 -15h-99q-17 51 -17 148z" />
<glyph unicode="/" d="M79 -9q0 41 21 72q9 39 30 119q10 31 20 66v25l-7 11q0 7 13 20v7q0 11 -10 19t-10 29q0 8 7 22t7 22q0 4 -1 11.5t-1 11.5q0 11 8 17q13 -13 13 -54q0 -11 -6 -13l-7 7q-7 -6 -7 -11q0 -3 14 -7q2 -6 4 -18q7 0 41 101.5t34 127.5v9l1 -1q5 0 29 113t29 113q1 0 2 -1h6 q4 8 14 23v6l-14 24l7 8q0 67 35 77q7 2 18 45q15 58 31 105q9 25 54 33q34 4 69 7q20 3 27 3q19 0 19 -14q0 -24 -32 -103q-4 -16 -12 -47q-12 -43 -29 -97q-82 -264 -82 -284q0 -13 -69 -230q-26 -82 -53 -164q-28 -97 -28 -169h-5q1 -4 2 -9q-4 -14 -26 -25 q-58 -7 -156 -7zM152 284l4 -5q3 2 5 5q0 4 -5 6q-4 -2 -4 -6zM152 410l4 -2l4 1q-2 4 -4 6zM152 426q0 -5 4 -7q5 1 5 6v2q-1 4 -5 5q-4 -2 -4 -6zM163 333q0 -4 4 -6q5 1 5 6v1q-1 4 -5 6q-4 -2 -4 -7zM323 905l5 -4q3 1 4 4q0 5 -4 7q-5 -2 -5 -7zM334 931q7 -5 7 -11h7 q0 15 -7 17zM337 894q0 -4 4 -6q4 1 4 6v1q-1 4 -4 6q-4 -2 -4 -7zM548 1266q9 0 25 -5.5t24 -5.5q0 -55 -17 -66q-15 12 -24 62q-4 3 -8 15zM564 1225l5 -4q3 1 4 4q0 5 -4 7q4 1 4 6v1q0 6 -4 7q-5 -2 -5 -7t5 -7q-5 -2 -5 -7zM575 1201q1 -4 5 -5q4 2 4 5q0 6 -4 7 q-5 -2 -5 -7z" />
<glyph unicode="0" horiz-adv-x="701" d="M22 108v4q162 0 359 -5l107 -3l-1 -1h-3l-338 -2q-5 4 -14 4q-19 0 -55.5 1.5t-54.5 1.5zM28 58h47q0 -17 -21 -17h-2l-2 2l3 1l1 1v5q-8 0 -24 2q-2 3 -2 6zM64 362l1 14l64 755q8 95 80.5 159t168.5 64q105 0 188 -71q88 -76 79 -179l-69 -768q-1 -16 -19 -59 q-29 -66 -94.5 -104t-140.5 -38q-93 0 -175 66q-87 71 -83 161zM124 52v6h48l4 -6h-52zM176 39v4q3 5 7 15h67v-13q-6 0 -17 2.5t-16 2.5h-2q0 -7 -10 -7l7 -4q-4 -5 -14 -14h-2q-7 4 -20 14zM180 20v2q25 0 25 -18q-25 0 -25 16zM191 43l5 -4q9 6 9 13h-2q-12 -1 -12 -9z M215 18q6 0 6 7q0 4 -6 9q1 3 6 5q5 -2 13 -6q2 0 5 1q-3 -4 -5 -12l14 -13v-5q-18 0 -33 14zM228 25l2 -3l4 3q-2 4 -4 5zM241 404q-8 -90 90 -90q69 0 77 94l54 637q11 131 -77 131q-76 0 -84 -88zM256 54v4h127l-2 -6q-41 -2 -50 -2q-45 0 -49 -5v5q-5 -4 -9 -5 q-5 4 -17 9zM273 13v9h6q3 0 9 -2t9 -2h4l8 7v-3q0 -5 -2 -9h-34zM531 97v4h17v-4h-17zM628 123v2q0 8 9 8q16 0 16 -19h-16q-9 0 -9 9zM628 144v2q4 6 10 14q11 -7 11 -18q-7 0 -13 4z" />
<glyph unicode="1" horiz-adv-x="532" d="M77 1032v176l172 125h195v-1195h-72l4 -7l-11 -7l-3 8l1 3q-20 0 -58 2.5t-56 2.5q0 119 -3 356q-2 242 -2 357v136q0 16 -15 15v3h15v135q-20 -5 -29 -20l-132 -95zM133 -13q3 4 7 4h12q24 0 24 -10h-36zM165 24q0 11 7 14t8 12q9 -18 21 -18q5 0 18 18h9q10 21 9 36v6 q2 -8 14 -15q-4 -3 -9 -5q0 -1 7 -31v22l15 -9q-9 -4 -9 -13q11 -8 17 -8l1 1v20h9q0 -13 12 -13q10 0 10 8q0 3 -1 10v10q2 -3 8 -11v-4q-2 -5 -4 -20h-13q0 -11 10 -12t10 -11q0 -18 -10 -18h-4v-51l-6 4v52h-10l10 17q-8 1 -23 3v2l-1 -1l-4 -1q-14 -48 -24 -48 q-14 0 -14 11q0 10 6 21v5q-6 13 -6 29l-1 1l-4 2q-9 0 -8 -10h2q2 -4 6 -11q-1 -3 -4 -7v-2q0 -3 3.5 -10t3.5 -12q-6 1 -18 2l-9 4q-5 0 -10 -4h-4q0 11 -10 19.5t-10 15.5zM204 -131q6 11 15 11v-11h-15zM210 241l1 5l4 6l5 -4v-38q0 -10 -5 -14q0 6 -1.5 19t-1.5 19 q-1 2 -2 7zM234 -120q0 7 1.5 21.5t1.5 21.5q5 -2 5 -26l4 -5q3 2 5 7h4q2 -7 5 -12v-3q0 -17 -14 -17q-12 0 -12 13zM242 32l4 -3l5 3q-2 4 -5 4zM244 -13h5l-3 2q-2 0 -2 -2zM251 -73l13 -6l-13 -13v19zM279 -75q0 9 15 9h4l-4 -7l17 -6l-8 -9h-5q-19 0 -19 13zM294 -103 q0 6 7 6h6q2 0 11 -4l11 4v-5q0 -8 -9 -8h-4q-3 0 -10 3.5t-12 3.5zM303 2h4v16h-4v-16zM311 -131l15 12l3 1v-13h-18zM350 -79q0 4 4 6q9 0 18 -4q3 1 9 2q-2 14 5 14q11 0 11 -20v-3q-3 -4 -9 -4l5 -4q0 -9 -5 -14h-4q-10 9 -25 9l2 5q6 2 11 6h-22v7zM376 -120l5 2 q5 0 8 -3q3 -7 8 -10h-21v11zM404 -131q0 7 2 11h13v19q7 -5 21 -5l13 14v-9h9q2 4 4 13q-4 4 -13 4q4 5 13 11q-1 4 -4 12h4q13 0 14.5 -13.5t2.5 -26.5l7 4v52q8 4 13 4h6q3 -2 9 -4q8 0 12 9l-6 -3q-25 9 -21 9v32q-7 0 -7 27q0 21 18 21q11 0 17.5 -7t11.5 -9q2 3 3 7 q0 8 -10 10.5t-10 9.5q0 16 17 16q7 0 7 -12l11 12q0 20 2 59.5t2 59.5q0 36 1.5 108t1.5 109q0 30 5 33q11 -4 11 -14q0 -2 -1.5 -7.5t-1.5 -8.5q0 -11 10 -18q-13 5 -13 -26v-5l8 -6l-8 -6q-5 -22 -5 -30q0 -14 2.5 -42.5t2.5 -43.5v-9q4 -5 19 -11q-1 -5 -6 -5 q-11 0 -13 -9q8 -5 8 -11l-4 -11l22 -23v-3h-9q9 -11 9 -30q-4 2 -13 6l-2 -2h-3l4 -3l1 -4q-1 -2 -3 -7.5t-2 -6.5q-4 -13 9 -13q-9 -9 -9 -14v-81q5 -3 5 -11q0 -3 -2.5 -9t-2.5 -10q0 -5 2.5 -16t2.5 -17q-3 -3 -7 -5v-65h-180zM426 -118q0 -6 5 -6q4 0 5 6l-5 5 q-5 -2 -5 -5zM455 7h11v-9l26 -9l4 -14v-5h-9q-1 3 -4 5q-2 -1 -5 -2l1 -3h-6q2 1 5 3q-1 14 -12 14l-4 -6q-2 -1 -7 -2v28zM494 -57v-1h7v8h-1q-6 0 -6 -7zM496 -75v-17h5q4 1 13 4l-12 12q-1 1 -4 1h-2zM505 22l4 -4l5 4q0 4 -5 7q-4 -3 -4 -7zM512 -61h6v7q-2 -3 -6 -7z M514 29l4 -5l2 5l-2 5q-4 -2 -4 -5zM524 -52l2 -2l4 2q-2 2 -4 2zM526 -61l4 -5l5 5h-9zM530 -99q7 0 15.5 -7t22.5 -7v34q-4 -5 -4 -9q0 -3 1 -9v-9h-15q0 14 -9 14q-11 0 -11 -7zM532 -75l3 -2l2 3q-1 1 -2 1h-1q-2 0 -2 -2zM543 -58v-8h5zM562 1030q0 145 11 170 q9 -18 9 -46q0 -75 4 -79q-4 -7 -4 -9v-6l4 -2v-4q-2 -3 -4 -7v-20q0 -9 2 -26.5t2 -26.5v-52q0 -31 -8 -51q0 -22 13 -28l-9 -5q2 -5 4 -9v-3q0 -52 -13 -52v179q0 -9 -6 25q-5 24 -5 52zM565 -68l3 -5q3 2 6 6q-3 4 -6 6q-2 -3 -3 -7zM565 477q0 61 13 61v-11l4 -7 q-3 -4 -9 -13q1 -4 5 -13.5t4 -15.5v-14q-1 -9 -4 -9h-10q-3 14 -3 22zM568 647v24q0 7 5 7q0 -6 2 -16t2 -15v-8q1 -8 -4 -9q-5 12 -5 17zM568 1234v111q3 4 10 7q0 -9 2 -27t2 -27q0 7 -4 -25l2 -1l2 -4v-8q0 -24 -9 -30zM568 1552q14 0 14 -16v-4q-2 -3 -4 -5h-3 q-7 0 -7 25zM573 1376q0 9 11 9q9 0 9 -20v-2h-2q-18 0 -18 13zM573 1428v57h9q0 -5 2 -14t2 -13q0 -30 -13 -30zM573 1496v22h6q7 0 12 -4q-9 0 -9 -7q0 -11 -9 -11zM591 140l4 -5l2 5l-2 4q-4 -2 -4 -4zM597 1025q18 0 18 -16q0 -18 -2 -29q-16 8 -16 45zM604 1263v2 q0 8 8 8h3l-7 -18q-4 2 -4 8z" />
<glyph unicode="2" horiz-adv-x="743" d="M55 955q0 128 86 213t214 85q132 0 213.5 -84.5t81.5 -215.5q0 -86 -32 -133l-312 -466l389 29q13 -22 13 -146l-8 -5l-579 -45q-13 50 -13 140l366 550q23 34 23 78q0 62 -40.5 104t-103.5 42q-126 0 -144 -155l-7 -7l-89 -5l-12 -1h-40q-6 9 -6 22zM114 86 q7 0 20.5 -2.5t20.5 -2.5l9 5l9 -13h-3l-15 -10l5 -5l-10 -8q5 -3 10 -11l-5 -5q-12 1 -16 5v8l-7 -2l-7 9q0 3 7 19h4q0 12 -22 13zM128 15q0 12 19 12l3 1l5 -3l-12 -14h2l10 4q0 -13 -16 -13zM134 63l5 -5l4 5l-4 4zM139 41l4 -2l2 2l-2 4zM143 56l2 -2l2 2l-2 2zM143 69 l2 -2l2 1l-2 5zM173 63q7 3 8 15q0 9 18 8h3l-9 -11l5 -2q6 12 25 13h1v-5l9 5h48l-5 -7l-4 2v-2q7 -1 20 -2l12 9h30l-6 -5q2 -5 12 -6l13 6l-2 5h18l-7 -11h2q13 0 16 15l4 -4q0 -20 -3 -20q-1 0 -1 1q0 -7 14 -9l3 1l3 4v-5l11 5h5l9 -11q-20 0 -27 -7v7l-9 -2l-18 8l4 9 h-9q0 -20 -8 -22l-7 13q0 -8 -9 -9q-12 -2 -14 -4v5q-18 -30 -43 -30q14 18 14 14v9l-12 -4l-6 6l-9 -17q-3 4 -16 11q-11 0 -16 -14q0 4 -6 8.5t-7 7.5q32 0 49 9q-4 4 -17 4l-9 -4q-8 0 -22 2t-21 2q3 6 9 19q-1 2 -7 2l2 -2l-1 -5l-1 -1q-5 0 -17 -2.5t-18 -1.5h-1z M220 63h4l5 10zM224 58l5 -4l4 4l-4 5zM229 67l4 -4l5 4l-5 6zM238 61l2 3l-1 1h-1v-4zM238 79l2 -4l5 4v2l-5 5zM250 63h17l-4 4h-5zM250 75h6l-6 6v-6zM267 39l5 -5l4 5l-4 4zM276 63l2 -2l3 2l-3 2zM285 67l2 -4l6 -5l4 5l-10 10zM287 50l6 -5l4 5l-4 4zM299 58l7 -13 l5 -1h3l-4 -3l5 -2l4 2l-4 4q6 2 8 9q-11 2 -11 9l3 4zM300 74l4 -1l2 2l-1 2zM310 73l4 1l1 1v6zM314 44l1 1zM319 63h4v4zM332 58h1l4 3l-3 2l-2 -3v-1v-1zM347 67l4 -4l2 4l-2 6zM355 65l3 -2l6 3q-2 1 -6 1z" />
<glyph unicode="3" horiz-adv-x="844" d="M54 389l4 5h170q14 -25 47 -72q61 -68 144 -68q82 0 131.5 55t49.5 138q0 123 -80 168q-10 5 -28.5 14t-31.5 9q-16 0 -24 -51q-7 -54 -10 -56q-46 46 -46 62l1 7q6 6 17 22l15 -14l17 14l-4 11v9h-86v162h58q10 25 15 39l2 1l2 3v-38q74 0 123 46.5t49 120.5 q0 75 -50.5 127.5t-125.5 52.5t-113 -44q-10 -11 -61 -105h-172q-4 2 -4 7q0 48 23 101q43 99 127 160q88 64 193 64q167 0 310 -159l-1 -2q6 -2 15 -9q20 -64 46 -204h62l-4 418h17q0 -18 -3 -55t-3 -55q0 -2 3 -6.5t3 -6.5h-4q0 -5 2 -13.5t2 -12.5q0 -3 -2 -10t-2 -10h4 q0 -20 -6 -36l6 -9h-4q-1 -4 -2 -13l6 -4l-6 -10q0 -40 6 -45q0 -17 -5.5 -50.5t-5.5 -50.5q0 -6 2.5 -16t2.5 -15h15v428h-9v6h14l-2 -885l2 -2l-2 -2v-33l2 -2l-2 -2v-8q1 -2 2 -3l-2 -2l-1 -79h-11v77l-6 8q0 -26 -2.5 -78.5t-2.5 -78.5q0 -36 3 -106q2 -73 2 -107 q0 17 15 16l-4 5q0 4 2 12.5t2 12.5q0 8 -4 9l6 6l3 -144l-5 -4l-3 10l-6 -1q-76 14 -101 14h-6q-6 -5 -6 -13q0 -1 1 -6q-14 14 -14 23q9 3 9.5 17t6.5 20v-32h93v157l-7 2v60l7 6q4 88 4 313q2 8 5 18q0 -17 1 -51.5t1 -51.5q5 3 11 24l-5 11l5 7q0 5 -2.5 14.5t-2.5 14.5 q0 26 9 43h-4l-5 9l-8 -13l-5 4q0 58 -2 172.5t-2 172.5h-58q-18 -87 -42.5 -130t-88.5 -98q30 -28 61 -57q33 -33 49 -66q29 -63 29 -155q0 -166 -103 -270t-271 -104q-124 0 -217 69.5t-126 188.5q-5 20 -13 58zM122 417v10q0 14 9 14v-19q0 -10 -4 -14q-4 4 -5 9z M140 608v19q0 9 6 9q-3 0 11 -3v-7q-12 -10 -17 -18zM172 480v70h8q1 -5 -1 -35q-3 -34 -3 -40zM286 -77h7q7 -7 21 -22q4 -3 4 -9h-9q-12 0 -15 11q-4 16 -8 20zM409 402q0 11 10 11h2q4 -15 22 -15l-26 -13h-7q-1 21 -1 17zM424 475l1 1q1 8 5 22h5v-23h-11zM449 940v21 q0 13 9 15v-11q0 -8 -2.5 -24t-2.5 -24q-4 11 -4 23zM591 -43q15 0 15 -18q-15 0 -15 18zM721 -108l9 9v36l9 5v-50h-18zM721 1388v11l4 2q-2 5 -4 8q3 4 6 11t8 22q0 5 4 13v-88q-18 0 -18 21zM838 862l5 -2l1 2q-4 -13 -4 -22q0 -13 5 -20v-63l6 -5q-8 -4 -8 -13 q0 -2 1 -7t1.5 -7t1.5 -7q-4 -9 -4 -15l2 -2l-2 -11h2q11 0 11 11q-3 6 -2 40t6 39v175q-15 0 -15 -18v-9q3 -5 6 -6l-6 -8q0 -8 3 -13t3 -9v-6l-6 6q3 -16 0 -29l-2 4zM843 953l2 -5l4 5l-4 4zM844 862l1 1v-1h-1zM845 63q4 3 4 6q0 6 -4 8v-14zM845 622q11 10 11 18 q0 -9 -5 13l-2 3l-2 -3h-2v-31zM845 658l11 17h-5q-6 0 -6 -11v-6zM847 777v1q1 5 4 6l3 -4l-3 -4q0 -1 -2 -2h-1q-1 1 -1 3zM847 798l4 4l5 -4l-5 -5zM847 811l4 4l5 -4q-2 -4 -5 -5zM851 488l3 -2l6 2q-2 2 -6 3zM856 73q0 -1 1 -4l3 4q-2 2 -4 2v-2zM856 86l1 -2l3 -3v22 q-4 -4 -4 -17zM856 462l4 -4l3 2v5q-2 1 -3 1q-3 -1 -4 -4zM856 475l4 -4l3 2v4l-3 3q-3 -2 -4 -5zM856 512l4 -5l3 3v4q-1 2 -3 2q-3 -2 -4 -4z" />
<glyph unicode="4" horiz-adv-x="850" d="M66 347v83q0 28 6 52q9 6 24 45l4 4v7q14 23 106 206l5 2l50 97q28 55 60 114v4q25 49 74 148q18 16 18 24q-1 1 -2 4l65 125q5 9 5 8v3q33 68 81 144q131 0 153 -11q18 0 20.5 -3t2.5 -25q0 -49 -9 -128q-12 -100 -14 -128q-9 -130 -29 -389l-14 -167q-6 -72 -6 -75v-20 q18 -9 61 -9q4 2 9 7q4 -4 11 -7h4q7 3 9 7v-9q5 0 16 1t17 1q17 0 17 -9q0 -6 -2.5 -19t-2.5 -19q0 -16 2 -23l-6 -5v-40q0 -6 -2.5 -17t-2.5 -16q0 -27 -4 -27q-2 1 -4 1q-46 9 -131 9h-5q-11 -122 -27 -254h-22q-152 0 -161 15q-2 4 -2 26q0 35 8.5 104.5t8.5 104.5v21 q-65 9 -195.5 16t-195.5 17zM240 509q12 -7 107 -15q85 -7 119 -7q3 1 6 4q14 103 14 162q0 -27 20 259l10 135h-3l-82 -159l-6 -5l-88 -180q0 -2 -97 -191v-3zM468 543l4 5l4 -5q-1 -4 -4 -5q-4 2 -4 5zM513 1057l2 -5q3 0 4 5q-2 4 -4 5zM677 1492v4q26 0 29 15 q4 -6 11 -19h-40z" />
<glyph unicode="5" horiz-adv-x="638" d="M-24 133l27 381l7 11v-27q0 -21 -3.5 -63.5t-3.5 -62.5h-2v-34h5q0 -16 -5 -18q1 -22 -2 -61q-5 -43 -5 -61q0 -33 9 -45h-11v-20h-16zM-1 383l2 -5l2 5l-2 4zM23 658l32 419q1 9 4 9v-13q0 -27 -11 -179q-6 -91 -6 -81q0 -14 -2 -18q-8 -90 -11 -137h-6zM31 344v26 q3 1 9 2q4 -2 4 -5v-3q0 -20 -13 -20zM57 1133h5v-22q-5 7 -5 22zM64 392q0 6 1 20t1 20q11 7 30 7q49 0 112 -9q-2 -14 -2 -27q0 -104 94 -104q91 0 91 187q0 28 6 84.5t6 85.5q0 23 -41 52l-1 5l1 2h-14l-11 9v-11h-7v11q-4 0 -14 1t-16 1q-38 0 -69 -63l-2 5l-124 11v110 l4 4v41h-2l-2 2q3 10 5 10l1 -1q1 3 2 9q-2 1 -4 6v2q8 18 8 48q0 12 -1 23q3 1 5 2q0 21 3.5 62.5t3.5 61.5q0 4 -1.5 13t-1.5 14q4 10 9 32q7 68 13 173h4h6l11 -1l31 -3l90 -5l295 -18q-1 -17 5 -54l-5 -7q0 -51 14 -55v35q25 -41 25 -61q0 -11 -3 -21h9q-1 -6 -9 -11 l-6 7l-7 -13l-4 6l-7 -4q-4 18 -7 56l-9 -9q-46 0 -56 -4q-7 0 -9 4q-78 15 -200 15h-52q-6 -39 -8 -73q-11 -223 -11 -255q83 47 125 47q78 0 128 -45t50 -123q0 -66 -12 -239q-10 -140 -35 -190q-36 -74 -150 -117h-45q-50 0 -76 9q-33 15 -66 31q-99 45 -99 199zM83 460 q0 9 6 9q9 0 16 -9h-22zM84 1363h3v11q184 -22 552 -54v-7q-16 -4 -19 -4q-10 0 -40 5.5t-45 5.5q-7 0 -7 -9q-20 4 -52 13q-15 0 -47.5 2.5t-48.5 2.5q-3 0 -11 4q-86 6 -258 25l-21 3q-6 1 -6 2zM87 464l2 -4l5 4q-2 4 -5 5zM476 75q9 6 16 6q6 0 17 -7t18 -7h-37 q-12 0 -14 8zM499 862v5q18 -5 18 -18q-18 0 -18 13zM515 1322h1h1h2l-2 2zM539 829v9h8q7 -3 9 -9h-17zM564 86v25q0 9 5 22q0 -11 11 -23v-52q0 11 -8 15.5t-8 12.5zM569 108l2 -2l4 2l-4 4zM571 81h4v5zM571 103l4 -6v6h-4zM592 314v24q2 -5 11 -9q-3 -1 -5 -6 q3 -9 -5 -9h-1zM598 383l1 15q0 9 4 41q4 -12 9 -26q0 -7 -5 -11v-4q5 -2 5 -6l-7 -7l-2 -7zM607 453v13q1 19 7 41v-9q0 14 13 14q0 -14 -7 -14q7 -4 7 -12h-13q6 0 6 -6q0 -18 -13 -27zM607 464l5 -4l2 4l-2 5zM636 920q8 11 8 17v5q-4 -4 -8 -7v36l8 7q13 -11 13 -34v11 q6 -7 6 -13q0 -7 -3 -20.5t-3 -20.5q-2 19 -21 19zM644 834q0 5 1 16t1 17l-2 3l8 18v-21q0 -5 -1 -16.5t-1 -16.5l-5 -1zM684 1137v19q0 -15 7 31h4v-9l-1 1h-1q-2 -1 -2 -5q0 -5 4 -7v-9z" />
<glyph unicode="6" horiz-adv-x="689" d="M56 39q0 5 47 11q35 3 64 8l5 -4q22 0 59 7q43 7 59 8q113 8 190.5 20.5t209.5 27.5q-1 -18 -64 -18q-8 -8 -41 -8q-14 0 -33 -10q12 2 -29 2q-17 0 -20 1l-2 2h-3v-2q-14 -2 -56.5 -11.5t-45.5 -9.5q-9 0 -13 4q-15 -5 -50 -9l-161 -17q-6 -1 -20 -5t-21 -4h-62l-8 -4 q-5 6 -5 11zM58 626q0 19 13 113q46 348 86 594q6 3 142 32q4 -1 9 -2q5 0 19 5.5t22 5.5v1q-1 -1 -1 -2l-1 -6l-4 -23q-19 -128 -57 -385q-18 -113 -18 -127q54 28 117 28q88 0 137 -81q20 -35 58 -158q6 -20 37 -161v-10q0 -12 4.5 -37.5t4.5 -38.5q0 -113 -80.5 -186.5 t-194.5 -73.5q-70 0 -132.5 42t-87.5 106q-7 19 -21 56q1 2 -35 159v7q0 -1 -10 50q-7 33 -7 92zM232 583q0 -23 27 -121q25 -92 23 -103q26 -64 85 -64q31 0 57 25.5t26 56.5q0 7 -1 12l-25 123q-10 40 -28 121q-13 57 -85 57q-79 0 -79 -107zM351 1559q23 4 27 4h48 q-18 -9 -47 -9h-16q-7 0 -12 5zM396 1277v9q13 -2 14.5 -14.5t13.5 -14.5l-9 -11q-19 11 -19 31zM415 1522v9q0 10 4 15q4 -5 12 -5h9q5 0 13.5 2.5t12.5 2.5h5q-6 -3 -16 -9q2 -5 5 -7q-1 -1 -23 -25h-5q-2 6 -6 17v6l-2 4h-5q-4 -3 -4 -10zM548 90q2 -2 4 -2v4q-3 0 -4 -2 z" />
<glyph unicode="7" horiz-adv-x="638" d="M-56 262l4 56l32 412v-77q0 3 -11 -112q-5 -45 -10 -137q-2 -8 -4 -23q-3 -21 -7 -63zM-11 804v30q9 -19 9 -34q-6 0 -9 4zM-4 961q7 54 8 58v-77l-6 4v-41q0 9 -1 28t-1 28zM13 1158q0 102 26 212q8 9 38 25h4q-2 -5 -13 -17q-3 -12 -21 -33q-19 -12 -19 -96 q0 -8 15 -25.5t15 -24.5q0 -4 -2 -10q-17 19 -28 19v13q-10 -35 -10 -43q0 -10 5 -21t5 -15q0 -5 -13 -27q0 7 -1 21.5t-1 21.5zM23 1228l5 -3l4 3l-4 4zM43 -20h10q43 0 78 -5q-17 -14 -39 -14h-15q-15 4 -34 9v10zM73 146q0 28 23 91q17 47 35 94l144 424q23 50 52 155 l4 2q18 59 56 174q11 25 21 54v4q-34 14 -70 14h-119q-8 -4 -13 -58q-7 -65 -8 -70q-22 -5 -33 -5q-16 0 -43 2q-33 2 -43 3q-4 5 -4 22q0 -5 9 138q7 112 15 112q88 0 230 -8q184 -11 230 -12l4 -5v-11q0 -115 -9 -144q-42 -137 -83 -257l-72 -207q-5 -12 -13 -36 q-11 -45 -83 -255q-75 -220 -84 -225h-103q-26 0 -43 4zM73 777v10q7 -12 22 -37q-7 -3 -7 -17q-3 3 -4 6q0 -10 2 11h-9q0 5 -2 13.5t-2 13.5zM122 1004l5 10q5 -2 8 -4q7 0 20.5 -3t20.5 -3h-15q0 -4 4 -6v-5q-29 -17 -27 -17q0 24 -16 28zM135 -43h30q0 9 -10 13h36 q-11 0 -11 -15h-4zM157 1406h41q6 -11 50 -11v-2h-11q-25 -1 -69 5l-1 -1v1q-10 3 -10 8zM165 1401l2 -3h1l4 3q-2 4 -5 5zM172 -41l4 -4l4 4l-4 2zM172 1401l4 -4l4 4q-2 4 -4 5zM264 1390q7 3 22 7l3 -1l1 -1q15 -7 26 -7h-34v-25h-3l-4 2q-5 8 -11 25zM271 -39h36 q6 0 6 -3q-1 -2 -2 -8h9v7h44q10 0 10 -11h-67v11q-12 -2 -36 -2v6zM348 -50l4 -4l4 4q-2 4 -4 5zM367 -63q22 13 22 18h19q9 0 27 -2.5t27 -2.5h1h3h11q3 -1 5 -4q-2 -5 -7 -15h-45l14 6q-2 5 -9 5t-7 -7l-4 2h-57zM404 -54l2 -2l2 2l-2 4q-2 -1 -2 -4zM419 -54l5 -4l4 4 q-2 4 -4 4q-4 -1 -5 -4zM424 1390h36l6 -9v9h41q5 0 17.5 -6.5t12.5 -11.5q-53 0 -102 6h2q-4 5 -13 12zM449 -63v-1v-2h1l3 3h-4zM460 -54l2 -4l4 4q-1 3 -3 4h-1zM460 -61v-4h11q-3 4 -9 4h-2zM471 -54l4 -4l2 4l-2 4q-3 -1 -4 -4zM548 307q0 17 11 147q3 49 11 148 q1 9 5 32q4 20 4 33q0 20 10.5 119.5t14.5 107.5l-54 -623q0 6 -1 18t-1 18zM559 1350v4q0 2 9 11l2 -4q1 -7 2 -20q-7 3 -13 9zM570 1307q3 9 9 26l10 -13q-8 -2 -8 -7q0 -8 -7 -8h-2zM595 1370q3 3 5 8l-2 2l-3 1h28l5 1l3 -1h-8l-6 -2q1 -1 2 -1l-1 -2l4 -4q6 -2 9 -2 q11 0 11 8l-4 3h11q0 -8 3.5 -13t3.5 -9q0 -30 -14 -46v50h-42q-5 2 -5 7zM608 1370l3 8h-3v-8z" />
<glyph unicode="8" horiz-adv-x="717" d="M55 997q0 129 54 242q50 104 133 166q29 22 51 54q1 -4 6 -9q5 3 16 9q3 -6 8 -9q4 3 17 9v-9q8 8 15 9l7 -9q5 3 18 9l4 -9q10 0 19 9v-9l13 9q6 -2 9 -9h47q27 -21 32 -39q16 -15 49 -40q48 -61 48 -175q0 -39 -9 -118t-9 -119q-1 -3 -17 -27q-13 -20 -13 -26l5 -15 l4 -4l-4 -3l40 -40q58 8 58 -258q0 -35 -1 -103v-103q0 -10 -9 -9q-41 -106 -125 -187q-2 4 -8 6q-7 -3 -21 -7l-4 1q-94 -60 -171 -60q-159 0 -207 215q-2 9 -2 15q0 5 1.5 7t1.5 5q0 6 -9 14v165q4 12 8 28q5 23 17 68q19 70 30 70h18l7 32l-6 -3l-4 3q-17 22 -28 22h-3 q-38 27 -64 106q-22 68 -22 126zM295 1106q0 -5 4 -7h1q-1 -4 -1 -8v-121q0 -13 9 -13l2 -3q3 2 5 5v-12l15 10v-10q10 10 50 10v146q0 9 -25 9v22q-4 -4 -15 -4q-7 0 -10 4q0 -17 -8.5 -20t-16.5 -5q-1 3 -6 3q-4 -2 -4 -6zM300 1099q1 7 5 10q1 -1 1 -3v-1q0 -6 -6 -6z M301 1442q0 -5 7 -5q4 2 4 5v2q0 6 -4 6q-7 0 -7 -6v-2zM330 513q23 -44 24 -46q14 -17 46 -17h16q36 42 36 119q0 99 -68 142q0 -9 -14 -25h2q5 0 5 -7v-2q0 -7 -5 -7h-2q-6 0 -6 7v2v1q-20 -19 -34 -25v-142zM342 653v3q0 7 7 7q4 -3 4 -7v-3q-1 -7 -4 -7q-7 0 -7 7z M351 938q0 -6 4 -8q5 2 5 7v2q0 7 -5 8q-4 -3 -4 -9zM358 443q0 -5 4 -7q6 0 6 6v2q0 6 -6 6q-4 -2 -4 -7zM405 1442q0 -5 6 -5q4 2 5 5v2q-1 6 -5 6q-6 0 -6 -6v-2zM553 867q0 -5 5 -8q6 0 6 7v2q0 8 -6 8q-5 -3 -5 -9z" />
<glyph unicode="9" horiz-adv-x="680" d="M-88 -13q0 19 5 58t5 58v-47q1 -32 1 -47q0 -22 -11 -41v19zM-78 -43q5 15 20 15q17 0 45 -4l-18 -11v4q-3 0 -9.5 -2t-9.5 -2h-2q0 7 -4 11h-2q-3 -1 -5 -6t-9 -5h-6zM-52 336v36q7 -5 7 -16v-4q0 -14 -7 -16zM-43 381v35q0 45 12 98l5 -5v-6q0 -8 -3 -12 q0 -68 -14 -110zM-15 649q0 30 8 45v-22q0 -23 -6 -39q-2 29 -2 16zM0 -28q6 -17 73 -17v-11q-40 0 -73 17v11zM45 791q0 83 28 342q11 103 82.5 170t175.5 67q127 0 204.5 -74.5t77.5 -200.5q0 -282 -81 -433q-54 -102 -143 -298q-95 -207 -143 -299q-5 -7 -14 -22h-67 q-6 -3 -9 -13q2 6 -11.5 8.5t-11.5 8.5q-28 4 -83 14v2q0 33 23 47q12 38 54 120q7 12 21 37q19 39 58 118l82 163q19 9 19 41l-11 8q-116 0 -141 8q-57 18 -91 99q-19 45 -19 87zM95 1378v15q0 35 25 73v-8q0 -9 -6.5 -26.5t-4.5 -27.5l-2 4zM127 1496q1 8 13 15l414 -49 q-71 0 -213.5 17t-213.5 17zM215 834q0 -40 25.5 -69.5t64.5 -29.5q77 0 105 65q3 6 11 17q23 277 23 264q0 115 -101 115q-76 0 -99 -72q-6 -19 -17 -136q-12 -129 -12 -154zM246 993q0 5 5 7q4 -1 4 -7l-4 -4zM257 1068l3 5q3 -2 4 -5l-4 -4zM266 922q2 3 5 4q3 -1 4 -4 l-4 -5zM275 1045v4l2 -4h-2zM279 931q0 4 5 6q4 -1 4 -6l-4 -5zM307 950l9 19l4 -4q-4 -19 -11 -26zM314 817v2v2l4 -4h-4zM316 948q1 3 4 5l5 -5l-5 -4zM325 967q1 3 4 4q3 -1 4 -4l-4 -2zM325 976v6h8q-3 -6 -8 -6zM329 957q1 3 2 4q2 -1 2 -4h-4zM345 998l3 2q1 -2 2 -3 l-2 -1zM370 838q0 5 4 7q4 -1 4 -7l-4 -4zM395 793q0 5 2 7q5 -1 5 -7l-5 -4zM397 847l5 4l4 -4l-4 -2zM399 897l3 2l4 -2l-4 -3zM399 1133l3 4q4 -1 6 -3q-3 -1 -5 -1h-4zM404 856q0 4 4 6q2 -2 2 -6l-2 -5zM408 299v6q0 17 16 17h3q9 0 9 -13v-4q0 -10 -10 -10 q-11 0 -18 4zM408 834l2 4q3 -1 5 -4l-5 -2zM415 144h108v30h16q0 29 20 35v-40h-20q-10 -34 -21 -34q-54 0 -103 9zM421 304l5 -5l2 5l-2 5q-4 -2 -5 -5zM613 509v5l2 3l3 1q9 -6 9 -20q0 -16 -4 -29l-5 4q-5 20 -5 36zM640 633v40l5 28q1 2 13 10q8 5 8 13v1q-6 5 -13 5 q4 4 5 9q0 9 -9 9q-5 -2 -9 -13v9q0 8 5 13v60q1 2 3 13q1 8 5 8v61q12 -5 19 -13l-2 4q0 9 13 9v32h-6q-6 -9 -9 -14q-5 6 -10 7v20q14 0 14 9h-14v18l10 -4q3 2 9 2q0 13 -11 18q-4 22 -4 13q0 19 6 51q7 37 9 50q1 -18 8 -52q3 2 25 24q8 43 7 56l20 54q1 27 11 77 q2 4 7 28l27 138q2 11 -9 14h14v-70l-119 -658q-6 -2 -6 -8q0 -2 2 -6.5t2 -6.5q0 -6 -8 -8v-50h-5v31q-2 -13 -13 -31zM658 780q7 6 10 13q-10 0 -10 -9v-4zM666 802l2 -2l4 2q-1 3 -4 4zM666 872l2 -5q3 1 4 5q-1 3 -4 5zM670 1030l2 -3h1q4 1 6 2l-7 3zM672 862l5 -4 q3 1 4 4q-1 3 -4 5zM677 1194q0 14 8 14q7 -4 7 -13q0 -3 -1 -10.5t-1 -10.5q11 -8 29 -28h-9v6h-7q-4 3 -13 9l-4 -2l-3 -3q0 6 -3 18.5t-3 19.5zM685 998l5 -2q3 0 4 2l-4 4zM685 1442v7h30q-8 -12 -25 -32q0 21 -5 25zM713 1275v2q0 30 17 30h3q-1 -22 -9 -66q0 12 -7 25 v5z" />
<glyph unicode=":" horiz-adv-x="255" d="M75 127q0 56 58 56q54 0 54 -50q0 -60 -54 -60q-58 0 -58 54zM75 496q0 58 58 58q54 0 54 -60q0 -52 -60 -52q-52 0 -52 54z" />
<glyph unicode=";" horiz-adv-x="255" d="M50 -42l53 150q3 6 13 6q8 0 68 -11v-8l-85 -148h-9q-44 0 -40 11zM75 496q0 58 58 58q54 0 54 -60q0 -52 -60 -52q-52 0 -52 54z" />
<glyph unicode="&#x3c;" horiz-adv-x="677" d="M70 629q0 46 19 89q5 22 20 31q42 25 97 51q20 9 40 26q4 36 69 49l6 8l27 -10l6 2q3 5 20 18l-1 7q-1 0 -1 1q0 5 105 49.5t105 50.5l-1 1l8 1q13 3 27.5 -37t14.5 -79q0 -50 -27 -56q-20 -3 -263 -135q-31 -16 -56 -29q45 -21 45 -25l-1 -1l-2 -6q8 -6 20 -19l7 -1 l26 9l6 -7q66 -13 69 -50q1 -7 41 -25q54 -26 97 -52q23 -13 23 -59q0 3 -7 -68q0 -10 -3 -28t-16 -16q-24 5 -96 51q-15 7 -43 21q-40 20 -90 47q-115 64 -263 135q-28 5 -28 56zM254 837q1 -1 3.5 -3t14.5 0l-1 7q-6 -2 -12 4zM276 855q3 -4 8 -3q3 2 3 5l-5 4 q-4 -1 -6 -6zM290 844q2 -4 6 -3h2q4 1 5 6q-3 4 -8 3q-4 -1 -5 -6zM399 588q0 -4 5 -5h1q4 -1 7 3q-1 5 -6 5q-4 1 -7 -3zM414 599q1 -4 4 -5q4 -1 7 3q-1 4 -5 5zM429 576q15 -3 19 3l-6 8q-5 -6 -12 -5zM649 297q15 12 65 12q13 5 17 4q-9 -15 -20 -46q-54 10 -62 30z M656 295q1 -4 4 -5q6 -1 8 3q-2 5 -6 6q-4 0 -6 -4zM683 301q0 -3 3 -5q4 -1 7 3q1 -4 5 -5l2 -1q6 -1 8 3q-2 5 -7 6t-8 -3q-1 5 -5 6z" />
<glyph unicode="=" horiz-adv-x="389" d="M63 432v86q0 19 22 19q9 0 26.5 -3t26.5 -3q3 0 7.5 1t7.5 1q12 0 13 -10l18 14h26q13 0 37 -7t37 -7l12 8h5l13 -8l4 8q17 0 22 -15t9 -29q-3 -16 -6 -50q-83 -20 -136 -21v4q-23 1 -28 1q-3 -1 -13 -5l-5 -7l-12 7h-18l7 5q-24 12 -75 11zM63 631v85q0 20 22 20 q9 0 26.5 -3.5t26.5 -3.5q3 0 7.5 1t7.5 1q12 0 13 -10l18 15h26q13 0 37 -7.5t37 -7.5l12 8h5l13 -8l4 8q17 0 22 -14.5t9 -28.5q-3 -17 -6 -51q-83 -20 -136 -20v3q-23 1 -28 1q-3 -1 -13 -4l-5 -8l-12 8h-18l7 4q-24 12 -75 12z" />
<glyph unicode="&#x3e;" horiz-adv-x="677" d="M57 430q0 50 28 55q19 4 262 136q31 16 57 29q-46 20 -46 25l2 1l1 6q-8 5 -20 18l-7 2l-26 -10l-6 8q-66 13 -69 50q-1 6 -41 25q-54 26 -97 52q-22 13 -22 59q0 -3 6 68q0 9 3 27.5t16 16.5q24 -5 96 -52q15 -7 43 -20q40 -20 90 -47q115 -64 263 -135q28 -5 28 -56 q0 -46 -19 -89q-5 -22 -20 -31q-42 -25 -97 -51q-19 -9 -40 -26q-3 -36 -69 -49l-6 -8l-27 9l-6 -1q-3 -6 -20 -18l1 -7q2 0 2 -1q0 -5 -105.5 -49.5t-105.5 -50.5q0 -1 2 -1l-9 -2q-13 -2 -27.5 38t-14.5 79zM241 738l5 -8q5 6 12 5l1 6q-15 3 -18 -3zM263 720q1 -5 6 -5 l5 3q-1 3 -4 5q-4 1 -7 -3zM276 731q2 -5 6 -6q4 0 7 3q0 5 -5 6h-1q-4 1 -7 -3zM386 470q3 -4 7 -3t6 6q-3 3 -7 3l-1 -1q-5 0 -5 -5zM401 460l5 -4q5 1 6 6q-3 4 -7 3q-4 -2 -4 -5zM416 483l1 -7q6 1 12 -4l5 7q-1 2 -2 3q-4 3 -16 1z" />
<glyph unicode="?" horiz-adv-x="559" d="M10 862v107l7 18q6 -68 6 -131q-13 -1 -13 6zM17 533v163q13 -5 13 -88q0 -9 -1 -28.5t-1 -29.5q6 -7 6 -19q0 4 -1 1q-2 -7 -4 -22l-8 -46q-4 38 -4 69zM21 239q0 39 7 77h6v-125h-6q-7 0 -7 48zM21 329v86h7q6 0 6 -26q0 -10 1 -30t1 -30h-15zM64 928q0 250 191 250 q133 0 185 -77q43 -63 43 -202q0 -162 -19 -229q-36 -131 -153 -139l-17 -234q-84 0 -131 7v38q0 90 17 300q88 0 114 25q43 39 43 247q0 129 -62 129q-43 0 -60 -59q-6 -19 -14 -96q-81 0 -135 6q0 6 -1 17.5t-1 16.5zM70 752v39q22 0 22 -45h-8zM120 110q0 88 90 88 q95 0 95 -78q0 -42 -26 -71t-67 -29q-38 0 -65 25.5t-27 64.5zM131 755l1 3l6 5q9 -8 9 -17h-2q-14 0 -14 9zM287 832h18v-7q-15 0 -18 7z" />
<glyph unicode="@" horiz-adv-x="1512" d="M-54 325q70 7 192 37q-49 137 -49 273q0 87 16 180q23 146 141 294q116 144 252 207q134 60 372 79q21 1 67 17q43 15 68 15q1 -36 -34 -52q394 -127 394 -519q0 -352 -267 -509q2 -7 2 -51q-41 23 -68 23q-22 0 -66 -18t-66 -18q-13 0 -45 18t-44 18q-23 0 -22 -35 q-18 35 -38 35q-31 0 -92 -12t-92 -12q-23 0 -69 6t-69 6q-11 0 -19.5 -12t-22.5 -12q-12 0 -17.5 12t-17.5 12q-41 0 -96 -32q166 -266 501 -266q417 0 624 416h44q-67 -210 -253.5 -343t-408.5 -133q-166 0 -318 76q-158 78 -246 213h-61q6 14 23 39l-19 18l-23 -24 q-7 12 -24 36q-12 -17 -38 -47q2 5 3 15l-2 5q-4 3 -17 3q-9 0 -21 6t-20 6q-15 0 -29 11q-24 18 -25 19zM161 617q0 -133 65 -274q8 4 172 4q-39 47 -39 134q0 186 134 374q145 203 323 203q100 0 128 -35q0 11 13 20q27 1 81 6q8 1 26.5 8t28.5 7q26 0 33 -34l-178 -615 q-5 -17 16 -37h60q109 0 207 194q87 171 87 296q0 210 -147 345q-143 131 -355 131q-291 0 -486 -253q-169 -219 -169 -474zM316 1495q9 -1 20 -1q49 0 118 17q15 -14 15 -46q-59 9 -153 30zM466 226v44h21v-44h-21zM479 1470l15 30l16 -5l-15 -32zM534 1485v25l819 10 q-22 -36 -66 -36q-47 0 -57 2q-3 0 -3 1t3 1q-9 -2 -45 -14q-28 -10 -46 -10q-12 0 -12 17q0 6 -12 6q-27 0 -27 -35q-40 31 -101 31q-5 0 -23 -5q-25 -7 -81 -7q-110 0 -349 14zM542 528q0 -22 22.5 -51.5t43.5 -38.5q99 39 190 177.5t91 245.5q0 102 -66 102 q-85 0 -190 -206q-91 -177 -91 -229zM557 1400v18l39 14l7 -17zM723 345q50 -5 76 -5q25 0 41 5q-25 75 -55 105q-25 -41 -62 -105zM1165 1376v20h32v-20h-32z" />
<glyph unicode="A" horiz-adv-x="1095" d="M4 -92q0 102 16 178v-66q0 -100 -16 -189v77zM26 211v3q1 4 3 6l3 -3q7 0 8 -5q-2 -5 -8 -12q-6 0 -6 11zM26 276q0 23 4 41q9 -4 9 -33q0 -33 -8 -40q-5 11 -5 32zM47 131q0 65 37 162l62 158l36 105q11 38 37 111q5 10 13 32l130 405q4 13 14 22h379q19 -7 43 -15 q8 -30 29 -88q0 -74 16 -84q43 -187 58 -246q36 -139 75 -242q0 -23 11 -34l56 -257q23 0 23 -61h-268q-18 0 -38 67q-11 39 -33 79q-63 31 -134 31h-67q-44 -1 -67 -1q-43 0 -62 -20q-12 -13 -28 -59q-28 -79 -47 -79h-261q-7 3 -14 14zM133 1399q1 4 6 5h2q4 -1 5 -5 q0 -6 -6 -6h-1q-6 0 -6 6zM365 1383q2 5 14 5h3q7 0 13 -2q-4 -8 -10 -8h-7q-8 0 -13 5zM421 1383q1 5 8 5h2q5 0 7 -2q-3 -7 -7 -9q-4 1 -10 6zM464 496q69 -21 207 -21q0 181 -95 381l-13 -16q-29 -88 -59 -175q-40 -123 -40 -169zM464 1383q2 5 14 5h3q7 0 13 -2 q-3 -8 -9 -8h-8q-8 0 -13 5zM593 1370v13l177 -13h-177zM784 1356q-1 16 11 16q4 0 11.5 -1t10.5 -1q216 0 216 1h-15q116 -3 196 -30l-16 -12h-101q-174 0 -313 27z" />
<glyph unicode="B" horiz-adv-x="828" d="M-78 1199v11h45zM-70 1169v1q0 4 4 4q6 0 8 -4q-3 -4 -6 -7q-6 0 -6 6zM-48 665v7q0 24 6 24q5 -4 5 -25q0 -18 -5 -26l-1 -1q-5 0 -5 21zM-37 504v15q0 31 4 31q5 -14 5 -43q0 -30 -6 -35q-3 12 -3 32zM-23 396q0 14 7 14q4 -4 4 -12v-3q-1 -5 -3 -8l-5 -1q-3 5 -3 10z M-5 241v43q11 -54 11 -120v-52q-11 51 -11 129zM-5 1210l36 11v-11h-36zM19 39l12 -108h-12v108zM42 903q0 21 5.5 61.5t5.5 60.5q90 14 167 14q35 0 104.5 -1.5t104.5 -1.5h196q79 0 119 -80q31 -62 31 -150q0 -63 -29 -104q-4 -6 -74 -80q127 -31 127 -185 q0 -133 -50 -192q-41 -50 -134 -62q-16 -2 -197 -9q-30 -1 -114 -8q-71 -6 -114 -6h-110q-38 523 -38 743zM53 1221q406 67 763 67q1 -54 -107 -54q-15 0 -43 1.5t-43 1.5q-185 0 -342 -10q-69 -5 -69 -6h4h-163zM287 829l13 -122l13 -11q71 4 166 11q32 3 63 26v35 q0 60 -38 75h-180q-4 0 -37 -14zM300 498q0 -7 4.5 -31t4.5 -32q3 -58 4 -65q19 0 58.5 -1t59.5 -1q120 0 120 75v17q0 60 -23 60h-215q-6 -9 -13 -8v-14z" />
<glyph unicode="C" horiz-adv-x="1009" d="M-21 615q0 6 5 21.5t5 21.5q12 112 35 266v-104q0 -28 -4 -71q-5 -57 -6 -71q-4 -88 -9 -142q3 -8 7 -9l12 2q0 7 5 17t5 15q-1 6 -4 9q0 7 -3 22t-3 23q0 32 26 144q14 64 74 183q4 6 128 153q3 -1 10.5 -5t10.5 -4q9 0 33 10q31 13 36 15q66 20 156 20q15 0 117 -9 q181 -16 268 -110q2 -7 5 -21q17 -12 45 -43q12 12 12 32q0 11 -3 20l15 -9l10 21v99l-10 11l10 9q-10 -1 -10 9q5 14 10 25l-16 7l-9 8v7q0 11 17 33t17 57q0 4 -3 7h-16q4 1 9 2q5 0 7 -2h23q0 -107 -14 -378q-4 -128 -15 -385q-10 -203 -10 -248q0 -214 -6 -260l-18 -9 h-223q16 8 167 11q40 1 65 5v137q0 45 -54 80q-76 -102 -255 -138q-6 -1 -23 -8t-20 -7q-9 0 -9 6h-119q-82 34 -151 34h-14q9 -16 9 -34q0 -15 -18 -15q-8 47 -73 103q-82 69 -97 93q-33 50 -51 93q-4 11 -9 32q-6 0 -19 3t-19 3q-8 0 -8 -12q0 -13 1 -38v-38l11 -7 q-11 -5 -11 -55q0 -9 11 -15v-233zM30 957v68q0 84 11 140v-140q0 -27 -11 -68zM306 1172v8q0 16 10 19q-10 2 -10 15q0 12 8 34t8 34q0 16 -6 27q0 9 20 9q25 0 25 -41q0 -14 -7 -24t-7 -19q0 -17 8 -20q-17 0 -28 -16q-15 -22 -21 -26zM322 606q0 -79 20 -86 q-11 -4 -11 -24q0 -66 37 -115q31 -16 35 -39q3 2 7 2v-13h22l-6 -16v-1q10 -17 94 -17q62 0 80 50q4 -15 7 -17l6 -1q12 12 29 51q16 36 31 46q131 0 131 70q0 4 -4.5 12t-4.5 12q0 17 6 17q19 -6 21 -6q0 -11 7 -32t7 -33h-14v-27q12 0 24 10.5t37 10.5q18 -19 25 -19 q16 0 16 10l18 -34h9q-9 26 -9 54q0 10 2 29.5t2 28.5h5v62l-9 4q8 7 9 11q8 40 8 172h-195q-1 -1 -11 -10h-9q-72 38 -88 75q-7 17 -23 45q-1 1 -63 36q-8 0 -23.5 1t-23.5 1q-201 0 -201 -320zM334 1291q0 -7 8 -7q4 0 5 6v2q-1 8 -5 8q-8 0 -8 -8v-1zM347 512q1 4 6 4 q1 0 5 -1l-3 -3q0 -4 -2 -6q-3 2 -6 6zM355 486q4 10 19 10h4q12 0 14 -10h-37zM401 503v17h9v-17h-9zM428 493v2q0 8 7 8q4 0 4 -8v-2q-1 -7 -4 -7q-7 0 -7 7zM441 451q2 4 10 4h4q4 0 8 -3q-5 -5 -12 -5q-5 0 -10 4zM444 474v3q0 9 6 9h2q8 0 8 -10v-2q0 -8 -8 -8h-2 q-6 0 -6 8zM444 502v2q-1 7 6 7h2q8 0 8 -7v-2q0 -6 -8 -6h-2q-6 0 -6 6zM464 440v3q1 8 7 8q4 -2 4 -9v-2q-1 -5 -4 -5q-7 0 -7 5zM589 374q3 2 7 2h3q4 0 8 -2l-1 -3q-3 -1 -5 -1h-2q-7 0 -10 4zM651 767v2q0 9 7 9q4 -2 4 -9v-2q0 -8 -4 -8q-7 0 -7 8zM662 721q0 2 3 4 l4 -4l-4 -3zM685 683q1 3 3 7v1q0 5 4 7q15 23 35 54q12 -48 37 -62q-31 0 -54 -26h-7q-18 0 -18 19zM688 689q0 -6 6 -6q5 2 5 7q-1 9 -5 9q-1 -1 -2 -1q-3 -4 -4 -8v-1zM762 756l4 1l4 -1q-2 -3 -4 -8l-3 4zM768 673q2 4 4 5h2q5 -1 6 -5q-2 -4 -5 -4zM780 725v10l15 9 q9 0 9 -8v-11q-5 -2 -15 -7l-7 4zM795 546v8q4 1 5 2l4 7q0 -5 -4 -7zM798 431q0 -5 5 -5h2q6 0 6 5v2q0 8 -6 8h-1q-6 0 -6 -8v-2zM903 473l2 4l3 -2q4 0 5 -2q-2 -4 -5 -7q-5 3 -5 7zM905 754q4 6 9 7l2 -2v-1q0 -6 -4 -6h-2q-2 0 -5 2zM912 730v1q1 3 2 5l3 -1l2 -5 l-3 -5q-4 2 -4 5zM926 569v2q0 8 6 8h2q6 0 6 -8v-2q0 -6 -6 -6h-2q-6 0 -6 6zM933 718q4 15 18 26q0 -21 -9 -26l-2 -4l-6 2zM942 897l15 -43v72q-5 -8 -15 -18q0 -12 0 -11zM955 817q0 -9 2 -13q5 5 5 14v5q-1 11 -5 15q-2 -5 -2 -16v-5z" />
<glyph unicode="D" horiz-adv-x="858" d="M-171 -212l40 857v283q0 11 4 28q5 21 6 27q9 70 9 139h7v-36q50 -7 51 -7v-11h-51v-81l11 -5q13 12 20 20q4 -7 20 -6v-25q25 -18 43 -29q2 -4 7 -7h4q11 9 11 24q0 16 -2 23q12 -5 12 -27q0 -9 -6 -24t-6 -23q0 -16 21 -29q-1 9 6 9q13 0 20 -9v103q-25 19 -35 34h35 v52h-20l14 18l-7 9l15 12v139q35 2 39 27l27 -27h16q22 0 66 3.5t65 3.5q6 7 11 9l3 -1l6 -8h57q18 17 47 82l13 -22q15 37 16 43v7q-22 -7 -52.5 -38t-51.5 -39q0 10 30 90v-47h13q0 43 27 43q7 0 18 -2q0 29 -13 36q26 13 29 27l27 -21l-27 -26q3 1 6 1q28 0 28 -56 q-4 -6 -13 -18q-8 1 -15 9q-4 -15 -22 -28q4 -6 11 -28h-11l-4 7l-17 9q-8 0 -8 -8q0 -3 4 -19q5 0 15 -2t15 -2q9 0 17 9l-1 -6q7 -8 100 -40q79 -27 170 -128q7 -9 24 -22l-5 -5q48 -76 77 -208q3 -34 11 -102q4 -28 17 -35l-7 -7v-67l7 -10q0 -5 -3.5 -14t-3.5 -14v-19 q27 10 27 28v264l-13 4l13 15q6 31 6 67v118q0 22 -26 22l26 28v358q-28 0 -84 1.5t-84 1.5q-74 0 -142 -24q-11 -19 -16 -19q-4 0 -13 13t-32 13q-15 0 -43 -4.5t-42 -4.5q-12 0 -25 2l-14 -33q-14 13 -27 14q0 -29 31 -30q10 -1 10 -9v-2q-39 -8 -37 -33v-3 q-3 12 -21.5 31.5t-18.5 34.5q0 13 9 30h-42q-44 0 -131.5 -3t-130.5 -3h-56l13 6q204 8 611 26q185 8 281 8h21l4 -6q0 -10 2.5 -30.5t2.5 -30.5q0 -136 -9 -409t-9 -409q0 -75 1 -151l-24 -4v20q-19 -48 -39 -48q-7 0 -6 7q-2 -4 -2 -9q0 -40 62 -94q0 -37 -13 -37 q-7 0 -8 1q1 1 2 0l1 3q-2 4 -55 53q-14 -20 -30 -63q-41 -110 -135 -185q-16 -55 -16 -203q-21 0 -21 82v17q5 7 8 11q-1 5 -8 10v52q-19 0 -52 -11q-36 -13 -51 -14q-131 -16 -151 -16q-14 0 -14.5 -10.5t-1.5 -20.5q-1 -5 -9 -5q0 36 -11 36h-200q-21 0 -21 20 q0 303 -7 320q-6 -19 -13 -39q-9 -23 -27 -23v53l-16 16q11 21 16 34q-1 3 -4 11.5t-3 10.5q0 22 13 47.5t14 40.5q0 -15 14 -15q5 0 6 4q-2 34 -20 75q-8 76 -8 164q17 -1 17 12q0 5 -2 16t-2 17l-2 -1q-1 -1 -3 -1h-1q-7 -2 -9 -2q-16 0 -48 79.5t-44 79.5q-8 0 -18.5 -12 t-23.5 -12v-251q3 -3 5 -9l2 -2q-4 -4 -13 -9v-180q7 -7 26 -20q-8 4 -15 4q-21 0 -21 -38q0 -7 8 -12.5t8 -11.5v-6q-7 -8 -23 -20q-13 -204 -13 -273v-30q9 0 9 -8q0 -13 -9 -13q-7 -80 -7 -146v-16v-41q-6 -6 -6 -29q0 -39 33 -39q23 0 23 28q0 7 -4.5 20t-4.5 20 q29 0 30 19q-2 5 -3 10q3 -6 3 -9v-1q6 -32 13 -64q12 -33 47 -36q-4 -7 -25 -7q-128 0 -126 27zM-112 942q0 -5 4 -7q5 2 5 7q0 7 -5 8l5 5q0 4 -5 6q-4 -2 -4 -6l4 -5q-4 -2 -4 -8zM-103 -11q0 15 15 15h5q-6 -14 -6 -29q0 -8 1 -14q-15 11 -15 28zM-94 -162l6 -10v17z M-88 955l5 -5q4 0 6 5q0 6 -6 6q-5 -2 -5 -6zM-43 7q0 25 26 25q0 -25 -26 -25zM-9 922q0 -5 5 -8q4 1 4 7v2q0 4 -4 5q-5 -2 -5 -6zM-4 36q2 14 34 45q20 -29 63 -69q8 -4 8 -19q7 1 19 3q137 -104 142 -104q24 0 24 40q0 5 -2 10q16 -7 16 -30q0 -9 -9 -26v-114 q-12 0 -17 -5.5t-12 -5.5h-4l13 27q0 5 -3.5 11t-3.5 7q0 6 3.5 17t3.5 17q0 22 -17 36l-130 85q-36 29 -108 84h-7q-6 -9 -9 -9h-4zM11 447q0 -6 5 -8q5 1 5 7v1q0 5 -5 6q-5 -2 -5 -6zM32 804q1 -4 3 -6l4 1q2 3 2 4v2q0 5 -5 6q-4 -2 -4 -7zM36 875l3 -5q2 1 4 5l-4 2z M43 858q7 -7 13 -7v7h-13zM47 480h9v21q-9 -5 -9 -21zM52 417l4 -4l5 4q0 5 -5 7q-4 -3 -4 -7zM52 447q0 -6 4 -8q5 1 5 7v1q0 5 -5 6q-4 -2 -4 -6zM52 464l4 -4l5 4q0 6 -5 7q-4 -2 -4 -7zM52 761q0 -4 4 -6q5 2 5 6q0 8 -5 9q-4 -3 -4 -9zM322 817q0 -21 9 -69 q-6 -35 -6 -106q0 -63 3 -191t3 -191h9q11 0 32 2t32 2l-9 9q75 0 102 105q30 116 30 158v212q-11 29 -19 89q-7 57 -16 77q-2 4 -14 18q-9 11 -9 18h-24q6 2 6 11q0 33 -20 31h-7q-12 -14 -43 -37l6 -5q-32 -14 -56 -22l-3 -3q-1 -1 -1 -3q0 -58 4 -64q11 -5 30 -11 q-23 0 -23 -15h32l-2 -7l6 -8h-52zM327 881q0 5 4 7q7 0 7 -6v-2q0 -6 -7 -5q-4 2 -4 6zM331 955l9 6h-9v-6zM331 974q6 0 26 9q0 -3 4 -5q4 2 4 6v1v3q39 20 39 28v3q-28 6 -53 6h-20v-51zM357 701q0 4 4 6q4 -2 4 -5v-2q0 -5 -4 -6q-4 2 -4 7zM357 804q0 5 4 7q4 -2 4 -6 v-2q0 -4 -4 -5q-4 2 -4 6zM357 983v2q0 4 4 6q3 -1 4 -3zM370 597q0 5 4 7q5 -2 5 -7q0 -4 -5 -6q-4 2 -4 6zM370 701q0 4 4 6q4 -2 4 -5l1 -2q0 -5 -5 -6q-4 2 -4 7zM370 730l4 5l5 -2q-2 -4 -5 -5zM381 664q0 43 6 43h3q0 -13 17 -33.5t17 -43.5l27 -26v-2q0 -50 -16 -54 q-4 20 -27 47q7 4 7 16v8q0 -8 -7 -8q-11 0 -19 20t-8 33zM381 838l4 5q3 -2 3 -3l-3 -6q-3 2 -4 4zM383 1356q0 -4 4 -6q4 2 5 6v1q0 5 -5 6q-4 -2 -4 -7zM387 817q0 15 12 15h5q2 -5 11 -15v-6l-7 -7h-4q-17 0 -17 13zM390 455q0 3 5 5l4 -5l-4 -2zM390 984q0 -6 4 -6h2 q6 0 6 6v1q0 6 -6 6h-2q-4 0 -4 -6v-1zM394 916q0 3 7 4h2q6 -1 6 -4q0 -5 -5 -6q-10 2 -10 6zM399 288q0 3 3 5q2 0 4 -3l-2 -3l-3 -1zM408 -84q67 0 67 34q2 -1 1 -3q8 -9 8 -14q0 -12 -28 -25.5t-28 -24.5q7 -16 7 -18v-7q-14 -13 -20 -13q0 15 -7 33q4 6 7 14 q0 -5 -7 24zM408 536v7h16v-7h-16zM410 498q0 6 5 9q6 0 6 -8v-2q0 -6 -6 -6q-5 2 -5 7zM410 688q0 4 5 6q6 0 6 -6v-1q0 -7 -6 -7q-5 2 -5 8zM415 320v9q3 2 9 7zM417 928v1q0 6 7 6q4 -2 4 -6v-1q-1 -6 -4 -6q-7 0 -7 6zM421 806q14 0 14 -13v-2q-14 0 -14 15zM430 638 q0 4 5 7q7 0 7 -6v-2q0 -7 -7 -7q-5 3 -5 8zM432 385l1 2v2q1 0 2 -2l4 -2l-4 -2zM437 417q0 7 8 7q4 -3 4 -7l-4 -4q-6 0 -8 4zM447 498q0 6 4 9q5 -1 5 -8v-2q0 -5 -5 -6q-4 2 -4 7zM451 791q2 6 12 6l1 1v-7h-13zM471 784h8q11 0 13 -8h-8q-7 7 -13 8zM473 624q0 4 5 6 q4 -2 4 -6q-2 -4 -4 -5zM737 1282q0 15 24 27v-27h-24zM764 1345q0 27 18 27v-37q-6 10 -18 10zM766 1266l10 7q1 -5 6 -7q27 0 27 -29v-12zM798 514q0 -5 4 -7q4 2 4 6v1q1 5 -4 6q-4 -2 -4 -6zM802 460h11q-5 19 -11 41v-41zM816 520l22 -4v2q0 10 -10.5 25.5t-11.5 24.5 v-48zM838 589q1 -5 5 -6q4 2 4 6q0 5 -4 6q-5 -2 -5 -6z" />
<glyph unicode="E" d="M-25 -120l2 21l4 68q19 275 19 382q18 -350 18 -534v-24q-25 0 -36 25q-7 18 -7 47v11v1v3zM31 1124l27 28l-8 17l8 11q0 156 35 201h114q28 0 27 18q175 -18 250 -18t116 -27q0 -33 4 -100.5t4 -101.5q0 -48 -8 -48h-323v-92h48q-6 -17 -30 -23q-18 -4 -18 -56v-41 q5 -9 16 -25h202q12 0 30 -19t17 -31q-17 -231 -17 -234q-10 0 -16 7q-11 10 -14 12h-228v-230l26 -21q80 0 133 21q15 0 43 26q8 -7 17 -21l-2 -5l71 6h-46q28 6 49 6q13 0 31.5 -15t18.5 -27v-220q0 -27 -77 -27h-72q-161 0 -385 11l-16 16l-8 145v-1q0 31 5 103 q10 129 10 269q0 32 -3.5 96.5t-3.5 97.5q0 7 -4 22t-4 23q2 5 8 15q0 13 -4 37.5t-4 37.5q0 16 7.5 46t7.5 46q0 56 -34 65z" />
<glyph unicode="F" horiz-adv-x="582" d="M16 13q0 152 15 221v-212l24 -9h-39zM18 374v761l11 129v-982zM53 993q0 33 1 98t1 98q34 18 114 21q59 0 118 1q14 1 63 5q39 3 62 3h107q6 -15 17 -45v-170l-7 -8q-8 0 -75 -7q-109 -11 -178 -11v-187h187q19 -51 19 -176q0 -35 -12 -36q-82 -6 -183 -27v-2 q0 -63 9.5 -190t9.5 -191l-7 -25q-14 0 -43.5 -5.5t-44.5 -5.5h-90q-11 0 -23 11l-34 568q-11 207 -11 281z" />
<glyph unicode="G" horiz-adv-x="696" d="M17 576v202q2 -45 11 -129q19 135 47 230q40 134 144 175q51 20 56 21h135q24 0 75 -32q142 -88 142 -295v-38q-54 -11 -171 -11h-20q-10 88 -19 116q-23 68 -78 68q-57 0 -74 -74q-5 -22 -9 -119q-1 -26 -1 -90q0 -391 108 -391q79 0 90 93h-1q-2 3 -2 12q-1 17 -1 58 h-88q-7 63 -7 56v110q15 10 132 18q96 7 146 7q4 -64 14 -251q11 -216 11 -249v-24q-55 -7 -68 -7q-21 0 -38 31q-12 25 -23 49q-80 -92 -191 -92q-209 0 -277 277q-6 21 -11 62q-1 25 -15 62v-15q0 -256 43 -378q-18 0 -23 -17q-4 -11 -1 -31l-4 7q-5 60 -15 133 q0 75 -8.5 227.5t-8.5 228.5z" />
<glyph unicode="H" horiz-adv-x="898" d="M-25 1372v88l7 4l36 -615q0 -34 2 -102q5 -91 5 -182q0 -49 -3.5 -147t-3.5 -147q-4 14 -7 30q0 461 -5 558l-22 387q-9 133 -9 126zM43 1305v38q85 11 94 11h177q2 -25 4 -86l13 -344v-1q0 -8 3.5 -41t3.5 -44q5 0 16.5 -1t17.5 -1q8 0 157 7l12 13q2 26 2 32 q0 77 -10 231.5t-10 232.5q0 11 13 20q42 6 73 6h173q7 -13 7 -30q0 -12 -10.5 -32.5t-10.5 -31.5q0 -6 7 -21t7 -27q0 -10 -3 -31t-3 -31q0 -25 12 -62q16 -45 18 -60q12 -72 12 -142q0 -16 -1 -48.5t-1 -48.5q0 -54 9 -117q7 -44 7 -32q0 -141 2 -176q9 -137 9 -144v-67 q-7 -9 -7 -32q0 -21 7 -28v-55q0 -15 -3.5 -44.5t-3.5 -43.5q0 -16 2 -31q-36 -18 -247 -18h-6q-10 144 -20 356q0 13 -2 39l-1 8q0 1 -1 1v-2q-3 46 -7 138q-9 0 -28.5 1.5t-29.5 1.5q-113 0 -140 -14v-94q0 -66 7 -197.5t7 -197.5v-54q-208 -11 -237 -11h-30 q-15 72 -16 205v37q0 51 -1 85l-29 635q-14 296 -14 343z" />
<glyph unicode="I" horiz-adv-x="373" d="M8 124v252q13 -63 13 -182v-84zM30 1101l14 12v97q0 36 173 36h43q32 -45 36 -144q0 -49 2 -147q8 -139 25 -420q11 -192 11 -201l1 -117q-44 0 -156 -8l-23 -1l-6 -1h4q-6 0 -20 -1h-19q-9 0 -10 11q-4 82 -14 247l-23 351q-1 60 -11 178q-3 36 -13 95z" />
<glyph unicode="J" horiz-adv-x="485" d="M-125 40v2q0 4 2 6h4q2 -3 3 -7q-2 -6 -5 -9q-4 3 -4 8zM-121 1088v31q0 36 7 80v-102zM-116 365q0 64 2 112q2 -20 2 -41v-140q0 -11 -2 -32l-1 6v29q-1 42 -1 66zM-116 521v6q0 3 2 14q4 -5 4 -16v-4q0 -9 -4 -12q-2 6 -2 12zM-116 578v9q0 4 1 11v5l1 1q4 -5 4 -18v-6 q0 -10 -4 -17q-2 8 -2 15zM-116 844v165q0 34 2 62q2 -11 2 -44v-202q0 -13 -2 -36l-1 5v19q-1 26 -1 31zM28 -110q1 4 6 4l5 -2q-3 -2 -5 -6q-3 1 -6 4zM28 133q0 69 8 93q25 -5 44 -5q94 0 94 115q0 51 -5.5 153t-5.5 153l-15 31l6 10v374q72 7 112 8q20 0 68 5q44 4 68 4 q7 0 25 -96l9 -7l-9 -10v-62q0 -27 4.5 -81t4.5 -81h15v-7l-4 -2l-5 -7q-6 -5 -6 -16q7 -9 15 -15q-10 0 -10 -7q0 -27 9 -32q3 1 7 1q5 0 11 -1q-9 -2 -12 -2q-4 0 -6 2q-8 -4 -8 -15q0 -8 8 -14.5t8 -13.5q0 -8 -8 -14.5t-8 -14.5v-7q7 -10 9 -15q-2 -8 -9 -9v-64 q0 -3 4.5 -11.5t4.5 -10.5q0 -9 -9 -9v-114q0 -17 4.5 -51.5t4.5 -51.5q0 -221 -314 -221q-81 0 -97 19q-12 16 -12 99zM122 563h9v-6zM442 820q1 4 5 5q3 -1 4 -5q-2 -4 -4 -5zM451 782h17l-10 -30zM462 552q1 3 6 5q1 -2 2 -5l-2 -4q-4 1 -6 4z" />
<glyph unicode="K" horiz-adv-x="763" d="M32 301q0 18 4 18q2 0 7.5 -1.5t8.5 -1.5q0 57 6 185q5 103 5 165v20v39l4 8v11q0 46 7 123q8 93 8 135v43q-4 1 -8 7l8 12q0 17 6 31q19 0 60 3t61 3q50 0 66 -2q41 -6 41 -11v-160q7 -4 6 -11h-8q0 -25 -3 -75.5t-3 -75.5q0 -5 4 -13t4 -12v-2q-8 -6 -8 -14 q0 -18 17 -18q15 0 19 11l-4 7q14 0 23 23q12 28 20 34l140 270q11 22 25 32h191q0 -1 25 -7q0 -18 -15 -36q-62 -79 -89 -149q-6 -7 -6 -25q-13 -12 -19 -13q-26 -40 -74 -121v-12v2q2 0 18 -84q22 -127 68 -308l13 7q-6 -7 -6 -27q0 -82 24 -90l-7 -4q43 -176 43 -204 q0 -13 -15 -13q-29 0 -86.5 3.5t-86.5 3.5q-23 0 -33 4q-15 40 -56 249q-22 67 -50 206q-15 0 -71 -110q-17 -32 -17 -61v19q-15 0 -15 -50v-92l11 13q5 -9 7 -13q4 2 6 4v84h8q5 -6 9 -8v-56q22 -27 26 -50l12 14q7 0 7 -7q0 -9 -7.5 -11t-7.5 -20l4 2l4 -7q7 0 13 7v-45 q14 3 14 -12q0 -20 -11 -20q-6 0 -32.5 49t-30.5 64h-8q-13 -7 -24 -18q-7 -37 -7 -75q0 -42 -6 -42h-221l-7 18v159q0 8 -4 75q-1 4 -4 12t-3 12zM43 -18l7 7h11q14 0 40.5 -7t40.5 -7q13 0 18 12l6 -12q223 -18 228 -18h32v7l-32 61v9q8 0 22 -26q16 -29 21 -33q9 2 9 10 q0 3 -2.5 10.5t-2.5 11.5q0 7 5 11v45q13 0 27.5 -55.5t27.5 -57.5q83 -4 250 -17h-5q22 0 27 5q6 13 11 26v-31l83 -14l14 -11l-726 49q-45 3 -112 25zM84 1460q70 0 705 -27q-25 -3 -75 -12l-5 6h-4l-2 -1q-20 0 -63 3.5t-66 3.5q-14 0 -42.5 -1.5t-42.5 -1.5q2 -11 4 -33 h-7l-17 36l-24 1l-96 5q0 1 -5 1h-13q-23 0 -55.5 -87t-49.5 -87v34q0 20 30 73.5t30 68.5h-180q-22 0 -22 18zM297 640q0 -5 5 -7q4 1 4 6v2q0 5 -4 6q-5 -2 -5 -7zM304 683q0 -5 4 -8q6 1 6 7v2q0 5 -6 6q-4 -3 -4 -7zM308 664h8l-8 7v-7zM320 683l7 7h-7v-7zM350 293 q0 42 20 58v-50q0 -11 -11 -17q-9 0 -9 9zM561 1178v2q24 -4 24 -26v-10q-24 16 -24 34zM707 378v26q18 0 32 20q3 -3 7 -5q0 -41 -39 -41zM707 886v8q0 30 28 30q0 -8 -11 -19q-14 -14 -17 -19zM739 733q7 7 18 24q0 -7 7 -13l4 2q0 17 -2 53t-2 53v47q25 -4 25 20v5 q17 -23 17 -70v-136q32 -47 32 -82q0 -28 -14 -28q-12 0 -12 26q0 8 1 13q-6 -17 -24 -17v17q-7 -7 -19 -7h-9q0 13 7 37t7 37q0 3 -5 11q-6 -7 -13 -7l-5 9q-5 3 -13 6zM784 658q0 -5 5 -7q4 2 4 6v2q0 4 -4 5q-5 -2 -5 -6zM784 757q0 -5 5 -7q4 2 4 6v2q0 4 -4 5 q-5 -2 -5 -6zM789 462q6 32 38 32q0 -32 -36 -32h-2zM875 651q8 1 8 11q0 4 -1.5 11.5t-1.5 10.5q0 10 8 17q6 -7 6 -16v-22q0 15 -2 -23q-4 7 -17 11z" />
<glyph unicode="L" horiz-adv-x="722" d="M14 1165q0 18 28 18q3 0 88 10t117 10q16 -100 45 -302q32 -283 69 -579q2 -15 19 -77h22q43 0 129 16t130 16q6 0 16.5 -1t14.5 -1q23 -77 23 -169v-25l-6 -6q-13 -3 -38 -7.5t-79 -12.5l-345 -44q-70 -9 -71 -9q-20 28 -27 121q-2 24 -16 131q-48 383 -90 701 q-7 67 -26 199q-3 12 -3 11zM17 816v20q6 -21 6 -48v-22q-6 27 -6 50zM30 708v10q0 8 2 19q2 -4 2 -19v-13q0 -4 -1 -10.5t-1 -9.5v-2v2l-1 7q-1 12 -1 16zM38 612q0 8 1.5 26t2.5 26q5 -22 4 -30v-41q-8 9 -8 19zM53 529v21q9 -24 9 -50v-20q-9 18 -9 49zM68 418v17 q7 -27 7 -43v-22q-7 26 -7 48zM77 301v4q0 8 2 13q5 -5 5 -14v-4q0 -7 -5 -12l-1 4t-1 9zM86 271q0 4 2 5h3l2 -3l-2 -7q-4 1 -5 5zM118 58v17q10 -30 21 -73l-6 -4h-9z" />
<glyph unicode="M" horiz-adv-x="969" d="M3 1122q10 18 25 22q179 52 243 52q39 0 39 -38q0 -6 -3 -12q65 -155 178 -473q11 57 11 138q0 43 -5.5 128.5t-5.5 128.5v153q18 34 113 56q77 19 135 19q18 0 29 -8q24 -177 66 -373q13 -54 38 -163l110 -541q0 -12 -55 -23q-92 -19 -118 -19q-27 0 -49 22q35 15 35 30 q0 3 -63 88l13 22v18q0 19 -11 34q-15 20 -17 30q-2 6 -15 158q-7 95 -28 157q-30 -15 -30 -55q0 -11 2 -30q2 -23 2 -31q7 -165 7 -339h62q0 -32 -68 -32v-108q-89 -19 -93 -19q-31 0 -41 19q-15 31 -27 87q-15 68 -22 89q-78 226 -140 329q-14 -2 -14 -16q0 -142 29 -151 q2 -54 29 -174q24 -113 24 -175v-43q-78 -27 -148 -27q-21 88 -44 136q-9 19 -24 17l25 10q-62 261 -166 788q-14 57 -28 119zM260 787q0 -9 11 -9q12 0 12 11q0 13 -12 13q-11 0 -11 -12v-3zM285 701q0 -52 13 -52h13q0 79 -26 86v-34zM627 800q0 -11 11 -11q9 0 9 11v4 q0 11 -9 11q-11 0 -11 -11v-4zM629 842q0 -15 7 -15q9 0 9 20q0 21 -10 21q-6 0 -6 -20v-6zM637 738q0 -1 1 -3h2q11 0 11 11q0 1 -1 4l-3 1q-10 0 -10 -11v-2zM645 781q0 -4 2 -5l2 2q5 1 6 4v1q-1 6 -6 6l-2 1q-2 -3 -2 -7v-2z" />
<glyph unicode="N" horiz-adv-x="753" d="M22 1178q0 43 27 65l189 14q53 -98 127 -287q79 -205 121 -290q0 15 2.5 47t2.5 49q0 61 -17 182.5t-17 183.5q0 19 2 57.5t2 57.5q0 11 16 14q80 13 80 15h-1h49l9 -15q43 -78 50 -277q0 -94 4 -282l12 -145q7 -75 19 -223l9 -142q1 0 1 -2v-1q0 -9 1 -30t1 -32 q0 -15 -13 -15h-172q-54 130 -103 227q-8 20 -22 60l-58 156q-46 127 -96 211v-242q16 1 16 -40q0 -56 14.5 -173t14.5 -179q0 -41 -5 -45q-15 -16 -40 -16t-73.5 -2t-73.5 -2q-65 562 -65 1043q-13 16 -13 58z" />
<glyph unicode="O" horiz-adv-x="1083" d="M-69 1105v7q0 9 3 9q1 0 2 -1q2 -7 2 -12v-3q0 -5 -2 -10q0 -1 -1 -1h-1q-3 3 -3 11zM-55 1034v17q0 -5 5.5 -15t5.5 -15v-21q-11 9 -11 34zM-35 946v7q0 15 3 15l1 -1q2 -8 2 -17v-4q0 -5 -2 -11l-1 -1q-3 3 -3 12zM-26 912q0 7 4 10q4 -5 6 -10l-4 -3h-4zM-14 860 q0 5 2 7q3 -2 4 -7l-4 -2zM17 696q0 5 4 7q3 -3 4 -7l-2 -3l-4 -1zM40 593q0 10 4 15q4 -7 4 -15t-4 -14q-4 4 -4 14zM55 543v21v-1l1 3v9l1 32l6 142q1 29 1 44q19 18 33 83q16 69 32.5 90t61.5 59q99 84 218 115q93 24 243 24q62 0 116 -21q13 -5 65 -39 q198 -127 198 -268q0 -6 -11 -11q4 -16 11 -45q22 -97 22 -172q0 -7 -18 -59q-66 -192 -203 -276q-141 -86 -396 -86q-103 0 -230 108q-19 5 -43 23l10 11q-27 43 -64 43q-4 -11 -11 -32q-11 20 -11 77h11v-34q4 4 23 21v6q0 53 -41 59v-32q-11 19 -16 32q3 14 6 43v-30 q10 2 17 12q1 5 1 9q0 41 -33 40zM57 566q0 -7 7 -7q12 0 12 8v2q0 10 -11 10h-2q-6 -1 -6 -10v-3zM105 285v2q0 6 2 9q6 -2 6 -6v-6q0 -5 -4 -9q-4 4 -4 10zM116 258v2l2 3q3 -1 7 -3q-2 -5 -4 -8q-5 0 -5 6zM147 41q0 12 5 17q4 -4 4 -17q-1 -17 -5 -17q-3 5 -4 17z M195 241l25 21v-21h-25zM298 728h30q-23 -22 -23 -45q17 -34 57 -66l-28 -32v6v4q0 13 -6 13q-11 0 -11 -13v-4q0 -12 11 -12q14 -40 45 -117q52 -111 205 -111q102 0 165 71q60 69 60 173q0 273 -153 372q9 1 9 8v2q-2 5 -10 10h-2q-6 0 -6 -10v-3l1 -1q-34 20 -60 27 q-36 10 -54 10q-113 0 -175 -87q-55 -77 -55 -195zM328 579l6 6q-2 -6 -6 -6zM339 738v3q0 9 9 9q12 0 12 -10v-2q0 -10 -11 -10h-3q-7 0 -7 10zM364 579v4q0 12 7 12q6 0 6 -12v-4q0 -11 -6 -11q-7 0 -7 11zM364 648v2q0 10 6 10h2q5 0 5 -10v-2q0 -10 -5 -10h-2 q-6 0 -6 10zM371 608q6 9 20 9h14q0 -15 -25 -15q-5 2 -9 6zM377 718v2q1 5 3 8q8 -3 13 -9q-5 -3 -13 -3zM382 581q0 14 11 14q10 0 10 -12v-4q0 -11 -10 -11q-11 0 -11 13zM393 750q3 2 6 2q6 0 6 -2v-2q0 -9 -6 -9q-3 4 -6 11zM407 738v3q0 9 6 9h1q6 0 6 -9v-3 q0 -10 -6 -10h-1q-6 0 -6 10zM416 639v3q0 9 6 9q11 0 11 -9v-3q0 -11 -9 -11h-2q-6 0 -6 11zM479 737l8 4q3 4 3 9h16l-19 -9q-2 -4 -8 -4zM530 758v2q0 10 8 10h2q7 0 7 -10v-2q0 -8 -7 -8h-2q-8 0 -8 8zM541 811v3q0 11 8 11q11 0 11 -11v-2q0 -10 -10 -10h-2q-7 0 -7 9z M551 790v2q0 10 10 10h2q6 0 6 -10v-3q0 -9 -7 -9q-11 0 -11 10zM642 973l8 -6h-2q-5 0 -6 6zM663 435v3q0 13 7 13q9 0 9 -13v-3q0 -9 -9 -9q-7 0 -7 9zM693 447v3q0 10 10 10h2q6 0 6 -10v-3q0 -10 -7 -10q-11 0 -11 10zM706 469v3q0 10 7 10q9 0 9 -10v-3q0 -9 -8 -9h-2 q-6 0 -6 9zM738 555v3q0 10 8 10h2q5 0 6 -10q1 1 2 1q11 0 11 -10v-3q0 -10 -10 -10h-2q-6 0 -6 10h-2q-9 0 -9 9zM833 252l13 10v-21zM855 219v11h9z" />
<glyph unicode="P" horiz-adv-x="714" d="M53 117q0 79 15 236.5t15 237.5q0 62 -5 73l-12 9v17q4 5 12 13l-12 13l12 12v108l-12 15q18 2 18 16q0 49 -6 55q-8 22 -12 37q10 9 12 17q4 1 5 6q0 41 -17 41l23 15v140q29 13 129 13h94q21 0 59 -1t56 -1q12 0 35.5 -5.5t34.5 -5.5q7 0 20.5 5.5t20.5 5.5 q8 0 52.5 -102t79.5 -102q-9 -2 -24 -9q0 -20 12 -47.5t12 -38.5q0 -37 -13 -109t-13 -109q0 -19 2 -36q-75 -180 -163 -219q-12 -6 -20.5 -24.5t-16.5 -25.5v29q-21 0 -62.5 5t-62.5 5q-20 0 -25 -14q0 -4 -1 -20q-6 -86 -6 -88q0 -85 11 -137q5 -24 4 -27q-4 -12 -8 -25 q0 -20 8 -39q6 1 6 -9q0 -25 -28.5 -42.5t-54.5 -17.5q-27 0 -81 6.5t-80 6.5q-13 46 -13 117zM296 673q31 -13 64 -13q7 0 21.5 2t21.5 2l-15 9q26 0 48.5 21.5t22.5 46.5q0 11 -6.5 31t-6.5 30q0 13 6.5 22.5t6.5 15.5v11q-4 6 -13 39l-6 2q-5 -3 -17 -6q0 7 6 22 q-10 8 -26 20q-2 5 -7 7q-12 -9 -36 -32q5 9 5 16q0 27 -37 27q-24 0 -24 -32q0 -24 31 -24l-31 -13q4 -10 4 -41q0 -35 -12 -52v-111zM308 770q0 14 13 14q11 0 11 -14q0 -11 -11 -11q-13 0 -13 11zM360 798q0 8 13 8h4q12 0 12 -6q0 -11 -16 -11q-9 0 -13 9zM391 727v3 q0 11 12 11q9 0 9 -13q0 -12 -9 -12q-12 0 -12 11zM443 421q2 -8 6 -11q5 3 10 7q0 9 -8 9h-2q-4 0 -6 -5zM601 1246q0 36 15 36q30 0 30 -37v-28q-13 -6 -22 -6q-23 0 -23 35z" />
<glyph unicode="Q" horiz-adv-x="828" d="M22 1352h492h-3q0 -1 179 -12q58 -4 175 -11q-7 -25 -48 -24q-13 5 -13 13q-102 0 -185 7q-3 0 -13.5 2t-14.5 2q-38 0 -111 -3q-77 -4 -110 -4q0 -6 -3 -17t-3 -17q0 -9 10 -9q237 0 330 -218q64 -148 64 -423q0 -303 -69 -462l69 -99v-25q0 -24 -39.5 -48t-66.5 -24 q-18 0 -38 24t-33 24q-28 0 -81.5 -17.5t-81.5 -17.5q-207 0 -297 232q-62 160 -62 408q0 187 31 313q40 164 143 277l3 5q4 -1 10 -5q28 14 82 43q6 12 6 18q0 24 -17 45q-13 0 -114 3q-59 2 -90 6q-10 2 -28 5q-25 0 -73 9zM263 800q0 -105 10 -215q0 -20 1 -60 q3 -122 22 -196q42 -167 155 -167q4 0 12 -3.5t11 -3.5q6 0 6 17v4l-131 142v20q0 31 39 65t72 34h20l74 -90q47 66 47 307q0 139 -25 255q-40 179 -125 179q-188 0 -188 -288zM437 1043v25h18v-25h-18zM441 760v3q0 13 14 13q9 0 9 -15q0 -11 -7 -11h-3q-13 0 -13 10z M458 981v3q0 12 8 12q11 0 11 -14q0 -11 -11 -11q-8 0 -8 10zM471 757l1 2q3 2 8 2q0 -1 4 2.5t19 25.5v-13q-8 -9 -23 -26q-4 0 -8 4zM482 798v3q0 12 6 12h2q11 0 11 -13q0 -11 -13 -11q-6 0 -6 9zM482 906v5q1 13 5 13h1q7 -8 7 -14q0 -7 -10 -13q-3 4 -3 9zM509 817l5 6 q51 -13 51 -53v-20q-56 38 -56 67zM516 713v2q0 10 10 10h2q8 0 8 -11q0 -9 -8 -9h-2q-10 0 -10 8zM576 714v11h15zM612 1222v7q-1 5 8 5h3q15 0 15 -11q-5 -4 -16 -4q-6 0 -10 3zM817 813v34q0 81 15 135v-159zM825 561q0 151 7 215q2 -21 2 -62v-309q0 -61 -4 -69 q-5 9 -5 225z" />
<glyph unicode="R" horiz-adv-x="797" d="M23 1225q0 10 16 14q210 45 358 45q139 0 217 -149q64 -121 64 -274q0 -145 -66 -268q58 -174 155 -419q13 -32 28 -82q0 -1 -13 -15q-24 0 -73.5 -8t-74.5 -8q-31 0 -48 40l-24 45q-26 51 -53 116q-5 11 -13 35q-16 6 -40 113q-22 99 -74 99q-5 0 -15 1.5t-15 1.5 q-24 0 -27 -26q1 9 1 -45q0 -249 39 -267l-8 -17v-123q-46 -16 -140 -16q-49 0 -54 18q-2 23 -7 64l-17 152q-21 187 -57 487q-1 4 -37 241q-22 139 -22 245zM258 996q0 -56 11 -143q16 -120 40 -120q161 0 161 71v155q-17 26 -57 73h-144q-11 0 -11 -36z" />
<glyph unicode="S" horiz-adv-x="773" d="M15 1122q0 59 9 106q13 62 64 120q109 121 256 121q156 0 241 -105q77 -96 77 -255q0 -17 -74 -27q-54 -7 -93 -7l-2 -5l-2 3v2l-7 2l-2 2q-11 164 -121 164q-142 0 -142 -125q0 -150 74 -183q22 -10 29 -10q3 0 14 17q6 -21 29 -30q87 -35 117 -35l13 -7h36 q47 -1 104 -78q50 -66 66 -121q49 -6 49 -20q0 -7 -7 -8q-11 -3 -14 -5v-10q0 -2 3 -7.5t3 -7.5q0 -11 -14 -20q34 -34 34 -95h-11l-15 29q0 -103 -28 -226q-6 -6 -9 -13q-40 -81 -102 -114q-31 -17 -147 -52q-1 -4 -6 -10l16 -58l14 9q-2 -5 -2 -10q0 -10 9.5 -27t9.5 -28 q-24 0 -41 30t-35 30q0 8 5.5 15t5.5 15q0 15 -25 34q-18 0 -54 5.5t-54 5.5q2 0 -67 -21v10q11 11 15 20v9q0 14 -38 44q-48 38 -50 39q-74 87 -74 215q0 33 57 33q5 0 13.5 -3.5t12.5 -3.5q16 0 48.5 3.5t48.5 3.5h12l22 -101l7 -7l23 45l6 -9q-4 -15 -16 -43v-6 q0 -14 21 -30q0 10 7 14t17 4v-31q6 0 16 -2t16 -2q10 0 21 8v-2q75 0 100 26q21 22 21 79q0 12 -1 44.5t-1 53.5q0 82 -59 113q-18 6 -52 18q-68 23 -197 83q-62 37 -105 76q-95 86 -95 309zM16 649q23 0 23 -41v-15h-3h-1q-19 0 -19 56zM110 32v24q0 11 2 19q2 -1 3 -1 q25 -12 25 -49q0 -10 -13 -10q-17 0 -17 17zM248 1049v10q0 22 16 22q0 -17 -16 -32zM301 1213v2q1 10 15 10q11 0 11 -15l-5 -4q-6 1 -20 4zM336 1196q0 18 15 21q10 -4 10 -21q0 -6 -6 -13q-3 -1 -7 -1q-12 0 -12 14zM453 912v8l20 -21h-6q-14 0 -14 13zM690 162h11 l13 -29h-2q-22 0 -22 29zM708 635q0 -7 6 -7q4 0 4 7v2q0 5 -4 5q-6 0 -6 -5v-2zM723 556q0 -6 6 -6t6 6v1q0 6 -5 6h-1q-6 0 -6 -6v-1zM744 127v6l3 7l3 2q0 7 2.5 21.5t2.5 21.5h17v-93q-3 10 -13 30q-5 2 -15 5zM744 410v22q2 -3 6 -8q5 0 20 2v36l2 -211q0 22 -4 68 t-4 70q-3 4 -5 7l5 8q0 6 -20 6zM753 132q0 -5 6 -5q4 1 5 5v2q-1 5 -5 8q-6 0 -6 -8v-2zM787 1234v26q0 31 6 58v-101q-6 8 -6 17z" />
<glyph unicode="T" horiz-adv-x="967" d="M41 1092q74 25 239 61q444 96 592 96q9 0 36 -17l32 -234q3 -22 -140 -48q-21 -13 -110 -13v-65q0 -112 27 -262q26 -130 52 -259q1 -4 27 -112q17 -70 17 -110q0 -34 -114 -58q-90 -19 -149 -19h-30q-17 26 -99 438q-14 92 -29 184q-17 104 -52 184h-65q-23 0 -74 -7.5 t-113 -7.5q-47 108 -47 249zM135 351q2 5 10 5h3q5 0 7 -2q-3 -2 -6 -3q0 -10 -5 -11q-6 3 -9 11zM135 428q0 11 11 11h2q4 -1 6 -3q-2 -5 -5 -8q0 -6 -4 -9q-4 1 -10 9zM260 363q9 24 45 24v-24h-45z" />
<glyph unicode="U" horiz-adv-x="763" d="M56 928v65q0 100 9 170v-5q-2 -32 45 -32q2 0 10 3.5t11 3.5q16 0 46.5 -3.5t45.5 -3.5q13 5 78 28q17 -38 17 -45q0 -110 5 -329.5t5 -329.5q0 -168 87 -168q69 0 69 133q0 113 -3.5 338.5t-3.5 338.5q0 52 7 62l210 -10q4 -22 11 -65q8 -52 8 -244v-152q1 -151 1 -152 q0 -149 -2 -232q-1 -16 -13 -51q-42 -123 -200 -165q-56 -16 -116 -16q-209 0 -270 234q-24 91 -30 398q-1 34 -6 130q-4 82 -4 130q-15 -13 -17 -31zM61 986q0 -20 3 -20q5 0 5 23q0 26 -5 26q-3 0 -3 -23v-6z" />
<glyph unicode="V" horiz-adv-x="813" d="M41 288q0 19 17 19q16 0 43.5 -13.5t27.5 -27.5q0 -4 -1 -12t-1 -11q0 11 -43 21.5t-43 23.5zM47 293l5 -5q3 2 4 5q0 4 -4 6q-5 -2 -5 -6zM52 978v43q0 11 6 17v71q126 0 154 15q-2 0 -2 2q0 9 16 16q0 -11 34.5 -24t36.5 -26q37 -291 62 -299q-5 -5 -5 -17 q0 -23 12 -74.5t12 -68t11 -82.5q5 -6 15 -24q0 -55 24 -164q24 173 52 331h-5q4 7 13 31q11 95 26 214l4 -4q3 1 5 4q0 5 -5 7q-3 -2 -4 -5q10 30 24 91q13 88 18 88q2 -1 1 -2l211 -3v-25q0 -68 -58 -308q-10 -36 -22 -107q-13 -160 -44 -270q-27 -89 -68 -270 q-5 -40 -17 -122l-258 -2l-39 172q-14 19 -32 49q-2 17 -4.5 24t-33 11t-30.5 15t7 11q3 0 7 -2.5t7 -2.5q22 0 47 5q-17 3 -48 14q-3 10 1 18q-15 -12 -26 -32q-1 9 -23 20t-22 20q4 4 41 28v-25q16 -1 16 42q0 14 17 34t17 34v-1q-2 0 -34 125l-14 -5v5l-5 -6q-2 0 -4 -1 q-8 0 -8 20q0 11 9.5 17.5t9.5 14.5q0 18 -16 59q-14 37 -10 56q-13 -12 -14 -18h-5q0 23 -5 44l1 9q0 6 -7 11q4 1 7 4q-2 9 -5 29q-4 -1 -5 8t-10 12l20 41q-1 0 -1 3l-2 11l-10 52q-12 60 -18 60q-17 0 -25 -18zM56 600q13 0 28 -5l4 -12l7 -7l-20 -19q-1 -4 -6 -5h-6 q-7 27 -7 48zM57 288q1 -1 4 -2l15 -4q22 -7 25 -7h2q-5 3 -18 7q-25 6 -27 6h-1zM65 559q0 -5 4 -7l6 5v1v2q0 5 -6 5q-4 -2 -4 -6zM73 589q0 -5 4 -6q4 2 4 6q0 5 -4 6q-4 -2 -4 -6zM86 424v10q0 15 11 32q6 0 13 -6q-3 -12 -18 -43q-4 1 -6 7zM151 583q0 -4 4 -7q4 1 4 6 v2q0 6 -4 7l5 4q0 4 -5 7q-4 -2 -4 -7l4 -4q-4 -3 -4 -8zM216 1184q0 37 17 43q23 9 29 22q17 -19 17 -41q0 -8 -6 -34q-11 -3 -47 -7q-10 6 -10 17zM290 1266q8 4 8.5 14t5.5 11q12 0 18 -7v-4q0 -20 -25 -20q-7 0 -7 6zM473 693v1h2q-1 -1 -2 -1zM619 43v24q0 28 41 53 q4 -9 4 -18q0 -57 -19 -70l6 -7l-18 -18q3 5 3 11q0 18 -17 25zM633 43h5l-5 7v-7zM690 183q0 48 13 56l13 -13v-5q-12 -25 -20 -38h-6zM728 67l5 21l-3 7h36v-7q-16 -7 -36 -21h-2zM737 809l6 -1q18 0 18 -24q-6 -8 -17 -25zM748 299q0 28 20 28q19 0 19 -16q0 -10 -29 -15 q11 -5 31 -14q-29 7 -34 13l3 1q-5 2 -10 3zM776 538q0 8 6.5 20.5t6.5 22.5l1 -1l3 -1q5 -4 11 -14v-2q0 -13 -13 -13q2 -33 2 -20q0 -7 -7 -7h-6q-4 21 -4 15zM780 344q0 21 13 32v-15q0 -15 -6 -28q-7 2 -7 11z" />
<glyph unicode="W" horiz-adv-x="1122" d="M10 1241v31q0 10 9 44v3q4 14 4 24q0 9 -6 16l29 51q-2 0 -8 -2t-7 -2q-8 0 -8 17q34 0 34 -26q0 -4 -3 -12.5t-3 -12.5q0 -9 11 -15t11 -16q0 -9 -4.5 -14.5t-4.5 -6.5v-4q3 -3 9 -5q-6 -11 -22 -11v59q-14 -6 -14 -28q0 -9 4.5 -23t4.5 -20q0 -11 -9 -20l-6 14l-14 -50 zM19 1288q0 -4 4 -6q6 1 6 5v2q0 6 -6 7q-4 -3 -4 -8zM19 1302q0 -4 4 -6q6 0 6 6v1q0 7 -6 8q-4 -3 -4 -9zM19 1316l4 -5q4 1 6 5q0 5 -6 6q-4 -2 -4 -6zM46 1390l5 -4l4 4q0 6 -4 7q-5 -2 -5 -7zM57 611q1 6 5 8q14 0 19 1q4 23 9 195q0 6 2 21t2 22q0 15 -4.5 44t-4.5 44 v2l9 11q0 64 3 192t3 192q38 0 96.5 24.5t79.5 25.5q0 -15 9 -17q-4 -1 -7 -6q-30 -11 -90 -29l144 7q9 -15 9 -93q0 -98 -7.5 -294t-7.5 -294q0 -39 6 -52q17 66 45 140q106 271 106 302q0 6 -4.5 11t-4.5 9v7l47 47l77 -7q36 -71 41 -71q2 0 4 2q-7 -8 -7 -23t36 -130 t41 -118q15 -58 54 -169l6 4v165h-22q0 17 -11 34l-4 -1q41 21 41 31q0 5 -2 15.5t-2 15.5q0 27 5 81.5t5 82.5v273l5 19l256 4v-273l4 -7l-2 -2q-3 -6 -3 -15q0 -7 3 -28h19l-17 -10q3 -6 17 -14q11 -6 11 -21q-9 -10 -19 -32h8v-13q-9 0 -21 -7q-7 -394 -22 -800l-86 -11 q-10 8 -153 8q-10 9 -16 24q-42 103 -162 366q-31 68 -54 136l-3 4q-10 -1 -89 -189l-140 -331q-24 -10 -52 -10q-30 0 -91 3t-91 3v491h-28zM310 1430q10 12 22 30h48q-10 -28 -54 -30q4 1 4 7v1q0 5 -4 6q-5 -2 -5 -6q0 -5 5 -8h-16zM461 0q0 12 12.5 26.5t13.5 25.5h-19 q12 14 36 43q6 -31 6 -70q0 -47 -27 -47q-22 0 -22 22zM494 293q0 29 16 36q16 -19 20 -30q-9 0 -15 -6v-5q6 -6 6 -56q18 -4 18 -15q-22 0 -35 9q-10 17 -10 67zM506 245q0 -4 4 -6q4 2 5 6v1q0 5 -5 6q-4 -2 -4 -7zM855 13q0 20 6 23l75 -21l-13 -4q18 0 18 -39 q-57 -49 -77 -49q0 10 -3.5 29t-3.5 28q0 11 4 13q-6 4 -6 20z" />
<glyph unicode="X" horiz-adv-x="730" d="M22 876v61q8 -62 19 -185q2 -65 10 -115q9 -60 9 -102q0 -19 -2 -34q7 -5 7 -19q0 -28 -7 -43q-36 294 -36 437zM41 1086q9 18 88 18h71q26 -48 107 -234q10 -20 29 -61h6q4 8 14 23v6l-14 24l7 8q0 67 35 77q7 2 18 45q15 58 31 105q9 25 54 33q34 4 69 7q20 3 27 3 q19 0 19 -14q0 -24 -32 -103q-4 -16 -12 -47q-12 -43 -29 -97q-82 -264 -82 -284q0 -12 49 -113l205 -419q1 -8 4 -24q-2 -5 -4 -7q-21 0 -62.5 -6t-62.5 -6h-30q-76 167 -168 345q-26 -82 -53 -164q-28 -96 -28 -169h-5q1 -4 2 -9q-4 -14 -26 -25q-58 -7 -156 -7 q0 41 21 72q9 39 30 119q10 31 20 66v25l-7 11q0 7 13 20v7q0 11 -10 19t-10 29q0 8 7 22t7 22q0 4 -1 11.5t-1 11.5q0 11 8 17q13 -13 13 -54q0 -11 -6 -13l-7 7q-7 -6 -7 -11q0 -3 14 -7q2 -6 4 -18q7 0 41 101.5t34 127.5v9q-40 70 -140 287q-94 205 -94 214zM63 365h6 q0 -14 5 -41t5 -40h-6q-10 0 -10 81zM77 226q0 7 1 23t1 24q5 -6 5 -32q0 -12 3 -44t3 -48h-6q-7 35 -7 77zM133 498q0 16 7 20v50h11v49q24 18 49 43q0 -35 10 -47l5 -2v-3q-8 0 -11 -8q-5 -12 -8 -15q-7 8 -7 15l-9 -3q3 -32 3 -18q0 -4 -3.5 -11.5t-3.5 -10.5 q0 -11 20 -7q-7 -7 -7 -14h-6l-11 -24q6 -5 6 -11q0 -10 -14.5 -12.5t-14.5 -19.5h2v-11q-18 0 -18 40zM142 496l4 -2l4 4l-4 3zM153 525q0 -5 4 -7q5 1 5 6v2q-1 4 -5 5q-4 -2 -4 -6zM157 550l5 -1q3 1 3 4v3v1h-2q-1 0 -3.5 -1.5t-2.5 -3.5v-1v-1zM160 583q1 -4 5 -4l3 5 q-3 3 -6 3zM167 536l5 -5q4 2 4 5v1q0 5 -4 6q-5 -2 -5 -7zM172 622l4 -5q1 1 2 1v-1q0 -4 5 -6q4 1 4 5v2q-1 4 -4 6q-2 -1 -3 -2q0 4 -4 6q-4 -2 -4 -6zM178 618q1 3 2 4q0 -2 -2 -4zM185 284l4 -5q3 2 5 5q0 4 -5 6q-4 -2 -4 -6zM185 410l4 -2l4 1q-2 4 -4 6zM185 426 q0 -5 4 -7q5 1 5 6v2q-1 4 -5 5q-4 -2 -4 -6zM191 621q1 -3 3 -5q4 3 4 8q0 1 -2 5l-2 1q-2 -3 -3 -8v-1zM196 333q0 -4 4 -6q5 1 5 6v1q-1 4 -5 6q-4 -2 -4 -7zM356 905l5 -4q3 1 4 4q0 5 -4 7q-5 -2 -5 -7zM367 931q7 -5 7 -11h7q0 15 -7 17zM370 894q0 -4 4 -6q4 1 4 6v1 q-1 4 -4 6q-4 -2 -4 -7zM385 -69q9 6 19 6q11 0 11 -25h17q0 -9 4.5 -16.5t4.5 -12.5v-3q-5 0 -56 51zM546 -39q4 -2 8 -2q5 0 9.5 2t6.5 5q-3 4 -7 14q14 11 26 11q21 0 21 -11q0 -27 -36 -27q-20 0 -28 8zM581 1266q9 0 25 -5.5t24 -5.5q0 -55 -17 -66q-15 12 -24 62 q-4 3 -8 15zM597 1225l5 -4q3 1 4 4q0 5 -4 7q4 1 4 6v1q0 6 -4 7q-5 -2 -5 -7t5 -7q-5 -2 -5 -7zM608 1201q1 -4 5 -5q4 2 4 5q0 6 -4 7q-5 -2 -5 -7zM667 770q0 10 1 30.5t1 31.5q16 -50 16 -102q-18 0 -18 40z" />
<glyph unicode="Y" horiz-adv-x="675" d="M-9 811v9q3 3 9 12q0 9 2 27.5t2 28.5h26v-120q-7 13 -23 36zM2 820q0 -6 5 -9q8 0 8 7v3q0 11 -8 11q-5 -4 -5 -12zM56 1178l185 7q3 -4 7 -11q10 -9 39 -126q36 -145 38 -151q9 4 11 25q0 8 11 49q14 69 51 203l12 11h187l-162 -579q3 -14 -7.5 -15.5t-10.5 -16.5l1 -1 l1 -5q7 23 30 23q35 0 35 -62v-31q0 15 -27 29q-32 17 -38 25q-2 -3 -2 -9q0 -8 5.5 -14.5t5.5 -14.5l-9 13l-6 -458l-179 -2l9 485h2zM169 1302h212q40 0 382 -16l7 -9l-7 -11h-150q6 0 -89 7q-210 14 -355 29zM428 571q0 -8 6 -8h2q11 0 11 8v2q0 8 -12 8q-7 0 -7 -8v-2z M437 551q0 -8 12 -8q4 3 4 9q0 11 -4 11q-12 0 -12 -10v-2zM527 630v3l11 12h10l6 -12l22 12v-19q0 -33 -22 -58q-1 13 -14 32.5t-13 29.5z" />
<glyph unicode="Z" horiz-adv-x="831" d="M-80 86l17 135l-11 -101l122 -51zM-55 288q0 51 11 153t11 150l9 6zM64 172l27 161l405 830l-279 28l21 192l524 -63l-19 -180l-136 -259v-11q6 -8 12 -25v-7q-3 -6 -10 -6q-12 -23 -25 -23l5 31q-9 -6 -261 -526l314 -19l-26 -187q-50 3 -148 11q-161 12 -161 14h2 q-9 -18 -28 -38l-10 8q15 13 18 24q-2 3 -3 6l1 2l-6 5q-23 0 -217 32zM96 81l4 -2h5q6 -6 11 -10l90 -13l9 21h8q3 -8 8 -23h9q3 6 9 19l15 -21q99 -13 105 -13q23 0 61 -4q32 0 91 -5q79 -12 237 -37l-7 -6q-137 13 -190 13h1l-1 1h-3l-14 2q-8 1 -164 17q-73 7 -278 43z M233 865q0 5 13 18q-9 4 -9 11q0 19 16 41l23 -30l-21 -8h4q19 1 19 -50q0 -19 -40 -54q-5 23 -5 72zM569 503q11 11 24 56l4 -5h3q12 -6 18 -18l-2 -2q0 -19 -8 -19q-5 0 -15 3q0 1 0 -27q0 -12 -12 -12l-6 1q-7 7 -6 23zM578 376l11 61q3 -18 3 -28v-9q0 -6 -1.5 -17 t-1.5 -16z" />
<glyph unicode="[" horiz-adv-x="498" d="M56 -7q3 7 30 8q-13 20 -30 15v1265q130 3 189 29v-13q23 1 54 3l-15 15l22 19l34 -19l-20 -14q77 6 111 7q-1 3 -1 6q0 17 24 24q21 -7 21 -24t-21 -24q-17 4 -22 15l-4 -30l-15 -8q-7 -1 -13 -4l18 -8q12 -20 7 -37q-24 -72 -28 -80q-19 -33 -69 -44q-14 -3 -84 -10v-9 q0 -15 22 -24q7 -2 52 -11l-4 -25l-18 3q-51 -15 -51 -81q32 -26 32 -50q0 -11 -16 -48.5t-17 -70.5q6 6 18 10q21 -9 21 -25t-21 -24q-12 4 -18 9q4 -43 31 -57q-11 -65 -30 -102v-236q0 -19 16.5 -36.5t16.5 -19.5q0 -3 -5 -6q-28 -11 -28 -33q0 -6 11 -81h60 q-57 -38 -57 -53q0 -22 16 -22h28h-3q8 28 45 28h25q41 0 41 -18q-7 -7 -14 -10h28v-60h-22q15 -14 23 -33q-6 -22 -28 -39l-23 20q-4 -6 -11 -15l-15 -3l-16 8l-10 16l-6 1q-19 0 -65 -22q-52 -24 -107 -24q-26 11 -43 35l-46 -18v35zM272 592l22 24l30 -25l-30 -18z M281 501q0 16 21 27q22 -11 22 -27q0 -17 -22 -24q-21 7 -21 24z" />
<glyph unicode="\" d="M79 1255q9 0 25 5.5t25 5.5q0 -4 -8 -15q-2 -17 -5 -32.5t-19 -29.5q-18 11 -18 66zM92 1201q2 -4 5 -5q4 1 4 5q0 5 -4 7q-5 -1 -5 -7zM103 1225q2 -3 5 -4l4 4q0 5 -4 7q4 2 4 7t-4 7q-5 -1 -5 -7v-1q0 -5 5 -6q-5 -2 -5 -7zM108 1126q0 14 19 14q6 0 27 -3 q34 -3 69 -7q44 -8 53 -33q17 -47 32 -105q5 -22 18 -45q35 -10 35 -77l6 -8l-14 -24v-6q5 -5 14 -23h7l1 1q5 0 29 -113t29 -113q1 0 2 1v-9q0 -26 34 -128q16 -50 40 -101q2 6 5 18q13 4 13 7q0 5 -7 11l-6 -7q-7 2 -7 13q0 41 13 54q9 -6 9 -17q0 -4 -1.5 -11.5 t-1.5 -11.5q0 -8 7 -22t7 -22q0 -21 -10 -29t-10 -19v-7q7 -7 14 -20l-7 -11v-25q9 -31 20 -66q4 -16 29 -119q21 -31 21 -72q-98 0 -156 7q-22 11 -25 25q1 5 2 9h-5q0 72 -29 169q-26 82 -53 164q-68 217 -68 230q0 20 -83 284q-17 54 -28 97q-3 17 -12 47q-32 79 -32 103 zM329 920h7q0 6 6 11l-6 6q-7 -2 -7 -17zM331 894q0 -5 5 -6q4 2 4 6q0 5 -4 7q-4 -2 -5 -6v-1zM344 905q2 -3 5 -4l4 4q0 5 -4 7q-5 -2 -5 -7zM505 333q0 -5 4 -6q5 2 5 6q0 5 -5 7q-4 -2 -4 -6v-1zM516 284q2 -4 4 -5l5 5q0 4 -5 6q-4 -2 -4 -6zM516 425q0 -5 4 -6 q5 2 5 7q0 4 -5 6q-4 -2 -4 -5v-2zM517 409l3 -1l5 2l-5 5q-2 -2 -3 -6z" />
<glyph unicode="]" horiz-adv-x="471" d="M47 97q0 15 22 26q21 -11 21 -26q0 -7 -2 -11q18 -9 18 -24q0 -17 -24 -23q-22 6 -22 23q0 7 4 13q-17 7 -17 22zM56 1149v156h256l44 26v-26h55v-62l20 20q26 -21 26 -24q0 -2 -26 -18l-20 15v-137l26 -24l-12 -4q37 0 37 -12q0 -24 -50 -34l11 -84l2 -6q16 -21 16 -44 q0 -17 -15 -60.5t-15 -74.5q0 -23 7 -68.5t7 -68.5l-1 -4l7 6q27 -17 27 -19t-27 -22l-22 19l-13 -5q14 -9 16 -19q0 -11 -19 -66h-4q8 -7 21 -15q3 -70 -6 -106l-2 -8q5 3 11 5q21 -10 21 -26q0 -5 -2 -9q30 0 30 -19q0 -17 -62 -17q2 -7 15 -54q10 -33 10 -55 q0 -62 -20.5 -102t-20.5 -51q0 -14 14 -43q18 -36 21 -67l-98 -6l-14 -10l-20 -2l-23 4q-8 8 -11 15h-148q-22 18 -22 35t26 31q10 -3 32 -14h12q28 0 28 29q0 3 -1 7q-9 5 -21 11l-9 21q18 76 84 107v8h-26v317q9 5 12 7q0 3 -5.5 13t-6 16t-2.5 111q-3 158 -13 473 q-1 34 -137 34zM245 34q0 -10 37 -15q36 5 36 15q0 31 -43 31q-30 0 -30 -31zM397 343q0 -13 3 -28v26q-2 1 -3 2zM400 519l25 17q6 1 14 3q33 -4 33 -14t-33 -23z" />
<glyph unicode="^" horiz-adv-x="406" d="M66 966q2 10 11 23q4 -6 4 -24q1 -2 2 -5v-1q-6 3 -17 7zM74 984l1 -2l2 2l-1 2zM76 970l1 -3l2 3l-1 2l2 2l-2 2l-1 -1l1 -3l-2 -1v-1zM85 1010q0 5 44.5 86.5t48 92.5t20.5 11q39 0 54 -30q17 -34 18 -34q14 -4 18 -25l3 -3l-3 -9v-3q3 -1 7 -7l2 1h1q1 -1 2 -3 q12 -31 33 -73q2 -2 2 0v-4q0 -15 -42 -15q-18 0 -21 10q-20 40 -60 117l-6 -12q0 -2 -2 -4q-1 -1 -1 0h-3q-2 -3 -6 -7l-1 -2l4 -10l-3 -2q-4 -22 -18 -26q-12 -21 -28 -50q-6 -8 -22 -8q-41 0 -41 9zM179 1069l1 -7q3 2 1 7h-2zM181 1078q2 -2 2 2zM273 1126l3 1l1 4l-3 2 zM276 1118l2 -3l1 3l-2 2z" />
<glyph unicode="_" horiz-adv-x="519" d="M22 -34h484v-117h-484v117z" />
<glyph unicode="`" horiz-adv-x="311" d="M54 1197l103 55l95 -242l-44 -31z" />
<glyph unicode="a" horiz-adv-x="745" d="M8 11h249l24 17v-8l11 8q6 0 18 2t18 2q54 0 76 -12q8 3 25 8v-17h336q0 -52 -47 -52q-68 0 -206 1t-207 1q-50 0 -149 7t-148 7v36zM42 398q0 255 434 255v30q0 58 -37 76q-24 11 -89 11q-7 -6 -37 -52q-19 -28 -56 -28q-68 0 -170 11l-14 11q0 39 14 79q22 62 128 93 q78 24 167 24q97 0 181 -27q117 -37 130 -111q9 -47 9 -80q1 -3 11 -12v-36l-11 -9v-284l11 -11v-129h-192q-16 0 -34 59h-11q-118 -83 -189 -83q-99 0 -169 56q-76 60 -76 157zM267 428q0 -79 89 -79q87 0 107 79q13 51 13 79l-13 13h-41q-155 0 -155 -92zM695 278 q0 -10 7 -10q9 0 9 10v3q0 9 -8 9h-2q-6 0 -6 -9v-3z" />
<glyph unicode="b" horiz-adv-x="533" d="M30 991v61l19 21h132l34 -201q17 17 51 17q9 0 26 -1h26q116 0 147 -86q29 -81 35 -235q1 -34 1 -85q0 -102 -19 -152q-31 -81 -102 -109q-15 -6 -132 -12q-120 -7 -150 -7q-16 0 -19 19q-4 36 -27 356q-22 316 -22 414zM215 735q0 -116 10 -258q5 -77 6 -77v4 q0 -47 19 -73q8 -11 19 -11h12q28 0 28 18t4 48q3 35 4 49l7 142v-1q0 196 -75 196q-34 0 -34 -37z" />
<glyph unicode="c" horiz-adv-x="737" d="M28 628q0 142 103 239q102 94 245 94q87 0 169 -40q100 -49 100 -126v-15q-116 -45 -192 -45q-19 0 -50.5 41t-59.5 41q-101 0 -101 -123q0 -94 42 -191q51 -120 131 -120q6 0 19 2t19 2q48 42 48 144q50 38 189 62q27 -15 27 -66q0 -130 -117 -213q-106 -75 -241 -75 q-150 0 -245 122q-86 113 -86 267zM98 -46q0 3 15 3h7q7 0 14 -3q0 -6 -18 -6t-18 6zM183 -20h29q5 0 5 -2q-5 -5 -15 -5h-5q-10 0 -14 5v2zM252 2q3 2 10 2h6q10 0 10 -3q0 -7 -13 -7t-13 8zM324 24q0 3 11 3h3q11 0 11 -3q0 -6 -12 -6q-13 0 -13 6zM394 47q3 2 10 2h6 q10 0 10 -3q0 -4 -11 -5q-15 0 -15 6zM481 56q5 17 28 17q24 0 39 -17h-67zM595 84q7 8 26 8v-8h-26zM716 133q3 2 10 2h6q4 0 8 -3q0 -9 -13 -9q-11 0 -11 10z" />
<glyph unicode="d" horiz-adv-x="684" d="M-31 58q0 105 21 163v-163h-21zM6 512v152q0 6 12 102q35 277 35 307l19 47q8 -54 8 -84q0 -2 -8 -20q-16 -32 -19 -74l-16 -178q-7 -80 -7 -141q0 -20 1 -38q-9 -12 -10.5 -35t-14.5 -38zM44 473q0 146 50 247q65 131 195 131q29 0 81.5 -18t81.5 -18q3 78 7 112 q7 65 24 109q19 0 56.5 1t56.5 1q82 0 86 -22q1 -11 3 -33.5t2 -85.5q0 -27 -21 -48v-329l-18 -17v-249l-11 -9q11 -2 11 -24q0 -36 -38 -36q-35 0 -103.5 13.5t-103.5 13.5q-20 0 -59 -9t-59 -9q-110 0 -178 86q-63 80 -63 193zM251 441q0 -23 44 -41q37 -15 65 -15 q35 0 61 61q22 51 22 92q0 126 -81 126q-40 0 -72 -19q-39 -23 -39 -60v-144z" />
<glyph unicode="e" horiz-adv-x="884" d="M-54 903v320q7 -51 18 -191q19 -250 19 -361q15 -24 17 -67q13 -294 13 -473v-103q-5 38 -35 438l-25 336q-7 92 -7 101zM13 2h12v-11h-12v11zM25 565q0 166 112 275q78 78 223 130q15 6 44 15q13 3 41 8q5 -2 15 -8h43q56 0 114 46t71 46q40 0 40 -36v-11q-88 0 -88 -45 v-18l22 26q33 -19 92.5 -147t79.5 -139v-180l-548 -39q13 -90 48 -130q41 -47 128 -47q43 0 78 42q56 67 60 71q20 0 93 11q95 14 96 14h17q6 -4 28 -25q-6 -11 -15 -35q-32 -111 -165 -191q-7 -3 -14 -13q-63 -24 -118 -24q-168 0 -236 1q-49 1 -122 59q-139 112 -139 344z M288 640q141 0 262 31v28q0 41 -41 65.5t-40 33.5h-37q-144 0 -144 -158zM643 1030q0 -11 11 -11q6 0 6 11v4q0 11 -6 11q-11 0 -11 -12v-3zM714 985v8h14v-8h-14z" />
<glyph unicode="f" horiz-adv-x="451" d="M42 525l13 9v108q0 16 11 20q18 5 36.5 11.5t18.5 25.5v141q40 110 187 110q11 0 32 -2t31 -2q21 -9 21 -43q0 -109 -24 -109q-3 0 -12 1h-4q-31 0 -31 -110q55 0 69 -21q10 -15 10 -73v-57q-75 0 -75 -66q0 -5 9 -8q9 -35 9 -65q0 -13 -2 -39.5t-2 -39.5q0 -29 10 -29 q3 0 9 1q-24 -15 -24 -90v-342q-15 -1 -59 -6q-40 -5 -57 -5q-49 0 -60.5 44.5t-28.5 44.5q-8 0 -19 -3q31 30 31 58v18q-10 3 -10 15t10 17v147q0 173 -20 319q-46 0 -79 20zM317 524q0 -8 11 -8q4 3 4 9q0 9 -4 9q-11 0 -11 -8v-2z" />
<glyph unicode="g" horiz-adv-x="692" d="M36 638q0 122 34 182q43 75 153 89q38 3 109 13l41 17q14 0 44 3.5t45 3.5q36 0 53 -4q33 -27 83 -386q45 -328 45 -429q0 -119 -108 -176q-83 -44 -212 -44q-24 0 -151 14l-2 97q-1 6 55 12q97 9 129 18q84 23 91 76q-15 23 -46 23q-24 0 -71.5 -7.5t-71.5 -7.5 q-118 0 -178 205q-42 144 -42 301zM260 649q0 -101 51 -324q16 -16 9 -52q13 -3 23 -3q44 0 44 35q0 4 -1 9l-56 430q-1 6 -21 26q-8 1 -14 1q-20 0 -22 -9q-13 -59 -13 -113z" />
<glyph unicode="h" horiz-adv-x="663" d="M-7 1302l11 14v-388q-10 110 -10 278zM12 108q3 19 22 16q18 9 22 26q-5 14 -11 44l-2 -3l2 -2l-2 1v1l2 3l2 3l-2 1l2 4l-3 6q0 1 1 1h9q0 150 -4.5 454.5t-4.5 456.5v47q1 24 92 24q15 0 44.5 -1t44.5 -1l11 -13q11 -102 11 -206q0 -5 -4.5 -14t-4.5 -14q0 -10 6 -25 q30 29 163 29q136 0 182 -131q23 -67 29 -243q11 -298 11 -383q0 -65 -11 -65h-187l-33 11l20 9v97q0 126 -10 344q0 55 -7 163q-3 18 -22 31.5t-38 13.5q-87 0 -87 -89q0 -14 2.5 -41t3.5 -39l7 -324q1 -42 22 -82.5t21 -62.5q-6 -9 -14 -11l23 -20q-5 1 -10 1 q-33 0 -33 -41h20v19h34v-15h56q-50 -9 -142 -49v38q-14 0 -29.5 -16t-30.5 -16q0 31 1 33q4 10 29 10v11q-9 0 -27.5 2t-27.5 2q-26 0 -31 -11h43q-13 -8 -60 -8q-26 0 -35 19l-23 -19q77 -39 77 -71q-11 -2 -32 -4q-15 -11 -20 -11q-44 0 -56 16q-10 13 -10 58t-1 36z M15 40l1 -3q0 -7 9 -7q7 0 7 7v3q0 9 -6 9h-2q-9 1 -9 -9zM34 241v9h11zM45 103l9 11h-9v-11zM86 21q3 -4 6 -4q9 0 9 8q0 1 -1 4l-2 2q-12 0 -12 -10zM205 39q1 4 7 4l4 -2l-1 -4l-3 -3q-4 2 -7 5zM248 59q0 -9 8 -9t8 9v3q0 11 -8 11t-8 -11v-3zM256 103l8 -4q3 0 3 8 q-1 0 -3 1h-1q-6 0 -7 -5zM331 155q0 14 11 21v-21h-11zM342 30q1 4 6 4h2q5 0 6 -4q-2 -4 -7 -6q-5 2 -7 6zM399 73h9v-10zM671 690q0 11 6 35t6 36l9 9v-366l-9 9z" />
<glyph unicode="i" horiz-adv-x="344" d="M-85 667v72l16 16l10 -16q6 -43 15 -131q13 -161 13 -451v-166q-4 60 -32 338q-22 206 -22 338zM55 200q0 20 6.5 60t6.5 60q0 5 -2 16t-2 16q0 28 21 31l-30 41v58q0 27 15 80t15 80v5l-17 26v12l17 29l-17 9q0 56 82 68q-82 28 -82 76q0 19 14 60q14 47 27 47h120 q41 0 41 -102q0 -30 -17 -61h-78q-20 -10 -20 -17t28 -10q22 -2 72 -4q41 -187 41 -305h-7q-2 -55 -2 -65q0 -14 9 -27l15 -11l-15 -28v-40l-9 16q-23 -54 -23 -169h-170q-9 0 -24 19.5t-15 29.5zM284 949q0 9 3 20q15 0 43 -10.5t43 -10.5q-8 -39 -45 -39q-44 0 -44 40z M307 245q0 6 4 9q8 0 8 -8v-1q0 -6 -8 -6q-4 2 -4 6zM324 215q1 3 5 4h2q6 -1 6 -4q0 -6 -6 -6h-2q-5 0 -5 6zM386 666v1q1 4 5 6q2 -2 2 -5v-2l-2 -6q-4 2 -5 6z" />
<glyph unicode="j" horiz-adv-x="306" d="M-22 -77q0 47 21 75q8 10 59 54v27q7 14 7 38v723q66 20 97 20q57 0 61 -54q36 -400 36 -831q0 -89 -121 -104q-14 -3 -41 -7q-16 1 -47 -2q-37 -5 -29 -5q-43 0 -43 66zM351 673v253l12 20v-635q-12 176 -12 362z" />
<glyph unicode="k" horiz-adv-x="640" d="M44 183l47 752q2 25 -14.5 38.5t-16.5 26.5q0 18 20 43t22 41h-36q21 24 47 68l176 -4q0 -81 -5.5 -245.5t-5.5 -246.5v-16l223 220q10 10 36 10q32 0 99 -77q-46 -54 -93 -108q-69 -82 -69 -106q0 -13 11 -35t11 -37l11 1l10 -12l-10 -8l116 -316h-181q-58 121 -131 249 q-49 -33 -58 -115q-14 -126 -17 -134zM550 441q12 12 32 12q21 0 21 -9q0 -5 -1.5 -16.5t-1.5 -17.5h32q0 -18 7.5 -28t7.5 -19v-7q-6 5 -20 11q-25 26 -77 74z" />
<glyph unicode="l" horiz-adv-x="356" d="M8 1165q0 18 26 18q34 0 85 5.5t86 5.5q17 -101 45 -303q17 -166 33 -332q23 -208 55 -323q23 -77 23 -194l-6 -7q-12 -2 -37 -7q-7 -2 -7 -1l15 2q-59 0 -65 -7q-9 -9 -21 -11q-67 -9 -70 -9q-20 28 -28 121q-8 97 -105 832q-29 216 -29 210zM10 813v23q7 -21 7 -44v-26 q-7 27 -7 47zM24 692q-1 9 -1 17q0 16 3 28q2 -14 2 -32q0 9 -2 -20l-1 -2v2zM32 612q0 9 1 26.5t1 25.5q6 -21 6 -30v-41q-8 9 -8 19zM46 550q9 -24 9 -47v-23q-8 18 -8 46zM62 415v20q6 -27 6 -43v-22q-6 26 -6 45zM71 301v4l2 13q2 -6 4 -14v-4l-4 -12q-2 6 -2 13z M79 271l3 5h2l2 -3l-1 -7zM111 58v17q11 -28 21 -73l-5 -4h-9q-7 59 -7 60z" />
<glyph unicode="m" horiz-adv-x="849" d="M-117 -144l13 88l4 -88h-17zM-94 78v23q0 29 15 71q0 -15 2 -45.5t2 -45.5q0 -38 -15 -81q-4 31 -4 78zM-59 309q0 5 3 9l3 -2q7 0 10 -5q-1 -5 -10 -14q-6 0 -6 12zM24 176q0 37 36 340q38 322 52 342q214 -40 301 -40q22 0 44 2q24 -41 95 -41q22 0 66 4t66 4 q92 0 129 -71q0 -39 5.5 -118t5.5 -118q10 -20 20 -52q-13 -18 -45 -18l10 -142l-34 -18l6 -158q-14 -11 -40 -36q-19 -5 -85 -5q-84 0 -84 84q0 77 27.5 229.5t27.5 229.5q0 11 -1.5 32.5t-1.5 31.5q-10 -3 -18 -3q-19 0 -18 16q-9 1 -18 -2q-30 -97 -30 -123q-3 -6 -3 -15 q0 7 8 -45q-4 -17 -11 -75q-25 -199 -41 -316q-11 0 -35 -1.5t-35 -1.5q-71 0 -91 8q-42 15 -42 71q0 78 34 231t34 231q0 59 -39 59q-46 0 -56 -85q0 -62 -1.5 -123t-20.5 -67q0 -110 -38 -282q-21 0 -62.5 -2.5t-61.5 -2.5q-55 0 -55 46zM930 793l38 2l2 -17zM953 723 l17 18l3 -18h-20zM971 870v3q0 8 8 8q8 -4 10 -9q0 -5 -8 -7q-2 -2 -5 -4q-4 3 -5 9zM1047 803l1 2q0 6 4 10q6 -7 8 -11q-3 -4 -8 -4l-3 -2q-1 2 -2 5z" />
<glyph unicode="n" horiz-adv-x="714" d="M-91 -95q3 8 9 11h12q19 0 35 -6v-5q-2 -2 -7 -4l-2 4h-47zM-91 378v3l4 11h5q5 -6 6 -11q5 2 17 16q11 11 17 11q11 0 11 -16v-5q-5 3 -10 4q-1 -2 -5 -2q0 2 -6 -30q1 -2 2 -3l-2 -4l-1 -3q-15 0 -20 -13q-7 -17 -14 -20v9q4 8 11 26q-15 -5 -15 27zM-91 441l2 30v-13 q13 13 13 24q-2 3 -6 4q0 18 11.5 19t11.5 11q0 15 -14 26.5t-14 25.5q0 7 5 15l-5 6v6h5q0 22 21 22q-1 0 110 7q6 5 6 14q0 18 -5 28q-9 13 -10 19l3 1l3 4q0 17 -13 17q1 3 6 5t5 6q-4 0 -12.5 -3t-12.5 -3v6q21 0 21 12v16l-5 9q1 7 11 15l-2 12h-9q5 -1 5 -6v-6l-21 12 q0 43 27 43v76q18 18 102 18q20 0 60 -1t59 -1l18 -55l34 35v8q4 3 12 7q80 30 126 30q44 0 110 -20q22 -17 60 -60q0 -81 13 -220q15 -161 17 -221l5 -6l-2 -7q2 -5 8 -6q-1 8 -1 17q0 36 10 88q-2 6 -7 11v120q0 7 7 7h4q0 -22 10 -66l-2 -7q0 -45 -4 -136t-4 -137 q-4 -1 -4 -24l-7 -4l-2 11v-59q2 -4 6 -4q5 0 7 2q-11 -19 -11 -27v-5l11 5v-131h-4q-2 11 -7 29q0 28 -9 37q16 5 16 40q-2 5 -7 11v-42q-11 0 -32.5 -4.5t-32.5 -4.5q-4 0 -10.5 2t-10.5 2q-16 0 -48 -2t-49 -2h-62l4 9l-17 339h-9q2 6 6 9q1 6 2 17q-1 9 -12 227 q-10 19 -19 29h-56q-2 -2 -11.5 -7.5t-9.5 -12.5v-152q0 -21 4 -64q10 -6 12 -11h-12q17 -355 17 -343v-52q-13 0 -37 -4.5t-36 -4.5q1 -27 -7 -27q0 33 -43 33q-15 0 -28 -6h-93q0 82 -20 101v6q5 4 8 6h-13q21 27 21 76q0 65 -10 75v79q-8 16 -8 67v52.5v21.5q-1 9 -3 16 h-77q-4 -4 -21 -6q-12 -1 -12 -17v-2l5 -4q-2 -7 -5 -20l-6 4q0 -22 22 -22q0 -14 -5 -23h2q8 -10 11 -15v-2q-3 -4 -11 -19v-5q2 3 7 5h4q-8 -26 -13 -41q0 21 -9 21h-2q0 -36 -16 -36q-7 0 -11 6q-6 10 -8 11zM-87 523q5 4 11 8h5q1 -3 7 -8v-3q-2 -5 -18 -13q-5 4 -5 16z M-84 364q0 -3 2 -3q3 1 5 4q-2 5 -5 7q-2 -2 -2 -6v-2zM-82 739q2 7 11 16q-4 1 -11 4v2q0 19 11 26q-3 -6 -3 -10t9.5 -11t9.5 -14v-2q-2 -5 -9 -15q-6 2 -18 4zM-76 370l5 -5q3 2 5 7q-2 3 -5 4q-5 -2 -5 -6zM-76 1043v6q0 5 3.5 10t3.5 11h2q15 0 71 -12q60 -13 76 -20 h-22q-18 0 -52.5 5.5t-51.5 5.5q-15 0 -30 -6zM-69 572q1 -4 5 -4l3 4q-1 4 -3 7q-5 0 -5 -6v-1zM-69 750q2 -4 5 -4l3 4l-3 5q-4 -2 -5 -5zM-66 273l2 2q0 7 9 7q18 0 18 -32h-18q0 5 -5.5 11.5t-5.5 11.5zM-64 486h3v5h-3v-5zM-64 1054l3 -5q3 2 4 5q-2 5 -4 5zM-59 356 q1 -4 4 -5q2 0 3 1v7q-1 1 -3 2zM-50 503q2 -4 6 -5v5l-6 4v-4zM-44 174q12 12 18 20q7 -7 7 -20h-25zM-26 92l4 11q0 8 -4 9v10q0 16 14 16q9 0 9 -26q0 -5 -3.5 -13t-3.5 -13q2 -9 9 -30h-6q-19 0 -19 36zM25 -95h62q-7 -6 -32 -6q-22 0 -30 6zM35 138v6l5 9l-5 4l5 8 q16 -6 16 -18q0 -3 -1.5 -10t-1.5 -11q0 -14 8 -25q15 -10 15 -24q0 7 -8 -21q7 -6 12 -9l-2 -1l-2 -3v-7l4 -2v-4q0 -8 -14 -32q-1 17 -11 49l-9 -4l-6 34q6 0 6 7q0 9 -5.5 26.5t-5.5 27.5zM40 806l6 5h-6v-5zM42 791l4 -4l3 4l-3 4zM68 -13q7 3 19 6h4v-13l5 2l3 -4l1 -6 l-9 -6zM71 245q1 -4 5 -4l4 4l-4 5q-5 -2 -5 -5zM96 -90h20q-8 12 -11 21v6l21 -12l-5 -4q5 -9 19 -10t16 -10h-60v9zM173 -95l140 5q6 0 20.5 -2.5t21.5 -2.5h108q2 7 18 7v-2q2 4 16 9q0 -16 -7 -18q-19 -4 -55 -4h-191q-20 0 -67 4zM236 1023l6 7h338q17 0 52 2t52 2 q0 -36 -10 -45v30h-17q-41 0 -121.5 -4.5t-120.5 -4.5h-55q-92 0 -124 13zM352 572l8 28q11 0 11 -8v-3h-2q-4 -6 -9 -17h-8zM373 449q11 11 15 20q-1 -9 3 -25t4 -23q-10 0 -13.5 12t-8.5 16zM411 503l1 4zM483 -18q6 6 11 16h5q12 0 12 -16q-5 -10 -17 -10h-4q-3 3 -7 10z M596 -99q11 5 74 20v-20h-74zM599 99q19 0 19 -19q0 -11 -11 -33q-8 16 -8 52zM668 387l2 -97v82q7 3 9 9q-9 0 -11 6zM668 396l2 -4q3 1 4 4q-1 5 -4 6zM670 28q0 26 11 26v-26h-11zM672 408l1 -1q6 0 8 2l-4 4zM677 656v322h4v-322h-4z" />
<glyph unicode="o" horiz-adv-x="684" d="M24 467l3 41l9 160q3 36 3 65q0 14 7 39q10 32 11 39v-70h14q6 61 68 101q56 30 112 61h175q77 0 95 -30q7 -12 18 -12q25 0 25 36q0 13 -30.5 50.5t-30.5 59.5q0 34 21 34q22 0 31 -37t27 -37q11 0 30 9t31 9q0 -8 -5.5 -21t-5.5 -20q0 -15 6.5 -43t6.5 -43 q-21 0 -32.5 9.5t-26.5 9.5q-22 0 -22 -34q0 -22 26 -47.5t26 -43.5h26q-10 0 -10 -19q0 -13 11 -12l-11 -9q2 -31 2 -60q0 -65 -16 -138q-21 -20 -21 -43q7 -5 21 -13v-48l-5 1q-14 1 -14 -41q0 -22 -13 -21l-8 12h-75q-8 -23 -28 -23q-7 0 -21.5 1t-22.5 1 q-19 0 -59.5 -6.5t-60.5 -6.5q-198 0 -251 207q0 -146 -3 -182q-8 -146 -8 -190h-10q-5 4 -11 14zM57 1232q0 16 1 42l1 22q3 -5 3 -20v-85q0 -13 -2 -17l-1 -5q-2 29 -2 63zM251 554q9 -6 35 -48q17 -29 53 -29q26 0 52 22.5t26 48.5v142q0 25 -26.5 48t-51.5 23 q-43 0 -57 -20q-15 -26 -31 -51v-136zM544 376h12q17 0 22 13l-14 7h-9q-11 -13 -11 -20z" />
<glyph unicode="p" horiz-adv-x="565" d="M34 63l5 10l-5 6v7q4 -1 7 -7q4 11 11 27h-6q0 5 4.5 9t4.5 12v62q-9 -2 -9 7v4l5 -4l4 2v111l-4 5l4 4q0 59 2.5 177.5t2.5 177.5q0 12 -3 62l-2 4q7 2 7 11v7l-1 -1l-4 -1v-3q-4 1 -2 3l-3 1l-1 1q0 -19 -2.5 -59t-2.5 -60q0 -29 -5 -32v99v-4q1 0 8 103v-32q2 -3 8 -6 l5 -1l2 1v81l65 4q4 -3 12 -4l7 4q25 -4 83 -4q11 -21 13 -36q5 0 10 2l4 2v-1q9 11 29 26q41 16 83 16q14 0 75 -13q6 2 11 0q17 -18 23 -18l2 -2l6 4q-1 -5 13.5 -38t14.5 -45q0 -52 -3 -156.5t-3 -155.5v-92q4 -3 13 -7q0 -3 -4 -7l-9 1q0 -93 -96 -108q-13 0 -36 -7 q-81 0 -135 54v-264l-4 -9q-8 0 -22 -2t-21 -2h-138q0 9 -6 13q4 2 4 7q0 6 -4 9l3 3l-1 9l-9 3l-3 -1q-2 -2 -2 -5v-7l-1 3q0 2 1 4v25zM39 67l2 -4q3 0 5 4q-1 5 -5 6q-2 -3 -2 -6zM51 41h4v4zM53 90l2 -2l3 1q-1 4 -3 6q-2 -1 -2 -5zM57 888q0 9 10 8.5t11 3.5q-1 2 -1 5 l1 -3v-2q1 -5 5.5 -6t4.5 -6v-9l-4 -4h-2q-14 13 -25 13zM71 890l2 -4l4 4q-2 4 -4 4zM244 374q0 -27 37 -27t37 19v75q-2 5 -2 10l2 2q4 31 4 51v120l-4 4l4 10v2q-2 4 -4 9q4 20 4 22q0 38 -5 41q-13 7 -25 13q-3 -3 -23 -9q-16 -4 -16 -13v-39l5 -4l-5 -4q-4 -12 -4 -31 v-161q9 3 9 -6q0 -8 -7 -8.5t-7 -8.5v-67zM253 811l5 -2l2 2l-2 3q-2 -1 -3.5 -1.5t-1.5 -1.5zM258 447l2 4l2 -3l-2 -1h-2zM264 699v4h5v-4h-5zM300 449v2l3 2h4l-1 -1l-3 -1zM303 441l2 2q2 0 2 -1v-1l-1 -2zM311 410l5 5l2 -5l-2 -2zM314 462v1v2h1l1 -1v-2h-2zM316 548 l2 4l4 -4l-4 -5zM322 -18q2 3 10 6q5 2 5 12q13 0 13 -22l-4 -6l2 -4q11 0 11 -20v-2l-4 -1l-1 -1q-10 13 -32 38zM337 32h13v-17q-13 0 -13 17zM393 25v7h13q12 0 12 -10v-2l-4 -1l-1 -1q-4 7 -20 7zM395 961v4h23v-4q0 -23 -10 -28q5 10 0 20q-8 6 -13 8zM420 -22q0 6 5 9 q5 0 6 -5h3v-2l-3 -2q0 -8 -6 -8q-5 2 -5 8zM431 -7l5 5q6 1 17 2q0 -9 -8 -18zM456 -77q1 8 38 8v-8h-38zM502 -57q5 5 13 12v-30q-13 0 -13 14v4z" />
<glyph unicode="q" horiz-adv-x="592" d="M-9 81q0 7 6 7q4 -2 4 -7l-4 -4q-4 1 -6 4zM19 77q15 9 31 19q12 8 12 33q16 0 29.5 -23.5t13.5 -40.5l-14 -11v-18q36 0 36 -58v-8l-11 -13q-19 12 -37.5 48.5t-32.5 48.5q-16 0 -27 23zM57 604v142q0 6 13 27q38 65 134 65q65 0 101 -23q-3 9 -3 16q0 18 61 32 q50 12 82 12l11 -13l104 -657q10 -33 25 -97q16 -89 25 -220q-80 -23 -131 -23q-14 0 -31 14q-21 19 -28 22q25 12 25 34q0 66 -25 164h-12q-16 -6 -22 -22l-36 35l11 12q49 1 49 16q0 2 -6 14t-7 15q-11 -8 -36 -23l-95 -47q-42 23 -82.5 46.5t-67.5 82.5q-18 -7 -18 -50 q-30 0 -30 39q0 13 15 18.5t15 16.5h-25q10 13 32 34q-17 65 -40 255zM197 54q0 18 11 23v-23h-11zM219 546l8 -44q8 -60 28 -177q10 -50 54 -50t66 39v54q0 331 -109 331q-26 0 -47 -24v-129zM251 9q0 4 4 6q5 -2 5 -6q-2 -4 -5 -5zM298 351q0 8 7 8q3 0 4 -7v-1 q-1 -4 -4 -4q-5 0 -7 4zM316 65q0 23 12 23q11 0 22 -11v-12q-6 -16 -22 -22q-12 4 -12 22zM328 370v13l11 11h11l-11 -35zM593 129q0 4 4 6q5 -2 5 -6l-5 -5z" />
<glyph unicode="r" horiz-adv-x="600" d="M-43 817q0 31 5 45q4 -13 4 -37q0 -23 -4 -36l-1 -1q-4 9 -4 29zM-32 747v10q1 19 4 19q5 0 5 -26q0 -23 -6 -23q-2 5 -3 20zM-17 595v8q0 15 3 15q5 0 5 -21q0 -19 -5 -19q-3 0 -3 17zM-13 849l13 13v-13h-13zM-4 465v7q0 11 3 11l1 -1q1 -6 1 -10v-6q0 -4 -1 -11h-1 q-3 2 -3 10zM-4 524v6q0 17 4 27q2 -11 2 -25v-6q0 -11 -2 -21l-1 -1q-3 0 -3 20zM9 354v29q13 -27 13 -74v-27q-13 24 -13 72zM22 766h15v-14zM37 813v124l11 11q20 0 61.5 6.5t62.5 6.5q8 0 23.5 5t23.5 5q37 0 51 -22.5t36 -24.5q-13 -5 -13 -49q81 110 217 110 q53 0 53 -142v-37q0 -5 -50 -19q-22 -6 -66 -19q-74 -25 -97 -70q-19 -35 -19 -119q16 -4 16 -17q0 -5 -1 -16t-1 -17q0 -27 9 -68q12 -52 14 -67l51 -24q-45 -8 -55 -53q-5 -41 -11 -83q-11 0 -23 -12t-12 -24q0 23 -25 23q-7 0 -21 -4.5t-22 -4.5q-5 0 -13.5 4.5 t-17.5 4.5t-27 -4.5t-28 -4.5q-45 0 -67 36q0 81 -23 135v221q0 27 -6.5 81t-6.5 81q0 39 -24 47zM460 1180h7q5 -2 11 -7q-4 -1 -9 -1h-2z" />
<glyph unicode="s" horiz-adv-x="685" d="M50 333v142l6 11q5 -1 12 -1q22 0 22 13l-2 7l-1 -1l-1 1q52 0 52 31h2v21l5 -5q1 -9 1 -29q-5 -4 -11 -16l5 -2q-2 -4 -5 -7v-7q27 -11 50 -11q2 0 13 2l4 9q8 -9 17 -9q7 0 7 9l11 -14h45q0 -86 -1 -85q8 -31 61 -31q52 0 52 47q0 7 -5 11q-1 -8 -11 -8q-4 0 -13 1 t-14 1q4 9 23 18q15 7 15 29q0 15 -15 29t-30 14v9q-5 -2 -8 -5q-29 28 -59 42q-46 20 -58 27q-21 17 -41 34q-24 18 -49 18l6 8v2q-19 18 -38 47q-32 53 -32 130q0 152 122 212q22 6 61 17q5 1 12 3h181q88 -30 108 -40q46 -24 77 -81q19 -33 19 -47v-122h-62l-7 -16h-6 q-24 0 -27 11q-21 -1 -40 -1q-88 0 -88 12v60l-5 2l5 7v2q0 33 -50 33q-56 0 -56 -65q0 -60 80 -72v-7q8 -5 21 -16q18 -6 52 -22q-2 4 -2 8q0 10 15 14q3 -1 9 -2q10 -9 7 -32q8 -14 29 -33q3 -2 26 -11q19 -7 19 -17q0 -3 -2 -6q59 -78 59 -99q2 -2 11 -21v-153 q0 -5 -22 -32q-9 -12 -27 -35q-71 -86 -165 -86h-159q-24 16 -58 16v6q-52 4 -45 5v-18h-6q0 25 -7 32q-33 32 -88 108zM110 494l3 -4l4 -2q3 5 3 10l-3 3q-6 -3 -7 -7zM293 1208q0 13 11 43l5 -8v5q-1 18 13 18q0 4 -2 8q1 4 7 5q9 -8 9 -19q-5 -6 -5 -17l-4 -9q1 -5 4 -6 q0 -28 -22 -88q-5 6 -12 16v5q5 1 7 4v43h-11zM329 779l2 8q8 4 25 13q3 -2 5 -5v-7q0 -12 -18 -12h-5q-6 0 -9 3zM430 1257q6 1 18.5 6t20.5 5v-6l-7 -2l-9 -9h-8q-8 0 -15 6zM471 694l4 -4l2 4q0 5 -2 7q-4 -3 -4 -7zM583 1191v5h8q10 0 9 -11v-5h-8q-10 0 -9 11zM622 333 l4 -4q3 1 4 4l-4 5zM622 1092q9 69 34 69h2l-1 -4q-2 -1 -4 -5q0 -5 3.5 -13t3.5 -13q0 10 -2 -15q-11 -9 -31 -19h-5zM649 1122l7 4l-7 7v-11z" />
<glyph unicode="t" horiz-adv-x="518" d="M5 965q0 41 88 42v261h216q7 -22 24 -62q0 -56 26 -152q52 -2 101 -24q25 -92 25 -104q0 -21 -56 -37q-61 -17 -70 -38q2 -79 38 -504q67 -40 115 -99q14 -18 14 -61q0 -35 -94 -35q-139 0 -190 32q-25 15 -54 56.5t-32 68.5q0 55 -4 158q-14 224 -59 384q-88 27 -88 114 z" />
<glyph unicode="u" d="M36 490q0 56 2.5 169.5t2.5 169.5q60 20 151 20h40q24 -207 28 -313q8 -247 35 -304q3 -6 30 -6q51 0 51 56q0 4 -3 13t-3 14q0 90 -8.5 270t-8.5 270q0 23 17 23h176q7 -40 22 -120q16 -87 21 -320q1 -108 15 -322q-58 -14 -252 -44l-77 -12h-13q-226 0 -226 436z" />
<glyph unicode="v" horiz-adv-x="720" d="M-23 881v36q80 16 142 16q60 0 99 -109q9 -27 40 -163q13 -59 79 -207q18 -42 46 -89q32 12 32 69q0 10 -1.5 31t-1.5 31l-11 -5q-18 18 -18 34q20 16 39 32q22 21 26 43q16 93 45 195h-45l26 28l-11 13q22 3 35 22t36 19q0 8 -4.5 23t-4.5 23t13 21h160q12 0 12 -9 q0 -47 -49 -250q-54 -228 -71 -291q-69 -262 -97 -274q-44 -19 -133 -19q-10 0 -29 -1t-28 -1q-36 0 -44 21q-21 53 -47 134q-68 208 -110 208l17 18q0 67 -71 202t-71 199zM412 525q2 -9 11 -9q7 0 7 9l2 2q-4 2 -8 2h-2q-8 0 -10 -4z" />
<glyph unicode="w" horiz-adv-x="799" d="M-73 829v39q0 57 11 97v-167q-11 15 -11 31zM-6 84v47q16 26 66 26q9 0 33.5 -7t31.5 -6l63 11q-23 11 -63 23l-131 764l194 11q14 -34 39 -231q11 -90 37 -269q25 112 43 336q2 16 26 164h146q10 -49 20 -144q11 -120 49 -343h11q0 18 9 85q10 103 35 307l14 89l2 6h182 q0 -82 -36 -242t-36 -242q0 -8 8 -16q28 -74 28 -106l24 12q-3 -8 -3 -17q0 -12 14 -42t14 -55q-30 0 -40 11q-35 37 -56 91q-27 -41 -51 -97q-13 -31 -23 -50q-21 -40 -32 -40l-135 -3q-14 0 -28 100q-12 109 -38 326q-33 -107 -59 -389q-2 -30 -45 -39t-43 -20v-4l-13 24 q-24 -16 -63 -60q-43 5 -97 25l-25 -25q59 -39 59 -82h-34l-25 -13q-49 0 -62 18q-10 14 -10 66zM-4 50q0 -14 12 -14q11 0 11 14q0 13 -11 13q-12 0 -12 -13zM55 120l11 11h-11v-11zM78 26q1 -3 4 -6q11 5 11 12q-2 5 -6 5q-9 0 -9 -11zM217 155q0 -4 2 -6q5 2 5 6 q-1 2 -4 2h-1zM232 63q0 30 22.5 54.5t52.5 24.5q6 0 13 -11q9 -3 26 -7v-18h24v25l73 -7h-41l63 -18q-46 -12 -132 -25q-14 25 -26 25q-22 0 -39.5 -21.5t-35.5 -21.5z" />
<glyph unicode="x" horiz-adv-x="847" d="M-9 845q45 0 55 4q23 10 40 10h29q19 -1 28 -1q10 23 21 46q15 31 31 31h4l13 -13q0 -12 -13 -23l-1 -2q-3 1 -8 6v-31q78 -14 72 -14h97q16 0 48.5 -4.5t48.5 -4.5l9 -13q-23 -23 -23 -50q0 -14 22.5 -40t22.5 -43h14q88 44 88 73v13q-74 0 -74 47v13q26 0 78.5 4.5 t78.5 4.5q75 0 119 -22q0 -28 -16.5 -54t-16.5 -43h11q0 -23 -11 -23q-48 0 -86 50h-13q-37 -34 -75 -68q-36 -40 -36 -92v-23l196 -254v-9q44 -37 77 -52q47 -21 47 -38q0 -56 -63 -56h-267q-49 0 -123 13l-9 9q0 33 17 33q4 0 14 -1h14q0 45 -45 102q-52 67 -60 96 q-35 0 -67 -56q-19 -43 -39 -86q-4 -5 -4 -7q0 -18 43 -40t43 -68q-40 0 -121 2.5t-122 2.5q-60 0 -60 45q0 13 55 30q62 19 78 44l107 165q9 14 26 43q-113 170 -178 251l-78 28q-38 20 -38 65zM53 342v26q0 15 4 21q0 3 9 15q9 -23 28 -50q-23 -12 -41 -12zM102 408 q0 18 12.5 37t28.5 19q33 0 33 -29q0 -31 -60 -31l13 -15l-13 -13q-14 6 -14 32zM165 496q0 52 25 63v-28q0 -36 -14 -58q-11 4 -11 23zM614 787q0 -11 11 -11q6 0 6 11v4q0 11 -6 11q-11 0 -11 -12v-3zM622 768q2 -3 7 -5q7 0 7 7q0 1 -1 6l-2 2q-7 -1 -11 -10zM645 550 l27 22l-13 11q26 12 31 12t14.5 -1t12.5 -1q3 25 3 15q0 6 -11 25h4q13 0 24 -31t38 -31q7 0 16 1q-3 -15 -31 -15q-5 0 -15 1t-14 1q-11 -11 -11 -40q0 -4 2 -10l-13 27l-37 -35q7 13 1 30q-6 20 -22 20zM694 572q4 -5 8 -7q4 3 7 7q0 7 -6 7h-2q-7 0 -7 -7zM696 763 q0 -11 13 -11q10 0 10 10v3q0 11 -10 11q-13 0 -13 -13zM827 766v106h15v-25q0 -66 -15 -81z" />
<glyph unicode="y" horiz-adv-x="535" d="M-9 645h16q14 -104 14 -196h-14q-8 65 -16 196zM11 788q0 13 6 23q43 14 150 14q20 -35 59 -104q24 -46 67 -284q15 138 55 412q19 11 99 11q26 0 67 -11q-20 -117 -35 -297q-24 -274 -24 -275q-21 -185 -56 -266.5t-83.5 -111.5t-137.5 -30q-6 15 -9 17q-1 0 -2 -1v111 q56 0 74 52q9 36 30 107q1 4 1 6q0 9 -10 27t-10 28q0 4 1 7l-53 126q3 -11 3 -20q0 -24 -30 -38q-26 -11 -53 -23q-12 28 -12 33q0 20 21 43.5t24 40.5h-33q33 47 33 73q0 17 -71 153.5t-71 176.5zM30 189v34q11 -8 23 -67q10 -50 11 -80l-1 -3l-2 -14q-7 -67 -7 -98 q-24 104 -24 228zM602 741q0 23 2 66t2 63q4 -23 9 -68q45 -632 45 -833v-120l-30 378q-28 371 -28 514z" />
<glyph unicode="z" horiz-adv-x="617" d="M-283 398q0 27 20 26h16q-16 -47 -16 -75q-20 23 -20 49zM-177 426q4 40 45 40q-4 -43 -38 -41zM-112 469q7 33 64 69q20 -27 62 -97q4 -6 31 -21q21 -12 21 -35q32 0 84 -47l218 374l-255 16l11 153h74q27 0 154 -3q30 0 89 -5q44 -6 130 -22l-9 -152l-255 -428 q-4 -13 -9 -39l-4 -4l4 -5q1 -6 5 -14q9 -7 27 -13q39 23 39 69q0 6 -1 10q27 -16 25 -42v-7l-5 -7q-5 -14 -11 -43l149 -9q7 -12 7 -66v-22q0 -43 -14 -78q-1 -3 -4 -5l-140 8q3 -22 -25 -22q-19 0 -19 15q0 3 1 10l-272 18l-11 11q1 4 1 28q0 144 74 226q0 4 1 11v10 q0 6 -8 9q-13 5 -15 7q-30 26 -91 78q-31 24 -89 75h-9q-2 1 -7 1q-7 0 -7 -12h-11zM5 496q0 5 1 11l4 2q22 -23 54 -38q-5 -4 -15 -11q-44 0 -44 36zM264 202q0 -22 30 -26l2 4q0 22 -32 22zM552 52q0 7 3 13q14 0 14 11.5t4.5 34t4.5 33.5l29 -2l-11 -146q0 -5 -1 -7l1 7 q-2 15 -15.5 35.5t-28.5 20.5zM570 61q0 -11 8 -11q12 0 12 14q0 13 -10 13t-10 -16zM582 512l2 34l13 -15q5 -2 10 -2q7 0 20 5l-13 -297q0 37 2 112t2 113v7q-4 4 -11 15l14 12q-9 0 -26 16h-13z" />
<glyph unicode="{" horiz-adv-x="584" d="M58 603q0 13 6 42q7 26 5 43q84 51 92 89q-2 2 -12 10v33l4 4l-4 4v32l13 9q1 13 1 26q0 43 -95 88l75 11l18 10h-1v9h-45v58h45v22q-10 19 -11 25q0 39 47 78q41 35 93 51l-9 9l43 46l26 -28l42 30l13 -17q21 8 33 8t28 -6l25 31l49 -45l-19 -17l20 -19q0 -21 -10 -32 v-69h-70q-21 -10 -34 -10q-14 0 -33 12q-18 -15 -26 -108q-3 -40 -3 -290q0 -19 -23 -64q-3 -6 -48 -48l4 -18q70 -31 70 -225q0 -38 -1.5 -113t-1.5 -113q0 -35 87 -35q10 0 24 2q6 -2 13 -2q10 0 56 4l-16 -165h-214q-21 18 -84 50q-49 26 -85 69l28 13l1 8q0 11 -7 32.5 t-7 32.5t7 27.5t7 19.5q0 14 -19 67l19 12v46h-23l5 48q8 0 18 4v5q0 5 -3 14h-56v57h33q-9 19 -21 41v19q-69 39 -69 73zM357 1247q14 -8 24 -25l-1 -3l4 -1v13l1 2l-25 17zM464 1228l12 -12q-4 10 -4 24l6 5l-3 3l-10 -8h-1v-12z" />
<glyph unicode="|" horiz-adv-x="304" d="M8 -101v252q13 -63 13 -183v-83zM30 1204l14 12v96q0 37 91 37h43q32 -45 36 -144q0 -50 2 -148q8 -304 25 -747q12 -193 12 -201v-118q-14 0 -37 -1q-11 0 -19 -4q-4 -1 -18 -2l-23 -2h-6h4q-6 0 -19.5 -1t-19.5 -1q-9 0 -10 11q-4 83 -14 248q-7 281 -23 678 q-1 60 -11 179q-3 36 -13 94z" />
<glyph unicode="}" horiz-adv-x="578" d="M35 1144l15 165h215q21 -18 84 -51q49 -25 84 -69l-28 -12v-8q0 -11 7 -32.5t7 -32.5q0 -12 -7 -28.5t-7 -18.5q0 -15 19 -67l-19 -13v-45h22l-5 -48q-8 0 -17 -4v-5q0 -6 3 -15h55v-56h-33q9 -19 22 -42v-19q69 -38 69 -72q0 -13 -6.5 -40.5t-5.5 -44.5q-84 -51 -91 -89 q2 -2 12 -11v-32l-5 -4l5 -4v-32l-13 -9q-2 -13 -2 -27q0 -42 96 -88l-76 -10l-17 -10h1v-9h44v-58h-44v-22q11 -21 11 -25q0 -39 -47 -78q-42 -35 -93 -51l9 -9l-43 -46l-26 28l-43 -30l-13 16q-20 -7 -32 -7t-28 6l-25 -31l-49 44l18 17l-19 20q0 21 9 32v69h70 q21 10 35 10t32 -12q18 14 26 108q4 40 4 290q0 18 23 64q2 5 47 48l-3 18q-71 31 -71 225q0 38 2 113t2 113q0 35 -88 35q-10 0 -24 -3q-5 3 -12 3q-10 0 -56 -4zM101 28l2 -3l11 9q0 6 1 12l-12 11q4 -9 4 -23zM193 41l25 -18l4 4q-15 8 -24 25v3h-4l1 -12z" />
<glyph unicode="~" horiz-adv-x="658" d="M75 1078v58q0 57 50 99q44 37 90 37q44 0 133.5 -55.5t115.5 -55.5q45 0 67 40l33 68h17v-40q0 -11 -8 -28q-8 -21 -10 -27q-6 -31 -48.5 -64t-73.5 -33q-12 0 -127 55.5t-127 55.5q-66 0 -89 -98q0 -12 -23 -12z" />
<glyph unicode="&#xa1;" horiz-adv-x="453" d="M75 790h4q27 -177 38 -437q1 -24 7 -127q5 -79 5 -128v-50l-7 -6l-5 6q-7 125 -13 250q-12 219 -25 228q0 5 3.5 13.5t3.5 13.5q0 40 -5.5 118.5t-5.5 118.5zM122 -1q0 27 11 38v-38h13q34 0 101.5 10.5t101.5 10.5q49 0 49 -15v-4q-45 0 -133.5 -13t-133.5 -13 q-9 0 -9 11v13zM146 1148q0 91 93 91q88 0 88 -93q0 -35 -27.5 -60.5t-62.5 -25.5q-91 0 -91 88zM172 857v100q60 7 115 7h33l47 -787v-67q-16 -5 -29 -5l-5 -1l-10 -1l-29 -2q-50 -3 -62 -3h-11zM349 1305v1v25h7q4 -44 24 -162q18 -101 18 -162v-26l-6 -6q-29 21 -29 214 q-7 13 -8.5 34t-4.5 65z" />
<glyph unicode="&#xa2;" horiz-adv-x="737" d="M28 628q0 201 183 294q-9 26 -14 36l-13 8l9 11l-13 70q-6 26 67 40l34 7q32 -28 49 -99q3 -14 7 -36q20 2 39 2q87 0 169 -40q100 -49 100 -126v-15q-116 -45 -192 -45q-18 0 -41 29q-29 37 -40 44q34 -152 93 -409q36 43 36 132q50 38 189 62q27 -15 27 -66 q0 -188 -216 -264q9 -32 14 -57l16 -84q-36 -7 -41 -10t-16 -7l-18 -5l-5 -1h3q-10 -2 -31 -7q-7 -1 -9 7q-16 51 -37 140h-18q-150 0 -245 122q-86 113 -86 267zM98 -46q0 3 15 3h7q7 0 14 -3q0 -6 -18 -6t-18 6zM183 -20h29q5 0 5 -2q-5 -5 -15 -5h-5q-10 0 -14 5v2z M242 694q0 -62 22 -137q27 -89 70 -135l-80 343q-12 -28 -12 -71zM252 2q3 2 10 2h6q10 0 10 -3q0 -7 -13 -7t-13 8zM324 24q0 3 11 3h3q11 0 11 -3q0 -6 -12 -6q-13 0 -13 6zM394 47q3 2 10 2h6q10 0 10 -3q0 -4 -11 -5q-15 0 -15 6zM481 56q5 17 28 17q24 0 39 -17h-67z M595 84q7 8 26 8v-8h-26zM716 133q3 2 10 2h6q4 0 8 -3q0 -9 -13 -9q-11 0 -11 10z" />
<glyph unicode="&#xa3;" horiz-adv-x="864" d="M49 765q0 8 15 21.5t23 13.5q14 2 33 0q-1 9 -1 16v20q5 -16 6 -36q14 -1 41 -3l-21 158q0 22 -3 66q-1 8 -3 21q-5 38 -5 74q0 153 87 249q78 85 180 85q105 0 157 -32q93 -58 132 -236v-16q-115 -45 -171 -45q-19 0 -40 41.5t-49 41.5q-51 0 -59 -26q-2 -4 -2 -77 q7 -49 25 -200l11 -90q29 -5 49 -3l21 15l10 1l24 -11l6 14q32 3 43 -20.5t21 -45.5q0 -10 -2 -42q-2 -26 -2 -42q-89 -28 -150 -41l38 -314q2 -15 19 -77h22q44 0 130 16t130 16q5 0 15.5 -1t14.5 -1q24 -77 24 -169v-25l-7 -6q-12 -3 -36 -8l-81 -12l-345 -44 q-69 -9 -70 -9q-20 28 -28 121q-2 24 -15 131l-45 356l-2 -1l1 1l-1 11q-18 5 -40 7v-35q-8 9 -8 19v16q-28 1 -79 -3zM155 529v21q9 -24 9 -50v-20q-9 18 -9 49zM171 418v17q6 -27 6 -43v-22q-6 26 -6 48zM180 301v4q0 8 2 13q4 -5 4 -14v-4q0 -7 -4 -12l-1 4q-1 4 -1 9z M188 271q1 4 3 5h2l2 -3l-1 -7q-4 1 -6 5zM220 58v17q11 -30 21 -73l-5 -4h-9z" />
<glyph unicode="&#xa4;" horiz-adv-x="1188" d="M49 452v88q0 5 16.5 12.5t24.5 7.5q-11 0 78 -6l-4 61q0 -2 9 37h-41v89q0 5 16 12.5t24 7.5h13q10 72 24 163v-104q0 -25 -3 -61l27 -3l1 3q15 64 75 183q3 6 127 153q3 -1 11 -5t10 -4q9 0 34 10q30 13 36 15q65 20 156 20q14 0 116 -9q182 -16 269 -110q2 -7 4 -21 q17 -12 45 -43q13 12 13 32q0 11 -4 20l16 -9l9 21v99l-9 11l9 9q-9 -1 -9 9q4 14 9 25l-16 7l-9 8v7q0 11 17 33t17 57q0 4 -2 7h-16q3 1 8 2q5 0 8 -2h22q0 -107 -13 -378q-5 -128 -16 -385q-9 -203 -9 -248q0 -214 -7 -260l-18 -9h-223q16 8 168 11q39 1 64 5v137 q0 45 -54 80q-76 -102 -255 -138q-5 -1 -22 -8t-21 -7q-9 0 -9 6h-118q-82 34 -151 34h-14q8 -16 8 -34q0 -15 -17 -15q-9 47 -74 103q-81 69 -97 93q-32 50 -50 93q-5 11 -9 32q-7 0 -19.5 3t-19.5 3t-7 -12v-38q1 -26 1 -38l11 -7q-11 -5 -11 -55q0 -9 11 -15v-233 l-32 431h-2h2l-1 8q-41 9 -127 9zM190 553q4 0 13 2h12h3q1 4 1 6q-2 6 -5 9q0 7 -2.5 22t-2.5 23q0 14 3 35l-15 1q-3 -56 -7 -98zM214 957v68q0 84 11 140v-140q0 -27 -11 -68zM490 1172v8q0 16 10 19q-10 2 -10 15q0 12 8.5 34t8.5 34q0 16 -7 27q0 9 20 9q25 0 25 -41 q0 -14 -7 -24t-7 -19q0 -17 9 -20q-18 0 -29 -16q-15 -22 -21 -26zM507 606q0 -55 1 -59l6 -2l8 8q32 0 41 -15t17 -30q-1 -7 -5 -20v-2q-5 -20 -6 -30q-27 -4 -48 -6q8 -39 31 -69q32 -16 35 -39q3 2 8 2v-13h22l-7 -16v-1q10 -17 95 -17q61 0 79 50q4 -15 8 -17l5 -1 q12 12 30 51q16 36 31 46q131 0 131 70q0 4 -4.5 12t-4.5 12q0 17 5 17q19 -6 21 -6q0 -11 7.5 -32t7.5 -33h-15v-27q12 0 24 10.5t38 10.5q17 -19 24 -19q16 0 17 10l17 -34h9q-9 26 -9 54q0 10 2.5 29.5t2.5 28.5h4v62l-9 4q8 7 9 11q9 40 9 172h-196q-1 -1 -11 -10h-9 q-72 38 -88 75q-7 17 -23 45q-1 1 -63 36q-7 0 -23 1t-24 1q-148 0 -187 -179q11 -1 22 -1l21 8h10l24 -8l7 8q32 0 43 -16q8 -14 16 -29q-5 -17 -11 -52q-86 -12 -145 -17v-34zM518 1291q0 -7 9 -7q3 0 4 6v2q-1 8 -4 8q-9 0 -9 -8v-1zM575 486v2l1 -2h-1zM585 503v17h10 v-17h-10zM612 493v2q0 8 7 8q4 0 4 -8v-2q0 -7 -4 -7q-7 0 -7 7zM626 451q2 4 10 4h3q5 0 9 -3q-6 -5 -12 -5t-10 4zM628 474v3q0 9 7 9h2q7 0 7 -10v-2q0 -8 -7 -8h-3q-6 0 -6 8zM628 502v2q0 7 7 7h2q7 0 7 -7v-2q0 -6 -7 -6h-3q-6 0 -6 6zM649 440v3q0 8 6 8q5 -2 5 -9 v-2q-1 -5 -5 -5q-6 0 -6 5zM773 374q3 2 8 2h2q5 0 9 -2l-1 -3q-4 -1 -6 -1h-2q-6 0 -10 4zM836 767v2q0 9 6 9q5 -2 5 -9v-2q-1 -8 -5 -8q-6 0 -6 8zM847 721q0 2 2 4l4 -4l-4 -3zM870 683q0 3 2 7v1q0 5 4 7q15 23 36 54q12 -48 36 -62q-31 0 -54 -26h-7q-17 0 -17 19z M872 689q0 -6 7 -6q4 2 4 7q-1 9 -4 9q-2 -1 -3 -1l-4 -8v-1zM947 752v4l3 1l5 -1q-3 -3 -5 -8zM952 673q2 4 5 5h1q5 -1 6 -5q-1 -4 -5 -4zM964 725v10q5 3 16 9q9 0 9 -8v-11q-5 -2 -16 -7l-6 4zM980 546v8q3 1 5 2l4 7q0 -5 -4 -7zM982 431q0 -5 6 -5h2q5 0 5 5v2 q0 8 -6 8h-1q-6 0 -6 -8v-2zM1088 473l2 4l2 -2q4 0 6 -2q-2 -4 -6 -7q-4 3 -4 7zM1090 754q3 6 9 7l2 -2v-1q0 -6 -5 -6h-2q-2 0 -4 2zM1096 730v1q1 3 3 5l2 -1l2 -5l-2 -5q-4 2 -5 5zM1111 569v2q0 8 6 8h1q6 0 6 -8v-2q0 -6 -6 -6h-2q-5 0 -5 6zM1117 718q5 15 18 26 q0 -21 -9 -26l-2 -4l-6 2zM1126 897l16 -43v72q-6 -8 -16 -18q0 -12 0 -11zM1139 817q0 -9 3 -13q4 5 4 14v5q0 11 -4 15q-3 -5 -3 -16v-5z" />
<glyph unicode="&#xa5;" horiz-adv-x="675" d="M-9 811v9q3 3 9 12q0 9 2 27.5t2 28.5h26v-120q-7 13 -23 36zM2 820q0 -6 5 -9q8 0 8 7v3q0 11 -8 11q-5 -4 -5 -12zM56 1178l185 7q3 -4 7 -11q10 -9 39 -126q36 -145 38 -151q9 4 11 25q0 8 11 49q14 69 51 203l12 11h187l-161 -575q9 -1 18 -1l17 9h7l19 -9l6 9 q24 0 33 -17l12 -30q-4 -18 -8 -54q-32 -6 -56 -9v-10q0 5 -2 9q-34 -5 -63 -8l-2 -91q21 -4 37 -4l17 9h7l19 -9l6 9q24 0 33 -17l12 -30q-4 -18 -8 -54q-74 -13 -124 -18l-3 -225l-179 -2l4 223h-6l6 3v4q-34 11 -105 11v91q0 5 13 13t19 8q13 0 38 -3.5t38 -3.5l1 82h-10 l10 5q-35 12 -109 12v92q0 5 13 13t19 8q-4 0 60 -7zM169 1302h212q40 0 382 -16l7 -9l-7 -11h-150q6 0 -89 7q-210 14 -355 29zM527 630v3l11 12h10l6 -12l22 12v-19q0 -33 -22 -58q-1 13 -14 32.5t-13 29.5z" />
<glyph unicode="&#xa6;" horiz-adv-x="304" d="M8 -101v252q13 -63 13 -183v-83zM12 1126l14 12v97q0 36 91 36h43q32 -45 36 -144q2 -41 11 -169q7 -98 7 -169v-117q-14 0 -36 -2q-12 0 -18 -2.5t-19 -3.5l-24 -1l-6 -1h4q-6 0 -19 -1h-20q-9 0 -10 11q-4 82 -13 247q-3 20 -14 99q-3 36 -13 95zM57 454l14 12v97 q0 37 91 37h43q32 -45 36 -145q2 -40 11 -169q7 -98 7 -169v-117q-13 0 -36 -1q-12 -1 -17.5 -3.5t-19.5 -2.5l-24 -2l-6 -1h1h4h-20q-13 -1 -20 -1q-9 0 -10 11q-4 83 -13 248q-3 20 -14 99q-3 35 -13 94z" />
<glyph unicode="&#xa7;" horiz-adv-x="690" d="M44 979q0 35 2 81.5t2 57.5q0 47 8 85q10 50 51 96q87 97 206 97q125 0 193 -84q62 -77 62 -205q0 -27 -134 -27l-2 -4l-2 2v2l-5 1l-2 2q-8 132 -97 132q-112 0 -114 -98v-9q1 -115 59 -141q18 -8 24 -8q2 0 11 14q5 -17 24 -24q69 -28 93 -28l11 -6h29q37 0 84 -62 q40 -54 52 -98q40 -4 40 -16q0 3 -17 -10v-8q0 -2 2.5 -6.5t2.5 -6.5q0 -9 -12 -16q6 -5 10 -24q2 -2 2 -4v-1q0 -1 -1 -2q12 -60 9 -193q4 -4 4 -9t-4 -6q-1 -33 -3 -65q11 -22 11 -51h-9l-5 8q-6 -79 -14 -82q-5 -41 -16 -85q-4 -5 -7 -10q-32 -65 -82 -92 q-25 -14 -118 -42q-1 -3 -5 -8l13 -47l11 8q-1 -4 -1 -8q0 -8 7.5 -22t7.5 -23q-20 0 -33.5 24.5t-27.5 24.5q0 6 4.5 11.5t4.5 12.5q0 12 -20 27q-15 0 -43.5 4.5t-43.5 4.5q2 0 -54 -17v8q9 9 12 16v7q0 12 -30 36q-39 30 -40 31q-60 70 -60 173q0 26 46 26q3 0 10 -2.5 t11 -2.5q13 0 39 2.5t39 2.5h9l18 -81l5 -5l19 36l5 -7q-3 -13 -13 -35v-5q0 -11 17 -24q0 8 5.5 11t13.5 3v-24q5 0 13 -2t12 -2q9 0 18 7v-2q60 0 80 22q17 17 17 63q0 10 -1 36t-1 42q0 66 -47 91q-15 5 -42 15q-55 18 -158 66q-47 29 -68 61q-97 155 -97 390zM49 458 q18 0 18 -33v-12l-2 -1q-16 -1 -16 46zM125 -19q0 9 1 15q22 -9 22 -40q0 -8 -10 -8q-13 0 -13 14v19zM235 1059v8q0 18 13 18q0 -14 -13 -26zM239 783q13 -54 32 -63q4 -1 12 -20.5t12 -19.5q2 0 11 13q5 -17 24 -24q69 -28 93 -28l11 -6h22v1q0 66 -47 91l-42 14 q-42 14 -124 48zM278 1188v2v2q0 9 12 9q9 0 9 -13l-4 -3q-5 1 -17 3zM306 1177q0 15 12 17q8 -3 8 -17q-1 -6 -4 -11h-6q-10 0 -10 11zM400 669v6l16 -17h-5q-11 0 -11 11zM400 949v6l16 -17h-5q-11 0 -11 11zM590 66h9l11 -23h-2q-18 0 -18 23zM605 726q0 -5 5 -5q3 1 3 5 v2q0 4 -3 4q-5 0 -5 -4v-2zM617 663q0 -5 5 -5q3 1 4 3l-1 7q-1 1 -2 1h-1q-5 -1 -5 -5v-1zM634 38v5l2 5l3 2q0 6 2 17.5t2 17.5h14v-75q-3 8 -11 24q-4 2 -12 4zM634 266v18q1 -3 5 -8q4 0 16 2v29l2 -169q-1 17 -4 56q-3 36 -3 55q-2 3 -4 5l4 7q0 5 -16 5zM641 42 q0 -4 5 -4q3 1 4 4v2q-1 4 -4 6q-5 0 -5 -6v-2zM668 1208v21q0 25 6 46v-81q-6 7 -6 14z" />
<glyph unicode="&#xa8;" horiz-adv-x="505" d="M33 1034q0 58 54 58q56 0 56 -58q0 -54 -49 -54q-61 0 -61 54zM314 1041q0 51 55 51q58 0 58 -58q0 -54 -61 -54q-52 0 -52 61z" />
<glyph unicode="&#xa9;" horiz-adv-x="1083" d="M-69 1105v7q0 9 3 9q1 0 2 -1q2 -7 2 -12v-3q0 -5 -2 -10q0 -1 -1 -1h-1q-3 3 -3 11zM-55 1034v17q0 -5 5.5 -15t5.5 -15v-21q-11 9 -11 34zM-35 946v7q0 15 3 15l1 -1q2 -8 2 -17v-4q0 -5 -2 -11l-1 -1q-3 3 -3 12zM-26 912q0 7 4 10q4 -5 6 -10l-4 -3h-4zM-14 860 q0 5 2 7q3 -2 4 -7l-4 -2zM17 696q0 5 4 7q3 -3 4 -7l-2 -3l-4 -1zM40 593q0 10 4 15q4 -7 4 -15t-4 -14q-4 4 -4 14zM55 543v21v-1l1 3v9l1 32l6 142q1 29 1 44q19 18 33 83q16 69 32.5 90t61.5 59q99 84 218 115q93 24 243 24q62 0 116 -21q13 -5 65 -39 q198 -127 198 -268q0 -6 -11 -11q4 -16 11 -45q22 -97 22 -172q0 -7 -18 -59q-66 -192 -203 -276q-141 -86 -396 -86q-103 0 -230 108q-19 5 -43 23l10 11q-27 43 -64 43q-4 -11 -11 -32q-11 20 -11 77h11v-34q4 4 23 21v6q0 53 -41 59v-32q-11 19 -16 32q3 14 6 43v-30 q10 2 17 12q1 5 1 9q0 41 -33 40zM57 566q0 -7 7 -7q12 0 12 8v2q0 10 -11 10h-2q-6 -1 -6 -10v-3zM105 285v2q0 6 2 9q6 -2 6 -6v-6q0 -5 -4 -9q-4 4 -4 10zM116 258v2l2 3q3 -1 7 -3q-2 -5 -4 -8q-5 0 -5 6zM147 41q0 12 5 17q4 -4 4 -17q-1 -17 -5 -17q-3 5 -4 17z M195 241l25 21v-21h-25zM241 701q-5 -13 9 -18q2 -49 13 -143q20 -116 163 -188v1h20q3 0 3 -2q-1 -1 -3 -2t-7 -2h-4q90 -42 172 -42q190 0 253 175q42 114 42 211q0 145 -94 249q11 -2 14 4l1 3q3 10 -9 15h-3q-7 3 -11 -7l-1 -3v-2q-35 37 -65 56q-43 28 -65 36 q-65 23 -124 23q-199 0 -276 -212l38 -14q-38 -13 -47 -36q10 -44 48 -96l-48 -20q2 2 3 5l1 5q5 14 -3 17q-14 5 -19 -10zM320 698q0 99 70 165t168 66q59 0 116 -28q68 -34 68 -87v-11q-79 -31 -131 -31q-12 0 -27 19q-20 26 -27 31q3 -3 3 -8v-2q0 -10 -10 -10h-2 q-7 0 -7 9v3q0 11 8 11q3 0 5 -1q-9 5 -18 5q-69 0 -69 -85q0 -65 28 -132q35 -83 90 -83q4 0 13 1.5t13 1.5q32 29 32 99q35 27 130 43q19 -11 19 -46q0 -89 -80 -146h1q9 0 9 -10v-3q0 -9 -8 -9h-2q-6 0 -6 9v3q0 4 2 7q-72 -50 -162 -50q-102 0 -167 85q-59 78 -59 184z M328 579l6 6q-2 -6 -6 -6zM473 368q2 1 7 1h4q4 0 7 -2q-3 -4 -9 -4q-9 1 -9 5zM479 737l8 4q3 4 3 9h16l-19 -9q-2 -4 -8 -4zM522 383q2 2 8 2h2q4 0 7 -2q-2 -4 -8 -4q-9 0 -9 4zM530 758v2q0 10 8 10h2q7 0 7 -10v-2q0 -8 -7 -8h-2q-8 0 -8 8zM551 790v2q0 10 10 10h2 q6 0 6 -10v-3q0 -9 -7 -9q-11 0 -11 10zM570 399q2 1 7 2h4q4 0 7 -2q-2 -4 -7 -4q-10 1 -11 4zM630 405q4 12 19 12q16 0 27 -12h-46zM642 973l8 -6h-2q-5 0 -6 6zM663 435v3q0 13 7 13q9 0 9 -13v-3q0 -9 -9 -9q-7 0 -7 9zM693 447v3q0 10 10 10h2q6 0 6 -10v-3 q0 -10 -7 -10q-11 0 -11 10zM708 424q5 6 17 6v-6h-17zM791 458q2 2 7 2h3q3 0 6 -2q-3 -5 -9 -6q-6 2 -7 6zM833 252l13 10v-21zM855 219v11h9z" />
<glyph unicode="&#xaa;" horiz-adv-x="520" d="M36 773v21h150l14 10v-4l7 4q3 0 10.5 1.5t10.5 1.5q33 0 46 -7q5 1 15 4v-10h201q0 -31 -27 -31q-42 0 -124.5 1t-124.5 1q-29 0 -89 4t-89 4zM57 1027q0 153 260 153v18q0 52 -75 52q-5 -4 -23 -31q-11 -17 -33 -17q-41 0 -102 6l-9 7q0 23 9 47q25 70 177 70 q171 0 186 -82q6 -29 6 -48q1 -2 6 -8v-21l-6 -6v-170l6 -7v-77h-115q-10 0 -20 36h-7q-71 -50 -113 -50q-60 0 -102 33q-45 36 -45 95zM192 1045q0 -48 53 -48q52 0 64 48q8 30 8 47l-8 8h-24q-93 0 -93 -55zM449 955q0 -6 4 -6q5 0 5 6v1q-1 6 -5 6h-1q-3 -1 -3 -6v-1z " />
<glyph unicode="&#xab;" horiz-adv-x="714" d="M42 480q1 27 11 52q3 13 12 18q26 16 58 31q12 6 25 16q2 22 41 29l4 5l16 -6l4 1q1 3 12 11l-1 4q69 29 124 61l6 1q7 2 16 -22t9 -47q0 -31 -17 -34q-12 -2 -158 -81q-18 -10 -33 -18q32 -14 26 -15l-1 -4q5 -3 12 -11l4 -1l16 6l4 -5q39 -7 41 -29q1 -5 24 -16 q33 -15 59 -31q15 -9 10 -76q-1 -6 -2.5 -17t-9.5 -9q-14 3 -57 30q-9 5 -26 13q-24 12 -55 28q-68 38 -157 81q-17 3 -17 35zM152 604q2 -4 11 -2v4q-4 -1 -8 2zM166 614q2 -2 4 -2q2 2 2 4l-3 2q-2 -1 -3 -4zM174 608q2 -2 4 -2h1q2 1 3 3q-3 2 -5 2q-2 -1 -3 -3zM239 454 q1 -3 4 -3t4 2q-1 3 -3 3q-3 0 -5 -2zM249 460q0 -1 2 -3q3 0 4 2q-1 3 -3 4zM257 447q9 -2 12 2l-4 4q-3 -3 -7 -2zM349 480q1 27 11 52q4 13 12 18q26 16 59 31q12 6 24 16q2 22 41 29l4 5l16 -6l4 1q2 3 12 11l-1 4q69 29 125 61l5 1q8 2 16.5 -22t8.5 -47q0 -31 -17 -34 q-11 -2 -157 -81q-19 -10 -34 -18q32 -14 26 -15v-4q4 -3 12 -11l3 -1l16 6l4 -5q39 -7 41 -29q1 -5 25 -16q32 -15 58 -31q16 -9 10 -76q-1 -6 -2.5 -17t-9.5 -9q-14 3 -57 30q-9 5 -26 13q-24 12 -54 28q-69 38 -158 81q-17 3 -17 35zM390 279q9 7 39 7q7 4 10 3 q-6 -9 -13 -28q-32 6 -36 18zM393 278q1 -2 3 -3q4 0 5 2q-2 3 -4 3t-4 -2zM410 282q0 -2 2 -3q2 0 4 2q1 -3 4 -4q3 0 5 2q-2 3 -5 4q-2 0 -4 -2q-1 2 -3 3zM460 604q2 -4 11 -2l-1 4q-4 -1 -7 2zM473 614q2 -2 4 -2q2 2 2 4l-3 2q-2 -1 -3 -4zM481 608q2 -2 4 -2h1 q2 1 3 3q-2 2 -5 2q-2 -1 -3 -3zM547 454q0 -3 3 -3t4 2q-1 3 -3 3q-3 0 -4 -2zM556 460q0 -1 2 -3q3 0 4 2q-1 3 -3 4zM565 447q9 -2 11 2l-3 4q-4 -3 -8 -2v-4z" />
<glyph unicode="&#xac;" horiz-adv-x="1019" d="M58 501v153q0 8 27.5 21t41.5 13q29 0 84.5 -6t84.5 -6q7 0 22 2t23 2q39 0 43 -18l57 26h82q40 0 116.5 -13t115.5 -13l37 14h17l16 -5q7 1 13 4q9 -1 21 -2l3 3q34 0 52 -9q11 -1 20 -1q7 -25 13 -45q6 -14 14 -22q-1 -8 -4 -18q16 -67 16 -121h-7q-2 -36 -2 -44l9 -19 l14 -7l-14 -19v-27l-9 11q-22 -37 -22 -115h-163q-9 0 -23 13.5t-14 20.5q0 13 6.5 40t6.5 41q0 3 -2 10.5t-2 11.5q0 18 19 20l-28 28v39q0 10 3 21q-126 -12 -231 -13v6q-74 2 -91 2l-39 -8l-15 -13l-39 13h-57l23 8q-77 21 -238 21z" />
<glyph unicode="&#xad;" horiz-adv-x="389" d="M63 528v86q0 19 22 19q9 0 26.5 -3t26.5 -3q3 0 7.5 1t7.5 1q12 0 13 -11l18 15h26q13 0 37 -7.5t37 -7.5l12 9h5l13 -9l4 9q17 0 22 -15t9 -29q-3 -17 -6 -50q-83 -21 -136 -21v4q-23 1 -28 1q-3 -1 -13 -5l-5 -7l-12 7h-18l7 5q-24 11 -75 11z" />
<glyph unicode="&#xae;" horiz-adv-x="1083" d="M-69 1105v7q0 9 3 9q1 0 2 -1q2 -7 2 -12v-3q0 -5 -2 -10q0 -1 -1 -1h-1q-3 3 -3 11zM-55 1034v17q0 -5 5.5 -15t5.5 -15v-21q-11 9 -11 34zM-35 946v7q0 15 3 15l1 -1q2 -8 2 -17v-4q0 -5 -2 -11l-1 -1q-3 3 -3 12zM-26 912q0 7 4 10q4 -5 6 -10l-4 -3h-4zM-14 860 q0 5 2 7q3 -2 4 -7l-4 -2zM17 696q0 5 4 7q3 -3 4 -7l-2 -3l-4 -1zM40 593q0 10 4 15q4 -7 4 -15t-4 -14q-4 4 -4 14zM55 543v21v-1l1 3v9l1 32l6 142q1 29 1 44q19 18 33 83q16 69 32.5 90t61.5 59q99 84 218 115q93 24 243 24q62 0 116 -21q13 -5 65 -39 q198 -127 198 -268q0 -6 -11 -11q4 -16 11 -45q22 -97 22 -172q0 -7 -18 -59q-66 -192 -203 -276q-141 -86 -396 -86q-103 0 -230 108q-19 5 -43 23l10 11q-27 43 -64 43q-4 -11 -11 -32q-11 20 -11 77h11v-34q4 4 23 21v6q0 53 -41 59v-32q-11 19 -16 32q3 14 6 43v-30 q10 2 17 12q1 5 1 9q0 41 -33 40zM57 566q0 -7 7 -7q12 0 12 8v2q0 10 -11 10h-2q-6 -1 -6 -10v-3zM105 285v2q0 6 2 9q6 -2 6 -6v-6q0 -5 -4 -9q-4 4 -4 10zM116 258v2l2 3q3 -1 7 -3q-2 -5 -4 -8q-5 0 -5 6zM147 41q0 12 5 17q4 -4 4 -17q-1 -17 -5 -17q-3 5 -4 17z M195 241l25 21v-21h-25zM241 701q-5 -13 9 -18q2 -49 13 -143q17 -100 131 -171q104 -64 213 -64q190 0 253 175q42 114 42 211q0 145 -94 249q11 -2 14 4l1 3q3 10 -9 15h-3q-7 3 -11 -7l-1 -3v-2q-35 37 -65 56q-43 28 -65 36q-65 23 -124 23q-199 0 -276 -212l38 -14 q-38 -13 -47 -36q10 -44 48 -96l-48 -20q2 2 3 5l1 5q5 14 -3 17q-14 5 -19 -10zM328 579l6 6q-2 -6 -6 -6zM339 738v3q0 9 9 9q12 0 12 -10v-2q0 -10 -11 -10h-3q-7 0 -7 10zM364 579v4q0 12 7 12q6 0 6 -12v-4q0 -11 -6 -11q-7 0 -7 11zM364 648v2q0 10 6 10h2q5 0 5 -10 v-2q0 -10 -5 -10h-2q-6 0 -6 10zM371 608q6 9 20 9h14q0 -15 -25 -15q-5 2 -9 6zM377 718v2q1 5 3 8q8 -3 13 -9q-5 -3 -13 -3zM382 581q0 14 11 14q10 0 10 -12v-4q0 -11 -10 -11q-11 0 -11 13zM391 962q0 5 7 7q104 22 177 22q68 0 106 -73q31 -60 31 -134q0 -72 -32 -132 q28 -86 76 -206q7 -15 14 -40q-1 -2 -6 -8q-12 0 -36.5 -4t-36.5 -4q-15 0 -24 20q-4 8 -12 23q-26 51 -32 74q-8 3 -19 55q-11 49 -37 49h-7q-5 1 -8 1q-13 0 -13 -35q0 -122 20 -131l-4 -8v-61q-23 -8 -69 -8q-24 0 -26 10t-4 31l-8 75q-8 65 -17 146q-3 -3 -7 -3h-2 q-6 0 -6 11v3q0 9 6 9q4 0 6 -1l-9 81q-2 -3 -5 -3h-1q-6 0 -6 10v3q0 9 6 9h1h2q-25 175 -25 212zM393 750q3 2 6 2q6 0 6 -2v-2q0 -9 -6 -9q-3 4 -6 11zM506 849q0 -129 25 -129q79 0 79 36v76q-8 12 -28 35h-71q-5 0 -5 -18zM530 758v2q0 10 8 10h2q7 0 7 -10v-2 q0 -8 -7 -8h-2q-8 0 -8 8zM541 811v3q0 11 8 11q11 0 11 -11v-2q0 -10 -10 -10h-2q-7 0 -7 9zM551 790v2q0 10 10 10h2q6 0 6 -10v-3q0 -9 -7 -9q-11 0 -11 10zM642 973l8 -6h-2q-5 0 -6 6zM738 555v3q0 10 8 10h2q5 0 6 -10q1 1 2 1q11 0 11 -10v-3q0 -10 -10 -10h-2 q-6 0 -6 10h-2q-9 0 -9 9zM833 252l13 10v-21zM855 219v11h9z" />
<glyph unicode="&#xaf;" horiz-adv-x="432" d="M74 1122v85q0 20 22 20q9 0 26.5 -3.5t26.5 -3.5q3 0 7.5 1t7.5 1q12 0 13 -10l18 15h26q13 0 37 -7.5t37 -7.5l11 8h6l13 -8l4 8q17 0 22 -14.5t9 -28.5q-3 -17 -6 -51q-83 -20 -136 -20v3q-23 1 -29 1q-2 -1 -12 -4l-5 -8l-12 8h-18l7 4q-24 12 -75 12z" />
<glyph unicode="&#xb0;" horiz-adv-x="446" d="M105 1152v5l1 1v2v8l2 47q3 15 16 43q4 5 15 14q42 35 116 35q22 0 45 -15q49 -32 49 -67q0 -1 -2 -3q1 -3 2 -11q6 -24 6 -43q-1 -5 -5 -15q-16 -48 -50.5 -69t-98.5 -21q-26 0 -58 27q-5 1 -11 6l3 2q-7 11 -16 11q-1 -2 -3 -8q-3 5 -3 19h3v-8q1 1 6 5v2q0 13 -10 14 v-8q-3 5 -4 8q0 4 1 11v-7q3 1 4 3l1 2q0 10 -9 10zM166 1198h8q-6 -5 -6 -11q4 -9 14 -16l-7 -8v1v1q0 3 -1 3q-3 0 -3 -3v-1q0 -3 3 -3q3 -10 11 -29q13 -28 51 -28q56 0 56 61q0 68 -38 93q2 1 2 2q0 3 -2 3h-1q-1 -1 -1 -2v-1v-1q-8 5 -16 7.5t-12 2.5q-58 0 -58 -71z " />
<glyph unicode="&#xb1;" horiz-adv-x="559" d="M53 578v105q0 7 14.5 15.5t20.5 8.5q15 0 43 -4t42 -4q4 0 11.5 1.5t11.5 1.5q7 0 13 -3q6 24 6 41l-11 19v8l11 21l-11 6q0 27 18 34.5t36 15.5q20 -5 62 -10q15 -80 20 -135q44 -10 64 -10l19 10h8l21 -10l6 10q27 0 34.5 -17.5t15.5 -35.5q-5 -21 -10 -62 q-93 -18 -155 -23l2 -7l9 -8l-9 -20v-28l-6 11q-14 -38 -14 -119h-105q-6 0 -15 14t-9 21q0 14 4 42t4 42q0 4 -1 11.5t-1 11.5q0 11 6 18l-18 9h-28l11 5q-38 14 -120 14zM63 154v98q0 6 13 14.5t20 8.5q14 0 40.5 -4t39.5 -4q4 0 11 1t11 1q18 0 20 -12l27 18h39 q19 0 55.5 -9t54.5 -9l18 10h8l19 -10l6 10q26 0 33.5 -17t13.5 -33q-4 -19 -9 -57q-124 -24 -203 -24v4q-35 1 -44 1l-18 -5l-7 -9l-19 9h-27l11 5q-36 13 -113 13zM213 553l2 1h-1z" />
<glyph unicode="&#xb2;" horiz-adv-x="470" d="M42 1234q0 76 51.5 127t129.5 51t127 -50.5t49 -129.5q0 -51 -19 -80l-187 -279l233 17q8 -13 8 -87l-5 -3l-347 -27q-8 30 -8 84l220 330q14 20 14 47q0 37 -24.5 62t-62.5 25q-76 0 -86 -93l-4 -4l-54 -3q-2 0 -7 -1h-24q-4 6 -4 14zM78 712q4 0 12 -1.5t12 -1.5l6 3 l5 -8h-2l-9 -6l3 -2l-6 -6q3 -1 6 -6l-3 -3q-7 1 -10 3v5l-3 -1l-4 5q0 2 4 11h2q0 8 -13 8zM86 670q0 7 11 7h2l3 -1l-7 -9h1l6 3q0 -8 -10 -8zM90 698l2 -2l3 2l-3 3zM92 685l3 -1l1 1l-1 3zM95 694l1 -1l2 1l-2 2zM95 702l1 -1l2 1l-2 2zM113 698q4 2 4.5 8.5t10.5 5.5h3 l-6 -7l3 -1q4 8 15 8h1v-3l5 3h29l-3 -4l-3 1v-1q4 -1 13 -1l6 5h19l-4 -3q1 -3 7 -4l8 4l-1 3h10l-4 -7h2q8 0 9 10l3 -3q0 -15 -3 -11q0 -5 9 -5h2l2 2v-2l6 2h3l5 -6q-12 0 -16 -4v4l-5 -2l-11 6l2 5h-5q0 -12 -5 -13l-4 8q0 -6 -5 -6q-8 -1 -9 -2v2q-11 -18 -26 -18 q9 11 9 9v5l-7 -2l-4 4l-6 -11q-1 3 -9 7q-7 0 -10 -8q0 -10 -8 9q19 0 30 5q-3 3 -11 3l-5 -3q-4 0 -12.5 1.5t-13.5 1.5q3 4 6 11q-1 2 -4 1l1 -1l-1 -2v-1q-3 0 -10 -1.5t-11 -1.5h-1zM141 698h3l3 6zM144 696l3 -3l2 3l-2 2zM147 701l2 -3l3 3l-3 3zM152 697l2 2l-1 1 h-1v-3zM152 708l1 -3l3 3v1l-3 3zM159 698h11l-3 3h-3zM159 705h4l-4 4v-4zM170 684l2 -3l3 3l-3 2zM175 698l1 -1l2 1l-2 2zM180 701l2 -3l3 -2l3 2l-6 6zM182 690l3 -2l3 2l-3 3zM189 696l4 -8l3 -1h2l-3 -2l3 -1l3 1l-3 2q4 2 5 6q-6 1 -6 5l1 3zM190 705l1 -1l2 1l-1 2z M195 704l2 1h1v4zM198 687v1v-1zM201 698h2v3zM208 696h1l2 1l-1 1l-2 -1v-1zM217 701l3 -3l1 3l-1 3zM223 700l1 -2l4 2q-2 1 -4 1z" />
<glyph unicode="&#xb3;" horiz-adv-x="513" d="M32 913l2 2h102q8 -15 28 -43q37 -40 87 -40q49 0 78.5 32.5t29.5 82.5q0 74 -47 101q-25 14 -37 14q-9 0 -13.5 -31.5t-6.5 -32.5q-28 27 -28 37l1 4q4 4 10 13l9 -8l10 8l-2 7v6h-52v97h35q6 15 9 23h1l2 2v-23q44 0 73 28t29 73t-30 76.5t-75 31.5t-68 -26 q-6 -7 -36 -64h-103q-3 2 -3 5q0 28 14 60q58 134 192 134q100 0 186 -95l-1 -1q4 -1 10 -5q12 -39 27 -123h37l-2 251h10q0 -11 -2 -33t-2 -33q2 -3 4 -8h-2q0 -3 1 -8t1 -7q0 9 -2 -12h2q0 -13 -4 -22l4 -5h-2q-1 -3 -2 -8l4 -3l-4 -6q0 -23 4 -27q0 -10 -3 -30t-3 -31 q0 -3 1 -9t1 -9h10v257h-6v4h8l-1 -531q1 -1 1 -2l-1 -1v-20l1 -1l-1 -1v-5q1 -1 1 -2l-1 -1v-48h-7v47l-4 5q0 -16 -1 -47.5t-1 -46.5q0 -22 1 -65t1 -63q0 10 10 9l-3 3q0 3 1.5 8t1.5 7q-1 5 -3 6l4 3l1 -86l-2 -3l-2 6h-4q-45 8 -60 8h-4q-4 -3 -4 -8l1 -3q-9 8 -9 14 q1 7 10 22v-19h56v94l-4 1v36l4 4q2 53 2 187q1 3 3 11q0 -10 1 -31v-31q3 2 7 15l-3 7l3 4q0 2 -1.5 8t-1.5 9q0 16 6 26h-3l-3 5l-5 -8l-3 3q0 35 -1 103.5t-1 103.5h-35q-18 -85 -79 -137q26 -21 66 -74q18 -38 18 -93q0 -99 -62 -161.5t-162 -62.5q-163 0 -206 155 q-4 12 -8 35zM73 929v6q0 9 5 9v-12q0 -5 -3 -8q-2 3 -2 5zM83 1044v11q1 6 4 6q2 -1 7 -2v-4q-8 -6 -11 -11zM102 967v42h6q-3 17 -3 -45zM171 633h4q5 -4 12 -13q3 -2 3 -6h-5q-8 0 -10 8.5t-4 10.5zM245 920q0 7 6 7h1q2 -9 13 -9l-15 -8h-4q-1 13 -1 10zM253 964l1 1 q1 4 3 13h3v-14h-7zM269 1243v13q0 7 5 9v-7q0 -5 -1.5 -14.5t-1.5 -13.5q-2 6 -2 13zM354 653q9 0 9 -10q-9 0 -9 10zM432 614l6 6v21l5 3v-30h-11zM432 1512v7l2 1q-1 3 -2 5q2 2 3.5 6.5t4.5 12.5q0 3 3 8v-53q-11 0 -11 13zM502 1197l3 -2l1 1q-2 -7 -2 -13q0 -8 2 -12 v-38l4 -2q-5 -3 -5 -8q0 8 1 -9l2 -4q-3 -6 -3 -9l1 -1l-1 -7h1q7 0 7 7q-2 4 -1 23q0 21 4 24v105q-10 0 -10 -11v-5q2 -3 4 -4l-4 -4q0 -5 2 -8t2 -6v-4l-4 4q2 -9 0 -17l-1 2zM505 1251l1 -3l3 3l-3 2zM506 717q3 2 3 4q0 3 -3 4v-8zM506 1052q7 7 7 11q-1 3 -3 8l-1 1 l-1 -1h-2v-19zM506 1074l7 10h-3q-3 0 -4 -7v-3zM506 1196v1v-1zM508 1144v1v1q0 3 2 4l2 -3l-2 -3h-1h-1zM508 1158l2 2l3 -2l-3 -3zM508 1166l2 2l3 -2q-1 -3 -3 -3zM510 972l2 -1l4 1q-2 1 -4 1zM513 723q0 -1 1 -2l2 2q-2 1 -3 1v-1zM513 731l1 -2l2 -1v13q-3 -3 -3 -10 zM513 956l3 -2l1 1v3l-1 1q-3 -1 -3 -3zM513 964l3 -2l1 1v2l-1 2q-3 -1 -3 -3zM513 986l3 -3l1 2v3q-1 0 -1 1q-3 -1 -3 -3z" />
<glyph unicode="&#xb4;" horiz-adv-x="311" d="M63 1010l94 242l104 -55l-154 -218z" />
<glyph unicode="&#xb6;" horiz-adv-x="942" d="M57 890q0 11 9.5 38.5t9.5 47.5q-12 7 -19 9q28 0 62.5 102t40.5 102t16.5 -5.5t15.5 -5.5q9 0 27.5 5.5t27.5 5.5q14 0 45 1q28 1 44 1q394 0 529 -30q7 -2 25 -23l-10 -162q-2 -39 -104 -16l-9 -64q-17 -123 -14 -300q3 -151 7 -301q0 -5 6 -115q3 -72 -2 -112 q-5 -33 -58 -41q-40 -6 -79 3l-23 6q-10 29 -17 448l2 224q-1 142 -17 227q-20 0 -47 11q-2 -10 -6 -24q-5 -6 -5 -55q0 -14 14 -16l-9 -15v-108l9 -12l-9 -13q6 -8 9 -13v-17l-9 -9q-4 -11 -4 -73q0 -80 11.5 -237.5t11.5 -236.5q0 -71 -10 -117q-21 0 -62.5 -6.5 t-62.5 -6.5t-43 17.5t-22 42.5q0 10 5 9q6 19 6 39q-3 11 -6 25q-1 3 3 27q8 52 8 137q0 2 -4 88q-1 9 -1 20q-4 14 -20 14t-48.5 -5t-48.5 -5v-29q-5 20 -29 50q-69 39 -127 219q2 17 2 36q0 37 -10.5 109t-10.5 109zM58 351q1 5 8 5h2q3 0 5 -2q-2 -2 -5 -3q0 -10 -3 -11 q-5 3 -7 11zM58 428q0 11 8 11h1q4 -1 6 -3q-3 -5 -5 -8q0 -6 -2 -9q-4 1 -8 9zM76 1217v28q0 37 23 37q12 0 12 -36q0 -35 -18 -35q-6 0 -17 6zM155 363q7 24 35 24v-24h-35zM222 417q3 -4 8 -7q3 3 4 11q-1 4 -5 5h-1q-6 0 -6 -9zM222 741q0 -25 17.5 -46.5t37.5 -21.5 l-11 -9q5 0 16.5 -2t16.5 -2q25 0 50 13v111q-10 17 -10 52q0 31 4 41l-24 13q24 0 24 24q0 32 -19 32q-29 0 -29 -27q0 -7 4 -16q-1 2 -28 32q-4 -2 -5 -7q-13 -12 -21 -20q5 -15 5 -22q-4 2 -13 6l-5 -2q-3 -15 -10 -39v-11q0 -6 5 -15.5t5 -22.5q0 -10 -5 -30t-5 -31z M259 728q0 13 7 13q9 0 9 -11v-3q0 -11 -9 -11q-7 0 -7 12zM276 800q0 6 9 6h4q10 0 10 -8q-3 -9 -10 -9q-13 0 -13 11zM321 770q0 14 8 14q10 0 10 -14q0 -11 -10 -11q-8 0 -8 11z" />
<glyph unicode="&#xb7;" horiz-adv-x="317" d="M75 583v4v1v6l1 33q3 11 12 31q3 3 11 10q28 24 82 25q15 0 32 -11q35 -22 35 -47l-2 -2q0 -6 3 -18.5t3 -20.5q-1 -3 -4 -10q-11 -34 -35.5 -49t-70.5 -15q-18 0 -41 19q-3 1 -7 4l2 2q-5 7 -12 7q0 -1 -2 -5q-2 3 -2 13h2v-6l4 4v1q0 10 -7 11v-6q-2 3 -3 6q1 2 1 7v-5 q2 1 3 2l1 2q0 7 -6 7z" />
<glyph unicode="&#xb8;" horiz-adv-x="230" d="M50 -197l9 32q21 0 41 13.5t20 31.5q0 48 -25 67q-38 2 -34 11l31 96q2 6 12 6q6 0 53 -9v-8l-45 -65q51 -34 51 -52q-1 -2 -2 -2q0 -3 2 -9q4 -18 4 -32q-1 -4 -3 -11q-13 -37 -40 -53.5t-74 -15.5z" />
<glyph unicode="&#xb9;" horiz-adv-x="380" d="M82 1312v106l103 75h118v-717h-44l3 -4l-7 -4l-2 5l1 2q-12 0 -35 1t-34 1q0 72 -1 215.5t-1 212.5v82q0 9 -10 9v1h10v81q-12 -2 -18 -11l-80 -57zM116 685q2 3 4 3h7q15 0 15 -6h-22zM135 708q0 6 4 8t5 7q5 -10 13 -10q3 0 10 10h6q6 13 5 22v4q1 -5 8 -9q-2 -2 -5 -4 l4 -18v13l9 -5q-5 -3 -5 -8q6 -5 10 -5l1 1v12h5q0 -8 7 -8q6 0 6 5v6q-1 4 -1 6q2 -2 6 -7v-2q-2 -3 -3 -12h-8q0 -7 6 -7.5t6 -6.5q0 -11 -5 -11h-3v-31l-4 3v31h-6l6 11q-4 0 -14 1v1l-2 -1q-9 -28 -15 -28q-8 0 -8 6t4 13v2q-2 3 -5 19h-2q-5 0 -5 -5h1q2 -2 4 -7 q-1 -2 -3 -4v-1q0 -2 2 -6.5t2 -7.5q-3 1 -10 2l-6 2q-3 0 -5 -2h-3q0 6 -6 11.5t-6 9.5zM158 615q4 6 9 6v-6h-9zM162 838l1 3l2 4l3 -3v-23q0 -5 -3 -8q0 4 -1 11.5t-1.5 10.5t-0.5 5zM177 621v13q1 9 1 13q3 -1 3 -16l3 -2q2 1 2 4h3q1 -5 3 -8v-1q0 -10 -8 -10 q-7 0 -7 7zM181 713l3 -2l2 2q-1 2 -2 2zM183 685h2l-1 2h-1v-1v-1zM186 638v12l8 -4zM204 649q0 5 8 5h3l-3 -4l11 -4l-6 -5h-2q-11 0 -11 8zM212 631q1 4 5 4h3q3 0 7 -2l6 2v-3q0 -4 -5 -5h-2q-2 0 -6 2t-8 2zM217 695h3v9h-3v-9zM223 615q3 2 8 7l2 1v-8h-10zM246 642v4 q0 3 3 4q5 0 10 -3q2 1 5 2q0 8 4 8q6 0 6 -12v-2q-1 -2 -5 -2l3 -3q0 -5 -3 -8h-3q-6 5 -15 5l1 3q4 1 7 4h-13zM262 615v6l2 2q4 -1 6 -2q1 -4 4 -6h-12zM278 615q0 4 2 6h7v12q4 -3 13 -3l8 8v-5h5q1 2 3 8q-1 0 -2.5 1t-5.5 1q2 3 8 7q-1 2 -3 7h3q6 0 10 -24l4 2v31 q5 3 8 3h4q2 -2 5 -3q4 0 7 6l-4 -2q-15 6 -12 6v19q-4 0 -4 16q0 12 10 12q7 0 11 -4t7 -5q1 1 1 4q0 5 -6 6.5t-6 5.5q0 10 11 10q4 0 4 -8l7 8q0 12 1 35.5t1 35.5q0 22 1 65t1 65q0 18 3 20q6 -2 6 -8q0 -2 -1 -5t-1 -5q0 -7 6 -11q-8 3 -8 -16v-2l6 -4l-6 -3 q-2 -14 -2 -19q0 -8 1.5 -25t1.5 -26l-1 -6q3 -2 12 -6q-1 -3 -3 -3q-7 0 -9 -6q6 -2 6 -6l-3 -7l13 -14v-1h-5q5 -7 5 -19q-2 2 -8 4l-1 -1h-1l2 -2v-2v-3q-1 -2 -2 -6q-3 -8 5 -8q-5 -5 -5 -8v-48q2 -2 2 -7q0 -2 -1 -5.5t-1 -5.5q0 -3 1 -10t1 -10q-2 -2 -4 -3v-39h-108z M291 623q1 -4 4 -4q2 1 2 4l-2 2q-4 -1 -4 -2zM309 681v16h7v-5l15 -5q1 -4 3 -9v-2h-6l-2 2q-2 0 -3 -1v-1h-3q1 0 3 1q-1 8 -7 8l-3 -3q-1 -1 -4 -1zM332 658h4v6q-3 0 -4 -6zM334 638h2q3 1 8 3l-7 7q-1 0 -2 1h-1v-11zM339 707l3 -3l2 3q0 2 -2 4q-3 -2 -3 -4zM343 657 h4v4q-1 -2 -4 -4zM344 711l3 -3l1 3l-1 3zM350 662l1 -1l3 1q-1 2 -3 2zM351 657l3 -3l3 3h-6zM354 634q4 0 9 -4.5t14 -4.5v21q-3 -3 -3 -6q0 -1 1 -5v-5h-9q0 8 -5 8q-7 0 -7 -4zM355 649l2 -2l1 2q0 1 -1 1h-1q-1 0 -1 -1zM362 654h3l-3 4v-4zM373 1312q0 86 7 101 q5 -11 5 -27q0 -45 3 -48q-3 -4 -3 -5v-3l3 -2v-2q-2 -2 -3 -4v-12q0 -6 1.5 -16.5t1.5 -15.5v-31q0 -19 -6 -31q0 -13 8 -17l-5 -3q1 -3 3 -5v-2q0 -31 -8 -31v107q-2 6 -4 15q-3 14 -3 32zM375 652l2 -2q2 1 4 3l-4 4q-2 -2 -2 -5zM375 980q0 36 7 36v-6l3 -4q-2 -3 -5 -8 q5 -28 5 -18v-8q0 -5 -3 -5h-5q-2 8 -2 13zM377 1081v15q0 4 3 4q0 -3 1 -9.5t1 -9.5v-4q0 -5 -2 -5q-3 7 -3 9zM377 1434v67q2 2 5 4q0 -6 1.5 -16.5t1.5 -16.5q0 5 -3 -15l2 -1l1 -2v-5q0 -14 -5 -18zM377 1625q8 0 8 -10v-2q-1 -2 -3 -4h-1q-4 0 -4 16zM380 1519q0 5 6 5 t6 -11v-2h-2q-10 0 -10 8zM380 1550v34h5q0 -2 1.5 -7.5t1.5 -8.5q0 -18 -8 -18zM380 1591v13h3q5 0 7 -2q-5 -1 -5 -4q0 -7 -5 -7zM390 777l3 -2l1 2l-1 3q-2 -1 -3 -3zM394 1309q11 0 11 -10q0 -11 -1 -18q-10 5 -10 28zM398 1451v1q1 5 5 5h2l-4 -11q-3 2 -3 5z" />
<glyph unicode="&#xba;" horiz-adv-x="467" d="M46 1002l1 24l6 96q1 22 1 39q0 -10 12 47v-42h8q3 37 40 61l68 36h105q46 0 57 -18q4 -7 11 -7q15 0 15 21q0 8 -18.5 31t-18.5 35q0 21 12 21q14 0 19.5 -22t15.5 -22q7 0 18.5 5t18.5 5q0 -4 -3.5 -12t-3.5 -12q0 -9 4 -25.5t4 -26.5q-12 0 -19 6t-16 6q-13 0 -13 -21 q0 -13 15.5 -28.5t15.5 -25.5h16q-7 0 -7 -12q0 -7 7 -7l-7 -5q1 -19 1 -36q0 -39 -9 -83q-12 -12 -12 -26q4 -3 12 -8v-28h-3q-8 1 -8 -24q0 -13 -8 -13l-5 7h-45q-5 -14 -17 -14q-4 0 -13 1t-13 1q-12 0 -36 -4t-36 -4q-119 0 -151 124q0 -87 -1 -109q-6 -88 -6 -114h-6 q-2 2 -6 8zM66 1461v25l1 13q1 -3 1 -12v-51q0 -8 -1 -10v-3q-1 18 -1 38zM182 1054q5 -4 21 -29q10 -17 32 -17q15 0 30.5 13.5t15.5 28.5v85q0 15 -15.5 29t-30.5 14q-26 0 -34 -12q-10 -15 -19 -31v-81zM357 947h8q10 0 13 8l-8 4h-6q-7 -8 -7 -12z" />
<glyph unicode="&#xbb;" horiz-adv-x="698" d="M34 359q0 30 17 33q11 3 157 82q19 9 34 17q-32 14 -26 16l1 3q-5 4 -12 11l-4 1l-16 -5l-4 4q-39 8 -41 30q-1 4 -25 15q-32 16 -58 31q-16 10 -10 77q1 5 2.5 16t9.5 10q14 -3 57 -31q9 -4 26 -12q24 -12 54 -28q69 -39 158 -81q17 -4 17 -35q-1 -27 -11 -52 q-3 -14 -12 -19q-26 -15 -59 -31q-11 -5 -24 -15q-2 -22 -41 -30l-4 -4l-16 5l-4 -1q-1 -3 -12 -11l1 -4q-69 -29 -124 -61l-6 -1q-7 -1 -16 23t-9 47zM144 544l4 -5q3 4 7 3l1 4q-10 2 -12 -2zM158 533q1 -3 3 -3l3 2q0 2 -2 3q-3 0 -4 -2zM166 540q1 -3 3 -4q3 0 5 2 q-1 3 -4 4q-3 0 -4 -2zM231 383q3 -2 5 -2q2 1 3 4q-2 2 -4 2l-1 -1q-2 0 -3 -3zM241 377l3 -2q2 1 3 3q-2 2 -4 2q-2 -1 -2 -3zM249 391l1 -4q4 1 7 -3l4 5q-3 4 -12 2zM321 359q0 30 16 33q12 3 158 82q19 9 34 17q-32 14 -27 16l1 3q-4 4 -12 11l-4 1l-15 -5l-4 4 q-40 8 -42 30q0 4 -24 15q-33 16 -58 31q-16 10 -10 77q0 5 2 16t10 10q14 -3 57 -31q9 -4 26 -12q24 -12 54 -28q69 -39 158 -81q17 -4 16 -35q0 -27 -11 -52q-3 -14 -12 -19q-25 -15 -58 -31q-12 -5 -24 -15q-2 -22 -41 -30l-4 -4l-16 5l-4 -1q-2 -3 -12 -11l1 -4 q-69 -29 -125 -61l-5 -1q-8 -1 -16.5 23t-8.5 47zM431 544l3 -5q4 4 7 3l1 4q-9 2 -11 -2zM444 533q2 -3 4 -3l3 2q0 2 -2 3q-3 0 -5 -2zM452 540q2 -3 4 -4q3 0 4 2q0 3 -4 4q-2 0 -4 -2zM518 383q2 -2 5 -2q2 1 3 4q-2 2 -4 2l-1 -1q-3 0 -3 -3zM527 377l3 -2q3 1 4 3 q-2 2 -5 2q-1 -1 -2 -3zM536 391l1 -4q4 1 7 -3l3 5q-2 4 -11 2z" />
<glyph unicode="&#xbc;" horiz-adv-x="877" d="M82 1272v105l103 75h118v-717h-44l3 -4l-7 -4l-2 5l1 2q-12 0 -35 1t-34 1q0 72 -1 215.5t-1 212.5v82q0 9 -10 9v1h10v82q-12 -3 -18 -12l-80 -57zM116 645q2 2 4 2h7q15 0 15 -6h-22zM118 72q13 46 33 75q17 43 52 126q15 34 31 69l7 29v14q2 8 13 19l3 8q3 12 0 24 q-3 11 4 34q2 10 10 24t11 23q2 17 15 44q3 -19 -10 -64q-3 -13 -7 -13l-2 9q-5 -5 -6 -10q-1 -4 5 -12q-1 -7 -4 -22q4 -1 53 104q24 52 57 135l2 10q51 131 100 236l4 -2q4 9 14 23l2 7v31l6 7q20 74 42 77q4 1 23 46q16 40 32 79q27 55 53 55q1 0 41 -9q5 -1 15 -5t6 -19 q-8 -27 -49 -108q-7 -17 -20 -49q-20 -46 -45 -103q-60 -129 -130 -297q-4 -15 -106 -241q-39 -86 -78 -171q-45 -102 -67 -183l-3 1q0 -5 -1 -10q-6 -15 -21 -22q-33 7 -85 31zM135 667q0 6 4 8t5 7q5 -10 13 -10q3 0 10 10h6q6 13 5 22v4q1 -5 8 -9q-2 -2 -5 -4l4 -18v13 l9 -5q-5 -3 -5 -8q6 -5 10 -5l1 1v12h5q0 -8 7 -8q6 0 6 5v6q-1 4 -1 6q2 -2 6 -7v-2q-2 -3 -3 -12h-8q0 -6 6 -7t6 -7q0 -11 -5 -11h-3v-31l-4 3v31h-6l6 11q-4 0 -14 1v1l-2 -1q-9 -28 -15 -28q-8 0 -8 6t4 13v2q-2 3 -5 19q-1 0 -2 1q-5 0 -5 -6h1q2 -2 4 -7q-1 -2 -3 -4 v-1q0 -2 2 -6t2 -7q-3 0 -10 1l-6 2q-3 0 -5 -2h-3q0 6 -6 11.5t-6 9.5zM158 574q4 6 9 6v-6h-9zM162 797l1 3l2 4l3 -3v-23q0 -5 -3 -8q0 4 -1 11.5t-1.5 10.5t-0.5 5zM177 580v13q1 9 1 13q3 -1 3 -16l3 -2q2 1 2 4h3q1 -5 3 -8v-1q0 -10 -8 -10q-7 0 -7 7zM181 672l3 -2 l2 2q-1 2 -2 2zM183 645h2l-1 1h-1v-1zM186 597v12l8 -4zM204 608q0 5 8 5h3l-3 -4l11 -4l-6 -5h-2q-11 0 -11 8zM212 590q1 4 5 4h3q3 0 7 -2l6 2v-3q0 -4 -5 -5h-2q-2 0 -6 2t-8 2zM217 654h3v9h-3v-9zM223 574q3 2 8 7l2 1v-8h-10zM246 383l1 -6q2 0 4 3q1 5 -1 9 q-3 -2 -4 -6zM246 601v4q0 3 3 4q5 0 10 -3q2 1 5 2q0 8 4 8q6 0 6 -12v-2q-1 -2 -5 -2l3 -3q0 -5 -3 -8h-3q-6 5 -15 5l1 3q4 1 7 4h-13zM262 574v6l2 2q4 -1 6 -2q1 -4 4 -6h-12zM267 427q3 1 4 6l1 1q1 4 -1 8q-3 -2 -4 -7q-2 -5 0 -8zM278 574q0 4 2 6h7v12q4 -3 13 -3 l8 8v-5h5q1 2 3 8q-1 1 -2.5 1.5t-5.5 0.5q2 3 8 7q-1 2 -3 7h3q6 0 10 -24l4 2v31q5 3 8 3h4q2 -2 5 -3q4 0 7 6l-4 -2q-15 6 -12 6v19q-4 0 -4 16q0 12 10 12q7 0 11 -4t7 -5q1 1 1 4q0 5 -6 6.5t-6 5.5q0 10 11 10q4 0 4 -8l7 8q0 12 1 35.5t1 35.5q0 22 1 65t1 65 q0 18 3 20q6 -2 6 -8q0 -2 -1 -5t-1 -5q0 -7 6 -11q-8 3 -8 -15v-3l6 -4l-6 -3q-2 -14 -2 -19q0 -8 1.5 -25t1.5 -26l-1 -6q3 -2 12 -6q-1 -3 -3 -3q-7 0 -9 -6q6 -2 6 -6l-3 -7l13 -14v-1h-5q5 -7 5 -19q-2 2 -8 4l-1 -1h-1l2 -2v-2v-3q-1 -2 -2 -6q-3 -7 5 -7q-5 -6 -5 -8 v-49q2 -2 2 -7q0 -2 -1 -5.5t-1 -5.5q0 -3 1 -10t1 -10q-2 -2 -4 -3v-39h-108zM284 525l2 -4h2q1 5 0 7zM289 533q3 2 5 6v2q1 3 0 7q-4 -2 -5 -6q-1 -5 0 -9zM291 582q1 -4 4 -4q2 1 2 4l-2 2q-4 -1 -4 -2zM309 640v16h7v-5l15 -5q1 -4 3 -9v-2h-6l-2 2q-2 0 -3 -1v-1h-3 q1 0 3 1q-1 9 -7 9l-3 -4q-1 -1 -4 -1zM332 617h4v6q-3 0 -4 -6zM334 597h2q3 1 8 3l-7 7q-1 0 -2 1h-1v-11zM339 666l3 -3l2 3q0 2 -2 4q-3 -2 -3 -4zM343 616h4v4q-1 -2 -4 -4zM344 670l3 -3l1 3l-1 3zM350 621l1 -1l3 1q-1 2 -3 2zM351 616l3 -3l3 3h-6zM354 593 q4 0 9 -4.5t14 -4.5v21q-3 -3 -3 -6q0 -1 1 -5v-5h-9q0 8 -5 8q-7 0 -7 -4zM355 608l2 -2l1 2q0 1 -1 1h-1q-1 0 -1 -1zM362 613h3l-3 4v-4zM373 1271q0 86 7 102q5 -12 5 -28q0 -45 3 -48q-3 -3 -3 -5v-3l3 -2v-2q-2 -2 -3 -4v-12q0 -5 1.5 -16t1.5 -16v-31q0 -19 -6 -31 q0 -13 8 -17l-5 -3q1 -3 3 -5v-2q0 -31 -8 -31v107q-2 6 -4 15q-3 14 -3 32zM375 612l2 -3q2 1 4 3l-4 4q-2 -2 -2 -4zM375 939q0 36 7 36v-6l3 -4q-2 -3 -5 -8q5 -28 5 -18v-8q0 -5 -3 -5h-5q-2 8 -2 13zM377 1040v15q0 4 3 4q0 -3 1 -9.5t1 -9.5v-4q0 -5 -2 -5q-3 7 -3 9z M377 1393v67q2 2 5 4q0 -6 1.5 -16.5t1.5 -16.5q0 5 -3 -15l2 -1l1 -2v-5q0 -14 -5 -18zM377 1584q8 0 8 -10v-2q-1 -2 -3 -3h-1q-4 0 -4 15zM379 191v50q0 17 3 31q6 4 14 27l3 3v4q8 14 63 123l4 2l29 58q18 33 37 68v3q15 29 44 88q10 10 10 15v3l39 74q1 2 3 5l-1 2 q21 41 49 86q79 0 92 -6q14 0 14 -17q0 -29 -6 -77q-7 -60 -8 -77q-5 -77 -17 -233l-9 -100q-4 -44 -4 -45v-12q12 -6 37 -6q3 1 6 4q2 -2 6 -4h3q4 2 5 4v-5q3 0 9.5 1t10.5 1q10 0 10 -6q0 -4 -1.5 -11.5t-1.5 -11.5q0 -10 1 -14l-4 -2v-25q0 -3 -1 -9.5t-1 -10.5 q0 -16 -3 -16q-1 1 -2 1q-28 5 -79 5h-3q-7 -73 -16 -152h-13q-92 0 -97 9q-1 3 -1 15q0 21 5 63t5 63v12q-79 4 -234 20zM380 1478q0 5 6 5t6 -11v-2h-2q-10 0 -10 8zM380 1509v34h5q0 -2 1.5 -7.5t1.5 -8.5q0 -18 -8 -18zM380 1550v13h3q5 0 7 -2q-5 -1 -5 -4q0 -7 -5 -7z M390 736l3 -2l1 2l-1 3q-2 -1 -3 -3zM394 1268q11 0 11 -10q0 -11 -1 -17q-10 4 -10 27zM398 1410v1q1 5 5 5h2l-4 -10q-3 1 -3 4zM483 289q23 -14 136 -14l3 3q8 62 8 97q0 -16 13 155l6 82h-2l-49 -96l-4 -3l-53 -108q0 -1 -58 -115v-1zM526 1037l1 -6q2 1 4 4q1 5 -1 9 q-3 -3 -4 -7zM529 1022q-1 -5 1 -9q3 1 4 6v1q1 4 0 8q-3 -2 -5 -6zM539 1063q3 -7 1 -14l3 -2q5 18 2 22zM619 309l3 3l3 -3q-1 -3 -3 -3q-2 1 -3 3zM647 617l1 -3q2 1 2 3q-1 3 -2 3zM745 878v3q16 0 18 9l6 -12h-24zM747 1292q-4 17 7 75q-1 14 0 19q7 -10 23 -25 q-17 -61 -30 -69zM749 1299q3 2 4 5q2 6 0 9q-3 -3 -4 -7q-1 -3 0 -7zM750 1336l1 -6q3 1 4 4q1 5 0 9q3 1 4 5v2q2 6 0 9q-3 -2 -5 -8q-1 -5 1 -8q-3 -3 -5 -7z" />
<glyph unicode="&#xbd;" horiz-adv-x="944" d="M82 1271v106l103 75h118v-717h-44l3 -4l-7 -4l-2 5l1 2q-12 0 -35 1t-34 1q0 72 -1 215.5t-1 212.5v82q0 9 -10 9v1h10v81q-12 -2 -18 -11l-80 -57zM116 644q2 3 4 3h7q15 0 15 -6h-22zM118 72q13 46 33 75q17 43 52 126q15 34 31 69l7 29v14q2 8 13 19l3 8q3 12 0 24 q-3 11 4 34q2 10 10 24t11 23q2 17 15 44q3 -19 -10 -64q-3 -13 -7 -13l-2 9q-5 -5 -6 -10q-1 -4 5 -12q-1 -7 -4 -22q4 -1 53 104q24 52 57 135l2 10q51 131 100 236l4 -2q4 9 14 23l2 7v31l6 7q20 74 42 77q4 1 23 46q16 40 32 79q27 55 53 55q1 0 41 -9q5 -1 15 -5t6 -19 q-8 -27 -49 -108q-7 -17 -20 -49q-20 -46 -45 -103q-60 -129 -130 -297q-4 -15 -106 -241q-39 -86 -78 -171q-45 -102 -67 -183l-3 1q0 -5 -1 -10q-6 -15 -21 -22q-33 7 -85 31zM135 667q0 6 4 8t5 7q5 -10 13 -10q3 0 10 10h6q6 13 5 22v4q1 -5 8 -9q-2 -2 -5 -4l4 -18v13 l9 -5q-5 -3 -5 -8q6 -5 10 -5l1 1v12h5q0 -8 7 -8q6 0 6 5v6q-1 4 -1 6q2 -2 6 -7v-2q-2 -3 -3 -12h-8q0 -7 6 -7.5t6 -6.5q0 -11 -5 -11h-3v-31l-4 3v31h-6l6 11q-4 0 -14 1v1l-2 -1q-9 -28 -15 -28q-8 0 -8 6t4 13v2q-2 3 -5 19h-2q-5 0 -5 -5h1q2 -2 4 -7q-1 -2 -3 -4v-1 q0 -2 2 -6.5t2 -7.5q-3 1 -10 2l-6 2q-3 0 -5 -2h-3q0 6 -6 11.5t-6 9.5zM158 574q4 6 9 6v-6h-9zM162 797l1 3l2 4l3 -3v-23q0 -5 -3 -8q0 4 -1 11.5t-1.5 10.5t-0.5 5zM177 580v13q1 9 1 13q3 -1 3 -16l3 -2q2 1 2 4h3q1 -5 3 -8v-1q0 -10 -8 -10q-7 0 -7 7zM181 672l3 -2 l2 2q-1 2 -2 2zM183 644h2l-1 2h-1v-1v-1zM186 597v12l8 -4zM204 608q0 5 8 5h3l-3 -4l11 -4l-6 -5h-2q-11 0 -11 8zM212 590q1 4 5 4h3q3 0 7 -2l6 2v-3q0 -4 -5 -5h-2q-2 0 -6 2t-8 2zM217 654h3v9h-3v-9zM223 574q3 2 8 7l2 1v-8h-10zM246 383l1 -6q2 0 4 3q1 5 -1 9 q-3 -2 -4 -6zM246 601v4q0 3 3 4q5 0 10 -3q2 1 5 2q0 8 4 8q6 0 6 -12v-2q-1 -2 -5 -2l3 -3q0 -5 -3 -8h-3q-6 5 -15 5l1 3q4 1 7 4h-13zM262 574v6l2 2q4 -1 6 -2q1 -4 4 -6h-12zM267 427q3 1 4 6l1 1q1 4 -1 8q-3 -2 -4 -7q-2 -5 0 -8zM278 574q0 4 2 6h7v12q4 -3 13 -3 l8 8v-5h5q1 2 3 8q-1 0 -2.5 1t-5.5 1q2 3 8 7q-1 2 -3 7h3q6 0 10 -24l4 2v31q5 3 8 3h4q2 -2 5 -3q4 0 7 6l-4 -2q-15 6 -12 6v19q-4 0 -4 16q0 12 10 12q7 0 11 -4t7 -5q1 1 1 4q0 5 -6 6.5t-6 5.5q0 10 11 10q4 0 4 -8l7 8q0 12 1 35.5t1 35.5q0 22 1 65t1 65q0 18 3 20 q6 -2 6 -8q0 -2 -1 -5t-1 -5q0 -7 6 -11q-8 3 -8 -16v-2l6 -4l-6 -3q-2 -14 -2 -19q0 -8 1.5 -25t1.5 -26l-1 -6q3 -2 12 -6q-1 -3 -3 -3q-7 0 -9 -6q6 -2 6 -6l-3 -7l13 -14v-1h-5q5 -7 5 -19q-2 2 -8 4l-1 -1h-1l2 -2v-2v-3q-1 -2 -2 -6q-3 -8 5 -8q-5 -5 -5 -8v-48 q2 -2 2 -7q0 -2 -1 -5.5t-1 -5.5q0 -3 1 -10t1 -10q-2 -2 -4 -3v-39h-108zM285 525l1 -4h2q1 5 0 7zM289 542q-1 -5 1 -9q2 2 4 6v2q1 3 0 7q-4 -2 -5 -6zM291 582q1 -4 4 -4q2 1 2 4l-2 2q-4 -1 -4 -2zM309 640v16h7v-5l15 -5q1 -4 3 -9v-2h-6l-2 2q-2 0 -3 -1v-1h-3 q1 0 3 1q-1 8 -7 8l-3 -3q-1 -1 -4 -1zM332 617h4v6q-3 0 -4 -6zM334 597h2q3 1 8 3l-7 7q-1 0 -2 1h-1v-11zM339 666l3 -3l2 3q0 2 -2 4q-3 -2 -3 -4zM343 616h4v4q-1 -2 -4 -4zM344 670l3 -3l1 3l-1 3zM350 621l1 -1l3 1q-1 2 -3 2zM351 616l3 -3l3 3h-6zM354 593 q4 0 9 -4.5t14 -4.5v21q-3 -3 -3 -6q0 -1 1 -5v-5h-9q0 8 -5 8q-7 0 -7 -4zM355 608l2 -2l1 2q0 1 -1 1h-1q-1 0 -1 -1zM362 613h3l-3 4v-4zM373 1271q0 86 7 101q5 -11 5 -27q0 -45 3 -48q-3 -4 -3 -5v-3l3 -2v-2q-2 -2 -3 -4v-12q0 -6 1.5 -16.5t1.5 -15.5v-31 q0 -19 -6 -31q0 -13 8 -17l-5 -3q1 -3 3 -5v-2q0 -31 -8 -31v107q-2 6 -4 15q-3 14 -3 32zM375 611l2 -2q2 1 4 3l-4 4q-2 -2 -2 -5zM375 939q0 36 7 36v-6l3 -4q-2 -3 -5 -8q5 -28 5 -18v-8q0 -5 -3 -5h-5q-2 8 -2 13zM377 1040v15q0 4 3 4q0 -3 1 -9.5t1 -9.5v-4 q0 -5 -2 -5q-3 7 -3 9zM377 1393v67q2 2 5 4q0 -6 1.5 -16.5t1.5 -16.5q0 5 -3 -15l2 -1l1 -2v-5q0 -14 -5 -18zM377 1584q8 0 8 -10v-2q-1 -2 -3 -4h-1q-4 0 -4 16zM380 1478q0 5 6 5t6 -11v-2h-2q-10 0 -10 8zM380 1509v34h5q0 -2 1.5 -7.5t1.5 -8.5q0 -18 -8 -18z M380 1550v13h3q5 0 7 -2q-5 -1 -5 -4q0 -7 -5 -7zM390 736l3 -2l1 2l-1 3q-2 -1 -3 -3zM394 1268q11 0 11 -10q0 -11 -1 -18q-10 5 -10 28zM398 1410v1q1 5 5 5h2l-4 -11q-3 2 -3 5zM508 549q0 76 51.5 127t129.5 51t127 -50.5t49 -129.5q0 -51 -19 -80l-187 -279l233 17 q8 -13 8 -87l-5 -3l-347 -27q-8 30 -8 84l220 330q14 20 14 47q0 37 -24.5 62t-62.5 25q-76 0 -86 -93l-4 -4l-54 -3q-2 0 -7 -1h-24q-4 6 -4 14zM526 1037l1 -6q2 1 4 4q1 5 -1 9q-3 -3 -4 -7zM530 1013q3 1 4 6v1q1 4 0 8q-3 -2 -4 -6q-2 -5 0 -9zM539 1063q3 -7 1 -14 l3 -2q5 18 2 22zM544 27q4 0 12 -1.5t12 -1.5l6 3l5 -8h-2l-9 -6l3 -2l-6 -6q3 -1 6 -6l-3 -3q-7 1 -10 3v5l-3 -1l-4 5q0 2 4 11h2q0 8 -13 8zM552 -15q0 7 11 7h2l3 -1l-7 -9h1l6 3q0 -8 -10 -8zM556 13l2 -2l3 2l-3 3zM558 0l3 -1l1 1l-1 3zM561 9l1 -1l2 1l-2 2zM561 17 l1 -1l2 1l-2 2zM579 13q4 2 4.5 8.5t10.5 5.5h3l-6 -7l3 -1q4 8 15 8h1v-3l5 3h29l-3 -4l-3 1v-1q4 -1 13 -1l6 5h19l-4 -3q1 -3 7 -4l8 4l-1 3h10l-4 -7h2q8 0 9 10l3 -3q0 -15 -3 -11q0 -5 9 -5h2l2 2v-2l6 2h3l5 -6q-12 0 -16 -4v4l-5 -2l-11 6l2 5h-5q0 -12 -5 -13l-4 8 q0 -6 -5 -6q-8 -1 -9 -2v2q-11 -18 -26 -18q9 11 9 9v5l-7 -2l-4 4l-6 -11q-1 3 -9 7q-7 0 -10 -8q0 -10 -8 9q19 0 30 5q-3 3 -11 3l-5 -3q-4 0 -12.5 1.5t-13.5 1.5q3 4 6 11q-1 2 -4 1l1 -1l-1 -2v-1q-3 0 -10 -1.5t-11 -1.5h-1zM607 13h3l3 6zM610 11l3 -3l2 3l-2 2z M613 16l2 -3l3 3l-3 3zM618 12l2 2l-1 1h-1v-3zM618 23l1 -3l3 3v1l-3 3zM625 13h11l-3 3h-3zM625 20h4l-4 4v-4zM636 -1l2 -3l3 3l-3 2zM641 13l1 -1l2 1l-2 2zM646 16l2 -3l3 -2l3 2l-6 6zM648 5l3 -2l3 2l-3 3zM655 11l4 -8l3 -1h2l-3 -2l3 -1l3 1l-3 2q4 2 5 6 q-6 1 -6 5l1 3zM656 20l1 -1l2 1l-1 2zM661 19l2 1h1v4zM664 2v1v-1zM667 13h2v3zM674 11h1l2 1l-1 1l-2 -1v-1zM683 16l3 -3l1 3l-1 3zM689 15l1 -2l4 2q-2 1 -4 1zM748 1292q-5 17 6 75q-1 14 0 19q7 -10 23 -25q-17 -61 -29 -69zM749 1306q-1 -3 1 -7q2 2 4 5q1 6 -1 9 q-3 -3 -4 -7zM750 1336l1 -6q3 1 4 4q1 5 0 9q3 1 4 5v2q2 6 0 9q-3 -2 -5 -8q-1 -5 1 -8q-3 -3 -5 -7z" />
<glyph unicode="&#xbe;" horiz-adv-x="944" d="M32 913l2 2h102q8 -15 28 -43q37 -40 87 -40q49 0 78.5 32.5t29.5 82.5q0 74 -47 101q-25 14 -37 14q-9 0 -13.5 -31.5t-6.5 -32.5q-28 27 -28 37l1 4q4 4 10 13l9 -8l10 8l-2 7v6h-52v97h35q6 15 9 23h1l2 2v-23q44 0 73 28t29 73t-30 76.5t-75 31.5t-68 -26 q-6 -7 -36 -64h-103q-3 2 -3 5q0 28 14 60q58 134 192 134q100 0 186 -95l-1 -1q4 -1 10 -5q12 -39 27 -123h37l-2 251h10q0 -11 -2 -33t-2 -33q2 -3 4 -8h-2q0 -3 1 -8t1 -7q0 9 -2 -12h2q0 -13 -4 -22l4 -5h-2q-1 -3 -2 -8l4 -3l-4 -6q0 -23 4 -27q0 -10 -3 -30t-3 -31 q0 -3 1 -9t1 -9h10v257h-6v4h8l-1 -531q1 -1 1 -2l-1 -1v-20l1 -1l-1 -1v-5q1 -1 1 -2l-1 -1v-48h-7v47l-4 5q0 -16 -1 -47.5t-1 -46.5q0 -22 1 -65t1 -63q0 10 10 9l-3 3q0 3 1.5 8t1.5 7q-1 5 -3 6l4 3l1 -86l-2 -3l-2 6h-4q-45 8 -60 8h-4q-4 -3 -4 -8l1 -3q-9 8 -9 14 q1 7 10 22v-19h56v94l-4 1v36l4 4q2 53 2 187q1 3 3 11q0 -10 1 -31v-31q3 2 7 15l-3 7l3 4q0 2 -1.5 8t-1.5 9q0 16 6 26h-3l-3 5l-5 -8l-3 3q0 35 -1 103.5t-1 103.5h-35q-18 -85 -79 -137q26 -21 66 -74q18 -38 18 -93q0 -99 -62 -161.5t-162 -62.5q-163 0 -206 155 q-4 12 -8 35zM73 929v6q0 9 5 9v-12q0 -5 -3 -8q-2 3 -2 5zM83 1044v11q1 6 4 6q2 -1 7 -2v-4q-8 -6 -11 -11zM102 967v42h6q-3 17 -3 -45zM171 633h4q5 -4 12 -13q3 -2 3 -6h-5q-8 0 -10 8.5t-4 10.5zM200 72q13 46 33 75q17 43 52 126q15 34 31 69l7 29v14q2 8 13 19l3 8 q3 12 0 24q-3 11 4 34q2 10 10 24t11 23q2 17 15 44q3 -19 -10 -64q-3 -13 -7 -13l-2 9q-5 -5 -6 -10q-1 -4 4 -12q-1 -7 -3 -22q4 -1 53 104q24 52 57 135l2 10q51 131 100 236l4 -2q4 9 14 23l2 7v31l6 7q20 74 42 77q4 1 23 46q16 40 32 79q26 55 53 55q1 0 40 -9 q6 -1 15.5 -5t5.5 -19q-7 -27 -48 -108q-7 -17 -20 -49q-20 -46 -45 -103q-60 -129 -130 -297q-4 -15 -106 -241q-39 -86 -79 -171q-44 -102 -66 -183l-3 1q0 -5 -1 -10q-7 -15 -21 -22q-33 7 -85 31zM245 920q0 7 6 7h1q2 -9 13 -9l-15 -8h-4q-1 13 -1 10zM253 964l1 1 q1 4 3 13h3v-14h-7zM269 1243v13q0 7 5 9v-7q0 -5 -1.5 -14.5t-1.5 -13.5q-2 6 -2 13zM328 383l1 -6q2 0 3 3q2 5 0 9q-3 -2 -4 -6zM349 427q3 1 4 6l1 1q1 4 -1 8q-3 -2 -4 -7q-2 -5 0 -8zM354 653q9 0 9 -10q-9 0 -9 10zM366 525l2 -4h2v7zM371 533q3 2 5 6v2q1 3 -1 7 q-3 -2 -4 -6q-1 -5 0 -9zM432 614l6 6v21l5 3v-30h-11zM432 1512v7l2 1q-1 3 -2 5q2 2 3.5 6.5t4.5 12.5q0 3 3 8v-53q-11 0 -11 13zM460 191v50q0 17 4 31q6 4 14 27l3 3v4q8 14 63 123l4 2l29 58q17 33 37 68v3q15 29 44 88q10 10 10 15v3l39 74q1 2 3 5l-1 2q21 41 49 86 q79 0 92 -6q14 0 14 -17q0 -29 -6 -77q-7 -60 -8 -77q-5 -77 -17 -233l-9 -100q-4 -44 -4 -45v-12q11 -6 37 -6q3 1 5 4q3 -2 7 -4h3q4 2 5 4v-5q3 0 9.5 1t10.5 1q10 0 10 -6q0 -4 -1.5 -11.5t-1.5 -11.5q0 -10 1 -14l-4 -2v-25q0 -3 -1 -9.5t-1 -10.5q0 -16 -3 -16 q-1 1 -3 1q-27 5 -78 5h-3q-7 -73 -16 -152h-13q-92 0 -97 9q-1 3 -1 15q0 21 5 63t5 63v12q-79 4 -235 20zM502 1197l3 -2l1 1q-2 -7 -2 -13q0 -8 2 -12v-38l4 -2q-5 -3 -5 -8q0 8 1 -9l2 -4q-3 -6 -3 -9l1 -1l-1 -7h1q7 0 7 7q-2 4 -1 23q0 21 4 24v105q-10 0 -10 -11v-5 q2 -3 4 -4l-4 -4q0 -5 2 -8t2 -6v-4l-4 4q2 -9 0 -17l-1 2zM505 1251l1 -3l3 3l-3 2zM506 717q3 2 3 4q0 3 -3 4v-8zM506 1052q7 7 7 11q-1 3 -3 8l-1 1l-1 -1h-2v-19zM506 1074l7 10h-3q-3 0 -4 -7v-3zM506 1196v1v-1zM508 1144v1v1q0 3 2 4l2 -3l-2 -3h-1h-1zM508 1158 l2 2l3 -2l-3 -3zM508 1166l2 2l3 -2q-1 -3 -3 -3zM510 972l2 -1l4 1q-2 1 -4 1zM513 723q0 -1 1 -2l2 2q-2 1 -3 1v-1zM513 731l1 -2l2 -1v13q-3 -3 -3 -10zM513 956l3 -2l1 1v3l-1 1q-3 -1 -3 -3zM513 964l3 -2l1 1v2l-1 2q-3 -1 -3 -3zM513 986l3 -3l1 2v3q-1 0 -1 1 q-3 -1 -3 -3zM565 289q23 -14 136 -14l3 3q8 62 8 97q0 -16 12 155l7 82h-3l-48 -96l-4 -3l-53 -108q0 -1 -58 -115v-1zM608 1037l1 -6q2 1 3 4q2 5 0 9q-3 -3 -4 -7zM611 1022q-1 -5 1 -9q3 1 4 6v1q1 4 0 8q-3 -2 -5 -6zM621 1049l4 -2q5 18 2 22l-6 -6q2 -7 0 -14z M701 309l3 3l3 -3q-1 -3 -3 -3q-3 1 -3 3zM728 617l2 -3q2 1 2 3q-1 3 -2 3zM827 878v3q16 0 18 9l6 -12h-24zM829 1292q-4 17 6 75q0 14 1 19q7 -10 23 -25q-17 -61 -30 -69zM831 1299q3 2 4 5q2 6 0 9q-3 -3 -4 -7q-1 -3 0 -7zM832 1336l1 -6q2 1 4 4q1 5 0 9q3 1 4 5v2 q2 6 0 9q-3 -2 -5 -8q-1 -5 1 -8q-4 -3 -5 -7z" />
<glyph unicode="&#xbf;" horiz-adv-x="559" d="M10 299q0 162 18 229q37 131 154 139l17 234q84 0 131 -7v-38q0 -90 -18 -300q-87 0 -113 -25q-43 -39 -43 -247q0 -129 62 -129q43 0 60 59q6 19 14 96q81 0 135 -6q0 -6 1 -17.5t1 -16.5q0 -250 -191 -250q-133 0 -185 77q-43 62 -43 202zM188 366v7q14 0 18 -7h-18z M188 1078q0 42 25.5 71t67.5 29q38 0 65 -25.5t27 -64.5q0 -88 -90 -88q-95 0 -95 78zM345 452h3q14 0 14 -9l-1 -3l-6 -5q-10 8 -10 17zM400 452h9l13 -6v-39q-22 0 -22 45zM457 869h15v-86h-7q-6 0 -6 26q0 10 -1 30t-1 30zM459 666q0 -3 1 0q2 7 4 22l8 46q4 -38 4 -69 v-163q-13 5 -13 88q0 9 1 28.5t1 29.5q-6 6 -6 18zM459 882v125h6q7 0 7 -48q0 -39 -7 -77h-6zM470 342q13 1 13 -6v-107l-7 -18q-6 67 -6 131z" />
<glyph unicode="&#xc0;" horiz-adv-x="1095" d="M4 -92q0 102 16 178v-66q0 -100 -16 -189v77zM26 211v3q1 4 3 6l3 -3q7 0 8 -5q-2 -5 -8 -12q-6 0 -6 11zM26 276q0 23 4 41q9 -4 9 -33q0 -33 -8 -40q-5 11 -5 32zM47 131q0 65 37 162l62 158l36 105q11 38 37 111q5 10 13 32l130 405q4 13 14 22h379q19 -7 43 -15 q8 -30 29 -88q0 -74 16 -84q43 -187 58 -246q36 -139 75 -242q0 -23 11 -34l56 -257q23 0 23 -61h-268q-18 0 -38 67q-11 39 -33 79q-63 31 -134 31h-67q-44 -1 -67 -1q-43 0 -62 -20q-12 -13 -28 -59q-28 -79 -47 -79h-261q-7 3 -14 14zM133 1399q1 4 6 5h2q4 -1 5 -5 q0 -6 -6 -6h-1q-6 0 -6 6zM365 1383q2 5 14 5h3q7 0 13 -2q-4 -8 -10 -8h-7q-8 0 -13 5zM378 1436l103 55l95 -242l-44 -31zM421 1383q1 5 8 5h2q5 0 7 -2q-3 -7 -7 -9q-4 1 -10 6zM464 496q69 -21 207 -21q0 181 -95 381l-13 -16q-29 -88 -59 -175q-40 -123 -40 -169z M464 1383q2 5 14 5h3q7 0 13 -2q-3 -8 -9 -8h-8q-8 0 -13 5zM593 1370v13l177 -13h-177zM784 1356q-1 16 11 16q4 0 11.5 -1t10.5 -1q272 0 201 1q116 -3 196 -30l-16 -12h-101q-174 0 -313 27z" />
<glyph unicode="&#xc1;" horiz-adv-x="1095" d="M4 -92q0 102 16 178v-66q0 -100 -16 -189v77zM26 211v3q1 4 3 6l3 -3q7 0 8 -5q-2 -5 -8 -12q-6 0 -6 11zM26 276q0 23 4 41q9 -4 9 -33q0 -33 -8 -40q-5 11 -5 32zM47 131q0 65 37 162l62 158l36 105q11 38 37 111q5 10 13 32l130 405q4 13 14 22h379q19 -7 43 -15 q8 -30 29 -88q0 -74 16 -84q43 -187 58 -246q36 -139 75 -242q0 -23 11 -34l56 -257q23 0 23 -61h-268q-18 0 -38 67q-11 39 -33 79q-63 31 -134 31h-67q-44 -1 -67 -1q-43 0 -62 -20q-12 -13 -28 -59q-28 -79 -47 -79h-261q-7 3 -14 14zM133 1399q1 4 6 5h2q4 -1 5 -5 q0 -6 -6 -6h-1q-6 0 -6 6zM365 1383q2 5 14 5h3q7 0 13 -2q-4 -8 -10 -8h-7q-8 0 -13 5zM421 1383q1 5 8 5h2q5 0 7 -2q-3 -7 -7 -9q-4 1 -10 6zM464 496q69 -21 207 -21q0 181 -95 381l-13 -16q-29 -88 -59 -175q-40 -123 -40 -169zM464 1383q2 5 14 5h3q7 0 13 -2 q-3 -8 -9 -8h-8q-8 0 -13 5zM565 1286l94 242l104 -55l-154 -218zM593 1370v13l177 -13h-177zM784 1356q-1 16 11 16q4 0 11.5 -1t10.5 -1q272 0 201 1q116 -3 196 -30l-16 -12h-101q-174 0 -313 27z" />
<glyph unicode="&#xc2;" horiz-adv-x="1095" d="M4 -92q0 102 16 178v-66q0 -100 -16 -189v77zM26 211v3q1 4 3 6l3 -3q7 0 8 -5q-2 -5 -8 -12q-6 0 -6 11zM26 276q0 23 4 41q9 -4 9 -33q0 -33 -8 -40q-5 11 -5 32zM47 131q0 65 37 162l62 158l36 105q11 38 37 111q5 10 13 32l130 405q4 13 14 22h379q19 -7 43 -15 q8 -30 29 -88q0 -74 16 -84q43 -187 58 -246q36 -139 75 -242q0 -23 11 -34l56 -257q23 0 23 -61h-268q-18 0 -38 67q-11 39 -33 79q-63 31 -134 31h-67q-44 -1 -67 -1q-43 0 -62 -20q-12 -13 -28 -59q-28 -79 -47 -79h-261q-7 3 -14 14zM133 1399q1 4 6 5h2q4 -1 5 -5 q0 -6 -6 -6h-1q-6 0 -6 6zM365 1383q2 5 14 5h3q7 0 13 -2q-4 -8 -10 -8h-7q-8 0 -13 5zM421 1383q1 5 8 5h2q5 0 7 -2q-3 -7 -7 -9q-4 1 -10 6zM464 496q69 -21 207 -21q0 181 -95 381l-13 -16q-29 -88 -59 -175q-40 -123 -40 -169zM464 1383q2 5 14 5h3q7 0 13 -2 q-3 -8 -9 -8h-8q-8 0 -13 5zM473 1235q2 10 11 23q4 -6 4 -24q1 -2 2 -5v-1q-6 3 -17 7zM481 1253l1 -2l2 2l-1 2zM483 1239l1 -3l2 3l-1 2l2 2l-2 2l-1 -1l1 -3l-2 -1v-1zM492 1279q0 5 44.5 86.5t48 92.5t20.5 11q39 0 54 -30q17 -34 18 -34q14 -4 18 -25l3 -3l-3 -9v-3 q3 -1 7 -7l2 1h1q1 -1 2 -3q12 -31 33 -73q2 -2 2 0v-4q0 -15 -42 -15q-18 0 -21 10q-20 40 -60 117l-6 -12q0 -2 -2 -4q-1 -1 -1 0h-3q-2 -3 -6 -7l-1 -2l4 -10l-3 -2q-4 -22 -18 -26q-12 -21 -28 -50q-6 -8 -22 -8q-41 0 -41 9zM586 1338l1 -7q3 2 1 7h-2zM588 1347 q2 -2 2 2zM593 1370v13l177 -13h-177zM680 1395l3 1l1 4l-3 2zM683 1387l2 -3l1 3l-2 2zM784 1356q-1 16 11 16q4 0 11.5 -1t10.5 -1q272 0 201 1q116 -3 196 -30l-16 -12h-101q-174 0 -313 27z" />
<glyph unicode="&#xc3;" horiz-adv-x="1095" d="M4 -92q0 102 16 178v-66q0 -100 -16 -189v77zM26 211v3q1 4 3 6l3 -3q7 0 8 -5q-2 -5 -8 -12q-6 0 -6 11zM26 276q0 23 4 41q9 -4 9 -33q0 -33 -8 -40q-5 11 -5 32zM47 131q0 65 37 162l62 158l36 105q11 38 37 111q5 10 13 32l130 405q4 13 14 22h379q19 -7 43 -15 q8 -30 29 -88q0 -74 16 -84q43 -187 58 -246q36 -139 75 -242q0 -23 11 -34l56 -257q23 0 23 -61h-268q-18 0 -38 67q-11 39 -33 79q-63 31 -134 31h-67q-44 -1 -67 -1q-43 0 -62 -20q-12 -13 -28 -59q-28 -79 -47 -79h-261q-7 3 -14 14zM133 1399q1 4 6 5h2q4 -1 5 -5 q0 -6 -6 -6h-1q-6 0 -6 6zM307 1249v58q0 57 50 99q44 37 90 37q44 0 133.5 -55.5t115.5 -55.5q45 0 67 40l33 68h17v-40q0 -11 -8 -28q-8 -21 -10 -27q-6 -31 -48.5 -64t-73.5 -33q-12 0 -127 55.5t-127 55.5q-66 0 -89 -98q0 -12 -23 -12zM365 1383q2 5 14 5h3q7 0 13 -2 q-4 -8 -10 -8h-7q-8 0 -13 5zM421 1383q1 5 8 5h2q5 0 7 -2q-3 -7 -7 -9q-4 1 -10 6zM464 496q69 -21 207 -21q0 181 -95 381l-13 -16q-29 -88 -59 -175q-40 -123 -40 -169zM464 1383q2 5 14 5h3q7 0 13 -2q-3 -8 -9 -8h-8q-8 0 -13 5zM593 1370v13l177 -13h-177zM784 1356 q-1 16 11 16q4 0 11.5 -1t10.5 -1q272 0 201 1q116 -3 196 -30l-16 -12h-101q-174 0 -313 27z" />
<glyph unicode="&#xc4;" horiz-adv-x="1095" d="M4 -92q0 102 16 178v-66q0 -100 -16 -189v77zM26 211v3q1 4 3 6l3 -3q7 0 8 -5q-2 -5 -8 -12q-6 0 -6 11zM26 276q0 23 4 41q9 -4 9 -33q0 -33 -8 -40q-5 11 -5 32zM47 131q0 65 37 162l62 158l36 105q11 38 37 111q5 10 13 32l130 405q4 13 14 22h379q19 -7 43 -15 q8 -30 29 -88q0 -74 16 -84q43 -187 58 -246q36 -139 75 -242q0 -23 11 -34l56 -257q23 0 23 -61h-268q-18 0 -38 67q-11 39 -33 79q-63 31 -134 31h-67q-44 -1 -67 -1q-43 0 -62 -20q-12 -13 -28 -59q-28 -79 -47 -79h-261q-7 3 -14 14zM133 1399q1 4 6 5h2q4 -1 5 -5 q0 -6 -6 -6h-1q-6 0 -6 6zM365 1383q2 5 14 5h3q7 0 13 -2q-4 -8 -10 -8h-7q-8 0 -13 5zM382 1267q0 58 54 58q56 0 56 -58q0 -54 -49 -54q-61 0 -61 54zM421 1383q1 5 8 5h2q5 0 7 -2q-3 -7 -7 -9q-4 1 -10 6zM464 496q69 -21 207 -21q0 181 -95 381l-13 -16 q-29 -88 -59 -175q-40 -123 -40 -169zM464 1383q2 5 14 5h3q7 0 13 -2q-3 -8 -9 -8h-8q-8 0 -13 5zM593 1370v13l177 -13h-177zM663 1274q0 51 55 51q58 0 58 -58q0 -54 -61 -54q-52 0 -52 61zM784 1356q-1 16 11 16q4 0 11.5 -1t10.5 -1q272 0 201 1q116 -3 196 -30 l-16 -12h-101q-174 0 -313 27z" />
<glyph unicode="&#xc5;" horiz-adv-x="1095" d="M4 -92q0 102 16 178v-66q0 -100 -16 -189v77zM26 211v3q1 4 3 6l3 -3q7 0 8 -5q-2 -5 -8 -12q-6 0 -6 11zM26 276q0 23 4 41q9 -4 9 -33q0 -33 -8 -40q-5 11 -5 32zM47 131q0 65 37 162l62 158l36 105q11 38 37 111q5 10 13 32l130 405q4 13 14 22h379q19 -7 43 -15 q8 -30 29 -88q0 -74 16 -84q43 -187 58 -246q36 -139 75 -242q0 -23 11 -34l56 -257q23 0 23 -61h-268q-18 0 -38 67q-11 39 -33 79q-63 31 -134 31h-67q-44 -1 -67 -1q-43 0 -62 -20q-12 -13 -28 -59q-28 -79 -47 -79h-261q-7 3 -14 14zM133 1399q1 4 6 5h2q4 -1 5 -5 q0 -6 -6 -6h-1q-6 0 -6 6zM365 1383q2 5 14 5h3q7 0 13 -2q-4 -8 -10 -8h-7q-8 0 -13 5zM421 1383q1 5 8 5h2q5 0 7 -2q-3 -7 -7 -9q-4 1 -10 6zM464 496q69 -21 207 -21q0 181 -95 381l-13 -16q-29 -88 -59 -175q-40 -123 -40 -169zM464 1383q2 5 14 5h3q7 0 13 -2 q-3 -8 -9 -8h-8q-8 0 -13 5zM593 1370v13l177 -13h-177zM784 1356q-1 16 11 16q4 0 11.5 -1t10.5 -1q272 0 201 1q116 -3 196 -30l-16 -12h-101q-174 0 -313 27z" />
<glyph unicode="&#xc6;" horiz-adv-x="1340" d="M4 -92q0 102 16 178v-66q0 -100 -16 -189v77zM26 211v3q1 4 3 6l3 -3q7 0 8 -5q-2 -5 -8 -12q-6 0 -6 11zM26 276q0 23 4 41q9 -4 9 -33q0 -33 -8 -40q-5 11 -5 32zM47 131q0 65 37 162l62 158l36 105q11 38 37 111q5 10 13 32l130 405q4 13 14 22h359q5 84 32 120h114 q28 0 28 18q175 -18 249.5 -18t115.5 -27q0 -33 4.5 -100.5t4.5 -101.5q0 -47 -9 -47h-322v-93h47q-5 -17 -29 -23q-18 -4 -18 -56v-41q4 -9 15 -25h203q12 0 30 -19t17 -31q-18 -231 -18 -234q-9 0 -16 7q-10 10 -13 12h-200l6 -16q0 -23 11 -34l42 -194q57 8 71 14 q16 0 43 26q8 -6 18 -21l-2 -5l70 7h-45q27 5 48 5q13 0 32 -15t19 -27v-220q0 -27 -78 -27h-71q-161 0 -386 11l-15 16q-9 155 -9 144q0 30 6 103v6l-3 5q-63 31 -134 31h-67q-44 -1 -67 -1q-43 0 -62 -20q-12 -13 -28 -59q-28 -79 -47 -79h-261q-7 3 -14 14zM133 1399 q1 4 6 5h2q4 -1 5 -5q0 -6 -6 -6h-1q-6 0 -6 6zM365 1383q2 5 14 5h3q7 0 13 -2q-4 -8 -10 -8h-7q-8 0 -13 5zM421 1383q1 5 8 5h2q5 0 7 -2q-3 -7 -7 -9q-4 1 -10 6zM464 496q69 -21 207 -21q0 181 -95 381l-13 -16q-29 -88 -59 -175q-40 -123 -40 -169zM464 1383q2 5 14 5 h3q7 0 13 -2q-3 -8 -9 -8h-8q-8 0 -13 5zM593 1370v13l177 -13h-177zM649 -259l1 1v4l1 20l5 68q19 275 19 382q17 -350 17 -534v-24q-25 0 -35 25q-8 18 -8 47v11zM784 1356q-1 16 11 16q4 0 11.5 -1t10.5 -1q272 0 201 1q116 -3 196 -30l-16 -12h-101q-174 0 -313 27z" />
<glyph unicode="&#xc7;" horiz-adv-x="1009" d="M-21 615q0 6 5 21.5t5 21.5q12 112 35 266v-104q0 -28 -4 -71q-5 -57 -6 -71q-4 -88 -9 -142q3 -8 7 -9l12 2q0 7 5 17t5 15q-1 6 -4 9q0 7 -3 22t-3 23q0 32 26 144q14 64 74 183q4 6 128 153q3 -1 10.5 -5t10.5 -4q9 0 33 10q31 13 36 15q66 20 156 20q15 0 117 -9 q181 -16 268 -110q2 -7 5 -21q17 -12 45 -43q12 12 12 32q0 11 -3 20l15 -9l10 21v99l-10 11l10 9q-10 -1 -10 9q5 14 10 25l-16 7l-9 8v7q0 11 17 33t17 57q0 4 -3 7h-16q4 1 9 2q5 0 7 -2h23q0 -107 -14 -378q-4 -128 -15 -385q-10 -203 -10 -248q0 -214 -6 -260l-18 -9 h-223q16 8 167 11q40 1 65 5v137q0 45 -54 80q-76 -102 -255 -138q-6 -1 -23 -8t-20 -7q-9 0 -9 6h-119q-82 34 -151 34h-14q9 -16 9 -34q0 -15 -18 -15q-8 47 -73 103q-82 69 -97 93q-33 50 -51 93q-4 11 -9 32q-6 0 -19 3t-19 3q-8 0 -8 -12q0 -13 1 -38v-38l11 -7 q-11 -5 -11 -55q0 -9 11 -15v-233zM30 957v68q0 84 11 140v-140q0 -27 -11 -68zM306 1172v8q0 16 10 19q-10 2 -10 15q0 12 8 34t8 34q0 16 -6 27q0 9 20 9q25 0 25 -41q0 -14 -7 -24t-7 -19q0 -17 8 -20q-17 0 -28 -16q-15 -22 -21 -26zM322 606q0 -79 20 -86 q-11 -4 -11 -24q0 -66 37 -115q31 -16 35 -39q3 2 7 2v-13h22l-6 -16v-1q10 -17 94 -17q62 0 80 50q4 -15 7 -17l6 -1q12 12 29 51q16 36 31 46q131 0 131 70q0 4 -4.5 12t-4.5 12q0 17 6 17q19 -6 21 -6q0 -11 7 -32t7 -33h-14v-27q12 0 24 10.5t37 10.5q18 -19 25 -19 q16 0 16 10l18 -34h9q-9 26 -9 54q0 10 2 29.5t2 28.5h5v62l-9 4q8 7 9 11q8 40 8 172h-195q-1 -1 -11 -10h-9q-72 38 -88 75q-7 17 -23 45q-1 1 -63 36q-8 0 -23.5 1t-23.5 1q-201 0 -201 -320zM334 1291q0 -7 8 -7q4 0 5 6v2q-1 8 -5 8q-8 0 -8 -8v-1zM347 512q1 4 6 4 q1 0 5 -1l-3 -3q0 -4 -2 -6q-3 2 -6 6zM355 486q4 10 19 10h4q12 0 14 -10h-37zM401 503v17h9v-17h-9zM428 493v2q0 8 7 8q4 0 4 -8v-2q-1 -7 -4 -7q-7 0 -7 7zM441 451q2 4 10 4h4q4 0 8 -3q-5 -5 -12 -5q-5 0 -10 4zM444 474v3q0 9 6 9h2q8 0 8 -10v-2q0 -8 -8 -8h-2 q-6 0 -6 8zM444 502v2q-1 7 6 7h2q8 0 8 -7v-2q0 -6 -8 -6h-2q-6 0 -6 6zM464 440v3q1 8 7 8q4 -2 4 -9v-2q-1 -5 -4 -5q-7 0 -7 5zM589 374q3 2 7 2h3q4 0 8 -2l-1 -3q-3 -1 -5 -1h-2q-7 0 -10 4zM651 767v2q0 9 7 9q4 -2 4 -9v-2q0 -8 -4 -8q-7 0 -7 8zM662 721q0 2 3 4 l4 -4l-4 -3zM685 683q1 3 3 7v1q0 5 4 7q15 23 35 54q12 -48 37 -62q-31 0 -54 -26h-7q-18 0 -18 19zM688 689q0 -6 6 -6q5 2 5 7q-1 9 -5 9q-1 -1 -2 -1q-3 -4 -4 -8v-1zM762 756l4 1l4 -1q-2 -3 -4 -8l-3 4zM768 673q2 4 4 5h2q5 -1 6 -5q-2 -4 -5 -4zM780 725v10l15 9 q9 0 9 -8v-11q-5 -2 -15 -7l-7 4zM795 546v8q4 1 5 2l4 7q0 -5 -4 -7zM798 431q0 -5 5 -5h2q6 0 6 5v2q0 8 -6 8h-1q-6 0 -6 -8v-2zM903 473l2 4l3 -2q4 0 5 -2q-2 -4 -5 -7q-5 3 -5 7zM905 754q4 6 9 7l2 -2v-1q0 -6 -4 -6h-2q-2 0 -5 2zM912 730v1q1 3 2 5l3 -1l2 -5 l-3 -5q-4 2 -4 5zM926 569v2q0 8 6 8h2q6 0 6 -8v-2q0 -6 -6 -6h-2q-6 0 -6 6zM933 718q4 15 18 26q0 -21 -9 -26l-2 -4l-6 2zM942 897l15 -43v72q-5 -8 -15 -18q0 -12 0 -11zM955 817q0 -9 2 -13q5 5 5 14v5q-1 11 -5 15q-2 -5 -2 -16v-5z" />
<glyph unicode="&#xc8;" d="M-25 -120l2 21l4 68q19 275 19 382q18 -350 18 -534v-24q-25 0 -36 25q-7 18 -7 47v11v1v3zM31 1124l27 28l-8 17l8 11q0 156 35 201h114q28 0 27 18q175 -18 250 -18t116 -27q0 -33 4 -100.5t4 -101.5q0 -48 -8 -48h-323v-92h48q-6 -17 -30 -23q-18 -4 -18 -56v-41 q5 -9 16 -25h202q12 0 30 -19t17 -31q-17 -231 -17 -234q-10 0 -16 7q-11 10 -14 12h-228v-230l26 -21q80 0 133 21q15 0 43 26q8 -7 17 -21l-2 -5l71 6h-46q28 6 49 6q13 0 31.5 -15t18.5 -27v-220q0 -27 -77 -27h-72q-161 0 -385 11l-16 16q-8 154 -8 144q0 31 5 103 q10 129 10 269q0 32 -3.5 96.5t-3.5 97.5q0 7 -4 22t-4 23q2 5 8 15q0 13 -4 37.5t-4 37.5q0 16 7.5 46t7.5 46q0 56 -34 65zM145 1685l103 55l95 -242l-44 -31z" />
<glyph unicode="&#xc9;" d="M-25 -120l2 21l4 68q19 275 19 382q18 -350 18 -534v-24q-25 0 -36 25q-7 18 -7 47v11v1v3zM31 1124l27 28l-8 17l8 11q0 156 35 201h114q28 0 27 18q175 -18 250 -18t116 -27q0 -33 4 -100.5t4 -101.5q0 -48 -8 -48h-323v-92h48q-6 -17 -30 -23q-18 -4 -18 -56v-41 q5 -9 16 -25h202q12 0 30 -19t17 -31q-17 -231 -17 -234q-10 0 -16 7q-11 10 -14 12h-228v-230l26 -21q80 0 133 21q15 0 43 26q8 -7 17 -21l-2 -5l71 6h-46q28 6 49 6q13 0 31.5 -15t18.5 -27v-220q0 -27 -77 -27h-72q-161 0 -385 11l-16 16q-8 154 -8 144q0 31 5 103 q10 129 10 269q0 32 -3.5 96.5t-3.5 97.5q0 7 -4 22t-4 23q2 5 8 15q0 13 -4 37.5t-4 37.5q0 16 7.5 46t7.5 46q0 56 -34 65zM307 1521l94 242l104 -55l-154 -218z" />
<glyph unicode="&#xca;" d="M-25 -120l2 21l4 68q19 275 19 382q18 -350 18 -534v-24q-25 0 -36 25q-7 18 -7 47v11v1v3zM31 1124l27 28l-8 17l8 11q0 156 35 201h114q28 0 27 18q175 -18 250 -18t116 -27q0 -33 4 -100.5t4 -101.5q0 -48 -8 -48h-323v-92h48q-6 -17 -30 -23q-18 -4 -18 -56v-41 q5 -9 16 -25h202q12 0 30 -19t17 -31q-17 -231 -17 -234q-10 0 -16 7q-11 10 -14 12h-228v-230l26 -21q80 0 133 21q15 0 43 26q8 -7 17 -21l-2 -5l71 6h-46q28 6 49 6q13 0 31.5 -15t18.5 -27v-220q0 -27 -77 -27h-72q-161 0 -385 11l-16 16q-8 154 -8 144q0 31 5 103 q10 129 10 269q0 32 -3.5 96.5t-3.5 97.5q0 7 -4 22t-4 23q2 5 8 15q0 13 -4 37.5t-4 37.5q0 16 7.5 46t7.5 46q0 56 -34 65zM214 1455q2 10 11 23q4 -6 4 -24q1 -2 2 -5v-1q-6 3 -17 7zM222 1473l1 -2l2 2l-1 2zM224 1459l1 -3l2 3l-1 2l2 2l-2 2l-1 -1l1 -3l-2 -1v-1z M233 1499q0 5 44.5 86.5t48 92.5t20.5 11q39 0 54 -30q17 -34 18 -34q14 -4 18 -25l3 -3l-3 -9v-3q3 -1 7 -7l2 1h1q1 -1 2 -3q12 -31 33 -73q2 -2 2 0v-4q0 -15 -42 -15q-18 0 -21 10q-20 40 -60 117l-6 -12q0 -2 -2 -4q-1 -1 -1 0h-3q-2 -3 -6 -7l-1 -2l4 -10l-3 -2 q-4 -22 -18 -26q-12 -21 -28 -50q-6 -8 -22 -8q-41 0 -41 9zM327 1558l1 -7q3 2 1 7h-2zM329 1567q2 -2 2 2zM421 1615l3 1l1 4l-3 2zM424 1607l2 -3l1 3l-2 2z" />
<glyph unicode="&#xcb;" d="M-25 -120l2 21l4 68q19 275 19 382q18 -350 18 -534v-24q-25 0 -36 25q-7 18 -7 47v11v1v3zM31 1124l27 28l-8 17l8 11q0 156 35 201h114q28 0 27 18q175 -18 250 -18t116 -27q0 -33 4 -100.5t4 -101.5q0 -48 -8 -48h-323v-92h48q-6 -17 -30 -23q-18 -4 -18 -56v-41 q5 -9 16 -25h202q12 0 30 -19t17 -31q-17 -231 -17 -234q-10 0 -16 7q-11 10 -14 12h-228v-230l26 -21q80 0 133 21q15 0 43 26q8 -7 17 -21l-2 -5l71 6h-46q28 6 49 6q13 0 31.5 -15t18.5 -27v-220q0 -27 -77 -27h-72q-161 0 -385 11l-16 16q-8 154 -8 144q0 31 5 103 q10 129 10 269q0 32 -3.5 96.5t-3.5 97.5q0 7 -4 22t-4 23q2 5 8 15q0 13 -4 37.5t-4 37.5q0 16 7.5 46t7.5 46q0 56 -34 65zM151 1545q0 58 54 58q56 0 56 -58q0 -54 -49 -54q-61 0 -61 54zM432 1552q0 51 55 51q58 0 58 -58q0 -54 -61 -54q-52 0 -52 61z" />
<glyph unicode="&#xcc;" horiz-adv-x="373" d="M-43 1530l103 55l95 -242l-44 -31zM8 124v252q13 -63 13 -182v-84zM30 1101l14 12v97q0 36 173 36h43q32 -45 36 -144q0 -49 2 -147q8 -139 25 -420q11 -192 11 -201l1 -117q-44 0 -156 -8l-23 -1l-6 -1h4q-6 0 -20 -1h-19q-9 0 -10 11q-4 82 -14 247l-23 351 q-1 60 -11 178q-3 36 -13 95z" />
<glyph unicode="&#xcd;" horiz-adv-x="373" d="M8 124v252q13 -63 13 -182v-84zM30 1101l14 12v97q0 36 173 36h43q32 -45 36 -144q0 -49 2 -147q8 -139 25 -420q11 -192 11 -201l1 -117q-44 0 -156 -8l-23 -1l-6 -1h4q-6 0 -20 -1h-19q-9 0 -10 11q-4 82 -14 247l-23 351q-1 60 -11 178q-3 36 -13 95zM156 1370l94 242 l104 -55l-154 -218z" />
<glyph unicode="&#xce;" horiz-adv-x="373" d="M6 1312q2 10 11 23q4 -6 4 -24q1 -2 2 -5v-1q-6 3 -17 7zM8 124v252q13 -63 13 -182v-84zM14 1330l1 -2l2 2l-1 2zM16 1316l1 -3l2 3l-1 2l2 2l-2 2l-1 -1l1 -3l-2 -1v-1zM25 1356q0 5 44.5 86.5t48 92.5t20.5 11q39 0 54 -30q17 -34 18 -34q14 -4 18 -25l3 -3l-3 -9v-3 q3 -1 7 -7l2 1h1q1 -1 2 -3q12 -31 33 -73q2 -2 2 0v-4q0 -15 -42 -15q-18 0 -21 10q-20 40 -60 117l-6 -12q0 -2 -2 -4q-1 -1 -1 0h-3q-2 -3 -6 -7l-1 -2l4 -10l-3 -2q-4 -22 -18 -26q-12 -21 -28 -50q-6 -8 -22 -8q-41 0 -41 9zM30 1101l14 12v97q0 36 173 36h43 q32 -45 36 -144q0 -49 2 -147q8 -139 25 -420q11 -192 11 -201l1 -117q-44 0 -156 -8l-23 -1l-6 -1h4q-6 0 -20 -1h-19q-9 0 -10 11q-4 82 -14 247l-23 351q-1 60 -11 178q-3 36 -13 95zM119 1415l1 -7q3 2 1 7h-2zM121 1424q2 -2 2 2zM213 1472l3 1l1 4l-3 2zM216 1464 l2 -3l1 3l-2 2z" />
<glyph unicode="&#xcf;" horiz-adv-x="373" d="M-47 1400q0 58 54 58q56 0 56 -58q0 -54 -49 -54q-61 0 -61 54zM8 124v252q13 -63 13 -182v-84zM30 1101l14 12v97q0 36 173 36h43q32 -45 36 -144q0 -49 2 -147q8 -139 25 -420q11 -192 11 -201l1 -117q-44 0 -156 -8l-23 -1l-6 -1h4q-6 0 -20 -1h-19q-9 0 -10 11 q-4 82 -14 247l-23 351q-1 60 -11 178q-3 36 -13 95zM234 1407q0 51 55 51q58 0 58 -58q0 -54 -61 -54q-52 0 -52 61z" />
<glyph unicode="&#xd0;" horiz-adv-x="1024" d="M-28 -212l41 857v283q0 11 4 28q5 21 5 27q9 70 9 139h7v-36q50 -7 52 -7v-11h-52v-81l11 -5q13 12 21 20q3 -7 20 -6v-25q25 -18 42 -29q2 -4 7 -7h4q11 9 11 24q0 16 -2 23q12 -5 12 -27q0 -9 -6 -24t-6 -23q0 -16 21 -29q0 9 7 9q12 0 20 -9v103q-26 19 -36 34h36v52 h-20l13 18l-7 9l16 12v139q34 2 38 27l28 -27h15q22 0 66 3.5t65 3.5q6 7 11 9l3 -1l6 -8h57q19 17 47 82l14 -22q14 37 15 43v7q-22 -7 -52.5 -38t-50.5 -39q-1 10 29 90v-47h13q0 43 27 43q8 0 19 -2q0 29 -14 36q27 13 29 27l27 -21l-27 -26q34 6 34 -55q-4 -6 -13 -18 q-7 1 -14 9q-5 -15 -22 -28q3 -6 11 -28h-11l-5 7l-16 9q-9 0 -9 -8q0 -3 4 -19q6 0 16 -2t15 -2q8 0 17 9l-2 -6q7 -8 101 -40q78 -27 169 -128q7 -9 24 -22l-4 -5q47 -76 77 -208q3 -34 11 -102q4 -28 16 -35l-6 -7v-67l6 -10q0 -5 -3 -14t-3 -14v-19q26 10 26 28v264 l-13 4l13 15q7 31 7 67v118q0 22 -27 22l27 28v358q-29 0 -84.5 1.5t-83.5 1.5q-75 0 -143 -24q-10 -19 -16 -19q-3 0 -12 13t-33 13q-14 0 -42.5 -4.5t-42.5 -4.5q-12 0 -25 2l-13 -33q-15 13 -28 14q0 -29 31 -30q10 -1 10 -9v-2q-39 -8 -37 -33l1 -3q-3 12 -22 31.5 t-19 34.5q0 13 10 30h-43q-44 0 -131 -3t-131 -3h-56l13 6q204 8 612 26q184 8 280 8h21l5 -6q0 -10 2 -30.5t2 -30.5q0 -136 -9 -409t-9 -409q0 -75 1 -151l-24 -4v20q-18 -48 -38 -48q-7 0 -7 7q-2 -4 -2 -9q0 -40 63 -94q0 -37 -14 -37q-7 0 -7 1t1 0l1 3q-2 4 -55 53 q-14 -20 -30 -63q-41 -110 -135 -185q-15 -55 -15 -203q-21 0 -21 82v17q5 7 7 11q-1 5 -7 10v52q-20 0 -52 -11q-37 -13 -52 -14q-130 -16 -150 -16q-15 0 -16 -11v-20q-2 -5 -10 -5q0 36 -11 36h-200q-21 0 -21 20q0 303 -6 320q-7 -19 -14 -39q-9 -23 -27 -23v53l-16 16 q11 21 16 34q-1 3 -4 11.5t-3 10.5q0 22 13 47.5t15 40.5q0 -15 13 -15q5 0 7 4q-2 21 -10 61l-2 1h-24l9 5q-32 14 -101 14v103q0 5 11.5 14t17.5 9q13 0 36 -4t34 -4v40q17 -1 17 12q0 5 -2 16t-2 17l-2 -1q-1 -1 -2 -1h-2q-6 -2 -9 -2q-16 0 -48 79.5t-44 79.5 q-8 0 -18 -12t-23 -12v-251q2 -3 4 -9l2 -2q-3 -4 -13 -9v-180q7 -7 26 -20q-8 4 -14 4q-22 0 -22 -38q0 -7 8.5 -12.5t8.5 -11.5v-6q-7 -8 -23 -20q-14 -204 -14 -273v-30q9 0 9 -8q0 -13 -9 -13q-7 -90 -7 -162l1 -41q-7 -6 -7 -29q0 -39 33 -39q23 0 23 28q0 7 -4 20 t-5 20q29 0 30 19q-1 5 -3 10q3 -6 3 -9v-1q7 -32 13 -64q12 -33 48 -36q-5 -7 -26 -7q-127 0 -126 27zM31 942q0 -5 5 -7q4 2 4 7q0 7 -4 8l4 5q0 4 -4 6q-5 -2 -5 -6l5 -5q-5 -2 -5 -8zM40 -11q0 15 15 15h5q-6 -14 -6 -29q0 -8 1 -14q-15 11 -15 28zM49 -162l6 -10v17z M55 955l5 -5q4 0 6 5q0 6 -6 6q-5 -2 -5 -6zM101 7q0 25 25 25q0 -25 -25 -25zM135 922q0 -5 4 -8q4 1 4 7v2q0 4 -4 5q-4 -2 -4 -6zM139 36q2 14 34 45q20 -29 63 -69q9 -4 9 -19l18 3q138 -104 142 -104q24 0 24 40q0 5 -2 10q17 -7 17 -30q0 -9 -10 -26v-114 q-12 0 -17 -5.5t-12 -5.5h-4l13 27q0 5 -3.5 11t-3.5 7q0 6 3.5 17t3.5 17q0 22 -16 36q-1 0 -130 85q-36 29 -109 84h-7q-6 -9 -9 -9h-4zM154 447q0 -6 5 -8q5 1 5 7v1q0 5 -5 6q-5 -2 -5 -6zM175 804q1 -4 3 -6l4 1q2 3 2 4v2q0 5 -4 6q-5 -2 -5 -7zM180 875l2 -5q3 1 4 5 l-4 2zM186 858q7 -7 14 -7v7h-14zM191 480h9v21q-9 -5 -9 -21zM195 417l5 -4l4 4q0 5 -4 7q-5 -3 -5 -7zM195 447q0 -6 5 -8q4 1 4 7v1q0 5 -4 6q-5 -2 -5 -6zM195 464l5 -4l4 4q0 6 -4 7q-5 -2 -5 -7zM195 761q0 -4 5 -6q4 2 4 6q0 8 -4 9q-5 -3 -5 -9zM466 817 q0 -21 9 -69q-7 -35 -7 -106q0 -63 3.5 -191t3.5 -191h8q11 0 32.5 2t31.5 2l-9 9q76 0 103 105q29 116 29 158v212q-11 29 -18 89q-8 57 -17 77q-2 4 -14 18q-9 11 -9 18h-24q6 2 6 11q0 33 -19 31h-7q-12 -14 -44 -37l7 -5q-32 -14 -56 -22l-4 -3q0 -1 -1 -3q0 -58 5 -64 q11 -5 29 -11q-23 0 -23 -15h32l-2 -7l6 -8h-51zM470 881q0 5 5 7q6 0 6 -6v-2q0 -6 -6 -5q-5 2 -5 6zM475 955l8 6h-8v-6zM475 974q6 0 25 9q1 -3 4 -5q4 2 5 6v1q0 2 -1 3q39 20 39 28v3q-27 6 -53 6h-19v-51zM500 701q0 4 4 6q4 -2 5 -5v-2q0 -5 -5 -6q-4 2 -4 7z M500 804q0 5 4 7q4 -2 5 -6v-2q0 -4 -5 -5q-4 2 -4 6zM500 983v2q0 4 4 6q3 -1 4 -3zM513 597q0 5 4 7q5 -2 5 -7q0 -4 -5 -6q-4 2 -4 6zM513 701q0 4 4 6q4 -2 5 -5v-2q0 -5 -5 -6q-4 2 -4 7zM513 730l4 5l5 -2q-2 -4 -5 -5zM524 664q0 43 7 43h2q0 -13 17.5 -33.5 t16.5 -43.5l27 -26v-2q0 -50 -16 -54q-4 20 -26 47q6 4 6 16v8q0 -8 -6 -8q-11 0 -19.5 20t-8.5 33zM524 838l4 5q3 -2 3 -3q0 -2 -3 -6q-3 2 -4 4zM526 1356q0 -4 5 -6q4 2 4 6v1q0 5 -4 6q-5 -2 -5 -7zM531 817q0 15 12 15h4q2 -5 11 -15v-6l-6 -7h-5q-16 0 -16 13z M533 455q1 3 5 5l5 -5l-5 -2zM533 984q0 -6 5 -6h1q6 0 6 6v1q0 6 -6 6h-1q-5 0 -5 -6v-1zM538 916q0 3 6 4h2q6 -1 6 -4q0 -5 -5 -6q-9 2 -9 6zM543 288q0 3 2 5h1q1 0 3 -3l-2 -3l-3 -1zM552 -84q67 0 67 34q1 -1 1 -3q7 -9 7 -14q0 -12 -28 -25.5t-28 -24.5q7 -16 7 -18 v-7q-13 -13 -20 -13q0 15 -6 33q3 6 6 14q0 -5 -6 24zM552 536v7h15v-7h-15zM554 498q0 6 4 9q7 0 7 -8v-2q0 -6 -7 -6q-4 2 -4 7zM554 688q0 4 4 6q7 0 7 -6v-1q0 -7 -7 -7q-4 2 -4 8zM558 320v9q4 2 9 7zM560 928v1q0 6 7 6q4 -2 4 -6v-1q0 -6 -4 -6q-7 0 -7 6zM565 806 q13 0 13 -13v-2q-13 0 -13 15zM574 638q0 4 4 7q8 0 8 -6v-2q0 -7 -8 -7q-4 3 -4 8zM576 385v2v2q1 0 2 -2l4 -2l-4 -2zM580 417q0 7 8 7q4 -3 4 -7l-4 -4q-5 0 -8 4zM590 498q0 6 4 9q5 -1 5 -8v-2q0 -5 -5 -6q-4 2 -4 7zM594 791q3 6 12 6l2 1v-7h-14zM614 784h8 q11 0 13 -8h-8q-7 7 -13 8zM616 624q0 4 5 6q4 -2 4 -6q-2 -4 -4 -5zM880 1282q0 15 25 27v-27h-25zM907 1345q0 27 19 27v-37q-7 10 -19 10zM909 1266l10 7q2 -5 7 -7q26 0 26 -29v-12zM941 514q0 -5 4 -7q4 2 5 6v1q0 5 -5 6q-4 -2 -4 -6zM945 460h11q-5 19 -11 41v-41z M960 520l22 -4v2q0 10 -10.5 25.5t-11.5 24.5v-48zM982 589q1 -5 4 -6q4 2 4 6q0 5 -4 6q-4 -2 -4 -6z" />
<glyph unicode="&#xd1;" horiz-adv-x="753" d="M22 1178q0 43 27 65l189 14q53 -98 127 -287q79 -205 121 -290q0 15 2.5 47t2.5 49q0 61 -17 182.5t-17 183.5q0 19 2 57.5t2 57.5q0 11 16 14q89 15 79 15h49l9 -15q43 -78 50 -277q0 -94 4 -282l12 -145q7 -75 19 -223l9 -142q1 0 1 -2v-1q0 -9 1 -30t1 -32 q0 -15 -13 -15h-172q-54 130 -103 227q-8 20 -22 60l-58 156q-46 127 -96 211v-242q16 1 16 -40q0 -56 14.5 -173t14.5 -179q0 -41 -5 -45q-15 -16 -40 -16t-73.5 -2t-73.5 -2q-65 562 -65 1043q-13 16 -13 58zM82 1358v58q0 57 50 99q44 37 90 37q44 0 133.5 -55.5 t115.5 -55.5q45 0 67 40l33 68h17v-40q0 -11 -8 -28q-8 -21 -10 -27q-6 -31 -48.5 -64t-73.5 -33q-12 0 -127 55.5t-127 55.5q-66 0 -89 -98q0 -12 -23 -12z" />
<glyph unicode="&#xd2;" horiz-adv-x="1083" d="M-69 1105v7q0 9 3 9q1 0 2 -1q2 -7 2 -12v-3q0 -5 -2 -10q0 -1 -1 -1h-1q-3 3 -3 11zM-55 1034v17q0 -5 5.5 -15t5.5 -15v-21q-11 9 -11 34zM-35 946v7q0 15 3 15l1 -1q2 -8 2 -17v-4q0 -5 -2 -11l-1 -1q-3 3 -3 12zM-26 912q0 7 4 10q4 -5 6 -10l-4 -3h-4zM-14 860 q0 5 2 7q3 -2 4 -7l-4 -2zM17 696q0 5 4 7q3 -3 4 -7l-2 -3l-4 -1zM40 593q0 10 4 15q4 -7 4 -15t-4 -14q-4 4 -4 14zM55 543v21v-1l1 3v9l1 32l6 142q1 29 1 44q19 18 33 83q16 69 32.5 90t61.5 59q99 84 218 115q93 24 243 24q62 0 116 -21q13 -5 65 -39 q198 -127 198 -268q0 -6 -11 -11q4 -16 11 -45q22 -97 22 -172q0 -7 -18 -59q-66 -192 -203 -276q-141 -86 -396 -86q-103 0 -230 108q-19 5 -43 23l10 11q-27 43 -64 43q-4 -11 -11 -32q-11 20 -11 77h11v-34q4 4 23 21v6q0 53 -41 59v-32q-11 19 -16 32q3 14 6 43v-30 q10 2 17 12q1 5 1 9q0 41 -33 40zM57 566q0 -7 7 -7q12 0 12 8v2q0 10 -11 10h-2q-6 -1 -6 -10v-3zM105 285v2q0 6 2 9q6 -2 6 -6v-6q0 -5 -4 -9q-4 4 -4 10zM116 258v2l2 3q3 -1 7 -3q-2 -5 -4 -8q-5 0 -5 6zM147 41q0 12 5 17q4 -4 4 -17q-1 -17 -5 -17q-3 5 -4 17z M195 241l25 21v-21h-25zM230 1410l103 55l95 -242l-44 -31zM298 728h30q-23 -22 -23 -45q17 -34 57 -66l-28 -32v6v4q0 13 -6 13q-11 0 -11 -13v-4q0 -12 11 -12q14 -40 45 -117q52 -111 205 -111q102 0 165 71q60 69 60 173q0 273 -153 372q9 1 9 8v2q-2 5 -10 10h-2 q-6 0 -6 -10v-3l1 -1q-34 20 -60 27q-36 10 -54 10q-113 0 -175 -87q-55 -77 -55 -195zM328 579l6 6q-2 -6 -6 -6zM339 738v3q0 9 9 9q12 0 12 -10v-2q0 -10 -11 -10h-3q-7 0 -7 10zM364 579v4q0 12 7 12q6 0 6 -12v-4q0 -11 -6 -11q-7 0 -7 11zM364 648v2q0 10 6 10h2 q5 0 5 -10v-2q0 -10 -5 -10h-2q-6 0 -6 10zM371 608q6 9 20 9h14q0 -15 -25 -15q-5 2 -9 6zM377 718v2q1 5 3 8q8 -3 13 -9q-5 -3 -13 -3zM382 581q0 14 11 14q10 0 10 -12v-4q0 -11 -10 -11q-11 0 -11 13zM393 750q3 2 6 2q6 0 6 -2v-2q0 -9 -6 -9q-3 4 -6 11zM407 738v3 q0 9 6 9h1q6 0 6 -9v-3q0 -10 -6 -10h-1q-6 0 -6 10zM416 639v3q0 9 6 9q11 0 11 -9v-3q0 -11 -9 -11h-2q-6 0 -6 11zM479 737l8 4q3 4 3 9h16l-19 -9q-2 -4 -8 -4zM530 758v2q0 10 8 10h2q7 0 7 -10v-2q0 -8 -7 -8h-2q-8 0 -8 8zM541 811v3q0 11 8 11q11 0 11 -11v-2 q0 -10 -10 -10h-2q-7 0 -7 9zM551 790v2q0 10 10 10h2q6 0 6 -10v-3q0 -9 -7 -9q-11 0 -11 10zM642 973l8 -6h-2q-5 0 -6 6zM663 435v3q0 13 7 13q9 0 9 -13v-3q0 -9 -9 -9q-7 0 -7 9zM693 447v3q0 10 10 10h2q6 0 6 -10v-3q0 -10 -7 -10q-11 0 -11 10zM706 469v3q0 10 7 10 q9 0 9 -10v-3q0 -9 -8 -9h-2q-6 0 -6 9zM738 555v3q0 10 8 10h2q5 0 6 -10q1 1 2 1q11 0 11 -10v-3q0 -10 -10 -10h-2q-6 0 -6 10h-2q-9 0 -9 9zM833 252l13 10v-21zM855 219v11h9z" />
<glyph unicode="&#xd3;" horiz-adv-x="1083" d="M-69 1105v7q0 9 3 9q1 0 2 -1q2 -7 2 -12v-3q0 -5 -2 -10q0 -1 -1 -1h-1q-3 3 -3 11zM-55 1034v17q0 -5 5.5 -15t5.5 -15v-21q-11 9 -11 34zM-35 946v7q0 15 3 15l1 -1q2 -8 2 -17v-4q0 -5 -2 -11l-1 -1q-3 3 -3 12zM-26 912q0 7 4 10q4 -5 6 -10l-4 -3h-4zM-14 860 q0 5 2 7q3 -2 4 -7l-4 -2zM17 696q0 5 4 7q3 -3 4 -7l-2 -3l-4 -1zM40 593q0 10 4 15q4 -7 4 -15t-4 -14q-4 4 -4 14zM55 543v21v-1l1 3v9l1 32l6 142q1 29 1 44q19 18 33 83q16 69 32.5 90t61.5 59q99 84 218 115q93 24 243 24q62 0 116 -21q13 -5 65 -39 q198 -127 198 -268q0 -6 -11 -11q4 -16 11 -45q22 -97 22 -172q0 -7 -18 -59q-66 -192 -203 -276q-141 -86 -396 -86q-103 0 -230 108q-19 5 -43 23l10 11q-27 43 -64 43q-4 -11 -11 -32q-11 20 -11 77h11v-34q4 4 23 21v6q0 53 -41 59v-32q-11 19 -16 32q3 14 6 43v-30 q10 2 17 12q1 5 1 9q0 41 -33 40zM57 566q0 -7 7 -7q12 0 12 8v2q0 10 -11 10h-2q-6 -1 -6 -10v-3zM105 285v2q0 6 2 9q6 -2 6 -6v-6q0 -5 -4 -9q-4 4 -4 10zM116 258v2l2 3q3 -1 7 -3q-2 -5 -4 -8q-5 0 -5 6zM147 41q0 12 5 17q4 -4 4 -17q-1 -17 -5 -17q-3 5 -4 17z M195 241l25 21v-21h-25zM298 728h30q-23 -22 -23 -45q17 -34 57 -66l-28 -32v6v4q0 13 -6 13q-11 0 -11 -13v-4q0 -12 11 -12q14 -40 45 -117q52 -111 205 -111q102 0 165 71q60 69 60 173q0 273 -153 372q9 1 9 8v2q-2 5 -10 10h-2q-6 0 -6 -10v-3l1 -1q-34 20 -60 27 q-36 10 -54 10q-113 0 -175 -87q-55 -77 -55 -195zM328 579l6 6q-2 -6 -6 -6zM339 738v3q0 9 9 9q12 0 12 -10v-2q0 -10 -11 -10h-3q-7 0 -7 10zM364 579v4q0 12 7 12q6 0 6 -12v-4q0 -11 -6 -11q-7 0 -7 11zM364 648v2q0 10 6 10h2q5 0 5 -10v-2q0 -10 -5 -10h-2 q-6 0 -6 10zM371 608q6 9 20 9h14q0 -15 -25 -15q-5 2 -9 6zM377 718v2q1 5 3 8q8 -3 13 -9q-5 -3 -13 -3zM382 581q0 14 11 14q10 0 10 -12v-4q0 -11 -10 -11q-11 0 -11 13zM393 750q3 2 6 2q6 0 6 -2v-2q0 -9 -6 -9q-3 4 -6 11zM407 738v3q0 9 6 9h1q6 0 6 -9v-3 q0 -10 -6 -10h-1q-6 0 -6 10zM416 639v3q0 9 6 9q11 0 11 -9v-3q0 -11 -9 -11h-2q-6 0 -6 11zM456 1290l94 242l104 -55l-154 -218zM479 737l8 4q3 4 3 9h16l-19 -9q-2 -4 -8 -4zM530 758v2q0 10 8 10h2q7 0 7 -10v-2q0 -8 -7 -8h-2q-8 0 -8 8zM541 811v3q0 11 8 11 q11 0 11 -11v-2q0 -10 -10 -10h-2q-7 0 -7 9zM551 790v2q0 10 10 10h2q6 0 6 -10v-3q0 -9 -7 -9q-11 0 -11 10zM642 973l8 -6h-2q-5 0 -6 6zM663 435v3q0 13 7 13q9 0 9 -13v-3q0 -9 -9 -9q-7 0 -7 9zM693 447v3q0 10 10 10h2q6 0 6 -10v-3q0 -10 -7 -10q-11 0 -11 10z M706 469v3q0 10 7 10q9 0 9 -10v-3q0 -9 -8 -9h-2q-6 0 -6 9zM738 555v3q0 10 8 10h2q5 0 6 -10q1 1 2 1q11 0 11 -10v-3q0 -10 -10 -10h-2q-6 0 -6 10h-2q-9 0 -9 9zM833 252l13 10v-21zM855 219v11h9z" />
<glyph unicode="&#xd4;" horiz-adv-x="1083" d="M-69 1105v7q0 9 3 9q1 0 2 -1q2 -7 2 -12v-3q0 -5 -2 -10q0 -1 -1 -1h-1q-3 3 -3 11zM-55 1034v17q0 -5 5.5 -15t5.5 -15v-21q-11 9 -11 34zM-35 946v7q0 15 3 15l1 -1q2 -8 2 -17v-4q0 -5 -2 -11l-1 -1q-3 3 -3 12zM-26 912q0 7 4 10q4 -5 6 -10l-4 -3h-4zM-14 860 q0 5 2 7q3 -2 4 -7l-4 -2zM17 696q0 5 4 7q3 -3 4 -7l-2 -3l-4 -1zM40 593q0 10 4 15q4 -7 4 -15t-4 -14q-4 4 -4 14zM55 543v21v-1l1 3v9l1 32l6 142q1 29 1 44q19 18 33 83q16 69 32.5 90t61.5 59q99 84 218 115q93 24 243 24q62 0 116 -21q13 -5 65 -39 q198 -127 198 -268q0 -6 -11 -11q4 -16 11 -45q22 -97 22 -172q0 -7 -18 -59q-66 -192 -203 -276q-141 -86 -396 -86q-103 0 -230 108q-19 5 -43 23l10 11q-27 43 -64 43q-4 -11 -11 -32q-11 20 -11 77h11v-34q4 4 23 21v6q0 53 -41 59v-32q-11 19 -16 32q3 14 6 43v-30 q10 2 17 12q1 5 1 9q0 41 -33 40zM57 566q0 -7 7 -7q12 0 12 8v2q0 10 -11 10h-2q-6 -1 -6 -10v-3zM105 285v2q0 6 2 9q6 -2 6 -6v-6q0 -5 -4 -9q-4 4 -4 10zM116 258v2l2 3q3 -1 7 -3q-2 -5 -4 -8q-5 0 -5 6zM147 41q0 12 5 17q4 -4 4 -17q-1 -17 -5 -17q-3 5 -4 17z M195 241l25 21v-21h-25zM298 728h30q-23 -22 -23 -45q17 -34 57 -66l-28 -32v6v4q0 13 -6 13q-11 0 -11 -13v-4q0 -12 11 -12q14 -40 45 -117q52 -111 205 -111q102 0 165 71q60 69 60 173q0 273 -153 372q9 1 9 8v2q-2 5 -10 10h-2q-6 0 -6 -10v-3l1 -1q-34 20 -60 27 q-36 10 -54 10q-113 0 -175 -87q-55 -77 -55 -195zM328 579l6 6q-2 -6 -6 -6zM332 1266q2 10 11 23q4 -6 4 -24q1 -2 2 -5v-1q-6 3 -17 7zM339 738v3q0 9 9 9q12 0 12 -10v-2q0 -10 -11 -10h-3q-7 0 -7 10zM340 1284l1 -2l2 2l-1 2zM342 1270l1 -3l2 3l-1 2l2 2l-2 2l-1 -1 l1 -3l-2 -1v-1zM351 1310q0 5 44.5 86.5t48 92.5t20.5 11q39 0 54 -30q17 -34 18 -34q14 -4 18 -25l3 -3l-3 -9v-3q3 -1 7 -7l2 1h1q1 -1 2 -3q12 -31 33 -73q2 -2 2 0v-4q0 -15 -42 -15q-18 0 -21 10q-20 40 -60 117l-6 -12q0 -2 -2 -4q-1 -1 -1 0h-3q-2 -3 -6 -7l-1 -2 l4 -10l-3 -2q-4 -22 -18 -26q-12 -21 -28 -50q-6 -8 -22 -8q-41 0 -41 9zM364 579v4q0 12 7 12q6 0 6 -12v-4q0 -11 -6 -11q-7 0 -7 11zM364 648v2q0 10 6 10h2q5 0 5 -10v-2q0 -10 -5 -10h-2q-6 0 -6 10zM371 608q6 9 20 9h14q0 -15 -25 -15q-5 2 -9 6zM377 718v2q1 5 3 8 q8 -3 13 -9q-5 -3 -13 -3zM382 581q0 14 11 14q10 0 10 -12v-4q0 -11 -10 -11q-11 0 -11 13zM393 750q3 2 6 2q6 0 6 -2v-2q0 -9 -6 -9q-3 4 -6 11zM407 738v3q0 9 6 9h1q6 0 6 -9v-3q0 -10 -6 -10h-1q-6 0 -6 10zM416 639v3q0 9 6 9q11 0 11 -9v-3q0 -11 -9 -11h-2 q-6 0 -6 11zM445 1369l1 -7q3 2 1 7h-2zM447 1378q2 -2 2 2zM479 737l8 4q3 4 3 9h16l-19 -9q-2 -4 -8 -4zM530 758v2q0 10 8 10h2q7 0 7 -10v-2q0 -8 -7 -8h-2q-8 0 -8 8zM539 1426l3 1l1 4l-3 2zM541 811v3q0 11 8 11q11 0 11 -11v-2q0 -10 -10 -10h-2q-7 0 -7 9z M542 1418l2 -3l1 3l-2 2zM551 790v2q0 10 10 10h2q6 0 6 -10v-3q0 -9 -7 -9q-11 0 -11 10zM642 973l8 -6h-2q-5 0 -6 6zM663 435v3q0 13 7 13q9 0 9 -13v-3q0 -9 -9 -9q-7 0 -7 9zM693 447v3q0 10 10 10h2q6 0 6 -10v-3q0 -10 -7 -10q-11 0 -11 10zM706 469v3q0 10 7 10 q9 0 9 -10v-3q0 -9 -8 -9h-2q-6 0 -6 9zM738 555v3q0 10 8 10h2q5 0 6 -10q1 1 2 1q11 0 11 -10v-3q0 -10 -10 -10h-2q-6 0 -6 10h-2q-9 0 -9 9zM833 252l13 10v-21zM855 219v11h9z" />
<glyph unicode="&#xd5;" horiz-adv-x="1083" d="M-69 1105v7q0 9 3 9q1 0 2 -1q2 -7 2 -12v-3q0 -5 -2 -10q0 -1 -1 -1h-1q-3 3 -3 11zM-55 1034v17q0 -5 5.5 -15t5.5 -15v-21q-11 9 -11 34zM-35 946v7q0 15 3 15l1 -1q2 -8 2 -17v-4q0 -5 -2 -11l-1 -1q-3 3 -3 12zM-26 912q0 7 4 10q4 -5 6 -10l-4 -3h-4zM-14 860 q0 5 2 7q3 -2 4 -7l-4 -2zM17 696q0 5 4 7q3 -3 4 -7l-2 -3l-4 -1zM40 593q0 10 4 15q4 -7 4 -15t-4 -14q-4 4 -4 14zM55 543v21v-1l1 3v9l1 32l6 142q1 29 1 44q19 18 33 83q16 69 32.5 90t61.5 59q99 84 218 115q93 24 243 24q62 0 116 -21q13 -5 65 -39 q198 -127 198 -268q0 -6 -11 -11q4 -16 11 -45q22 -97 22 -172q0 -7 -18 -59q-66 -192 -203 -276q-141 -86 -396 -86q-103 0 -230 108q-19 5 -43 23l10 11q-27 43 -64 43q-4 -11 -11 -32q-11 20 -11 77h11v-34q4 4 23 21v6q0 53 -41 59v-32q-11 19 -16 32q3 14 6 43v-30 q10 2 17 12q1 5 1 9q0 41 -33 40zM57 566q0 -7 7 -7q12 0 12 8v2q0 10 -11 10h-2q-6 -1 -6 -10v-3zM105 285v2q0 6 2 9q6 -2 6 -6v-6q0 -5 -4 -9q-4 4 -4 10zM116 258v2l2 3q3 -1 7 -3q-2 -5 -4 -8q-5 0 -5 6zM147 41q0 12 5 17q4 -4 4 -17q-1 -17 -5 -17q-3 5 -4 17z M195 241l25 21v-21h-25zM241 1271v58q0 57 50 99q44 37 90 37q44 0 133.5 -55.5t115.5 -55.5q45 0 67 40l33 68h17v-40q0 -11 -8 -28q-8 -21 -10 -27q-6 -31 -48.5 -64t-73.5 -33q-12 0 -127 55.5t-127 55.5q-66 0 -89 -98q0 -12 -23 -12zM298 728h30q-23 -22 -23 -45 q17 -34 57 -66l-28 -32v6v4q0 13 -6 13q-11 0 -11 -13v-4q0 -12 11 -12q14 -40 45 -117q52 -111 205 -111q102 0 165 71q60 69 60 173q0 273 -153 372q9 1 9 8v2q-2 5 -10 10h-2q-6 0 -6 -10v-3l1 -1q-34 20 -60 27q-36 10 -54 10q-113 0 -175 -87q-55 -77 -55 -195z M328 579l6 6q-2 -6 -6 -6zM339 738v3q0 9 9 9q12 0 12 -10v-2q0 -10 -11 -10h-3q-7 0 -7 10zM364 579v4q0 12 7 12q6 0 6 -12v-4q0 -11 -6 -11q-7 0 -7 11zM364 648v2q0 10 6 10h2q5 0 5 -10v-2q0 -10 -5 -10h-2q-6 0 -6 10zM371 608q6 9 20 9h14q0 -15 -25 -15q-5 2 -9 6z M377 718v2q1 5 3 8q8 -3 13 -9q-5 -3 -13 -3zM382 581q0 14 11 14q10 0 10 -12v-4q0 -11 -10 -11q-11 0 -11 13zM393 750q3 2 6 2q6 0 6 -2v-2q0 -9 -6 -9q-3 4 -6 11zM407 738v3q0 9 6 9h1q6 0 6 -9v-3q0 -10 -6 -10h-1q-6 0 -6 10zM416 639v3q0 9 6 9q11 0 11 -9v-3 q0 -11 -9 -11h-2q-6 0 -6 11zM479 737l8 4q3 4 3 9h16l-19 -9q-2 -4 -8 -4zM530 758v2q0 10 8 10h2q7 0 7 -10v-2q0 -8 -7 -8h-2q-8 0 -8 8zM541 811v3q0 11 8 11q11 0 11 -11v-2q0 -10 -10 -10h-2q-7 0 -7 9zM551 790v2q0 10 10 10h2q6 0 6 -10v-3q0 -9 -7 -9q-11 0 -11 10 zM642 973l8 -6h-2q-5 0 -6 6zM663 435v3q0 13 7 13q9 0 9 -13v-3q0 -9 -9 -9q-7 0 -7 9zM693 447v3q0 10 10 10h2q6 0 6 -10v-3q0 -10 -7 -10q-11 0 -11 10zM706 469v3q0 10 7 10q9 0 9 -10v-3q0 -9 -8 -9h-2q-6 0 -6 9zM738 555v3q0 10 8 10h2q5 0 6 -10q1 1 2 1 q11 0 11 -10v-3q0 -10 -10 -10h-2q-6 0 -6 10h-2q-9 0 -9 9zM833 252l13 10v-21zM855 219v11h9z" />
<glyph unicode="&#xd6;" horiz-adv-x="1083" d="M-69 1105v7q0 9 3 9q1 0 2 -1q2 -7 2 -12v-3q0 -5 -2 -10q0 -1 -1 -1h-1q-3 3 -3 11zM-55 1034v17q0 -5 5.5 -15t5.5 -15v-21q-11 9 -11 34zM-35 946v7q0 15 3 15l1 -1q2 -8 2 -17v-4q0 -5 -2 -11l-1 -1q-3 3 -3 12zM-26 912q0 7 4 10q4 -5 6 -10l-4 -3h-4zM-14 860 q0 5 2 7q3 -2 4 -7l-4 -2zM17 696q0 5 4 7q3 -3 4 -7l-2 -3l-4 -1zM40 593q0 10 4 15q4 -7 4 -15t-4 -14q-4 4 -4 14zM55 543v21v-1l1 3v9l1 32l6 142q1 29 1 44q19 18 33 83q16 69 32.5 90t61.5 59q99 84 218 115q93 24 243 24q62 0 116 -21q13 -5 65 -39 q198 -127 198 -268q0 -6 -11 -11q4 -16 11 -45q22 -97 22 -172q0 -7 -18 -59q-66 -192 -203 -276q-141 -86 -396 -86q-103 0 -230 108q-19 5 -43 23l10 11q-27 43 -64 43q-4 -11 -11 -32q-11 20 -11 77h11v-34q4 4 23 21v6q0 53 -41 59v-32q-11 19 -16 32q3 14 6 43v-30 q10 2 17 12q1 5 1 9q0 41 -33 40zM57 566q0 -7 7 -7q12 0 12 8v2q0 10 -11 10h-2q-6 -1 -6 -10v-3zM105 285v2q0 6 2 9q6 -2 6 -6v-6q0 -5 -4 -9q-4 4 -4 10zM116 258v2l2 3q3 -1 7 -3q-2 -5 -4 -8q-5 0 -5 6zM147 41q0 12 5 17q4 -4 4 -17q-1 -17 -5 -17q-3 5 -4 17z M195 241l25 21v-21h-25zM298 728h30q-23 -22 -23 -45q17 -34 57 -66l-28 -32v6v4q0 13 -6 13q-11 0 -11 -13v-4q0 -12 11 -12q14 -40 45 -117q52 -111 205 -111q102 0 165 71q60 69 60 173q0 273 -153 372q9 1 9 8v2q-2 5 -10 10h-2q-6 0 -6 -10v-3l1 -1q-34 20 -60 27 q-36 10 -54 10q-113 0 -175 -87q-55 -77 -55 -195zM328 579l6 6q-2 -6 -6 -6zM339 738v3q0 9 9 9q12 0 12 -10v-2q0 -10 -11 -10h-3q-7 0 -7 10zM359 1294q0 58 54 58q56 0 56 -58q0 -54 -49 -54q-61 0 -61 54zM364 579v4q0 12 7 12q6 0 6 -12v-4q0 -11 -6 -11q-7 0 -7 11z M364 648v2q0 10 6 10h2q5 0 5 -10v-2q0 -10 -5 -10h-2q-6 0 -6 10zM371 608q6 9 20 9h14q0 -15 -25 -15q-5 2 -9 6zM377 718v2q1 5 3 8q8 -3 13 -9q-5 -3 -13 -3zM382 581q0 14 11 14q10 0 10 -12v-4q0 -11 -10 -11q-11 0 -11 13zM393 750q3 2 6 2q6 0 6 -2v-2q0 -9 -6 -9 q-3 4 -6 11zM407 738v3q0 9 6 9h1q6 0 6 -9v-3q0 -10 -6 -10h-1q-6 0 -6 10zM416 639v3q0 9 6 9q11 0 11 -9v-3q0 -11 -9 -11h-2q-6 0 -6 11zM479 737l8 4q3 4 3 9h16l-19 -9q-2 -4 -8 -4zM530 758v2q0 10 8 10h2q7 0 7 -10v-2q0 -8 -7 -8h-2q-8 0 -8 8zM541 811v3 q0 11 8 11q11 0 11 -11v-2q0 -10 -10 -10h-2q-7 0 -7 9zM551 790v2q0 10 10 10h2q6 0 6 -10v-3q0 -9 -7 -9q-11 0 -11 10zM640 1301q0 51 55 51q58 0 58 -58q0 -54 -61 -54q-52 0 -52 61zM642 973l8 -6h-2q-5 0 -6 6zM663 435v3q0 13 7 13q9 0 9 -13v-3q0 -9 -9 -9 q-7 0 -7 9zM693 447v3q0 10 10 10h2q6 0 6 -10v-3q0 -10 -7 -10q-11 0 -11 10zM706 469v3q0 10 7 10q9 0 9 -10v-3q0 -9 -8 -9h-2q-6 0 -6 9zM738 555v3q0 10 8 10h2q5 0 6 -10q1 1 2 1q11 0 11 -10v-3q0 -10 -10 -10h-2q-6 0 -6 10h-2q-9 0 -9 9zM833 252l13 10v-21z M855 219v11h9z" />
<glyph unicode="&#xd7;" horiz-adv-x="418" d="M43 464q3 13 7 17q9 8 27.5 22t25.5 23.5t26 20.5l-5 15l-16 16l9 -3q-13 30 -60 77l60 60q4 4 17 1t17 -7q8 -8 22 -26.5t22 -27.5q9 -5 21 -21q17 11 27 21l5 17l4 5l18 6l-2 9q11 12 22 12q6 0 17.5 -6.5t19.5 -7.5q10 -14 30 -41q-37 -55 -65 -90q9 -15 30 -42l17 -5 l5 -5l6 -18l9 3q12 -12 12 -22q0 -7 -6.5 -18.5t-7.5 -19.5q-14 -9 -41 -30q-64 43 -103 76l-3 -5l1 -10l-16 -6l-17 -16l4 9q-31 -14 -78 -60l-60 60q-4 4 -1 17zM134 545h1v1z" />
<glyph unicode="&#xd8;" horiz-adv-x="1083" d="M-69 1105v7q0 9 3 9q1 0 2 -1q2 -7 2 -12v-3q0 -5 -2 -10q0 -1 -1 -1h-1q-3 3 -3 11zM-55 1034v17q0 -5 5.5 -15t5.5 -15v-21q-11 9 -11 34zM-35 946v7q0 15 3 15l1 -1q2 -8 2 -17v-4q0 -5 -2 -11l-1 -1q-3 3 -3 12zM-26 912q0 7 4 10q4 -5 6 -10l-4 -3h-4zM-14 860 q0 5 2 7q3 -2 4 -7l-4 -2zM17 696q0 5 4 7q3 -3 4 -7l-2 -3l-4 -1zM40 593q0 10 4 15q4 -7 4 -15t-4 -14q-4 4 -4 14zM55 543v21v-1l1 3v9l1 32l6 142q1 29 1 44q19 18 33 83q16 69 32.5 90t61.5 59q99 83 213 113q89 24 239 26q7 21 14 41q12 33 81 40q21 3 28 3 q19 0 19 -14q0 -33 -26 -88l9 -3q12 -5 65 -39q198 -127 198 -268q0 -6 -11 -11q4 -16 11 -45q22 -97 22 -172q0 -7 -18 -59q-66 -192 -203 -276q-128 -78 -350 -85q-2 -25 -2 -48h-6q2 -5 3 -9q-4 -14 -26 -25q-58 -7 -115 -7q0 41 20 72l8 29q-78 26 -158 95q-19 5 -43 23 l10 11q-27 43 -64 43q-4 -11 -11 -32q-11 20 -11 77h11v-34q4 4 23 21v6q0 53 -41 59v-32q-11 19 -16 32q3 14 6 43v-30q10 2 17 12q1 5 1 9q0 41 -33 40zM57 566q0 -7 7 -7q12 0 12 8v2q0 10 -11 10h-2q-6 -1 -6 -10v-3zM105 285v2q0 6 2 9q6 -2 6 -6v-6q0 -5 -4 -9 q-4 4 -4 10zM116 258v2l2 3q3 -1 7 -3q-2 -5 -4 -8q-5 0 -5 6zM147 41q0 12 5 17q4 -4 4 -17q-1 -17 -5 -17q-3 5 -4 17zM195 241l25 21v-21h-25zM298 728h30q-23 -22 -23 -45q17 -34 57 -66l-28 -32v6v4q0 13 -6 13q-11 0 -11 -13v-4q0 -12 11 -12l32 -90q22 -52 51 -79 l2 2v7q0 11 -10 19t-10 29q0 8 7 22t7 22q0 4 -1.5 11.5t-1.5 11.5q0 11 9 17q13 -13 13 -54q0 -11 -7 -13l-6 7q-7 -6 -7 -11q0 -3 13 -7q2 -6 5 -19q6 1 40 102.5t34 127.5v9l1 -1q6 0 30 113t29 113q0 -1 1 -2h6q4 9 15 24v6l-15 24l7 8q0 14 1 24q-30 8 -45 8 q-113 0 -175 -87q-55 -77 -55 -195zM328 579l6 6q-2 -6 -6 -6zM339 738v3q0 9 9 9q12 0 12 -10v-2q0 -10 -11 -10h-3q-7 0 -7 10zM364 579v4q0 12 7 12q6 0 6 -12v-4q0 -11 -6 -11q-7 0 -7 11zM364 648v2q0 10 6 10h2q5 0 5 -10v-2q0 -10 -5 -10h-2q-6 0 -6 10zM371 608 q6 9 20 9h14q0 -15 -25 -15q-5 2 -9 6zM377 718v2q1 5 3 8q8 -3 13 -9q-5 -3 -13 -3zM382 581q0 14 11 14q10 0 10 -12v-4q0 -11 -10 -11q-11 0 -11 13zM393 750q3 2 6 2q6 0 6 -2v-2q0 -9 -6 -9q-3 4 -6 11zM407 738v3q0 9 6 9h1q6 0 6 -9v-3q0 -10 -6 -10h-1q-6 0 -6 10z M416 639v3q0 9 6 9q11 0 11 -9v-3q0 -11 -9 -11h-2q-6 0 -6 11zM479 737l8 4q3 4 3 9h16l-19 -9q-2 -4 -8 -4zM522 356q27 -5 56 -5q102 0 165 71q60 69 60 173q0 231 -109 337q-65 -201 -65 -229q0 -13 -68 -230zM663 435v3q0 13 7 13q9 0 9 -13v-3q0 -9 -9 -9q-7 0 -7 9z M693 447v3q0 10 10 10h2q6 0 6 -10v-3q0 -10 -7 -10q-11 0 -11 10zM706 469v3q0 10 7 10q9 0 9 -10v-3q0 -9 -8 -9h-2q-6 0 -6 9zM738 555v3q0 10 8 10h2q5 0 6 -10q1 1 2 1q11 0 11 -10v-3q0 -10 -10 -10h-2q-6 0 -6 10h-2q-9 0 -9 9zM833 252l13 10v-21zM855 219v11h9z " />
<glyph unicode="&#xd9;" horiz-adv-x="763" d="M56 928v65q0 100 9 170v-5q-2 -32 45 -32q2 0 10 3.5t11 3.5q16 0 46.5 -3.5t45.5 -3.5q13 5 78 28q17 -38 17 -45q0 -110 5 -329.5t5 -329.5q0 -168 87 -168q69 0 69 133q0 113 -3.5 338.5t-3.5 338.5q0 52 7 62l210 -10q4 -22 11 -65q8 -52 8 -244v-152q1 -151 1 -152 q0 -149 -2 -232q-1 -16 -13 -51q-42 -123 -200 -165q-56 -16 -116 -16q-209 0 -270 234q-24 91 -30 398q-1 34 -6 130q-4 82 -4 130q-15 -13 -17 -31zM61 986q0 -20 3 -20q5 0 5 23q0 26 -5 26q-3 0 -3 -23v-6zM170 1450l103 55l95 -242l-44 -31z" />
<glyph unicode="&#xda;" horiz-adv-x="763" d="M56 928v65q0 100 9 170v-5q-2 -32 45 -32q2 0 10 3.5t11 3.5q16 0 46.5 -3.5t45.5 -3.5q13 5 78 28q17 -38 17 -45q0 -110 5 -329.5t5 -329.5q0 -168 87 -168q69 0 69 133q0 113 -3.5 338.5t-3.5 338.5q0 52 7 62l210 -10q4 -22 11 -65q8 -52 8 -244v-152q1 -151 1 -152 q0 -149 -2 -232q-1 -16 -13 -51q-42 -123 -200 -165q-56 -16 -116 -16q-209 0 -270 234q-24 91 -30 398q-1 34 -6 130q-4 82 -4 130q-15 -13 -17 -31zM61 986q0 -20 3 -20q5 0 5 23q0 26 -5 26q-3 0 -3 -23v-6zM403 1270l94 242l104 -55l-154 -218z" />
<glyph unicode="&#xdb;" horiz-adv-x="763" d="M56 928v65q0 100 9 170v-5q-2 -32 45 -32q2 0 10 3.5t11 3.5q16 0 46.5 -3.5t45.5 -3.5q13 5 78 28q17 -38 17 -45q0 -110 5 -329.5t5 -329.5q0 -168 87 -168q69 0 69 133q0 113 -3.5 338.5t-3.5 338.5q0 52 7 62l210 -10q4 -22 11 -65q8 -52 8 -244v-152q1 -151 1 -152 q0 -149 -2 -232q-1 -16 -13 -51q-42 -123 -200 -165q-56 -16 -116 -16q-209 0 -270 234q-24 91 -30 398q-1 34 -6 130q-4 82 -4 130q-15 -13 -17 -31zM61 986q0 -20 3 -20q5 0 5 23q0 26 -5 26q-3 0 -3 -23v-6zM252 1266q2 10 11 23q4 -6 4 -24q1 -2 2 -5v-1q-6 3 -17 7z M260 1284l1 -2l2 2l-1 2zM262 1270l1 -3l2 3l-1 2l2 2l-2 2l-1 -1l1 -3l-2 -1v-1zM271 1310q0 5 44.5 86.5t48 92.5t20.5 11q39 0 54 -30q17 -34 18 -34q14 -4 18 -25l3 -3l-3 -9v-3q3 -1 7 -7l2 1h1q1 -1 2 -3q12 -31 33 -73q2 -2 2 0v-4q0 -15 -42 -15q-18 0 -21 10 q-20 40 -60 117l-6 -12q0 -2 -2 -4q-1 -1 -1 0h-3q-2 -3 -6 -7l-1 -2l4 -10l-3 -2q-4 -22 -18 -26q-12 -21 -28 -50q-6 -8 -22 -8q-41 0 -41 9zM365 1369l1 -7q3 2 1 7h-2zM367 1378q2 -2 2 2zM459 1426l3 1l1 4l-3 2zM462 1418l2 -3l1 3l-2 2z" />
<glyph unicode="&#xdc;" horiz-adv-x="763" d="M56 928v65q0 100 9 170v-5q-2 -32 45 -32q2 0 10 3.5t11 3.5q16 0 46.5 -3.5t45.5 -3.5q13 5 78 28q17 -38 17 -45q0 -110 5 -329.5t5 -329.5q0 -168 87 -168q69 0 69 133q0 113 -3.5 338.5t-3.5 338.5q0 52 7 62l210 -10q4 -22 11 -65q8 -52 8 -244v-152q1 -151 1 -152 q0 -149 -2 -232q-1 -16 -13 -51q-42 -123 -200 -165q-56 -16 -116 -16q-209 0 -270 234q-24 91 -30 398q-1 34 -6 130q-4 82 -4 130q-15 -13 -17 -31zM61 986q0 -20 3 -20q5 0 5 23q0 26 -5 26q-3 0 -3 -23v-6zM193 1267q0 58 54 58q56 0 56 -58q0 -54 -49 -54q-61 0 -61 54 zM474 1274q0 51 55 51q58 0 58 -58q0 -54 -61 -54q-52 0 -52 61z" />
<glyph unicode="&#xdd;" horiz-adv-x="675" d="M-9 811v9q3 3 9 12q0 9 2 27.5t2 28.5h26v-120q-7 13 -23 36zM2 820q0 -6 5 -9q8 0 8 7v3q0 11 -8 11q-5 -4 -5 -12zM56 1178l185 7q3 -4 7 -11q10 -9 39 -126q36 -145 38 -151q9 4 11 25q0 8 11 49q14 69 51 203l12 11h187l-162 -579q3 -14 -7.5 -15.5t-10.5 -16.5l1 -1 l1 -5q7 23 30 23q35 0 35 -62v-31q0 15 -27 29q-32 17 -38 25q-2 -3 -2 -9q0 -8 5.5 -14.5t5.5 -14.5l-9 13l-6 -458l-179 -2l9 485h2zM169 1302h212q40 0 382 -16l7 -9l-7 -11h-150q6 0 -89 7q-210 14 -355 29zM329 1330l94 242l104 -55l-154 -218zM428 571q0 -8 6 -8h2 q11 0 11 8v2q0 8 -12 8q-7 0 -7 -8v-2zM437 551q0 -8 12 -8q4 3 4 9q0 11 -4 11q-12 0 -12 -10v-2zM527 630v3l11 12h10l6 -12l22 12v-19q0 -33 -22 -58q-1 13 -14 32.5t-13 29.5z" />
<glyph unicode="&#xde;" horiz-adv-x="714" d="M53 117q0 79 15 155t15 155q0 62 -5 74l-12 8v17q4 5 12 13l-12 13l12 12v108l-12 16q18 1 18 15q0 49 -6 55q-8 22 -12 37q10 9 12 17q4 2 5 6l-1 19q0 22 -16 22l15 10q-2 44 -16 118q-12 65 -12 142q0 70 13 116q26 0 80 7t81 7q26 0 54.5 -18t28.5 -43q0 -9 -6 -9 q-8 -18 -8 -38q4 -12 8 -26q1 -3 -4 -27q-2 -11 -8 -31q2 -8 3 -30q-1 -1 -9 -10h26q21 0 59 -1t56 -1q12 0 35.5 -5.5t34.5 -5.5q7 0 20.5 5.5t20.5 5.5q8 0 52.5 -102t79.5 -102q-9 -2 -24 -9q0 -20 12 -47.5t12 -38.5q0 -37 -13 -109t-13 -109q0 -18 2 -36 q-75 -180 -163 -219q-12 -5 -20.5 -24t-16.5 -25v28q-21 0 -62.5 5t-62.5 5q-20 0 -25 -14q0 -4 -1 -20q-1 -22 -3 -30q3 -6 8 -30.5t4 -27.5q-4 -12 -8 -25q0 -20 8 -39q6 1 6 -9q0 -25 -28.5 -42.5t-54.5 -17.5q-27 0 -81 6.5t-80 6.5q-13 46 -13 117zM296 509 q31 -13 64 -13q7 0 21.5 2.5t21.5 2.5l-15 8q26 0 48.5 21.5t22.5 47.5q0 10 -6.5 30t-6.5 30q0 13 6.5 22.5t6.5 16.5v11q-4 5 -13 38l-6 2q-5 -2 -17 -6q0 8 6 22q-10 8 -26 21q-2 4 -7 6q-12 -9 -36 -32q5 9 5 16q0 27 -37 27q-24 0 -24 -32q0 -24 31 -24l-31 -13 q4 -10 4 -41q0 -35 -12 -52v-111zM308 606q0 14 13 14q11 0 11 -14q0 -11 -11 -11q-13 0 -13 11zM360 634q0 8 13 8h4q12 0 12 -5q0 -12 -16 -12q-9 0 -13 9zM391 563v3q0 12 12 12q9 0 9 -14q0 -12 -9 -12q-12 0 -12 11zM443 257q2 -7 6 -11q5 3 10 7q0 9 -8 9h-2 q-4 0 -6 -5zM601 1082q0 36 15 36q30 0 30 -37v-28q-13 -6 -22 -6q-23 0 -23 35z" />
<glyph unicode="&#xdf;" horiz-adv-x="982" d="M-51 580v10q0 18 6 18h1q5 -4 5 -17v-9q0 -11 -5 -19h-1q-6 0 -6 17zM-38 437v23q0 21 4 22l1 -1q5 -12 5 -29v-20q0 -14 -7 -18q-3 10 -3 23zM-22 347v3q0 10 8 10q5 -4 5 -10v-3l-4 -7l-5 -1q-4 4 -4 8zM-1 206v44q13 -46 13 -148q-13 43 -13 104zM27 38l14 -94h-14v94 zM63 928q0 25 6 72.5t6 70.5q103 16 191 16q40 0 119.5 -1.5t119.5 -1.5h223q96 0 141 -105q30 -72 30 -164q0 -72 -30 -118q-8 -13 -87 -98q144 -36 144 -216q0 -118 -19 -171q-36 -98 -148 -114q-75 -2 -224 -8q-24 78 -24 140t31 68q13 0 40 4q62 14 62 89v19 q0 71 -26 71h-246q-6 -10 -14 -11v-15q0 22 10 -75q7 -86 22 -257q7 -63 15 -188h-280l-40 496q-22 292 -22 497zM343 842l15 -143l14 -13q112 6 189 13q38 4 73 30v41q0 71 -44 87h-206q-5 0 -41 -15z" />
<glyph unicode="&#xe0;" horiz-adv-x="745" d="M8 11h249l24 17v-8l11 8q6 0 18 2t18 2q54 0 76 -12q8 3 25 8v-17h336q0 -52 -47 -52q-68 0 -206 1t-207 1q-50 0 -149 7t-148 7v36zM42 398q0 255 434 255v30q0 58 -37 76q-24 11 -89 11q-7 -6 -37 -52q-19 -28 -56 -28q-68 0 -170 11l-14 11q0 39 14 79q22 62 128 93 q78 24 167 24q97 0 181 -27q117 -37 130 -111q9 -47 9 -80q1 -3 11 -12v-36l-11 -9v-284l11 -11v-129h-192q-16 0 -34 59h-11q-118 -83 -189 -83q-99 0 -169 56q-76 60 -76 157zM204 1204l103 55l95 -242l-44 -31zM267 428q0 -79 89 -79q87 0 107 79q13 51 13 79l-13 13h-41 q-155 0 -155 -92zM695 278q0 -10 7 -10q9 0 9 10v3q0 9 -8 9h-2q-6 0 -6 -9v-3z" />
<glyph unicode="&#xe1;" horiz-adv-x="745" d="M8 11h249l24 17v-8l11 8q6 0 18 2t18 2q54 0 76 -12q8 3 25 8v-17h336q0 -52 -47 -52q-68 0 -206 1t-207 1q-50 0 -149 7t-148 7v36zM42 398q0 255 434 255v30q0 58 -37 76q-24 11 -89 11q-7 -6 -37 -52q-19 -28 -56 -28q-68 0 -170 11l-14 11q0 39 14 79q22 62 128 93 q78 24 167 24q97 0 181 -27q117 -37 130 -111q9 -47 9 -80q1 -3 11 -12v-36l-11 -9v-284l11 -11v-129h-192q-16 0 -34 59h-11q-118 -83 -189 -83q-99 0 -169 56q-76 60 -76 157zM267 428q0 -79 89 -79q87 0 107 79q13 51 13 79l-13 13h-41q-155 0 -155 -92zM390 1037l94 242 l104 -55l-154 -218zM695 278q0 -10 7 -10q9 0 9 10v3q0 9 -8 9h-2q-6 0 -6 -9v-3z" />
<glyph unicode="&#xe2;" horiz-adv-x="745" d="M8 11h249l24 17v-8l11 8q6 0 18 2t18 2q54 0 76 -12q8 3 25 8v-17h336q0 -52 -47 -52q-68 0 -206 1t-207 1q-50 0 -149 7t-148 7v36zM42 398q0 255 434 255v30q0 58 -37 76q-24 11 -89 11q-7 -6 -37 -52q-19 -28 -56 -28q-68 0 -170 11l-14 11q0 39 14 79q22 62 128 93 q78 24 167 24q97 0 181 -27q117 -37 130 -111q9 -47 9 -80q1 -3 11 -12v-36l-11 -9v-284l11 -11v-129h-192q-16 0 -34 59h-11q-118 -83 -189 -83q-99 0 -169 56q-76 60 -76 157zM257 980q2 10 11 23q4 -6 4 -24q1 -2 2 -5v-1q-6 3 -17 7zM265 998l1 -2l2 2l-1 2zM267 428 q0 -79 89 -79q87 0 107 79q13 51 13 79l-13 13h-41q-155 0 -155 -92zM267 984l1 -3l2 3l-1 2l2 2l-2 2l-1 -1l1 -3l-2 -1v-1zM276 1024q0 5 44.5 86.5t48 92.5t20.5 11q39 0 54 -30q17 -34 18 -34q14 -4 18 -25l3 -3l-3 -9v-3q3 -1 7 -7l2 1h1q1 -1 2 -3q12 -31 33 -73 q2 -2 2 0v-4q0 -15 -42 -15q-18 0 -21 10q-20 40 -60 117l-6 -12q0 -2 -2 -4q-1 -1 -1 0h-3q-2 -3 -6 -7l-1 -2l4 -10l-3 -2q-4 -22 -18 -26q-12 -21 -28 -50q-6 -8 -22 -8q-41 0 -41 9zM370 1083l1 -7q3 2 1 7h-2zM372 1092q2 -2 2 2zM464 1140l3 1l1 4l-3 2zM467 1132 l2 -3l1 3l-2 2zM695 278q0 -10 7 -10q9 0 9 10v3q0 9 -8 9h-2q-6 0 -6 -9v-3z" />
<glyph unicode="&#xe3;" horiz-adv-x="745" d="M8 11h249l24 17v-8l11 8q6 0 18 2t18 2q54 0 76 -12q8 3 25 8v-17h336q0 -52 -47 -52q-68 0 -206 1t-207 1q-50 0 -149 7t-148 7v36zM42 398q0 255 434 255v30q0 58 -37 76q-24 11 -89 11q-7 -6 -37 -52q-19 -28 -56 -28q-68 0 -170 11l-14 11q0 39 14 79q22 62 128 93 q78 24 167 24q97 0 181 -27q117 -37 130 -111q9 -47 9 -80q1 -3 11 -12v-36l-11 -9v-284l11 -11v-129h-192q-16 0 -34 59h-11q-118 -83 -189 -83q-99 0 -169 56q-76 60 -76 157zM129 1017v58q0 57 50 99q44 37 90 37q44 0 133.5 -55.5t115.5 -55.5q45 0 67 40l33 68h17v-40 q0 -11 -8 -28q-8 -21 -10 -27q-6 -31 -48.5 -64t-73.5 -33q-12 0 -127 55.5t-127 55.5q-66 0 -89 -98q0 -12 -23 -12zM267 428q0 -79 89 -79q87 0 107 79q13 51 13 79l-13 13h-41q-155 0 -155 -92zM695 278q0 -10 7 -10q9 0 9 10v3q0 9 -8 9h-2q-6 0 -6 -9v-3z" />
<glyph unicode="&#xe4;" horiz-adv-x="745" d="M8 11h249l24 17v-8l11 8q6 0 18 2t18 2q54 0 76 -12q8 3 25 8v-17h336q0 -52 -47 -52q-68 0 -206 1t-207 1q-50 0 -149 7t-148 7v36zM42 398q0 255 434 255v30q0 58 -37 76q-24 11 -89 11q-7 -6 -37 -52q-19 -28 -56 -28q-68 0 -170 11l-14 11q0 39 14 79q22 62 128 93 q78 24 167 24q97 0 181 -27q117 -37 130 -111q9 -47 9 -80q1 -3 11 -12v-36l-11 -9v-284l11 -11v-129h-192q-16 0 -34 59h-11q-118 -83 -189 -83q-99 0 -169 56q-76 60 -76 157zM196 1068q0 58 54 58q56 0 56 -58q0 -54 -49 -54q-61 0 -61 54zM267 428q0 -79 89 -79 q87 0 107 79q13 51 13 79l-13 13h-41q-155 0 -155 -92zM477 1075q0 51 55 51q58 0 58 -58q0 -54 -61 -54q-52 0 -52 61zM695 278q0 -10 7 -10q9 0 9 10v3q0 9 -8 9h-2q-6 0 -6 -9v-3z" />
<glyph unicode="&#xe5;" horiz-adv-x="745" d="M8 11h249l24 17v-8l11 8q6 0 18 2t18 2q54 0 76 -12q8 3 25 8v-17h336q0 -52 -47 -52q-68 0 -206 1t-207 1q-50 0 -149 7t-148 7v36zM42 398q0 255 434 255v30q0 58 -37 76q-24 11 -89 11q-7 -6 -37 -52q-19 -28 -56 -28q-68 0 -170 11l-14 11q0 39 14 79q22 62 128 93 q78 24 167 24q97 0 181 -27q117 -37 130 -111q9 -47 9 -80q1 -3 11 -12v-36l-11 -9v-284l11 -11v-129h-192q-16 0 -34 59h-11q-118 -83 -189 -83q-99 0 -169 56q-76 60 -76 157zM267 428q0 -79 89 -79q87 0 107 79q13 51 13 79l-13 13h-41q-155 0 -155 -92zM695 278 q0 -10 7 -10q9 0 9 10v3q0 9 -8 9h-2q-6 0 -6 -9v-3z" />
<glyph unicode="&#xe6;" horiz-adv-x="1379" d="M8 11h249l24 17v-8l11 8q6 0 18 2t18 2q54 0 76 -12q8 3 25 8v-17h336q0 -52 -47 -52q-68 0 -206 1t-207 1q-50 0 -149 7t-148 7v36zM42 398q0 255 434 255v30q0 58 -37 76q-24 11 -89 11q-7 -6 -37 -52q-19 -28 -56 -28q-68 0 -170 11l-14 11q0 39 14 79q22 62 128 93 q78 24 167 24q168 0 258 -63q78 74 219 125q15 6 44 15q14 3 41 8q6 -2 15 -8h43q56 0 114 46t71 46q41 0 41 -36v-11q-88 0 -88 -45v-18l22 26q33 -19 92 -147t79 -139v-180l-548 -39q14 -90 49 -130q41 -47 127 -47q43 0 78 42q56 67 60 71q21 0 93 11l96 14h18 q6 -4 27 -25q-6 -11 -15 -35q-32 -111 -165 -191q-7 -3 -13 -13q-64 -24 -119 -24q-168 0 -236 1q-33 0 -105 47h-159q-16 0 -34 59h-11q-118 -83 -189 -83q-99 0 -169 56q-76 60 -76 157zM267 428q0 -79 89 -79q87 0 107 79q13 51 13 79l-13 13h-41q-155 0 -155 -92z M788 640q140 0 261 31v28q0 41 -41 65.5t-40 33.5h-36q-145 0 -144 -158zM1142 1030q0 -11 11 -11q6 0 6 11v4q0 11 -6 11q-11 0 -11 -12v-3zM1213 985v8h15v-8h-15z" />
<glyph unicode="&#xe7;" horiz-adv-x="737" d="M28 628q0 142 103 239q102 94 245 94q87 0 169 -40q100 -49 100 -126v-15q-116 -45 -192 -45q-19 0 -50.5 41t-59.5 41q-101 0 -101 -123q0 -94 42 -191q51 -120 131 -120q6 0 19 2t19 2q48 42 48 144q50 38 189 62q27 -15 27 -66q0 -130 -117 -213q-106 -75 -241 -75 q-150 0 -245 122q-86 113 -86 267zM98 -46q0 3 15 3h7q7 0 14 -3q0 -6 -18 -6t-18 6zM183 -20h29q5 0 5 -2q-5 -5 -15 -5h-5q-10 0 -14 5v2zM252 2q3 2 10 2h6q10 0 10 -3q0 -7 -13 -7t-13 8zM324 24q0 3 11 3h3q11 0 11 -3q0 -6 -12 -6q-13 0 -13 6zM394 47q3 2 10 2h6 q10 0 10 -3q0 -4 -11 -5q-15 0 -15 6zM481 56q5 17 28 17q24 0 39 -17h-67zM595 84q7 8 26 8v-8h-26zM716 133q3 2 10 2h6q4 0 8 -3q0 -9 -13 -9q-11 0 -11 10z" />
<glyph unicode="&#xe8;" horiz-adv-x="884" d="M-54 903v320q7 -51 18 -191q19 -250 19 -361q15 -24 17 -67q13 -294 13 -473v-103q-5 38 -35 438l-25 336q-7 92 -7 101zM13 2h12v-11h-12v11zM25 565q0 166 112 275q78 78 223 130q15 6 44 15q13 3 41 8q5 -2 15 -8h43q56 0 114 46t71 46q40 0 40 -36v-11q-88 0 -88 -45 v-18l22 26q33 -19 92.5 -147t79.5 -139v-180l-548 -39q13 -90 48 -130q41 -47 128 -47q43 0 78 42q56 67 60 71q20 0 93 11q95 14 96 14h17q6 -4 28 -25q-6 -11 -15 -35q-32 -111 -165 -191q-7 -3 -14 -13q-63 -24 -118 -24q-168 0 -236 1q-49 1 -122 59q-139 112 -139 344z M217 1338l103 55l95 -242l-44 -31zM288 640q141 0 262 31v28q0 41 -41 65.5t-40 33.5h-37q-144 0 -144 -158zM643 1030q0 -11 11 -11q6 0 6 11v4q0 11 -6 11q-11 0 -11 -12v-3zM714 985v8h14v-8h-14z" />
<glyph unicode="&#xe9;" horiz-adv-x="884" d="M-54 903v320q7 -51 18 -191q19 -250 19 -361q15 -24 17 -67q13 -294 13 -473v-103q-5 38 -35 438l-25 336q-7 92 -7 101zM13 2h12v-11h-12v11zM25 565q0 166 112 275q78 78 223 130q15 6 44 15q13 3 41 8q5 -2 15 -8h43q56 0 114 46t71 46q40 0 40 -36v-11q-88 0 -88 -45 v-18l22 26q33 -19 92.5 -147t79.5 -139v-180l-548 -39q13 -90 48 -130q41 -47 128 -47q43 0 78 42q56 67 60 71q20 0 93 11q95 14 96 14h17q6 -4 28 -25q-6 -11 -15 -35q-32 -111 -165 -191q-7 -3 -14 -13q-63 -24 -118 -24q-168 0 -236 1q-49 1 -122 59q-139 112 -139 344z M288 640q141 0 262 31v28q0 41 -41 65.5t-40 33.5h-37q-144 0 -144 -158zM424 1110l94 242l104 -55l-154 -218zM643 1030q0 -11 11 -11q6 0 6 11v4q0 11 -6 11q-11 0 -11 -12v-3zM714 985v8h14v-8h-14z" />
<glyph unicode="&#xea;" horiz-adv-x="884" d="M-54 903v320q7 -51 18 -191q19 -250 19 -361q15 -24 17 -67q13 -294 13 -473v-103q-5 38 -35 438l-25 336q-7 92 -7 101zM13 2h12v-11h-12v11zM25 565q0 166 112 275q78 78 223 130q15 6 44 15q13 3 41 8q5 -2 15 -8h43q56 0 114 46t71 46q40 0 40 -36v-11q-88 0 -88 -45 v-18l22 26q33 -19 92.5 -147t79.5 -139v-180l-548 -39q13 -90 48 -130q41 -47 128 -47q43 0 78 42q56 67 60 71q20 0 93 11q95 14 96 14h17q6 -4 28 -25q-6 -11 -15 -35q-32 -111 -165 -191q-7 -3 -14 -13q-63 -24 -118 -24q-168 0 -236 1q-49 1 -122 59q-139 112 -139 344z M288 640q141 0 262 31v28q0 41 -41 65.5t-40 33.5h-37q-144 0 -144 -158zM314 1086q2 10 11 23q4 -6 4 -24q1 -2 2 -5v-1q-6 3 -17 7zM322 1104l1 -2l2 2l-1 2zM324 1090l1 -3l2 3l-1 2l2 2l-2 2l-1 -1l1 -3l-2 -1v-1zM333 1130q0 5 44.5 86.5t48 92.5t20.5 11q39 0 54 -30 q17 -34 18 -34q14 -4 18 -25l3 -3l-3 -9v-3q3 -1 7 -7l2 1h1q1 -1 2 -3q12 -31 33 -73q2 -2 2 0v-4q0 -15 -42 -15q-18 0 -21 10q-20 40 -60 117l-6 -12q0 -2 -2 -4q-1 -1 -1 0h-3q-2 -3 -6 -7l-1 -2l4 -10l-3 -2q-4 -22 -18 -26q-12 -21 -28 -50q-6 -8 -22 -8q-41 0 -41 9z M427 1189l1 -7q3 2 1 7h-2zM429 1198q2 -2 2 2zM521 1246l3 1l1 4l-3 2zM524 1238l2 -3l1 3l-2 2zM643 1030q0 -11 11 -11q6 0 6 11v4q0 11 -6 11q-11 0 -11 -12v-3zM714 985v8h14v-8h-14z" />
<glyph unicode="&#xeb;" horiz-adv-x="884" d="M-54 903v320q7 -51 18 -191q19 -250 19 -361q15 -24 17 -67q13 -294 13 -473v-103q-5 38 -35 438l-25 336q-7 92 -7 101zM13 2h12v-11h-12v11zM25 565q0 166 112 275q78 78 223 130q15 6 44 15q13 3 41 8q5 -2 15 -8h43q56 0 114 46t71 46q40 0 40 -36v-11q-88 0 -88 -45 v-18l22 26q33 -19 92.5 -147t79.5 -139v-180l-548 -39q13 -90 48 -130q41 -47 128 -47q43 0 78 42q56 67 60 71q20 0 93 11q95 14 96 14h17q6 -4 28 -25q-6 -11 -15 -35q-32 -111 -165 -191q-7 -3 -14 -13q-63 -24 -118 -24q-168 0 -236 1q-49 1 -122 59q-139 112 -139 344z M247 1121q0 58 54 58q56 0 56 -58q0 -54 -49 -54q-61 0 -61 54zM288 640q141 0 262 31v28q0 41 -41 65.5t-40 33.5h-37q-144 0 -144 -158zM528 1128q0 51 55 51q58 0 58 -58q0 -54 -61 -54q-52 0 -52 61zM643 1030q0 -11 11 -11q6 0 6 11v4q0 11 -6 11q-11 0 -11 -12v-3z M714 985v8h14v-8h-14z" />
<glyph unicode="&#xec;" horiz-adv-x="344" d="M-85 739l16 16l10 -16q28 -301 28 -554v-194q-2 34 -33 374q-21 226 -21 374zM-4 1103l103 55l95 -242l-44 -31zM55 200q0 20 6.5 60t6.5 60q0 6 -2 16.5t-2 15.5q0 28 21 31l-30 41v58q0 28 15 82.5t15 82.5l-17 26v12l17 29l-17 9q0 38 31 51q28 9 56 19q33 -6 100 -13 q41 -187 41 -305h-7q-2 -53 -2 -65l9 -27l15 -11l-15 -28v-40l-9 16q-23 -54 -23 -169h-170q-10 0 -24.5 19.5t-14.5 29.5zM284 949q0 9 3 20q15 0 43 -10.5t43 -10.5q-8 -39 -45 -39q-44 0 -44 40zM307 245l4 9l8 -8v-1l-8 -6zM324 215l5 4h2l6 -4l-6 -6h-2zM386 666v1l5 6 l2 -5v-2l-2 -6z" />
<glyph unicode="&#xed;" horiz-adv-x="344" d="M-85 739l16 16l10 -16q28 -301 28 -554v-194q-2 34 -33 374q-21 226 -21 374zM55 200q0 20 6.5 60t6.5 60q0 6 -2 16.5t-2 15.5q0 28 21 31l-30 41v58q0 28 15 82.5t15 82.5l-17 26v12l17 29l-17 9q0 38 31 51q28 9 56 19q33 -6 100 -13q41 -187 41 -305h-7 q-2 -53 -2 -65l9 -27l15 -11l-15 -28v-40l-9 16q-23 -54 -23 -169h-170q-10 0 -24.5 19.5t-14.5 29.5zM163 970l94 242l104 -55l-154 -218zM284 949q0 9 3 20q15 0 43 -10.5t43 -10.5q-8 -39 -45 -39q-44 0 -44 40zM307 245l4 9l8 -8v-1l-8 -6zM324 215l5 4h2l6 -4l-6 -6h-2 zM386 666v1l5 6l2 -5v-2l-2 -6z" />
<glyph unicode="&#xee;" horiz-adv-x="344" d="M-85 739l16 16l10 -16q28 -301 28 -554v-194q-2 34 -33 374q-21 226 -21 374zM55 200q0 20 6.5 60t6.5 60q0 6 -2 16.5t-2 15.5q0 28 21 31l-30 41v58q0 28 15 82.5t15 82.5l-17 26v12l17 29l-17 9q0 38 31 51q28 9 56 19q33 -6 100 -13q41 -187 41 -305h-7 q-2 -53 -2 -65l9 -27l15 -11l-15 -28v-40l-9 16q-23 -54 -23 -169h-170q-10 0 -24.5 19.5t-14.5 29.5zM73 926q2 10 11 23q4 -6 4 -24q1 -2 2 -5v-1q-6 3 -17 7zM81 944l1 -2l2 2l-1 2zM83 930l1 -3l2 3l-1 2l2 2l-2 2l-1 -1l1 -3l-2 -1v-1zM92 970q0 5 44.5 86.5t48 92.5 t20.5 11q39 0 54 -30q17 -34 18 -34q14 -4 18 -25l3 -3l-3 -9v-3q3 -1 7 -7l2 1h1q1 -1 2 -3q12 -31 33 -73q2 -2 2 0v-4q0 -15 -42 -15q-18 0 -21 10q-20 40 -60 117l-6 -12q0 -2 -2 -4q-1 -1 -1 0h-3q-2 -3 -6 -7l-1 -2l4 -10l-3 -2q-4 -22 -18 -26q-12 -21 -28 -50 q-6 -8 -22 -8q-41 0 -41 9zM186 1029l1 -7q3 2 1 7h-2zM188 1038q2 -2 2 2zM280 1086l3 1l1 4l-3 2zM283 1078l2 -3l1 3l-2 2zM284 949q0 9 3 20q15 0 43 -10.5t43 -10.5q-8 -39 -45 -39q-44 0 -44 40zM307 245l4 9l8 -8v-1l-8 -6zM324 215l5 4h2l6 -4l-6 -6h-2zM386 666v1 l5 6l2 -5v-2l-2 -6z" />
<glyph unicode="&#xef;" horiz-adv-x="344" d="M-85 739l16 16l10 -16q28 -301 28 -554v-194q-2 34 -33 374q-21 226 -21 374zM0 954q0 58 54 58q56 0 56 -58q0 -54 -49 -54q-61 0 -61 54zM55 200q0 20 6.5 60t6.5 60q0 6 -2 16.5t-2 15.5q0 28 21 31l-30 41v58q0 28 15 82.5t15 82.5l-17 26v12l17 29l-17 9q0 38 31 51 q28 9 56 19q33 -6 100 -13q41 -187 41 -305h-7q-2 -53 -2 -65l9 -27l15 -11l-15 -28v-40l-9 16q-23 -54 -23 -169h-170q-10 0 -24.5 19.5t-14.5 29.5zM281 961q0 51 55 51q58 0 58 -58q0 -54 -61 -54q-52 0 -52 61zM284 949q0 9 3 20q15 0 43 -10.5t43 -10.5q-8 -39 -45 -39 q-44 0 -44 40zM307 245l4 9l8 -8v-1l-8 -6zM324 215l5 4h2l6 -4l-6 -6h-2zM386 666v1l5 6l2 -5v-2l-2 -6z" />
<glyph unicode="&#xf0;" horiz-adv-x="645" d="M3 1434h4q9 0 27 1l9 1q7 1 11 7q5 -4 7 -14l1 -8q-1 6 -6 9l-4 -1l-2 -5l1 -5q-1 -5 -3 -19l-4 -1q-9 8 -28 21q3 3 4 8q-11 4 -17 6zM36 -12q2 1 211 9q75 7 223 16h38q29 0 49 4l3 5q30 0 65 2q47 3 48 -3q1 -4 -2 -11l-10 3l-60 -11q-14 1 -42 2l-162 -11 q-35 -2 -51 0q-3 -5 -12 -7q-40 3 -104 3l-1 2h-2l-2 -3q-3 -1 -19 -4q-10 -3 -29 -6q-20 5 -34 3q-32 -6 -42 1q-61 -11 -65 6zM44 1459l47 8q4 1 28 0q-5 -5 -11 -6l-16 -3q-29 -5 -48 1zM47 339q1 55 9 165q16 128 30 166q33 88 120 104q62 10 120 -8q-2 12 -39 122 l-24 69h-23l10 6q-32 14 -102 13v103q0 6 12 14.5t18 8.5q12 0 39 -4l-23 70l-30 90l-10 28h-1q-1 0 -0.5 0h1.5q15 -3 41 -4l8 4q61 0 146 -7q28 -80 64 -190q20 -5 34 -5l16 10h7l17 -10l6 10q23 0 29.5 -17.5t12.5 -34.5q-4 -20 -8 -60q-43 -10 -74 -15l21 -64 q21 -64 63 -194q43 -135 41 -202q-1 -51 -1 -50l1 -7q-7 -161 -7 -163q-3 -19 -10 -59q-14 -67 -68.5 -119t-122.5 -64q-27 -5 -54 -5q-102 0 -180 65q-81 68 -84 168q1 23 -5 66zM100 1158q7 3 10 22q1 7 12 11l1 -9q4 -19 -13 -33zM175 -12l1 -4q3 1 4 3q-2 2 -4 1h-1z M225 299q-1 -34 31.5 -59.5t65.5 -19.5q59 10 73 78q-2 4 -2 18q0 20 7 90.5t7 97.5q0 28 -10 56q-22 60 -72 60q-31 0 -59.5 -21.5t-30.5 -51.5l-6 -124z" />
<glyph unicode="&#xf1;" horiz-adv-x="714" d="M-91 -95q3 8 9 11h12q19 0 35 -6v-5q-2 -2 -7 -4l-2 4h-47zM-91 378v3l4 11h5q5 -6 6 -11q5 2 17 16q11 11 17 11q11 0 11 -16v-5q-5 3 -10 4q-1 -2 -5 -2q0 2 -6 -30q1 -2 2 -3l-2 -4l-1 -3q-15 0 -20 -13q-7 -17 -14 -20v9q4 8 11 26q-15 -5 -15 27zM-91 441l2 30v-13 q13 13 13 24q-2 3 -6 4q0 18 11.5 18.5t11.5 11.5q0 15 -14 26.5t-14 25.5q0 7 5 15l-5 6v6h5q0 22 21 22q-1 0 110 7q6 5 6 14q0 18 -5 28q-9 13 -10 19l3 1l3 4q0 17 -13 17q1 3 6 5t5 6q-4 0 -12.5 -3t-12.5 -3v6q21 0 21 12v16l-5 9q1 7 11 15l-2 12h-9q5 -1 5 -6v-6 l-21 12q0 43 27 43v76q18 18 102 18q20 0 60 -1t59 -1l18 -55l34 35v8q4 3 12 7q80 30 126 30q44 0 110 -20q22 -17 60 -60q0 -81 13 -220q15 -161 17 -221l5 -6l-2 -7q2 -5 8 -6q-3 39 9 105q-2 6 -7 11v120q0 7 7 7h4q0 -22 10 -66l-2 -7q0 -45 -4 -136t-4 -137 q-4 -1 -4 -24l-7 -4l-2 11v-59q2 -4 6 -4q5 0 7 2q-11 -19 -11 -27v-5l11 5v-131h-4q-2 11 -7 29q0 28 -9 37q16 5 16 40q-2 5 -7 11v-42q-11 0 -32.5 -4.5t-32.5 -4.5q-4 0 -10.5 2t-10.5 2q-16 0 -48 -2t-49 -2h-62l4 9l-17 339h-9q2 6 6 9q1 6 2 17q-1 9 -12 227 q-10 19 -19 29h-56q-2 -2 -11.5 -7.5t-9.5 -12.5v-152q0 -21 4 -64q10 -6 12 -11h-12q17 -355 17 -343v-52q-13 0 -37 -4.5t-36 -4.5q1 -27 -7 -27q0 33 -43 33q-15 0 -28 -6h-93q0 82 -20 101v6q5 4 8 6h-13q21 27 21 76q0 65 -10 75v79q-8 16 -8 67q1 68 0 74q-1 9 -3 16 h-77q-4 -4 -21 -6q-12 -1 -12 -17v-2l5 -4q-2 -7 -5 -20l-6 4q0 -22 22 -22q0 -14 -5 -23h2q8 -10 11 -15v-2q-3 -4 -11 -19v-5q2 3 7 5h4q-8 -26 -13 -41q0 21 -9 21h-2q0 -36 -16 -36q-7 0 -11 6q-6 10 -8 11zM-87 523q5 4 11 8h5q1 -3 7 -8v-3q-2 -5 -18 -13q-5 4 -5 16z M-84 364q0 -3 2 -3q3 1 5 4q-2 5 -5 7q-2 -2 -2 -6v-2zM-82 739q2 7 11 16q-4 1 -11 4v2q0 19 11 26q-3 -6 -3 -10t9.5 -11t9.5 -14v-2q-2 -5 -9 -15q-6 2 -18 4zM-76 370l5 -5q3 2 5 7q-2 3 -5 4q-5 -2 -5 -6zM-76 1043v6q0 5 3.5 10t3.5 11q14 1 73.5 -12t75.5 -20h-22 q-18 0 -52.5 5.5t-51.5 5.5q-15 0 -30 -6zM-69 572q1 -4 5 -4l3 4q-1 4 -3 7q-5 0 -5 -6v-1zM-69 750q2 -4 5 -4l3 4l-3 5q-4 -2 -5 -5zM-66 273l2 2q0 7 9 7q18 0 18 -32h-18q0 5 -5.5 11.5t-5.5 11.5zM-64 486h3v5h-3v-5zM-64 1054l3 -5q3 2 4 5q-2 5 -4 5zM-59 356 q1 -4 4 -5q2 0 3 1v7q-1 1 -3 2zM-50 503q2 -4 6 -5v5l-6 4v-4zM-44 174q12 12 18 20q7 -7 7 -20h-25zM-26 92l4 11q0 8 -4 9v10q0 16 14 16q9 0 9 -26q0 -5 -3.5 -13t-3.5 -13q2 -9 9 -30h-6q-19 0 -19 36zM25 -95h62q-7 -6 -32 -6q-22 0 -30 6zM35 138v6l5 9l-5 4l5 8 q16 -6 16 -18q0 -3 -1.5 -10t-1.5 -11q0 -14 8 -25q15 -10 15 -24q0 7 -8 -21q7 -6 12 -9l-2 -1l-2 -3v-7l4 -2v-4q0 -8 -14 -32q-1 17 -11 49l-9 -4l-6 34q6 0 6 7q0 9 -5.5 26.5t-5.5 27.5zM40 806l6 5h-6v-5zM42 791l4 -4l3 4l-3 4zM68 -13q7 3 19 6h4v-13l5 2l3 -4l1 -6 l-9 -6zM71 245q1 -4 5 -4l4 4l-4 5q-5 -2 -5 -5zM75 1069v58q0 57 50 99q44 37 90 37q44 0 133.5 -55.5t115.5 -55.5q45 0 67 40l33 68h17v-40q0 -11 -8 -28q-8 -21 -10 -27q-6 -31 -48.5 -64t-73.5 -33q-12 0 -127 55.5t-127 55.5q-66 0 -89 -98q0 -12 -23 -12zM96 -90h20 q-8 12 -11 21v6l21 -12l-5 -4q5 -9 19 -10t16 -10h-60v9zM173 -95l140 5q6 0 20.5 -2.5t21.5 -2.5h108q2 7 18 7v-2q2 4 16 9q0 -16 -7 -18q-19 -4 -55 -4h-191q-20 0 -67 4zM236 1023l6 7h338q17 0 52 2t52 2q0 -36 -10 -45v30h-17q-41 0 -121.5 -4.5t-120.5 -4.5h-55 q-92 0 -124 13zM352 572l8 28q11 0 11 -8v-3h-2q-4 -6 -9 -17h-8zM373 449q11 11 15 20q-1 -9 3 -25t4 -23q-10 0 -13.5 12t-8.5 16zM411 503l1 4zM483 -18q6 6 11 16h5q12 0 12 -16q-5 -10 -17 -10h-4q-3 3 -7 10zM596 -99q11 5 74 20v-20h-74zM599 99q19 0 19 -19 q0 -11 -11 -33q-8 16 -8 52zM668 387l2 -97v82q7 3 9 9q-9 0 -11 6zM668 396l2 -4q3 1 4 4q-1 5 -4 6zM670 28q0 26 11 26v-26h-11zM672 408l1 -1q6 0 8 2l-4 4zM677 656v322h4v-322h-4z" />
</font>
</defs>
</svg>
