<?xml version="1.0" standalone="no"?>
<!DOCTYPE svg PUBLIC "-//W3C//DTD SVG 1.1//EN" "http://www.w3.org/Graphics/SVG/1.1/DTD/svg11.dtd" >
<svg xmlns="http://www.w3.org/2000/svg">
<metadata></metadata>
<defs>
<font id="webfontregular" horiz-adv-x="1034" >
<font-face units-per-em="2048" ascent="1638" descent="-410" />
<missing-glyph horiz-adv-x="516" />
<glyph horiz-adv-x="2048" />
<glyph horiz-adv-x="2048" />
<glyph unicode="&#xd;" horiz-adv-x="516" />
<glyph unicode=" "  horiz-adv-x="516" />
<glyph unicode="&#x09;" horiz-adv-x="516" />
<glyph unicode="&#xa0;" horiz-adv-x="516" />
<glyph unicode="!" horiz-adv-x="692" d="M145 106v54q41 21 66 51t37 74h69q18 -46 46 -76t65 -47v-72q-39 -16 -64 -42.5t-42 -67.5h-66q-9 36 -36 66q-25 30 -75 60zM211 141l32 -35l33 -40l34 38l34 33l-37 35l-28 37l-34 -37zM217 1266q0 30 65 30q22 0 43 1.5t42 5.5q57 7 116 24l58 16q5 0 11 -7 q3 -4 5 -15q0 -8 -6 -31.5t-20 -70.5l-42 -158l-139 -600q-9 -36 -20 -49t-33 -13q-15 0 -25 13q-8 13 -8 37v17q0 13 2 21l43 750q-59 0 -75.5 6t-16.5 23zM305 537l150 718l-93 -18z" />
<glyph unicode="&#x22;" horiz-adv-x="666" d="M94 1368q0 46 20 70t58 24q35 0 55.5 -24.5t20.5 -69.5l-1 -16l-3 -28l-58 -454h-28l-60 453l-3 23zM418 1368q0 47 18.5 70.5t57.5 23.5q36 0 56.5 -25t20.5 -69l-1 -16l-3 -29l-59 -453h-29l-57 453l-3 23z" />
<glyph unicode="#" horiz-adv-x="1575" d="M129 494l31 79h338l106 304h-368l28 79h369l176 498h94l-174 -498h299l176 498h96l-176 -498h322l-27 -79h-323l-107 -304h348l-28 -79h-348l-175 -494h-96l174 494h-301l-174 -494h-94l174 494h-340zM592 573h301l106 304h-299z" />
<glyph unicode="$" d="M68 111q0 11 15.5 62t23.5 88l6 34q12 74 37 74q12 0 18 -9t8 -26q0 -78 4.5 -101t18.5 -38q39 -46 108 -78q66 -29 156 -41v450q-188 48 -279.5 134.5t-91.5 220.5q0 151 98 246t273 116v113q0 27 8.5 34t32.5 7h61q41 0 51 -5q12 -4 13 -16q0 -13 -50.5 -32.5 t-50.5 -65.5v-33q100 0 166.5 -9t115.5 -23q73 -19 73 -58q0 -30 2.5 -55.5t9.5 -65.5l10 -69q0 -13 -5.5 -20t-16.5 -7q-18 0 -41 51t-56 84q-40 41 -102.5 64t-155.5 32v-448q215 -42 310.5 -121.5t95.5 -218.5q0 -146 -108 -249t-298 -132v-178l2 -42l2 -40 q0 -23 -20.5 -35t-60.5 -12h-109q-28 0 -39.5 6.5t-11.5 21.5q0 30 39 36l30 5q56 15 79.5 49t23.5 111l-1 78q-86 0 -151 8.5t-130 27.5q-113 33 -113 75zM113 121q32 -34 102 -55q36 -10 75 -15.5t84 -5.5q-99 37 -156 74t-85 82zM131 895q0 -131 83 -206.5t310 -135.5 q180 -47 241.5 -103t61.5 -155q0 -21 -1 -31t-7 -29q-3 -17 -8 -30t-14 -31q42 33 64 75.5t22 94.5q0 105 -66 164t-299 119q-196 51 -275 117t-79 176q0 32 5 60.5t8.5 41t12.5 34.5q-27 -32 -44 -74q-15 -41 -15 -87zM229 950q0 -81 56.5 -133t177.5 -82v434 q-116 -12 -175 -66.5t-59 -152.5zM528 74q121 12 189.5 69.5t68.5 141.5q0 86 -62 138.5t-196 76.5v-426zM618 1198q83 -23 135 -51t91 -70l-1 5l-7 67v14q-17 8 -38 14.5t-46 11.5q-45 9 -109 9h-25z" />
<glyph unicode="%" horiz-adv-x="1645" d="M78 913q0 145 99.5 241.5t250.5 96.5q137 0 226 -95.5t89 -242.5q0 -148 -98 -243t-248 -95q-138 0 -228.5 95.5t-90.5 242.5zM121 922q0 -123 62.5 -208t162.5 -100q-81 53 -122.5 136t-41.5 190q0 68 21 127t65 113q-68 -36 -107.5 -105.5t-39.5 -152.5zM244 973 q0 -149 54.5 -249.5t131.5 -100.5q66 0 104.5 60.5t38.5 166.5q0 152 -53 250t-131 98q-66 0 -105.5 -59.5t-39.5 -165.5zM256 -125l4 9l10 16l940 1343q12 18 23 26q10 5 22 7h31q10 0 15.5 -3.5t5.5 -8.5l-4 -9l-11 -16l-940 -1343q-12 -17 -23 -26q-8 -5 -22 -7h-31 q-6 0 -13 3.5t-7 8.5zM469 1212q67 -46 106 -137.5t39 -208.5q0 -80 -21 -139t-63 -94q62 13 104 87t42 173q0 135 -58 224q-30 47 -66 71t-83 24zM899 340q0 146 98 241t248 95q141 0 230.5 -95t89.5 -243q0 -144 -99 -241t-249 -97q-137 0 -227.5 96.5t-90.5 243.5z M942 346q0 -122 63 -207t162 -100q-78 51 -120.5 135t-42.5 191q0 41 4 69t16 60q19 55 63 110q-66 -35 -105.5 -104t-39.5 -154zM1065 397q0 -148 54.5 -249t131.5 -101q66 0 105 60t39 167q0 150 -54 251.5t-131 101.5q-66 0 -105.5 -61t-39.5 -169zM1290 637 q68 -47 107 -138t39 -208q0 -81 -21.5 -139t-62.5 -93q61 15 103 87t42 171q0 136 -58 225q-30 47 -66 71t-83 24z" />
<glyph unicode="&#x26;" horiz-adv-x="1305" d="M70 287q0 129 70 226.5t212 166.5q-60 42 -88 91q-14 25 -21 51.5t-7 60.5q0 124 89 206t226 82q116 0 189 -61t73 -158q0 -63 -48 -111.5t-147 -84.5q67 -30 127.5 -103t131.5 -211q109 124 180 237t71 159q0 41 -45.5 73t-46.5 41q0 9 8 16q8 5 21 7l16 -3l23 -9 l96 -48q22 -9 33 -22q12 -11 12 -23q0 -27 -95.5 -167.5t-240.5 -323.5q90 -156 129 -198t76 -42q43 0 94.5 55.5t63.5 55.5q8 0 12 -6.5t6 -20.5q0 -15 -15 -43.5t-58 -85.5q-59 -76 -102.5 -106.5t-92.5 -30.5q-58 0 -108.5 54.5t-129.5 213.5q-112 -133 -216 -201 q-51 -33 -100 -50t-97 -17q-133 0 -217 92t-84 238zM111 295q0 -117 77 -202t185 -85q55 0 99 17q46 16 85 51q-38 -12 -67 -18l-52 -5q-111 0 -191.5 91.5t-80.5 220.5q0 31 2 44t9 39q11 42 34 95q-46 -41 -73 -107.5t-27 -140.5zM250 408q0 -114 75 -199.5t171 -85.5 q59 0 117.5 37.5t136.5 124.5q-97 192 -169.5 263t-177.5 99q-71 -32 -112 -95.5t-41 -143.5zM281 903q0 -43 12 -77t39 -64q42 -46 137 -88t119 -62q67 -53 214 -321l44 -80l14 -27q98 -176 170 -176q34 0 60 17q26 19 45 53l-26 -6l-26 -2q-37 0 -70 24q-30 24 -71 91.5 t-131 237t-156 228.5q-40 38 -151 83q-106 41 -146 81q-31 31 -45 71t-14 99q-5 -11 -8.5 -21.5t-5.5 -17.5zM350 985q0 -68 48.5 -115.5t160.5 -87.5q39 39 57.5 76t18.5 74q0 68 -51 120t-119 52q-54 0 -84.5 -31t-30.5 -88zM537 1124q70 -32 105.5 -80t35.5 -108 q0 -38 -13 -71t-40 -62q54 10 86 50t32 99q0 74 -56.5 123t-141.5 49h-8z" />
<glyph unicode="'" horiz-adv-x="342" d="M94 1339v29q0 47 18.5 70.5t57.5 23.5q36 0 57 -24.5t21 -69.5l-1 -16l-3 -28l-60 -454h-28l-60 454z" />
<glyph unicode="(" horiz-adv-x="702" d="M150 406q0 215 71 399.5t234 386.5q61 75 102 113t59 38q8 0 13.5 -5t5.5 -13q0 -11 -42 -64q-42 -49 -69 -96q-80 -139 -117.5 -312t-37.5 -447q0 -272 36 -445t119 -313q27 -45 69 -96t42 -64q0 -7 -4.5 -11.5t-14.5 -6.5q-17 0 -60 39t-101 110q-162 198 -233.5 385 t-71.5 402zM199 406q0 -190 52.5 -356t156.5 -300q-59 125 -90 288t-31 368q0 202 30 365.5t91 289.5q-103 -132 -156 -300t-53 -355z" />
<glyph unicode=")" horiz-adv-x="702" d="M68 -512q0 11 42 64q20 23 38 49q15 21 30 47q80 137 117 307t37 451q0 279 -36 450.5t-118 308.5q-13 24 -29 47t-39 49q-42 51 -42 64q0 8 4 12t14 6q18 0 60 -39t102 -112q159 -197 232 -384.5t73 -401.5t-72.5 -401.5t-232.5 -385.5q-58 -72 -100.5 -110.5 t-61.5 -38.5q-8 0 -12 4t-6 14zM295 -250q102 135 155.5 301.5t53.5 354.5q0 94 -13 181.5t-40 171.5q-52 163 -156 302q59 -125 90 -288t31 -367q0 -203 -30 -366.5t-91 -289.5z" />
<glyph unicode="*" horiz-adv-x="909" d="M133 829q0 22 20.5 39.5t61.5 28.5l22 5q102 23 177 77q-67 44 -174 75t-107 79q0 23 16.5 40t38.5 17q31 0 100.5 -71t145.5 -105l1 20l1 19q0 69 -20 139l-19 84q0 30 15.5 48.5t44.5 18.5q25 0 41 -19t16 -52l-20 -78q-9 -37 -14 -73t-5 -74v-33q70 29 142 101.5 t104 72.5q23 0 40 -17.5t17 -42.5q0 -21 -19.5 -37t-62.5 -28l-4 -1q-114 -26 -196 -83q68 -50 177 -76l23 -6q42 -11 62 -28.5t20 -41.5t-16 -40.5t-39 -16.5q-32 0 -103 70.5t-145 103.5v-16v-29q0 -67 19 -137l20 -76q0 -33 -16 -52.5t-43 -19.5q-26 0 -42 19t-16 49 q0 8 19.5 83t19.5 146v33q-72 -32 -144 -103t-104 -71q-24 0 -39.5 16.5t-15.5 42.5z" />
<glyph unicode="+" horiz-adv-x="1706" d="M254 569v82h559v570h80v-570h559v-82h-559v-569h-80v569h-559z" />
<glyph unicode="," horiz-adv-x="516" d="M45 -307q24 54 54 121q35 80 53 123q22 60 22 81q0 28 -13.5 49.5t-41.5 38.5v54q41 21 65.5 51t36.5 73l70 1q18 -45 45.5 -75.5t64.5 -47.5v-72q-82 -42 -154.5 -146.5t-135.5 -275.5zM182 141l37 -39l31 -36l38 44l27 27l-37 35l-28 37l-34 -37z" />
<glyph unicode="-" horiz-adv-x="653" d="M98 336q0 19 26 33l3 2l297 157q29 16 40.5 30t16.5 37l11 55q3 22 10.5 30t21.5 10q15 0 21 -9t6 -40l-2 -47l-2 -64v-31t4 -50l4 -54q0 -20 -29 -36l-297 -158q-25 -13 -41 -30q-12 -14 -16 -38l-10 -53q-3 -19 -11 -29t-22 -12q-14 0 -20.5 9.5t-6.5 35.5l2 41l2 72 v38q-3 29 -4 44zM160 230q3 6 9 13.5t14 13.5q13 10 50 32l273 143l-4 82l-342 -180v-104z" />
<glyph unicode="." horiz-adv-x="516" d="M117 106v54q41 21 65.5 51t36.5 73l70 1q18 -45 45.5 -75.5t64.5 -47.5v-72q-39 -16 -64 -42.5t-42 -67.5h-66q-8 37 -35 66.5t-75 59.5zM182 141l37 -39l31 -36l38 44l27 27l-37 35l-28 37l-34 -37z" />
<glyph unicode="/" horiz-adv-x="664" d="M-14 -166l1 8l1 5l528 1447l4 12q11 35 43 35h31q13 0 19.5 -5t9.5 -17l-1 -8l-1 -4l-529 -1451l-3 -8q-12 -38 -44 -38h-31q-12 0 -19.5 6t-8.5 18z" />
<glyph unicode="0" d="M90 606q0 293 121.5 480.5t304.5 187.5q186 0 306 -174.5t120 -454.5q0 -295 -121 -482.5t-305 -187.5q-186 0 -306 175t-120 456zM137 606q0 -180 54 -317t155 -219q-71 113 -105 245.5t-34 292.5q0 176 33 318.5t100 249.5q-92 -60 -147.5 -214.5t-55.5 -355.5z M303 594q0 -287 52.5 -424t160.5 -137q105 0 159 149.5t54 442.5q0 306 -51.5 449t-161.5 143q-107 0 -160 -153.5t-53 -469.5zM672 66q83 59 129.5 217t46.5 385q0 172 -39 296.5t-117 204.5q41 -84 61.5 -214t20.5 -316q0 -102 -6 -185t-20 -158q-25 -144 -76 -230z" />
<glyph unicode="1" d="M250 23q0 33 58 33q14 0 26.5 2t20.5 4q42 16 59 48q16 34 16 128v684q0 101 -11 126q-9 27 -36 27q-10 0 -20 -2t-31 -9q-36 -11 -53 -11q-6 0 -10.5 6t-6.5 18q0 18 87 56l71 30q63 29 127.5 70t73.5 41q6 0 12 -6t6 -15l-11 -77q-4 -32 -7 -71.5t-3 -70.5v-796 q0 -96 15.5 -127t61.5 -50l46 -5q60 0 60 -33q0 -13 -9 -22q-11 -7 -26 -7l-33 1q-50 0 -80 1q-121 4 -129 4q-40 0 -114 -2.5t-94 -2.5l-33 -1q-17 0 -24 6t-9 23zM428 55l36 3l48 3l45 -3l35 -3q-24 22 -33.5 66.5t-9.5 150.5v652q0 13 2 51t2 49q0 34 5 80t7 67 q-25 -16 -63 -34l-70 -29q20 -17 30.5 -47.5t10.5 -89.5v-53v-646q0 -107 -9.5 -151.5t-35.5 -65.5z" />
<glyph unicode="2" d="M74 25q0 16 66 82q31 30 55.5 55t48.5 51q167 184 252.5 343.5t85.5 285.5q0 105 -70.5 173t-183.5 68q-47 0 -84.5 -15t-59.5 -44q-9 -12 -22 -41q-20 -45 -47 -45q-11 0 -17.5 7t-7.5 20l31 75q29 73 55 164q19 70 158 70q200 0 321 -99t121 -264q0 -179 -336 -568 l-108 -126h217q60 0 102.5 3t69.5 10q50 14 78 49l29 43q23 36 42 36q10 0 16 -4.5t7 -13.5q0 -17 -24 -70l-33 -77q-20 -55 -40 -134q-15 -69 -38 -69l-22 2q-74 8 -130 8h-424h-28t-34 -2h-9q-17 0 -27 6t-10 21zM182 51h553l29 103q-25 -8 -58 -13l-65 -4h-379zM195 1087 q26 19 61 28t84 9q126 0 206 -78q39 -39 59 -90t20 -116q0 -45 -18 -108t-54 -146q64 72 100.5 150t36.5 149q0 146 -101 234.5t-270 88.5h-20.5t-22.5 -2l-45 -6l-19 -60z" />
<glyph unicode="3" d="M147 41q0 94 11.5 137t34.5 43q15 0 27 -49l3 -14q13 -62 42.5 -82.5t92.5 -20.5q139 0 225.5 84t86.5 223q0 128 -69.5 204.5t-186.5 76.5l-43 -3l-31 -3q-17 0 -24 8t-7 25q0 15 38 25l35 9q109 36 160.5 89.5t51.5 126.5q0 81 -46 127.5t-128 46.5t-144 -54l-63 -53 q-11 0 -17 6t-8 19q0 9 34 62q15 22 29 49t23 50l9 24q18 52 27 60t43 13l93 4q151 0 235.5 -66.5t84.5 -187.5q0 -67 -33.5 -124.5t-103.5 -109.5q102 -37 159.5 -126.5t57.5 -210.5q0 -203 -150 -339.5t-377 -136.5q-88 0 -130 17t-42 51zM295 1106q24 14 58 21.5t71 7.5 q92 0 151.5 -53.5t59.5 -137.5q0 -18 -6 -39l-18 -48q33 23 51 58.5t18 81.5q0 97 -70.5 155t-191.5 58h-19t-22 -2l-37 -6l-20 -50zM459 684q116 -16 187 -101.5t71 -211.5q0 -46 -10 -89q-5 -23 -11.5 -43t-17.5 -44q42 44 63 98.5t21 128.5q0 118 -49 197.5t-147 121.5 l-3 -1q-55 -34 -104 -56z" />
<glyph unicode="4" d="M31 436q0 14 165 199q43 48 106 120q69 79 101 116q26 31 95 112q38 45 77 95q36 45 76 98q74 97 80 98q21 0 32.5 -4.5t12.5 -14.5l-10 -79q-4 -32 -7 -71.5t-3 -70.5v-563q44 0 76.5 16t62.5 50l22 32q19 31 33 31q10 0 16.5 -6.5t6.5 -20.5q0 -13 -10 -47t-25 -65 l-2 -5q-30 -65 -66 -65l-15 1q-57 5 -99 5v-157q0 -93 12 -127t48 -52l31 -4q52 0 52 -34q0 -15 -7 -22t-26 -7l-15 1q-37 0 -104.5 2.5t-84.5 2.5q-43 0 -117 -2.5t-90 -2.5l-25 -1q-22 0 -32 6.5t-11 22.5q0 33 60 33q33 0 47 5q42 17 58.5 51t16.5 128v157h-336 q-76 0 -147 -10l-18 -2l-9 3l-10 13l-14 21l-3 7zM137 471h432v494q-127 -157 -229 -274q-56 -64 -101 -113q-51 -55 -102 -107zM569 55l27 3l55 3l45 -3l35 -3q-23 23 -33 69t-10 148v838l-76 -96v-742q0 -107 -9.5 -150t-33.5 -67z" />
<glyph unicode="5" d="M129 172q0 14 6.5 20.5t22.5 8.5q20 0 36 -47l7 -19q15 -40 55 -61q41 -19 104 -19q152 0 237 87t85 239q0 144 -88 227.5t-240 83.5q-13 0 -28 -1t-34 -4q-38 -3 -81 -13l-25 22q6 13 20 54.5t15 44.5q16 49 37 135l66 270l1 7q11 44 46 44h346h15h13q42 0 69 3t42 12 q15 6 32 31.5t30 25.5q9 0 14.5 -5t7.5 -13l-18 -57l-29 -89l-10 -30q-23 -76 -60 -76h-481l-34 -146q124 0 223 -31t176 -93q151 -121 151 -314q0 -227 -165.5 -359.5t-452.5 -132.5q-39 0 -53.5 10.5t-26.5 43.5q-5 15 -10.5 34.5t-12.5 46.5q-4 21 -6 35t-2 25zM264 737 l11 1l65 3q176 0 280.5 -92.5t104.5 -251.5q0 -20 -0.5 -43.5t-8 -65t-24.5 -83.5q46 41 75.5 105t29.5 124q0 160 -131.5 273.5t-317.5 113.5l-54 -6q-7 0 -11 -2zM354 1100h465l21 71h-463z" />
<glyph unicode="6" d="M109 428q0 168 98 342.5t299 366.5l30 29q90 85 142 85h76q16 0 23.5 -5.5t8.5 -20.5q0 -17 -68.5 -37t-115.5 -55q-84 -64 -152.5 -188t-101.5 -279l242 108l65 26l31 7q21 0 56 -22t67 -56q60 -63 93.5 -145.5t33.5 -167.5t-32.5 -165t-93.5 -144t-140.5 -98 t-165.5 -34q-178 0 -286.5 123.5t-108.5 329.5zM156 418q0 -168 90 -284q46 -57 102.5 -87.5t122.5 -30.5q-118 62 -176.5 171t-58.5 266q0 105 33 224.5t102 256.5q-103 -109 -159 -243.5t-56 -272.5zM317 436q0 -95 16 -164.5t52 -125.5q68 -105 184 -105q90 0 136.5 70.5 t46.5 205.5q0 117 -59 211.5t-173 159.5l-180 -82q-3 -28 -5 -43t-9 -48q-9 -57 -9 -79zM571 711q109 -66 168.5 -165t59.5 -214q0 -66 -12 -118.5t-37 -96.5q54 39 84 105.5t30 152.5q0 120 -56.5 218.5t-158.5 154.5z" />
<glyph unicode="7" d="M147 1032q0 8 29.5 50t52.5 81l49 91q30 58 44 59q14 0 21 -7q6 -4 7 -16l-1 -5l-3 -11l-8 -23h500q20 0 41 1t43 4l45 6q14 0 21 -7q6 -4 7 -16l-99 -153q-35 -53 -65 -102q-21 -34 -66 -108q-68 -112 -69 -114q-96 -163 -179 -335q-79 -165 -144 -333l-17 -44 q-29 -77 -47 -77q-41 0 -72.5 15t-31.5 35q0 28 161.5 308t434.5 722h-520q-45 0 -77 -23l-34 -22q-9 0 -15.5 6.5t-7.5 17.5zM248 1100h583l41 71h-579z" />
<glyph unicode="8" d="M147 281q0 104 63.5 189.5t190.5 147.5q-102 72 -150 151t-48 175q0 144 93 237t241 93q67 0 118.5 -19t95.5 -61q85 -80 85 -203q0 -93 -49 -161t-152 -117q132 -88 193 -180.5t61 -208.5q0 -146 -116.5 -247.5t-289.5 -101.5q-150 0 -243 84t-93 222zM242 289 q0 -110 71.5 -182t180.5 -72q100 0 167.5 63.5t67.5 159.5q0 95 -66 169.5t-233 160.5q-95 -69 -141.5 -142t-46.5 -157zM244 944q0 -77 48 -153.5t140 -137.5l72 -47q268 -175 268 -332q0 -50 -12 -88.5t-43 -81.5q48 18 75 69t27 126q0 46 -11 86q-5 20 -13 41t-19 41 q-46 84 -252 216l-65 42q-89 59 -134.5 135t-45.5 170l1 24l6 43q-20 -23 -32 -64q-4 -17 -7 -40.5t-3 -48.5zM338 1036q0 -78 57.5 -146.5t198.5 -156.5q82 59 121 120t39 132q0 100 -63 166t-161 66q-83 0 -137.5 -51.5t-54.5 -129.5z" />
<glyph unicode="9" d="M88 864q0 77 31.5 146t97.5 137q57 59 142 93q42 16 86.5 25t89.5 9q173 0 271.5 -104t98.5 -285q0 -161 -94 -376t-262 -433l-3 -4q-66 -84 -204 -84q-24 0 -32 5t-9 21q0 23 61.5 36t94.5 36q82 56 154 216t96 357l-234 -157l-28 -16q-8 -3 -23 -5q-28 0 -79.5 24 t-102.5 64q-71 56 -111.5 133.5t-40.5 161.5zM135 881q0 -119 72 -210.5t209 -146.5l57 41q-137 72 -204.5 162.5t-67.5 206.5q0 23 2 42.5t8 46.5q11 49 35 99q-57 -48 -84 -106t-27 -135zM262 977q0 -108 71.5 -200t215.5 -165l160 105l1 26l1 41q0 194 -70 303t-190 109 q-77 0 -133 -63.5t-56 -155.5zM537 1225q112 -44 165.5 -151.5t53.5 -289.5q0 -101 -13 -189.5t-41 -174.5q61 105 95 219q16 55 24 108.5t8 110.5q0 166 -77.5 266.5t-206.5 100.5h-8z" />
<glyph unicode=":" horiz-adv-x="563" d="M141 106v54q41 21 66 51t37 74h69q20 -47 46 -75.5t65 -47.5v-72q-39 -16 -64.5 -42.5t-42.5 -67.5h-65q-9 36 -36 66q-25 30 -75 60zM141 608v54q41 21 66 51t37 73h69q19 -46 45.5 -76t65.5 -48v-70q-37 -15 -63 -42.5t-44 -68.5l-65 1q-9 35 -37 67t-74 59zM207 141 l32 -35l33 -40l34 38l34 33l-37 35l-29 37l-33 -37zM207 641l35 -38l30 -36l30 34l38 36l-37 35l-29 37l-33 -37z" />
<glyph unicode=";" horiz-adv-x="563" d="M68 -307q82 181 105.5 241.5t23.5 83.5q0 28 -13.5 49t-42.5 39v54q41 21 66 51t37 74h69q18 -44 45 -76q26 -27 64 -47v-72q-82 -42 -152.5 -145.5t-136.5 -276.5zM141 608v54q41 21 66 51t37 73h69q19 -46 46 -77q24 -28 63 -47v-70q-37 -16 -63 -43.5t-42 -67.5l-65 1 q-9 35 -37 67t-74 59zM207 141l32 -35l33 -40l34 38l34 33l-37 35l-29 37l-33 -37zM207 641l35 -38l30 -36l30 34l38 36l-37 35l-29 37l-33 -37z" />
<glyph unicode="&#x3c;" horiz-adv-x="1706" d="M264 580v61l1178 483v-90l-1045 -424l1045 -424v-88z" />
<glyph unicode="=" horiz-adv-x="1706" d="M254 387v82h1198v-82h-1198zM254 752v79h1198v-79h-1198z" />
<glyph unicode="&#x3e;" horiz-adv-x="1706" d="M264 98v88l1045 424l-1045 424v90l1178 -483v-61z" />
<glyph unicode="?" horiz-adv-x="952" d="M193 106v54q38 20 64 50.5t38 73.5l70 1q18 -45 45.5 -75.5t64.5 -47.5v-72q-39 -16 -64 -42.5t-42 -67.5h-66q-9 36 -36 66.5t-74 59.5zM213 1126v86q0 52 4.5 68.5t18.5 24.5q26 13 95 24.5t138 11.5q174 0 276.5 -88.5t102.5 -236.5q0 -121 -67.5 -206t-206.5 -140 l-34 -13q-66 -24 -75 -47q-1 -2 -5 -21t-6 -30q-3 -32 -3 -80v-37l-81 -37l-89 -32l-11 8q0 34 1.5 72t2.5 62q0 26 3.5 53.5t9.5 56.5l12 14q177 45 259.5 131.5t82.5 226.5q0 132 -55 211.5t-146 79.5q-64 0 -103 -27q-36 -27 -54 -87l-8 -49q-5 -48 -29 -48q-18 0 -26 11 q-7 14 -7 38zM258 141l37 -39l31 -36l39 45l26 26l-37 35l-28 37l-34 -37zM324 436l59 25l4 50l2 56v41l-57 -14l-6 -55l-2 -64v-39zM528 698q108 24 166 104t58 206q0 125 -59 203q-31 41 -70 63t-88 22q66 -29 105.5 -107t39.5 -183q0 -104 -37.5 -179.5t-114.5 -128.5z " />
<glyph unicode="@" horiz-adv-x="2019" d="M150 537q0 204 84.5 378.5t250.5 313.5q66 54 138.5 95.5t151.5 69.5q160 56 339 56q345 0 551.5 -186.5t206.5 -497.5q0 -156 -57.5 -295.5t-163.5 -234.5q-58 -52 -124 -83q-33 -14 -63.5 -21t-64.5 -7q-96 0 -148 55q-27 28 -42 69t-15 95q-58 -108 -137.5 -162.5 t-179.5 -54.5q-114 0 -187.5 92.5t-73.5 239.5q0 106 48.5 214t136.5 193q63 63 142 100.5t151 37.5q83 0 139 -51t80 -150l57 184h121l-168 -604l-2 -6q-18 -68 -18 -103q0 -51 27 -80.5t77 -29.5t108.5 28.5t112.5 79.5q97 91 151 223t54 273q0 290 -194.5 466.5 t-516.5 176.5q-175 0 -327 -57.5t-271 -167.5q-137 -127 -206.5 -299t-69.5 -383q0 -175 55 -301t178 -232q115 -101 266.5 -155t321.5 -54q172 0 331 54q81 27 151.5 64.5t140.5 90.5l26 -30q-73 -54 -149 -94.5t-160 -69.5q-163 -56 -340 -56q-192 0 -342.5 45.5 t-271.5 139.5q-151 115 -228 275t-77 356zM731 381q0 -99 44 -157t120 -58q65 0 129.5 45t124 135t93.5 198q16 53 25 103.5t9 95.5q0 97 -54.5 162.5t-131.5 65.5q-58 0 -103.5 -30t-95.5 -103q-73 -108 -116.5 -234.5t-43.5 -222.5z" />
<glyph unicode="A" horiz-adv-x="1284" d="M-29 25q0 30 43 36q17 0 30 5q75 30 174 262l28 63l329 754q10 22 18.5 46.5t22.5 63.5q29 88 56 88q24 0 58 -132.5t73 -229.5l254 -647l1 -4q93 -239 186 -265l18 -3q45 -6 45 -39q0 -16 -11 -24q-9 -9 -28 -9l-94 5q-38 0 -62 1q-94 4 -100 4q-33 0 -92 -2.5t-74 -2.5 l-92 -5q-21 0 -29 8t-8 31q0 17 10.5 24t50.5 13q54 6 79.5 25.5t25.5 53.5q0 39 -30 119l-65 174h-452l-47 -123q-8 -23 -14.5 -43.5t-14.5 -50.5q-4 -18 -7 -38t-3 -33q0 -42 23 -62q23 -17 80 -23q56 -9 59 -38q0 -18 -9.5 -27.5t-31.5 -9.5l-74 5l-113 5q-20 0 -44.5 -1 t-53.5 -4l-74 -5q-19 0 -30 8.5t-11 26.5zM365 508h399l-189 502zM604 1071l295 -795q25 -65 34 -100.5t9 -52.5l-3 -24l-11 -37l50 3l32 1l32 -1l49 -3q-37 35 -114 239l-6 16l-324 865z" />
<glyph unicode="B" horiz-adv-x="1280" d="M43 25q0 29 54 37l29 3q78 10 103 50t25 190v688q0 151 -24.5 189.5t-102.5 50.5l-31 4q-53 5 -53 37q0 17 10.5 26t32.5 9l101 -6q42 0 104.5 -2.5t68.5 -2.5q65 0 179.5 10.5t162.5 10.5q177 0 281 -84.5t104 -226.5q0 -118 -79 -195.5t-224 -101.5q196 -17 304 -106.5 t108 -233.5q0 -172 -124 -283t-322 -111q-65 0 -196 12q-46 0 -92 3.5t-97 7.5q-35 0 -98.5 -2.5t-80.5 -2.5l-102 -5q-20 0 -30.5 8.5t-10.5 26.5zM277 62h6l63 4l27 -1q16 0 35 -4l-21 152q-6 66 -6 121v710q0 33 1 48.5t7 46.5q10 51 25 96l-31 -1l-33 -1l-36 1l-37 1 q12 -21 18 -70t6 -207v-620q0 -155 -6 -206q-4 -47 -18 -70zM475 350q0 -28 1 -60t5.5 -83t16.5 -131q29 -8 51 -13t46 -8.5t41.5 -5.5t33.5 -2q129 0 214 88t85 221q0 147 -106 232.5t-290 85.5h-21t-26 -2q-11 0 -24.5 -1t-26.5 -4v-317zM475 733l41 -3l55 -1 q147 0 222 66t75 194q0 121 -69.5 192.5t-186.5 71.5q-85 0 -111 -41t-26 -215v-264zM764 1262q78 -45 118 -112.5t40 -154.5q0 -64 -23 -118.5t-74 -108.5q81 25 126.5 88t45.5 150q0 105 -64.5 176t-168.5 80zM820 33q65 0 115.5 24t90.5 69q72 84 72 234q0 132 -76 215 q-38 43 -87 65.5t-109 22.5q93 -43 144.5 -126t51.5 -187q0 -105 -52.5 -187t-149.5 -130z" />
<glyph unicode="C" horiz-adv-x="1417" d="M92 649q0 167 74.5 313t208.5 246q88 66 199 101q52 16 112 25t121 9q96 0 217 -35.5t150 -35.5q39 0 63 27.5t35 29.5q13 0 21 -8q9 -6 10 -16l-4 -15q-21 -78 -21 -174q0 -32 3 -67t10 -76l3 -25q0 -15 -8 -25t-22 -10q-24 0 -44 57l-12 34q-46 132 -142 196t-247 64 q-206 0 -339.5 -165t-133.5 -427q0 -283 142.5 -460t369.5 -177q127 0 207 52t133 171l29 82q21 70 45 70q16 0 27.5 -8t11.5 -19l-26 -119q-25 -119 -25 -225v-27q0 -13 -6.5 -19.5t-20.5 -6.5l-30 4l-36 4q-18 0 -138 -18q-59 -9 -112.5 -14t-103.5 -5q-144 0 -268 45 t-223 133q-112 100 -171 233t-59 281zM158 649q0 -225 127 -395.5t325 -212.5q-174 90 -270 247.5t-96 352.5q0 209 94.5 367.5t273.5 251.5q-200 -34 -327 -203t-127 -408z" />
<glyph unicode="D" horiz-adv-x="1597" d="M43 25q0 29 52 38l31 4q77 9 102.5 48t25.5 190v688q0 151 -24.5 189.5t-102.5 50.5l-31 4q-53 5 -53 37q0 16 10 24.5t33 8.5l102 -5l162 -4q2 0 71 5t101 5q46 0 92 3q123 8 129 8q354 0 557 -183.5t203 -502.5q0 -311 -186 -481t-529 -170q-33 0 -115.5 4.5 t-123.5 4.5q-61 0 -109 3.5t-84 5.5q-33 0 -94 -2.5t-77 -2.5l-101 -5q-20 0 -30.5 8.5t-10.5 26.5zM277 62l39 4l38 2q24 0 37 -2l35 -4q-23 51 -35 131q-4 35 -7 92t-3 123v479q0 142 10.5 219.5t34.5 128.5l-37 -1l-37 -1l-38 1l-37 1q12 -21 18 -70t6 -207v-620 q0 -155 -6 -206q-4 -47 -18 -70zM475 494q0 -170 9.5 -257.5t31 -121t70 -51t116.5 -17.5q240 0 397.5 168.5t157.5 427.5q0 267 -153.5 438.5t-392.5 171.5q-76 0 -125 -14t-70 -43q-19 -29 -31 -128q-4 -44 -7 -112.5t-3 -142.5v-319zM975 70q195 26 312.5 182t117.5 395 q0 223 -117.5 387.5t-304.5 204.5q166 -92 252 -245.5t86 -356.5q0 -192 -93 -345t-253 -222z" />
<glyph unicode="E" horiz-adv-x="1298" d="M43 25q0 29 52 38l31 4q77 9 102.5 48t25.5 190v688q0 151 -24.5 188.5t-102.5 49.5l-32 5q-50 6 -50 38q0 17 9 26t32 9l67 -1l93 -1h530q40 0 119 3t119 3l33 2l32 -6l10 -10l3 -7l-4 -25q-21 -120 -21 -241l2 -19l2 -34q0 -14 -9.5 -23.5t-23.5 -9.5q-24 0 -30 35.5 t-13 55.5q-37 107 -108 153.5t-195 46.5h-76q-84 0 -113 -44q-14 -22 -21 -69.5t-7 -124.5v-276q13 0 42 -1t46 -1h127q42 0 83.5 1t87.5 3q25 0 43.5 4.5t29.5 11.5q24 15 39 60t43 45q11 0 20 -9q6 -8 8 -24l-11 -89q-5 -37 -8 -80t-3 -83l2 -53l2 -35q0 -14 -9.5 -23.5 t-23.5 -9.5q-13 0 -22 7.5t-10 20.5l-5 38q-8 74 -30.5 97.5t-77 32.5t-176.5 9l-117 -1l-79 -1l-1 -293q0 -188 34.5 -232t135.5 -44q123 0 230.5 47t179.5 129q38 44 65.5 106t48.5 62q15 0 24 -7.5t11 -19.5q0 -19 -31 -119t-40 -186l-1 -8q0 -84 -57 -84l-15 1 q-41 5 -90 8t-100 3h-624q-38 0 -94 -6l-68 -6q-19 0 -31 9q-10 10 -10 28zM277 62l39 4l38 2q24 0 37 -2l35 -4q-23 51 -35 131q-4 35 -7 92t-3 123v479q0 142 10.5 219.5t34.5 128.5l-37 -2l-37 -2l-38 2l-37 2q12 -21 18 -70t6 -207v-620q0 -155 -6 -206q-4 -47 -18 -70z M858 1251q56 -22 90 -53q36 -30 61 -77q0 35 5 73q3 37 10 68zM877 61h192q2 27 4.5 50t8 52t5.5 31l7 21q-34 -49 -88.5 -86.5t-128.5 -67.5z" />
<glyph unicode="F" horiz-adv-x="1194" d="M43 25q0 29 52 38l31 4q77 9 102.5 48t25.5 190v688q0 151 -24.5 189.5t-102.5 50.5l-31 4q-51 5 -51 37q0 17 9 26t32 9l67 -1l93 -1h530q40 0 119 3t119 3l33 2l32 -6l10 -10l3 -7l-4 -25q-21 -120 -21 -241l2 -19l2 -34q0 -14 -9.5 -23.5t-23.5 -9.5q-26 0 -33 47 q-3 28 -10 46q-30 100 -104 149q-36 24 -86.5 37.5t-112.5 13.5h-76q-83 0 -112 -45t-29 -195v-296l89 -3h126h28h23h19h16h13q49 0 72 5q25 0 43.5 4.5t29.5 11.5q24 15 39 58.5t43 43.5q14 0 21 -7.5t7 -23.5l-11 -88q-5 -37 -8 -80t-3 -83v-24t2 -29l2 -36 q0 -14 -9.5 -23.5t-23.5 -10.5q-13 0 -21.5 8t-11.5 23l-4 36q-8 73 -30.5 96.5t-82.5 32.5q-26 4 -70.5 7t-96.5 3l-166 -3l-35 -1v-127q0 -258 19.5 -329t74.5 -90l53 -5q62 0 62 -38q0 -17 -9.5 -26t-31.5 -9l-101 5q-40 0 -103.5 2.5t-73.5 2.5q-35 0 -98.5 -2.5 t-80.5 -2.5l-102 -5q-20 0 -30.5 8.5t-10.5 26.5zM277 62l39 4l38 2q24 0 37 -2l35 -4q-23 51 -35 131q-4 35 -7 92t-3 123v479q0 142 10.5 219.5t34.5 128.5l-37 -1l-37 -1l-38 1l-37 1q12 -21 18 -70t6 -207v-620q0 -155 -6 -206q-4 -47 -18 -70zM858 1251q56 -22 90 -53 q36 -30 61 -77l7 77q3 30 3.5 34.5t6.5 28.5z" />
<glyph unicode="G" horiz-adv-x="1470" d="M94 649q0 167 73 313q36 74 87 135t119 111q88 65 197 101q52 16 111 25t118 9q97 0 218 -30.5t148 -30.5q45 0 71 29.5t36 29.5q13 0 21 -6.5t10 -15.5l-3 -12q-16 -72 -16 -148q0 -82 16 -168l5 -28q0 -19 -8 -28t-23 -9q-22 0 -43 58q-10 30 -14 40q-7 18 -15 33 q-60 112 -148 159.5t-235 47.5q-206 0 -339.5 -165t-133.5 -427q0 -280 141.5 -458.5t360.5 -178.5q126 0 174.5 33.5t48.5 124.5v92q0 146 -23 186.5t-87 52.5l-33 4q-51 0 -51 37q0 18 9.5 26.5t31.5 8.5l89 -7q27 0 79 -3.5t67 -3.5q84 0 173 12l17 2q10 0 19 -9 q6 -8 8 -22q0 -20 -28 -38l-11 -7q-29 -18 -42 -49.5t-13 -97.5v-117q0 -131 27 -224l4 -13q0 -11 -14 -22t-33 -11q-6 0 -20 1t-34 4l-63 5q-14 0 -116.5 -21.5t-182.5 -21.5q-108 0 -201 18t-158 52q-186 93 -288.5 256t-102.5 366zM158 649q0 -225 127 -395.5t325 -212.5 q-174 90 -270 247.5t-96 352.5q0 209 94.5 367.5t273.5 251.5q-200 -34 -327 -203t-127 -408zM1094 61h129q-12 21 -18 63q-5 47 -5 144v51q0 46 1 81t5.5 69t16.5 55h-127q11 -16 16.5 -62t5.5 -143v-51q0 -85 -6 -134t-18 -73z" />
<glyph unicode="H" horiz-adv-x="1706" d="M45 25q0 29 51 38l30 4q77 9 102.5 48t25.5 190v688q0 151 -24.5 189.5t-102.5 50.5l-31 4q-51 5 -51 37q0 17 9.5 25t31.5 8l100 -7q31 0 91 -3t88 -3q27 0 86 3t91 3l101 7q22 0 31.5 -7.5t9.5 -23.5q0 -38 -60 -38q-16 0 -29 -1t-23 -4q-48 -18 -71.5 -72t-23.5 -166 v-278h754v276q0 151 -24.5 189.5t-102.5 50.5l-31 4q-53 5 -53 37q0 15 10.5 24t32.5 9l100 -7q32 0 91 -3t87 -3t87 3t92 3l100 7q22 0 31.5 -7.5t9.5 -23.5q0 -38 -60 -38q-16 0 -29 -1t-23 -4q-55 -19 -76 -95.5t-21 -326.5v-324q0 -252 20.5 -325t75.5 -94l52 -5 q61 0 61 -38q0 -17 -9.5 -26t-31.5 -9l-100 5q-42 0 -68 1q-103 4 -111 4q-35 0 -98.5 -2.5t-80.5 -2.5l-101 -5q-20 0 -30.5 8.5t-10.5 26.5q0 29 52 38q17 0 32 5q77 9 102 47.5t25 189.5v322h-754v-324q0 -113 22.5 -165t71.5 -70l52 -5q61 0 61 -38q0 -17 -9.5 -26 t-31.5 -9l-101 5q-40 0 -103.5 2.5t-73.5 2.5q-40 0 -103 -2.5t-77 -2.5l-101 -5q-21 0 -30 8t-9 27zM277 62l39 4l38 2q24 0 37 -2l35 -4q-22 51 -33 126q-4 34 -7 92.5t-3 127.5v479q0 150 9.5 222.5t33.5 125.5l-37 -1l-37 -1l-38 1l-37 1q12 -21 18 -70t6 -207v-620 q0 -155 -6 -206q-4 -47 -18 -70zM1253 1235q12 -20 18 -64q5 -48 5 -153v-60v-679v-26v-21v-17v-14v-12q0 -44 -5 -64q-5 -45 -17 -63l39 4l38 2q24 0 37 -2l35 -4q-23 51 -35 131q-4 35 -7 92t-3 123v479q0 142 10.5 219.5t34.5 128.5l-37 -1l-37 -1l-39 1z" />
<glyph unicode="I" horiz-adv-x="729" d="M43 25q0 29 52 38l31 4q77 9 102.5 48t25.5 190v688q0 151 -24.5 189.5t-102.5 50.5l-31 4q-51 5 -51 37q0 17 9.5 25t31.5 8l100 -7q31 0 91 -3t88 -3q27 0 86 3t91 3l101 7q22 0 31.5 -7.5t9.5 -23.5q0 -38 -60 -38q-16 0 -29 -1t-23 -4q-54 -19 -74.5 -93t-20.5 -329 v-324q0 -258 19.5 -329t74.5 -90l52 -5q61 0 61 -38q0 -17 -9.5 -26t-31.5 -9l-101 5q-40 0 -103.5 2.5t-73.5 2.5q-40 0 -103 -2.5t-77 -2.5l-101 -5q-20 0 -30.5 8.5t-10.5 26.5zM277 62l39 4l38 2q24 0 37 -2l35 -4q-22 51 -33 126q-4 34 -7 92.5t-3 127.5v479 q0 150 9.5 222.5t33.5 125.5l-37 -1l-37 -1l-38 1l-37 1q12 -21 18 -70t6 -207v-620q0 -155 -6 -206q-4 -47 -18 -70z" />
<glyph unicode="J" horiz-adv-x="692" d="M23 1274q0 17 9.5 25t30.5 8l100 -7q31 0 91 -3t88 -3q27 0 86 3t91 3l102 7q22 0 31.5 -7.5t9.5 -23.5q0 -38 -60 -38q-16 0 -29.5 -1t-23.5 -4q-53 -19 -73.5 -93t-20.5 -329v-451q0 -144 35 -283l8 -38q0 -20 -63.5 -100t-184.5 -213l-33 -36q-122 -136 -151 -136 q-12 0 -19.5 7.5t-7.5 20.5q0 9 44 62q21 25 38.5 51t32.5 57q41 92 60 240t19 454v547q0 143 -24.5 185.5t-104.5 54.5l-30 4q-51 5 -51 37zM233 -166l95 123l57 78q-10 50 -20 161q0 35 -2 82q-5 117 -5 162v447q0 139 11 217.5t34 130.5l-37 -1l-36 -1l-38 1l-35 1 q11 -20 19 -90q3 -33 5 -79.5t2 -107.5v-485q0 -306 -12 -434q0 -57 -10.5 -108t-27.5 -97z" />
<glyph unicode="K" horiz-adv-x="1411" d="M43 25q0 29 52 38l31 4q77 9 102.5 48t25.5 190v688q0 151 -24.5 189.5t-102.5 50.5l-31 4q-53 5 -53 37q0 16 10 24.5t33 8.5l100 -7q31 0 91 -3t88 -3q40 0 61 1q103 5 106 5l89 7q19 0 27 -8q9 -6 9 -23q0 -38 -52 -38q-32 0 -46 -5q-46 -18 -64 -91t-18 -331v-129 l420 377q63 55 88 85.5t25 47.5q0 26 -56.5 41t-56.5 39q0 17 9.5 26t33.5 9l91 -7q37 0 65 -2t67 -4q45 0 105 6l73 7q23 0 32 -8q9 -6 9 -25q0 -24 -59 -39l-8 -2q-76 -15 -156.5 -60t-169.5 -122l-262 -230l416 -555q83 -111 130 -152q44 -38 90 -46l36 -6q49 -6 49 -31 q0 -21 -10.5 -31t-32.5 -10l-88 5q-36 0 -97 2.5t-73 2.5q-40 0 -101 -2.5t-70 -2.5l-85 -5q-20 0 -30.5 8.5t-10.5 26.5q0 12 4.5 20.5t11.5 11.5l31 8q57 12 57 39q0 25 -18 61t-55 85l-320 420l-84 -74v-109q0 -258 19.5 -329t74.5 -90l52 -5q61 0 61 -38q0 -17 -9.5 -26 t-31.5 -9l-101 5q-40 0 -103.5 2.5t-73.5 2.5q-40 0 -103 -2.5t-77 -2.5l-101 -5q-20 0 -30.5 8.5t-10.5 26.5zM277 62l39 4l38 2q24 0 37 -2l35 -4q-22 51 -33 126q-4 34 -7 92.5t-3 127.5v479q0 150 9.5 222.5t33.5 125.5l-37 -1l-37 -1l-38 1l-37 1q12 -21 18 -70t6 -207 v-620q0 -155 -6 -206q-4 -47 -18 -70zM598 705l309 -410q68 -90 87 -129q20 -37 20 -66l-2 -20l-6 -18l54 4l50 2h21.5t23.5 -2q18 0 41 -5l-70 80l-77 101l-392 518z" />
<glyph unicode="L" horiz-adv-x="1192" d="M43 25q0 29 54 37l29 3q78 10 103 50t25 190v688q0 152 -25 190q-23 38 -102 50l-31 4q-53 5 -53 37q0 17 9.5 25t31.5 8l101 -7q31 0 91 -3t89 -3q27 0 86 3t91 3l101 7q22 0 31.5 -7.5t9.5 -23.5q0 -38 -61 -38q-16 0 -29.5 -1t-23.5 -4q-54 -19 -74.5 -93t-20.5 -329 v-408v-59q0 -184 33.5 -226t138.5 -42q114 0 208 42t167 130q36 43 63 103.5t48 60.5q12 0 22 -7.5t12 -19.5q0 -19 -31 -119t-40 -186l-1 -3q0 -87 -59 -87l-15 1q-89 9 -187 9h-588q-19 0 -43 -1t-51 -4l-68 -5q-20 0 -30.5 8.5t-10.5 26.5zM277 62l29 3l48 1l45 -1l27 -3 q-23 51 -35 131q-4 35 -7 92t-3 123v479q0 142 10.5 219.5t34.5 128.5l-37 -1l-37 -1l-38 1l-37 1q12 -21 18 -70t6 -207v-620q0 -155 -6 -206q-4 -47 -18 -70zM840 66h190q2 21 3.5 37t7.5 46q6 39 16 66q-34 -48 -90 -87q-51 -34 -127 -62z" />
<glyph unicode="M" horiz-adv-x="1939" d="M45 25q0 38 63 38q16 0 29 1t23 4q53 18 73.5 91.5t20.5 325.5v508q0 151 -24.5 189.5t-102.5 50.5l-31 4q-51 5 -51 37q0 17 9.5 25t31.5 8l100 -7q31 0 91 -3t88 -3q25 0 79 3t85 3l94 7q21 0 25 -4t5 -15q0 -10 -31.5 -39t-31.5 -67q0 -19 1 -29t8 -38.5t22 -57.5 l247 -527l58 -116l57 -109l369 782q15 34 24 64q4 16 6 28t2 25q0 27 -27.5 48.5t-27.5 29.5q0 13 6 19t29 6l78 -7q24 0 74 -3t75 -3q24 0 78 3t85 3l101 7q23 0 32 -8q9 -6 9 -23q0 -38 -59 -38q-16 0 -29.5 -1t-23.5 -4q-55 -19 -75.5 -95.5t-20.5 -326.5v-324 q0 -252 19.5 -325t75.5 -94l53 -5q60 0 60 -38q0 -17 -9.5 -26t-31.5 -9l-100 5q-39 0 -102.5 2.5t-75.5 2.5q-40 0 -103 -2.5t-77 -2.5l-101 -5q-19 0 -30 8.5t-11 26.5q0 29 51 38q15 0 32 5q77 9 102.5 48.5t25.5 188.5v873l-516 -1115q-33 -69 -51 -69q-19 0 -46 57 l-7 14l-524 1100v-678q0 -255 22 -326.5t86 -92.5l61 -5q72 0 72 -38q0 -17 -12.5 -26t-36.5 -9l-88 5q-33 0 -83 2.5t-58 2.5q-28 0 -58 -1t-64 -4l-77 -5q-20 0 -30.5 8.5t-10.5 26.5zM324 1235q15 -19 31 -44.5t33.5 -57t35.5 -66t37 -74.5l430 -901l47 109l-53 97 l-33 63l-305 638q-24 50 -40 99q-13 49 -13 80q0 11 2 22t3 18l3 17l-45 -1l-43 -1l-46 1zM1489 62l39 4l39 2q24 0 36 -2l35 -4q-23 51 -35 131q-4 35 -7 92t-3 123v479q0 142 10.5 219.5t34.5 128.5l-37 -1l-36 -1l-39 1l-37 1q11 -18 16.5 -65t5.5 -152v-60v-679v-26v-21 v-17v-14v-12q0 -44 -5 -64q-5 -45 -17 -63z" />
<glyph unicode="N" horiz-adv-x="1651" d="M45 25q0 33 57 39q17 0 31 2.5t27 7.5q53 15 73.5 87t20.5 324v508q0 157 -21.5 192.5t-85.5 47.5l-27 4q-44 5 -44 37q0 17 8 25t27 8l64 -6l95 -5q89 0 176 9l19 2q25 0 93 -84l56 -68q180 -210 678 -708l47 -48v412q0 257 -22 327.5t-87 94.5l-57 4q-73 0 -73 39 q0 15 11 23t36 8l89 -6l140 -5h13h12q22 0 45.5 1t48.5 4l80 6q22 0 31.5 -7.5t9.5 -23.5q0 -38 -62 -38q-16 0 -29.5 -1t-23.5 -4q-53 -19 -73.5 -92.5t-20.5 -325.5v-782q0 -34 -7.5 -49.5t-23.5 -16.5q-20 0 -37 39l-12 29q-30 57 -71.5 113.5t-118.5 139.5l-295 304 q-284 293 -520 573v-678q0 -254 22.5 -325.5t85.5 -87.5q20 -5 76.5 -10.5t56.5 -38.5q0 -17 -12.5 -26t-36.5 -9l-88 5q-33 0 -83 2.5t-58 2.5q-28 0 -58 -1t-64 -4l-77 -5q-20 0 -30.5 8.5t-10.5 26.5zM326 1235q260 -305 612.5 -669.5t400.5 -448.5v176 q-354 345 -583.5 590t-311.5 364l-47 -11l-41 -3l-15 1z" />
<glyph unicode="O" horiz-adv-x="1616" d="M96 649q0 70 13 137t40 131q53 129 151.5 227t228.5 148.5t280 50.5q149 0 280.5 -51t233.5 -149q98 -95 148.5 -220t50.5 -276q0 -142 -52.5 -268.5t-152 -225t-228 -147.5t-280.5 -49q-78 0 -148 12t-137 38q-129 50 -233 149q-95 92 -146 217q-23 60 -36 131t-13 145z M158 649q0 -228 120.5 -391t335.5 -223q-185 101 -278.5 260t-93.5 375q0 84 15 159.5t47 147.5q62 142 179 246q-144 -66 -234.5 -225.5t-90.5 -348.5zM334 752q0 -124 30 -242t87 -211q78 -129 176 -195.5t211 -66.5q183 0 309.5 163.5t126.5 411.5q0 115 -34 224 q-17 56 -41.5 106.5t-59.5 101.5q-77 115 -170 172.5t-207 57.5q-190 0 -309 -144.5t-119 -377.5zM969 1274q168 -85 267 -266t99 -400q0 -137 -43 -257t-131 -230q120 70 187 201.5t67 300.5q0 251 -126.5 435.5t-319.5 215.5z" />
<glyph unicode="P" horiz-adv-x="1270" d="M43 25q0 29 54 37l29 3q78 10 103 50t25 190v688q0 151 -24.5 189.5t-102.5 50.5l-31 4q-53 5 -53 37q0 16 10 24.5t33 8.5l102 -5l172 -4q57 0 180 10.5t189 10.5q218 0 346.5 -110.5t128.5 -299.5q0 -219 -173.5 -338.5t-493.5 -119.5l-29 1l-31 1v-164 q0 -114 27 -162.5t98 -60.5l31 -4q51 0 51 -37q0 -17 -9.5 -26t-31.5 -9l-101 5q-40 0 -103.5 2.5t-73.5 2.5q-40 0 -103 -2.5t-77 -2.5l-101 -5q-20 0 -30.5 8.5t-10.5 26.5zM277 62l26 3l43 1l38 -1l23 -3l-20 151q-6 66 -6 121v710q0 33 1 48.5t7 46.5q10 51 25 96 l-31 -1l-33 -1l-36 1l-37 1q12 -21 18 -70t6 -207v-620q0 -155 -6 -206q-4 -47 -18 -70zM475 520h17q230 0 346 90t116 273q0 162 -98 263t-258 101q-70 0 -96.5 -46t-26.5 -204v-477zM752 1262q126 -43 196 -140t70 -235q0 -118 -48.5 -200t-150.5 -136q128 20 204.5 118 t76.5 242q0 149 -94 243q-51 51 -109 78q-66 30 -145 30z" />
<glyph unicode="Q" horiz-adv-x="1616" d="M96 649q0 144 52 270.5t151.5 224.5t229.5 148.5t280 50.5q149 0 280.5 -51t233.5 -149q98 -95 148.5 -220t50.5 -276q0 -230 -128 -407t-354 -252q47 -182 134 -302t206 -169q47 -18 106.5 -26.5t59.5 -33.5q0 -20 -23.5 -31.5t-72.5 -11.5q-226 0 -389.5 135.5 t-267.5 407.5q-157 0 -284 52.5t-226 150.5q-187 187 -187 489zM158 649q0 -228 120.5 -391t335.5 -223q-185 101 -278.5 260t-93.5 375q0 84 15 159.5t47 147.5q62 142 179 246q-144 -66 -234.5 -225.5t-90.5 -348.5zM334 752q0 -124 30 -242t87 -211q78 -129 176 -195.5 t211 -66.5q183 0 309.5 163.5t126.5 411.5q0 115 -34 224q-17 56 -41.5 106.5t-59.5 101.5q-77 115 -170 172.5t-207 57.5q-190 0 -309 -144.5t-119 -377.5zM858 -41q54 -187 173.5 -316t258.5 -157q-128 89 -213 209t-127 272zM969 1274q168 -85 267 -266t99 -400 q0 -137 -43 -257t-131 -230q120 70 187 201.5t67 300.5q0 251 -126.5 435.5t-319.5 215.5z" />
<glyph unicode="R" horiz-adv-x="1352" d="M43 25q0 29 52 38l31 4q77 9 102.5 48t25.5 190v688q0 151 -24.5 189.5t-102.5 50.5l-31 4q-51 5 -51 37q0 17 9.5 25t31.5 8l101 -5l173 -4q68 0 179 10.5t153 10.5q188 0 301 -95.5t113 -254.5q0 -132 -81.5 -220t-229.5 -114q173 -216 297.5 -353.5t191.5 -183.5 q12 -8 52 -26q36 -14 36 -33q0 -21 -35 -36q-37 -13 -94 -13q-229 0 -664 574l-40 54h-64v-131q0 -257 18 -327.5t68 -91.5l46 -5q57 0 57 -38q0 -17 -9.5 -26t-27.5 -9l-93 5q-40 0 -64 1q-97 4 -105 4q-35 0 -98.5 -2.5t-80.5 -2.5l-102 -5q-20 0 -30.5 8.5t-10.5 26.5z M277 62l39 4l38 2q24 0 37 -2l35 -4q-23 51 -35 133q-4 36 -7 93.5t-3 119.5v636q0 33 1 48.5t7 46.5q10 51 25 96l-31 -1l-33 -1l-36 1l-37 1q12 -21 18 -70t6 -207v-620q0 -154 -6 -205q-4 -47 -18 -71zM475 682h94q148 0 229 76.5t81 214.5q0 124 -72 202t-186 78 q-90 0 -118 -44.5t-28 -235.5v-291zM612 618q214 -303 358.5 -442t239.5 -139l34 1q19 2 29 5q-86 15 -236.5 164.5t-336.5 410.5h-88zM760 672q119 21 183.5 96.5t64.5 196.5q0 108 -60 188t-160 104q72 -53 109 -126t37 -160q0 -97 -44 -172.5t-130 -126.5z" />
<glyph unicode="S" horiz-adv-x="1110" d="M84 424q0 10 10 19q9 6 25 8q17 0 35 -61l10 -34q54 -173 136 -249t208 -76q125 0 205 72.5t80 185.5q0 96 -62 166t-272 180q-320 168 -320 348q0 156 121.5 258t310.5 102q50 0 101 -7t101 -22l101 -28q25 0 51 27.5t38 27.5q6 0 13 -5.5t7 -12.5l-4 -27 q-18 -93 -18 -184q0 -52 6 -112l6 -62q0 -15 -6.5 -22t-22.5 -7q-24 0 -30 50q0 15 -2 28t-7 35q-24 127 -96.5 189.5t-194.5 62.5q-117 0 -186.5 -54.5t-69.5 -148.5q0 -131 243 -256l52 -27q208 -104 277 -197t69 -235q0 -173 -129.5 -286t-332.5 -113q-83 0 -169.5 27.5 t-93.5 27.5q-27 0 -53 -26.5t-43 -28.5q-13 0 -18.5 12t-5.5 45q0 119 -35 257t-35 153zM190 987q0 -91 59.5 -157.5t235.5 -153.5q210 -103 284.5 -185.5t74.5 -193.5q0 -68 -26 -121.5t-83 -112.5q80 21 132.5 103t52.5 186q0 99 -54 174t-176 144l-161 83q-94 47 -121 66 q-76 54 -105 100.5t-29 110.5q0 69 37.5 130t110.5 112q-104 -21 -168 -100t-64 -185z" />
<glyph unicode="T" horiz-adv-x="1323" d="M20 1034q0 13 38 112t38 167q0 24 8 32.5t27 8.5q6 0 15 -12.5t19 -20t32.5 -11t72.5 -3.5h95h49h637q178 0 246 40l6 3q6 0 17 -9.5t11 -17.5q0 -7 -33.5 -75t-54.5 -136l-10 -34q-21 -77 -45 -77q-15 0 -22.5 6t-8.5 21l8 39q9 36 9 68q0 56 -52 78q-25 10 -74 16 t-120 6h-162v-748q0 -258 19.5 -329t74.5 -90l52 -5q63 0 63 -38q0 -17 -9.5 -26t-31.5 -9l-102 5q-42 0 -68 1q-103 4 -111 4q-39 0 -101.5 -2.5t-76.5 -2.5l-100 -5q-20 0 -30.5 8.5t-10.5 26.5q0 29 52 38q15 0 32 5q77 9 102 47.5t25 189.5v930h-135q-125 0 -188.5 -23 t-96.5 -79q-5 -8 -11 -21q-12 -25 -21 -45q-24 -55 -52 -55q-7 0 -14 6t-7 16zM568 62l38 4l39 2q24 0 37 -2l34 -4q-22 53 -34 131q-4 35 -7 92t-3 123v827h-80v-897q0 -155 -6 -206q-4 -47 -18 -70z" />
<glyph unicode="U" horiz-adv-x="1608" d="M29 1274q0 17 9.5 25t31.5 8l99 -7q31 0 91 -3t88 -3q27 0 86 3t92 3l101 7q21 0 32 -8q11 -6 11 -23q0 -18 -14.5 -28.5t-44.5 -10.5q-20 0 -29.5 -1.5t-26.5 -6.5q-53 -16 -73.5 -90t-20.5 -328v-207q0 -292 96 -432.5t297 -140.5q99 0 187 36.5t144.5 103t81.5 158.5 t25 271v211q0 256 -22 326.5t-86 91.5l-62 7q-69 0 -69 40q0 15 11 23q6 4 14.5 6t23.5 2l89 -7q26 0 75 -3t71 -3q57 0 126 6l79 7q22 0 31.5 -7.5t9.5 -23.5q0 -33 -59 -39q-19 0 -30 -2t-25 -6q-54 -17 -74.5 -89t-20.5 -325v-203q0 -178 -19.5 -269.5t-66.5 -162.5 q-72 -106 -188.5 -164.5t-255.5 -58.5q-299 0 -452.5 156.5t-153.5 461.5v418q0 150 -24.5 188t-103.5 48l-33 6q-48 8 -48 39zM262 1235q11 -18 17 -63t6 -154v-60v-389q0 -214 80.5 -346.5t242.5 -183.5q-130 92 -186.5 213.5t-56.5 331.5v303q0 136 10.5 216.5 t34.5 131.5l-38 -3l-36 -3l-37 3z" />
<glyph unicode="V" horiz-adv-x="1352" d="M-47 1274q0 17 9.5 25t31.5 8l97 -7q43 0 78.5 -2t86.5 -4q23 0 75 3t82 3l95 7q22 0 31.5 -7.5t9.5 -23.5q0 -15 -6.5 -24.5t-30.5 -20.5q-60 -7 -81 -24q-21 -15 -21 -46q0 -20 10 -51q4 -15 14.5 -43t28.5 -72l285 -700l245 549q59 129 84 202.5t25 110.5 q0 35 -21.5 51.5t-79.5 22.5l-24 3q-59 8 -59 34q0 19 10 29t33 10q19 0 80 -6.5t108 -6.5q57 0 128 6l79 7q21 0 32 -8q11 -6 11 -23q0 -28 -44 -41l-15 -4q-56 -16 -92 -52q-32 -33 -85 -147l-372 -821q-12 -27 -28 -69.5t-31 -89.5q-27 -93 -54 -93q-26 0 -92 182.5 t-133 327.5l-234 518q-34 79 -63.5 127t-59.5 78q-17 18 -43.5 28.5t-64.5 10.5q-22 9 -28.5 18.5t-6.5 24.5zM127 1233q63 -70 175 -317l3 -7l236 -526l2 -5l123 -304l43 127l-355 821q-17 41 -27 81t-10 64q0 17 6 33.5t16 32.5l-52 -1l-54 -1l-52 1z" />
<glyph unicode="W" horiz-adv-x="2001" d="M-47 1274q0 17 9.5 25t31.5 8l97 -7q43 0 78.5 -2t86.5 -4q23 0 75 3t82 3l95 7q22 0 31.5 -7.5t9.5 -23.5q0 -15 -6.5 -24.5t-30.5 -20.5q-60 -7 -81 -24q-21 -15 -21 -46q0 -20 10 -51q4 -15 14.5 -43t28.5 -72l285 -700l237 530l-74 162q-52 113 -100 173 q-44 56 -94 71l-13 7q-24 12 -24 36q0 15 10.5 24t32.5 9l92 -7q26 0 70 -3t61 -3q23 0 75 3t83 3l96 7q22 0 31.5 -7.5t9.5 -23.5q0 -15 -6.5 -24.5t-30.5 -20.5q-60 -7 -81 -24q-21 -15 -21 -46q0 -20 10 -51q4 -15 14.5 -43t28.5 -72l285 -700l221 588q34 89 55 162.5 t21 101.5q0 39 -21 57.5t-74 26.5l-28 4q-55 6 -55 33q0 19 10 29t33 10l77 -7q62 -6 107 -6q92 0 173 11l21 2q20 0 30.5 -8t12.5 -25q0 -12 -7.5 -20.5t-39.5 -22.5q-65 -27 -102 -70.5t-70 -128.5l-321 -821q-27 -68 -54 -149q-33 -103 -59 -103q-27 0 -91.5 180 t-133.5 330l-121 264l-233 -522q-27 -60 -59 -160q-27 -92 -54 -92q-26 0 -92 182.5t-133 327.5l-234 518q-34 79 -63.5 127t-59.5 78q-17 18 -43.5 28.5t-64.5 10.5q-22 9 -28.5 18.5t-6.5 24.5zM127 1233q63 -70 175 -317l3 -7l236 -526l2 -5l123 -304l43 127l-355 821 q-17 41 -27 81t-10 64q0 17 6 33.5t16 32.5l-52 -1l-54 -1l-52 1zM819 1233q63 -68 176 -318q1 -5 2 -6l236 -526l2 -5l123 -304l43 127l-354 821q-9 20 -15.5 39t-12.5 40q-9 38 -9 66q0 20 5.5 35.5t16.5 30.5l-53 -1l-53 -1l-53 1z" />
<glyph unicode="X" horiz-adv-x="1432" d="M-4 25q0 24 54 36l29 6q61 15 122 64t131 139l282 367l-206 301q-96 140 -161.5 204t-134.5 87l-32 5q-49 6 -49 38q0 15 9 25t30 10l93 -7q29 0 83 -3t80 -3t83 3t90 3l99 7q19 0 30 -9t11 -26q0 -26 -52 -41q-52 -12 -52 -47q0 -23 18 -62q9 -19 29 -50q17 -27 53 -79 l123 -180l188 244q28 37 47 71q15 28 17 46q0 19 -16 34t-48 21l-19 3q-61 9 -61 34q0 21 11 31t32 10q22 0 80 -6.5t101 -6.5q47 0 112 6l80 7q22 0 31.5 -8t9.5 -25q0 -27 -54 -39l-23 -6q-53 -15 -105.5 -57.5t-130.5 -145.5l-211 -272l270 -396q96 -138 161.5 -202 t132.5 -88l37 -7q46 -6 46 -36q0 -16 -10 -25.5t-31 -9.5l-93 5q-36 0 -93.5 2.5t-67.5 2.5q-45 0 -113.5 -2.5t-80.5 -2.5l-99 -5q-20 0 -30.5 8.5t-10.5 26.5q0 16 6.5 24.5t31.5 18.5q71 6 71 51q0 30 -25 79q-12 25 -34 61t-60 93l-154 226l-258 -338q-27 -36 -43 -68 t-16 -47q0 -21 21 -38q20 -14 60 -19l15 -2q72 -8 72 -39q0 -18 -12.5 -27.5t-36.5 -9.5q-9 0 -32 1t-58 4l-121 5q-27 0 -57.5 -1t-64.5 -4l-83 -5q-21 0 -32 8.5t-11 26.5zM227 1233q62 -64 105 -115.5t86 -109.5l471 -684q51 -76 74 -126q20 -45 20 -81l-3 -27 q-2 -13 -7 -24l42 1l68 1l70 -1l43 -1q-55 54 -102 108.5t-88 114.5l-471 684q-55 81 -76 125q-19 46 -19 82l3 28l7 25l-53 -2l-57 -2l-56 2z" />
<glyph unicode="Y" horiz-adv-x="1204" d="M-49 1274q0 17 9.5 25t31.5 8l97 -7q43 0 78.5 -2t86.5 -4q23 0 75 3t82 3l95 7q22 0 31.5 -7.5t9.5 -23.5q0 -15 -6.5 -25t-28.5 -20q-61 -8 -81.5 -22t-20.5 -42q0 -15 16 -50q7 -16 20 -38.5t31 -50.5l197 -315l246 315q35 46 55 84.5t20 61.5t-13 37q-11 14 -38 20 l-14 4q-41 12 -41 33t9 30t32 9q22 0 31 -1q22 -5 34 -6q51 -6 84 -6q32 0 83 6l65 7q20 0 31.5 -9t11.5 -28q0 -12 -7 -20l-28 -19q-96 -22 -194 -155l-31 -41l-295 -388v-158q0 -258 19.5 -329t73.5 -92l53 -5q61 0 61 -38q0 -16 -10 -24.5t-31 -8.5l-101 4l-178 4 q-29 0 -99.5 -2t-79.5 -2l-99 -4q-21 0 -31 8t-10 25q0 33 55 39l27 4q77 9 102 49t25 190v305l-267 398q-49 76 -80 116q-29 40 -55 68q-15 16 -37 25q-10 5 -26.5 8.5t-38.5 3.5q-37 16 -37 43zM125 1233q25 -33 53.5 -74.5t63.5 -98.5l32 -50l265 -408v-323 q0 -107 -5.5 -152.5t-16.5 -64.5l38 4l39 2q24 0 36 -2h14t21 -4q-22 53 -34 131q-4 35 -7 92t-3 123v221l-261 405q-11 19 -18 33.5t-16 35.5q-11 35 -11 62q0 17 6 35q2 6 7 16t10 17l-53 -1l-54 -1l-52 1z" />
<glyph unicode="Z" horiz-adv-x="1389" d="M70 934q0 17 39 113l55 135l18 55q21 70 47 70h103h661q114 0 228 12l24 2q14 0 24 -10q10 -8 11 -23q0 -20 -75 -99.5t-128 -154.5l-661 -958q91 0 217 2.5t135 2.5q62 0 119 4t123 12t110 26t88.5 54.5t89 94.5t62.5 58q13 0 18.5 -5t5.5 -16q0 -15 -43 -85l-59 -99 l-36 -72q-30 -65 -58 -65l-10 1q-30 5 -72 8t-90 3h-819l-34 -1l-30 -1q-28 0 -35 4.5t-8 20.5q0 16 69 90.5t117 144.5l664 973h-250q-244 0 -338 -36t-162 -132q-10 -15 -22.5 -37.5t-25.5 -48.5q-29 -59 -50 -59q-9 0 -15.5 4.5t-6.5 11.5zM199 74h116l779 1157h-86z" />
<glyph unicode="[" horiz-adv-x="702" d="M98 516v37q0 12 7 20q7 5 22 7h63v393q0 69 -4 138t-13 139l-3 30q0 16 8 22.5t31 6.5l84 -9q38 -4 73 -6t74 -2q82 0 173 13l34 4q14 0 22 -5t9 -18q0 -53 -74.5 -93t-210.5 -52v-1245q131 -12 208 -51.5t77 -94.5q0 -11 -7 -15.5t-24 -4.5l-34 3q-37 5 -87.5 9t-85.5 4 q-56 0 -79 -1.5t-68 -6.5l-84 -8q-24 0 -30.5 4.5t-8.5 21.5l3 31q17 142 17 276v426h-63q-14 0 -21 6.5t-8 20.5zM223 1259q7 -56 9 -77t2 -50l4 -174v-880q0 -38 -2 -96t-2 -78q0 -31 -2.5 -58.5t-7.5 -68.5l96 9l100 3q24 0 49 -1t49.5 -4t56 -7t60.5 -10q-8 33 -76 54 q-33 9 -77 14t-101 5h-43q-17 0 -26 -2v1360q16 0 25 -2h42q112 0 179.5 20.5t76.5 54.5l-114 -17q-58 -5 -101 -5q-21 0 -57 1t-51 1q-25 0 -50 3t-39 5z" />
<glyph unicode="\" horiz-adv-x="664" d="M41 1311v8q0 9 6.5 15.5t22.5 6.5h30q29 0 44 -37l3 -9l529 -1449l1 -4l1 -8q0 -10 -7.5 -16t-21.5 -8h-31q-29 0 -43 36l-4 11l-528 1449z" />
<glyph unicode="]" horiz-adv-x="702" d="M23 -252q0 57 72 95t212 53v1245q-137 12 -210.5 51t-73.5 98q0 6 7.5 12.5t18.5 6.5l76 -9q74 -8 135 -8q56 0 79 1.5t68 6.5l85 9q21 0 29.5 -6t8.5 -23l-2 -30q-8 -74 -12 -138t-4 -139v-393h61q15 0 22 -6.5t9 -20.5v-37q0 -12 -7.5 -19t-23.5 -8h-61v-426 q0 -142 16 -277l2 -30q0 -15 -7 -20.5t-31 -5.5l-85 8q-38 4 -73 6t-74 2q-52 0 -73 -1.5t-62 -6.5l-76 -8q-13 0 -19 4.5t-7 13.5zM68 -233l112 17q58 5 101 5l97 -3l99 -9l-11 128l-3 173v880l3 173q0 34 2.5 61.5t8.5 66.5l-90 -8l-106 -2h-12q-21 0 -43 1t-46 4 q-50 6 -112 18q7 -34 76 -56q34 -10 77 -15t101 -5h67v-1357l-27 1h-43q-111 0 -176.5 -19t-74.5 -54z" />
<glyph unicode="^" horiz-adv-x="2048" d="M412 897l534 565h152l534 -565h-84l-526 465l-530 -465h-80z" />
<glyph unicode="_" horiz-adv-x="1024" d="M0 -403h1024v-80h-1024v80z" />
<glyph unicode="`" horiz-adv-x="1024" d="M270 1139q0 23 27 34q13 5 35 8t53 3q67 0 92 -14q25 -12 43 -50l66 -135l10 -21l31 -69q0 -8 -10.5 -15.5t-28.5 -9.5q-27 0 -73.5 25t-98.5 70q-66 52 -106 100.5t-40 73.5zM350 1124q36 -56 87.5 -109t121.5 -106l21 6l-86 158l-2 3q-35 67 -97 67l-19 -1l-14 -2z" />
<glyph unicode="a" horiz-adv-x="918" d="M59 121q0 98 105.5 160.5t353.5 107.5l2 90v23q0 104 -24.5 142t-85.5 38q-51 0 -80.5 -19t-49 -60.5t-47 -60t-73.5 -18.5q-11 0 -20 6q-6 6 -7 17q0 19 21.5 49.5t58.5 58.5q67 51 151 79t175 28q89 0 130.5 -36.5t41.5 -115.5v-6l-4 -389q0 -72 12 -95.5t43 -23.5 q18 0 48.5 14.5t41.5 16.5q15 0 22 -8.5t7 -26.5q0 -13 -55 -43l-33 -18q-65 -35 -106 -53q-36 -13 -60 -13q-47 0 -77 30q-26 28 -34 82l-33 -16q-191 -96 -264 -96q-70 0 -115 43.5t-45 112.5zM129 139q0 -57 29.5 -90t79.5 -33q17 0 25 1.5t25 6.5t31 9.5t33 13.5 q-72 0 -110 32q-37 34 -37 95q0 11 0.5 24t8 35t24.5 39q-54 -18 -81.5 -51.5t-27.5 -81.5zM246 182q0 -45 26.5 -69.5t75.5 -24.5q32 0 73.5 10t94.5 31l2 207q-149 -23 -210.5 -58.5t-61.5 -95.5zM473 711q49 -18 69.5 -51t20.5 -99v-14l-4 -379v-16q0 -74 18 -105t60 -31 q15 0 33.5 6t42.5 19q-42 7 -59 35t-17 90v16l4 391v9q0 70 -27.5 101.5t-89.5 31.5l-46 -4h-5z" />
<glyph unicode="b" horiz-adv-x="1042" d="M49 1163q0 22 53 40q46 14 82 30q26 11 53 25t52 31q50 33 59 34q15 0 21 -11.5t6 -39.5v-608q76 47 147 73q32 11 65.5 18t59.5 7q148 0 237 -89.5t89 -240.5q0 -91 -32 -175.5t-95 -156.5q-57 -64 -130.5 -99.5t-150.5 -35.5q-43 0 -123.5 14.5t-113.5 14.5 q-21 0 -41.5 -3t-44.5 -11l-49 -15q-14 0 -21.5 7t-9.5 22l3 13q19 73 19 153v801q0 108 -17.5 142t-64.5 34h-16q-21 0 -30 6q-6 6 -7 20zM174 1167q28 -20 40.5 -63.5t12.5 -147.5v-788l-3 -65l-9 -70l42 13l46 12v1175l-55 -32zM375 90q20 -11 42.5 -20.5t45.5 -17.5 q46 -13 82 -13q111 0 180.5 78.5t69.5 204.5q0 141 -78 234t-193 93q-40 0 -79 -15t-70 -44v-500zM557 684q123 -14 201 -112t78 -242q0 -65 -17 -119q-15 -56 -49 -109q63 42 100 119q17 37 27 80.5t10 89.5q0 131 -77.5 220t-192.5 89q-18 0 -37 -3.5t-43 -12.5z" />
<glyph unicode="c" horiz-adv-x="758" d="M70 276q0 84 25.5 160.5t76.5 143.5q59 80 156 131t190 51t161.5 -39t68.5 -86q0 -29 -40 -65.5t-67 -36.5q-10 0 -36 24l-16 15q-51 51 -92 72q-21 10 -43 16t-44 6q-78 0 -121 -67.5t-43 -184.5q0 -165 60.5 -260t164.5 -95q62 0 133 39t76 39q11 0 18.5 -7t8.5 -21 q0 -39 -109 -92.5t-227 -53.5q-143 0 -222 81t-79 230zM106 289q0 -129 66.5 -204t181.5 -75h8q-90 36 -137 118.5t-47 207.5q0 59 12.5 123t34.5 125q-51 -44 -85 -125.5t-34 -169.5zM426 700q54 0 105 -29q27 -14 53.5 -35t57.5 -54q17 7 30 20q14 11 26 29q-35 44 -81 68 t-95 24q-21 0 -45 -6q-13 -3 -24 -6.5t-27 -10.5z" />
<glyph unicode="d" horiz-adv-x="1071" d="M74 299q0 201 122.5 332t311.5 131q31 0 43.5 -1.5t34.5 -6.5q41 -6 80 -23l2 238v26q0 92 -21.5 121t-81.5 29h-16q-34 0 -42.5 5.5t-8.5 20.5q0 23 81 46l66 18q67 19 134 55q31 16 50 25t25 10q8 0 14.5 -8t8.5 -25l-4 -32q-5 -42 -10 -93.5t-5 -85.5l-10 -841v-21 q0 -69 20 -92t74 -23l16 1l23 1q15 0 22 -6t9 -20q0 -26 -55 -38l-62 -13q-76 -22 -141 -51t-70 -29q-18 0 -23.5 8.5t-5.5 56.5l2 92q-73 -70 -149 -105.5t-154 -35.5q-126 0 -203 92t-77 242zM115 307q0 -142 63.5 -222.5t175.5 -80.5q18 0 27 1t33.5 8t58.5 24 q-68 0 -121 22t-93.5 65.5t-60.5 100t-20 129.5q0 80 25.5 155t75.5 142q-75 -45 -119.5 -138t-44.5 -206zM244 406q0 -136 69.5 -222t180.5 -86q46 0 86 18t77 52l7 500q-41 21 -77 31q-15 4 -33.5 7t-35.5 3q-120 0 -198 -85q-38 -43 -57 -96.5t-19 -121.5zM647 1178 q33 -21 47.5 -57.5t14.5 -121.5v-34l-7 -955l75 30l65 23q-33 20 -50 58q-14 37 -14 135v18l6 697q0 17 2 62.5t2 54.5q0 28 3.5 63.5t9.5 85.5l-82 -35z" />
<glyph unicode="e" horiz-adv-x="801" d="M66 317q0 190 111.5 317.5t273.5 127.5q93 0 166 -51t104 -139l14 2l8 1q14 0 20.5 -6t8.5 -20q0 -12 -14 -22q-6 -4 -23 -8.5t-31 -8.5l-452 -107q0 -146 63 -237q60 -86 160 -86q75 0 156 45l84 45q7 0 13.5 -6.5t6.5 -18.5q0 -10 -11.5 -22.5t-51.5 -38.5 q-97 -62 -172.5 -90.5t-139.5 -28.5q-131 0 -212.5 97.5t-81.5 254.5zM111 319q0 -134 63.5 -219.5t163.5 -85.5h15q10 0 24 2l34 9q-110 24 -169.5 108.5t-59.5 220.5q0 99 29 180q15 43 35.5 78.5t50.5 69.5q-80 -32 -133 -134t-53 -229zM258 461l285 67q-24 88 -61 129 q-35 43 -83 43q-57 0 -96 -63q-19 -33 -32 -78.5t-13 -97.5zM467 719q40 -25 69.5 -68t51.5 -110l61 14q-30 85 -73.5 124.5t-104.5 39.5h-4z" />
<glyph unicode="f" horiz-adv-x="668" d="M41 23q0 34 58 34q30 0 49 7q45 15 60 47.5t15 126.5v415h-82q-13 0 -19.5 6t-8.5 19v29q0 12 5 17t27 5h86q0 114 27 213t80 182q57 92 130 145.5t138 53.5q24 0 45.5 -4t41.5 -13q38 -15 38 -34q0 -27 -33 -79t-53 -52l-49 27q-45 28 -80 28q-52 0 -77 -87t-25 -271 v-109h198q13 0 20 -5.5t9 -16.5v-29q0 -14 -5.5 -19.5t-25.5 -5.5h-196v-413q0 -89 16 -123t66 -54l50 -4q62 0 62 -36q0 -13 -12 -22q-12 -7 -33 -7l-28 1q-50 0 -81 1q-124 4 -135 4q-41 0 -116 -2.5t-94 -2.5l-33 -1q-16 0 -25.5 7.5t-9.5 21.5zM221 57l37 3l45 3l45 -3 l35 -3q-20 21 -32 56q-9 33 -9 114v45v422q0 182 19.5 294.5t64.5 189.5q-77 -65 -117.5 -192t-40.5 -320v-394q0 -98 -10.5 -145t-36.5 -70zM478 1227l21 3l25 1q32 0 61 -11q30 -9 60 -30l21 31l16 30q-8 4 -25.5 10.5t-27.5 9.5q-26 7 -41 7q-25 0 -50 -11t-60 -40z" />
<glyph unicode="g" horiz-adv-x="829" d="M59 440q0 141 101 231.5t256 90.5q75 0 132 -20q61 -18 103 -56q55 40 92 59q37 17 68 17q32 0 45.5 -8.5t13.5 -30.5q0 -40 -6.5 -61.5t-19.5 -22.5l-15 4q-39 14 -73 14q-19 0 -35 -5q-16 -3 -35 -13q34 -46 51 -93t17 -97q0 -95 -50.5 -159t-154.5 -100 q-34 -11 -104 -25q-119 -23 -119 -75q0 -29 21 -44q23 -13 69 -13l13 1l24 1q226 0 312.5 -48t86.5 -165q0 -67 -35.5 -132.5t-103.5 -119.5q-75 -59 -173 -94t-190 -35q-122 0 -198 57t-76 150q0 60 38 112t113 95q-48 15 -76 49t-28 78q0 69 48.5 114t152.5 70 q-127 15 -196 86.5t-69 187.5zM111 440q0 -98 56.5 -162t154.5 -73q-72 45 -108 109.5t-36 148.5q0 79 34.5 135.5t115.5 110.5q-99 -12 -158 -85.5t-59 -183.5zM166 -6q0 -53 66 -82.5t195 -29.5l42 -1q84 0 142 -10.5t91 -28.5q60 -32 60 -106l-3 -40l-1 -11q3 6 13 28.5 t13 31.5q9 27 9 52q0 80 -63 119q-34 21 -85.5 33t-121.5 12l-74 3q-100 0 -151.5 20t-51.5 55q0 10 1.5 16t8 22t23.5 38q-56 -21 -84.5 -51t-28.5 -70zM172 -350q0 -69 53 -110.5t142 -41.5q135 0 244.5 72.5t109.5 155.5q0 63 -75.5 89.5t-278.5 26.5h-72 q-57 -35 -90 -86.5t-33 -105.5zM256 479q0 -113 44.5 -183.5t111.5 -70.5q59 0 100 61t41 156q0 108 -44.5 181t-111.5 73q-59 0 -100 -61t-41 -156zM485 707q57 -48 87 -114t30 -144q0 -67 -17 -118.5t-55 -92.5q70 16 109 78t39 157q0 96 -53 159t-140 75z" />
<glyph unicode="h" horiz-adv-x="1157" d="M27 23q0 33 59 33q30 0 48 6q42 16 59 48q16 34 16 128v731q0 110 -20 143q-18 33 -70 33h-17q-33 0 -42 5.5t-9 20.5q0 24 66 42l63 18q73 23 139 58.5t74 35.5t16 -9q5 -8 7 -24l-10 -72q-9 -69 -9 -139v-456q119 76 193.5 106.5t134.5 30.5q117 0 169 -78t52 -266 v-180q0 -94 14.5 -127t55.5 -50l43 -4q55 0 55 -34q0 -14 -9 -22q-11 -7 -28 -7l-21 1q-43 0 -115.5 2.5t-88.5 2.5q-45 0 -113 -2.5t-76 -2.5l-18 -1q-16 0 -24.5 6t-8.5 23q0 30 52 34q24 0 35 5q32 15 45.5 48.5t13.5 127.5v204q0 108 -36.5 153.5t-119.5 45.5 q-56 0 -109.5 -21.5t-95.5 -62.5v-319q0 -44 3 -72.5t11 -48.5q13 -36 49 -55l35 -4q52 0 52 -35q0 -13 -9 -22q-11 -7 -26 -7l-18 1q-38 0 -105.5 2.5t-83.5 2.5q-42 0 -117 -2.5t-93 -2.5l-34 -1q-15 0 -24.5 7.5t-9.5 21.5zM188 1178q34 -22 49 -58t15 -123v-32v-693 q0 -108 -11 -151q-9 -44 -34 -66l36 3l48 3l45 -3l35 -3q-24 22 -33.5 66.5t-9.5 150.5v699l3 97q0 25 3.5 64t9.5 105l-80 -34q-36 -14 -76 -25zM578 676h26q107 0 152 -54t45 -192v-164q0 -105 -11 -146q-9 -41 -34 -65l36 3l48 3l45 -3l35 -3q-24 22 -33.5 64.5 t-9.5 146.5v156q0 158 -42.5 223.5t-140.5 65.5q-31 0 -61 -9.5t-55 -25.5z" />
<glyph unicode="i" horiz-adv-x="627" d="M59 23q0 34 56 34q26 0 38 4q41 17 55.5 50.5t14.5 126.5v254q0 78 -13.5 102.5t-54.5 38.5l-12 3l-20 1h-23q-21 0 -31 6t-10 21q0 32 68 32q12 0 26 0.5t31 3.5q102 15 199 73q24 15 31 15q9 0 15.5 -6t8.5 -16l-13 -90q-13 -93 -13 -164v-274q0 -42 3 -71.5t10 -49.5 q13 -35 51 -56q9 -3 34 -3q51 0 51 -35q0 -13 -9 -22q-11 -7 -26 -7l-18 1q-38 0 -105.5 2.5t-83.5 2.5q-43 0 -116 -2.5t-88 -2.5l-25 -1q-15 0 -22 6t-9 23zM217 1100q0 45 34.5 79.5t80.5 34.5q45 0 78.5 -33.5t33.5 -80.5q0 -45 -32.5 -79t-79.5 -34q-46 0 -80.5 33.5 t-34.5 79.5zM221 55l37 3l45 3l45 -3l35 -3q-21 20 -32 64q-9 42 -9 153v246l3 105q0 22 2.5 39.5t8.5 41.5q-29 -16 -59 -27l-68 -20q18 -18 27.5 -47t9.5 -69v-269q0 -107 -9.5 -151.5t-35.5 -65.5zM268 1100q0 -20 15.5 -35.5t35.5 -15.5q22 0 37 14.5t15 36.5 q0 20 -15.5 36.5t-36.5 16.5q-18 0 -34.5 -16.5t-16.5 -36.5z" />
<glyph unicode="j" horiz-adv-x="559" d="M18 -420l25 21l52 -39q33 -27 50 -27q35 0 49.5 69.5t14.5 293.5v594q0 39 -3 63.5t-11 39.5q-13 26 -54 44q-46 0 -70 6.5t-24 20.5q0 26 68 32q33 0 58 5q102 14 196 71q12 7 18.5 10t11.5 4q9 0 16 -6.5t9 -19.5l-2 -8q-25 -95 -25 -240v-281l2 -113l2 -93 q0 -264 -69.5 -403.5t-222.5 -182.5zM215 657q18 -18 27.5 -47t9.5 -69v-609q0 -137 -7 -220q0 -39 -6 -76.5t-16 -75.5q51 57 78 138.5t27 182.5v637l3 106q0 21 2.5 38.5t8.5 41.5q-29 -16 -59 -27zM217 1100q0 45 34.5 79.5t80.5 34.5q45 0 78.5 -33.5t33.5 -80.5 q0 -45 -32.5 -79t-79.5 -34q-46 0 -80.5 33.5t-34.5 79.5zM268 1100q0 -20 15.5 -35.5t35.5 -15.5q22 0 37 14.5t15 36.5q0 20 -15.5 36.5t-36.5 16.5q-18 0 -34.5 -16.5t-16.5 -36.5z" />
<glyph unicode="k" horiz-adv-x="1090" d="M27 23q0 33 59 33q30 0 48 6q42 16 59 48q16 34 16 128v731q0 110 -20 143q-18 33 -70 33h-17q-33 0 -42 5.5t-9 20.5q0 24 66 42l63 18q73 23 139 58.5t74 35.5t16 -9q5 -8 7 -24l-10 -72q-9 -69 -9 -139v-680q144 92 207.5 147.5t63.5 88.5q0 26 -29 41.5t-29 32.5 q0 13 6.5 19.5t22.5 6.5l18 -1q39 0 99.5 -2.5t72.5 -2.5q32 0 88.5 2.5t71.5 2.5l23 1q15 0 23.5 -6.5t8.5 -19.5q0 -25 -65 -37l-57 -10q-77 -16 -156 -59.5t-152 -110.5l195 -230q49 -59 108 -119q50 -49 82 -71l49 -14q52 -9 52 -37q0 -15 -7.5 -22t-23.5 -7l-15 1 q-34 0 -95 2.5t-76 2.5q-39 0 -106.5 -2.5t-83.5 -2.5l-27 -1q-18 0 -25.5 7t-7.5 24q0 21 32.5 33t32.5 36q0 18 -25 55t-73 89l-137 143l-66 -37v-106q0 -44 3 -72.5t11 -48.5q13 -36 49 -55l35 -4q52 0 52 -35q0 -13 -9 -22q-11 -7 -26 -7l-18 1q-38 0 -105.5 2.5 t-83.5 2.5q-42 0 -117 -2.5t-93 -2.5l-34 -1q-15 0 -24.5 7.5t-9.5 21.5zM188 1178q34 -22 49 -58t15 -123v-32v-693q0 -107 -9.5 -150t-33.5 -67l26 3l56 3l45 -3l35 -3q-24 22 -33.5 66.5t-9.5 150.5v699l3 97q0 25 3.5 64t9.5 105l-80 -34q-36 -14 -76 -25zM502 410 l127 -136q62 -65 90.5 -112t28.5 -82l-1 -12l-1 -6l133 -1q-55 79 -103 139q-13 17 -46 56q-29 34 -44 51l-131 142z" />
<glyph unicode="l" horiz-adv-x="606" d="M27 23q0 33 59 33q30 0 48 6q42 16 59 48q16 34 16 128v731q0 110 -20 143q-18 33 -70 33h-17q-33 0 -42 5.5t-9 20.5q0 24 66 42l63 18q73 23 139 58.5t74 35.5t16 -9q5 -8 7 -24l-10 -72q-9 -69 -9 -139v-843q0 -95 15 -126.5t62 -50.5l46 -5q60 0 60 -33q0 -13 -9 -22 q-11 -7 -26 -7l-33 1q-50 0 -80 1q-121 4 -129 4q-42 0 -116 -2.5t-93 -2.5l-33 -1q-15 0 -24.5 7.5t-9.5 21.5zM188 1178q34 -22 49 -58t15 -123v-32v-693q0 -107 -9.5 -150t-33.5 -67l26 3l56 3l45 -3l35 -3q-24 22 -33.5 66.5t-9.5 150.5v699l3 97q0 25 3.5 64t9.5 105 l-80 -34q-36 -14 -76 -25z" />
<glyph unicode="m" horiz-adv-x="1655" d="M41 23q0 33 59 33q30 0 47 5q45 18 60.5 50.5t15.5 126.5v254q0 78 -13.5 103t-53.5 38l-20 -1l-21 -1q-28 0 -41 8q-13 10 -13 27q0 32 68 32l57 4q101 15 197 72q22 12 31 14q9 0 15.5 -6t8.5 -16l-11 -52q-11 -46 -15 -89q91 69 162 103t131 34q75 0 130.5 -40.5 t77.5 -113.5q89 75 167 114.5t141 39.5q119 0 172 -79.5t53 -264.5v-180q0 -50 3 -80t11 -47q13 -31 53 -50l43 -4q56 0 56 -34q0 -14 -9 -22q-11 -7 -28 -7l-22 1q-45 0 -74 1q-115 4 -129 4q-44 0 -109.5 -2.5t-72.5 -2.5l-15 -1q-16 0 -24 7q-5 6 -7 22q0 34 47 34 q22 0 32 5q30 17 42 47t12 129v204q0 108 -33.5 152.5t-111.5 44.5q-51 0 -94 -20q-44 -18 -92 -62l3 -48l1 -52v-219q0 -91 12 -125t46 -52q9 -3 30 -3q49 0 49 -35q0 -15 -7.5 -21.5t-23.5 -7.5l-15 1q-40 0 -66 1q-103 4 -119 4q-44 0 -109.5 -2.5t-72.5 -2.5l-15 -1 q-16 0 -24 7q-5 6 -7 22q0 34 47 34q22 0 32 5q30 17 42 47t12 129v204q0 108 -33.5 152.5t-111.5 44.5q-53 0 -96 -19.5t-86 -62.5v-319q0 -91 12 -124.5t44 -51.5l32 -4q49 0 49 -35q0 -15 -7.5 -21.5t-23.5 -7.5l-15 1q-37 0 -102 2.5t-82 2.5q-41 0 -116 -2.5t-94 -2.5 l-33 -1q-16 0 -25.5 7.5t-9.5 21.5zM221 55l37 3l45 3l45 -3l35 -3q-21 20 -32 64q-9 42 -9 153v246l3 105q0 22 2.5 39.5t8.5 41.5q-29 -16 -59 -27l-68 -20q18 -18 27.5 -47t9.5 -69v-269q0 -107 -9.5 -151.5t-35.5 -65.5zM559 676h27q107 0 151.5 -54.5t44.5 -191.5v-164 q0 -103 -9.5 -145.5t-35.5 -65.5l37 3l47 3l45 -3l35 -3q-24 22 -33.5 64.5t-9.5 146.5v156q0 157 -42 223t-140 66q-32 0 -62 -9.5t-55 -25.5zM1077 676h27q106 0 150 -54.5t44 -191.5v-164q0 -103 -9.5 -145.5t-35.5 -65.5l37 3l47 3l45 -3l35 -3q-23 23 -33 67.5 t-10 143.5v156q0 157 -42 223t-140 66q-31 0 -60 -9q-13 -4 -27 -10.5t-28 -15.5z" />
<glyph unicode="n" horiz-adv-x="1171" d="M41 23q0 33 59 33q30 0 47 5q45 18 60.5 50.5t15.5 126.5v254q0 39 -3 63.5t-11 39.5q-13 27 -53 40l-23 -1l-22 -1q-26 0 -38 8t-12 25q0 32 68 32l57 4q101 15 197 72q22 12 31 14q9 0 15.5 -6t8.5 -16l-11 -52q-11 -46 -15 -89q119 76 193.5 106.5t133.5 30.5 q120 0 172 -79.5t52 -264.5v-180q0 -50 3 -80t11 -47q13 -31 53 -50l43 -4q55 0 55 -34q0 -14 -9 -21.5t-27 -7.5l-22 1q-46 0 -75 1q-115 4 -129 4q-45 0 -112.5 -2.5t-75.5 -2.5l-19 -1q-16 0 -25 6q-7 7 -7 23q0 30 52 34q24 0 33 4q34 16 47 49.5t13 127.5v204 q0 109 -35 154t-119 45q-57 0 -111 -21.5t-95 -62.5v-319q0 -42 3 -71.5t10 -49.5q13 -35 51 -56q9 -3 34 -3q51 0 51 -35q0 -15 -8.5 -22t-24.5 -7l-18 1q-39 0 -106.5 2.5t-84.5 2.5q-41 0 -116 -2.5t-94 -2.5l-33 -1q-16 0 -25.5 7.5t-9.5 21.5zM221 55l37 3l45 3l45 -3 l35 -3q-21 20 -32 64q-9 42 -9 153v246l3 105q0 22 2.5 39.5t8.5 41.5q-29 -16 -59 -27l-68 -20q18 -18 27.5 -47t9.5 -69v-269q0 -107 -9.5 -151.5t-35.5 -65.5zM592 676h26q108 0 152.5 -54.5t44.5 -191.5v-164q0 -103 -9.5 -145.5t-35.5 -65.5l36 3l48 3l45 -3l35 -3 q-24 22 -33.5 64.5t-9.5 146.5v156q0 157 -42 223t-140 66q-32 0 -62 -9.5t-55 -25.5z" />
<glyph unicode="o" horiz-adv-x="930" d="M72 365q0 170 117.5 283.5t293.5 113.5q162 0 268.5 -112.5t106.5 -284.5q0 -171 -118 -284.5t-294 -113.5q-165 0 -269.5 111.5t-104.5 286.5zM111 375q0 -142 74.5 -242t197.5 -121q-97 63 -147 160t-50 225q0 83 24 150t79 131q-81 -41 -129.5 -122t-48.5 -181z M268 436q0 -178 65 -295.5t159 -117.5q78 0 124 71t46 195q0 178 -63.5 294.5t-158.5 116.5q-80 0 -126 -70.5t-46 -193.5zM526 717q81 -53 127.5 -162.5t46.5 -249.5q0 -96 -24.5 -162.5t-75.5 -107.5q77 18 126.5 105t49.5 210q0 156 -71 258q-35 52 -80 80.5t-99 28.5z " />
<glyph unicode="p" horiz-adv-x="1071" d="M55 -541q0 26 47 35q29 3 43 10q39 18 54.5 51.5t15.5 125.5v813q0 78 -13.5 102.5t-54.5 36.5q-58 0 -75 7.5t-17 25.5q0 26 67 32q34 0 57 5q78 9 146 49l68 39q9 0 17 -8q7 -5 8 -17l-5 -32l-5 -54q73 39 137 60.5t114 21.5q149 0 240.5 -99t91.5 -262 q0 -185 -108 -310.5t-265 -125.5q-50 0 -102.5 18t-109.5 54v-342q0 -102 12.5 -128.5t52.5 -47.5h12l25 1l22 1q21 0 30.5 -6.5t10.5 -22.5q0 -15 -8 -23t-26 -8l-16 1l-113 1q-138 0 -285 -21l-43 -5q-14 0 -18.5 4t-6.5 18zM213 -498l157 16l6 1q-23 15 -32.5 55 t-9.5 147v748l3 128l9 101q-2 -1 -20.5 -9.5t-39.5 -16.5l-65 -17q18 -18 27.5 -46t9.5 -68v-820q0 -56 -2 -90t-8 -58q-9 -44 -35 -71zM406 109q51 -41 100.5 -61.5t93.5 -20.5q97 0 157 79.5t60 212.5q0 139 -88 242t-205 103q-12 0 -23 -2t-28 -7.5t-32 -12t-35 -17.5 v-516zM561 700q136 -25 217.5 -130t81.5 -257q0 -84 -29 -153t-92 -127q87 30 138 120.5t51 217.5q0 144 -82 242t-201 98l-33 -3q-16 0 -51 -8z" />
<glyph unicode="q" horiz-adv-x="1014" d="M74 299q0 201 122 332t310 131q65 0 119 -17q56 -15 112 -51q32 28 66 50q30 18 49 18q9 0 16 -6t9 -17l-12 -75q-5 -33 -8 -71.5t-3 -74.5v-825v-19q0 -83 12 -110t47 -43h9l19 1l22 1q20 0 29 -7t12 -24q0 -14 -7.5 -21.5t-25.5 -9.5l-40 1l-75 1q-56 0 -115 -4 t-117 -13l-120 -17q-16 0 -24.5 8t-8.5 22q0 26 52 35q36 4 54 12q51 21 70 58.5t19 116.5v378q-85 -45 -161 -68.5t-145 -23.5q-132 0 -209 90t-77 242zM115 307q0 -143 64.5 -223t178.5 -80q26 0 61 6t75 19q-73 0 -131 23.5t-102 68.5q-83 88 -83 233q0 80 25.5 155 t75.5 142q-75 -45 -119.5 -138t-44.5 -206zM244 408q0 -142 75.5 -234t190.5 -92q37 0 74 10q40 9 82 31v307q0 88 7.5 129.5t24.5 75.5q-35 36 -82.5 55t-99.5 19q-118 0 -195 -85t-77 -216zM664 -497q16 0 36 5q27 4 68 8.5t57 4.5q-20 11 -32 51q-9 38 -9 149v701 q0 103 8 162.5t25 115.5q-60 -30 -84 -80.5t-24 -183.5v-43v-672q0 -108 -11 -148q-9 -42 -34 -70z" />
<glyph unicode="r" horiz-adv-x="768" d="M41 23q0 33 59 33q30 0 47 5q45 18 60.5 50.5t15.5 126.5v254q0 78 -13.5 103t-53.5 38l-20 -1l-21 -1q-28 0 -41 8q-13 10 -13 27q0 32 68 32l57 4q101 15 197 72q22 12 31 14q10 0 15.5 -4.5t6.5 -13.5l-3 -15q-11 -49 -16 -79t-5 -69q25 14 54 32.5t54 35t60 40.5 t65 47l135 -103l-82 -133l-2 -3q-11 -17 -24 -17q-6 0 -58 34.5t-98 34.5q-25 0 -51 -11t-53 -34v-292q0 -84 18 -121t70 -56l18 -3l29 -1h16q24 0 32.5 -8t8.5 -26q0 -15 -5 -22t-15 -7l-34 1q-54 0 -88 1q-134 4 -143 4q-42 0 -117 -2.5t-93 -2.5l-33 -1q-16 0 -25.5 7.5 t-9.5 21.5zM223 55l35 3l45 3l45 -3l35 -3q-21 20 -32 64q-9 42 -9 153v246l3 105q0 22 2.5 39.5t8.5 41.5q-29 -16 -59 -27l-68 -20q18 -18 27.5 -47t9.5 -69v-269q0 -107 -9.5 -150t-33.5 -67zM531 623q23 -6 39 -12t35 -14q34 -13 57 -32l49 78l-78 51z" />
<glyph unicode="s" horiz-adv-x="707" d="M80 4l3 13q9 36 9 69v14v12q0 20 -1 42.5t-4 44.5l-5 59q0 14 5.5 19t21.5 6q23 0 29 -44l7 -49q18 -79 59 -118t107 -39q57 0 91 28.5t34 77.5q0 37 -21 66q-19 29 -63 51q-163 87 -209.5 141.5t-46.5 128.5q0 102 80.5 169t204.5 67q33 0 81 -9l58 -8q17 0 40 9l5 2 l9 -4l11 -8l-4 -40l-1 -32q0 -28 2 -49.5t9 -50.5l11 -52q0 -11 -8 -17.5t-23 -6.5q-16 0 -26 37l-11 39q-18 61 -61.5 98t-97.5 37q-53 0 -82 -26q-29 -24 -29 -71q0 -38 27 -73q26 -30 106 -80l45 -27q185 -108 185 -235q0 -98 -70.5 -163t-175.5 -65q-43 0 -114.5 11.5 t-92.5 11.5q-22 0 -34 -2l-34 -8q-12 3 -18 9.5t-8 14.5zM137 532q0 -100 165 -195l15 -9q102 -58 132 -95q32 -37 32 -83q0 -38 -17 -68.5t-50 -50.5q61 0 102 45t41 110q0 90 -173 196l-11 7q-114 69 -144 105t-30 81q0 28 10 56.5t33 62.5q-48 -18 -76.5 -62t-28.5 -100z " />
<glyph unicode="t" horiz-adv-x="668" d="M45 662q0 17 74.5 52.5t132.5 90.5q33 33 61.5 79t46.5 46q9 0 12 -3l5 -12l-2 -186h229q9 0 14 -3l5 -11v-49q0 -7 -4 -11l-15 -2h-231l-4 -346v-20q0 -98 24 -137q25 -37 82 -37q45 0 94.5 27.5t59.5 29.5q9 0 17 -8q5 -7 7 -21q0 -26 -72 -70l-32 -20 q-65 -40 -122.5 -63t-92.5 -23q-81 0 -118.5 60.5t-37.5 191.5v12l4 410h-98q-27 0 -33 5t-6 18zM221 246q0 -124 27 -176t90 -52q23 0 50.5 9t57.5 28h-6q-79 0 -111 39.5t-32 149.5v18l6 531l-36 -35l-40 -31l-6 -463v-18z" />
<glyph unicode="u" horiz-adv-x="1151" d="M39 664q0 26 68 32q36 0 56 4q102 15 199 73q24 15 31 15q9 0 15.5 -6.5t7.5 -17.5l-13 -89q-12 -84 -12 -163v-223q0 -98 27 -143.5t86 -45.5q47 0 104 18q29 10 60.5 24t76.5 38v309q0 83 -12 108.5t-47 39.5l-8 1l-12 1h-31q-19 0 -28 6q-5 5 -7 21q0 30 60 30h29 q17 3 23 4q100 15 195 73q24 15 31 15q9 0 14.5 -6t8.5 -18l-13 -86q-12 -84 -12 -166v-401l63 21q58 20 72 22q18 0 27.5 -9.5t9.5 -25.5q0 -21 -65 -43l-36 -13q-33 -12 -65.5 -26t-74.5 -34q-75 -36 -89 -36q-19 0 -28 12q-7 12 -7 46v51v19.5t2 22.5q-81 -48 -135.5 -77 t-94.5 -45q-72 -29 -128 -29q-99 0 -142.5 77.5t-43.5 266.5v178q0 78 -14.5 105t-53.5 39l-13 3l-20 1h-22q-22 0 -29.5 5.5t-9.5 21.5zM207 657q18 -14 27.5 -45.5t9.5 -70.5v-232q0 -162 34 -229.5t115 -67.5q16 0 24 1.5t25 6.5q28 9 59 25q-99 0 -140.5 56t-41.5 200 v168q0 30 2 76t2 62q0 22 3.5 47t9.5 51q-24 -13 -60 -28zM752 657q18 -18 27 -47t9 -69v-496l76 31v393q0 104 4 147q0 21 3.5 43t9.5 46q-29 -16 -59 -27z" />
<glyph unicode="v" horiz-adv-x="854" d="M-16 707q0 10 10.5 19t25.5 11l28 -1q34 0 91 -3.5t72 -3.5q17 0 61.5 2t53.5 2l73 4q16 0 24 -8q9 -6 9 -18q0 -20 -52 -44q-52 -21 -52 -55q0 -32 38 -114.5t132 -255.5l58 113q118 230 118 263q0 25 -43 47t-43 42q0 12 9.5 21t27.5 9l42 -4l72 -4h32q16 3 24 4l39 4 q14 0 23 -9t9 -23q0 -22 -33 -40l-18 -10q-34 -21 -69 -69q-29 -41 -101 -180l-86 -166q-42 -82 -75 -177.5t-50 -95.5q-19 0 -61 95q-49 115 -97 206l-98 187q-35 66 -66 115q-27 43 -57 71q-10 10 -40.5 27.5t-30.5 38.5zM99 671q19 -22 40 -54l43 -76l140 -265l53 -107 q9 -18 26 -57q12 -27 27 -63q8 32 8.5 35t7.5 23t10 27.5t11 23.5l-170 327q-12 24 -18 38.5t-16 39.5q-11 35 -11 58l3 25l9 26l-6 -1l-78 -3h-30z" />
<glyph unicode="w" horiz-adv-x="1360" d="M0 705q0 11 11 20.5t26 11.5l27 -2q37 -4 82 -7t81 -3q50 0 115 6l74 6q12 0 22 -8t11 -20q0 -21 -52.5 -42t-52.5 -55q0 -37 43 -143.5t115 -239.5q15 35 30 66.5t39.5 79.5t45 86.5t51.5 93.5q-27 57 -76 97t-49 53q0 12 10 22q10 8 27 10l58 -6q53 -6 101 -6 q59 0 127 6l76 6q12 0 22 -8t11 -20q0 -21 -52.5 -42t-52.5 -55q0 -37 40 -137t112 -237q82 172 114.5 259t32.5 124q0 26 -39.5 45.5t-39.5 40.5q0 12 10.5 21t27.5 9l43 -6q39 -6 72 -6q23 0 55 6l37 6q15 0 24 -9.5t9 -25.5q0 -21 -42 -41l-18 -8q-30 -15 -58.5 -55.5 t-78.5 -161.5l-118 -280q-18 -42 -39 -105q-27 -84 -58 -84q-25 0 -52 71.5t-48 113.5l-158 337l-108 -204q-48 -94 -78 -166l-27 -79q-21 -73 -53 -73q-24 0 -57 80l-45 105l-140 301q-31 70 -59.5 115.5t-56.5 70.5l-37 24q-37 22 -37 42zM117 672q1 -1 15.5 -20t28.5 -41 q19 -29 40 -72l231 -498q5 29 6.5 34.5t10 32t20.5 50.5l-137 299q-6 14 -18.5 45.5t-16.5 43.5q-10 37 -10 56t6 36.5t18 33.5l-53 -3l-41 -1h-37zM644 671q24 -28 45 -63q14 -21 21.5 -36l16.5 -33l227 -498l21 63l18 54l-135 299q-6 13 -18.5 43.5t-16.5 43.5 q-10 37 -10 58q0 19 6 37t19 33l-54 -3l-41 -1h-36z" />
<glyph unicode="x" horiz-adv-x="924" d="M0 20q0 26 41 38l21 6q75 34 137 96l8 8l170 168l-166 211q-49 61 -109.5 102t-60.5 56q0 11 11 20.5t26 11.5l27 -2q37 -4 82 -7t81 -3q42 0 99 6l71 6q10 0 19 -9q6 -6 8 -19q0 -17 -28.5 -37t-28.5 -41q0 -14 4.5 -24t25.5 -38l76 -98l78 82q22 23 33.5 42.5 t11.5 35.5q0 19 -37 37.5t-37 38.5q0 13 11 21.5t28 8.5l47 -6q41 -6 74 -6q30 0 75 6l60 6q15 0 24 -9t9 -26q0 -12 -72 -44t-137 -99l-133 -135l186 -244q47 -61 119 -101t72 -54q0 -15 -10 -24q-11 -7 -31 -7l-71 3l-136 3l-119 -3l-59 -3q-18 0 -28 6.5t-11 19.5 q0 21 38 39.5t38 40.5q0 17 -27 55l-2 3l-94 135l-113 -111q-26 -26 -40 -47q-11 -20 -13 -37q0 -18 39 -38q39 -18 39 -40q0 -12 -11 -19t-28 -7l-48 3l-73 3l-74 -3l-61 -3q-15 0 -22 6t-9 20zM156 672q26 -24 51 -54l55 -65l277 -358q21 -30 34 -57t13 -44l-3 -22l-7 -16 h5l89 7q36 0 48 -1q28 -5 43 -6l5 -1l-59 55l-54 64l-276 358q-6 8 -13.5 22t-12.5 24q-9 23 -9 45q0 16 2 25l8 23l-61 -3h-37h-38z" />
<glyph unicode="y" horiz-adv-x="872" d="M0 707q0 10 10 20q10 8 25 10l24 -2q91 -8 166 -8q28 0 47 1q74 4 86 4l80 5q11 0 18 -7.5t9 -20.5q0 -14 -6.5 -21t-32.5 -16q-46 -15 -60 -32t-14 -48q0 -42 37 -151.5t103 -258.5l122 232q38 71 60 124t22 78q0 17 -11.5 31t-35.5 21l-18 4q-45 9 -45 33q0 12 13 22 t32 10l44 -5q28 -3 42 -4t43 -1q17 0 34.5 1t34.5 4l35 5q15 0 24 -9.5t9 -27.5q0 -15 -33 -35q-14 -7 -20.5 -11t-12.5 -9q-29 -24 -60 -70.5t-97 -168.5l-146 -273q-61 -118 -132 -276q-65 -147 -136 -330l-5 -14q-29 -78 -185 -78q-30 0 -43 7t-13 23q0 21 65 39l15 4 q72 0 117 104l16 36l148 305l-195 510q-13 36 -24.5 61t-25.5 47q-24 43 -56 70l-37 24q-37 22 -37 42zM115 672q31 -34 51.5 -66.5t32.5 -64.5l204 -539l46 90l-150 391l-15 55q-3 18 -4 27t-1 27q0 22 6 42t18 38l-54 -4h-38h-36z" />
<glyph unicode="z" horiz-adv-x="858" d="M63 10q0 7 157.5 178t301.5 357h-203q-62 0 -101.5 -6.5t-57.5 -20.5q-9 -4 -27 -29.5t-35 -27.5q-11 0 -18.5 6.5t-7.5 17.5q0 7 25 58q22 45 44 98l31 80q24 65 39 65q10 0 18 -5.5t9 -14.5l-3 -18l-1 -7l15 -5l30 -1l35 1l40 1h211q79 0 150 18l14 3q11 0 17 -6t8 -19 q0 -10 -158 -189q-150 -169 -301 -351h340q44 0 60 5.5t30 18.5l24 30q19 25 35 25q9 0 15 -6t6 -16q0 -12 -2 -18l-6 -19l-72 -195l-6 -18q-21 -59 -41 -59q-14 0 -20.5 7t-6.5 23v12q1 5 2 6q-13 6 -33 9l-59 2h-37h-301q-31 0 -76 -6l-55 -6q-16 0 -22.5 5t-6.5 17z M154 37l44 4l64 2h279q59 0 86 -3q11 0 22.5 -2t21.5 -5l42 102q-15 -7 -42 -12q-17 -2 -36 -3t-60 -1h-346zM166 565q10 4 28 8.5t48.5 9.5t81.5 5h239l71 85l-34 -7l-45 -2h-31h-229h-20h-15q-10 2 -14 2q-23 3 -35 8l-19 -52q-7 -17 -12 -28.5t-14 -28.5z" />
<glyph unicode="{" horiz-adv-x="1024" d="M176 608v56q167 15 226 72.5t59 211.5v221q0 200 80 273.5t293 73.5h10v-47q-151 0 -206.5 -54t-55.5 -211v-147q0 -225 -64 -308t-239 -114q174 -30 238.5 -112.5t64.5 -309.5v-147q0 -156 54 -210q28 -27 78.5 -41t129.5 -14v-45h-10q-213 0 -293 72.5t-80 273.5v222 q0 152 -60 212q-33 33 -85 51q-60 21 -140 21z" />
<glyph unicode="|" horiz-adv-x="1024" d="M467 -483v2048h90v-2048h-90z" />
<glyph unicode="}" horiz-adv-x="1024" d="M178 -199q151 0 207.5 54t56.5 211v147q0 225 63.5 307t239.5 115q-173 30 -238 114t-65 308v147q0 155 -55.5 210t-208.5 55v47h10q214 0 294.5 -74t80.5 -273v-221q0 -154 57.5 -211.5t227.5 -72.5v-56q-78 0 -135.5 -20t-90.5 -52q-59 -57 -59 -212v-222 q0 -197 -80.5 -271.5t-294.5 -74.5h-10v45z" />
<glyph unicode="~" horiz-adv-x="1706" d="M178 481v92q102 71 199.5 108.5t187.5 37.5q100 0 271 -61l19 -7l27 -10q80 -29 148 -45t113 -16q83 0 175.5 37.5t211.5 121.5v-92q-106 -74 -202 -110.5t-185 -36.5q-99 0 -266 61l-22 8l-33 12q-167 60 -257 60q-84 0 -175.5 -37t-211.5 -123z" />
<glyph unicode="&#xa0;" />
<glyph unicode="&#xa1;" horiz-adv-x="692" d="M160 -14q0 14 25 99l42 161l140 600q9 37 19.5 49t29.5 12q17 0 27 -11.5t10 -35.5l-2 -39l-43 -749q55 0 73.5 -6.5t18.5 -24.5q0 -29 -56 -29h-24.5t-24.5 -2q-102 -9 -194 -38l-25 -7q-6 0 -12 6zM262 51l92 19l58 700zM289 1145v72q37 16 64 45t42 67h65 q9 -37 36.5 -70t74.5 -59v-53q-40 -21 -66 -52q-24 -31 -36 -71h-70q-18 43 -45.5 73.5t-64.5 47.5zM373 1171l35 -33q19 -20 20 -22q7 -11 10 -16l25 27l43 40l-28 28l-38 46l-30 -34z" />
<glyph unicode="&#xa2;" d="M180 309q0 134 65 244.5t185 181.5q45 26 102 44q30 8 54 12t53 4l24 -1l15 -1l76 204q12 35 26 35h27q12 0 18 -3t6 -11l-1 -7l-1 -4l-86 -229q62 -24 91 -52q30 -26 30 -56q0 -28 -42 -65.5t-66 -37.5q-15 0 -63 47l-7 7l-186 -510l42 -15l42 -4q62 0 135 39t78 39 q11 0 18 -8q6 -5 8 -19q0 -42 -110 -91q-60 -26 -121.5 -39t-134.5 -13l-88 -243q-3 -8 -8.5 -12.5t-16.5 -6.5h-39l-5 3l-1 7v10l2 7l88 241q-96 24 -152.5 105.5t-56.5 197.5zM217 319q0 -127 67.5 -202.5t182.5 -75.5h8q-90 35 -137 118t-47 208q0 56 12 118q6 29 15 61 t22 68q-53 -46 -88 -128t-35 -167zM358 428q0 -47 4 -80.5t16 -70.5q21 -65 64 -125l190 516q-28 14 -58 22q-13 4 -25 6t-25 2q-80 0 -123 -70.5t-43 -199.5zM543 733q54 0 106 -28.5t110 -89.5q17 6 30 18l26 28q-38 46 -82.5 69.5t-93.5 23.5q-28 0 -48 -5 q-11 -2 -22.5 -5.5t-25.5 -10.5z" />
<glyph unicode="&#xa3;" d="M84 -4q0 21 34.5 50t47.5 46q45 59 70.5 144t25.5 184q0 35 -9 125l-3 30h-129q-16 0 -19.5 3t-5.5 16v20q0 17 3 20t14 3h8h125l-21 137q-6 60 -6 105q0 186 126.5 291.5t348.5 105.5q45 0 64 -1.5t68 -8t114 -23.5l-72 -281q-4 -20 -11 -27.5t-21 -8.5q-17 0 -25 7 q-6 7 -8 23l2 25l2 31q0 29 -48.5 49t-123.5 20q-137 0 -202.5 -108t-65.5 -336h282q14 0 17 -3t6 -20v-20q0 -11 -3 -16l-12 -3h-8h-280q0 -50 -6 -96.5t-18 -103.5q-18 -92 -52 -170h334q51 0 85.5 3t62.5 11q52 13 83 47l30 39q27 41 50 41q8 0 15 -6t8 -14 q0 -10 -28 -73.5t-46 -129.5l-16 -65q-17 -78 -42 -78l-64 10q-65 10 -114 10h-405q-44 0 -84.5 -17.5t-46.5 -17.5q-12 0 -20.5 7.5t-10.5 23.5zM205 51h438l80 -3l82 -9l37 125q-28 -19 -65 -29t-93 -10h-434zM297 868q0 -76 4.5 -113t15.5 -64q0 107 27 196q24 78 66 134 q79 103 231 103q56 0 104 -13q24 -6 46.5 -15t44.5 -23l34 123q-14 4 -36.5 8.5t-58.5 9.5t-91 5q-179 0 -283 -94t-104 -257z" />
<glyph unicode="&#xa4;" horiz-adv-x="1241" d="M94 418l207 205q-45 57 -68.5 123.5t-23.5 138.5t23 136.5t69 125.5l-207 205l58 59l206 -207q59 47 125 70.5t138 23.5t138.5 -23.5t125.5 -70.5l205 207l59 -59l-207 -205q44 -56 68 -123.5t24 -138.5q0 -38 -5 -70.5t-18 -68.5q-22 -64 -69 -123l207 -205l-59 -60 l-205 207q-58 -46 -125 -69t-139 -23q-76 0 -139.5 22.5t-123.5 69.5l-206 -207zM291 887q0 -138 97 -235t235 -97q137 0 234 97t97 235q0 136 -97 233t-234 97q-138 0 -235 -97t-97 -233z" />
<glyph unicode="&#xa5;" d="M-33 1223q0 16 9.5 25t27.5 9l89 -6q39 0 73 -2t82 -4q23 0 72 3t77 3l86 6q17 0 27.5 -8t11.5 -24q0 -17 -6.5 -24.5t-27.5 -12.5l-11 -2q-76 -15 -76 -68q0 -13 1 -20t6 -22.5t7 -20.5q7 -17 17 -37l158 -328l166 297q26 46 43 91q3 9 9.5 30t6.5 35q0 26 -44 41 t-44 35q0 18 9 28t30 10l60 -6q45 -6 79 -6q30 0 77 6l60 6q18 0 28.5 -9.5t10.5 -26.5q0 -23 -42 -35l-21 -6q-43 -13 -87 -59.5t-91 -127.5l-92 -162h245q23 0 30 -6t7 -24q0 -17 -5.5 -24t-31.5 -7h-282l-80 -135v-47h362q23 0 30 -6t7 -25q0 -17 -5.5 -24t-31.5 -7h-362 v-88q0 -228 18 -289.5t67 -76.5q11 -4 23.5 -6.5t29.5 -2.5q58 0 58 -38q0 -14 -11.5 -22.5t-31.5 -8.5l-92 3l-166 3l-167 -3l-91 -3q-17 0 -29 9q-10 10 -10 28q0 26 54 32l23 3q72 9 97 52.5t25 176.5v231h-373q-24 0 -32 6q-5 7 -5 25q0 17 6 24t31 7h367l-96 182h-271 q-24 0 -32 6q-5 7 -5 25t6 24t31 6h236l-70 140q-52 104 -98.5 150t-122.5 67q-17 3 -24.5 11t-8.5 24zM127 1184q61 -58 135 -200l6 -13l199 -383v-316v-24v-19v-16v-13q0 -21 -1 -39t-4 -31q-5 -43 -17 -68l26 3l43 1l41 -1l26 -3q-20 47 -30 124t-10 207v211l-195 389 q-5 11 -11 26t-11 28q-3 15 -5 27t-2 26q0 20 6 40t21 44l-51 -1l-51 -1l-56 1z" />
<glyph unicode="&#xa6;" horiz-adv-x="1024" d="M467 -350v758h90v-758h-90zM467 674v758h90v-758h-90z" />
<glyph unicode="&#xa7;" d="M137 502q0 105 64 174t182 90q-95 81 -138.5 152.5t-43.5 150.5q0 120 89 196t232 76q135 0 223.5 -72.5t88.5 -178.5q0 -57 -27.5 -87t-83.5 -30q-41 0 -65 24q-21 24 -21 72l4 46l4 44q0 64 -39 98.5t-110 34.5q-78 0 -123 -38t-45 -103q0 -53 33 -102t133 -125 l229 -179q90 -70 130 -135.5t40 -140.5q0 -103 -60 -170.5t-176 -95.5q87 -70 130.5 -145.5t43.5 -153.5q0 -122 -89 -198.5t-234 -76.5q-139 0 -222 74t-83 193q0 46 27 74t75 28q43 0 66.5 -24.5t23.5 -71.5l-4 -45l-4 -45q0 -65 39 -99.5t111 -34.5q75 0 120 39t45 103 q0 54 -33.5 103t-129.5 124l-230 178q-93 73 -132 137q-20 33 -30 67t-10 73zM195 520q0 -63 36.5 -119.5t126.5 -126.5l195 -151q56 -44 96 -82t63 -69q48 -65 48 -128l-3 -26l-7 -37q20 29 31 61q4 13 7 30t3 32q0 66 -46.5 134.5t-138.5 139.5l-211 162q-81 63 -114 114 q-15 25 -23 51.5t-8 57.5q0 28 4 44.5t8 30.5t10 28q-32 -12 -54.5 -52.5t-22.5 -93.5zM242 1067q0 -66 46.5 -135.5t137.5 -138.5l211 -162q77 -59 110 -111.5t33 -113.5q0 -10 -1 -22.5t-4 -25t-6.5 -24t-10.5 -27.5q32 12 55 51.5t23 85.5q0 70 -38 128q-36 61 -124 126 l-195 150q-116 89 -162.5 152.5t-46.5 125.5l3 29l7 34q-18 -26 -28 -56.5t-10 -65.5zM260 -113q0 -53 33 -106t86 -78q-16 25 -24.5 55.5t-8.5 63.5v13.5t4 25.5l4 30q0 27 -12 44q-12 14 -37 14q-22 0 -33.5 -15.5t-11.5 -46.5zM291 571q0 -49 29 -92.5t102 -101.5 l178 -137q67 9 103 52.5t36 110.5q0 43 -30 87t-95 96l-184 143q-67 -18 -103 -59t-36 -99zM653 1268q15 -28 25 -60q4 -15 6 -28t2 -31v-17q-3 -14 -4 -22l-4 -31q0 -28 12 -42.5t37 -14.5q20 0 34.5 16t14.5 43q0 57 -33.5 109.5t-89.5 77.5z" />
<glyph unicode="&#xa8;" horiz-adv-x="1024" d="M223 1026q0 44 32.5 76.5t76.5 32.5q42 0 73 -32.5t31 -74.5q0 -47 -29 -76.5t-75 -29.5q-45 0 -78 30q-31 31 -31 74zM264 1026q0 -20 17.5 -36.5t37.5 -16.5q22 0 39 15t17 38t-17 40q-15 17 -39 17q-20 0 -37.5 -17.5t-17.5 -39.5zM588 1028q0 42 32 74.5t74 32.5 q43 0 75 -32t32 -75q0 -45 -30 -77q-31 -29 -77 -29q-44 0 -75 30t-31 76zM629 1026q0 -20 15.5 -36.5t37.5 -16.5q23 0 40 15t17 38q0 21 -17.5 39t-39.5 18q-20 0 -36.5 -18t-16.5 -39z" />
<glyph unicode="&#xa9;" horiz-adv-x="1683" d="M152 678q0 137 51 262.5t147.5 223.5t225.5 152t268 54q136 0 261 -52t224 -149q94 -93 148.5 -223.5t54.5 -267.5t-53 -262t-150.5 -224t-223 -151.5t-263.5 -52.5q-137 0 -262 51t-225 150.5t-151.5 223.5t-51.5 265zM229 678q0 -126 46 -237.5t134 -200t199.5 -135 t233.5 -46.5q126 0 236 46t197 136t134 203t47 234q0 123 -48 239.5t-131 200.5t-198 132t-235 48q-124 0 -235.5 -46.5t-198.5 -135.5t-134 -202t-47 -236zM432 664q0 184 113.5 310t277.5 126q71 0 144 -33t86 -35q27 0 44 15.5t21 45.5l31 1v-308h-37 q-32 136 -104.5 205.5t-180.5 69.5q-125 0 -191.5 -95.5t-66.5 -281.5q0 -189 69.5 -286t207.5 -97q89 0 160.5 42t126.5 130l30 -20q-53 -101 -140 -154t-196 -53q-164 0 -280 122q-57 61 -86 134.5t-29 161.5z" />
<glyph unicode="&#xaa;" horiz-adv-x="688" d="M45 879q0 68 79.5 112.5t264.5 75.5l2 63v17q0 72 -18.5 98.5t-65.5 26.5q-37 0 -60 -13t-36.5 -41.5t-35.5 -43.5q-23 -13 -54 -13q-9 0 -16 4q-3 3 -5 13q0 13 16.5 34.5t43.5 40.5q51 36 113 55q31 9 63 14t67 5q66 0 97.5 -25t31.5 -79v-4l-2 -273q0 -50 9 -68 q10 -16 32 -16q15 0 36 9.5t32 11.5q11 0 17 -5.5t6 -17.5q0 -10 -40 -29l-28 -14q-19 -10 -46 -23q-20 -10 -33 -15q-24 -9 -44 -9q-37 0 -57.5 20t-26.5 60l-20 -10q-148 -70 -203 -70q-51 0 -85 30t-34 79zM96 893q0 -40 22.5 -63t59.5 -23q15 0 25 2l15 3q20 4 46 15 q-55 0 -82.5 23t-27.5 68q0 20 5.5 36.5t18.5 30.5q-38 -12 -61 -36q-21 -24 -21 -56zM184 922q0 -30 20 -49q22 -17 58 -17q25 0 55.5 7.5t69.5 21.5l2 145q-112 -15 -158.5 -40t-46.5 -68zM355 1292q37 -12 51 -35q16 -22 16 -69v-10l-2 -267v-10q0 -51 12.5 -72.5 t44.5 -21.5q14 0 27.5 3.5t29.5 12.5q-29 6 -44 25q-13 21 -13 63v11l4 274v6q0 48 -20.5 70t-67.5 22l-24 -1z" />
<glyph unicode="&#xab;" horiz-adv-x="977" d="M72 365q117 90 233.5 205.5t134.5 115.5q12 0 19 -6.5t8 -20.5q0 -12 -13 -46.5t-15 -39.5q-11 -19 -15 -28l-94 -180l94 -181q17 -33 30 -67.5t13 -46.5t-6.5 -19t-20.5 -8q-19 0 -135 115q-59 59 -115 109t-118 98zM170 365l126 -129q24 -25 56 -61q24 -26 54 -62 q-35 70 -71 135.5t-69 116.5q17 24 37 57q14 23 34 57q33 57 60 117l-86 -89zM487 365q122 93 236.5 207t132.5 114q13 0 21 -8q8 -6 8 -19q0 -10 -13 -44t-32 -70l-95 -180l95 -181q5 -10 17 -37q9 -19 14.5 -33.5t9 -26t4.5 -17.5q0 -12 -8 -20q-7 -5 -21 -7 q-19 0 -134 114.5t-235 207.5zM588 365l125 -129q24 -25 56 -61q24 -26 54 -62q-24 47 -32 63q-13 24 -36 64q-34 61 -73 125q45 66 76 120t57 111l-86 -89z" />
<glyph unicode="&#xac;" horiz-adv-x="1706" d="M254 774v82h1198v-502h-78v420h-1120z" />
<glyph unicode="&#xad;" horiz-adv-x="653" d="M98 336q0 19 26 33l3 2l297 157q29 16 40.5 30t16.5 37l11 55q3 22 10.5 30t21.5 10q15 0 21 -9t6 -40l-2 -47l-2 -64v-31t4 -50l4 -54q0 -20 -29 -36l-297 -158q-25 -13 -41 -30q-12 -14 -16 -38l-10 -53q-3 -19 -11 -29t-22 -12q-14 0 -20.5 9.5t-6.5 35.5l2 41l2 72 v38q-3 29 -4 44zM160 230q3 6 9 13.5t14 13.5q13 10 50 32l273 143l-4 82l-342 -180v-104z" />
<glyph unicode="&#xae;" horiz-adv-x="1683" d="M152 678q0 137 51 262.5t147.5 223.5t225.5 152t268 54q136 0 261 -52t224 -149q94 -93 148.5 -223.5t54.5 -267.5t-53 -262t-150.5 -224t-223 -151.5t-263.5 -52.5q-137 0 -262 51t-225 150.5t-151.5 223.5t-51.5 265zM229 678q0 -126 46 -237.5t134 -200t199.5 -135 t233.5 -46.5q126 0 236 46t197 136t134 203t47 234q0 123 -48 239.5t-131 200.5t-198 132t-235 48q-124 0 -235.5 -46.5t-198.5 -135.5t-134 -202t-47 -236zM469 293v38q37 0 65 6.5t43 18.5q29 21 29 78v512q0 56 -30 80q-15 11 -41.5 18t-65.5 7v36h391q149 0 232.5 -52.5 t83.5 -143.5q0 -75 -69 -122t-222 -77q91 -30 139 -78.5t72 -136.5l12 -59q15 -88 55 -88t60 30q20 33 20 98l37 1v-8q0 -88 -37 -132.5t-113 -44.5q-44 0 -78 18t-44.5 46t-15 54.5t-4.5 64.5q0 74 -9 100q-23 66 -76.5 96.5t-146.5 30.5l-19 -1l-20 -1v-248q0 -56 29 -78 q16 -12 42.5 -18.5t65.5 -6.5v-38h-385zM717 717q16 0 26 -2h41q127 0 195 45t68 131q0 75 -58 120.5t-160 45.5q-54 0 -83 -20t-29 -56v-264z" />
<glyph unicode="&#xaf;" horiz-adv-x="1024" d="M242 979v94q0 18 10.5 26.5t36.5 8.5h446q27 0 37 -8t10 -27v-94q0 -17 -10 -26q-11 -7 -37 -7h-446q-27 0 -37 7.5t-10 25.5zM274 1006h476v61h-476v-61z" />
<glyph unicode="&#xb0;" horiz-adv-x="674" d="M63 1176q0 114 81 194t194 80q111 0 191.5 -80.5t80.5 -193.5q0 -114 -80 -194q-40 -39 -88 -59t-106 -20q-114 0 -193.5 79t-79.5 194zM125 1176q0 -89 63 -151t150 -62q88 0 150.5 62t62.5 151q0 87 -62.5 150t-150.5 63q-89 0 -151 -62t-62 -151z" />
<glyph unicode="&#xb1;" horiz-adv-x="1706" d="M254 59v82h1198v-82h-1198zM254 727v80h559v354h80v-354h559v-80h-559v-352h-80v352h-559z" />
<glyph unicode="&#xb2;" horiz-adv-x="682" d="M49 514q0 10 42 47t71 66q111 112 166 206.5t55 172.5q0 63 -46 103t-120 40q-30 0 -55 -8.5t-41 -26.5q-6 -6 -15 -24q-12 -27 -30 -27q-8 0 -13 4l-4 12l21 45q20 42 37 99q12 41 104 41q131 0 211 -59.5t80 -157.5q0 -109 -220 -339l-73 -77h143q87 0 117.5 8t46.5 28 l20 25q14 22 29 23q8 -2 10 -4l5 -6q0 -12 -16 -43l-23 -48q-7 -16 -12.5 -33.5t-12.5 -44.5q-11 -42 -26 -42l-13 1q-52 5 -88 5h-278l-41 -2h-6q-12 0 -18.5 3.5t-6.5 12.5zM121 530h364l18 62l-35 -8l-44 -2h-252zM130 1154q8 5 15 7.5t18.5 5t26.5 5t35 2.5 q85 0 136 -46.5t51 -123.5q0 -26 -12 -65q-7 -23 -13.5 -40t-21.5 -47q42 44 66 89.5t24 88.5q0 87 -66.5 141t-177.5 54l-46 -3l-11 -1l-14 -39z" />
<glyph unicode="&#xb3;" horiz-adv-x="682" d="M98 524q0 57 7 82q6 27 22 27q10 0 19 -34l1 -5q9 -37 29 -49.5t62 -12.5q91 0 147.5 51t56.5 134q0 75 -46 122q-22 22 -53 34t-71 12l-27 -1l-20 -1q-11 0 -14.5 2.5t-5.5 15.5q0 9 24 15l22 5q73 21 106.5 53t33.5 77q0 47 -30.5 75.5t-84.5 28.5q-55 0 -94 -32 l-41 -31q-7 0 -12 4l-4 10q0 5 21 38q20 28 34 60l10 23q9 21 14.5 26t26.5 8t64 3q99 0 155 -39.5t56 -112.5q0 -40 -22 -75.5t-68 -65.5q68 -23 105.5 -76.5t37.5 -126.5q0 -121 -98.5 -203t-249.5 -82q-58 0 -85.5 10.5t-27.5 30.5zM195 1163q16 8 39 13l47 4 q62 0 100 -32q39 -30 39 -81q0 -19 -14 -48l-3 -5q23 14 34.5 35t11.5 49q0 59 -46.5 94t-126.5 35q-16 0 -26 -2q-14 0 -25 -5q-5 -14 -13 -28q-6 -14 -17 -29zM304 909q77 -9 123 -60t46 -126q0 -18 -1 -27t-5.5 -26t-8 -27t-12.5 -27q16 14 25.5 27t18.5 33q14 34 14 78 q0 70 -33.5 117.5t-97.5 72.5l-33 -19z" />
<glyph unicode="&#xb4;" horiz-adv-x="1024" d="M430 895l18 41l23 49l64 135q14 35 42 49.5t95 14.5q62 0 87 -11q27 -9 27 -34q0 -24 -38.5 -71t-106.5 -103q-54 -45 -101 -70t-71 -25q-16 0 -27 7.5t-12 17.5zM477 915l21 -6q63 46 115.5 100.5t91.5 114.5l-12 16l-15 2l-19 1q-62 0 -96 -67l-2 -3z" />
<glyph unicode="&#xb5;" horiz-adv-x="1051" d="M-49 -354q0 42 59.5 288.5t98.5 430.5l108 520h119l-111 -518l-6 -42l-2 -46q0 -95 46.5 -153t121.5 -58q98 0 169 84t110 251l110 482h119l-117 -527l-20 -105q-6 -45 -6 -73q0 -45 20 -69.5t55 -24.5q41 0 76.5 27t54.5 75l30 79q24 71 44 71q11 0 18 -7.5t9 -23.5 q0 -31 -16 -83.5t-37 -92.5q-39 -72 -93 -108.5t-118 -36.5q-68 0 -106 45.5t-38 128.5l1 16l1 17q-42 -108 -109.5 -160.5t-160.5 -52.5t-148.5 53.5t-70.5 156.5q-18 -113 -41 -330q-27 -276 -101 -276q-28 0 -48.5 18t-20.5 44z" />
<glyph unicode="&#xb6;" horiz-adv-x="1024" d="M90 1130q0 155 108 252t287 97h447v-64h-129v-1415h-70v1415h-192v-1415h-70v782q-85 0 -154 26.5t-124 75.5q-103 95 -103 246z" />
<glyph unicode="&#xb8;" horiz-adv-x="1024" d="M283 -391q0 13 9 22q11 7 30 7l9 -1l83 -2q60 0 88 20t28 60q0 36 -30 56q-16 9 -41 14.5t-59 5.5l63 209h61l-47 -147h19q116 0 174.5 -38t58.5 -112q0 -78 -62.5 -123t-170.5 -45q-85 0 -149 23.5t-64 50.5zM322 -401q35 -15 75 -25q18 -4 35 -6t39 -2q72 0 120 38.5 t48 96.5q0 51 -35 83q-35 30 -96 30h-16l-3 -15q36 -9 55 -31t19 -53q0 -52 -39 -81q-20 -15 -46.5 -22t-65.5 -7h-12q-6 0 -22 2q-16 0 -52 6z" />
<glyph unicode="&#xb9;" horiz-adv-x="682" d="M166 514q0 19 36 19q21 0 32 4q30 9 40.5 28.5t10.5 77.5v410q0 59 -8 75q-6 17 -25 17q-12 0 -33 -8l-35 -7q-7 3 -9 5l-3 12q0 8 56 32l48 19q24 9 43 18.5t42 22.5q41 23 49 25q6 -2 8 -4l4 -9l-7 -45q-3 -22 -5 -43.5t-2 -42.5v-477q0 -57 9.5 -75.5t40.5 -30.5 l33 -4q37 0 37 -19q0 -8 -6 -14l-16 -4h-21l-139 4q-21 0 -75 -2t-63 -2h-22q-10 0 -15 4q-3 4 -5 14zM283 533l34 3l21 1l48 -4l5 -1q-14 12 -23 40q-6 26 -6 92v391l3 57q0 29 8 90l-44 -22q-22 -10 -44 -15q12 -10 20 -28q6 -17 6 -56v-30v-387q0 -67 -6.5 -92t-21.5 -39 z" />
<glyph unicode="&#xba;" horiz-adv-x="698" d="M53 1051q0 118 89 197t220 79q122 0 201.5 -78.5t79.5 -197.5t-88 -199t-219 -80q-123 0 -203 78.5t-80 200.5zM84 1057q0 -99 56 -169t147 -85q-74 44 -111 112.5t-37 157.5q0 56 18 103.5t60 93.5q-61 -28 -97 -85t-36 -128zM201 1100q0 -124 49 -206.5t119 -82.5 q59 0 93 50t34 136q0 123 -48 205t-118 82q-59 0 -94 -49t-35 -135zM396 1296q62 -36 96 -113t34 -175q0 -67 -18.5 -114t-56.5 -75q57 12 94 74t37 147q0 109 -54 182.5t-132 73.5z" />
<glyph unicode="&#xbb;" horiz-adv-x="977" d="M92 70q0 9 12 42t33 72l92 181l-92 180l-32 71q-11 31 -13 43q0 12 7 18.5t22 8.5q18 0 134 -115q55 -54 116 -108q56 -50 118 -98q-117 -91 -233 -206.5t-135 -115.5q-13 0 -21 7.5t-8 19.5zM154 616q5 -11 30 -58.5t35 -65.5l76 -127q-42 -63 -74.5 -119t-58.5 -113 q21 24 59 63q20 21 41 42l127 127l-123 126zM508 70q0 9 12 42t33 72l94 181l-94 180q-21 41 -33 72.5t-12 41.5q0 12 7 18.5t22 8.5q18 0 134 -115q55 -54 116 -108q56 -50 118 -98q-117 -92 -234 -207t-134 -115q-13 0 -21 7.5t-8 19.5zM569 616l66 -124l76 -127 q-36 -52 -71.5 -114t-61.5 -118q70 76 227 230l2 2l-130 131z" />
<glyph unicode="&#xbc;" horiz-adv-x="1645" d="M158 563q0 19 34 19q21 0 32 4q28 9 37 27.5t9 70.5v383q0 57 -6 71t-22 15l-32 -6q-21 -6 -34 -6l-7 4q-3 3 -3 10q0 11 52 30l46 17q36 14 80 39q38 21 47 23l8 -4l4 -7l-7 -44q-3 -20 -5 -40t-2 -39v-446q0 -55 9 -71t40 -27l31 -4q35 0 35 -19q0 -8 -5 -12l-16 -4 l-22 1l-131 3l-130 -3l-22 -1q-10 0 -14 3t-6 13zM271 582l30 3l23 1l18 -1l30 -3q-12 11 -20 36q-6 24 -6 84v367l2 54l8 83l-43 -20l-41 -15q15 -9 21 -26.5t6 -50.5v-29v-363q0 -56 -6.5 -81t-21.5 -39zM317 -10l2 6l7 11l897 1240q12 15 22 22q10 5 25 7h35 q7 -3 10 -5.5t4 -10.5l-2 -4l-6 -10l-897 -1242q-11 -14 -21.5 -21t-25.5 -8h-35q-6 0 -11 5zM1012 244q0 8 103 111q110 108 192 196l94 106q47 55 53 56q13 0 19.5 -2t9.5 -9l-8 -44q-3 -20 -5 -40t-2 -38v-316q31 0 50 8.5t38 28.5q5 4 15.5 19.5t19.5 15.5q6 0 11 -4 l4 -10l-6 -27l-15 -37q-21 -39 -43 -39l-10 1l-64 3v-88q0 -52 8 -71q9 -17 31 -29l21 -3q33 0 33 -20q0 -8 -7 -12l-16 -4h-8l-121 4l-129 -3l-16 -1q-12 0 -20 4q-5 4 -7 12q0 19 36 19q21 0 32 4q27 9 37 28.5t10 71.5v88h-211q-29 0 -45 -1t-48 -6l-12 -1q-2 1 -3 2 q-5 4 -8 7l-9 12l-3 3zM1079 264h273v277q-87 -96 -150 -159q-57 -59 -123 -118zM1352 31l30 3l21 1l20 -1l31 -3q-13 12 -21 36q-6 24 -6 85v471l-49 -56v-415q0 -59 -6 -84.5t-20 -36.5z" />
<glyph unicode="&#xbd;" horiz-adv-x="1645" d="M158 563q0 19 34 19q21 0 32 4q28 9 37 27.5t9 70.5v383q0 57 -6 71t-22 15l-32 -6q-21 -6 -34 -6l-7 4q-3 3 -3 10q0 11 52 30l46 17q36 14 80 39q38 21 47 23l8 -4l4 -7l-7 -44q-3 -20 -5 -40t-2 -39v-446q0 -55 9 -71t40 -27l31 -4q35 0 35 -19q0 -8 -5 -12l-16 -4 l-22 1l-131 3l-130 -3l-22 -1q-10 0 -14 3t-6 13zM271 582l30 3l23 1l18 -1l30 -3q-12 11 -20 36q-6 24 -6 84v367l2 54l8 83l-43 -20l-41 -15q15 -9 21 -26.5t6 -50.5v-29v-363q0 -56 -6.5 -81t-21.5 -39zM317 -10l2 6l7 11l897 1240q12 15 22 22q10 5 25 7h35 q7 -3 10 -5.5t4 -10.5l-2 -4l-6 -10l-897 -1242q-11 -14 -21.5 -21t-25.5 -8h-35q-6 0 -11 5zM1040 14q0 8 42 46q39 33 65 59q105 104 159 192.5t54 159.5q0 59 -44.5 97t-115.5 38q-21 0 -30.5 -1t-27 -7.5t-32.5 -24.5q-5 -5 -14 -23q-13 -26 -30 -26q-7 0 -11 4t-4 13 l19 42q17 39 34 91q12 39 100 39q126 0 202.5 -55.5t76.5 -147.5q0 -100 -210 -315l-71 -74h137q77 0 108 7t50 28l18 24q14 21 27 21l10 -3l4 -8q0 -8 -15 -38q-16 -28 -21 -43q-13 -30 -25 -74q-9 -40 -25 -41l-12 1q-42 4 -58 4.5t-26 0.5h-266h-18t-22 -2h-5 q-10 0 -16.5 4.5t-6.5 11.5zM1108 29h348l19 57l-38 -6l-40 -2h-238zM1117 609q15 9 37.5 14.5t53.5 5.5q81 0 129.5 -43.5t48.5 -114.5q0 -16 -2 -29.5t-8.5 -34t-13.5 -37.5t-21 -42q41 40 63.5 85t22.5 83q0 80 -63.5 130t-169.5 50l-31 -1l-24 -3l-19 -54z" />
<glyph unicode="&#xbe;" horiz-adv-x="1645" d="M92 573q0 51 7 75.5t22 25.5q11 0 20 -32q7 -37 26 -48.5t58 -11.5q89 0 143 47t54 125q0 73 -44.5 115t-117.5 42l-26 -2l-19 -2q-12 0 -15 3t-5 16q0 9 25 15l21 5q69 21 101.5 50t32.5 69q0 45 -29.5 71.5t-81.5 26.5q-51 0 -90 -30l-39 -29q-7 0 -12 4l-4 10q3 5 5 9 q8 13 16 25q20 27 32 56l3 7q13 34 19.5 39t27.5 8l59 2q95 0 148.5 -37t53.5 -105q0 -36 -20.5 -67.5t-67.5 -63.5q66 -21 101.5 -70t35.5 -118q0 -114 -94 -190t-237 -76q-53 0 -81 9t-28 27zM187 1170q15 8 36 12l43 4q58 0 95.5 -30.5t37.5 -76.5l-3 -22l-10 -26 q21 10 31.5 30.5t10.5 48.5q0 55 -44 87t-120 32l-45 -4h-4l-22 -44zM289 934q75 -9 119.5 -56.5t44.5 -119.5q0 -22 -5 -42t-8.5 -30t-11.5 -27q25 23 38 56t13 71q0 66 -30.5 112t-92.5 69l-29 -17zM317 -10l2 6l7 11l897 1240q12 15 22 22q10 5 25 7h35q7 -3 10 -5.5 t4 -10.5l-2 -4l-6 -10l-897 -1242q-11 -14 -21.5 -21t-25.5 -8h-35q-6 0 -11 5zM1012 244q0 8 103 111q110 108 192 196l94 106q47 55 53 56q13 0 19.5 -2t9.5 -9l-8 -44q-3 -20 -5 -40t-2 -38v-316q31 0 50 8.5t38 28.5q5 4 15.5 19.5t19.5 15.5q6 0 11 -4l4 -10l-6 -27 l-15 -37q-21 -39 -43 -39l-10 1l-64 3v-88q0 -52 8 -71q9 -17 31 -29l21 -3q33 0 33 -20q0 -8 -7 -12l-16 -4h-8l-121 4l-129 -3l-16 -1q-12 0 -20 4q-5 4 -7 12q0 19 36 19q21 0 32 4q27 9 37 28.5t10 71.5v88h-211q-29 0 -45 -1t-48 -6l-12 -1q-2 1 -3 2q-5 4 -8 7l-9 12 l-3 3zM1079 264h273v277q-87 -96 -150 -159q-57 -59 -123 -118zM1352 31l30 3l21 1l20 -1l31 -3q-13 12 -21 36q-6 24 -6 85v471l-49 -56v-415q0 -59 -6 -84.5t-20 -36.5z" />
<glyph unicode="&#xbf;" horiz-adv-x="952" d="M156 293q0 120 66.5 204.5t205.5 139.5l34 13q66 24 75 47q2 6 5 21t5 30l4 79v37q21 11 45 22q15 7 43 19q39 17 82 31l10 -8q0 -26 -1.5 -60.5t-2.5 -74.5q0 -34 -5 -65.5t-7 -43.5l-13 -14q-179 -47 -260.5 -132t-81.5 -227q0 -135 55.5 -213t153.5 -78 q61 0 96.5 27.5t53.5 87.5l8 49q0 47 29 47q17 0 24.5 -11t7.5 -38v-86v-12q0 -42 -5 -56q-3 -18 -17 -24q-30 -15 -96 -27t-135 -12q-174 0 -276.5 90t-102.5 238zM250 301q0 -126 58 -204t159 -87q-67 30 -106 108t-39 183q0 102 37 178t114 129q-107 -22 -165 -101 t-58 -206zM526 1147v70q37 16 64.5 45t42.5 67h65q9 -37 35.5 -67.5t75.5 -59.5v-55q-42 -21 -66 -51t-36 -72h-70q-18 46 -46 75q-26 31 -65 48zM610 1171l35 -33l31 -38l25 27l42 40l-27 28l-38 46l-31 -34zM612 698l58 17l6 53l2 66v36l-59 -24l-6 -54l-1 -55v-39z" />
<glyph unicode="&#xc0;" horiz-adv-x="1284" d="M-29 25q0 30 43 36q17 0 30 5q75 30 174 262l28 63l329 754q10 22 18.5 46.5t22.5 63.5q29 88 56 88q24 0 58 -132.5t73 -229.5l254 -647l1 -4q93 -239 186 -265l18 -3q45 -6 45 -39q0 -16 -11 -24q-9 -9 -28 -9l-94 5q-38 0 -62 1q-94 4 -100 4q-33 0 -92 -2.5t-74 -2.5 l-92 -5q-21 0 -29 8t-8 31q0 17 10.5 24t50.5 13q54 6 79.5 25.5t25.5 53.5q0 39 -30 119l-65 174h-452l-47 -123q-8 -23 -14.5 -43.5t-14.5 -50.5q-4 -18 -7 -38t-3 -33q0 -42 23 -62q23 -17 80 -23q56 -9 59 -38q0 -18 -9.5 -27.5t-31.5 -9.5l-74 5l-113 5q-20 0 -44.5 -1 t-53.5 -4l-74 -5q-19 0 -30 8.5t-11 26.5zM365 508h399l-189 502zM436 1717q0 23 27 34q13 5 35 8t53 3q67 0 92 -14q25 -12 43 -50l66 -135l10 -21l31 -69q0 -8 -10.5 -15.5t-28.5 -9.5q-27 0 -73.5 25t-98.5 70q-66 52 -106 100.5t-40 73.5zM516 1702q36 -56 87.5 -109 t121.5 -106l21 6l-86 158l-2 3q-35 67 -97 67l-19 -1l-14 -2zM604 1071l295 -795q25 -65 34 -100.5t9 -52.5l-3 -24l-11 -37l50 3l32 1l32 -1l49 -3q-37 35 -114 239l-6 16l-324 865z" />
<glyph unicode="&#xc1;" horiz-adv-x="1284" d="M-29 25q0 30 43 36q17 0 30 5q75 30 174 262l28 63l329 754q10 22 18.5 46.5t22.5 63.5q29 88 56 88q24 0 58 -132.5t73 -229.5l254 -647l1 -4q93 -239 186 -265l18 -3q45 -6 45 -39q0 -16 -11 -24q-9 -9 -28 -9l-94 5q-38 0 -62 1q-94 4 -100 4q-33 0 -92 -2.5t-74 -2.5 l-92 -5q-21 0 -29 8t-8 31q0 17 10.5 24t50.5 13q54 6 79.5 25.5t25.5 53.5q0 39 -30 119l-65 174h-452l-47 -123q-8 -23 -14.5 -43.5t-14.5 -50.5q-4 -18 -7 -38t-3 -33q0 -42 23 -62q23 -17 80 -23q56 -9 59 -38q0 -18 -9.5 -27.5t-31.5 -9.5l-74 5l-113 5q-20 0 -44.5 -1 t-53.5 -4l-74 -5q-19 0 -30 8.5t-11 26.5zM365 508h399l-189 502zM596 1473l18 41l23 49l64 135q14 35 42 49.5t95 14.5q62 0 87 -11q27 -9 27 -34q0 -24 -38.5 -71t-106.5 -103q-54 -45 -101 -70t-71 -25q-16 0 -27 7.5t-12 17.5zM604 1071l295 -795q25 -65 34 -100.5 t9 -52.5l-3 -24l-11 -37l50 3l32 1l32 -1l49 -3q-37 35 -114 239l-6 16l-324 865zM643 1493l21 -6q63 46 115.5 100.5t91.5 114.5l-12 16l-15 2l-19 1q-62 0 -96 -67l-2 -3z" />
<glyph unicode="&#xc2;" horiz-adv-x="1284" d="M-29 25q0 30 43 36q17 0 30 5q75 30 174 262l28 63l329 754q10 22 18.5 46.5t22.5 63.5q29 88 56 88q24 0 58 -132.5t73 -229.5l254 -647l1 -4q93 -239 186 -265l18 -3q45 -6 45 -39q0 -16 -11 -24q-9 -9 -28 -9l-94 5q-38 0 -62 1q-94 4 -100 4q-33 0 -92 -2.5t-74 -2.5 l-92 -5q-21 0 -29 8t-8 31q0 17 10.5 24t50.5 13q54 6 79.5 25.5t25.5 53.5q0 39 -30 119l-65 174h-452l-47 -123q-8 -23 -14.5 -43.5t-14.5 -50.5q-4 -18 -7 -38t-3 -33q0 -42 23 -62q23 -17 80 -23q56 -9 59 -38q0 -18 -9.5 -27.5t-31.5 -9.5l-74 5l-113 5q-20 0 -44.5 -1 t-53.5 -4l-74 -5q-19 0 -30 8.5t-11 26.5zM365 508h399l-189 502zM414 1469l75 93q75 93 99 198h186q18 -88 93 -176t75 -103q0 -14 -8.5 -21.5t-24.5 -7.5q-47 0 -126 50t-154 133q-81 -102 -124.5 -142.5t-70.5 -40.5q-10 0 -14 3.5t-6 13.5zM604 1071l295 -795 q25 -65 34 -100.5t9 -52.5l-3 -24l-11 -37l50 3l32 1l32 -1l49 -3q-37 35 -114 239l-6 16l-324 865zM649 1678q64 -77 131 -129.5t121 -67.5l6 12q-39 32 -89 90q-21 25 -49 61.5t-52 70.5h-51z" />
<glyph unicode="&#xc3;" horiz-adv-x="1284" d="M-29 25q0 30 43 36q17 0 30 5q75 30 174 262l28 63l329 754q10 22 18.5 46.5t22.5 63.5q29 88 56 88q24 0 58 -132.5t73 -229.5l254 -647l1 -4q93 -239 186 -265l18 -3q45 -6 45 -39q0 -16 -11 -24q-9 -9 -28 -9l-94 5q-38 0 -62 1q-94 4 -100 4q-33 0 -92 -2.5t-74 -2.5 l-92 -5q-21 0 -29 8t-8 31q0 17 10.5 24t50.5 13q54 6 79.5 25.5t25.5 53.5q0 39 -30 119l-65 174h-452l-47 -123q-8 -23 -14.5 -43.5t-14.5 -50.5q-4 -18 -7 -38t-3 -33q0 -42 23 -62q23 -17 80 -23q56 -9 59 -38q0 -18 -9.5 -27.5t-31.5 -9.5l-74 5l-113 5q-20 0 -44.5 -1 t-53.5 -4l-74 -5q-19 0 -30 8.5t-11 26.5zM365 508h399l-189 502zM371 1469q15 100 78.5 163.5t150.5 63.5q37 0 103.5 -18.5t99.5 -18.5q46 0 75 20t42 60h65q-9 -103 -71.5 -170t-149.5 -67q-32 0 -105 18.5t-108 18.5q-44 0 -71.5 -17.5t-39.5 -52.5h-69zM414 1516l14 -6 q35 44 77 68q42 22 89 22q37 0 103.5 -18.5t97.5 -18.5q52 0 86.5 28.5t50.5 86.5l-14 4q-18 -32 -47 -48t-68 -16q-35 0 -104 18.5t-97 18.5q-64 0 -110.5 -34.5t-77.5 -104.5zM604 1071l295 -795q25 -65 34 -100.5t9 -52.5l-3 -24l-11 -37l50 3l32 1l32 -1l49 -3 q-37 35 -114 239l-6 16l-324 865z" />
<glyph unicode="&#xc4;" horiz-adv-x="1284" d="M-29 25q0 30 43 36q17 0 30 5q75 30 174 262l28 63l329 754q10 22 18.5 46.5t22.5 63.5q29 88 56 88q24 0 58 -132.5t73 -229.5l254 -647l1 -4q93 -239 186 -265l18 -3q45 -6 45 -39q0 -16 -11 -24q-9 -9 -28 -9l-94 5q-38 0 -62 1q-94 4 -100 4q-33 0 -92 -2.5t-74 -2.5 l-92 -5q-21 0 -29 8t-8 31q0 17 10.5 24t50.5 13q54 6 79.5 25.5t25.5 53.5q0 39 -30 119l-65 174h-452l-47 -123q-8 -23 -14.5 -43.5t-14.5 -50.5q-4 -18 -7 -38t-3 -33q0 -42 23 -62q23 -17 80 -23q56 -9 59 -38q0 -18 -9.5 -27.5t-31.5 -9.5l-74 5l-113 5q-20 0 -44.5 -1 t-53.5 -4l-74 -5q-19 0 -30 8.5t-11 26.5zM365 508h399l-189 502zM389 1604q0 44 32.5 76.5t76.5 32.5q42 0 73 -32.5t31 -74.5q0 -47 -29 -76.5t-75 -29.5q-45 0 -78 30q-31 31 -31 74zM430 1604q0 -20 17.5 -36.5t37.5 -16.5q22 0 39 15t17 38t-17 40q-15 17 -39 17 q-20 0 -37.5 -17.5t-17.5 -39.5zM604 1071l295 -795q25 -65 34 -100.5t9 -52.5l-3 -24l-11 -37l50 3l32 1l32 -1l49 -3q-37 35 -114 239l-6 16l-324 865zM754 1606q0 42 32 74.5t74 32.5q43 0 75 -32t32 -75q0 -45 -30 -77q-31 -29 -77 -29q-44 0 -75 30t-31 76zM795 1604 q0 -20 15.5 -36.5t37.5 -16.5q23 0 40 15t17 38q0 21 -17.5 39t-39.5 18q-20 0 -36.5 -18t-16.5 -39z" />
<glyph unicode="&#xc5;" horiz-adv-x="1284" d="M-29 25q0 30 41 37q21 3 31 8q74 27 176 259l27 62l329 754q10 22 18.5 46.5t22.5 63.5q29 88 56 88q25 0 58 -132q15 -61 33.5 -121t37.5 -109l256 -647l1 -4q93 -239 185 -260l22 -6q42 -11 42 -41q0 -16 -11 -24q-9 -9 -28 -9l-94 5q-38 0 -62 1q-94 4 -100 4 q-33 0 -92 -2.5t-74 -2.5l-92 -5q-21 0 -29 8t-8 31q0 27 59 40l3 1q24 0 43.5 5.5t34.5 15.5q26 18 26 54q0 39 -30 119l-65 174h-452l-47 -123q-8 -23 -14.5 -43.5t-14.5 -50.5q-4 -18 -7 -38t-3 -33q0 -42 23 -62q24 -18 79 -18l11 -3q49 -12 49 -40q0 -18 -9.5 -27.5 t-31.5 -9.5l-74 5l-113 5q-20 0 -44.5 -1t-53.5 -4l-74 -5q-19 0 -30 8.5t-11 26.5zM365 508h399l-189 502zM479 1587q0 79 54 135t135 56q80 0 136 -55t56 -136q0 -79 -56.5 -134.5t-135.5 -55.5q-81 0 -135 54t-54 136zM535 1587q0 -57 38.5 -96t94.5 -39t96.5 39.5 t40.5 95.5q0 57 -39.5 96t-97.5 39q-54 0 -93.5 -39.5t-39.5 -95.5zM604 1071l295 -795q25 -65 34 -100.5t9 -52.5q0 -12 -4 -24l-10 -29h82h82q-37 26 -116 233l-5 14l-324 865z" />
<glyph unicode="&#xc6;" horiz-adv-x="1901" d="M-78 25q0 33 57 39l29 4q117 66 337 430l3 6l309 508q11 19 25 47.5t22 48.5q17 43 17 72q0 26 -17 36q-8 6 -25.5 10.5t-42.5 4.5q-25 3 -36.5 13t-11.5 30q0 16 14 25.5t41 9.5l72 -1l88 -1h575q40 0 120 3t120 3l33 2l32 -6l10 -10l3 -7l-4 -25q-21 -120 -21 -241 l1 -19l1 -34q0 -14 -9.5 -23.5t-23.5 -9.5q-24 0 -28.5 28t-6.5 37.5t-8 25.5q-38 108 -107 154t-194 46h-77q-85 0 -114 -44q-14 -22 -21 -69.5t-7 -124.5l1 -276q13 0 42 -1t45 -1h127q42 0 83.5 1t87.5 3q26 0 44 4.5t30 12.5q22 14 39 59t44 45q12 0 19.5 -8t7.5 -25 l-12 -89q-5 -37 -8 -80t-3 -83l2 -53l2 -35q0 -14 -9.5 -23.5t-23.5 -9.5q-11 0 -21 9t-11 23l-5 39q-6 68 -30 95q-21 21 -75.5 30t-178.5 9l-117 -1l-79 -1l-1 -293q0 -188 34.5 -232t135.5 -44q63 0 119 11t113 36q109 46 180 129q36 42 64 105t49 63q12 0 22 -7.5 t12 -19.5q0 -17 -31 -119q-14 -47 -23.5 -95t-14.5 -91q0 -45 -16.5 -68.5t-43.5 -23.5l-14 1q-41 5 -90.5 8t-99.5 3h-625q-19 0 -42.5 -1t-50.5 -4l-67 -5q-20 0 -30.5 8.5t-10.5 26.5q0 29 51 38q15 0 32 5q75 9 100.5 47.5t25.5 189.5v133h-465l-67 -125 q-18 -31 -28 -51.5t-22 -48.5q-4 -10 -10 -31t-6 -37q0 -32 18 -52q18 -17 55 -25l12 -6q26 -12 26 -37q0 -18 -10 -26.5t-31 -8.5q-7 0 -26.5 1t-49.5 4l-102 5q-25 0 -53.5 -1t-59.5 -4l-74 -5q-22 0 -31.5 8t-9.5 27zM434 508h422v727l-220 -377zM879 62l39 4l38 2 q24 0 37 -2l35 -4q-23 51 -35 131q-4 35 -7 92t-3 123v479q0 141 10.5 217.5t34.5 126.5h-125v-893q0 -155 -6 -206q-4 -47 -18 -70zM1460 1251q56 -22 90 -53q35 -29 62 -77l6 76q3 35 10 65zM1479 68h190q4 44 11 80t16 67q-34 -48 -89 -85.5t-128 -61.5z" />
<glyph unicode="&#xc7;" horiz-adv-x="1417" d="M92 649q0 167 74.5 313t208.5 246q88 66 199 101q52 16 112 25t121 9q96 0 217 -35.5t150 -35.5q39 0 63 27.5t35 29.5q13 0 21 -8q9 -6 10 -16l-4 -15q-21 -78 -21 -174q0 -32 3 -67t10 -76l3 -25q0 -15 -8 -25t-22 -10q-24 0 -44 57l-12 34q-46 132 -142 196t-247 64 q-206 0 -339.5 -165t-133.5 -427q0 -283 142.5 -460t369.5 -177q127 0 207 52t133 171l29 82q21 70 45 70q16 0 27.5 -8t11.5 -19l-26 -119q-25 -119 -25 -225v-27q0 -13 -6.5 -19.5t-20.5 -6.5l-30 4l-36 4q-18 0 -138 -18q-59 -9 -112.5 -14t-103.5 -5h-18l-33 -104h19 q116 0 174.5 -38t58.5 -112q0 -78 -62.5 -123t-170.5 -45q-85 0 -149 23.5t-64 50.5q0 13 9 22q11 7 30 7l9 -1l83 -2q60 0 88 20t28 60q0 36 -30 56q-16 9 -41 14.5t-59 5.5l51 169q-102 9 -193 42q-122 45 -221 133q-112 100 -171 233t-59 281zM158 649q0 -225 127 -395.5 t325 -212.5q-174 90 -270 247.5t-96 352.5q0 209 94.5 367.5t273.5 251.5q-200 -34 -327 -203t-127 -408zM607 -401q35 -15 75 -25q18 -4 35 -6t39 -2q72 0 120 38.5t48 96.5q0 51 -35 83q-35 30 -96 30h-16l-3 -15q36 -9 55 -31t19 -53q0 -52 -39 -81q-20 -15 -46.5 -22 t-65.5 -7h-12q-6 0 -22 2q-16 0 -52 6z" />
<glyph unicode="&#xc8;" horiz-adv-x="1298" d="M43 25q0 29 52 38l31 4q77 9 102.5 48t25.5 190v688q0 151 -24.5 188.5t-102.5 49.5l-32 5q-50 6 -50 38q0 17 9 26t32 9l67 -1l93 -1h530q40 0 119 3t119 3l33 2l32 -6l10 -10l3 -7l-4 -25q-21 -120 -21 -241l2 -19l2 -34q0 -14 -9.5 -23.5t-23.5 -9.5q-24 0 -30 35.5 t-13 55.5q-37 107 -108 153.5t-195 46.5h-76q-84 0 -113 -44q-14 -22 -21 -69.5t-7 -124.5v-276q13 0 42 -1t46 -1h127q42 0 83.5 1t87.5 3q25 0 43.5 4.5t29.5 11.5q24 15 39 60t43 45q11 0 20 -9q6 -8 8 -24l-11 -89q-5 -37 -8 -80t-3 -83l2 -53l2 -35q0 -14 -9.5 -23.5 t-23.5 -9.5q-13 0 -22 7.5t-10 20.5l-5 38q-8 74 -30.5 97.5t-77 32.5t-176.5 9l-117 -1l-79 -1l-1 -293q0 -188 34.5 -232t135.5 -44q123 0 230.5 47t179.5 129q38 44 65.5 106t48.5 62q15 0 24 -7.5t11 -19.5q0 -19 -31 -119t-40 -186l-1 -8q0 -84 -57 -84l-15 1 q-41 5 -90 8t-100 3h-624q-38 0 -94 -6l-68 -6q-19 0 -31 9q-10 10 -10 28zM277 62l39 4l38 2q24 0 37 -2l35 -4q-23 51 -35 131q-4 35 -7 92t-3 123v479q0 142 10.5 219.5t34.5 128.5l-37 -2l-37 -2l-38 2l-37 2q12 -21 18 -70t6 -207v-620q0 -155 -6 -206q-4 -47 -18 -70z M407 1717q0 23 27 34q13 5 35 8t53 3q67 0 92 -14q25 -12 43 -50l66 -135l10 -21l31 -69q0 -8 -10.5 -15.5t-28.5 -9.5q-27 0 -73.5 25t-98.5 70q-66 52 -106 100.5t-40 73.5zM487 1702q36 -56 87.5 -109t121.5 -106l21 6l-86 158l-2 3q-35 67 -97 67l-19 -1l-14 -2z M858 1251q56 -22 90 -53q36 -30 61 -77q0 35 5 73q3 37 10 68zM877 61h192q2 27 4.5 50t8 52t5.5 31l7 21q-34 -49 -88.5 -86.5t-128.5 -67.5z" />
<glyph unicode="&#xc9;" horiz-adv-x="1298" d="M43 25q0 29 52 38l31 4q77 9 102.5 48t25.5 190v688q0 151 -24.5 188.5t-102.5 49.5l-32 5q-50 6 -50 38q0 17 9 26t32 9l67 -1l93 -1h530q40 0 119 3t119 3l33 2l32 -6l10 -10l3 -7l-4 -25q-21 -120 -21 -241l2 -19l2 -34q0 -14 -9.5 -23.5t-23.5 -9.5q-24 0 -30 35.5 t-13 55.5q-37 107 -108 153.5t-195 46.5h-76q-84 0 -113 -44q-14 -22 -21 -69.5t-7 -124.5v-276q13 0 42 -1t46 -1h127q42 0 83.5 1t87.5 3q25 0 43.5 4.5t29.5 11.5q24 15 39 60t43 45q11 0 20 -9q6 -8 8 -24l-11 -89q-5 -37 -8 -80t-3 -83l2 -53l2 -35q0 -14 -9.5 -23.5 t-23.5 -9.5q-13 0 -22 7.5t-10 20.5l-5 38q-8 74 -30.5 97.5t-77 32.5t-176.5 9l-117 -1l-79 -1l-1 -293q0 -188 34.5 -232t135.5 -44q123 0 230.5 47t179.5 129q38 44 65.5 106t48.5 62q15 0 24 -7.5t11 -19.5q0 -19 -31 -119t-40 -186l-1 -8q0 -84 -57 -84l-15 1 q-41 5 -90 8t-100 3h-624q-38 0 -94 -6l-68 -6q-19 0 -31 9q-10 10 -10 28zM277 62l39 4l38 2q24 0 37 -2l35 -4q-23 51 -35 131q-4 35 -7 92t-3 123v479q0 142 10.5 219.5t34.5 128.5l-37 -2l-37 -2l-38 2l-37 2q12 -21 18 -70t6 -207v-620q0 -155 -6 -206q-4 -47 -18 -70z M567 1473l18 41l23 49l64 135q14 35 42 49.5t95 14.5q62 0 87 -11q27 -9 27 -34q0 -24 -38.5 -71t-106.5 -103q-54 -45 -101 -70t-71 -25q-16 0 -27 7.5t-12 17.5zM614 1493l21 -6q63 46 115.5 100.5t91.5 114.5l-12 16l-15 2l-19 1q-62 0 -96 -67l-2 -3zM858 1251 q56 -22 90 -53q36 -30 61 -77q0 35 5 73q3 37 10 68zM877 61h192q2 27 4.5 50t8 52t5.5 31l7 21q-34 -49 -88.5 -86.5t-128.5 -67.5z" />
<glyph unicode="&#xca;" horiz-adv-x="1298" d="M43 25q0 29 52 38l31 4q77 9 102.5 48t25.5 190v688q0 151 -24.5 188.5t-102.5 49.5l-32 5q-50 6 -50 38q0 17 9 26t32 9l67 -1l93 -1h530q40 0 119 3t119 3l33 2l32 -6l10 -10l3 -7l-4 -25q-21 -120 -21 -241l2 -19l2 -34q0 -14 -9.5 -23.5t-23.5 -9.5q-24 0 -30 35.5 t-13 55.5q-37 107 -108 153.5t-195 46.5h-76q-84 0 -113 -44q-14 -22 -21 -69.5t-7 -124.5v-276q13 0 42 -1t46 -1h127q42 0 83.5 1t87.5 3q25 0 43.5 4.5t29.5 11.5q24 15 39 60t43 45q11 0 20 -9q6 -8 8 -24l-11 -89q-5 -37 -8 -80t-3 -83l2 -53l2 -35q0 -14 -9.5 -23.5 t-23.5 -9.5q-13 0 -22 7.5t-10 20.5l-5 38q-8 74 -30.5 97.5t-77 32.5t-176.5 9l-117 -1l-79 -1l-1 -293q0 -188 34.5 -232t135.5 -44q123 0 230.5 47t179.5 129q38 44 65.5 106t48.5 62q15 0 24 -7.5t11 -19.5q0 -19 -31 -119t-40 -186l-1 -8q0 -84 -57 -84l-15 1 q-41 5 -90 8t-100 3h-624q-38 0 -94 -6l-68 -6q-19 0 -31 9q-10 10 -10 28zM277 62l39 4l38 2q24 0 37 -2l35 -4q-23 51 -35 131q-4 35 -7 92t-3 123v479q0 142 10.5 219.5t34.5 128.5l-37 -2l-37 -2l-38 2l-37 2q12 -21 18 -70t6 -207v-620q0 -155 -6 -206q-4 -47 -18 -70z M385 1469l75 93q75 93 99 198h186q18 -88 93 -176t75 -103q0 -14 -8.5 -21.5t-24.5 -7.5q-47 0 -126 50t-154 133q-81 -102 -124.5 -142.5t-70.5 -40.5q-10 0 -14 3.5t-6 13.5zM620 1678q64 -77 131 -129.5t121 -67.5l6 12q-39 32 -89 90q-21 25 -49 61.5t-52 70.5h-51z M858 1251q56 -22 90 -53q36 -30 61 -77q0 35 5 73q3 37 10 68zM877 61h192q2 27 4.5 50t8 52t5.5 31l7 21q-34 -49 -88.5 -86.5t-128.5 -67.5z" />
<glyph unicode="&#xcb;" horiz-adv-x="1298" d="M43 25q0 29 52 38l31 4q77 9 102.5 48t25.5 190v688q0 151 -24.5 188.5t-102.5 49.5l-32 5q-50 6 -50 38q0 17 9 26t32 9l67 -1l93 -1h530q40 0 119 3t119 3l33 2l32 -6l10 -10l3 -7l-4 -25q-21 -120 -21 -241l2 -19l2 -34q0 -14 -9.5 -23.5t-23.5 -9.5q-24 0 -30 35.5 t-13 55.5q-37 107 -108 153.5t-195 46.5h-76q-84 0 -113 -44q-14 -22 -21 -69.5t-7 -124.5v-276q13 0 42 -1t46 -1h127q42 0 83.5 1t87.5 3q25 0 43.5 4.5t29.5 11.5q24 15 39 60t43 45q11 0 20 -9q6 -8 8 -24l-11 -89q-5 -37 -8 -80t-3 -83l2 -53l2 -35q0 -14 -9.5 -23.5 t-23.5 -9.5q-13 0 -22 7.5t-10 20.5l-5 38q-8 74 -30.5 97.5t-77 32.5t-176.5 9l-117 -1l-79 -1l-1 -293q0 -188 34.5 -232t135.5 -44q123 0 230.5 47t179.5 129q38 44 65.5 106t48.5 62q15 0 24 -7.5t11 -19.5q0 -19 -31 -119t-40 -186l-1 -8q0 -84 -57 -84l-15 1 q-41 5 -90 8t-100 3h-624q-38 0 -94 -6l-68 -6q-19 0 -31 9q-10 10 -10 28zM277 62l39 4l38 2q24 0 37 -2l35 -4q-23 51 -35 131q-4 35 -7 92t-3 123v479q0 142 10.5 219.5t34.5 128.5l-37 -2l-37 -2l-38 2l-37 2q12 -21 18 -70t6 -207v-620q0 -155 -6 -206q-4 -47 -18 -70z M360 1604q0 44 32.5 76.5t76.5 32.5q42 0 73 -32.5t31 -74.5q0 -47 -29 -76.5t-75 -29.5q-45 0 -78 30q-31 31 -31 74zM401 1604q0 -20 17.5 -36.5t37.5 -16.5q22 0 39 15t17 38t-17 40q-15 17 -39 17q-20 0 -37.5 -17.5t-17.5 -39.5zM725 1606q0 42 32 74.5t74 32.5 q43 0 75 -32t32 -75q0 -45 -30 -77q-31 -29 -77 -29q-44 0 -75 30t-31 76zM766 1604q0 -20 15.5 -36.5t37.5 -16.5q23 0 40 15t17 38q0 21 -17.5 39t-39.5 18q-20 0 -36.5 -18t-16.5 -39zM858 1251q56 -22 90 -53q36 -30 61 -77q0 35 5 73q3 37 10 68zM877 61h192 q2 27 4.5 50t8 52t5.5 31l7 21q-34 -49 -88.5 -86.5t-128.5 -67.5z" />
<glyph unicode="&#xcc;" horiz-adv-x="729" d="M43 25q0 29 52 38l31 4q77 9 102.5 48t25.5 190v688q0 151 -24.5 189.5t-102.5 50.5l-31 4q-51 5 -51 37q0 17 9.5 25t31.5 8l100 -7q31 0 91 -3t88 -3q27 0 86 3t91 3l101 7q22 0 31.5 -7.5t9.5 -23.5q0 -38 -60 -38q-16 0 -29 -1t-23 -4q-54 -19 -74.5 -93t-20.5 -329 v-324q0 -258 19.5 -329t74.5 -90l52 -5q61 0 61 -38q0 -17 -9.5 -26t-31.5 -9l-101 5q-40 0 -103.5 2.5t-73.5 2.5q-40 0 -103 -2.5t-77 -2.5l-101 -5q-20 0 -30.5 8.5t-10.5 26.5zM123 1717q0 23 27 34q13 5 35 8t53 3q67 0 92 -14q25 -12 43 -50l66 -135l10 -21l31 -69 q0 -8 -10.5 -15.5t-28.5 -9.5q-27 0 -73.5 25t-98.5 70q-66 52 -106 100.5t-40 73.5zM203 1702q36 -56 87.5 -109t121.5 -106l21 6l-86 158l-2 3q-35 67 -97 67l-19 -1l-14 -2zM277 62l39 4l38 2q24 0 37 -2l35 -4q-22 51 -33 126q-4 34 -7 92.5t-3 127.5v479 q0 150 9.5 222.5t33.5 125.5l-37 -1l-37 -1l-38 1l-37 1q12 -21 18 -70t6 -207v-620q0 -155 -6 -206q-4 -47 -18 -70z" />
<glyph unicode="&#xcd;" horiz-adv-x="729" d="M43 25q0 29 52 38l31 4q77 9 102.5 48t25.5 190v688q0 151 -24.5 189.5t-102.5 50.5l-31 4q-51 5 -51 37q0 17 9.5 25t31.5 8l100 -7q31 0 91 -3t88 -3q27 0 86 3t91 3l101 7q22 0 31.5 -7.5t9.5 -23.5q0 -38 -60 -38q-16 0 -29 -1t-23 -4q-54 -19 -74.5 -93t-20.5 -329 v-324q0 -258 19.5 -329t74.5 -90l52 -5q61 0 61 -38q0 -17 -9.5 -26t-31.5 -9l-101 5q-40 0 -103.5 2.5t-73.5 2.5q-40 0 -103 -2.5t-77 -2.5l-101 -5q-20 0 -30.5 8.5t-10.5 26.5zM277 62l39 4l38 2q24 0 37 -2l35 -4q-22 51 -33 126q-4 34 -7 92.5t-3 127.5v479 q0 150 9.5 222.5t33.5 125.5l-37 -1l-37 -1l-38 1l-37 1q12 -21 18 -70t6 -207v-620q0 -155 -6 -206q-4 -47 -18 -70zM283 1473l18 41l23 49l64 135q14 35 42 49.5t95 14.5q62 0 87 -11q27 -9 27 -34q0 -24 -38.5 -71t-106.5 -103q-54 -45 -101 -70t-71 -25q-16 0 -27 7.5 t-12 17.5zM330 1493l21 -6q63 46 115.5 100.5t91.5 114.5l-12 16l-15 2l-19 1q-62 0 -96 -67l-2 -3z" />
<glyph unicode="&#xce;" horiz-adv-x="729" d="M43 25q0 29 52 38l31 4q77 9 102.5 48t25.5 190v688q0 151 -24.5 189.5t-102.5 50.5l-31 4q-51 5 -51 37q0 17 9.5 25t31.5 8l100 -7q31 0 91 -3t88 -3q27 0 86 3t91 3l101 7q22 0 31.5 -7.5t9.5 -23.5q0 -38 -60 -38q-16 0 -29 -1t-23 -4q-54 -19 -74.5 -93t-20.5 -329 v-324q0 -258 19.5 -329t74.5 -90l52 -5q61 0 61 -38q0 -17 -9.5 -26t-31.5 -9l-101 5q-40 0 -103.5 2.5t-73.5 2.5q-40 0 -103 -2.5t-77 -2.5l-101 -5q-20 0 -30.5 8.5t-10.5 26.5zM101 1469l75 93q75 93 99 198h186q18 -88 93 -176t75 -103q0 -14 -8.5 -21.5t-24.5 -7.5 q-47 0 -126 50t-154 133q-81 -102 -124.5 -142.5t-70.5 -40.5q-10 0 -14 3.5t-6 13.5zM277 62l39 4l38 2q24 0 37 -2l35 -4q-22 51 -33 126q-4 34 -7 92.5t-3 127.5v479q0 150 9.5 222.5t33.5 125.5l-37 -1l-37 -1l-38 1l-37 1q12 -21 18 -70t6 -207v-620q0 -155 -6 -206 q-4 -47 -18 -70zM336 1678q64 -77 131 -129.5t121 -67.5l6 12q-39 32 -89 90q-21 25 -49 61.5t-52 70.5h-51z" />
<glyph unicode="&#xcf;" horiz-adv-x="729" d="M43 25q0 29 52 38l31 4q77 9 102.5 48t25.5 190v688q0 151 -24.5 189.5t-102.5 50.5l-31 4q-51 5 -51 37q0 17 9.5 25t31.5 8l100 -7q31 0 91 -3t88 -3q27 0 86 3t91 3l101 7q22 0 31.5 -7.5t9.5 -23.5q0 -38 -60 -38q-16 0 -29 -1t-23 -4q-54 -19 -74.5 -93t-20.5 -329 v-324q0 -258 19.5 -329t74.5 -90l52 -5q61 0 61 -38q0 -17 -9.5 -26t-31.5 -9l-101 5q-40 0 -103.5 2.5t-73.5 2.5q-40 0 -103 -2.5t-77 -2.5l-101 -5q-20 0 -30.5 8.5t-10.5 26.5zM76 1604q0 44 32.5 76.5t76.5 32.5q42 0 73 -32.5t31 -74.5q0 -47 -29 -76.5t-75 -29.5 q-45 0 -78 30q-31 31 -31 74zM117 1604q0 -20 17.5 -36.5t37.5 -16.5q22 0 39 15t17 38t-17 40q-15 17 -39 17q-20 0 -37.5 -17.5t-17.5 -39.5zM277 62l39 4l38 2q24 0 37 -2l35 -4q-22 51 -33 126q-4 34 -7 92.5t-3 127.5v479q0 150 9.5 222.5t33.5 125.5l-37 -1l-37 -1 l-38 1l-37 1q12 -21 18 -70t6 -207v-620q0 -155 -6 -206q-4 -47 -18 -70zM441 1606q0 42 32 74.5t74 32.5q43 0 75 -32t32 -75q0 -45 -30 -77q-31 -29 -77 -29q-44 0 -75 30t-31 76zM482 1604q0 -20 15.5 -36.5t37.5 -16.5q23 0 40 15t17 38q0 21 -17.5 39t-39.5 18 q-20 0 -36.5 -18t-16.5 -39z" />
<glyph unicode="&#xd0;" horiz-adv-x="1470" d="M94 649q0 167 73 313q36 74 87 135t119 111q88 65 197 101q52 16 111 25t118 9q97 0 218 -30.5t148 -30.5q45 0 71 29.5t36 29.5q13 0 21 -6.5t10 -15.5l-3 -12q-16 -72 -16 -148q0 -82 16 -168l5 -28q0 -19 -8 -28t-23 -9q-22 0 -43 58q-10 30 -14 40q-7 18 -15 33 q-60 112 -148 159.5t-235 47.5q-206 0 -339.5 -165t-133.5 -427q0 -280 141.5 -458.5t360.5 -178.5q126 0 174.5 33.5t48.5 124.5v92q0 146 -23 186.5t-87 52.5l-33 4q-51 0 -51 37q0 18 9.5 26.5t31.5 8.5l89 -7q27 0 79 -3.5t67 -3.5q84 0 173 12l17 2q10 0 19 -9 q6 -8 8 -22q0 -20 -28 -38l-11 -7q-29 -18 -42 -49.5t-13 -97.5v-117q0 -131 27 -224l4 -13q0 -11 -14 -22t-33 -11q-6 0 -20 1t-34 4l-63 5q-14 0 -116.5 -21.5t-182.5 -21.5q-108 0 -201 18t-158 52q-186 93 -288.5 256t-102.5 366zM158 649q0 -225 127 -395.5t325 -212.5 q-174 90 -270 247.5t-96 352.5q0 209 94.5 367.5t273.5 251.5q-200 -34 -327 -203t-127 -408zM446 1764h72q12 -70 70.5 -112t146.5 -42q86 0 144.5 41.5t72.5 112.5h72q-18 -148 -93.5 -227.5t-195.5 -79.5t-194 77.5t-95 229.5zM475 1733q22 -107 88.5 -163t171.5 -56 q106 0 171 54t89 165h-22q-16 -73 -82 -118.5t-156 -45.5t-155 45t-83 119h-22zM1094 61h129q-12 21 -18 63q-5 47 -5 144v51q0 46 1 81t5.5 69t16.5 55h-127q11 -16 16.5 -62t5.5 -143v-51q0 -85 -6 -134t-18 -73z" />
<glyph unicode="&#xd1;" horiz-adv-x="1651" d="M45 25q0 33 57 39q17 0 31 2.5t27 7.5q53 15 73.5 87t20.5 324v508q0 157 -21.5 192.5t-85.5 47.5l-27 4q-44 5 -44 37q0 17 8 25t27 8l64 -6l95 -5q89 0 176 9l19 2q25 0 93 -84l56 -68q180 -210 678 -708l47 -48v412q0 257 -22 327.5t-87 94.5l-57 4q-73 0 -73 39 q0 15 11 23t36 8l89 -6l140 -5h13h12q22 0 45.5 1t48.5 4l80 6q22 0 31.5 -7.5t9.5 -23.5q0 -38 -62 -38q-16 0 -29.5 -1t-23.5 -4q-53 -19 -73.5 -92.5t-20.5 -325.5v-782q0 -34 -7.5 -49.5t-23.5 -16.5q-20 0 -37 39l-12 29q-30 57 -71.5 113.5t-118.5 139.5l-295 304 q-284 293 -520 573v-678q0 -254 22.5 -325.5t85.5 -87.5q20 -5 76.5 -10.5t56.5 -38.5q0 -17 -12.5 -26t-36.5 -9l-88 5q-33 0 -83 2.5t-58 2.5q-28 0 -58 -1t-64 -4l-77 -5q-20 0 -30.5 8.5t-10.5 26.5zM326 1235q260 -305 612.5 -669.5t400.5 -448.5v176 q-354 345 -583.5 590t-311.5 364l-47 -11l-41 -3l-15 1zM518 1469q15 100 78.5 163.5t150.5 63.5q37 0 103.5 -18.5t99.5 -18.5q46 0 75 20t42 60h65q-9 -103 -71.5 -170t-149.5 -67q-32 0 -105 18.5t-108 18.5q-44 0 -71.5 -17.5t-39.5 -52.5h-69zM561 1516l14 -6 q35 44 77 68q42 22 89 22q37 0 103.5 -18.5t97.5 -18.5q52 0 86.5 28.5t50.5 86.5l-14 4q-18 -32 -47 -48t-68 -16q-35 0 -104 18.5t-97 18.5q-64 0 -110.5 -34.5t-77.5 -104.5z" />
<glyph unicode="&#xd2;" horiz-adv-x="1616" d="M96 649q0 70 13 137t40 131q53 129 151.5 227t228.5 148.5t280 50.5q149 0 280.5 -51t233.5 -149q98 -95 148.5 -220t50.5 -276q0 -142 -52.5 -268.5t-152 -225t-228 -147.5t-280.5 -49q-78 0 -148 12t-137 38q-129 50 -233 149q-95 92 -146 217q-23 60 -36 131t-13 145z M158 649q0 -228 120.5 -391t335.5 -223q-185 101 -278.5 260t-93.5 375q0 84 15 159.5t47 147.5q62 142 179 246q-144 -66 -234.5 -225.5t-90.5 -348.5zM334 752q0 -124 30 -242t87 -211q78 -129 176 -195.5t211 -66.5q183 0 309.5 163.5t126.5 411.5q0 115 -34 224 q-17 56 -41.5 106.5t-59.5 101.5q-77 115 -170 172.5t-207 57.5q-190 0 -309 -144.5t-119 -377.5zM567 1717q0 23 27 34q13 5 35 8t53 3q67 0 92 -14q25 -12 43 -50l66 -135l10 -21l31 -69q0 -8 -10.5 -15.5t-28.5 -9.5q-27 0 -73.5 25t-98.5 70q-66 52 -106 100.5t-40 73.5 zM647 1702q36 -56 87.5 -109t121.5 -106l21 6l-86 158l-2 3q-35 67 -97 67l-19 -1l-14 -2zM969 1274q168 -85 267 -266t99 -400q0 -137 -43 -257t-131 -230q120 70 187 201.5t67 300.5q0 251 -126.5 435.5t-319.5 215.5z" />
<glyph unicode="&#xd3;" horiz-adv-x="1616" d="M96 649q0 70 13 137t40 131q53 129 151.5 227t228.5 148.5t280 50.5q149 0 280.5 -51t233.5 -149q98 -95 148.5 -220t50.5 -276q0 -142 -52.5 -268.5t-152 -225t-228 -147.5t-280.5 -49q-78 0 -148 12t-137 38q-129 50 -233 149q-95 92 -146 217q-23 60 -36 131t-13 145z M158 649q0 -228 120.5 -391t335.5 -223q-185 101 -278.5 260t-93.5 375q0 84 15 159.5t47 147.5q62 142 179 246q-144 -66 -234.5 -225.5t-90.5 -348.5zM334 752q0 -124 30 -242t87 -211q78 -129 176 -195.5t211 -66.5q183 0 309.5 163.5t126.5 411.5q0 115 -34 224 q-17 56 -41.5 106.5t-59.5 101.5q-77 115 -170 172.5t-207 57.5q-190 0 -309 -144.5t-119 -377.5zM727 1473l18 41l23 49l64 135q14 35 42 49.5t95 14.5q62 0 87 -11q27 -9 27 -34q0 -24 -38.5 -71t-106.5 -103q-54 -45 -101 -70t-71 -25q-16 0 -27 7.5t-12 17.5zM774 1493 l21 -6q63 46 115.5 100.5t91.5 114.5l-12 16l-15 2l-19 1q-62 0 -96 -67l-2 -3zM969 1274q168 -85 267 -266t99 -400q0 -137 -43 -257t-131 -230q120 70 187 201.5t67 300.5q0 251 -126.5 435.5t-319.5 215.5z" />
<glyph unicode="&#xd4;" horiz-adv-x="1616" d="M96 649q0 70 13 137t40 131q53 129 151.5 227t228.5 148.5t280 50.5q149 0 280.5 -51t233.5 -149q98 -95 148.5 -220t50.5 -276q0 -142 -52.5 -268.5t-152 -225t-228 -147.5t-280.5 -49q-78 0 -148 12t-137 38q-129 50 -233 149q-95 92 -146 217q-23 60 -36 131t-13 145z M158 649q0 -228 120.5 -391t335.5 -223q-185 101 -278.5 260t-93.5 375q0 84 15 159.5t47 147.5q62 142 179 246q-144 -66 -234.5 -225.5t-90.5 -348.5zM334 752q0 -124 30 -242t87 -211q78 -129 176 -195.5t211 -66.5q183 0 309.5 163.5t126.5 411.5q0 115 -34 224 q-17 56 -41.5 106.5t-59.5 101.5q-77 115 -170 172.5t-207 57.5q-190 0 -309 -144.5t-119 -377.5zM545 1469l75 93q75 93 99 198h186q18 -88 93 -176t75 -103q0 -14 -8.5 -21.5t-24.5 -7.5q-47 0 -126 50t-154 133q-81 -102 -124.5 -142.5t-70.5 -40.5q-10 0 -14 3.5 t-6 13.5zM780 1678q64 -77 131 -129.5t121 -67.5l6 12q-39 32 -89 90q-21 25 -49 61.5t-52 70.5h-51zM969 1274q168 -85 267 -266t99 -400q0 -137 -43 -257t-131 -230q120 70 187 201.5t67 300.5q0 251 -126.5 435.5t-319.5 215.5z" />
<glyph unicode="&#xd5;" horiz-adv-x="1616" d="M96 649q0 70 13 137t40 131q53 129 151.5 227t228.5 148.5t280 50.5q149 0 280.5 -51t233.5 -149q98 -95 148.5 -220t50.5 -276q0 -142 -52.5 -268.5t-152 -225t-228 -147.5t-280.5 -49q-78 0 -148 12t-137 38q-129 50 -233 149q-95 92 -146 217q-23 60 -36 131t-13 145z M158 649q0 -228 120.5 -391t335.5 -223q-185 101 -278.5 260t-93.5 375q0 84 15 159.5t47 147.5q62 142 179 246q-144 -66 -234.5 -225.5t-90.5 -348.5zM334 752q0 -124 30 -242t87 -211q78 -129 176 -195.5t211 -66.5q183 0 309.5 163.5t126.5 411.5q0 115 -34 224 q-17 56 -41.5 106.5t-59.5 101.5q-77 115 -170 172.5t-207 57.5q-190 0 -309 -144.5t-119 -377.5zM502 1469q15 100 78.5 163.5t150.5 63.5q37 0 103.5 -18.5t99.5 -18.5q46 0 75 20t42 60h65q-9 -103 -71.5 -170t-149.5 -67q-32 0 -105 18.5t-108 18.5q-44 0 -71.5 -17.5 t-39.5 -52.5h-69zM545 1516l14 -6q35 44 77 68q42 22 89 22q37 0 103.5 -18.5t97.5 -18.5q52 0 86.5 28.5t50.5 86.5l-14 4q-18 -32 -47 -48t-68 -16q-35 0 -104 18.5t-97 18.5q-64 0 -110.5 -34.5t-77.5 -104.5zM969 1274q168 -85 267 -266t99 -400q0 -137 -43 -257 t-131 -230q120 70 187 201.5t67 300.5q0 251 -126.5 435.5t-319.5 215.5z" />
<glyph unicode="&#xd6;" horiz-adv-x="1616" d="M96 649q0 70 13 137t40 131q53 129 151.5 227t228.5 148.5t280 50.5q149 0 280.5 -51t233.5 -149q98 -95 148.5 -220t50.5 -276q0 -142 -52.5 -268.5t-152 -225t-228 -147.5t-280.5 -49q-78 0 -148 12t-137 38q-129 50 -233 149q-95 92 -146 217q-23 60 -36 131t-13 145z M158 649q0 -228 120.5 -391t335.5 -223q-185 101 -278.5 260t-93.5 375q0 84 15 159.5t47 147.5q62 142 179 246q-144 -66 -234.5 -225.5t-90.5 -348.5zM334 752q0 -124 30 -242t87 -211q78 -129 176 -195.5t211 -66.5q183 0 309.5 163.5t126.5 411.5q0 115 -34 224 q-17 56 -41.5 106.5t-59.5 101.5q-77 115 -170 172.5t-207 57.5q-190 0 -309 -144.5t-119 -377.5zM520 1604q0 44 32.5 76.5t76.5 32.5q42 0 73 -32.5t31 -74.5q0 -47 -29 -76.5t-75 -29.5q-45 0 -78 30q-31 31 -31 74zM561 1604q0 -20 17.5 -36.5t37.5 -16.5q22 0 39 15 t17 38t-17 40q-15 17 -39 17q-20 0 -37.5 -17.5t-17.5 -39.5zM885 1606q0 42 32 74.5t74 32.5q43 0 75 -32t32 -75q0 -45 -30 -77q-31 -29 -77 -29q-44 0 -75 30t-31 76zM926 1604q0 -20 15.5 -36.5t37.5 -16.5q23 0 40 15t17 38q0 21 -17.5 39t-39.5 18q-20 0 -36.5 -18 t-16.5 -39zM969 1274q168 -85 267 -266t99 -400q0 -137 -43 -257t-131 -230q120 70 187 201.5t67 300.5q0 251 -126.5 435.5t-319.5 215.5z" />
<glyph unicode="&#xd7;" horiz-adv-x="1706" d="M309 123l488 487l-488 488l58 57l487 -487l487 487l58 -57l-488 -488l488 -487l-58 -57l-487 487l-487 -487z" />
<glyph unicode="&#xd8;" horiz-adv-x="1616" d="M94 641q0 52 5 95t18 91q23 88 69 170q97 167 258 256.5t365 89.5q86 0 171 -19t167 -56l78 125q6 11 17.5 18t23.5 8h30q7 0 13 -5.5t6 -12.5l-4 -8l-4 -8l-101 -152q154 -94 235 -242.5t81 -343.5q0 -140 -53 -268t-154 -227q-96 -95 -226 -145t-280 -50 q-107 0 -199 21.5t-172 66.5l-106 -164q-7 -12 -18 -18t-23 -8h-31q-8 0 -13 5q-4 2 -5 11l1 9l5 10l127 196q-138 99 -209.5 240.5t-71.5 314.5zM158 649q0 -228 120.5 -391t335.5 -223q-182 97 -277 259t-95 376q0 84 15 159.5t47 147.5q62 142 179 246 q-144 -66 -234.5 -225.5t-90.5 -348.5zM334 752q0 -139 36 -264t111 -238l582 889q-60 66 -136.5 100.5t-164.5 34.5q-190 0 -309 -144.5t-119 -377.5zM532 188q68 -76 142.5 -113.5t156.5 -37.5q188 0 315.5 162.5t127.5 410.5q0 133 -40 250t-122 223zM969 1274 q168 -85 267 -266t99 -400q0 -137 -43 -257t-131 -230q120 70 187 201.5t67 300.5q0 251 -126.5 435.5t-319.5 215.5z" />
<glyph unicode="&#xd9;" horiz-adv-x="1608" d="M29 1274q0 17 9.5 25t31.5 8l99 -7q31 0 91 -3t88 -3q27 0 86 3t92 3l101 7q21 0 32 -8q11 -6 11 -23q0 -18 -14.5 -28.5t-44.5 -10.5q-20 0 -29.5 -1.5t-26.5 -6.5q-53 -16 -73.5 -90t-20.5 -328v-207q0 -292 96 -432.5t297 -140.5q99 0 187 36.5t144.5 103t81.5 158.5 t25 271v211q0 256 -22 326.5t-86 91.5l-62 7q-69 0 -69 40q0 15 11 23q6 4 14.5 6t23.5 2l89 -7q26 0 75 -3t71 -3q57 0 126 6l79 7q22 0 31.5 -7.5t9.5 -23.5q0 -33 -59 -39q-19 0 -30 -2t-25 -6q-54 -17 -74.5 -89t-20.5 -325v-203q0 -178 -19.5 -269.5t-66.5 -162.5 q-72 -106 -188.5 -164.5t-255.5 -58.5q-299 0 -452.5 156.5t-153.5 461.5v418q0 150 -24.5 188t-103.5 48l-33 6q-48 8 -48 39zM262 1235q11 -18 17 -63t6 -154v-60v-389q0 -214 80.5 -346.5t242.5 -183.5q-130 92 -186.5 213.5t-56.5 331.5v303q0 136 10.5 216.5 t34.5 131.5l-38 -3l-36 -3l-37 3zM612 1717q0 23 27 34q13 5 35 8t53 3q67 0 92 -14q25 -12 43 -50l66 -135l10 -21l31 -69q0 -8 -10.5 -15.5t-28.5 -9.5q-27 0 -73.5 25t-98.5 70q-66 52 -106 100.5t-40 73.5zM692 1702q36 -56 87.5 -109t121.5 -106l21 6l-86 158l-2 3 q-35 67 -97 67l-19 -1l-14 -2z" />
<glyph unicode="&#xda;" horiz-adv-x="1608" d="M29 1274q0 17 9.5 25t31.5 8l99 -7q31 0 91 -3t88 -3q27 0 86 3t92 3l101 7q21 0 32 -8q11 -6 11 -23q0 -18 -14.5 -28.5t-44.5 -10.5q-20 0 -29.5 -1.5t-26.5 -6.5q-53 -16 -73.5 -90t-20.5 -328v-207q0 -292 96 -432.5t297 -140.5q99 0 187 36.5t144.5 103t81.5 158.5 t25 271v211q0 256 -22 326.5t-86 91.5l-62 7q-69 0 -69 40q0 15 11 23q6 4 14.5 6t23.5 2l89 -7q26 0 75 -3t71 -3q57 0 126 6l79 7q22 0 31.5 -7.5t9.5 -23.5q0 -33 -59 -39q-19 0 -30 -2t-25 -6q-54 -17 -74.5 -89t-20.5 -325v-203q0 -178 -19.5 -269.5t-66.5 -162.5 q-72 -106 -188.5 -164.5t-255.5 -58.5q-299 0 -452.5 156.5t-153.5 461.5v418q0 150 -24.5 188t-103.5 48l-33 6q-48 8 -48 39zM262 1235q11 -18 17 -63t6 -154v-60v-389q0 -214 80.5 -346.5t242.5 -183.5q-130 92 -186.5 213.5t-56.5 331.5v303q0 136 10.5 216.5 t34.5 131.5l-38 -3l-36 -3l-37 3zM772 1473l18 41l23 49l64 135q14 35 42 49.5t95 14.5q62 0 87 -11q27 -9 27 -34q0 -24 -38.5 -71t-106.5 -103q-54 -45 -101 -70t-71 -25q-16 0 -27 7.5t-12 17.5zM819 1493l21 -6q63 46 115.5 100.5t91.5 114.5l-12 16l-15 2l-19 1 q-62 0 -96 -67l-2 -3z" />
<glyph unicode="&#xdb;" horiz-adv-x="1608" d="M29 1274q0 17 9.5 25t31.5 8l99 -7q31 0 91 -3t88 -3q27 0 86 3t92 3l101 7q21 0 32 -8q11 -6 11 -23q0 -18 -14.5 -28.5t-44.5 -10.5q-20 0 -29.5 -1.5t-26.5 -6.5q-53 -16 -73.5 -90t-20.5 -328v-207q0 -292 96 -432.5t297 -140.5q99 0 187 36.5t144.5 103t81.5 158.5 t25 271v211q0 256 -22 326.5t-86 91.5l-62 7q-69 0 -69 40q0 15 11 23q6 4 14.5 6t23.5 2l89 -7q26 0 75 -3t71 -3q57 0 126 6l79 7q22 0 31.5 -7.5t9.5 -23.5q0 -33 -59 -39q-19 0 -30 -2t-25 -6q-54 -17 -74.5 -89t-20.5 -325v-203q0 -178 -19.5 -269.5t-66.5 -162.5 q-72 -106 -188.5 -164.5t-255.5 -58.5q-299 0 -452.5 156.5t-153.5 461.5v418q0 150 -24.5 188t-103.5 48l-33 6q-48 8 -48 39zM262 1235q11 -18 17 -63t6 -154v-60v-389q0 -214 80.5 -346.5t242.5 -183.5q-130 92 -186.5 213.5t-56.5 331.5v303q0 136 10.5 216.5 t34.5 131.5l-38 -3l-36 -3l-37 3zM590 1469l75 93q75 93 99 198h186q18 -88 93 -176t75 -103q0 -14 -8.5 -21.5t-24.5 -7.5q-47 0 -126 50t-154 133q-81 -102 -124.5 -142.5t-70.5 -40.5q-10 0 -14 3.5t-6 13.5zM825 1678q64 -77 131 -129.5t121 -67.5l6 12q-39 32 -89 90 q-21 25 -49 61.5t-52 70.5h-51z" />
<glyph unicode="&#xdc;" horiz-adv-x="1608" d="M29 1274q0 17 9.5 25t31.5 8l99 -7q31 0 91 -3t88 -3q27 0 86 3t92 3l101 7q21 0 32 -8q11 -6 11 -23q0 -18 -14.5 -28.5t-44.5 -10.5q-20 0 -29.5 -1.5t-26.5 -6.5q-53 -16 -73.5 -90t-20.5 -328v-207q0 -292 96 -432.5t297 -140.5q99 0 187 36.5t144.5 103t81.5 158.5 t25 271v211q0 256 -22 326.5t-86 91.5l-62 7q-69 0 -69 40q0 15 11 23q6 4 14.5 6t23.5 2l89 -7q26 0 75 -3t71 -3q57 0 126 6l79 7q22 0 31.5 -7.5t9.5 -23.5q0 -33 -59 -39q-19 0 -30 -2t-25 -6q-54 -17 -74.5 -89t-20.5 -325v-203q0 -178 -19.5 -269.5t-66.5 -162.5 q-72 -106 -188.5 -164.5t-255.5 -58.5q-299 0 -452.5 156.5t-153.5 461.5v418q0 150 -24.5 188t-103.5 48l-33 6q-48 8 -48 39zM262 1235q11 -18 17 -63t6 -154v-60v-389q0 -214 80.5 -346.5t242.5 -183.5q-130 92 -186.5 213.5t-56.5 331.5v303q0 136 10.5 216.5 t34.5 131.5l-38 -3l-36 -3l-37 3zM565 1604q0 44 32.5 76.5t76.5 32.5q42 0 73 -32.5t31 -74.5q0 -47 -29 -76.5t-75 -29.5q-45 0 -78 30q-31 31 -31 74zM606 1604q0 -20 17.5 -36.5t37.5 -16.5q22 0 39 15t17 38t-17 40q-15 17 -39 17q-20 0 -37.5 -17.5t-17.5 -39.5z M930 1606q0 42 32 74.5t74 32.5q43 0 75 -32t32 -75q0 -45 -30 -77q-31 -29 -77 -29q-44 0 -75 30t-31 76zM971 1604q0 -20 15.5 -36.5t37.5 -16.5q23 0 40 15t17 38q0 21 -17.5 39t-39.5 18q-20 0 -36.5 -18t-16.5 -39z" />
<glyph unicode="&#xdd;" horiz-adv-x="729" d="M43 25q0 29 52 38l31 4q77 9 102.5 48t25.5 190v688q0 151 -24.5 189.5t-102.5 50.5l-31 4q-51 5 -51 37q0 17 9.5 25t31.5 8l100 -7q31 0 91 -3t88 -3q27 0 86 3t91 3l101 7q22 0 31.5 -7.5t9.5 -23.5q0 -38 -60 -38q-16 0 -29 -1t-23 -4q-54 -19 -74.5 -93t-20.5 -329 v-324q0 -258 19.5 -329t74.5 -90l52 -5q61 0 61 -38q0 -17 -9.5 -26t-31.5 -9l-101 5q-40 0 -103.5 2.5t-73.5 2.5q-40 0 -103 -2.5t-77 -2.5l-101 -5q-20 0 -30.5 8.5t-10.5 26.5zM254 1604q0 44 33.5 78.5t77.5 34.5t78.5 -33.5t34.5 -77.5q0 -49 -32 -81t-81 -32 q-47 0 -79 32t-32 79zM277 62l39 4l38 2q24 0 37 -2l35 -4q-22 51 -33 126q-4 34 -7 92.5t-3 127.5v479q0 150 9.5 222.5t33.5 125.5l-37 -1l-37 -1l-38 1l-37 1q12 -21 18 -70t6 -207v-620q0 -155 -6 -206q-4 -47 -18 -70zM299 1604q0 -20 16 -37q18 -16 38 -16t37.5 15 t17.5 38t-16 39t-39 16q-21 0 -37.5 -16.5t-16.5 -38.5z" />
<glyph unicode="&#xde;" horiz-adv-x="1110" d="M84 424q0 10 10 19q9 6 25 8q17 0 35 -61l10 -34q54 -173 136 -249t208 -76q125 0 205 72.5t80 185.5q0 96 -62 166t-272 180q-320 168 -320 348q0 156 121.5 258t310.5 102q50 0 101 -7t101 -22l101 -28q25 0 51 27.5t38 27.5q6 0 13 -5.5t7 -12.5l-4 -27 q-18 -93 -18 -184q0 -52 6 -112l6 -62q0 -15 -6.5 -22t-22.5 -7q-24 0 -30 50q0 15 -2 28t-7 35q-24 127 -96.5 189.5t-194.5 62.5q-117 0 -186.5 -54.5t-69.5 -148.5q0 -131 243 -256l52 -27q208 -104 277 -197t69 -235q0 -173 -129.5 -286t-332.5 -113q-83 0 -169.5 27.5 t-93.5 27.5q-27 0 -53 -26.5t-43 -28.5q-13 0 -18.5 12t-5.5 45q0 119 -35 257t-35 153zM190 987q0 -91 59.5 -157.5t235.5 -153.5q210 -103 284.5 -185.5t74.5 -193.5q0 -68 -26 -121.5t-83 -112.5q80 21 132.5 103t52.5 186q0 99 -54 174t-176 144l-161 83q-94 47 -121 66 q-76 54 -105 100.5t-29 110.5q0 69 37.5 130t110.5 112q-104 -21 -168 -100t-64 -185zM326 -401q0 13 9 22q11 7 30 7l9 -1l83 -2q60 0 88 20t28 60q0 36 -30 56q-16 9 -41 14.5t-59 5.5l51 178l61 -1l-35 -115h19q116 0 174.5 -38t58.5 -112q0 -78 -62.5 -123t-170.5 -45 q-85 0 -149 23.5t-64 50.5zM365 -411q35 -15 75 -25q18 -4 35 -6t39 -2q72 0 120 38.5t48 96.5q0 51 -35 83q-35 30 -96 30h-16l-3 -15q36 -9 55 -31t19 -53q0 -52 -39 -81q-20 -15 -46.5 -22t-65.5 -7h-12q-6 0 -22 2q-16 0 -52 6z" />
<glyph unicode="&#xdf;" horiz-adv-x="1067" d="M47 23q0 26 51 34q30 3 48 9q38 18 51.5 52t13.5 120v630q0 227 87 341t261 114q157 0 255.5 -95t98.5 -245q0 -100 -46.5 -167.5t-139.5 -100.5q121 -42 187.5 -136t66.5 -227q0 -165 -98.5 -275t-247.5 -110q-79 0 -125.5 39.5t-46.5 106.5q0 42 15 67t42 25 q26 0 42 -20.5t16 -59.5q0 -14 -1 -21t-7 -24l-7 -31q0 -14 14 -23.5t35 -9.5q75 0 121.5 84t46.5 222q0 194 -53.5 274t-187.5 80q-18 0 -27.5 6.5t-9.5 22.5q0 33 51 33l57 3q53 7 80 64.5t27 165.5q0 147 -42.5 221t-127.5 74q-80 0 -114 -68.5t-34 -253.5v-883 q0 -41 -8 -53q-6 -12 -33 -12l-24 1l-125 3q-24 0 -50.5 -1t-55.5 -4l-21 -1q-16 0 -25.5 7.5t-9.5 21.5zM209 66h119v868q0 121 15.5 185t53.5 116q-76 -43 -110.5 -120t-34.5 -206v-637q0 -56 -2 -90t-8 -58q-9 -40 -33 -58zM641 1276q63 -42 93 -111t30 -174 q0 -82 -18 -143t-56 -105q68 24 106 92t38 169q0 105 -52 179t-141 93zM700 682q66 -61 97 -145q16 -42 24 -88t8 -103q0 -58 -6 -104.5t-20 -86.5q-26 -76 -82 -126q86 33 133 113.5t47 195.5q0 131 -49.5 215.5t-151.5 128.5z" />
<glyph unicode="&#xe0;" horiz-adv-x="918" d="M59 121q0 98 105.5 160.5t353.5 107.5l2 90v23q0 104 -24.5 142t-85.5 38q-51 0 -80.5 -19t-49 -60.5t-47 -60t-73.5 -18.5q-11 0 -20 6q-6 6 -7 17q0 19 21.5 49.5t58.5 58.5q67 51 151 79t175 28q89 0 130.5 -36.5t41.5 -115.5v-6l-4 -389q0 -72 12 -95.5t43 -23.5 q18 0 48.5 14.5t41.5 16.5q15 0 22 -8.5t7 -26.5q0 -13 -55 -43l-33 -18q-65 -35 -106 -53q-36 -13 -60 -13q-47 0 -77 30q-26 28 -34 82l-33 -16q-191 -96 -264 -96q-70 0 -115 43.5t-45 112.5zM129 139q0 -57 29.5 -90t79.5 -33q17 0 25 1.5t25 6.5t31 9.5t33 13.5 q-72 0 -110 32q-37 34 -37 95q0 11 0.5 24t8 35t24.5 39q-54 -18 -81.5 -51.5t-27.5 -81.5zM217 1139q0 23 27 34q13 5 35 8t53 3q67 0 92 -14q25 -12 43 -50l66 -135l10 -21l31 -69q0 -8 -10.5 -15.5t-28.5 -9.5q-27 0 -73.5 25t-98.5 70q-66 52 -106 100.5t-40 73.5z M246 182q0 -45 26.5 -69.5t75.5 -24.5q32 0 73.5 10t94.5 31l2 207q-149 -23 -210.5 -58.5t-61.5 -95.5zM297 1124q36 -56 87.5 -109t121.5 -106l21 6l-86 158l-2 3q-35 67 -97 67l-19 -1l-14 -2zM473 711q49 -18 69.5 -51t20.5 -99v-14l-4 -379v-16q0 -74 18 -105t60 -31 q15 0 33.5 6t42.5 19q-42 7 -59 35t-17 90v16l4 391v9q0 70 -27.5 101.5t-89.5 31.5l-46 -4h-5z" />
<glyph unicode="&#xe1;" horiz-adv-x="918" d="M59 121q0 98 105.5 160.5t353.5 107.5l2 90v23q0 104 -24.5 142t-85.5 38q-51 0 -80.5 -19t-49 -60.5t-47 -60t-73.5 -18.5q-11 0 -20 6q-6 6 -7 17q0 19 21.5 49.5t58.5 58.5q67 51 151 79t175 28q89 0 130.5 -36.5t41.5 -115.5v-6l-4 -389q0 -72 12 -95.5t43 -23.5 q18 0 48.5 14.5t41.5 16.5q15 0 22 -8.5t7 -26.5q0 -13 -55 -43l-33 -18q-65 -35 -106 -53q-36 -13 -60 -13q-47 0 -77 30q-26 28 -34 82l-33 -16q-191 -96 -264 -96q-70 0 -115 43.5t-45 112.5zM129 139q0 -57 29.5 -90t79.5 -33q17 0 25 1.5t25 6.5t31 9.5t33 13.5 q-72 0 -110 32q-37 34 -37 95q0 11 0.5 24t8 35t24.5 39q-54 -18 -81.5 -51.5t-27.5 -81.5zM246 182q0 -45 26.5 -69.5t75.5 -24.5q32 0 73.5 10t94.5 31l2 207q-149 -23 -210.5 -58.5t-61.5 -95.5zM377 895l18 41l23 49l64 135q14 35 42 49.5t95 14.5q62 0 87 -11 q27 -9 27 -34q0 -24 -38.5 -71t-106.5 -103q-54 -45 -101 -70t-71 -25q-16 0 -27 7.5t-12 17.5zM424 915l21 -6q63 46 115.5 100.5t91.5 114.5l-12 16l-15 2l-19 1q-62 0 -96 -67l-2 -3zM473 711q49 -18 69.5 -51t20.5 -99v-14l-4 -379v-16q0 -74 18 -105t60 -31 q15 0 33.5 6t42.5 19q-42 7 -59 35t-17 90v16l4 391v9q0 70 -27.5 101.5t-89.5 31.5l-46 -4h-5z" />
<glyph unicode="&#xe2;" horiz-adv-x="918" d="M59 121q0 98 105.5 160.5t353.5 107.5l2 90v23q0 104 -24.5 142t-85.5 38q-51 0 -80.5 -19t-49 -60.5t-47 -60t-73.5 -18.5q-11 0 -20 6q-6 6 -7 17q0 19 21.5 49.5t58.5 58.5q67 51 151 79t175 28q89 0 130.5 -36.5t41.5 -115.5v-6l-4 -389q0 -72 12 -95.5t43 -23.5 q18 0 48.5 14.5t41.5 16.5q15 0 22 -8.5t7 -26.5q0 -13 -55 -43l-33 -18q-65 -35 -106 -53q-36 -13 -60 -13q-47 0 -77 30q-26 28 -34 82l-33 -16q-191 -96 -264 -96q-70 0 -115 43.5t-45 112.5zM129 139q0 -57 29.5 -90t79.5 -33q17 0 25 1.5t25 6.5t31 9.5t33 13.5 q-72 0 -110 32q-37 34 -37 95q0 11 0.5 24t8 35t24.5 39q-54 -18 -81.5 -51.5t-27.5 -81.5zM195 891l75 93q75 93 99 198h186q18 -88 93 -176t75 -103q0 -14 -8.5 -21.5t-24.5 -7.5q-47 0 -126 50t-154 133q-81 -102 -124.5 -142.5t-70.5 -40.5q-10 0 -14 3.5t-6 13.5z M246 182q0 -45 26.5 -69.5t75.5 -24.5q32 0 73.5 10t94.5 31l2 207q-149 -23 -210.5 -58.5t-61.5 -95.5zM430 1100q64 -77 131 -129.5t121 -67.5l6 12q-39 32 -89 90q-21 25 -49 61.5t-52 70.5h-51zM473 711q49 -18 69.5 -51t20.5 -99v-14l-4 -379v-16q0 -74 18 -105t60 -31 q15 0 33.5 6t42.5 19q-42 7 -59 35t-17 90v16l4 391v9q0 70 -27.5 101.5t-89.5 31.5l-46 -4h-5z" />
<glyph unicode="&#xe3;" horiz-adv-x="918" d="M59 121q0 98 105.5 160.5t353.5 107.5l2 90v23q0 104 -24.5 142t-85.5 38q-51 0 -80.5 -19t-49 -60.5t-47 -60t-73.5 -18.5q-11 0 -20 6q-6 6 -7 17q0 19 21.5 49.5t58.5 58.5q67 51 151 79t175 28q89 0 130.5 -36.5t41.5 -115.5v-6l-4 -389q0 -72 12 -95.5t43 -23.5 q18 0 48.5 14.5t41.5 16.5q15 0 22 -8.5t7 -26.5q0 -13 -55 -43l-33 -18q-65 -35 -106 -53q-36 -13 -60 -13q-47 0 -77 30q-26 28 -34 82l-33 -16q-191 -96 -264 -96q-70 0 -115 43.5t-45 112.5zM129 139q0 -57 29.5 -90t79.5 -33q17 0 25 1.5t25 6.5t31 9.5t33 13.5 q-72 0 -110 32q-37 34 -37 95q0 11 0.5 24t8 35t24.5 39q-54 -18 -81.5 -51.5t-27.5 -81.5zM152 891q15 100 78.5 163.5t150.5 63.5q37 0 103.5 -18.5t99.5 -18.5q46 0 75 20t42 60h65q-9 -103 -71.5 -170t-149.5 -67q-32 0 -105 18.5t-108 18.5q-44 0 -71.5 -17.5 t-39.5 -52.5h-69zM195 938l14 -6q35 44 77 68q42 22 89 22q37 0 103.5 -18.5t97.5 -18.5q52 0 86.5 28.5t50.5 86.5l-14 4q-18 -32 -47 -48t-68 -16q-35 0 -104 18.5t-97 18.5q-64 0 -110.5 -34.5t-77.5 -104.5zM246 182q0 -45 26.5 -69.5t75.5 -24.5q32 0 73.5 10t94.5 31 l2 207q-149 -23 -210.5 -58.5t-61.5 -95.5zM473 711q49 -18 69.5 -51t20.5 -99v-14l-4 -379v-16q0 -74 18 -105t60 -31q15 0 33.5 6t42.5 19q-42 7 -59 35t-17 90v16l4 391v9q0 70 -27.5 101.5t-89.5 31.5l-46 -4h-5z" />
<glyph unicode="&#xe4;" horiz-adv-x="918" d="M59 121q0 98 105.5 160.5t353.5 107.5l2 90v23q0 104 -24.5 142t-85.5 38q-51 0 -80.5 -19t-49 -60.5t-47 -60t-73.5 -18.5q-11 0 -20 6q-6 6 -7 17q0 19 21.5 49.5t58.5 58.5q67 51 151 79t175 28q89 0 130.5 -36.5t41.5 -115.5v-6l-4 -389q0 -72 12 -95.5t43 -23.5 q18 0 48.5 14.5t41.5 16.5q15 0 22 -8.5t7 -26.5q0 -13 -55 -43l-33 -18q-65 -35 -106 -53q-36 -13 -60 -13q-47 0 -77 30q-26 28 -34 82l-33 -16q-191 -96 -264 -96q-70 0 -115 43.5t-45 112.5zM129 139q0 -57 29.5 -90t79.5 -33q17 0 25 1.5t25 6.5t31 9.5t33 13.5 q-72 0 -110 32q-37 34 -37 95q0 11 0.5 24t8 35t24.5 39q-54 -18 -81.5 -51.5t-27.5 -81.5zM170 1026q0 44 32.5 76.5t76.5 32.5q42 0 73 -32.5t31 -74.5q0 -47 -29 -76.5t-75 -29.5q-45 0 -78 30q-31 31 -31 74zM211 1026q0 -20 17.5 -36.5t37.5 -16.5q22 0 39 15t17 38 t-17 40q-15 17 -39 17q-20 0 -37.5 -17.5t-17.5 -39.5zM246 182q0 -45 26.5 -69.5t75.5 -24.5q32 0 73.5 10t94.5 31l2 207q-149 -23 -210.5 -58.5t-61.5 -95.5zM473 711q49 -18 69.5 -51t20.5 -99v-14l-4 -379v-16q0 -74 18 -105t60 -31q15 0 33.5 6t42.5 19q-42 7 -59 35 t-17 90v16l4 391v9q0 70 -27.5 101.5t-89.5 31.5l-46 -4h-5zM535 1028q0 42 32 74.5t74 32.5q43 0 75 -32t32 -75q0 -45 -30 -77q-31 -29 -77 -29q-44 0 -75 30t-31 76zM576 1026q0 -20 15.5 -36.5t37.5 -16.5q23 0 40 15t17 38q0 21 -17.5 39t-39.5 18q-20 0 -36.5 -18 t-16.5 -39z" />
<glyph unicode="&#xe5;" horiz-adv-x="918" d="M59 121q0 99 105.5 161t355.5 107v113q0 104 -24.5 142t-85.5 38q-51 0 -80.5 -19t-49 -60.5t-47 -60t-73.5 -18.5q-11 0 -20 6q-6 6 -7 17q0 19 21.5 49.5t58.5 58.5q67 51 151 79t175 28q89 0 130.5 -36.5t41.5 -115.5v-6l-4 -389q0 -75 12 -102q13 -25 43 -25 q19 0 48.5 18.5t41.5 20.5q15 0 22 -8.5t7 -26.5q0 -13 -55 -43l-33 -18q-65 -35 -106 -53q-36 -13 -60 -13q-47 0 -77 30q-26 28 -34 82l-33 -16q-191 -96 -264 -96q-70 0 -115 43.5t-45 112.5zM129 139q0 -57 29.5 -90t79.5 -33q17 0 25 1.5t25 6.5t31 9.5t33 13.5 q-72 0 -110 32q-37 34 -37 95q0 11 0.5 24t8 35t24.5 39q-54 -18 -81.5 -51.5t-27.5 -81.5zM246 182q0 -45 26.5 -69.5t75.5 -24.5q32 0 73.5 10t94.5 31l2 207q-149 -23 -210.5 -58.5t-61.5 -95.5zM268 1020q0 80 56 135t135 55q80 0 135 -55t55 -135t-55 -135.5 t-135 -55.5q-81 0 -136 55t-55 136zM324 1018q0 -54 39 -95q40 -38 96 -38q58 0 96.5 38t38.5 95t-40 97t-95 40q-54 0 -94.5 -41.5t-40.5 -95.5zM473 711q49 -18 69.5 -51t20.5 -99v-14l-4 -379v-16q0 -74 18 -105t60 -31q15 0 33.5 6t42.5 19q-42 7 -59 35t-17 90v16 l4 391v9q0 70 -27.5 101.5t-89.5 31.5l-46 -4h-5z" />
<glyph unicode="&#xe6;" horiz-adv-x="1247" d="M59 123q0 100 97.5 162t361.5 125l2 69v23q0 105 -24.5 142.5t-85.5 37.5q-51 0 -80.5 -19t-49 -60.5t-47 -60t-73.5 -18.5q-11 0 -20 6q-6 6 -7 17q0 19 21.5 49.5t58.5 58.5q65 50 150 79q44 14 85.5 21t90.5 7q59 0 100 -19q41 -17 53 -48q52 32 106.5 49.5 t104.5 17.5q94 0 166 -51t102 -139l15 2l8 1q14 0 20.5 -6t8.5 -20q0 -13 -15 -22q-10 -6 -53 -17l-452 -106q0 -147 61.5 -233.5t161.5 -86.5q73 0 155 43l84 43q7 0 13 -6t8 -19q0 -10 -10.5 -21.5t-53.5 -41.5q-46 -29 -89.5 -51.5t-82.5 -37.5q-78 -28 -137 -28 q-80 0 -144 36t-100 103q-159 -84 -231.5 -111.5t-118.5 -27.5q-36 0 -63 10t-52 34q-45 45 -45 114zM129 139q0 -28 7 -51t22 -40q31 -34 80 -34q16 0 24 1.5t24 6.5q30 8 66 25q-72 0 -110 32q-37 34 -37 95q0 11 0.5 24t8 35t24.5 39q-54 -18 -81.5 -51.5t-27.5 -81.5z M246 188q0 -50 26.5 -77t75.5 -27q30 0 66.5 10.5t101.5 36.5l2 221q-167 -42 -220 -76q-26 -17 -39 -38t-13 -50zM473 711q48 -17 70 -54t22 -98v-24q11 28 29.5 55.5t44.5 50.5q-12 38 -42 57t-75 19l-22 -3zM561 319q0 -134 63 -219.5t162 -85.5h16q9 0 25 2l35 9 q-111 24 -170 108.5t-59 220.5q0 99 29 182t86 146q-82 -33 -134.5 -134.5t-52.5 -228.5zM709 461l284 67q-24 87 -60.5 129.5t-82.5 42.5q-58 0 -97 -64q-20 -35 -32 -78.5t-12 -96.5zM915 717q43 -25 72.5 -67.5t50.5 -108.5l62 14q-30 82 -74 122q-22 20 -48 30t-58 10 h-5z" />
<glyph unicode="&#xe7;" horiz-adv-x="758" d="M70 276q0 84 25.5 160.5t76.5 143.5q59 80 156 131t190 51t161.5 -39t68.5 -86q0 -29 -40 -65.5t-67 -36.5q-10 0 -36 24l-16 15q-51 51 -92 72q-21 10 -43 16t-44 6q-78 0 -121 -67.5t-43 -184.5q0 -165 60.5 -260t164.5 -95q62 0 133 39t76 39q11 0 18.5 -7t8.5 -21 q0 -39 -109 -93q-80 -38 -167 -49l-37 -116h19q116 0 174.5 -38t58.5 -112q0 -78 -62.5 -123t-170.5 -45q-85 0 -149 23.5t-64 50.5q0 13 9 22q11 7 30 7l9 -1l83 -2q60 0 88 20t28 60q0 36 -30 56q-16 9 -41 14.5t-59 5.5l52 174q-141 0 -220 81t-79 230zM106 289 q0 -129 66.5 -204t181.5 -75h8q-90 36 -137 118.5t-47 207.5q0 59 12.5 123t34.5 125q-51 -44 -85 -125.5t-34 -169.5zM239 -401q35 -15 75 -25q18 -4 35 -6t39 -2q72 0 120 38.5t48 96.5q0 51 -35 83q-35 30 -96 30h-16l-3 -15q36 -9 55 -31t19 -53q0 -52 -39 -81 q-20 -15 -46.5 -22t-65.5 -7h-12q-6 0 -22 2q-16 0 -52 6zM426 700q54 0 105 -29q27 -14 53.5 -35t57.5 -54q17 7 30 20q14 11 26 29q-35 44 -81 68t-95 24q-21 0 -45 -6q-13 -3 -24 -6.5t-27 -10.5z" />
<glyph unicode="&#xe8;" horiz-adv-x="801" d="M66 317q0 190 111.5 317.5t273.5 127.5q93 0 166 -51t104 -139l14 2l8 1q14 0 20.5 -6t8.5 -20q0 -12 -14 -22q-6 -4 -23 -8.5t-31 -8.5l-452 -107q0 -146 63 -237q60 -86 160 -86q75 0 156 45l84 45q7 0 13.5 -6.5t6.5 -18.5q0 -10 -11.5 -22.5t-51.5 -38.5 q-97 -62 -172.5 -90.5t-139.5 -28.5q-131 0 -212.5 97.5t-81.5 254.5zM111 319q0 -134 63.5 -219.5t163.5 -85.5h15q10 0 24 2l34 9q-110 24 -169.5 108.5t-59.5 220.5q0 99 29 180q15 43 35.5 78.5t50.5 69.5q-80 -32 -133 -134t-53 -229zM198 1139q0 23 27 34q13 5 35 8 t53 3q67 0 92 -14q25 -12 43 -50l66 -135l10 -21l31 -69q0 -8 -10.5 -15.5t-28.5 -9.5q-27 0 -73.5 25t-98.5 70q-66 52 -106 100.5t-40 73.5zM258 461l285 67q-24 88 -61 129q-35 43 -83 43q-57 0 -96 -63q-19 -33 -32 -78.5t-13 -97.5zM278 1124q36 -56 87.5 -109 t121.5 -106l21 6l-86 158l-2 3q-35 67 -97 67l-19 -1l-14 -2zM467 719q40 -25 69.5 -68t51.5 -110l61 14q-30 85 -73.5 124.5t-104.5 39.5h-4z" />
<glyph unicode="&#xe9;" horiz-adv-x="801" d="M66 317q0 190 111.5 317.5t273.5 127.5q93 0 166 -51t104 -139l14 2l8 1q14 0 20.5 -6t8.5 -20q0 -12 -14 -22q-6 -4 -23 -8.5t-31 -8.5l-452 -107q0 -146 63 -237q60 -86 160 -86q75 0 156 45l84 45q7 0 13.5 -6.5t6.5 -18.5q0 -10 -11.5 -22.5t-51.5 -38.5 q-97 -62 -172.5 -90.5t-139.5 -28.5q-131 0 -212.5 97.5t-81.5 254.5zM111 319q0 -134 63.5 -219.5t163.5 -85.5h15q10 0 24 2l34 9q-110 24 -169.5 108.5t-59.5 220.5q0 99 29 180q15 43 35.5 78.5t50.5 69.5q-80 -32 -133 -134t-53 -229zM258 461l285 67q-24 88 -61 129 q-35 43 -83 43q-57 0 -96 -63q-19 -33 -32 -78.5t-13 -97.5zM358 895l18 41l23 49l64 135q14 35 42 49.5t95 14.5q62 0 87 -11q27 -9 27 -34q0 -24 -38.5 -71t-106.5 -103q-54 -45 -101 -70t-71 -25q-16 0 -27 7.5t-12 17.5zM405 915l21 -6q63 46 115.5 100.5t91.5 114.5 l-12 16l-15 2l-19 1q-62 0 -96 -67l-2 -3zM467 719q40 -25 69.5 -68t51.5 -110l61 14q-30 85 -73.5 124.5t-104.5 39.5h-4z" />
<glyph unicode="&#xea;" horiz-adv-x="801" d="M66 317q0 190 111.5 317.5t273.5 127.5q93 0 166 -51t104 -139l14 2l8 1q14 0 20.5 -6t8.5 -20q0 -12 -14 -22q-6 -4 -23 -8.5t-31 -8.5l-452 -107q0 -146 63 -237q60 -86 160 -86q75 0 156 45l84 45q7 0 13.5 -6.5t6.5 -18.5q0 -10 -11.5 -22.5t-51.5 -38.5 q-97 -62 -172.5 -90.5t-139.5 -28.5q-131 0 -212.5 97.5t-81.5 254.5zM111 319q0 -134 63.5 -219.5t163.5 -85.5h15q10 0 24 2l34 9q-110 24 -169.5 108.5t-59.5 220.5q0 99 29 180q15 43 35.5 78.5t50.5 69.5q-80 -32 -133 -134t-53 -229zM176 891l75 93q75 93 99 198h186 q18 -88 93 -176t75 -103q0 -14 -8.5 -21.5t-24.5 -7.5q-47 0 -126 50t-154 133q-81 -102 -124.5 -142.5t-70.5 -40.5q-10 0 -14 3.5t-6 13.5zM258 461l285 67q-24 88 -61 129q-35 43 -83 43q-57 0 -96 -63q-19 -33 -32 -78.5t-13 -97.5zM411 1100q64 -77 131 -129.5 t121 -67.5l6 12q-39 32 -89 90q-21 25 -49 61.5t-52 70.5h-51zM467 719q40 -25 69.5 -68t51.5 -110l61 14q-30 85 -73.5 124.5t-104.5 39.5h-4z" />
<glyph unicode="&#xeb;" horiz-adv-x="801" d="M66 317q0 190 111.5 317.5t273.5 127.5q93 0 166 -51t104 -139l14 2l8 1q14 0 20.5 -6t8.5 -20q0 -12 -14 -22q-6 -4 -23 -8.5t-31 -8.5l-452 -107q0 -146 63 -237q60 -86 160 -86q75 0 156 45l84 45q7 0 13.5 -6.5t6.5 -18.5q0 -10 -11.5 -22.5t-51.5 -38.5 q-97 -62 -172.5 -90.5t-139.5 -28.5q-131 0 -212.5 97.5t-81.5 254.5zM111 319q0 -134 63.5 -219.5t163.5 -85.5h15q10 0 24 2l34 9q-110 24 -169.5 108.5t-59.5 220.5q0 99 29 180q15 43 35.5 78.5t50.5 69.5q-80 -32 -133 -134t-53 -229zM151 1026q0 44 32.5 76.5 t76.5 32.5q42 0 73 -32.5t31 -74.5q0 -47 -29 -76.5t-75 -29.5q-45 0 -78 30q-31 31 -31 74zM192 1026q0 -20 17.5 -36.5t37.5 -16.5q22 0 39 15t17 38t-17 40q-15 17 -39 17q-20 0 -37.5 -17.5t-17.5 -39.5zM258 461l285 67q-24 88 -61 129q-35 43 -83 43q-57 0 -96 -63 q-19 -33 -32 -78.5t-13 -97.5zM467 719q40 -25 69.5 -68t51.5 -110l61 14q-30 85 -73.5 124.5t-104.5 39.5h-4zM516 1028q0 42 32 74.5t74 32.5q43 0 75 -32t32 -75q0 -45 -30 -77q-31 -29 -77 -29q-44 0 -75 30t-31 76zM557 1026q0 -20 15.5 -36.5t37.5 -16.5q23 0 40 15 t17 38q0 21 -17.5 39t-39.5 18q-20 0 -36.5 -18t-16.5 -39z" />
<glyph unicode="&#xec;" horiz-adv-x="627" d="M59 23q0 35 55 35q26 0 39 5q41 18 56 49q14 33 14 126v254q0 78 -13.5 102.5t-54.5 38.5l-12 3l-20 1h-23q-21 0 -31 6t-10 21q0 32 68 32q12 0 26 0.5t31 3.5q102 15 199 73q24 15 31 15q9 0 15.5 -6t8.5 -16l-13 -90q-13 -93 -13 -164v-274q0 -42 3 -71.5t10 -49.5 q14 -36 51 -54l36 -5q49 0 49 -35q0 -13 -9 -22q-11 -7 -26 -7l-18 1q-38 0 -105.5 2.5t-83.5 2.5q-43 0 -116 -2.5t-88 -2.5l-25 -1q-15 0 -22 6t-9 23zM71 1139q0 23 27 34q13 5 35 8t53 3q67 0 92 -14q25 -12 43 -50l66 -135l10 -21l31 -69q0 -8 -10.5 -15.5t-28.5 -9.5 q-27 0 -73.5 25t-98.5 70q-66 52 -106 100.5t-40 73.5zM151 1124q36 -56 87.5 -109t121.5 -106l21 6l-86 158l-2 3q-35 67 -97 67l-19 -1l-14 -2zM223 55l37 4l43 4h18q16 -3 25 -4l37 -4q-21 20 -32 64q-9 42 -9 153v246l3 105q0 22 2.5 39.5t8.5 41.5q-29 -16 -59 -27 l-68 -20q18 -18 27.5 -47t9.5 -69v-269q0 -107 -9.5 -150t-33.5 -67z" />
<glyph unicode="&#xed;" horiz-adv-x="627" d="M59 23q0 35 55 35q26 0 39 5q41 18 56 49q14 33 14 126v254q0 78 -13.5 102.5t-54.5 38.5l-12 3l-20 1h-23q-21 0 -31 6t-10 21q0 32 68 32q12 0 26 0.5t31 3.5q102 15 199 73q24 15 31 15q9 0 15.5 -6t8.5 -16l-13 -90q-13 -93 -13 -164v-274q0 -42 3 -71.5t10 -49.5 q14 -36 51 -54l36 -5q49 0 49 -35q0 -13 -9 -22q-11 -7 -26 -7l-18 1q-38 0 -105.5 2.5t-83.5 2.5q-43 0 -116 -2.5t-88 -2.5l-25 -1q-15 0 -22 6t-9 23zM223 55l37 4l43 4h18q16 -3 25 -4l37 -4q-21 20 -32 64q-9 42 -9 153v246l3 105q0 22 2.5 39.5t8.5 41.5 q-29 -16 -59 -27l-68 -20q18 -18 27.5 -47t9.5 -69v-269q0 -107 -9.5 -150t-33.5 -67zM231 895l18 41l23 49l64 135q14 35 42 49.5t95 14.5q62 0 87 -11q27 -9 27 -34q0 -24 -38.5 -71t-106.5 -103q-54 -45 -101 -70t-71 -25q-16 0 -27 7.5t-12 17.5zM278 915l21 -6 q63 46 115.5 100.5t91.5 114.5l-12 16l-15 2l-19 1q-62 0 -96 -67l-2 -3z" />
<glyph unicode="&#xee;" horiz-adv-x="627" d="M49 891l75 93q75 93 99 198h186q18 -88 93 -176t75 -103q0 -14 -8.5 -21.5t-24.5 -7.5q-47 0 -126 50t-154 133q-81 -102 -124.5 -142.5t-70.5 -40.5q-10 0 -14 3.5t-6 13.5zM59 23q0 35 55 35q26 0 39 5q41 18 56 49q14 33 14 126v254q0 78 -13.5 102.5t-54.5 38.5 l-12 3l-20 1h-23q-21 0 -31 6t-10 21q0 32 68 32q12 0 26 0.5t31 3.5q102 15 199 73q24 15 31 15q9 0 15.5 -6t8.5 -16l-13 -90q-13 -93 -13 -164v-274q0 -42 3 -71.5t10 -49.5q14 -36 51 -54l36 -5q49 0 49 -35q0 -13 -9 -22q-11 -7 -26 -7l-18 1q-38 0 -105.5 2.5 t-83.5 2.5q-43 0 -116 -2.5t-88 -2.5l-25 -1q-15 0 -22 6t-9 23zM223 55l37 4l43 4h18q16 -3 25 -4l37 -4q-21 20 -32 64q-9 42 -9 153v246l3 105q0 22 2.5 39.5t8.5 41.5q-29 -16 -59 -27l-68 -20q18 -18 27.5 -47t9.5 -69v-269q0 -107 -9.5 -150t-33.5 -67zM284 1100 q64 -77 131 -129.5t121 -67.5l6 12q-39 32 -89 90q-21 25 -49 61.5t-52 70.5h-51z" />
<glyph unicode="&#xef;" horiz-adv-x="627" d="M24 1026q0 44 32.5 76.5t76.5 32.5q42 0 73 -32.5t31 -74.5q0 -47 -29 -76.5t-75 -29.5q-45 0 -78 30q-31 31 -31 74zM59 23q0 35 55 35q26 0 39 5q41 18 56 49q14 33 14 126v254q0 78 -13.5 102.5t-54.5 38.5l-12 3l-20 1h-23q-21 0 -31 6t-10 21q0 32 68 32 q12 0 26 0.5t31 3.5q102 15 199 73q24 15 31 15q9 0 15.5 -6t8.5 -16l-13 -90q-13 -93 -13 -164v-274q0 -42 3 -71.5t10 -49.5q14 -36 51 -54l36 -5q49 0 49 -35q0 -13 -9 -22q-11 -7 -26 -7l-18 1q-38 0 -105.5 2.5t-83.5 2.5q-43 0 -116 -2.5t-88 -2.5l-25 -1q-15 0 -22 6 t-9 23zM65 1026q0 -20 17.5 -36.5t37.5 -16.5q22 0 39 15t17 38t-17 40q-15 17 -39 17q-20 0 -37.5 -17.5t-17.5 -39.5zM223 55l37 4l43 4h18q16 -3 25 -4l37 -4q-21 20 -32 64q-9 42 -9 153v246l3 105q0 22 2.5 39.5t8.5 41.5q-29 -16 -59 -27l-68 -20q18 -18 27.5 -47 t9.5 -69v-269q0 -107 -9.5 -150t-33.5 -67zM389 1028q0 42 32 74.5t74 32.5q43 0 75 -32t32 -75q0 -45 -30 -77q-31 -29 -77 -29q-44 0 -75 30t-31 76zM430 1026q0 -20 15.5 -36.5t37.5 -16.5q23 0 40 15t17 38q0 21 -17.5 39t-39.5 18q-20 0 -36.5 -18t-16.5 -39z" />
<glyph unicode="&#xf0;" horiz-adv-x="829" d="M59 440q0 141 101 231.5t256 90.5q75 0 132 -20q61 -18 103 -56q55 40 92 59q37 17 68 17q32 0 45.5 -8.5t13.5 -30.5q0 -40 -6.5 -61.5t-19.5 -22.5l-15 4q-39 14 -73 14q-19 0 -35 -5q-16 -3 -35 -13q34 -46 51 -93t17 -97q0 -95 -50.5 -159t-154.5 -100 q-34 -11 -104 -25q-119 -23 -119 -75q0 -29 21 -44q23 -13 69 -13l13 1l24 1q226 0 312.5 -48t86.5 -165q0 -67 -35.5 -132.5t-103.5 -119.5q-75 -59 -173 -94t-190 -35q-122 0 -198 57t-76 150q0 60 38 112t113 95q-48 15 -76 49t-28 78q0 69 48.5 114t152.5 70 q-127 15 -196 86.5t-69 187.5zM111 440q0 -98 56.5 -162t154.5 -73q-72 45 -108 109.5t-36 148.5q0 79 34.5 135.5t115.5 110.5q-99 -12 -158 -85.5t-59 -183.5zM127 1186h72q12 -70 70.5 -112t146.5 -42q86 0 144.5 41.5t72.5 112.5h72q-18 -148 -93.5 -227.5t-195.5 -79.5 t-194 77.5t-95 229.5zM156 1155q22 -107 88.5 -163t171.5 -56q106 0 171 54t89 165h-22q-16 -73 -82 -118.5t-156 -45.5t-155 45t-83 119h-22zM166 -6q0 -53 66 -82.5t195 -29.5l42 -1q84 0 142 -10.5t91 -28.5q60 -32 60 -106l-3 -40l-1 -11q3 6 13 28.5t13 31.5q9 27 9 52 q0 80 -63 119q-34 21 -85.5 33t-121.5 12l-74 3q-100 0 -151.5 20t-51.5 55q0 10 1.5 16t8 22t23.5 38q-56 -21 -84.5 -51t-28.5 -70zM172 -350q0 -69 53 -110.5t142 -41.5q135 0 244.5 72.5t109.5 155.5q0 63 -75.5 89.5t-278.5 26.5h-72q-57 -35 -90 -86.5t-33 -105.5z M256 479q0 -113 44.5 -183.5t111.5 -70.5q59 0 100 61t41 156q0 108 -44.5 181t-111.5 73q-59 0 -100 -61t-41 -156zM485 707q57 -48 87 -114t30 -144q0 -67 -17 -118.5t-55 -92.5q70 16 109 78t39 157q0 96 -53 159t-140 75z" />
<glyph unicode="&#xf1;" horiz-adv-x="1171" d="M41 23q0 33 59 33q30 0 47 5q45 18 60.5 50.5t15.5 126.5v254q0 39 -3 63.5t-11 39.5q-13 27 -53 40l-23 -1l-22 -1q-26 0 -38 8t-12 25q0 32 68 32l57 4q101 15 197 72q22 12 31 14q9 0 15.5 -6t8.5 -16l-11 -52q-11 -46 -15 -89q119 76 193.5 106.5t133.5 30.5 q120 0 172 -79.5t52 -264.5v-180q0 -50 3 -80t11 -47q13 -31 53 -50l43 -4q55 0 55 -34q0 -14 -9 -21.5t-27 -7.5l-22 1q-46 0 -75 1q-115 4 -129 4q-45 0 -112.5 -2.5t-75.5 -2.5l-19 -1q-16 0 -25 6q-7 7 -7 23q0 30 52 34q24 0 33 4q34 16 47 49.5t13 127.5v204 q0 109 -35 154t-119 45q-57 0 -111 -21.5t-95 -62.5v-319q0 -42 3 -71.5t10 -49.5q13 -35 51 -56q9 -3 34 -3q51 0 51 -35q0 -15 -8.5 -22t-24.5 -7l-18 1q-39 0 -106.5 2.5t-84.5 2.5q-41 0 -116 -2.5t-94 -2.5l-33 -1q-16 0 -25.5 7.5t-9.5 21.5zM221 55l37 3l45 3l45 -3 l35 -3q-21 20 -32 64q-9 42 -9 153v246l3 105q0 22 2.5 39.5t8.5 41.5q-29 -16 -59 -27l-68 -20q18 -18 27.5 -47t9.5 -69v-269q0 -107 -9.5 -151.5t-35.5 -65.5zM279 891q15 100 78.5 163.5t150.5 63.5q37 0 103.5 -18.5t99.5 -18.5q46 0 75 20t42 60h65 q-9 -103 -71.5 -170t-149.5 -67q-32 0 -105 18.5t-108 18.5q-44 0 -71.5 -17.5t-39.5 -52.5h-69zM322 938l14 -6q35 44 77 68q42 22 89 22q37 0 103.5 -18.5t97.5 -18.5q52 0 86.5 28.5t50.5 86.5l-14 4q-18 -32 -47 -48t-68 -16q-35 0 -104 18.5t-97 18.5 q-64 0 -110.5 -34.5t-77.5 -104.5zM592 676h26q108 0 152.5 -54.5t44.5 -191.5v-164q0 -103 -9.5 -145.5t-35.5 -65.5l36 3l48 3l45 -3l35 -3q-24 22 -33.5 64.5t-9.5 146.5v156q0 157 -42 223t-140 66q-32 0 -62 -9.5t-55 -25.5z" />
<glyph unicode="&#xf2;" horiz-adv-x="930" d="M72 365q0 170 117.5 283.5t293.5 113.5q162 0 268.5 -112.5t106.5 -284.5q0 -171 -118 -284.5t-294 -113.5q-165 0 -269.5 111.5t-104.5 286.5zM111 375q0 -142 74.5 -242t197.5 -121q-97 63 -147 160t-50 225q0 83 24 150t79 131q-81 -41 -129.5 -122t-48.5 -181z M223 1139q0 23 27 34q13 5 35 8t53 3q67 0 92 -14q25 -12 43 -50l66 -135l10 -21l31 -69q0 -8 -10.5 -15.5t-28.5 -9.5q-27 0 -73.5 25t-98.5 70q-66 52 -106 100.5t-40 73.5zM268 436q0 -178 65 -295.5t159 -117.5q78 0 124 71t46 195q0 178 -63.5 294.5t-158.5 116.5 q-80 0 -126 -70.5t-46 -193.5zM303 1124q36 -56 87.5 -109t121.5 -106l21 6l-86 158l-2 3q-35 67 -97 67l-19 -1l-14 -2zM526 717q81 -53 127.5 -162.5t46.5 -249.5q0 -96 -24.5 -162.5t-75.5 -107.5q77 18 126.5 105t49.5 210q0 156 -71 258q-35 52 -80 80.5t-99 28.5z" />
<glyph unicode="&#xf3;" horiz-adv-x="930" d="M72 365q0 170 117.5 283.5t293.5 113.5q162 0 268.5 -112.5t106.5 -284.5q0 -171 -118 -284.5t-294 -113.5q-165 0 -269.5 111.5t-104.5 286.5zM111 375q0 -142 74.5 -242t197.5 -121q-97 63 -147 160t-50 225q0 83 24 150t79 131q-81 -41 -129.5 -122t-48.5 -181z M268 436q0 -178 65 -295.5t159 -117.5q78 0 124 71t46 195q0 178 -63.5 294.5t-158.5 116.5q-80 0 -126 -70.5t-46 -193.5zM383 895l18 41l23 49l64 135q14 35 42 49.5t95 14.5q62 0 87 -11q27 -9 27 -34q0 -24 -38.5 -71t-106.5 -103q-54 -45 -101 -70t-71 -25 q-16 0 -27 7.5t-12 17.5zM430 915l21 -6q63 46 115.5 100.5t91.5 114.5l-12 16l-15 2l-19 1q-62 0 -96 -67l-2 -3zM526 717q81 -53 127.5 -162.5t46.5 -249.5q0 -96 -24.5 -162.5t-75.5 -107.5q77 18 126.5 105t49.5 210q0 156 -71 258q-35 52 -80 80.5t-99 28.5z" />
<glyph unicode="&#xf4;" horiz-adv-x="930" d="M72 365q0 170 117.5 283.5t293.5 113.5q162 0 268.5 -112.5t106.5 -284.5q0 -171 -118 -284.5t-294 -113.5q-165 0 -269.5 111.5t-104.5 286.5zM111 375q0 -142 74.5 -242t197.5 -121q-97 63 -147 160t-50 225q0 83 24 150t79 131q-81 -41 -129.5 -122t-48.5 -181z M201 891l75 93q75 93 99 198h186q18 -88 93 -176t75 -103q0 -14 -8.5 -21.5t-24.5 -7.5q-47 0 -126 50t-154 133q-81 -102 -124.5 -142.5t-70.5 -40.5q-10 0 -14 3.5t-6 13.5zM268 436q0 -178 65 -295.5t159 -117.5q78 0 124 71t46 195q0 178 -63.5 294.5t-158.5 116.5 q-80 0 -126 -70.5t-46 -193.5zM436 1100q64 -77 131 -129.5t121 -67.5l6 12q-39 32 -89 90q-21 25 -49 61.5t-52 70.5h-51zM526 717q81 -53 127.5 -162.5t46.5 -249.5q0 -96 -24.5 -162.5t-75.5 -107.5q77 18 126.5 105t49.5 210q0 156 -71 258q-35 52 -80 80.5t-99 28.5z " />
<glyph unicode="&#xf5;" horiz-adv-x="930" d="M72 365q0 170 117.5 283.5t293.5 113.5q162 0 268.5 -112.5t106.5 -284.5q0 -171 -118 -284.5t-294 -113.5q-165 0 -269.5 111.5t-104.5 286.5zM111 375q0 -142 74.5 -242t197.5 -121q-97 63 -147 160t-50 225q0 83 24 150t79 131q-81 -41 -129.5 -122t-48.5 -181z M158 891q15 100 78.5 163.5t150.5 63.5q37 0 103.5 -18.5t99.5 -18.5q46 0 75 20t42 60h65q-9 -103 -71.5 -170t-149.5 -67q-32 0 -105 18.5t-108 18.5q-44 0 -71.5 -17.5t-39.5 -52.5h-69zM201 938l14 -6q35 44 77 68q42 22 89 22q37 0 103.5 -18.5t97.5 -18.5 q52 0 86.5 28.5t50.5 86.5l-14 4q-18 -32 -47 -48t-68 -16q-35 0 -104 18.5t-97 18.5q-64 0 -110.5 -34.5t-77.5 -104.5zM268 436q0 -178 65 -295.5t159 -117.5q78 0 124 71t46 195q0 178 -63.5 294.5t-158.5 116.5q-80 0 -126 -70.5t-46 -193.5zM526 717 q81 -53 127.5 -162.5t46.5 -249.5q0 -96 -24.5 -162.5t-75.5 -107.5q77 18 126.5 105t49.5 210q0 156 -71 258q-35 52 -80 80.5t-99 28.5z" />
<glyph unicode="&#xf6;" horiz-adv-x="930" d="M72 365q0 170 117.5 283.5t293.5 113.5q162 0 268.5 -112.5t106.5 -284.5q0 -171 -118 -284.5t-294 -113.5q-165 0 -269.5 111.5t-104.5 286.5zM111 375q0 -142 74.5 -242t197.5 -121q-97 63 -147 160t-50 225q0 83 24 150t79 131q-81 -41 -129.5 -122t-48.5 -181z M176 1026q0 44 32.5 76.5t76.5 32.5q42 0 73 -32.5t31 -74.5q0 -47 -29 -76.5t-75 -29.5q-45 0 -78 30q-31 31 -31 74zM217 1026q0 -20 17.5 -36.5t37.5 -16.5q22 0 39 15t17 38t-17 40q-15 17 -39 17q-20 0 -37.5 -17.5t-17.5 -39.5zM268 436q0 -178 65 -295.5t159 -117.5 q78 0 124 71t46 195q0 178 -63.5 294.5t-158.5 116.5q-80 0 -126 -70.5t-46 -193.5zM526 717q81 -53 127.5 -162.5t46.5 -249.5q0 -96 -24.5 -162.5t-75.5 -107.5q77 18 126.5 105t49.5 210q0 156 -71 258q-35 52 -80 80.5t-99 28.5zM541 1028q0 42 32 74.5t74 32.5 q43 0 75 -32t32 -75q0 -45 -30 -77q-31 -29 -77 -29q-44 0 -75 30t-31 76zM582 1026q0 -20 15.5 -36.5t37.5 -16.5q23 0 40 15t17 38q0 21 -17.5 39t-39.5 18q-20 0 -36.5 -18t-16.5 -39z" />
<glyph unicode="&#xf7;" horiz-adv-x="1706" d="M254 569v82h1198v-82h-1198zM756 264q0 41 29 71t69 30t69 -29.5t29 -71.5q0 -40 -29 -69q-27 -29 -69 -29q-41 0 -70 28q-28 30 -28 70zM756 956q0 41 28.5 70t69.5 29t69 -29q29 -27 29 -70q0 -40 -29 -70q-27 -30 -69 -30q-41 0 -70 29q-28 31 -28 71z" />
<glyph unicode="&#xf8;" horiz-adv-x="930" d="M72 365q0 170 117.5 283.5t295.5 113.5q52 0 93 -11q42 -9 86 -30l55 84q13 19 20 24.5t17 6.5h22q7 0 13.5 -3.5t7.5 -7.5l-2 -4l-11 -16l-75 -117q70 -58 108.5 -142.5t38.5 -180.5q0 -172 -117 -285t-292 -113q-23 0 -42.5 2t-45.5 8q-45 9 -93 27l-69 -100 q-13 -18 -20 -24.5t-15 -6.5h-23q-7 0 -11.5 2.5t-6 4.5t-2.5 3l2 8l8 13l88 133q-69 51 -108 137.5t-39 190.5zM111 375q0 -142 74.5 -242t197.5 -121q-97 63 -147 160t-50 225q0 83 24 150t79 131q-81 -41 -129.5 -122t-48.5 -181zM268 442q0 -69 12.5 -136.5t34.5 -121.5 l271 416q-27 51 -63.5 75.5t-80.5 24.5q-79 0 -126.5 -68.5t-47.5 -189.5zM344 123q22 -46 60 -74q38 -26 85 -26q81 0 129 72.5t48 199.5q0 58 -13 119q-6 31 -14.5 62t-22.5 67zM526 717q81 -53 127.5 -162.5t46.5 -249.5q0 -96 -24.5 -162.5t-75.5 -107.5 q77 18 126.5 105t49.5 210q0 156 -71 258q-35 52 -80 80.5t-99 28.5z" />
<glyph unicode="&#xf9;" horiz-adv-x="1151" d="M39 664q0 26 68 32q36 0 56 4q102 15 199 73q24 15 31 15q9 0 15.5 -6.5t7.5 -17.5l-13 -89q-12 -84 -12 -163v-223q0 -98 27 -143.5t86 -45.5q47 0 104 18q29 10 60.5 24t76.5 38v309q0 83 -12 108.5t-47 39.5l-8 1l-12 1h-31q-19 0 -28 6q-5 5 -7 21q0 30 60 30h29 q17 3 23 4q100 15 195 73q24 15 31 15q9 0 14.5 -6t8.5 -18l-13 -86q-12 -84 -12 -166v-401l63 21q58 20 72 22q18 0 27.5 -9.5t9.5 -25.5q0 -21 -65 -43l-36 -13q-33 -12 -65.5 -26t-74.5 -34q-75 -36 -89 -36q-19 0 -28 12q-7 12 -7 46v51v19.5t2 22.5q-81 -48 -135.5 -77 t-94.5 -45q-72 -29 -128 -29q-99 0 -142.5 77.5t-43.5 266.5v178q0 78 -14.5 105t-53.5 39l-13 3l-20 1h-22q-22 0 -29.5 5.5t-9.5 21.5zM207 657q18 -14 27.5 -45.5t9.5 -70.5v-232q0 -162 34 -229.5t115 -67.5q16 0 24 1.5t25 6.5q28 9 59 25q-99 0 -140.5 56t-41.5 200 v168q0 30 2 76t2 62q0 22 3.5 47t9.5 51q-24 -13 -60 -28zM333 1139q0 23 27 34q13 5 35 8t53 3q67 0 92 -14q25 -12 43 -50l66 -135l10 -21l31 -69q0 -8 -10.5 -15.5t-28.5 -9.5q-27 0 -73.5 25t-98.5 70q-66 52 -106 100.5t-40 73.5zM413 1124q36 -56 87.5 -109 t121.5 -106l21 6l-86 158l-2 3q-35 67 -97 67l-19 -1l-14 -2zM752 657q18 -18 27 -47t9 -69v-496l76 31v393q0 104 4 147q0 21 3.5 43t9.5 46q-29 -16 -59 -27z" />
<glyph unicode="&#xfa;" horiz-adv-x="1151" d="M39 664q0 26 68 32q36 0 56 4q102 15 199 73q24 15 31 15q9 0 15.5 -6.5t7.5 -17.5l-13 -89q-12 -84 -12 -163v-223q0 -98 27 -143.5t86 -45.5q47 0 104 18q29 10 60.5 24t76.5 38v309q0 83 -12 108.5t-47 39.5l-8 1l-12 1h-31q-19 0 -28 6q-5 5 -7 21q0 30 60 30h29 q17 3 23 4q100 15 195 73q24 15 31 15q9 0 14.5 -6t8.5 -18l-13 -86q-12 -84 -12 -166v-401l63 21q58 20 72 22q18 0 27.5 -9.5t9.5 -25.5q0 -21 -65 -43l-36 -13q-33 -12 -65.5 -26t-74.5 -34q-75 -36 -89 -36q-19 0 -28 12q-7 12 -7 46v51v19.5t2 22.5q-81 -48 -135.5 -77 t-94.5 -45q-72 -29 -128 -29q-99 0 -142.5 77.5t-43.5 266.5v178q0 78 -14.5 105t-53.5 39l-13 3l-20 1h-22q-22 0 -29.5 5.5t-9.5 21.5zM207 657q18 -14 27.5 -45.5t9.5 -70.5v-232q0 -162 34 -229.5t115 -67.5q16 0 24 1.5t25 6.5q28 9 59 25q-99 0 -140.5 56t-41.5 200 v168q0 30 2 76t2 62q0 22 3.5 47t9.5 51q-24 -13 -60 -28zM493 895l18 41l23 49l64 135q14 35 42 49.5t95 14.5q62 0 87 -11q27 -9 27 -34q0 -24 -38.5 -71t-106.5 -103q-54 -45 -101 -70t-71 -25q-16 0 -27 7.5t-12 17.5zM540 915l21 -6q63 46 115.5 100.5t91.5 114.5 l-12 16l-15 2l-19 1q-62 0 -96 -67l-2 -3zM752 657q18 -18 27 -47t9 -69v-496l76 31v393q0 104 4 147q0 21 3.5 43t9.5 46q-29 -16 -59 -27z" />
<glyph unicode="&#xfb;" horiz-adv-x="1151" d="M39 664q0 26 68 32q36 0 56 4q102 15 199 73q24 15 31 15q9 0 15.5 -6.5t7.5 -17.5l-13 -89q-12 -84 -12 -163v-223q0 -98 27 -143.5t86 -45.5q47 0 104 18q29 10 60.5 24t76.5 38v309q0 83 -12 108.5t-47 39.5l-8 1l-12 1h-31q-19 0 -28 6q-5 5 -7 21q0 30 60 30h29 q17 3 23 4q100 15 195 73q24 15 31 15q9 0 14.5 -6t8.5 -18l-13 -86q-12 -84 -12 -166v-401l63 21q58 20 72 22q18 0 27.5 -9.5t9.5 -25.5q0 -21 -65 -43l-36 -13q-33 -12 -65.5 -26t-74.5 -34q-75 -36 -89 -36q-19 0 -28 12q-7 12 -7 46v51v19.5t2 22.5q-81 -48 -135.5 -77 t-94.5 -45q-72 -29 -128 -29q-99 0 -142.5 77.5t-43.5 266.5v178q0 78 -14.5 105t-53.5 39l-13 3l-20 1h-22q-22 0 -29.5 5.5t-9.5 21.5zM207 657q18 -14 27.5 -45.5t9.5 -70.5v-232q0 -162 34 -229.5t115 -67.5q16 0 24 1.5t25 6.5q28 9 59 25q-99 0 -140.5 56t-41.5 200 v168q0 30 2 76t2 62q0 22 3.5 47t9.5 51q-24 -13 -60 -28zM311 891l75 93q75 93 99 198h186q18 -88 93 -176t75 -103q0 -14 -8.5 -21.5t-24.5 -7.5q-47 0 -126 50t-154 133q-81 -102 -124.5 -142.5t-70.5 -40.5q-10 0 -14 3.5t-6 13.5zM546 1100q64 -77 131 -129.5 t121 -67.5l6 12q-39 32 -89 90q-21 25 -49 61.5t-52 70.5h-51zM752 657q18 -18 27 -47t9 -69v-496l76 31v393q0 104 4 147q0 21 3.5 43t9.5 46q-29 -16 -59 -27z" />
<glyph unicode="&#xfc;" horiz-adv-x="1151" d="M39 664q0 26 68 32q36 0 56 4q102 15 199 73q24 15 31 15q9 0 15.5 -6.5t7.5 -17.5l-13 -89q-12 -84 -12 -163v-223q0 -98 27 -143.5t86 -45.5q47 0 104 18q29 10 60.5 24t76.5 38v309q0 83 -12 108.5t-47 39.5l-8 1l-12 1h-31q-19 0 -28 6q-5 5 -7 21q0 30 60 30h29 q17 3 23 4q100 15 195 73q24 15 31 15q9 0 14.5 -6t8.5 -18l-13 -86q-12 -84 -12 -166v-401l63 21q58 20 72 22q18 0 27.5 -9.5t9.5 -25.5q0 -21 -65 -43l-36 -13q-33 -12 -65.5 -26t-74.5 -34q-75 -36 -89 -36q-19 0 -28 12q-7 12 -7 46v51v19.5t2 22.5q-81 -48 -135.5 -77 t-94.5 -45q-72 -29 -128 -29q-99 0 -142.5 77.5t-43.5 266.5v178q0 78 -14.5 105t-53.5 39l-13 3l-20 1h-22q-22 0 -29.5 5.5t-9.5 21.5zM207 657q18 -14 27.5 -45.5t9.5 -70.5v-232q0 -162 34 -229.5t115 -67.5q16 0 24 1.5t25 6.5q28 9 59 25q-99 0 -140.5 56t-41.5 200 v168q0 30 2 76t2 62q0 22 3.5 47t9.5 51q-24 -13 -60 -28zM286 1026q0 44 32.5 76.5t76.5 32.5q42 0 73 -32.5t31 -74.5q0 -47 -29 -76.5t-75 -29.5q-45 0 -78 30q-31 31 -31 74zM327 1026q0 -20 17.5 -36.5t37.5 -16.5q22 0 39 15t17 38t-17 40q-15 17 -39 17 q-20 0 -37.5 -17.5t-17.5 -39.5zM651 1028q0 42 32 74.5t74 32.5q43 0 75 -32t32 -75q0 -45 -30 -77q-31 -29 -77 -29q-44 0 -75 30t-31 76zM692 1026q0 -20 15.5 -36.5t37.5 -16.5q23 0 40 15t17 38q0 21 -17.5 39t-39.5 18q-20 0 -36.5 -18t-16.5 -39zM752 657 q18 -18 27 -47t9 -69v-496l76 31v393q0 104 4 147q0 21 3.5 43t9.5 46q-29 -16 -59 -27z" />
<glyph unicode="&#xfd;" horiz-adv-x="627" d="M59 23q0 35 55 35q26 0 39 5q41 18 56 49q14 33 14 126v254q0 78 -13.5 102.5t-54.5 38.5l-12 3l-20 1h-23q-21 0 -31 6t-10 21q0 32 68 32q12 0 26 0.5t31 3.5q102 15 199 73q24 15 31 15q9 0 15.5 -6t8.5 -16l-13 -90q-13 -93 -13 -164v-274q0 -42 3 -71.5t10 -49.5 q14 -36 51 -54l36 -5q49 0 49 -35q0 -13 -9 -22q-11 -7 -26 -7l-18 1q-38 0 -105.5 2.5t-83.5 2.5q-43 0 -116 -2.5t-88 -2.5l-25 -1q-15 0 -22 6t-9 23zM223 55l37 4l43 4h18q16 -3 25 -4l37 -4q-21 20 -32 64q-9 42 -9 153v246l3 105q0 22 2.5 39.5t8.5 41.5 q-29 -16 -59 -27l-68 -20q18 -18 27.5 -47t9.5 -69v-269q0 -107 -9.5 -150t-33.5 -67z" />
<glyph unicode="&#xfe;" horiz-adv-x="707" d="M80 4l3 13q9 36 9 69v14v12q0 20 -1 42.5t-4 44.5l-5 59q0 14 5.5 19t21.5 6q23 0 29 -44l7 -49q18 -79 59 -118t107 -39q57 0 91 28.5t34 77.5q0 37 -21 66q-19 29 -63 51q-163 87 -209.5 141.5t-46.5 128.5q0 102 80.5 169t204.5 67q33 0 81 -9l58 -8q17 0 40 9l5 2 l9 -4l11 -8l-4 -40l-1 -32q0 -28 2 -49.5t9 -50.5l11 -52q0 -11 -8 -17.5t-23 -6.5q-16 0 -26 37l-11 39q-18 61 -61.5 98t-97.5 37q-53 0 -82 -26q-29 -24 -29 -71q0 -38 27 -73q26 -30 106 -80l45 -27q185 -108 185 -235q0 -98 -70.5 -163t-175.5 -65l-25 1l-37 -115h19 q116 0 174.5 -38t58.5 -112q0 -78 -62.5 -123t-170.5 -45q-85 0 -149 23.5t-64 50.5q0 13 9 22q11 7 30 7l9 -1l83 -2q60 0 88 20t28 60q0 36 -30 56q-16 9 -41 14.5t-59 5.5l55 183l-30 5q-72 11 -93 11q-22 0 -34 -2l-34 -8q-12 3 -18 9.5t-8 14.5zM137 532 q0 -100 165 -195l15 -9q102 -58 132 -95q32 -37 32 -83q0 -38 -17 -68.5t-50 -50.5q61 0 102 45t41 110q0 90 -173 196l-11 7q-114 69 -144 105t-30 81q0 28 10 56.5t33 62.5q-48 -18 -76.5 -62t-28.5 -100zM164 -401q35 -15 75 -25q18 -4 35 -6t39 -2q72 0 120 38.5 t48 96.5q0 51 -35 83q-35 30 -96 30h-16l-3 -15q36 -9 55 -31t19 -53q0 -52 -39 -81q-20 -15 -46.5 -22t-65.5 -7h-12q-6 0 -22 2q-16 0 -52 6z" />
<glyph unicode="&#xff;" horiz-adv-x="872" d="M0 707q0 10 10 20q10 8 25 10l24 -2q91 -8 166 -8q28 0 47 1q74 4 86 4l80 5q11 0 18 -7.5t9 -20.5q0 -14 -6.5 -21t-32.5 -16q-46 -15 -60 -32t-14 -48q0 -42 37 -151.5t103 -258.5l122 232q38 71 60 124t22 78q0 17 -11.5 31t-35.5 21l-18 4q-45 9 -45 33q0 12 13 22 t32 10l44 -5q28 -3 42 -4t43 -1q17 0 34.5 1t34.5 4l35 5q15 0 24 -9.5t9 -27.5q0 -15 -33 -35q-14 -7 -20.5 -11t-12.5 -9q-29 -24 -60 -70.5t-97 -168.5l-146 -273q-61 -118 -132 -276q-65 -147 -136 -330l-5 -14q-29 -78 -185 -78q-30 0 -43 7t-13 23q0 21 65 39l15 4 q72 0 117 104l16 36l148 305l-195 510q-13 36 -24.5 61t-25.5 47q-24 43 -56 70l-37 24q-37 22 -37 42zM115 672q31 -34 51.5 -66.5t32.5 -64.5l204 -539l46 90l-150 391l-15 55q-3 18 -4 27t-1 27q0 22 6 42t18 38l-54 -4h-38h-36zM147 1026q0 44 32.5 76.5t76.5 32.5 q42 0 73 -32.5t31 -74.5q0 -47 -29 -76.5t-75 -29.5q-45 0 -78 30q-31 31 -31 74zM188 1026q0 -20 17.5 -36.5t37.5 -16.5q22 0 39 15t17 38t-17 40q-15 17 -39 17q-20 0 -37.5 -17.5t-17.5 -39.5zM512 1028q0 42 32 74.5t74 32.5q43 0 75 -32t32 -75q0 -45 -30 -77 q-31 -29 -77 -29q-44 0 -75 30t-31 76zM553 1026q0 -20 15.5 -36.5t37.5 -16.5q23 0 40 15t17 38q0 21 -17.5 39t-39.5 18q-20 0 -36.5 -18t-16.5 -39z" />
<glyph unicode="&#x152;" horiz-adv-x="2142" d="M94 627q0 106 23.5 196.5t68.5 167.5q96 162 256.5 249t366.5 87q20 0 62 -3q99 -7 156 -7q49 0 102 -3q124 -7 128 -7h363q39 0 119 3t120 3l33 2l31 -6l9 -10l3 -7l-3 -24q-21 -120 -21 -242l2 -19l2 -34q0 -14 -9.5 -23.5t-23.5 -9.5q-23 0 -31 39q-4 30 -12 51 q-37 107 -108 154t-195 47h-76q-84 0 -113 -44q-14 -22 -21 -69.5t-7 -124.5v-276q13 0 42 -1t46 -1h127q42 0 83.5 1t87.5 3q25 0 43.5 4.5t28.5 11.5q23 15 40 60q15 45 43 45q11 0 20 -9q6 -8 8 -24l-11 -89q-5 -37 -8 -80t-3 -83l2 -53l2 -35q0 -14 -9.5 -23.5 t-23.5 -9.5q-13 0 -21.5 7t-11.5 22l-4 36q-7 74 -33 101q-21 21 -75 30t-176 9l-117 -1l-80 -1v-293q0 -188 34.5 -232t135.5 -44q123 0 229.5 46.5t179.5 129.5q38 43 66 105.5t49 62.5q15 0 24 -7.5t11 -19.5q0 -17 -30.5 -119t-39.5 -186q0 -45 -15.5 -68.5t-43.5 -23.5 l-15 1q-41 5 -90 8t-100 3h-469q-48 0 -104 -3t-141 -11q-156 -15 -224 -15q-310 0 -496 179t-186 477zM158 643q0 -226 121.5 -388t334.5 -220q-185 99 -278.5 257t-93.5 372q0 164 62 304.5t179 241.5q-143 -63 -234 -221.5t-91 -345.5zM332 670q0 -296 132 -457.5 t376 -161.5q142 0 200 55t58 197v680q0 140 -68.5 205t-216.5 65q-227 0 -354 -154t-127 -429zM1121 62l38 4l39 2q24 0 37 -2l34 -4q-22 53 -34 131q-4 35 -7 92t-3 123v479q0 142 10.5 219.5t34.5 128.5l-38 -2l-36 -2l-39 2l-36 2q12 -21 18 -70t6 -207v-620 q0 -155 -6 -206q-4 -47 -18 -70zM1702 1251q56 -22 90 -53q36 -30 61 -77l6 76q1 15 4 32t7 33zM1720 68h193q2 21 3.5 37t7.5 47.5t15 62.5q-32 -46 -90 -86q-52 -35 -129 -61z" />
<glyph unicode="&#x153;" horiz-adv-x="1389" d="M72 365q0 170 117.5 283.5t295.5 113.5q91 0 159.5 -31t119.5 -94q63 63 132 94t142 31q95 0 167.5 -50.5t105.5 -140.5l14 3l8 1q14 0 20.5 -6t8.5 -20q0 -12 -14 -22q-10 -6 -54 -17l-452 -107q0 -146 63 -237q60 -86 160 -86q72 0 155 45q37 21 63 34q9 5 22 11 q7 0 13.5 -6.5t6.5 -18.5q0 -10 -11.5 -22.5t-51.5 -38.5q-92 -59 -168.5 -88t-139.5 -29q-73 0 -131 27.5t-92 77.5q-64 -52 -136.5 -78.5t-150.5 -26.5q-162 0 -267 112.5t-105 285.5zM111 375q0 -142 74.5 -242t197.5 -121q-97 63 -147 160t-50 225q0 83 24 150t79 131 q-81 -41 -129.5 -122t-48.5 -181zM268 436q0 -178 65 -295.5t159 -117.5q78 0 124 71t46 195q0 178 -63.5 294.5t-158.5 116.5q-80 0 -126 -70.5t-46 -193.5zM527 717q56 -37 95 -99.5t60 -148.5q3 14 7 29t10 28q11 28 26 50q-33 63 -83 99t-115 42zM600 35q10 4 27.5 12 t35.5 20q25 16 44 39l-23 46q-17 -39 -39 -70q-18 -25 -45 -47zM700 319q0 -135 64 -220t164 -85h15q10 0 24 2l34 9q-111 24 -170 108.5t-59 220.5q0 99 29 180q15 43 35.5 78.5t50.5 69.5q-81 -33 -134 -134.5t-53 -228.5zM848 461l285 67q-24 88 -61 130t-83 42 q-58 0 -97 -64q-20 -35 -32 -78.5t-12 -96.5zM1057 719q40 -25 69.5 -68t51.5 -110l61 14q-30 85 -73.5 124.5t-104.5 39.5h-4z" />
<glyph unicode="&#x178;" horiz-adv-x="1204" d="M-49 1274q0 17 9.5 25t31.5 8l97 -7q43 0 78.5 -2t86.5 -4q23 0 75 3t82 3l95 7q22 0 31.5 -7.5t9.5 -23.5q0 -15 -6.5 -25t-28.5 -20q-61 -8 -81.5 -22t-20.5 -42q0 -15 16 -50q7 -16 20 -38.5t31 -50.5l197 -315l246 315q35 46 55 84.5t20 61.5t-13 37q-11 14 -38 20 l-14 4q-41 12 -41 33t9 30t32 9q22 0 31 -1q22 -5 34 -6q51 -6 84 -6q32 0 83 6l65 7q20 0 31.5 -9t11.5 -28q0 -12 -7 -20l-28 -19q-96 -22 -194 -155l-31 -41l-295 -388v-158q0 -258 19.5 -329t73.5 -92l53 -5q61 0 61 -38q0 -16 -10 -24.5t-31 -8.5l-101 4l-178 4 q-29 0 -99.5 -2t-79.5 -2l-99 -4q-21 0 -31 8t-10 25q0 33 55 39l27 4q77 9 102 49t25 190v305l-267 398q-49 76 -80 116q-29 40 -55 68q-15 16 -37 25q-10 5 -26.5 8.5t-38.5 3.5q-37 16 -37 43zM125 1233q25 -33 53.5 -74.5t63.5 -98.5l32 -50l265 -408v-323 q0 -107 -5.5 -152.5t-16.5 -64.5l38 4l39 2q24 0 36 -2h14t21 -4q-22 53 -34 131q-4 35 -7 92t-3 123v221l-261 405q-11 19 -18 33.5t-16 35.5q-11 35 -11 62q0 17 6 35q2 6 7 16t10 17l-53 -1l-54 -1l-52 1zM313 1604q0 44 32.5 76.5t76.5 32.5q42 0 73 -32.5t31 -74.5 q0 -47 -29 -76.5t-75 -29.5q-45 0 -78 30q-31 31 -31 74zM354 1604q0 -20 17.5 -36.5t37.5 -16.5q22 0 39 15t17 38t-17 40q-15 17 -39 17q-20 0 -37.5 -17.5t-17.5 -39.5zM678 1606q0 42 32 74.5t74 32.5q43 0 75 -32t32 -75q0 -45 -30 -77q-31 -29 -77 -29q-44 0 -75 30 t-31 76zM719 1604q0 -20 15.5 -36.5t37.5 -16.5q23 0 40 15t17 38q0 21 -17.5 39t-39.5 18q-20 0 -36.5 -18t-16.5 -39z" />
<glyph unicode="&#x2c6;" horiz-adv-x="1024" d="M248 891l75 93q75 93 99 198h186q18 -88 93 -176t75 -103q0 -14 -8.5 -21.5t-24.5 -7.5q-47 0 -126 50t-154 133q-81 -102 -124.5 -142.5t-70.5 -40.5q-10 0 -14 3.5t-6 13.5zM483 1100q64 -77 131 -129.5t121 -67.5l6 12q-39 32 -89 90q-21 25 -49 61.5t-52 70.5h-51z " />
<glyph unicode="&#x2dc;" horiz-adv-x="1024" d="M205 891q15 100 78.5 163.5t150.5 63.5q37 0 103.5 -18.5t99.5 -18.5q46 0 75 20t42 60h65q-9 -103 -71.5 -170t-149.5 -67q-32 0 -105 18.5t-108 18.5q-44 0 -71.5 -17.5t-39.5 -52.5h-69zM248 938l14 -6q35 44 77 68q42 22 89 22q37 0 103.5 -18.5t97.5 -18.5 q52 0 86.5 28.5t50.5 86.5l-14 4q-18 -32 -47 -48t-68 -16q-35 0 -104 18.5t-97 18.5q-64 0 -110.5 -34.5t-77.5 -104.5z" />
<glyph unicode="&#x2000;" horiz-adv-x="889" />
<glyph unicode="&#x2001;" horiz-adv-x="1778" />
<glyph unicode="&#x2002;" horiz-adv-x="889" />
<glyph unicode="&#x2003;" horiz-adv-x="1778" />
<glyph unicode="&#x2004;" horiz-adv-x="592" />
<glyph unicode="&#x2005;" horiz-adv-x="444" />
<glyph unicode="&#x2006;" horiz-adv-x="296" />
<glyph unicode="&#x2007;" horiz-adv-x="296" />
<glyph unicode="&#x2008;" horiz-adv-x="222" />
<glyph unicode="&#x2009;" horiz-adv-x="355" />
<glyph unicode="&#x200a;" horiz-adv-x="98" />
<glyph unicode="&#x2010;" horiz-adv-x="653" d="M98 336q0 19 26 33l3 2l297 157q29 16 40.5 30t16.5 37l11 55q3 22 10.5 30t21.5 10q15 0 21 -9t6 -40l-2 -47l-2 -64v-31t4 -50l4 -54q0 -20 -29 -36l-297 -158q-25 -13 -41 -30q-12 -14 -16 -38l-10 -53q-3 -19 -11 -29t-22 -12q-14 0 -20.5 9.5t-6.5 35.5l2 41l2 72 v38q-3 29 -4 44zM160 230q3 6 9 13.5t14 13.5q13 10 50 32l273 143l-4 82l-342 -180v-104z" />
<glyph unicode="&#x2011;" horiz-adv-x="653" d="M98 336q0 19 26 33l3 2l297 157q29 16 40.5 30t16.5 37l11 55q3 22 10.5 30t21.5 10q15 0 21 -9t6 -40l-2 -47l-2 -64v-31t4 -50l4 -54q0 -20 -29 -36l-297 -158q-25 -13 -41 -30q-12 -14 -16 -38l-10 -53q-3 -19 -11 -29t-22 -12q-14 0 -20.5 9.5t-6.5 35.5l2 41l2 72 v38q-3 29 -4 44zM160 230q3 6 9 13.5t14 13.5q13 10 50 32l273 143l-4 82l-342 -180v-104z" />
<glyph unicode="&#x2012;" horiz-adv-x="653" d="M98 336q0 19 26 33l3 2l297 157q29 16 40.5 30t16.5 37l11 55q3 22 10.5 30t21.5 10q15 0 21 -9t6 -40l-2 -47l-2 -64v-31t4 -50l4 -54q0 -20 -29 -36l-297 -158q-25 -13 -41 -30q-12 -14 -16 -38l-10 -53q-3 -19 -11 -29t-22 -12q-14 0 -20.5 9.5t-6.5 35.5l2 41l2 72 v38q-3 29 -4 44zM160 230q3 6 9 13.5t14 13.5q13 10 50 32l273 143l-4 82l-342 -180v-104z" />
<glyph unicode="&#x2013;" horiz-adv-x="1024" d="M-25 293l2 12q2 10 5 15l53 123q8 17 20 24.5t29 7.5h936q16 0 24.5 -3.5t8.5 -12.5l-6 -18l-3 -7l-51 -125q-6 -16 -18 -24.5t-31 -8.5h-936q-16 0 -24.5 4.5t-8.5 12.5zM45 358h918l30 70h-917z" />
<glyph unicode="&#x2014;" horiz-adv-x="2048" d="M-25 293l2 12q2 10 5 15l53 123q8 17 20 24.5t29 7.5h1958q16 0 24.5 -3.5t8.5 -12.5l-2 -11l-4 -13l-54 -126q-6 -17 -17.5 -25t-29.5 -8h-1960q-16 0 -24.5 4.5t-8.5 12.5zM45 358h1942l30 70h-1941z" />
<glyph unicode="&#x2018;" horiz-adv-x="516" d="M92 848v70q81 41 152 144t139 279l66 -24q-33 -71 -61 -133q-24 -53 -40 -94q-29 -73 -29 -101t14 -48.5t42 -37.5v-55q-40 -21 -67 -52q-24 -31 -36 -71h-69q-19 47 -47 75q-27 30 -64 48zM176 872l35 -33l31 -38l29 33l36 34l-27 27l-38 47l-34 -38z" />
<glyph unicode="&#x2019;" horiz-adv-x="516" d="M92 750q24 54 54 121q35 80 53 123q22 60 22 81q0 28 -13.5 49.5t-41.5 38.5v54q41 21 65.5 51t36.5 73h70q17 -42 44.5 -73t66.5 -49v-72q-82 -42 -152.5 -143t-138.5 -279zM231 1196l43 -45l25 -29l33 38l33 32q-21 16 -38 35l-28 37l-34 -37z" />
<glyph unicode="&#x201a;" horiz-adv-x="516" d="M45 -307q24 54 54 121q35 80 53 123q22 60 22 81q0 28 -13.5 49.5t-41.5 38.5v54q41 21 65.5 51t36.5 73l70 1q18 -45 45.5 -75.5t64.5 -47.5v-72q-82 -42 -154.5 -146.5t-135.5 -275.5zM182 141l37 -39l31 -36l38 44l27 27l-37 35l-28 37l-34 -37z" />
<glyph unicode="&#x201c;" horiz-adv-x="958" d="M92 848v72q81 41 153 144t138 277l66 -24q-33 -71 -61 -133q-24 -53 -40 -94q-29 -73 -29 -101t14 -48.5t42 -37.5v-53q-41 -21 -65 -51t-38 -74h-69q-18 46 -46 76t-65 47zM177 873q18 -15 34 -34l31 -38l33 37l32 32l-27 27l-38 47l-40 -45zM532 848v72q82 40 154 144 q69 99 137 277l66 -24q-33 -71 -61 -133q-24 -53 -40 -94q-28 -75 -28 -101q0 -27 13 -48t42 -38v-53q-41 -21 -65 -51t-38 -74h-69q-18 45 -45 75t-66 48zM617 872l34 -33l31 -38l31 34l36 36l-32 31l-35 42l-39 -45z" />
<glyph unicode="&#x201d;" horiz-adv-x="958" d="M92 750q24 54 54 121q35 80 53 123q22 60 22 81q0 28 -13.5 49.5t-41.5 38.5v54q41 21 65.5 51t36.5 73h70q17 -42 44.5 -73t66.5 -49v-72q-82 -42 -152.5 -143t-138.5 -279zM231 1196l43 -45l25 -29l33 38l33 32q-21 16 -38 35l-28 37l-34 -37zM532 750q24 54 54 121 q35 80 53 123q23 58 23 81q0 28 -13.5 49t-42.5 39v54q41 21 67 51t38 73h67q18 -43 46 -74t65 -48v-72q-81 -42 -154 -145q-69 -99 -137 -277zM674 1196l35 -38l30 -36l30 34l38 36l-37 35l-29 37l-34 -37z" />
<glyph unicode="&#x201e;" horiz-adv-x="958" d="M45 -307q24 54 54 121q35 80 53 123q22 60 22 81q0 28 -13.5 49.5t-41.5 38.5v54q41 21 65.5 51t36.5 73l70 1q18 -45 45.5 -75.5t64.5 -47.5v-72q-82 -42 -154.5 -146.5t-135.5 -275.5zM182 141l37 -39l31 -36l38 44l27 27l-37 35l-28 37l-34 -37zM485 -307 q24 54 54 121q35 80 53 123q22 60 22 81q0 28 -13.5 49.5t-41.5 38.5v54q41 21 65.5 51t37.5 74h69q18 -45 45 -75t66 -48v-72q-43 -21 -81.5 -57t-74.5 -89q-70 -105 -135 -276zM625 141l36 -39q16 -16 31 -36l39 45l26 27l-36 34q-4 5 -15 18q-6 7 -14 19l-34 -37z" />
<glyph unicode="&#x2022;" horiz-adv-x="1208" d="M307 762q0 122 87.5 208.5t209.5 86.5q121 0 208 -86.5t87 -208.5t-87.5 -209.5t-209.5 -87.5t-208.5 87.5t-86.5 209.5z" />
<glyph unicode="&#x2026;" horiz-adv-x="2048" d="M201 106v54q41 21 65.5 51t36.5 73l70 1q18 -45 45.5 -75.5t64.5 -47.5v-72q-39 -16 -64 -42.5t-42 -67.5h-66q-8 37 -35 66.5t-75 59.5zM266 141l37 -39l31 -36l38 44l27 27l-37 35l-28 37l-34 -37zM883 106v54q41 21 65.5 51t36.5 73l70 1q18 -45 45.5 -75.5 t64.5 -47.5v-72q-39 -16 -64 -42.5t-42 -67.5h-66q-8 37 -35 66.5t-75 59.5zM948 141l37 -39l31 -36l38 44l27 27l-37 35l-28 37l-34 -37zM1567 106v54q41 21 65.5 51t36.5 73l70 1q18 -45 45.5 -75.5t64.5 -47.5v-72q-39 -16 -64 -42.5t-42 -67.5h-66q-8 37 -35 66.5 t-75 59.5zM1632 141l37 -39l31 -36l38 44l27 27l-37 35l-28 37l-34 -37z" />
<glyph unicode="&#x202f;" horiz-adv-x="355" />
<glyph unicode="&#x2039;" horiz-adv-x="559" d="M72 365q117 90 233.5 205.5t134.5 115.5q12 0 19 -6.5t8 -20.5q0 -12 -13 -46.5t-15 -39.5q-11 -19 -15 -28l-94 -180l94 -181q17 -33 30 -67.5t13 -46.5t-6.5 -19t-20.5 -8q-19 0 -135 115q-59 59 -115 109t-118 98zM170 365l126 -129q24 -25 56 -61q24 -26 54 -62 q-35 70 -71 135.5t-69 116.5q17 24 37 57q14 23 34 57q33 57 60 117l-86 -89z" />
<glyph unicode="&#x203a;" horiz-adv-x="559" d="M92 70q0 11 12 44q7 19 13 33.5t18 36.5l94 181l-94 180q-17 33 -30 68t-13 46q0 12 6.5 19t20.5 8q18 0 134 -115q55 -54 116 -108q56 -50 118 -98q-117 -91 -233 -206.5t-135 -115.5q-12 0 -19 6.5t-8 20.5zM154 616l70 -133q31 -58 69 -118q-41 -59 -72 -115 q-18 -32 -37 -71q-4 -7 -22 -46q21 24 59 63q20 21 41 42l127 127l-123 126z" />
<glyph unicode="&#x205f;" horiz-adv-x="444" />
<glyph unicode="&#x2122;" horiz-adv-x="1683" d="M254 1257l10 175h436l11 -175h-23q-7 80 -42 116q-33 36 -101 36h-23v-426q0 -25 14 -40t35 -15h31v-25h-242v25h33q20 0 34.5 15.5t14.5 39.5v426h-22q-68 0 -101.5 -34.5t-42.5 -117.5h-22zM801 903v23h30q21 0 35.5 15.5t14.5 41.5v367q0 25 -14 41t-36 16h-30v25h170 l145 -414l158 414h162v-25h-31q-21 0 -36 -15q-3 -4 -8 -14.5t-5 -25.5v-369q0 -24 13.5 -39.5t35.5 -15.5h31v-25h-228v25h31q20 0 34.5 15.5t14.5 39.5v406l-186 -490h-8l-174 487v-403q0 -24 13.5 -39.5t35.5 -15.5h30v-25h-198z" />
<glyph unicode="&#xe000;" horiz-adv-x="735" d="M0 0v735h735v-735h-735z" />
</font>
</defs>
</svg>
