<?xml version="1.0" standalone="no"?>
<!DOCTYPE svg PUBLIC "-//W3C//DTD SVG 1.1//EN" "http://www.w3.org/Graphics/SVG/1.1/DTD/svg11.dtd" >
<svg xmlns="http://www.w3.org/2000/svg">
<metadata></metadata>
<defs>
<font id="copperplatetbolconregular" horiz-adv-x="1297" >
<font-face units-per-em="2048" ascent="1619" descent="-429" />
<missing-glyph horiz-adv-x="382" />
<glyph horiz-adv-x="2048" />
<glyph horiz-adv-x="2048" />
<glyph unicode="&#xd;" horiz-adv-x="2048" />
<glyph unicode=" "  horiz-adv-x="382" />
<glyph unicode="&#x09;" horiz-adv-x="382" />
<glyph unicode="&#xa0;" horiz-adv-x="382" />
<glyph unicode="!" horiz-adv-x="720" d="M150 1331v34h419v-34q-31 -6 -42 -15q-12 -9 -16 -26q-1 -2 -8 -51l-89 -649q-2 -15 -2 -39q0 -52 17 -66q11 -8 45 -19v-34h-229v34l13 4q33 10 41 26q9 16 9 48q0 24 -3 46l-89 649q-7 51 -12 62q-13 22 -54 30zM196 140q0 69 48 116q49 48 118 48q66 0 114 -48 t48 -115q0 -68 -48 -117q-48 -48 -116 -48t-116 48q-48 49 -48 116z" />
<glyph unicode="&#x22;" horiz-adv-x="957" d="M82 1336v29h315v-29q-28 -5 -38 -13q-16 -14 -22 -66l-34 -348q-3 -29 -3 -45q0 -32 16 -45q11 -8 41 -16v-29h-236v29q30 8 41 16q15 12 15 51q0 19 -2 39l-34 348q-6 55 -25 68q-9 6 -34 11zM560 1336v29h315v-29q-28 -5 -37 -13q-16 -14 -22 -66l-34 -348 q-3 -29 -3 -45q0 -33 16 -45q10 -8 41 -16v-29h-236v29q30 8 41 16q15 12 15 51q0 19 -2 39l-34 348q-6 55 -25 69q-9 5 -35 10z" />
<glyph unicode="#" d="M61 257l59 305h32q3 -35 15 -49q11 -13 45 -15h94l72 369h-94q-31 0 -49 -14t-36 -50h-32l59 305h33q3 -35 15 -49q9 -13 45 -15h93l42 216q2 9 2 19q0 26 -15 37q-11 10 -37 17l7 32h305l-6 -32q-37 -9 -54 -25q-15 -12 -25 -48l-42 -216h260l42 216q1 4 1 17 q0 27 -14 39q-12 10 -37 17l6 32h306l-7 -32q-36 -9 -53 -25q-15 -12 -25 -48l-42 -216h94q31 0 49.5 14t35.5 50h32l-59 -305h-33q-2 35 -15 49q-9 12 -45 15h-93l-72 -369h94q30 0 48.5 14t36.5 50h32l-60 -305h-32q-2 35 -15 49q-10 12 -45 15h-93l-43 -216v-18 q0 -27 14 -38q11 -9 37 -17l-7 -32h-305l6 32q38 10 54 25q15 12 25 48l42 216h-260l-42 -216q-1 -3 -1 -18q0 -27 14 -38q11 -9 37 -17l-7 -32h-305l6 32q38 10 54 25q15 12 25 48l42 216h-94q-31 0 -49.5 -14t-35.5 -50h-32zM483 498h260l72 369h-260z" />
<glyph unicode="$" d="M92 91l171 320l25 -13q-6 -25 -6 -38q0 -34 40 -67q91 -78 261 -104v437l-37 10q-196 57 -281 142q-89 88 -89 229q0 135 88 238q79 92 199 124q41 10 120 19v63q0 31 -14 47t-51 26v32h259v-32q-35 -9 -49 -25q-13 -13 -15 -48v-64q147 -9 299 -88q68 -36 91 -36 q29 0 58 31l23 -15l-196 -311l-23 15q11 28 11 41q0 42 -61 84q-73 50 -202 70v-343l112 -34q201 -61 288 -157q94 -106 94 -254q0 -212 -178 -326q-78 -50 -162 -67q-64 -13 -154 -21v-76q0 -31 14 -47t50 -25v-32h-258v32q34 9 49 24q12 12 15 48v83q-112 15 -199 45 q-45 17 -120 51q-77 33 -91 33q-21 0 -58 -35zM397 1025q0 -96 186 -149v302q-96 -19 -141 -56t-45 -97zM713 185q114 14 174 52q90 56 90 145q0 85 -81 133q-50 29 -183 69v-399z" />
<glyph unicode="%" horiz-adv-x="1448" d="M55 1023q0 135 66 237q75 117 218 117q136 0 210 -117q66 -104 66 -237q0 -132 -66 -235q-74 -118 -214 -118t-214 118q-66 103 -66 235zM195 1024q0 -78 24 -140q36 -91 116 -91q79 0 116 91q24 60 24 139q0 81 -24 140q-38 91 -118 91q-78 0 -114 -91q-24 -61 -24 -139 zM213 0v32q42 6 67 32q13 10 61 86l653 1078q29 48 29 67q0 26 -50 38v32h254v-32q-36 -5 -59 -30q-11 -14 -62 -97l-653 -1081q-28 -47 -28 -58q0 -24 56 -35v-32h-268zM834 341q0 135 66 237q75 117 218 117q136 0 210 -117q66 -104 66 -237q0 -132 -66 -235 q-74 -118 -214 -118t-214 118q-66 103 -66 235zM974 342q0 -79 24 -140q36 -91 116 -91q79 0 116 91q24 60 24 139q0 81 -24 140q-38 91 -119 91q-77 0 -113 -91q-24 -61 -24 -139z" />
<glyph unicode="&#x26;" horiz-adv-x="1249" d="M75 401q0 179 117 298q60 60 146 93q-50 47 -78 87q-56 81 -56 177q0 159 114 253q97 80 255 80q170 0 270 -100q85 -85 85 -217q0 -171 -169 -280q58 -33 92 -74q31 -40 55 -106q38 117 114 215q83 105 202 145v-360h-32q-5 43 -31 43q-38 0 -70 -70q-44 -95 -78 -196 q25 -51 61 -86q53 -52 87 -52q23 0 31 46h32v-305h-17q-120 0 -229 81q-44 33 -94 84q-62 -64 -102 -95q-107 -86 -269 -86q-187 0 -306 112q-130 124 -130 313zM332 427q0 -88 47 -154q57 -80 171 -80q113 0 170 80q47 66 47 154q0 90 -47 155q-58 80 -174 80 q-108 0 -167 -80q-47 -63 -47 -155zM429 1043q0 -58 25 -97q37 -56 112 -56q74 0 112 56q25 38 25 97q0 58 -24 96q-36 56 -115 56q-76 0 -111 -56q-24 -39 -24 -96z" />
<glyph unicode="'" horiz-adv-x="478" d="M82 1336v29h315v-29q-28 -5 -38 -13q-16 -14 -22 -66l-34 -348q-3 -29 -3 -45q0 -32 16 -45q11 -8 41 -16v-29h-236v29q30 8 41 16q15 12 15 51q0 19 -2 39l-34 348q-6 55 -25 68q-9 6 -34 11z" />
<glyph unicode="(" horiz-adv-x="642" d="M109 683q0 354 185 626q95 141 245 247l89 -98q-124 -106 -183 -225q-115 -231 -115 -550q0 -320 115 -551q59 -118 183 -225l-89 -98q-150 107 -245 248q-185 271 -185 626z" />
<glyph unicode=")" horiz-adv-x="642" d="M14 -93q124 107 183 225q115 231 115 551t-115 550q-59 119 -183 225l89 98q150 -107 245 -247q185 -272 185 -626q0 -355 -185 -626q-95 -141 -245 -248z" />
<glyph unicode="*" horiz-adv-x="986" d="M76 1091l92 282l30 -9q-1 -10 -1 -15q0 -49 64 -81q80 -42 167 -67q0 90 -8 155q-9 66 -30 90q-15 16 -46 24v32h296v-32q-41 -10 -57 -41q-25 -57 -28 -230q114 40 169 69q63 34 63 83v13l30 10l91 -282l-30 -10q-28 43 -74 43q-60 0 -210 -45q66 -88 100 -122 q56 -57 91 -57q13 0 37 9l19 -26l-240 -174l-18 26q23 29 23 50q0 56 -113 219q-114 -162 -114 -218q0 -22 23 -51l-19 -26l-239 174l18 26q24 -9 37 -9q38 0 100 66q37 39 92 112q-154 46 -211 46q-44 0 -74 -43z" />
<glyph unicode="+" d="M89 530v305h32q10 -35 25 -49q12 -13 48 -15h366v366q0 31 -14 47t-50 26v32h305v-32q-34 -9 -49 -24q-12 -13 -15 -49v-366h367q31 0 47 14t26 50h32v-305h-32q-9 34 -25 49q-12 12 -48 15h-367v-366q0 -31 14 -46.5t50 -26.5v-32h-305v32q35 10 49 25q13 12 15 48v366 h-366q-31 0 -47 -14t-26 -50h-32z" />
<glyph unicode="," horiz-adv-x="600" d="M102 -267q114 49 173 107q60 60 77 147q-48 -11 -73 -11q-66 0 -111 40q-46 42 -46 121q0 81 47 129q45 45 114 45q97 0 148 -79q46 -71 46 -164q0 -173 -160 -303q-87 -70 -215 -106v74z" />
<glyph unicode="-" horiz-adv-x="410" d="M0 407v305h32q10 -35 25 -49q12 -13 48 -15h200q31 0 47 14t26 50h32v-305h-32q-9 35 -25 49q-12 12 -48 15h-200q-31 0 -47 -14t-26 -50h-32z" />
<glyph unicode="." horiz-adv-x="573" d="M123 140q0 69 48 116q49 48 118 48q66 0 114 -48t48 -115q0 -68 -48 -117q-48 -48 -116 -48t-116 48q-48 49 -48 116z" />
<glyph unicode="/" horiz-adv-x="1238" d="M68 0v32q42 6 67 32q16 14 61 86l652 1078q29 48 29 67q0 26 -50 38v32h343v-32q-36 -5 -59 -30q-13 -16 -63 -97l-652 -1081q-28 -47 -28 -59q0 -24 56 -34v-32h-356z" />
<glyph unicode="0" d="M89 681q0 269 131 473q151 235 437 235q172 0 307 -109q144 -114 208 -337q37 -129 37 -261q0 -264 -131 -471q-79 -125 -209 -187q-100 -48 -220 -48q-181 0 -316 108q-142 114 -207 339q-37 128 -37 258zM346 682q0 -166 53 -297q78 -192 250 -192t250 192 q53 131 53 296q0 172 -53 299q-80 192 -255 192q-118 0 -196 -105q-102 -137 -102 -385z" />
<glyph unicode="1" d="M398 880v344h37q3 -21 7 -27q8 -16 32 -16q16 0 23 3l62 26v50q0 31 -14 47t-50 26v32h369v-32q-34 -9 -49 -24q-12 -12 -15 -49v-1155q0 -30 13.5 -45t50.5 -26v-34h-369v34q36 10 49 24q13 13 15 47v861l-43 -15q-41 -14 -60 -29q-16 -13 -21 -42h-37z" />
<glyph unicode="2" d="M85 1186l25 20q29 -13 40 -13q20 0 45 18l20 15l23 18q190 145 437 145q201 0 326 -99q131 -105 131 -289q0 -153 -106 -273q-68 -78 -201 -168l-138 -95q-112 -76 -174 -133q-62 -60 -85 -123h666q31 0 46.5 13.5t26.5 50.5h32v-337h-32q-10 36 -25 49q-13 13 -48 15 h-850q-35 -2 -48 -15q-15 -13 -25 -49h-32v37q0 161 70 305q50 105 132 187q69 70 195 157l132 92q93 64 147 127q59 67 59 150q0 90 -66 140q-56 41 -150 41q-165 0 -282 -90q-48 -36 -48 -72q0 -22 23 -54l-23 -22z" />
<glyph unicode="3" d="M97 123l162 292l29 -14q-8 -27 -8 -38q0 -28 34 -62q108 -108 313 -108q124 0 192 55q77 61 77 167q0 100 -67 160q-65 58 -202 58q-68 0 -87 -17q-14 -12 -25 -49h-32v326h32q11 -37 25 -49q20 -18 90 -18q103 0 160 48q53 46 53 130q0 82 -57 131q-53 45 -149 45 q-146 0 -238 -82q-41 -37 -41 -74q0 -19 17 -45l-24 -22l-230 238l23 22q28 -12 40 -12q20 0 59 29q59 43 111 73q146 82 311 82q188 0 307 -100q120 -102 120 -266q0 -109 -64 -188q-40 -50 -123 -96q248 -94 248 -345q0 -151 -89 -258q-78 -94 -226 -135q-91 -25 -195 -25 q-170 0 -315 72q-34 17 -103 61q-30 19 -52 19q-24 0 -49 -22z" />
<glyph unicode="4" d="M115 182v271l537 762q39 56 39 76q0 36 -52 42v32h464v-32q-35 -9 -49 -24q-13 -13 -15 -49v-807h72q31 0 46.5 14t26.5 50h32v-337h-32q-10 35 -25 49q-12 12 -48 15h-72v-139q2 -36 15 -48q13 -14 49 -25v-32h-369v32q36 11 49 25q12 12 15 48v139h-542q-62 0 -77 -9 q-16 -11 -29 -53h-35zM370 453h428v619z" />
<glyph unicode="5" d="M105 112l199 307l27 -17q-6 -21 -6 -36q0 -51 59 -95q103 -79 249 -79q145 0 221 74q77 75 77 201q0 115 -74 186q-78 76 -201 76q-112 0 -177 -55q-28 -23 -28 -46q0 -16 15 -36l-22 -23l-296 243l17 27q14 -5 21 -5q16 0 25 14q8 13 8 73v339q0 32 -13 47t-51 26v32 h864q31 0 46.5 14t26.5 51h32v-338h-32q-10 35 -25 49q-12 13 -48 15h-575v-302q110 76 256 76q216 0 349 -129q139 -134 139 -353q0 -231 -164 -362q-139 -110 -362 -110q-132 0 -238 37q-52 18 -142 66q-72 39 -104 39q-20 0 -47 -25z" />
<glyph unicode="6" d="M132 647q0 303 133 498q82 121 203 184q115 60 252 60q131 0 292 -75q38 -18 54 -18q25 0 51 25l29 -14l-170 -309l-29 14q6 17 6 28q0 32 -30 60q-35 32 -89.5 52t-109.5 20q-151 0 -246 -121q-75 -96 -85 -296q60 63 111 93q94 55 222 55q204 0 332 -132 q123 -127 123 -321q0 -199 -122 -328q-139 -146 -383 -146q-252 0 -391 161q-153 176 -153 510zM436 439q0 -102 61 -170q68 -76 182 -76q115 0 183 76q61 68 61 170q0 103 -61 171q-67 76 -186 76q-111 0 -179 -76q-61 -68 -61 -171z" />
<glyph unicode="7" d="M150 1092v338h32q9 -36 24 -50q13 -13 48 -15h788q30 0 46 14.5t26 50.5h32v-244l-466 -1047q-18 -41 -18 -63q0 -33 54 -44v-32h-407v32q41 8 61 29t46 78l464 1017h-626q-30 0 -46 -14t-26 -50h-32z" />
<glyph unicode="8" d="M115 397q0 233 233 340q-73 37 -109 73q-83 82 -83 204q0 86 43 161t121 126q133 88 328 88q196 0 329 -88q78 -51 121 -126.5t43 -160.5q0 -122 -83 -204q-36 -36 -109 -73q233 -107 233 -341q0 -214 -178 -325q-152 -95 -355 -95q-204 0 -356 95q-178 111 -178 326z M372 411q0 -100 77 -160q75 -58 200 -58q124 0 199 58q77 60 77 159q0 101 -77 160q-76 58 -203 58q-121 0 -196 -58q-77 -60 -77 -159zM398 1004q0 -83 82 -129q69 -38 168 -38q100 0 169 38q82 46 82 129q0 85 -82 130q-69 38 -172 38q-96 0 -165 -38q-82 -45 -82 -130z " />
<glyph unicode="9" d="M114 917q0 194 116 320q141 153 393 153q243 0 381 -154q162 -180 162 -530q0 -289 -123 -479q-79 -122 -200 -188q-118 -63 -259 -63q-129 0 -286 70q-38 17 -53 17q-26 0 -52 -25l-29 13l165 312l29 -13q-5 -17 -5 -27q0 -33 31 -61q77 -69 194 -69q155 0 249 125 q73 97 81 298q-59 -64 -110 -95q-97 -59 -231 -59q-198 0 -325 126q-128 128 -128 329zM371 926q0 -100 58 -167q68 -80 186 -80t186 80q58 67 58 166q0 106 -64 175q-67 73 -184 73q-109 0 -176 -73q-64 -69 -64 -174z" />
<glyph unicode=":" horiz-adv-x="573" d="M123 140q0 69 48 116q49 48 118 48q66 0 114 -48t48 -115q0 -68 -48 -117q-48 -48 -116 -48t-116 48q-48 49 -48 116zM123 980q0 69 48 116q49 48 118 48q66 0 114 -48t48 -115q0 -68 -48 -117q-48 -48 -116 -48t-116 48q-48 49 -48 116z" />
<glyph unicode=";" horiz-adv-x="600" d="M102 -267q114 49 173 107q60 60 77 147q-48 -11 -73 -11q-66 0 -111 40q-46 42 -46 121q0 81 47 129q45 45 114 45q97 0 148 -79q46 -71 46 -164q0 -173 -160 -303q-87 -70 -215 -106v74zM125 980q0 69 48 116q49 48 118 48q66 0 114 -48t48 -115q0 -68 -48 -117 q-48 -48 -116 -48t-116 48q-48 49 -48 116z" />
<glyph unicode="&#x3c;" horiz-adv-x="1024" d="M68 580v207l887 446v-244l-627 -306l627 -306v-245z" />
<glyph unicode="=" d="M89 291v305h32q10 -36 25 -49q12 -13 48 -15h910q31 0 47 14t26 50h32v-305h-32q-9 34 -25 49q-12 12 -48 15h-910q-31 0 -46.5 -14t-26.5 -50h-32zM89 769v305h32q10 -35 25 -49q12 -13 48 -15h910q31 0 47 14t26 50h32v-305h-32q-9 34 -25 49q-12 12 -48 15h-910 q-31 0 -46.5 -14t-26.5 -50h-32z" />
<glyph unicode="&#x3e;" horiz-adv-x="1024" d="M69 132v245l627 306l-627 306v244l887 -446v-207z" />
<glyph unicode="?" horiz-adv-x="932" d="M41 1261l23 23q38 -17 55 -17q15 0 82 45q113 77 261 77q174 0 272 -99q92 -92 92 -226q0 -106 -73 -197q-20 -26 -88 -99q-74 -80 -95 -131q-17 -44 -17 -108q0 -28 19 -37q14 -7 45 -12v-32h-326v32q31 10 43 25q17 21 21 64q11 104 64 185q37 56 95 128q78 95 78 169 q0 66 -42 106q-41 39 -109 39q-77 0 -124 -44q-37 -34 -37 -62q0 -23 18 -59l-24 -22zM269 140q0 69 48 116q49 48 118 48q66 0 114 -48t48 -115q0 -68 -48 -117q-48 -48 -116 -48t-116 48q-48 49 -48 116z" />
<glyph unicode="@" horiz-adv-x="1415" d="M82 684q0 169 50 296.5t156 227.5q191 181 466 181q278 0 443 -180q140 -154 140 -380q0 -107 -29 -202t-81 -155q-90 -105 -205 -105q-86 0 -145 29q-33 15 -72 45q-93 -81 -199 -81q-93 0 -147 60q-53 60 -53 160q0 178 123 321q114 132 266 132q88 0 136 -65l125 14 l-115 -446q-5 -19 -5 -34q0 -36 51 -36q46 0 89 30.5t72 83.5q52 95 52 228q0 165 -93 282q-70 88 -183 134q-87 35 -183 35q-108 0 -206 -44.5t-164 -122.5t-104 -197q-35 -106 -35 -217q0 -113 37.5 -220t103.5 -180q75 -82 188.5 -127t246.5 -45q166 0 335 95 q31 17 31 44q0 12 -5 31l26 6l77 -249l-24 -6q-24 48 -53 48q-12 0 -132 -50q-117 -49 -281 -49q-294 0 -491 182q-209 193 -209 526zM545 608q0 -57 30 -88q26 -26 71 -26q85 0 147 90q28 40 48 106t20 117q0 46 -31 71q-25 21 -70 21q-85 0 -147 -84q-68 -92 -68 -207z " />
<glyph unicode="A" horiz-adv-x="1274" d="M5 0v34q38 9 56 31q16 20 39 86l364 1068q19 54 19 71q0 28 -57 41v34h436v-34q-56 -12 -56 -41q0 -19 18 -71l356 -1068q25 -73 45 -91q18 -18 54 -26v-34h-409v34q56 17 56 48q0 21 -18 74l-65 189h-440l-64 -189q-18 -54 -18 -74q0 -31 56 -48v-34h-372zM466 546h323 l-161 494z" />
<glyph unicode="B" horiz-adv-x="1309" d="M98 0v34q36 10 49 24q12 12 15 47v1155q0 30 -14 45.5t-50 25.5v34h644q171 0 253 -38q185 -84 185 -306q0 -135 -81 -211q-39 -37 -116 -74q95 -24 151 -75q109 -98 109 -268q0 -205 -143 -310q-69 -51 -147 -67q-80 -16 -181 -16h-674zM420 218h302q126 0 188 47 q66 50 66 155q0 104 -66 155q-61 47 -188 47h-302v-404zM420 831h276q126 0 177 35q56 40 56 124q0 83 -56 122q-51 35 -177 35h-276v-316z" />
<glyph unicode="C" horiz-adv-x="1301" d="M73 683q0 321 182 524q164 182 437 182q167 0 289 -65q37 -20 98 -62q50 -35 76 -35q18 0 56 21l24 -21l-249 -303l-25 20q9 28 9 50q0 47 -42 88q-86 82 -225 82q-180 0 -276 -147q-88 -134 -88 -334q0 -201 88 -335q96 -147 276 -147q93 0 169 42q98 55 98 128 q0 23 -9 50l25 20l249 -303l-24 -20q-38 20 -57 20q-25 0 -103 -55q-155 -107 -364 -107q-268 0 -432 183q-182 203 -182 524z" />
<glyph unicode="D" horiz-adv-x="1358" d="M98 0v34q35 9 49 24q12 12 15 47v1155q0 30 -14 45.5t-50 25.5v34h569q228 0 356 -85q261 -172 261 -597q0 -310 -145 -492q-89 -111 -210 -152q-111 -39 -262 -39h-569zM420 218h223q196 0 287 127q88 124 88 338q0 213 -88 337q-91 127 -287 127h-223v-929z" />
<glyph unicode="E" horiz-adv-x="1189" d="M98 0v34q36 10 49 24q12 12 15 47v1155q0 30 -14 45.5t-50 25.5v34h893q31 0 46.5 14t26.5 51h32v-346h-32q-10 36 -25 48q-13 13 -48 15h-571v-339h331q31 0 47 14t26 50h32v-337h-32q-10 36 -24 49q-13 13 -49 15h-331v-381h593q37 3 49 15q14 13 24 48h32v-345h-32 q-10 36 -24 49t-49 15h-915z" />
<glyph unicode="F" horiz-adv-x="1122" d="M98 0v34q36 10 49 24q13 12 15 47v1155q0 30 -14 46t-50 25v34h875q31 0 46.5 14t26.5 51h32v-346h-32q-10 35 -25 48q-13 13 -48 15h-553v-339h331q31 0 46.5 14t26.5 50h32v-337h-32q-10 36 -25 49q-12 13 -48 15h-331v-494q2 -35 15 -47q13 -14 48 -24v-34h-385z" />
<glyph unicode="G" horiz-adv-x="1393" d="M73 686q0 300 181 496q191 207 482 207q182 0 347 -97q89 -53 112 -53q20 0 50 27l27 -19l-219 -315l-27 19q16 31 16 50q0 43 -54 85q-45 35 -113.5 56.5t-136.5 21.5q-194 0 -303 -148q-96 -130 -96 -336q0 -218 107 -345q113 -134 302 -134q135 0 248 73v238h-214 q-38 -8 -48 -16q-15 -14 -25 -49h-32v334h32q10 -36 25 -49q16 -15 48 -15h523v-32q-34 -9 -48 -25q-14 -13 -15 -48v-314q2 -38 15 -53t48 -26v-23q-276 -220 -571 -220q-310 0 -490 209q-171 199 -171 501z" />
<glyph unicode="H" horiz-adv-x="1392" d="M98 0v34q36 10 49 24q12 11 15 47v1155q0 30 -14 45.5t-50 25.5v34h385v-34q-34 -8 -48 -24q-13 -12 -15 -47v-424h551v424q0 30 -14 45.5t-49 25.5v34h385v-34q-35 -9 -49 -24q-12 -12 -15 -47v-1155q0 -30 13.5 -45t50.5 -26v-34h-385v34q35 10 48 24q13 13 15 47v513 h-551v-513q2 -35 15 -47q13 -14 48 -24v-34h-385z" />
<glyph unicode="I" horiz-adv-x="582" d="M98 0v34q36 10 49 24q12 12 15 47v1155q0 30 -14 45.5t-50 25.5v34h385v-34q-34 -8 -48 -24q-13 -12 -15 -47v-1155q2 -35 15 -47q13 -14 48 -24v-34h-385z" />
<glyph unicode="J" horiz-adv-x="993" d="M5 49l137 344l29 -15q-4 -23 -4 -36q0 -43 47 -77q39 -28 101.5 -46t122.5 -18q109 0 139 67q17 38 17 164v828q0 30 -14 45.5t-49 25.5v34h385v-34q-35 -9 -49 -24q-12 -11 -15 -47v-855q0 -114 -15 -181.5t-52 -118.5q-93 -129 -315 -129q-165 0 -317 72q-44 21 -60 21 q-26 0 -58 -35z" />
<glyph unicode="K" horiz-adv-x="1286" d="M98 0v34q36 10 49 24q12 12 15 47v1155q0 30 -14 45.5t-50 25.5v34h385v-34q-34 -9 -48 -24q-13 -12 -15 -47v-439l381 415q41 44 41 63q0 28 -54 32v34h447v-34q-35 -5 -65 -26q-10 -6 -120 -122l-348 -379l410 -627q62 -93 88 -112q33 -27 69 -31v-34h-434v34 q47 7 47 38q0 24 -30 70l-320 480l-112 -122v-395q2 -35 15 -47q13 -14 48 -24v-34h-385z" />
<glyph unicode="L" horiz-adv-x="1117" d="M98 0v34q36 10 49 24q12 12 15 47v1155q0 30 -14 45.5t-50 25.5v34h385v-34q-34 -9 -48 -24q-13 -12 -15 -47v-1042h575q36 3 48 15q15 13 25 48h32v-345h-32q-10 36 -25 49q-13 13 -48 15h-897z" />
<glyph unicode="M" horiz-adv-x="1702" d="M98 0v34q36 10 49 24q13 12 15 47v1155q0 30 -14 45.5t-50 25.5v34h492v-34q-58 -12 -58 -48q0 -25 22 -75l288 -658l296 658q29 66 29 80q0 33 -58 43v34h494v-34q-35 -9 -49 -24q-13 -12 -15 -47v-1155q2 -35 15 -47q13 -14 49 -24v-34h-385v34q35 10 48 24 q13 12 15 47v876l-452 -981l-434 981v-876q0 -30 13.5 -45t50.5 -26v-34h-361z" />
<glyph unicode="N" horiz-adv-x="1360" d="M98 0v34q36 10 49 24q12 12 15 47v1155q0 30 -14 45.5t-50 25.5v34h458v-34q-52 -9 -52 -39q0 -22 28 -71l432 -742v781q0 30 -14 46t-50 25v34h361v-34q-35 -9 -49 -24q-12 -12 -15 -47v-1155q0 -30 13.5 -45t50.5 -26v-34h-414v34q57 8 57 38q0 16 -22 54l-487 838 v-859q0 -30 13.5 -45t50.5 -26v-34h-361z" />
<glyph unicode="O" horiz-adv-x="1378" d="M73 680q0 310 156 501q170 208 469 208q134 0 251 -54t200 -154q156 -188 156 -498t-156 -499q-172 -208 -460 -208t-460 208q-156 189 -156 496zM339 682q0 -195 79 -326q43 -72 115.5 -113.5t155.5 -41.5q123 0 214 84q136 125 136 396q0 200 -78 329 q-45 73 -117.5 113.5t-159.5 40.5q-117 0 -209 -84q-136 -126 -136 -398z" />
<glyph unicode="P" horiz-adv-x="1213" d="M98 0v34q36 10 49 24q12 11 15 47v1155q0 30 -14 45.5t-50 25.5v34h614q170 0 258 -47q105 -55 157 -163q42 -86 42 -192q0 -178 -110 -289q-69 -71 -158 -93q-82 -21 -189 -21h-292v-455q2 -35 15 -47q13 -14 48 -24v-34h-385zM420 778h230q143 0 198 47q55 46 55 138 q0 91 -55 138q-55 46 -198 46h-230v-369z" />
<glyph unicode="Q" horiz-adv-x="1426" d="M73 683q0 309 156 498q171 208 460 208t460 -208q156 -189 156 -498q0 -307 -162 -506l107 -127q28 -32 35 -39q18 -17 35 -17q15 0 43 17l20 -25l-265 -218l-20 27q26 25 26 46q0 20 -33 66l-104 143q-84 -42 -147.5 -58t-147.5 -16q-291 0 -463 208q-156 190 -156 499z M339 682q0 -195 79 -326q43 -73 116 -114t159 -41q66 0 151 41q-75 92 -121 131q-24 18 -86 53v31q29 22 85 22q87 0 182 -67q23 -16 62 -48q73 131 73 319q0 196 -79 327q-43 71 -115.5 112.5t-155.5 41.5q-123 0 -214 -84q-136 -125 -136 -398z" />
<glyph unicode="R" horiz-adv-x="1300" d="M98 0v34q36 10 49 23q12 12 15 47v1156q0 30 -14 45.5t-50 25.5v34h612q197 0 288 -47q106 -56 158 -169q40 -87 40 -189q0 -185 -128 -293q-62 -52 -160 -79l221 -428q59 -112 138 -126v-34h-432v34q55 4 55 32q0 20 -19 58l-223 436h-228v-456q3 -35 15 -47 q13 -14 48 -23v-34h-385zM420 778h300q121 0 170 50t49 137q0 85 -49 133q-49 49 -170 49h-300v-369z" />
<glyph unicode="S" horiz-adv-x="1258" d="M66 88l183 335l28 -16q-8 -30 -8 -42q0 -29 36 -59q52 -43 138 -73q95 -32 198 -32q131 0 218 51q85 50 85 136q0 76 -77 120q-47 27 -180 68l-167 51q-206 63 -286 142q-91 91 -91 232q0 138 91 242q126 146 387 146q194 0 372 -91q66 -34 87 -34q27 0 55 35l27 -17 l-207 -326l-27 18q14 32 14 45q0 36 -56 74q-106 71 -262 71q-84 0 -149 -28q-91 -39 -91 -116q0 -63 77 -100q37 -18 169 -58l174 -53q207 -62 295 -156q95 -100 95 -253q0 -158 -99 -267q-78 -86 -215 -127q-99 -30 -213 -30q-157 0 -309 52q-42 14 -121 50l-31 13 q-45 19 -55 19q-18 0 -57 -37z" />
<glyph unicode="T" horiz-adv-x="1120" d="M14 1084v346h32q10 -36 25 -50q12 -12 48 -15h883q21 0 31 6q20 12 28 25q7 14 13 34h32v-346h-32q-10 35 -25 48q-12 13 -48 15h-311v-1042q0 -30 13.5 -45t49.5 -26v-34h-385v34q36 10 49 24q13 12 15 47v1042h-313q-36 -3 -48 -15q-15 -13 -25 -48h-32z" />
<glyph unicode="U" horiz-adv-x="1338" d="M76 1331v34h385v-34q-34 -9 -48 -24q-12 -11 -15 -47v-727q0 -126 9 -168q34 -164 273 -164q189 0 250 99q28 44 31 111q3 47 3 122v727q0 30 -14 45.5t-50 25.5v34h361v-34q-35 -9 -49 -24q-12 -12 -15 -47v-740q0 -122 -10 -190.5t-34 -115.5q-70 -136 -225 -195 q-111 -43 -260 -43q-258 0 -400 130q-93 85 -113 194q-15 77 -15 220v740q0 30 -14 45.5t-50 25.5z" />
<glyph unicode="V" horiz-adv-x="1299" d="M-5 1331v34h428v-34q-58 -3 -58 -47q0 -25 20 -82l277 -812l278 812q20 60 20 82q0 43 -59 47v34h404v-34q-36 -6 -57 -28q-28 -30 -59 -116l-357 -1011q-26 -72 -26 -98q0 -36 58 -44v-34h-428v34q58 7 58 44q0 26 -26 98l-357 1011q-26 76 -51 107t-65 37z" />
<glyph unicode="W" horiz-adv-x="1794" d="M-16 1331v34h409v-34q-59 -18 -59 -53q0 -8 14 -67l221 -751l199 751q13 49 13 67q0 41 -61 53v34h387v-34q-62 -12 -62 -52q0 -16 14 -68l185 -751l218 751q15 58 15 67q0 34 -59 53v34h392v-34q-39 -10 -65 -38q-23 -28 -46 -102l-316 -1046q-16 -49 -16 -66 q0 -35 57 -45v-34h-389v34q56 14 56 40q0 8 -16 71l-175 697l-188 -697q-16 -57 -16 -71q0 -26 56 -40v-34h-380v34q58 9 58 45q0 17 -16 66l-319 1046q-25 82 -51 108q-25 23 -60 32z" />
<glyph unicode="X" horiz-adv-x="1213" d="M5 0v34q40 4 68 30q18 15 60 86l318 546l-306 510q-53 87 -66 100q-21 20 -55 25v34h423v-34q-50 -12 -50 -37q0 -18 29 -66l177 -297l173 297q29 50 29 66q0 29 -52 37v34h402v-34q-37 -7 -61 -27q-10 -9 -52 -76l-305 -516l342 -562q50 -78 66 -90q22 -20 62 -26v-34 h-436v34q55 10 55 33q0 13 -27 58l-214 350l-198 -350q-24 -42 -24 -57q0 -25 55 -34v-34h-413z" />
<glyph unicode="Y" horiz-adv-x="1171" d="M-22 1331v34h414v-34q-55 -12 -55 -37q0 -21 24 -66l233 -426l229 426q25 46 25 64q0 27 -55 39v34h399v-34q-36 -6 -56 -28q-17 -20 -57 -92l-364 -645v-461q0 -30 13.5 -45t49.5 -26v-34h-385v34q36 10 49 24q12 12 15 47v461l-366 645q-43 78 -61 97q-19 17 -52 23z " />
<glyph unicode="Z" horiz-adv-x="1191" d="M66 0v34l640 1113h-519q-36 -3 -48 -15q-15 -13 -25 -48h-32v346h32q10 -36 25 -50q12 -13 48 -15h921v-34l-639 -1113h552q31 0 46.5 13.5t26.5 49.5h32v-345h-32q-9 35 -25 49q-13 13 -48 15h-955z" />
<glyph unicode="[" horiz-adv-x="642" d="M109 -102q33 8 48 22q14 12 16 46v1431q0 29 -14.5 45t-49.5 25v25h417q32 0 48 13.5t27 50.5h27v-267h-27q-10 35 -25 48q-13 13 -50 16h-150v-1341h137q44 0 63 16q16 14 25 49h27v-268h-27q-9 33 -25 48q-13 14 -50 16h-417v25z" />
<glyph unicode="\" horiz-adv-x="1238" d="M68 1333v32h343v-32q-50 -12 -50 -38q0 -19 29 -67l652 -1078q50 -79 66 -91q23 -21 62 -27v-32h-356v32q56 10 56 34q0 12 -28 59l-652 1081q-53 87 -67 101q-21 21 -55 26z" />
<glyph unicode="]" horiz-adv-x="642" d="M14 77h27q9 -35 25 -49q19 -16 63 -16h137v1341h-150q-32 0 -48.5 -14t-26.5 -50h-27v267h27q11 -36 25 -48q13 -14 50 -16h417v-25q-34 -9 -48 -23q-14 -13 -16 -47v-1431q0 -29 14.5 -44t49.5 -24v-25h-417q-31 0 -48 -14.5t-27 -49.5h-27v268z" />
<glyph unicode="^" horiz-adv-x="1024" d="M45 738l330 633h274l330 -633h-221l-247 467l-245 -467h-221z" />
<glyph unicode="_" horiz-adv-x="1024" d="M0 -129h1024v-150h-1024v150z" />
<glyph unicode="`" horiz-adv-x="1024" d="M248 1506v27h287v-27q-26 -3 -26 -21q0 -7 3 -13l63 -163q9 -28 26 -34q5 -2 19 -2v-27h-190v27h5q19 0 19 16q0 9 -6 16l-144 174q-17 26 -56 27z" />
<glyph unicode="a" horiz-adv-x="1150" d="M4 0v34q38 9 57 28q15 16 35 70l301 832q21 57 21 76q0 21 -14 34q-15 14 -30 14q-3 0 -11 -2v34h433v-34q-8 1 -14 1q-16 0 -29 -14.5t-13 -33.5q0 -16 21 -75l302 -832q21 -57 38 -74q17 -16 53 -24v-34h-391v34q61 14 61 48q0 18 -15 62l-44 129h-400l-44 -129 q-15 -45 -15 -61q0 -35 61 -49v-34h-363zM428 457h284l-141 401z" />
<glyph unicode="b" horiz-adv-x="1111" d="M79 0v34q36 10 49 24q13 12 15 47v915q0 28 -14 42.5t-50 23.5v34h566q363 0 363 -280q0 -108 -65 -172q-33 -33 -96 -62q94 -22 140 -73q72 -79 72 -208q0 -154 -117 -245q-101 -80 -267 -80h-596zM368 184h264q195 0 195 158q0 157 -195 157h-264v-315zM368 683h238 q88 0 131 25q50 30 50 100q0 71 -50 102q-41 26 -131 26h-238v-253z" />
<glyph unicode="c" horiz-adv-x="1096" d="M59 560q0 254 148 418q149 165 386 165q148 0 287 -81q40 -23 59 -23q22 0 54 31l28 -16l-178 -306l-28 16q9 29 9 46q0 33 -34 68q-71 74 -190 74q-150 0 -234 -116q-75 -104 -75 -268q0 -173 73 -279q84 -122 242 -122q124 0 189 75q32 36 32 69q0 21 -11 59l26 19 l230 -281l-26 -19q-30 24 -47 24q-18 0 -96 -49q-139 -88 -308 -88q-218 0 -364 141q-82 79 -127 194.5t-45 248.5z" />
<glyph unicode="d" horiz-adv-x="1174" d="M79 0v34q35 9 49 24q12 12 15 47v915q0 28 -14 42.5t-50 23.5v34h457q220 0 334 -62q139 -75 201 -235q44 -113 44 -260q0 -265 -142 -416q-83 -88 -198 -118q-114 -29 -255 -29h-441zM368 184h166q105 0 172 26.5t109 84.5q68 94 68 267q0 172 -68 264q-42 58 -108.5 84 t-172.5 26h-166v-752z" />
<glyph unicode="e" horiz-adv-x="1031" d="M79 0v34q36 10 49 24q13 12 15 47v915q0 28 -14.5 43t-49.5 23v34h766q31 0 47 14t26 50h32v-323h-32q-10 36 -25 50q-13 13 -48 15h-477v-269h278q31 0 46.5 13.5t26.5 50.5h32v-305h-32q-11 36 -25 49q-13 13 -48 15h-278v-296h501q31 0 46.5 14t26.5 51h32v-313h-32 q-10 36 -25 49q-13 13 -48 15h-790z" />
<glyph unicode="f" horiz-adv-x="985" d="M79 0v34q36 10 49 24q13 12 15 47v915q0 28 -14 42.5t-50 23.5v34h766q31 0 46.5 14t26.5 50h32v-308h-32q-10 33 -25 46q-12 12 -48 14h-477v-281h278q31 0 46.5 14.5t26.5 51.5h32v-305h-32q-10 34 -25 47q-12 13 -48 15h-278v-373q2 -34 15 -47q14 -15 49 -24v-34 h-353z" />
<glyph unicode="g" horiz-adv-x="1206" d="M59 550q0 197 101 349q81 123 214 186q122 58 268 58q122 0 228 -46q39 -17 89 -45q54 -30 70 -30q14 0 48 20l27 -18l-191 -278l-27 17q7 30 7 45q0 37 -40 73q-79 71 -209 71q-163 0 -259 -108q-94 -106 -94 -284q0 -220 141 -325q93 -69 225 -69q63 0 132 20 q40 12 68 31v186h-175q-30 0 -46 -14t-26 -52h-33v305h32q9 -34 25 -48q13 -12 48 -14h455v-34q-35 -9 -50 -24q-13 -12 -16 -48v-226q0 -27 15 -41.5t51 -22.5v-41q-107 -81 -236.5 -124t-265.5 -43q-260 0 -415 159q-161 164 -161 415z" />
<glyph unicode="h" horiz-adv-x="1201" d="M79 0v34q36 10 49 24q13 12 15 47v915q0 28 -14 42.5t-50 23.5v34h353v-34q-35 -8 -49 -22q-13 -12 -15 -44v-328h466v328q0 28 -14 42.5t-50 23.5v34h353v-34q-35 -8 -49 -22q-12 -11 -15 -44v-915q0 -30 13.5 -45t50.5 -26v-34h-353v34q36 10 49 24q13 13 15 47v403 h-466v-403q2 -35 15 -47q13 -14 49 -24v-34h-353z" />
<glyph unicode="i" horiz-adv-x="511" d="M79 0v34q36 10 49 24q13 12 15 47v915q0 28 -14 42.5t-50 23.5v34h353v-34q-35 -8 -49 -22q-13 -11 -15 -44v-915q2 -35 15 -47q13 -14 49 -24v-34h-353z" />
<glyph unicode="j" horiz-adv-x="857" d="M4 23l122 310l30 -12q-2 -14 -2 -20q0 -52 66 -92q68 -42 149 -42q82 0 113 44q24 33 24 119v690q0 28 -14 42.5t-50 23.5v34h353v-34q-35 -8 -49 -22q-12 -11 -15 -44v-706q0 -131 -36 -197q-78 -141 -300 -141q-128 0 -271 59q-31 13 -44 13q-20 0 -47 -37z" />
<glyph unicode="k" horiz-adv-x="1134" d="M79 0v34q36 10 49 24q12 12 15 47v915q0 28 -14 42.5t-50 23.5v34h353v-34q-35 -8 -49 -22q-13 -12 -15 -44v-346l329 341q35 41 35 49q0 20 -47 22v34h403v-34q-41 -7 -68 -25q-24 -17 -83 -76l-328 -329l363 -499q53 -74 75 -93q30 -26 74 -30v-34h-396v34q48 5 48 34 q0 20 -27 57l-279 387l-99 -99v-308q2 -34 15 -47q14 -15 49 -24v-34h-353z" />
<glyph unicode="l" horiz-adv-x="965" d="M79 0v34q36 10 49 24q12 12 15 47v915q0 28 -14 42.5t-50 23.5v34h353v-34q-36 -9 -49 -22q-13 -11 -15 -44v-836h480q31 0 46.5 14t26.5 51h32v-313h-32q-9 35 -25 49q-13 13 -48 15h-769z" />
<glyph unicode="m" horiz-adv-x="1466" d="M79 0v34q36 10 49 24q13 12 15 47v915q0 28 -14 42.5t-50 23.5v34h437v-34q-59 -8 -59 -39q0 -18 26 -71l247 -521l246 521q31 70 31 82q0 25 -59 28v34h440v-34q-36 -9 -49 -22q-13 -12 -15 -44v-915q2 -35 15 -47q13 -14 49 -24v-34h-353v34q35 9 49 24q13 13 15 47 v664l-378 -769l-377 769v-664q0 -30 13.5 -45t50.5 -26v-34h-329z" />
<glyph unicode="n" horiz-adv-x="1195" d="M79 0v34q36 10 49 24q12 12 15 47v915q0 28 -14 42.5t-50 23.5v34h420v-34q-51 -8 -51 -39q0 -25 27 -66l376 -577v616q0 28 -14 42.5t-50 23.5v34h330v-34q-35 -8 -49 -22q-12 -11 -16 -44v-915q0 -30 13.5 -45t50.5 -26v-34h-374v34q48 8 48 42q0 29 -28 72l-418 633 v-676q0 -30 13.5 -45t50.5 -26v-34h-329z" />
<glyph unicode="o" horiz-adv-x="1190" d="M59 560q0 272 166 435q151 148 378 148q214 0 363 -148q166 -165 166 -434t-166 -436q-148 -149 -370 -149t-371 149q-166 167 -166 435zM291 560q0 -169 76 -277q81 -116 228 -116q148 0 229 116q76 108 76 275q0 172 -76 278q-83 116 -233 116q-66 0 -126 -31t-98 -85 q-76 -107 -76 -276z" />
<glyph unicode="p" horiz-adv-x="1057" d="M79 0v34q36 10 49 24q12 12 15 47v915q0 28 -14 42.5t-50 23.5v34h535q140 0 208 -25q200 -75 200 -302q0 -173 -117 -259q-65 -48 -145 -61q-66 -11 -146 -11h-246v-357q2 -35 15 -47q13 -14 49 -24v-34h-353zM368 646h216q99 0 142 23q64 33 64 121t-64 123 q-43 23 -142 23h-216v-290z" />
<glyph unicode="q" horiz-adv-x="1246" d="M59 561q0 268 166 434q149 148 371 148t370 -148q166 -165 166 -432q0 -244 -140 -410l85 -101q51 -59 69 -59q15 0 47 18l19 -27l-248 -202l-20 26q31 29 31 47q0 15 -25 48l-97 131q-122 -58 -254 -58q-225 0 -374 149q-166 168 -166 436zM291 560q0 -169 76 -277 q81 -116 229 -116q69 0 140 38q-96 135 -179 152v32q42 13 85 13q87 0 200 -88q58 106 58 248q0 167 -76 274q-81 116 -229 116q-147 0 -228 -116q-76 -108 -76 -276z" />
<glyph unicode="r" horiz-adv-x="1120" d="M79 0v34q36 10 49 24q12 12 15 47v915q0 28 -14 42.5t-50 23.5v34h552q141 0 212 -26q98 -37 148 -123q45 -76 45 -173q0 -232 -241 -302l184 -345q34 -62 51 -81q28 -32 64 -36v-34h-384v34q22 3 29 5q22 6 22 28q0 16 -20 54l-184 352h-189v-368q2 -35 15 -47 q13 -14 49 -24v-34h-353zM368 657h246q197 0 197 141q0 138 -197 138h-246v-279z" />
<glyph unicode="s" horiz-adv-x="1076" d="M52 34l150 333l30 -14q-8 -28 -8 -43q0 -32 36 -60q107 -83 300 -83q103 0 172 35q74 38 74 106q0 58 -68 93q-38 20 -142 50l-147 42q-164 46 -243 108q-99 78 -99 206q0 124 77 213q106 124 339 124q131 0 250 -54q20 -9 73 -37q38 -20 63 -20q21 0 52 29l27 -16 l-181 -292l-28 16q12 28 12 42q0 44 -71 83q-82 45 -192 45q-78 0 -137 -27q-67 -30 -67 -88q0 -49 58 -77q50 -24 141 -48l133 -35q182 -48 260 -111q107 -86 107 -239q0 -184 -156 -268q-134 -71 -321 -71q-158 0 -316 60q-71 27 -90 27q-27 0 -59 -40z" />
<glyph unicode="t" horiz-adv-x="983" d="M13 875v309h32q10 -36 25 -49q13 -13 48 -15h747q31 0 46.5 13.5t26.5 50.5h32v-309h-32q-10 33 -25 47q-12 12 -48 14h-261v-831q0 -30 14 -45.5t50 -25.5v-34h-353v34q36 10 49 24q13 12 15 47v831h-261q-31 0 -46.5 -13t-26.5 -48h-32z" />
<glyph unicode="u" horiz-adv-x="1162" d="M61 1086v34h353v-34q-36 -9 -49 -22q-13 -12 -15 -44v-636q0 -117 49 -160q63 -57 194 -57q130 0 194 57q48 43 48 160v636q0 28 -14 42.5t-50 23.5v34h329v-34q-35 -8 -49 -22q-12 -11 -15 -44v-664q0 -380 -455 -380q-456 0 -456 380v664q0 28 -14 42.5t-50 23.5z" />
<glyph unicode="v" horiz-adv-x="1090" d="M-4 1086v34h381v-34q-67 -8 -67 -45q0 -10 20 -71l218 -674l227 674q17 51 17 68q0 39 -67 48v34h370v-34q-38 -8 -60 -32q-18 -20 -39 -80l-290 -825q-17 -50 -17 -72t18 -31q10 -6 41 -12v-34h-407v34q31 6 41 12q17 9 17 31q0 25 -16 72l-288 825q-23 67 -44 85 q-21 20 -55 27z" />
<glyph unicode="w" horiz-adv-x="1602" d="M-13 1086v34h367v-34q-56 -9 -56 -45q0 -17 21 -84l184 -597l173 612q15 54 15 69q0 31 -32 40q-5 1 -26 5v34h351v-34q-22 -4 -30 -7q-27 -8 -27 -40q0 -17 15 -67l178 -612l182 597q20 67 20 83q0 37 -56 46v34h350v-34q-37 -5 -60 -31q-17 -21 -48 -119l-249 -792 q-16 -51 -16 -68q0 -32 57 -42v-34h-378v34q27 6 36 9q21 9 21 31q0 26 -14 70l-167 540l-149 -540q-14 -49 -14 -70q0 -22 21 -31q9 -3 36 -9v-34h-378v34q33 6 44 14q13 9 13 28q0 18 -16 68l-260 792q-26 78 -33 94q-23 50 -75 56z" />
<glyph unicode="x" horiz-adv-x="1040" d="M4 0v34q31 5 57 19q23 13 53 62l278 462l-276 419q-40 61 -70 76q-16 8 -42 14v34h395v-34q-51 -4 -51 -33q0 -18 21 -52l150 -244l129 227q28 50 28 67q0 31 -57 35v34h381v-34q-36 -4 -59 -21q-21 -18 -60 -81l-247 -405l285 -439q43 -66 64 -84q20 -17 52 -22v-34 h-385v34q53 11 53 32q0 11 -23 49l-173 283l-161 -283q-17 -30 -17 -44q0 -26 56 -37v-34h-381z" />
<glyph unicode="y" horiz-adv-x="1035" d="M-17 1086v34h384v-34q-48 -8 -48 -36q0 -11 23 -52l182 -327l180 327q21 39 21 51q0 30 -56 37v34h384v-34q-46 -8 -67 -25q-23 -19 -58 -79l-298 -520v-357q0 -30 14 -45.5t50 -25.5v-34h-353v34q36 10 49 24q12 12 15 47v357l-297 503q-51 84 -67 96q-23 21 -58 25z " />
<glyph unicode="z" horiz-adv-x="1042" d="M61 0v34l556 892h-434q-31 0 -46.5 -14t-26.5 -51h-32v313h32q10 -31 25 -41q13 -11 48 -13h797v-34l-555 -902h460q31 0 46.5 14t26.5 51h32v-313h-32q-10 36 -25 49q-13 13 -48 15h-824z" />
<glyph unicode="{" horiz-adv-x="642" d="M96 526v313h24q5 -23 9 -33q13 -31 47 -31q38 0 51 45q6 22 8 127v391q0 62 65 112q55 42 116 42h130q47 1 61 15q17 16 25 49h27v-278h-27q-9 34 -25 49q-15 15 -57 15t-74 -28q-39 -34 -39 -115v-373q0 -38 -14 -68q-15 -32 -69 -75q54 -43 69 -76q14 -30 14 -68v-373 q0 -80 39 -115q32 -28 74 -28q41 0 57 15t25 49h27v-278h-27q-7 32 -25 49q-14 15 -61 15h-130q-62 0 -116 42q-66 50 -65 112v391q-2 104 -8 127q-13 45 -51 45q-34 0 -47 -30q-4 -11 -9 -34h-24z" />
<glyph unicode="|" horiz-adv-x="1024" d="M389 -341v1706h246v-1706h-246z" />
<glyph unicode="}" horiz-adv-x="642" d="M-17 87h27q9 -34 24 -49q17 -15 58 -15q42 0 74 28q39 35 39 115v373q0 38 14 68q16 33 69 76q-54 43 -69 75q-14 30 -14 68v373q0 81 -39 115q-32 28 -74 28t-58 -15q-15 -15 -24 -49h-27v278h27q8 -33 24 -49q15 -14 62 -15h130q61 0 116 -42q65 -50 65 -112v-391 q2 -104 8 -127q13 -45 51 -45q34 0 47 31q4 10 9 33h24v-313h-24q-5 23 -9 34q-13 30 -47 30q-38 0 -51 -45q-6 -23 -8 -127v-391q1 -62 -65 -112q-54 -42 -116 -42h-130q-47 0 -62 -15q-17 -17 -24 -49h-27v278z" />
<glyph unicode="~" horiz-adv-x="1365" d="M191 1255q39 89 85 148q85 110 207 110q74 0 228 -71q85 -40 108 -47q42 -14 73 -14q86 0 162 138l123 -101q-46 -102 -89 -155q-87 -105 -203 -105q-46 0 -112 25q-34 13 -108 46q-139 62 -191 62q-59 0 -104 -53q-26 -30 -56 -83z" />
<glyph unicode="&#xa1;" horiz-adv-x="720" d="M150 0v34q31 6 42 15q12 10 16 27q1 1 8 50l89 649q2 14 2 36q0 55 -17 69q-11 8 -45 19v34h230v-34l-13 -4q-33 -10 -41 -26q-9 -15 -9 -50q0 -23 3 -44l89 -649q7 -50 12 -62q12 -22 53 -30v-34h-419zM196 1224q0 70 48 117q49 48 118 48q66 0 114 -48t48 -117 q0 -67 -48 -115t-116 -48t-116 48t-48 115z" />
<glyph unicode="&#xa2;" d="M159 674q0 251 148 421q77 87 172 124q44 17 122 35v88q0 30 -14 46t-50 26v27h258v-27q-36 -9 -49 -24q-13 -13 -15 -48v-82q127 -8 250 -84q39 -24 59 -24q19 0 45 23l29 -16l-170 -298l-28 16q9 30 9 47q0 33 -34 69q-56 60 -160 74v-785q114 15 165 74q32 35 32 68 q0 23 -11 59l26 19l230 -281l-26 -19q-31 24 -47 24q-19 0 -97 -49q-88 -54 -155 -70q-59 -13 -117 -17v-94q0 -31 14 -47t50 -26v-27h-258v27q34 9 49 25q12 12 15 48v101q-95 20 -154.5 49t-115.5 84q-82 79 -127 195t-45 249zM392 685q0 -133 45 -235q32 -73 164 -151 v754q-85 -32 -134 -101q-75 -105 -75 -267z" />
<glyph unicode="&#xa3;" d="M139 179q115 61 164 145q33 59 33 173q0 69 -6 135h-49q-30 0 -46 -14t-26 -50h-32v305h32q10 -35 25 -49q12 -13 47 -15h30q-3 35 -5 47q-8 76 -8 119q0 162 87 266q63 76 173 116q90 32 187 32q154 0 267 -69q52 -31 126 -98q44 -39 71 -39q9 0 23 11l21 -23l-245 -212 l-20 25q16 13 16 35q0 43 -52 95q-74 75 -184 75q-92 0 -152 -49q-73 -60 -73 -181q0 -39 9 -150h162q31 0 47 14t26 50h32v-305h-32q-9 34 -25 49q-12 12 -48 15h-148q8 -90 8 -153q0 -104 -37 -171q-19 -34 -70 -96q95 30 168 30q60 0 150 -22q103 -25 140 -25 q60 0 106 26q51 29 51 73q0 20 -12 37l25 20l217 -256l-25 -20q-27 12 -45 12q-22 0 -59 -23q-65 -41 -102 -58q-66 -30 -162 -30q-72 0 -181 28q-108 28 -185 28q-172 0 -301 -70z" />
<glyph unicode="&#xa4;" d="M-22 225l23 23q31 -17 49 -17q25 0 47 23l88 87q-99 157 -99 336q0 182 99 336l-88 88q-23 23 -47 23q-19 0 -49 -18l-23 23l216 216l23 -23q-18 -30 -18 -49q0 -24 23 -47l84 -84q147 105 340 105q192 0 340 -105l83 84q24 23 24 47q0 19 -18 49l23 23l216 -216l-23 -23 q-30 18 -50 18q-23 0 -46 -23l-87 -87q98 -151 98 -337t-98 -336l81 -82q23 -23 47 -23q19 0 50 17l23 -22l-216 -216l-23 22q17 31 17 50q0 24 -23 47l-78 79q-145 -106 -340 -106t-340 105l-84 -83q-23 -24 -23 -47q0 -19 18 -50l-23 -23zM343 677q0 -122 53 -214 q79 -139 251 -139q170 0 249 139q53 92 53 213q0 125 -53 215q-80 139 -255 139q-165 0 -245 -139q-53 -92 -53 -214z" />
<glyph unicode="&#xa5;" d="M89 1331v34h405v-34q-55 -12 -55 -37q0 -11 25 -66l191 -429l193 429q25 51 25 64q0 27 -55 39v34h391v-34q-45 -11 -65 -38q-19 -26 -48 -82l-100 -197h67q31 0 47 14t26 50h32v-305h-32q-9 35 -25 49q-12 12 -48 15h-156l-125 -245h186q30 0 46 14t26 50h32v-305h-32 q-9 34 -24 49q-13 13 -48 15h-199v-310q0 -30 13.5 -45t49.5 -26v-34h-367v34q36 10 49 24q12 12 15 47v310h-199q-30 0 -46 -14t-26 -50h-32v305h32q10 -35 25 -49q12 -12 47 -15h186l-124 245h-157q-31 0 -46.5 -14t-26.5 -50h-32v305h32q10 -35 25 -49q12 -13 48 -15h67 l-100 197q-43 83 -61 97q-19 17 -52 23z" />
<glyph unicode="&#xa6;" horiz-adv-x="1024" d="M389 314h246v-655h-246v655zM389 660v705h246v-705h-246z" />
<glyph unicode="&#xa7;" horiz-adv-x="1189" d="M76 -165l152 268l20 -14q-8 -24 -8 -35q0 -37 65 -86q117 -87 316 -87q110 0 177 31q96 43 96 139q0 62 -62 90q-46 21 -175 42l-169 28q-182 29 -257 82q-50 35 -79 94t-29 125q0 124 77 203q27 27 80 64q-68 42 -98 85q-45 66 -45 162q0 220 176 310q105 54 250 54 q141 0 289 -53q46 -16 87 -33q29 -11 46 -11q9 0 33 27l21 -11l-119 -281l-21 12q5 24 5 33q0 30 -66 63q-77 38 -144 49q-48 7 -117 7q-127 0 -182 -36q-61 -40 -61 -103q0 -54 53 -79q29 -14 131 -29l151 -22q147 -21 216 -46q228 -84 228 -297q0 -114 -66 -205 q-29 -40 -72 -67q73 -61 95 -101q29 -51 29 -148q0 -151 -94 -252q-118 -125 -382 -125q-190 0 -342 78q-62 32 -120 73q-18 13 -28 13q-11 0 -38 -25zM319 542q0 -58 55 -84q25 -11 131 -29l248 -42q80 38 110 67q45 46 45 107q0 69 -63 95q-57 23 -141 35l-225 30 q-160 -73 -160 -179z" />
<glyph unicode="&#xa8;" horiz-adv-x="1024" d="M210 1376q0 54 36 90t90 36q50 0 85 -36q36 -37 36 -88t-36 -87t-87 -36t-88 36q-36 35 -36 85zM566 1377q0 53 36 89t90 36q50 0 85 -36q36 -37 36 -88t-36 -87t-87 -36t-88 36q-36 35 -36 86z" />
<glyph unicode="&#xa9;" horiz-adv-x="1537" d="M68 681q0 151 53 286.5t151 232.5q189 189 506 189q297 0 488 -189q105 -105 159 -257q44 -125 44 -261q0 -150 -53.5 -285.5t-149.5 -231.5q-191 -189 -497 -189q-307 0 -497 189q-106 105 -160 257q-44 125 -44 259zM197 683q0 -251 143 -416q157 -181 429 -181 t428 181q143 165 143 414q0 256 -143 418q-83 94 -188.5 137.5t-248.5 43.5q-262 0 -420 -181q-143 -164 -143 -416zM404 682q0 193 109 314q98 110 263 110q100 0 173 -39q24 -12 59 -37q27 -19 41 -19q10 0 33 13l24 -19l-156 -189l-24 19q7 18 7 32q0 24 -23 46 q-48 46 -128 46q-101 0 -156 -83q-51 -77 -51 -193q0 -117 51 -194q55 -83 156 -83q85 0 133 52q18 19 18 41q0 14 -7 32l24 19l156 -190l-24 -19q-23 14 -34 14q-12 0 -57 -31q-93 -65 -218 -65q-161 0 -260 110q-109 122 -109 313z" />
<glyph unicode="&#xaa;" horiz-adv-x="874" d="M172 999q0 88 65 145q66 58 161 58q64 0 106 -29q18 -13 43 -43v53q0 47 -31 76q-49 45 -135 45q-48 0 -85 -15q-36 -16 -36 -28l1 -2l3 -12l-25 -12l-59 107l26 13q8 -11 14 -11q4 0 11 4q78 41 161 41q66 0 126.5 -22.5t96.5 -60.5q48 -51 48 -131v-300q0 -20 9 -27 t29 -10v-27h-134v63q-31 -35 -54 -49q-48 -29 -114 -29q-96 0 -162 58q-65 57 -65 145zM173 550v183h27q8 -23 25 -34q12 -8 47 -10h323q31 0 47 9.5t26 34.5h27v-183h-27q-10 24 -25 33q-11 8 -48 10h-323q-30 0 -46 -9.5t-26 -33.5h-27zM294 995q0 -39 25 -69 q32 -39 88 -39q57 0 91 39q26 30 26 68q0 45 -26 77q-32 39 -92 39q-57 0 -87 -39q-25 -32 -25 -76z" />
<glyph unicode="&#xab;" horiz-adv-x="915" d="M98 580l187 403h166l-189 -403l189 -403h-166zM442 580l187 403h166l-189 -403l189 -403h-166z" />
<glyph unicode="&#xac;" horiz-adv-x="1024" d="M68 369v215h887v-584h-239v369h-648z" />
<glyph unicode="&#xad;" horiz-adv-x="410" d="M0 407v305h32q10 -35 25 -49q12 -13 48 -15h200q31 0 47 14t26 50h32v-305h-32q-9 35 -25 49q-12 12 -48 15h-200q-31 0 -47 -14t-26 -50h-32z" />
<glyph unicode="&#xae;" horiz-adv-x="1537" d="M68 681q0 151 53 286.5t151 232.5q189 189 506 189q297 0 488 -189q105 -105 159 -257q44 -125 44 -261q0 -150 -53.5 -285.5t-149.5 -231.5q-191 -189 -497 -189q-307 0 -497 189q-106 105 -160 257q-44 125 -44 259zM197 683q0 -251 143 -416q157 -181 429 -181 t428 181q143 165 143 414q0 256 -143 418q-83 94 -188.5 137.5t-248.5 43.5q-262 0 -420 -181q-143 -164 -143 -416zM437 273v32q23 6 31 13q5 5 7 23v682q0 16 -7.5 23.5t-30.5 13.5v32h368q118 0 173 -29q64 -34 97 -103q24 -53 24 -114q0 -111 -78 -178q-37 -31 -89 -46 l126 -244q36 -65 83 -73v-32h-269v33q33 2 33 13q0 9 -11 31l-130 253h-123v-262q1 -18 7 -23q8 -7 30 -13v-32h-241zM641 746h170q123 0 123 103q0 100 -123 100h-170v-203z" />
<glyph unicode="&#xaf;" horiz-adv-x="1024" d="M0 1606v202h1024v-202h-1024z" />
<glyph unicode="&#xb0;" horiz-adv-x="798" d="M109 1096q0 64 26.5 123.5t72.5 98.5q85 71 195 71q121 0 208 -92q78 -82 78 -198q0 -124 -88 -209q-84 -82 -201 -82q-130 0 -216 95q-75 82 -75 193zM218 1099q0 -68 44 -122q53 -64 137 -64q70 0 123 51q58 55 58 132q0 76 -50 129q-56 59 -135 59q-66 0 -117 -49 q-60 -58 -60 -136z" />
<glyph unicode="&#xb1;" d="M89 112h32q10 -36 25 -49q12 -12 48 -15h910q31 0 47 14t26 50h32v-306h-32q-9 35 -25 50q-12 12 -48 15h-910q-36 -3 -48 -15q-15 -14 -25 -50h-32v306zM89 530v305h32q10 -35 25 -49q12 -13 48 -15h366v366q0 31 -14 47t-50 26v32h305v-32q-34 -9 -49 -24 q-12 -13 -15 -49v-366h367q31 0 47 14t26 50h32v-305h-32q-9 34 -25 49q-12 12 -48 15h-367v-325q0 -31 14 -46.5t50 -26.5v-32h-305v32q35 10 49 25q13 12 15 48v325h-366q-31 0 -47 -14t-26 -50h-32z" />
<glyph unicode="&#xb2;" horiz-adv-x="864" d="M65 1253l25 19q21 -8 27 -8q12 0 53 28q122 87 283 87q129 0 212 -60q87 -62 87 -176q0 -92 -70 -166q-43 -45 -129 -100l-89 -55q-138 -87 -159 -139h416q20 1 27 7q8 7 15 31h32v-213h-32q-8 24 -15 31q-7 6 -27 7h-544q-20 -1 -26 -7q-8 -7 -15 -31h-33v26 q0 100 45 186q56 106 212 206l85 54q58 37 93 74q36 37 36 84q0 50 -40 77q-34 23 -91 23q-105 0 -178 -52q-28 -19 -28 -37q0 -12 18 -33l-24 -21z" />
<glyph unicode="&#xb3;" horiz-adv-x="864" d="M74 624l111 183l29 -13q-6 -20 -6 -26q0 -25 50 -55q66 -39 166 -39q76 0 118 31q47 34 47 93q0 56 -41 89q-40 32 -123 32q-43 0 -53 -8q-8 -6 -16 -30h-32v206h32q8 -25 15 -31q12 -9 53 -9q131 0 131 98q0 46 -34 72q-33 25 -92 25q-91 0 -148 -47q-24 -19 -24 -38 q0 -11 14 -27l-25 -21l-157 149l23 21q21 -8 28 -8q10 0 33 16q136 92 275 92q122 0 200 -60q80 -62 80 -163q0 -106 -110 -166q48 -18 80 -48q69 -63 69 -156q0 -65 -31 -119t-86 -85q-91 -50 -217 -50q-135 0 -270 80q-18 10 -31 10t-30 -14z" />
<glyph unicode="&#xb4;" horiz-adv-x="1024" d="M405 1246v27q16 0 22 3q14 7 23 33l63 163q3 7 3 13q0 18 -26 21v27h287v-27q-39 -1 -56 -27l-144 -174q-6 -7 -6 -16q0 -16 19 -16h5v-27h-190z" />
<glyph unicode="&#xb5;" horiz-adv-x="959" d="M-10 -290q0 50 17 133q60 316 61 679v415h227v-588q0 -157 38 -214q35 -51 104 -51q63 0 121 47q29 23 73 82v724h226v-677q0 -94 13 -127q17 -39 70 -39q25 0 58 15v-38l-229 -93q-5 -2 -11 -2q-19 0 -40 12t-32 28q-15 23 -41 113q-69 -71 -102 -97q-80 -63 -177 -63 q-116 0 -177 85q-21 30 -44 90q-1 -31 -1 -45q0 -77 18 -155q18 -75 33 -127q18 -67 18 -110q0 -35 -23 -64q-32 -40 -86 -40q-68 0 -100 52q-14 24 -14 55z" />
<glyph unicode="&#xb6;" horiz-adv-x="1270" d="M139 1010q0 114 69 200q90 112 244 140q82 15 137 15h546v-32q-33 -8 -49 -24q-15 -15 -15 -62v-1293q0 -47 15 -62q16 -16 49 -24v-32h-231v1392h-148v-1392h-231v32q33 8 49 24q15 15 15 62v680q-104 5 -154 17q-143 35 -227 149q-69 94 -69 210z" />
<glyph unicode="&#xb7;" horiz-adv-x="573" d="M123 560q0 69 48 116q49 48 118 48q66 0 114 -48t48 -115q0 -68 -48 -117q-48 -48 -116 -48t-116 48q-48 49 -48 116z" />
<glyph unicode="&#xb8;" horiz-adv-x="1024" d="M301 -392l22 47q52 -16 98 -16q78 0 112 34q21 20 21 49q0 40 -32 60q-17 11 -36 11q-42 0 -73 -35l-29 18l51 99q12 23 15 25q4 4 20 4q89 0 140 -19q113 -42 113 -139q0 -71 -56 -116q-60 -50 -172 -50q-115 0 -194 28z" />
<glyph unicode="&#xb9;" horiz-adv-x="864" d="M269 1066v216h36q2 -9 3 -12q2 -13 18 -13q8 0 11 1l35 14v25q-1 17 -8 23q-8 9 -33 14v31h250v-31q-25 -5 -33 -14q-7 -5 -8 -23v-682q2 -18 8 -23q7 -7 33 -14v-32h-250v32q27 7 33 14q7 6 8 23v499l-19 -6q-24 -8 -36 -16q-9 -7 -12 -26h-36z" />
<glyph unicode="&#xba;" horiz-adv-x="874" d="M171 550v183h27q8 -23 25 -34q12 -8 48 -10h323q31 0 47 9.5t26 34.5h27v-183h-27q-10 24 -25 33q-11 8 -48 10h-323q-31 0 -47 -9.5t-26 -33.5h-27zM179 1092q0 133 81 212q74 72 184 72q105 0 178 -72q81 -80 81 -211t-81 -212q-73 -73 -181 -73t-181 73 q-81 81 -81 211zM301 1092q0 -79 35 -129q37 -53 105 -53t105 53q35 50 35 128q0 81 -35 130q-38 53 -107 53q-65 0 -103 -53q-35 -50 -35 -129z" />
<glyph unicode="&#xbb;" horiz-adv-x="915" d="M120 177l188 403l-188 403h166l187 -403l-187 -403h-166zM464 177l188 403l-188 403h166l187 -403l-187 -403h-166z" />
<glyph unicode="&#xbc;" horiz-adv-x="2189" d="M269 1066v216h36q2 -9 3 -12q2 -13 18 -13q8 0 11 1l35 14v25q-1 17 -8 23q-8 9 -33 14v31h250v-31q-25 -5 -33 -14q-7 -5 -8 -23v-682q2 -18 8 -23q7 -7 33 -14v-32h-250v32q27 7 33 14q7 6 8 23v499l-19 -6q-24 -8 -36 -16q-9 -7 -12 -26h-36zM557 0v32q42 6 67 32 q16 14 61 86l652 1078q29 48 29 67q0 26 -50 38v32h315v-32q-36 -5 -59 -30q-12 -15 -62 -97l-653 -1081q-27 -45 -27 -59q0 -24 55 -34v-32h-328zM1408 107v169l345 452q23 31 23 41q0 16 -33 18v32h311v-31q-24 -5 -33 -14q-7 -6 -8 -24v-469h39q20 1 27 7q8 7 15 31h32 v-213h-32q-7 23 -15 31q-6 5 -27 7h-39v-75q1 -18 8 -24q7 -7 33 -14v-31h-250v31q26 7 33 14q6 6 8 24v75h-340q-38 -1 -46 -4q-8 -6 -17 -33h-34zM1591 281h254v338z" />
<glyph unicode="&#xbd;" horiz-adv-x="2189" d="M269 1066v216h36q2 -9 3 -12q2 -13 18 -13q8 0 11 1l35 14v25q-1 17 -8 23q-8 9 -33 14v31h250v-31q-25 -5 -33 -14q-7 -5 -8 -23v-682q2 -18 8 -23q7 -7 33 -14v-32h-250v32q27 7 33 14q7 6 8 23v499l-19 -6q-24 -8 -36 -16q-9 -7 -12 -26h-36zM557 0v32q42 6 67 32 q16 14 61 86l652 1078q29 48 29 67q0 26 -50 38v32h315v-32q-36 -5 -59 -30q-12 -15 -62 -97l-653 -1081q-27 -45 -27 -59q0 -24 55 -34v-32h-328zM1389 707l25 20q21 -9 27 -9q13 0 38 18q133 98 298 98q129 0 212 -60q87 -63 87 -176q0 -93 -70 -166q-43 -46 -129 -100 l-89 -56q-138 -86 -159 -139h416q20 1 27 7q8 7 15 31h32v-213h-32q-7 24 -15 31q-7 6 -27 7h-544q-20 -1 -26 -7q-8 -7 -15 -31h-33v26q0 100 46 186q33 63 85 113q45 41 126 93l85 54q57 37 93 74q36 38 36 85q0 49 -40 77q-34 23 -91 23q-105 0 -178 -52q-28 -20 -28 -37 q0 -13 18 -34l-24 -21z" />
<glyph unicode="&#xbe;" horiz-adv-x="2189" d="M74 624l111 183l29 -13q-6 -20 -6 -26q0 -25 50 -55q66 -39 166 -39q76 0 118 31q47 34 47 93q0 56 -41 89q-40 32 -123 32q-43 0 -53 -8q-8 -6 -16 -30h-32v206h32q8 -25 15 -31q12 -9 53 -9q131 0 131 98q0 46 -34 72q-33 25 -92 25q-91 0 -148 -47q-24 -19 -24 -38 q0 -11 14 -27l-25 -21l-157 149l23 21q21 -8 28 -8q10 0 33 16q136 92 275 92q122 0 200 -60q80 -62 80 -163q0 -106 -110 -166q48 -18 80 -48q69 -63 69 -156q0 -65 -31 -119t-86 -85q-91 -50 -217 -50q-135 0 -270 80q-18 10 -31 10t-30 -14zM557 0v32q42 6 67 32 q16 14 61 86l652 1078q29 48 29 67q0 26 -50 38v32h315v-32q-36 -5 -59 -30q-13 -15 -62 -97l-653 -1081q-27 -45 -27 -59q0 -24 55 -34v-32h-328zM1408 107v169l345 452q23 31 23 41q0 16 -33 18v32h311v-31q-24 -6 -33 -14q-7 -6 -8 -24v-469h39q20 1 27 7q8 7 15 31h32 v-213h-32q-7 23 -15 31q-6 5 -27 7h-39v-75q1 -18 8 -24q7 -7 33 -14v-31h-250v31q26 7 33 14q6 6 8 24v75h-340q-38 -1 -46 -4q-8 -6 -17 -33h-34zM1591 281h254v338z" />
<glyph unicode="&#xbf;" horiz-adv-x="932" d="M106 301q0 105 73 197q21 27 88 99q74 80 95 131q17 44 17 108q0 28 -19 37q-14 7 -45 12v32h326v-32q-31 -10 -43 -24q-17 -22 -21 -65q-11 -104 -64 -185q-37 -56 -95 -128q-45 -54 -60 -91q-18 -42 -18 -78q0 -66 42 -106q41 -39 109 -39q78 0 125 44q36 34 36 63 q0 22 -18 59l24 21l233 -252l-23 -23q-38 18 -55 18q-14 0 -82 -46q-113 -77 -261 -77q-173 0 -272 99q-92 93 -92 226zM334 1224q0 70 48 117q49 48 118 48q66 0 114 -48t48 -117q0 -67 -48 -115t-116 -48t-116 48t-48 115z" />
<glyph unicode="&#xc0;" horiz-adv-x="1274" d="M5 0v34q38 9 56 31q16 20 39 86l364 1068q19 54 19 71q0 28 -57 41v34h436v-34q-56 -12 -56 -41q0 -19 18 -71l356 -1068q25 -73 45 -91q18 -18 54 -26v-34h-409v34q56 17 56 48q0 21 -18 74l-65 189h-440l-64 -189q-18 -54 -18 -74q0 -31 56 -48v-34h-372zM379 1738v27 h287v-27q-26 -3 -26 -21q0 -7 3 -13l63 -163q9 -28 26 -34q5 -2 19 -2v-27h-190v27h5q19 0 19 16q0 9 -6 16l-144 174q-17 26 -56 27zM466 546h323l-161 494z" />
<glyph unicode="&#xc1;" horiz-adv-x="1274" d="M5 0v34q38 9 56 31q16 20 39 86l364 1068q19 54 19 71q0 28 -57 41v34h436v-34q-56 -12 -56 -41q0 -19 18 -71l356 -1068q25 -73 45 -91q18 -18 54 -26v-34h-409v34q56 17 56 48q0 21 -18 74l-65 189h-440l-64 -189q-18 -54 -18 -74q0 -31 56 -48v-34h-372zM466 546h323 l-161 494zM536 1478v27q16 0 22 3q14 7 23 33l63 163q3 7 3 13q0 18 -26 21v27h287v-27q-39 -1 -56 -27l-144 -174q-6 -7 -6 -16q0 -16 19 -16h5v-27h-190z" />
<glyph unicode="&#xc2;" horiz-adv-x="1274" d="M5 0v34q38 9 56 31q16 20 39 86l364 1068q19 54 19 71q0 28 -57 41v34h436v-34q-56 -12 -56 -41q0 -19 18 -71l356 -1068q25 -73 45 -91q18 -18 54 -26v-34h-409v34q56 17 56 48q0 21 -18 74l-65 189h-440l-64 -189q-18 -54 -18 -74q0 -31 56 -48v-34h-372zM337 1478v27 q19 1 30 8t31 34l126 149q9 11 9 25q0 17 -29 17v27h277v-27q-30 -2 -30 -18q0 -12 14 -28l142 -167q15 -19 40 -20v-27h-258v27q28 2 28 14q0 6 -14 25l-79 102l-82 -105q-8 -11 -8 -19q0 -15 28 -17v-27h-225zM466 546h323l-161 494z" />
<glyph unicode="&#xc3;" horiz-adv-x="1274" d="M5 0v34q38 9 56 31q16 20 39 86l364 1068q19 54 19 71q0 28 -57 41v34h436v-34q-56 -12 -56 -41q0 -19 18 -71l356 -1068q25 -73 45 -91q18 -18 54 -26v-34h-409v34q56 17 56 48q0 21 -18 74l-65 189h-440l-64 -189q-18 -54 -18 -74q0 -31 56 -48v-34h-372zM320 1617 l13 17q21 -8 32 -8q19 0 35 23q58 80 141 80q29 0 61 -13l138 -59q24 -10 48 -10q28 0 45 29q7 12 7 21q0 13 -16 33l19 15l135 -126l-14 -20q-28 9 -34 9q-13 0 -25 -17q-61 -91 -132 -91q-37 0 -79 17l-138 57q-19 8 -39 8q-26 0 -45 -24q-11 -14 -11 -26t15 -31l-18 -14z M466 546h323l-161 494z" />
<glyph unicode="&#xc4;" horiz-adv-x="1274" d="M5 0v34q38 9 56 31q16 20 39 86l364 1068q19 54 19 71q0 28 -57 41v34h436v-34q-56 -12 -56 -41q0 -19 18 -71l356 -1068q25 -73 45 -91q18 -18 54 -26v-34h-409v34q56 17 56 48q0 21 -18 74l-65 189h-440l-64 -189q-18 -54 -18 -74q0 -31 56 -48v-34h-372zM340 1609 q0 54 36 90t90 36q50 0 85 -36q36 -37 36 -88t-36 -87t-87 -36t-88 36q-36 35 -36 85zM466 546h323l-161 494zM696 1609q0 54 36 90t90 36q50 0 85 -36q36 -37 36 -88t-36 -87t-87 -36t-88 36q-36 35 -36 85z" />
<glyph unicode="&#xc5;" horiz-adv-x="1274" d="M5 0v34q38 9 56 31q16 20 39 86l364 1068q19 54 19 71q0 28 -57 41v34h436v-34q-56 -12 -56 -41q0 -19 18 -71l356 -1068q25 -73 45 -91q18 -18 54 -26v-34h-409v34q56 17 56 48q0 21 -18 74l-65 189h-440l-64 -189q-18 -54 -18 -74q0 -31 56 -48v-34h-372zM427 1626 q0 71 63 122t155 51q87 0 149 -51q63 -51 63 -121q0 -77 -63 -126q-64 -50 -152 -50q-89 0 -152 51q-63 52 -63 124zM466 546h323l-161 494zM548 1625q0 -32 27 -54q28 -22 67 -22t67 22q27 23 27 54q0 32 -27 54t-68 22q-40 0 -66 -22q-27 -23 -27 -54z" />
<glyph unicode="&#xc6;" horiz-adv-x="1815" d="M-22 0v34q40 10 57 29q10 13 43 88l455 1068q25 62 25 75q0 25 -53 37v34h1094q30 0 45.5 14t26.5 51h32v-346h-32q-10 35 -25 48q-12 13 -47 15h-553v-339h331q31 0 47 14t26 50h32v-337h-32q-10 35 -25 49q-12 13 -48 15h-331v-381h593q30 0 46 14t26 49h33v-345h-33 q-9 34 -24 49q-13 13 -48 15h-915v34q36 10 49 24q12 12 15 47v240h-357l-78 -181q-30 -72 -30 -88q0 -26 52 -42v-34h-397zM510 546h278v601h-31z" />
<glyph unicode="&#xc7;" horiz-adv-x="1301" d="M73 683q0 321 182 524q164 182 437 182q167 0 289 -65q37 -20 98 -62q50 -35 76 -35q18 0 56 21l24 -21l-249 -303l-25 20q9 28 9 50q0 47 -42 88q-86 82 -225 82q-180 0 -276 -147q-88 -134 -88 -334q0 -201 88 -335q96 -147 276 -147q93 0 169 42q98 55 98 128 q0 23 -9 50l25 20l249 -303l-24 -20q-38 20 -57 20q-25 0 -103 -55q-155 -107 -364 -107q-268 0 -432 183q-182 203 -182 524zM420 -418l23 49q56 -16 103 -16q81 0 117 36q22 22 22 53q0 42 -34 64q-18 11 -37 11q-45 0 -77 -37l-30 19l53 105q12 24 15 27q5 4 22 4 q92 0 146 -20q118 -45 118 -148q0 -76 -58 -124q-63 -53 -179 -53q-122 0 -204 30z" />
<glyph unicode="&#xc8;" horiz-adv-x="1189" d="M98 0v34q36 10 49 24q12 12 15 47v1155q0 30 -14 45.5t-50 25.5v34h893q31 0 46.5 14t26.5 51h32v-346h-32q-10 36 -25 48q-13 13 -48 15h-571v-339h331q31 0 47 14t26 50h32v-337h-32q-10 36 -24 49q-13 13 -49 15h-331v-381h593q37 3 49 15q14 13 24 48h32v-345h-32 q-10 36 -24 49t-49 15h-915zM357 1738v27h287v-27q-26 -3 -26 -21q0 -7 3 -13l63 -163q9 -28 26 -34q5 -2 19 -2v-27h-190v27h5q19 0 19 16q0 9 -6 16l-144 174q-17 26 -56 27z" />
<glyph unicode="&#xc9;" horiz-adv-x="1189" d="M98 0v34q36 10 49 24q12 12 15 47v1155q0 30 -14 45.5t-50 25.5v34h893q31 0 46.5 14t26.5 51h32v-346h-32q-10 36 -25 48q-13 13 -48 15h-571v-339h331q31 0 47 14t26 50h32v-337h-32q-10 36 -24 49q-13 13 -49 15h-331v-381h593q37 3 49 15q14 13 24 48h32v-345h-32 q-10 36 -24 49t-49 15h-915zM501 1478v27q16 0 22 3q14 7 23 33l63 163q3 7 3 13q0 18 -26 21v27h287v-27q-39 -1 -56 -27l-144 -174q-6 -7 -6 -16q0 -16 19 -16h5v-27h-190z" />
<glyph unicode="&#xca;" horiz-adv-x="1189" d="M98 0v34q36 10 49 24q12 12 15 47v1155q0 30 -14 45.5t-50 25.5v34h893q31 0 46.5 14t26.5 51h32v-346h-32q-10 36 -25 48q-13 13 -48 15h-571v-339h331q31 0 47 14t26 50h32v-337h-32q-10 36 -24 49q-13 13 -49 15h-331v-381h593q37 3 49 15q14 13 24 48h32v-345h-32 q-10 36 -24 49t-49 15h-915zM310 1478v27q19 1 30 8t31 34l126 149q9 11 9 25q0 17 -29 17v27h277v-27q-30 -2 -30 -18q0 -12 14 -28l142 -167q15 -19 40 -20v-27h-258v27q28 2 28 14q0 6 -14 25l-79 102l-82 -105q-8 -11 -8 -19q0 -15 28 -17v-27h-225z" />
<glyph unicode="&#xcb;" horiz-adv-x="1189" d="M98 0v34q36 10 49 24q12 12 15 47v1155q0 30 -14 45.5t-50 25.5v34h893q31 0 46.5 14t26.5 51h32v-346h-32q-10 36 -25 48q-13 13 -48 15h-571v-339h331q31 0 47 14t26 50h32v-337h-32q-10 36 -24 49q-13 13 -49 15h-331v-381h593q37 3 49 15q14 13 24 48h32v-345h-32 q-10 36 -24 49t-49 15h-915zM313 1609q0 54 36 90t90 36q50 0 85 -36q36 -37 36 -88t-36 -87t-87 -36t-88 36q-36 35 -36 85zM669 1609q0 54 36 90t90 36q50 0 85 -36q36 -37 36 -88t-36 -87t-87 -36t-88 36q-36 35 -36 85z" />
<glyph unicode="&#xcc;" horiz-adv-x="582" d="M26 1738v27h287v-27q-26 -3 -26 -21q0 -7 3 -13l63 -163q9 -28 26 -34q5 -2 19 -2v-27h-190v27h5q19 0 19 16q0 9 -6 16l-144 174q-17 26 -56 27zM98 0v34q36 10 49 24q12 12 15 47v1155q0 30 -14 45.5t-50 25.5v34h385v-34q-34 -8 -48 -24q-13 -12 -15 -47v-1155 q2 -35 15 -47q13 -14 48 -24v-34h-385z" />
<glyph unicode="&#xcd;" horiz-adv-x="582" d="M98 0v34q36 10 49 24q12 12 15 47v1155q0 30 -14 45.5t-50 25.5v34h385v-34q-34 -8 -48 -24q-13 -12 -15 -47v-1155q2 -35 15 -47q13 -14 48 -24v-34h-385zM183 1478v27q16 0 22 3q14 7 23 33l63 163q3 7 3 13q0 18 -26 21v27h287v-27q-39 -1 -56 -27l-144 -174 q-6 -7 -6 -16q0 -16 19 -16h5v-27h-190z" />
<glyph unicode="&#xce;" horiz-adv-x="582" d="M-7 1478v27q19 1 30 8t31 34l126 149q9 11 9 25q0 17 -29 17v27h277v-27q-30 -2 -30 -18q0 -12 14 -28l142 -167q15 -19 40 -20v-27h-258v27q28 2 28 14q0 6 -14 25l-79 102l-82 -105q-8 -11 -8 -19q0 -15 28 -17v-27h-225zM99 0v34q36 10 49 24q12 12 15 47v1155 q0 30 -14 45.5t-50 25.5v34h385v-34q-34 -8 -48 -24q-13 -12 -15 -47v-1155q2 -35 15 -47q13 -14 48 -24v-34h-385z" />
<glyph unicode="&#xcf;" horiz-adv-x="582" d="M10 1609q0 54 36 90t90 36q50 0 85 -36q36 -37 36 -88t-36 -87t-87 -36t-88 36q-36 35 -36 85zM99 0v34q36 10 49 24q12 12 15 47v1155q0 30 -14 45.5t-50 25.5v34h385v-34q-34 -8 -48 -24q-13 -12 -15 -47v-1155q2 -35 15 -47q13 -14 48 -24v-34h-385zM325 1609 q0 54 36 90t90 36q50 0 85 -36q36 -37 36 -88t-36 -87t-87 -36t-88 36q-36 35 -36 85z" />
<glyph unicode="&#xd0;" horiz-adv-x="1373" d="M14 564v306h32q8 -28 19 -43q15 -20 62 -21h51v454q0 30 -14 45.5t-50 25.5v34h569q228 0 356 -85q261 -172 261 -597q0 -310 -145 -492q-89 -111 -210 -152q-111 -39 -262 -39h-569v34q35 9 49 24q12 12 15 47v524h-55q-45 -1 -60 -24q-10 -15 -17 -41h-32zM436 218h223 q196 0 287 127q88 124 88 338q0 213 -88 337q-91 127 -287 127h-223v-341h223q42 0 56 24q10 15 17 40h32v-306h-32q-8 29 -19 44q-15 21 -54 21h-223v-411z" />
<glyph unicode="&#xd1;" horiz-adv-x="1360" d="M98 0v34q36 10 49 24q12 12 15 47v1155q0 30 -14 45.5t-50 25.5v34h458v-34q-52 -9 -52 -39q0 -22 28 -71l432 -742v781q0 30 -14 46t-50 25v34h361v-34q-35 -9 -49 -24q-12 -12 -15 -47v-1155q0 -30 13.5 -45t50.5 -26v-34h-414v34q57 8 57 38q0 16 -22 54l-487 838 v-859q0 -30 13.5 -45t50.5 -26v-34h-361zM364 1617l13 17q21 -8 32 -8q19 0 35 23q58 80 141 80q29 0 61 -13l138 -59q24 -10 48 -10q28 0 45 29q7 12 7 21q0 13 -16 33l19 15l135 -126l-14 -20q-28 9 -34 9q-13 0 -25 -17q-61 -91 -132 -91q-37 0 -79 17l-138 57 q-19 8 -39 8q-26 0 -45 -24q-11 -14 -11 -26t15 -31l-18 -14z" />
<glyph unicode="&#xd2;" horiz-adv-x="1378" d="M73 680q0 310 156 501q170 208 469 208q134 0 251 -54t200 -154q156 -188 156 -498t-156 -499q-172 -208 -460 -208t-460 208q-156 189 -156 496zM339 682q0 -195 79 -326q43 -72 115.5 -113.5t155.5 -41.5q123 0 214 84q136 125 136 396q0 200 -78 329 q-45 73 -117.5 113.5t-159.5 40.5q-117 0 -209 -84q-136 -126 -136 -398zM425 1738v27h287v-27q-26 -3 -26 -21q0 -7 3 -13l63 -163q9 -28 26 -34q5 -2 19 -2v-27h-190v27h5q19 0 19 16q0 9 -6 16l-144 174q-17 26 -56 27z" />
<glyph unicode="&#xd3;" horiz-adv-x="1378" d="M73 680q0 310 156 501q170 208 469 208q134 0 251 -54t200 -154q156 -188 156 -498t-156 -499q-172 -208 -460 -208t-460 208q-156 189 -156 496zM339 682q0 -195 79 -326q43 -72 115.5 -113.5t155.5 -41.5q123 0 214 84q136 125 136 396q0 200 -78 329 q-45 73 -117.5 113.5t-159.5 40.5q-117 0 -209 -84q-136 -126 -136 -398zM582 1478v27q16 0 22 3q14 7 23 33l63 163q3 7 3 13q0 18 -26 21v27h287v-27q-39 -1 -56 -27l-144 -174q-6 -7 -6 -16q0 -16 19 -16h5v-27h-190z" />
<glyph unicode="&#xd4;" horiz-adv-x="1378" d="M73 680q0 310 156 501q170 208 469 208q134 0 251 -54t200 -154q156 -188 156 -498t-156 -499q-172 -208 -460 -208t-460 208q-156 189 -156 496zM339 682q0 -195 79 -326q43 -72 115.5 -113.5t155.5 -41.5q123 0 214 84q136 125 136 396q0 200 -78 329 q-45 73 -117.5 113.5t-159.5 40.5q-117 0 -209 -84q-136 -126 -136 -398zM391 1478v27q19 1 30 8t31 34l126 149q9 11 9 25q0 17 -29 17v27h277v-27q-30 -2 -30 -18q0 -12 14 -28l142 -167q15 -19 40 -20v-27h-258v27q28 2 28 14q0 6 -14 25l-79 102l-82 -105q-8 -11 -8 -19 q0 -15 28 -17v-27h-225z" />
<glyph unicode="&#xd5;" horiz-adv-x="1378" d="M73 680q0 310 156 501q170 208 469 208q134 0 251 -54t200 -154q156 -188 156 -498t-156 -499q-172 -208 -460 -208t-460 208q-156 189 -156 496zM339 682q0 -195 79 -326q43 -72 115.5 -113.5t155.5 -41.5q123 0 214 84q136 125 136 396q0 200 -78 329 q-45 73 -117.5 113.5t-159.5 40.5q-117 0 -209 -84q-136 -126 -136 -398zM374 1617l13 17q21 -8 32 -8q19 0 35 23q58 80 141 80q29 0 61 -13l138 -59q24 -10 48 -10q28 0 45 29q7 12 7 21q0 13 -16 33l19 15l135 -126l-14 -20q-28 9 -34 9q-13 0 -25 -17q-61 -91 -132 -91 q-37 0 -79 17l-138 57q-19 8 -39 8q-26 0 -45 -24q-11 -14 -11 -26t15 -31l-18 -14z" />
<glyph unicode="&#xd6;" horiz-adv-x="1378" d="M73 680q0 310 156 501q170 208 469 208q134 0 251 -54t200 -154q156 -188 156 -498t-156 -499q-172 -208 -460 -208t-460 208q-156 189 -156 496zM339 682q0 -195 79 -326q43 -72 115.5 -113.5t155.5 -41.5q123 0 214 84q136 125 136 396q0 200 -78 329 q-45 73 -117.5 113.5t-159.5 40.5q-117 0 -209 -84q-136 -126 -136 -398zM394 1609q0 54 36 90t90 36q50 0 85 -36q36 -37 36 -88t-36 -87t-87 -36t-88 36q-36 35 -36 85zM750 1609q0 54 36 90t90 36q50 0 85 -36q36 -37 36 -88t-36 -87t-87 -36t-88 36q-36 35 -36 85z" />
<glyph unicode="&#xd7;" d="M121 371l23 22q31 -17 49 -17q24 0 47 23l284 284l-284 283q-23 23 -47 23q-20 0 -49 -17l-23 23l216 216l23 -23q-18 -30 -18 -50q0 -23 23 -47l284 -283l283 283q23 23 23 47q0 20 -17 50l23 23l216 -216l-23 -23q-30 17 -50 17q-24 0 -47 -23l-283 -283l283 -284 q24 -23 48 -23q18 0 49 17l23 -22l-216 -216l-23 22q18 32 18 50q0 23 -24 47l-283 284l-284 -284q-23 -23 -23 -47q0 -19 18 -50l-23 -22z" />
<glyph unicode="&#xd8;" horiz-adv-x="1378" d="M73 683q0 309 156 498q172 208 464 208q141 0 269 -60l26 44q12 21 12 41q0 34 -54 49v39h344v-39q-43 -6 -69 -37q-21 -28 -68 -118l-47 -81q88 -91 131 -188q68 -154 68 -357q0 -309 -156 -498q-172 -208 -469 -208q-143 0 -261 59l-33 -57q-9 -16 -9 -34q0 -29 55 -41 v-40h-344v40q45 6 71 37q19 22 65 102l52 91q-91 94 -134 193q-69 156 -69 357zM340 686q0 -195 71 -318l433 755q-72 41 -149 41q-128 0 -219 -84q-74 -69 -110 -194q-26 -92 -26 -200zM538 241q70 -40 146 -40q127 0 218 84q136 126 136 398q0 176 -68 309z" />
<glyph unicode="&#xd9;" horiz-adv-x="1338" d="M76 1331v34h385v-34q-34 -9 -48 -24q-12 -11 -15 -47v-727q0 -126 9 -168q34 -164 273 -164q189 0 250 99q28 44 31 111q3 47 3 122v727q0 30 -14 45.5t-50 25.5v34h361v-34q-35 -9 -49 -24q-12 -12 -15 -47v-740q0 -122 -10 -190.5t-34 -115.5q-70 -136 -225 -195 q-111 -43 -260 -43q-258 0 -400 130q-93 85 -113 194q-15 77 -15 220v740q0 30 -14 45.5t-50 25.5zM418 1738v27h287v-27q-26 -3 -26 -21q0 -7 3 -13l63 -163q9 -28 26 -34q5 -2 19 -2v-27h-190v27h5q19 0 19 16q0 9 -6 16l-144 174q-17 26 -56 27z" />
<glyph unicode="&#xda;" horiz-adv-x="1338" d="M76 1331v34h385v-34q-34 -9 -48 -24q-12 -11 -15 -47v-727q0 -126 9 -168q34 -164 273 -164q189 0 250 99q28 44 31 111q3 47 3 122v727q0 30 -14 45.5t-50 25.5v34h361v-34q-35 -9 -49 -24q-12 -12 -15 -47v-740q0 -122 -10 -190.5t-34 -115.5q-70 -136 -225 -195 q-111 -43 -260 -43q-258 0 -400 130q-93 85 -113 194q-15 77 -15 220v740q0 30 -14 45.5t-50 25.5zM561 1478v27q16 0 22 3q14 7 23 33l63 163q3 7 3 13q0 18 -26 21v27h287v-27q-39 -1 -56 -27l-144 -174q-6 -7 -6 -16q0 -16 19 -16h5v-27h-190z" />
<glyph unicode="&#xdb;" horiz-adv-x="1338" d="M76 1331v34h385v-34q-34 -9 -48 -24q-12 -11 -15 -47v-727q0 -126 9 -168q34 -164 273 -164q189 0 250 99q28 44 31 111q3 47 3 122v727q0 30 -14 45.5t-50 25.5v34h361v-34q-35 -9 -49 -24q-12 -12 -15 -47v-740q0 -122 -10 -190.5t-34 -115.5q-70 -136 -225 -195 q-111 -43 -260 -43q-258 0 -400 130q-93 85 -113 194q-15 77 -15 220v740q0 30 -14 45.5t-50 25.5zM371 1478v27q19 1 30 8t31 34l126 149q9 11 9 25q0 17 -29 17v27h277v-27q-30 -2 -30 -18q0 -12 14 -28l142 -167q15 -19 40 -20v-27h-258v27q28 2 28 14q0 6 -14 25 l-79 102l-82 -105q-8 -11 -8 -19q0 -15 28 -17v-27h-225z" />
<glyph unicode="&#xdc;" horiz-adv-x="1338" d="M76 1331v34h385v-34q-34 -9 -48 -24q-12 -11 -15 -47v-727q0 -126 9 -168q34 -164 273 -164q189 0 250 99q28 44 31 111q3 47 3 122v727q0 30 -14 45.5t-50 25.5v34h361v-34q-35 -9 -49 -24q-12 -12 -15 -47v-740q0 -122 -10 -190.5t-34 -115.5q-70 -136 -225 -195 q-111 -43 -260 -43q-258 0 -400 130q-93 85 -113 194q-15 77 -15 220v740q0 30 -14 45.5t-50 25.5zM374 1609q0 54 36 90t90 36q50 0 85 -36q36 -37 36 -88t-36 -87t-87 -36t-88 36q-36 35 -36 85zM730 1609q0 54 36 90t90 36q50 0 85 -36q36 -37 36 -88t-36 -87t-87 -36 t-88 36q-36 35 -36 85z" />
<glyph unicode="&#xdd;" horiz-adv-x="1171" d="M-22 1331v34h414v-34q-55 -12 -55 -37q0 -21 24 -66l233 -426l229 426q25 46 25 64q0 27 -55 39v34h399v-34q-36 -6 -56 -28q-17 -20 -57 -92l-364 -645v-461q0 -30 13.5 -45t49.5 -26v-34h-385v34q36 10 49 24q12 12 15 47v461l-366 645q-43 78 -61 97q-19 17 -52 23z M471 1478v27q16 0 22 3q14 7 23 33l63 163q3 7 3 13q0 18 -26 21v27h287v-27q-39 -1 -56 -27l-144 -174q-6 -7 -6 -16q0 -16 19 -16h5v-27h-190z" />
<glyph unicode="&#xde;" horiz-adv-x="1213" d="M98 0v34q36 10 49 24q12 12 15 47v1155q0 30 -14 45.5t-50 25.5v34h385v-34q-34 -8 -48 -24q-13 -12 -15 -47v-99h285q170 0 259 -47q104 -55 156 -163q42 -86 42 -192q0 -179 -110 -290q-69 -70 -158 -93q-82 -21 -189 -21h-285v-250q2 -35 15 -47q13 -14 48 -24v-34 h-385zM420 573h230q143 0 198 47t55 138q0 92 -55 138q-55 47 -198 47h-230v-370z" />
<glyph unicode="&#xdf;" horiz-adv-x="2152" d="M52 34l150 333l30 -14q-8 -28 -8 -43q0 -32 36 -60q107 -83 300 -83q103 0 172 35q74 38 74 106q0 58 -68 93q-38 20 -142 50l-147 42q-164 46 -243 108q-99 78 -99 206q0 124 77 213q106 124 339 124q131 0 250 -54q20 -9 73 -37q38 -20 63 -20q21 0 52 29l27 -16 l-181 -292l-28 16q12 28 12 42q0 44 -71 83q-82 45 -192 45q-78 0 -137 -27q-67 -30 -67 -88q0 -49 58 -77q50 -24 141 -48l133 -35q182 -48 260 -111q107 -86 107 -239q0 -184 -156 -268q-134 -71 -321 -71q-158 0 -316 60q-71 27 -90 27q-27 0 -59 -40zM1128 34l150 333 l30 -14q-8 -28 -8 -43q0 -32 36 -60q107 -83 300 -83q103 0 172 35q74 38 74 106q0 58 -68 93q-38 20 -142 50l-147 42q-164 46 -243 108q-99 78 -99 206q0 124 77 213q106 124 339 124q131 0 250 -54q20 -9 73 -37q38 -20 63 -20q21 0 52 29l28 -16l-182 -292l-28 16 q12 27 12 42q0 44 -71 83q-82 45 -192 45q-78 0 -137 -27q-67 -30 -67 -88q0 -49 58 -77q50 -24 141 -48l133 -35q182 -48 260 -111q107 -86 107 -239q0 -184 -156 -268q-134 -71 -321 -71q-158 0 -316 60q-71 27 -90 27q-27 0 -59 -40z" />
<glyph unicode="&#xe0;" horiz-adv-x="1150" d="M4 0v34q38 9 57 28q15 16 35 70l301 832q21 57 21 76q0 21 -14 34q-15 14 -30 14q-3 0 -11 -2v34h433v-34q-8 1 -14 1q-16 0 -29 -14.5t-13 -33.5q0 -16 21 -75l302 -832q21 -57 38 -74q17 -16 53 -24v-34h-391v34q61 14 61 48q0 18 -15 62l-44 129h-400l-44 -129 q-15 -45 -15 -61q0 -35 61 -49v-34h-363zM304 1506v27h287v-27q-26 -3 -26 -21q0 -7 3 -13l63 -163q9 -28 26 -34q5 -2 19 -2v-27h-190v27h5q19 0 19 16q0 9 -6 16l-144 174q-17 26 -56 27zM428 457h284l-141 401z" />
<glyph unicode="&#xe1;" horiz-adv-x="1150" d="M4 0v34q38 9 57 28q15 16 35 70l301 832q21 57 21 76q0 21 -14 34q-15 14 -30 14q-3 0 -11 -2v34h433v-34q-8 1 -14 1q-16 0 -29 -14.5t-13 -33.5q0 -16 21 -75l302 -832q21 -57 38 -74q17 -16 53 -24v-34h-391v34q61 14 61 48q0 18 -15 62l-44 129h-400l-44 -129 q-15 -45 -15 -61q0 -35 61 -49v-34h-363zM428 457h284l-141 401zM472 1246v27q16 0 22 3q14 7 23 33l63 163q3 7 3 13q0 18 -26 21v27h287v-27q-39 -1 -56 -27l-144 -174q-6 -7 -6 -16q0 -16 19 -16h5v-27h-190z" />
<glyph unicode="&#xe2;" horiz-adv-x="1150" d="M4 0v34q38 9 57 28q15 16 35 70l301 832q21 57 21 76q0 21 -14 34q-15 14 -30 14q-3 0 -11 -2v34h433v-34q-8 1 -14 1q-16 0 -29 -14.5t-13 -33.5q0 -16 21 -75l302 -832q21 -57 38 -74q17 -16 53 -24v-34h-391v34q61 14 61 48q0 18 -15 62l-44 129h-400l-44 -129 q-15 -45 -15 -61q0 -35 61 -49v-34h-363zM274 1246v27q19 1 30 8t31 34l126 149q9 11 9 25q0 17 -29 17v27h277v-27q-30 -2 -30 -18q0 -12 14 -28l142 -167q15 -19 40 -20v-27h-258v27q28 2 28 14q0 6 -14 24l-79 103l-82 -106q-8 -10 -8 -18q0 -15 28 -17v-27h-225z M428 457h284l-141 401z" />
<glyph unicode="&#xe3;" horiz-adv-x="1150" d="M4 0v34q38 9 57 28q15 16 35 70l301 832q21 57 21 76q0 21 -14 34q-15 14 -30 14q-3 0 -11 -2v34h433v-34q-8 1 -14 1q-16 0 -29 -14.5t-13 -33.5q0 -16 21 -75l302 -832q21 -57 38 -74q17 -16 53 -24v-34h-391v34q61 14 61 48q0 18 -15 62l-44 129h-400l-44 -129 q-15 -45 -15 -61q0 -35 61 -49v-34h-363zM250 1385l13 17q22 -8 32 -8q19 0 35 22q57 80 141 80q31 0 61 -13l138 -58q26 -11 48 -11q28 0 45 29q7 12 7 21q0 13 -16 33l19 16l135 -126l-14 -20q-28 9 -34 9q-13 0 -25 -17q-62 -92 -133 -92q-35 0 -78 18l-138 57 q-18 7 -39 7q-26 0 -45 -24q-11 -14 -11 -25q0 -13 15 -31l-18 -15zM428 457h284l-141 401z" />
<glyph unicode="&#xe4;" horiz-adv-x="1150" d="M4 0v34q38 9 57 28q15 16 35 70l301 832q21 57 21 76q0 21 -14 34q-15 14 -30 14q-3 0 -11 -2v34h433v-34q-8 1 -14 1q-16 0 -29 -14.5t-13 -33.5q0 -16 21 -75l302 -832q21 -57 38 -74q17 -16 53 -24v-34h-391v34q61 14 61 48q0 18 -15 62l-44 129h-400l-44 -129 q-15 -45 -15 -61q0 -35 61 -49v-34h-363zM277 1376q0 54 36 90t90 36q50 0 85 -36q36 -37 36 -88t-36 -87t-87 -36t-88 36q-36 35 -36 85zM428 457h284l-141 401zM633 1377q0 53 36 89t90 36q50 0 85 -36q36 -37 36 -88t-36 -87t-87 -36t-88 36q-36 35 -36 86z" />
<glyph unicode="&#xe5;" horiz-adv-x="1150" d="M4 0v34q38 9 57 28q15 16 35 70l301 832q21 57 21 76q0 21 -14 34q-15 14 -30 14q-3 0 -11 -2v34h433v-34q-8 1 -14 1q-16 0 -29 -14.5t-13 -33.5q0 -16 21 -75l302 -832q21 -57 38 -74q17 -16 53 -24v-34h-391v34q61 14 61 48q0 18 -15 62l-44 129h-400l-44 -129 q-15 -45 -15 -61q0 -35 61 -49v-34h-363zM364 1394q0 71 63 122t155 51q87 0 149 -51q63 -52 63 -121q0 -77 -63 -126q-64 -50 -152 -50q-89 0 -152 51q-63 52 -63 124zM428 457h284l-141 401zM485 1393q0 -32 27 -54q28 -22 67 -22t67 22q27 22 27 54t-27 54q-28 22 -68 22 t-66 -22q-27 -23 -27 -54z" />
<glyph unicode="&#xe6;" horiz-adv-x="1679" d="M46 0v34q41 8 63 27q18 15 47 71l412 831q35 71 35 87q0 24 -53 36v34h955q31 0 46.5 14t26.5 50h32v-323h-32q-10 36 -25 50q-13 13 -48 15h-477v-269h278q31 0 46.5 14t26.5 50h32v-305h-32q-10 36 -25 49q-13 13 -48 15h-278v-296h501q31 0 47 14t26 51h32v-313h-32 q-9 35 -25 49q-13 13 -47 15h-791v34q36 10 49 24q13 12 15 47v168h-356l-63 -130q-26 -51 -26 -66q0 -30 56 -43v-34h-368zM543 457h260v478h-31z" />
<glyph unicode="&#xe7;" horiz-adv-x="1096" d="M59 560q0 254 148 418q149 165 386 165q148 0 287 -81q40 -23 59 -23q22 0 54 31l28 -16l-178 -306l-28 16q9 29 9 46q0 33 -34 68q-71 74 -190 74q-150 0 -234 -116q-75 -104 -75 -268q0 -173 73 -279q84 -122 242 -122q124 0 189 75q32 36 32 69q0 21 -11 59l26 19 l230 -281l-26 -19q-30 24 -47 24q-18 0 -96 -49q-139 -88 -308 -88q-218 0 -364 141q-82 79 -127 194.5t-45 248.5zM341 -392l22 47q52 -16 98 -16q78 0 112 34q21 20 21 49q0 40 -32 60q-17 11 -36 11q-42 0 -73 -35l-29 18l51 99q12 23 15 25q4 4 20 4q89 0 140 -19 q113 -42 113 -139q0 -71 -56 -116q-60 -50 -172 -50q-115 0 -194 28z" />
<glyph unicode="&#xe8;" horiz-adv-x="1031" d="M79 0v34q36 10 49 24q13 12 15 47v915q0 28 -14.5 43t-49.5 23v34h766q31 0 47 14t26 50h32v-323h-32q-10 36 -25 50q-13 13 -48 15h-477v-269h278q31 0 46.5 13.5t26.5 50.5h32v-305h-32q-11 36 -25 49q-13 13 -48 15h-278v-296h501q31 0 46.5 14t26.5 51h32v-313h-32 q-10 36 -25 49q-13 13 -48 15h-790zM276 1506v27h287v-27q-26 -3 -26 -21q0 -7 3 -13l63 -163q9 -28 26 -34q5 -2 19 -2v-27h-190v27h5q19 0 19 16q0 9 -6 16l-144 174q-17 26 -56 27z" />
<glyph unicode="&#xe9;" horiz-adv-x="1031" d="M79 0v34q36 10 49 24q13 12 15 47v915q0 28 -14.5 43t-49.5 23v34h766q31 0 47 14t26 50h32v-323h-32q-10 36 -25 50q-13 13 -48 15h-477v-269h278q31 0 46.5 13.5t26.5 50.5h32v-305h-32q-11 36 -25 49q-13 13 -48 15h-278v-296h501q31 0 46.5 14t26.5 51h32v-313h-32 q-10 36 -25 49q-13 13 -48 15h-790zM419 1246v27q16 0 22 3q14 7 23 33l63 163q3 7 3 13q0 18 -26 21v27h287v-27q-39 -1 -56 -27l-144 -174q-6 -7 -6 -16q0 -16 19 -16h5v-27h-190z" />
<glyph unicode="&#xea;" horiz-adv-x="1031" d="M79 0v34q36 10 49 24q13 12 15 47v915q0 28 -14.5 43t-49.5 23v34h766q31 0 47 14t26 50h32v-323h-32q-10 36 -25 50q-13 13 -48 15h-477v-269h278q31 0 46.5 13.5t26.5 50.5h32v-305h-32q-11 36 -25 49q-13 13 -48 15h-278v-296h501q31 0 46.5 14t26.5 51h32v-313h-32 q-10 36 -25 49q-13 13 -48 15h-790zM228 1246v27q19 1 30 8t31 34l126 149q9 11 9 25q0 17 -29 17v27h277v-27q-30 -2 -30 -18q0 -12 14 -28l142 -167q15 -19 40 -20v-27h-258v27q28 2 28 14q0 6 -14 24l-79 103l-82 -106q-8 -10 -8 -18q0 -15 28 -17v-27h-225z" />
<glyph unicode="&#xeb;" horiz-adv-x="1031" d="M79 0v34q36 10 49 24q13 12 15 47v915q0 28 -14.5 43t-49.5 23v34h766q31 0 47 14t26 50h32v-323h-32q-10 36 -25 50q-13 13 -48 15h-477v-269h278q31 0 46.5 13.5t26.5 50.5h32v-305h-32q-11 36 -25 49q-13 13 -48 15h-278v-296h501q31 0 46.5 14t26.5 51h32v-313h-32 q-10 36 -25 49q-13 13 -48 15h-790zM232 1376q0 54 36 90t90 36q50 0 85 -36q36 -37 36 -88t-36 -87t-87 -36t-88 36q-36 35 -36 85zM588 1377q0 53 36 89t90 36q50 0 85 -36q36 -37 36 -88t-36 -87t-87 -36t-88 36q-36 35 -36 86z" />
<glyph unicode="&#xec;" horiz-adv-x="511" d="M-12 1506v27h287v-27q-26 -3 -26 -21q0 -7 3 -13l63 -163q9 -28 26 -34q5 -2 19 -2v-27h-190v27h5q19 0 19 16q0 9 -6 16l-144 174q-17 26 -56 27zM79 0v34q36 10 49 24q13 12 15 47v915q0 28 -14 42.5t-50 23.5v34h353v-34q-35 -8 -49 -22q-13 -11 -15 -44v-915 q2 -35 15 -47q13 -14 49 -24v-34h-353z" />
<glyph unicode="&#xed;" horiz-adv-x="511" d="M79 0v34q36 10 49 24q13 12 15 47v915q0 28 -14 42.5t-50 23.5v34h353v-34q-35 -8 -49 -22q-13 -11 -15 -44v-915q2 -35 15 -47q13 -14 49 -24v-34h-353zM151 1246v27q16 0 22 3q14 7 23 33l63 163q3 7 3 13q0 18 -26 21v27h287v-27q-39 -1 -56 -27l-144 -174 q-6 -7 -6 -16q0 -16 19 -16h5v-27h-190z" />
<glyph unicode="&#xee;" horiz-adv-x="511" d="M-36 1246v27q19 1 30 8t31 34l126 149q9 11 9 25q0 17 -29 17v27h277v-27q-30 -2 -30 -18q0 -12 14 -28l142 -167q15 -19 40 -20v-27h-258v27q28 2 28 14q0 6 -14 24l-79 103l-82 -106q-8 -10 -8 -18q0 -15 28 -17v-27h-225zM79 0v34q36 10 49 24q13 12 15 47v915 q0 28 -14 42.5t-50 23.5v34h353v-34q-35 -8 -49 -22q-13 -11 -15 -44v-915q2 -35 15 -47q13 -14 49 -24v-34h-353z" />
<glyph unicode="&#xef;" horiz-adv-x="511" d="M-26 1376q0 54 36 90t90 36q50 0 85 -36q36 -37 36 -88t-36 -87t-87 -36t-88 36q-36 35 -36 85zM79 0v34q36 10 49 24q13 12 15 47v915q0 28 -14 42.5t-50 23.5v34h353v-34q-35 -8 -49 -22q-13 -11 -15 -44v-915q2 -35 15 -47q13 -14 49 -24v-34h-353zM289 1377 q0 53 36 89t90 36q50 0 85 -36q36 -37 36 -88t-36 -87t-87 -36t-88 36q-36 35 -36 86z" />
<glyph unicode="&#xf0;" horiz-adv-x="1195" d="M20 449v277h32q8 -29 19 -43q15 -18 52 -19h40v356q0 28 -14 42.5t-50 23.5v34h457q221 0 335 -62q139 -75 201 -235q44 -113 44 -260q0 -266 -142 -416q-84 -88 -198 -118q-114 -29 -256 -29h-441v34q35 9 49 24q12 12 15 47v409h-51q-44 -3 -60 -65h-32zM388 184h167 q105 0 172 26.5t109 84.5q68 93 68 267q0 172 -68 264q-42 58 -108.5 84t-172.5 26h-167v-272h169q57 1 73 62h32v-277h-32q-10 36 -25 50q-14 14 -48 15h-169v-330z" />
<glyph unicode="&#xf1;" horiz-adv-x="1195" d="M79 0v34q36 10 49 24q12 12 15 47v915q0 28 -14 42.5t-50 23.5v34h420v-34q-51 -8 -51 -39q0 -25 27 -66l376 -577v616q0 28 -14 42.5t-50 23.5v34h330v-34q-35 -8 -49 -22q-12 -11 -16 -44v-915q0 -30 13.5 -45t50.5 -26v-34h-374v34q48 8 48 42q0 29 -28 72l-418 633 v-676q0 -30 13.5 -45t50.5 -26v-34h-329zM282 1385l13 17q22 -8 32 -8q19 0 35 22q57 80 141 80q31 0 61 -13l138 -58q26 -11 48 -11q28 0 45 29q7 12 7 21q0 13 -16 33l19 16l135 -126l-14 -20q-28 9 -34 9q-13 0 -25 -17q-62 -92 -133 -92q-35 0 -78 18l-138 57 q-18 7 -39 7q-26 0 -45 -24q-11 -14 -11 -25q0 -13 15 -31l-18 -15z" />
<glyph unicode="&#xf2;" horiz-adv-x="1190" d="M59 560q0 272 166 435q151 148 378 148q214 0 363 -148q166 -165 166 -434t-166 -436q-148 -149 -370 -149t-371 149q-166 167 -166 435zM291 560q0 -169 76 -277q81 -116 228 -116q148 0 229 116q76 108 76 275q0 172 -76 278q-83 116 -233 116q-66 0 -126 -31t-98 -85 q-76 -107 -76 -276zM332 1506v27h287v-27q-26 -3 -26 -21q0 -7 3 -13l63 -163q9 -28 26 -34q5 -2 19 -2v-27h-190v27h5q19 0 19 16q0 9 -6 16l-144 174q-17 26 -56 27z" />
<glyph unicode="&#xf3;" horiz-adv-x="1190" d="M59 560q0 272 166 435q151 148 378 148q214 0 363 -148q166 -165 166 -434t-166 -436q-148 -149 -370 -149t-371 149q-166 167 -166 435zM291 560q0 -169 76 -277q81 -116 228 -116q148 0 229 116q76 108 76 275q0 172 -76 278q-83 116 -233 116q-66 0 -126 -31t-98 -85 q-76 -107 -76 -276zM488 1246v27q16 0 22 3q14 7 23 33l63 163q3 7 3 13q0 18 -26 21v27h287v-27q-39 -1 -56 -27l-144 -174q-6 -7 -6 -16q0 -16 19 -16h5v-27h-190z" />
<glyph unicode="&#xf4;" horiz-adv-x="1190" d="M59 560q0 272 166 435q151 148 378 148q214 0 363 -148q166 -165 166 -434t-166 -436q-148 -149 -370 -149t-371 149q-166 167 -166 435zM291 560q0 -169 76 -277q81 -116 228 -116q148 0 229 116q76 108 76 275q0 172 -76 278q-83 116 -233 116q-66 0 -126 -31t-98 -85 q-76 -107 -76 -276zM297 1246v27q19 1 30 8t31 34l126 149q9 11 9 25q0 17 -29 17v27h277v-27q-30 -2 -30 -18q0 -12 14 -28l142 -167q15 -19 40 -20v-27h-258v27q28 2 28 14q0 6 -14 24l-79 103l-82 -106q-8 -10 -8 -18q0 -15 28 -17v-27h-225z" />
<glyph unicode="&#xf5;" horiz-adv-x="1190" d="M59 560q0 272 166 435q151 148 378 148q214 0 363 -148q166 -165 166 -434t-166 -436q-148 -149 -370 -149t-371 149q-166 167 -166 435zM280 1385l13 17q22 -8 32 -8q19 0 35 22q57 80 141 80q31 0 61 -13l138 -58q26 -11 48 -11q28 0 45 29q7 12 7 21q0 13 -16 33 l19 16l135 -126l-14 -20q-28 9 -34 9q-13 0 -25 -17q-62 -92 -133 -92q-35 0 -78 18l-138 57q-18 7 -39 7q-26 0 -45 -24q-11 -14 -11 -25q0 -13 15 -31l-18 -15zM291 560q0 -169 76 -277q81 -116 228 -116q148 0 229 116q76 108 76 275q0 172 -76 278q-83 116 -233 116 q-66 0 -126 -31t-98 -85q-76 -107 -76 -276z" />
<glyph unicode="&#xf6;" horiz-adv-x="1190" d="M59 560q0 272 166 435q151 148 378 148q214 0 363 -148q166 -165 166 -434t-166 -436q-148 -149 -370 -149t-371 149q-166 167 -166 435zM291 560q0 -169 76 -277q81 -116 228 -116q148 0 229 116q76 108 76 275q0 172 -76 278q-83 116 -233 116q-66 0 -126 -31t-98 -85 q-76 -107 -76 -276zM301 1376q0 54 36 90t90 36q50 0 85 -36q36 -37 36 -88t-36 -87t-87 -36t-88 36q-36 35 -36 85zM657 1377q0 53 36 89t90 36q50 0 85 -36q36 -37 36 -88t-36 -87t-87 -36t-88 36q-36 35 -36 86z" />
<glyph unicode="&#xf7;" d="M89 530v305h32q10 -35 25 -49q12 -13 48 -15h910q31 0 47 14t26 50h32v-305h-32q-9 34 -25 49q-12 12 -48 15h-910q-31 0 -47 -14t-26 -50h-32zM485 264q0 68 48 115q49 48 118 48q66 0 114 -48t48 -115q0 -68 -48 -117q-48 -48 -116 -48t-116 48q-48 49 -48 117z M485 1103q0 69 48 116q49 48 118 48q66 0 114 -48t48 -115q0 -68 -48 -117q-48 -48 -116 -48t-116 48q-48 49 -48 116z" />
<glyph unicode="&#xf8;" horiz-adv-x="1190" d="M59 -96q45 6 71 32q9 9 33 41.5t32 45.5l49 84q-185 181 -185 454q0 268 166 434q148 148 372 148q120 0 229 -49l28 46q19 33 19 40q0 27 -61 35v29h320v-29q-41 -5 -67 -32q-9 -7 -70 -103l-43 -71q180 -176 180 -448q0 -269 -166 -436q-148 -149 -374 -149 q-119 0 -225 48l-16 -26q-27 -46 -27 -59q0 -24 55 -35v-29h-320v29zM291 562q0 -159 66 -264l368 624q-58 30 -125 30q-153 0 -234 -116q-75 -108 -75 -274zM469 196q57 -29 122 -29q153 0 234 116q75 109 75 272q0 167 -62 261z" />
<glyph unicode="&#xf9;" horiz-adv-x="1162" d="M61 1086v34h353v-34q-36 -9 -49 -22q-13 -12 -15 -44v-636q0 -117 49 -160q63 -57 194 -57q130 0 194 57q48 43 48 160v636q0 28 -14 42.5t-50 23.5v34h329v-34q-35 -8 -49 -22q-12 -11 -15 -44v-664q0 -380 -455 -380q-456 0 -456 380v664q0 28 -14 42.5t-50 23.5z M323 1506v27h287v-27q-26 -3 -26 -21q0 -7 3 -13l63 -163q9 -28 26 -34q5 -2 19 -2v-27h-190v27h5q19 0 19 16q0 9 -6 16l-144 174q-17 26 -56 27z" />
<glyph unicode="&#xfa;" horiz-adv-x="1162" d="M61 1086v34h353v-34q-36 -9 -49 -22q-13 -12 -15 -44v-636q0 -117 49 -160q63 -57 194 -57q130 0 194 57q48 43 48 160v636q0 28 -14 42.5t-50 23.5v34h329v-34q-35 -8 -49 -22q-12 -11 -15 -44v-664q0 -380 -455 -380q-456 0 -456 380v664q0 28 -14 42.5t-50 23.5z M473 1246v27q16 0 22 3q14 7 23 33l63 163q3 7 3 13q0 18 -26 21v27h287v-27q-39 -1 -56 -27l-144 -174q-6 -7 -6 -16q0 -16 19 -16h5v-27h-190z" />
<glyph unicode="&#xfb;" horiz-adv-x="1162" d="M61 1086v34h353v-34q-36 -9 -49 -22q-13 -12 -15 -44v-636q0 -117 49 -160q63 -57 194 -57q130 0 194 57q48 43 48 160v636q0 28 -14 42.5t-50 23.5v34h329v-34q-35 -8 -49 -22q-12 -11 -15 -44v-664q0 -380 -455 -380q-456 0 -456 380v664q0 28 -14 42.5t-50 23.5z M282 1246v27q19 1 30 8t31 34l126 149q9 11 9 25q0 17 -29 17v27h277v-27q-30 -2 -30 -18q0 -12 14 -28l142 -167q15 -19 40 -20v-27h-258v27q28 2 28 14q0 6 -14 24l-79 103l-82 -106q-8 -10 -8 -18q0 -15 28 -17v-27h-225z" />
<glyph unicode="&#xfc;" horiz-adv-x="1162" d="M61 1086v34h353v-34q-36 -9 -49 -22q-13 -12 -15 -44v-636q0 -117 49 -160q63 -57 194 -57q130 0 194 57q48 43 48 160v636q0 28 -14 42.5t-50 23.5v34h329v-34q-35 -8 -49 -22q-12 -11 -15 -44v-664q0 -380 -455 -380q-456 0 -456 380v664q0 28 -14 42.5t-50 23.5z M286 1376q0 54 36 90t90 36q50 0 85 -36q36 -37 36 -88t-36 -87t-87 -36t-88 36q-36 35 -36 85zM642 1377q0 53 36 89t90 36q50 0 85 -36q36 -37 36 -88t-36 -87t-87 -36t-88 36q-36 35 -36 86z" />
<glyph unicode="&#xfd;" horiz-adv-x="1035" d="M-17 1086v34h384v-34q-48 -8 -48 -36q0 -11 23 -52l182 -327l180 327q21 39 21 51q0 30 -56 37v34h384v-34q-46 -8 -67 -25q-23 -19 -58 -79l-298 -520v-357q0 -30 14 -45.5t50 -25.5v-34h-353v34q36 10 49 24q12 12 15 47v357l-297 503q-51 84 -67 96q-23 21 -58 25z M410 1246v27q16 0 22 3q14 7 23 33l63 163q3 7 3 13q0 18 -26 21v27h287v-27q-39 -1 -56 -27l-144 -174q-6 -7 -6 -16q0 -16 19 -16h5v-27h-190z" />
<glyph unicode="&#xfe;" horiz-adv-x="1057" d="M79 0v34q36 10 49 24q13 12 15 47v915q0 28 -14 42.5t-50 23.5v34h353v-34q-35 -9 -49 -22q-13 -12 -15 -44v-85h239q140 0 208 -25q200 -75 200 -302q0 -173 -117 -259q-64 -48 -144 -61q-67 -11 -147 -11h-239v-172q2 -35 15 -47q13 -14 49 -24v-34h-353zM368 461h217 q97 0 141 23q64 33 64 121t-64 123q-42 23 -141 23h-217v-290z" />
<glyph unicode="&#xff;" horiz-adv-x="1035" d="M-17 1086v34h384v-34q-48 -8 -48 -36q0 -11 23 -52l182 -327l180 327q21 39 21 51q0 30 -56 37v34h384v-34q-46 -8 -67 -25q-23 -19 -58 -79l-298 -520v-357q0 -30 14 -45.5t50 -25.5v-34h-353v34q36 10 49 24q12 12 15 47v357l-297 503q-51 84 -67 96q-23 21 -58 25z M216 1376q0 54 36 90t90 36q50 0 85 -36q36 -37 36 -88t-36 -87t-87 -36t-88 36q-36 35 -36 85zM572 1377q0 53 36 89t90 36q50 0 85 -36q36 -37 36 -88t-36 -87t-87 -36t-88 36q-36 35 -36 86z" />
<glyph unicode="&#x152;" horiz-adv-x="1906" d="M73 683q0 291 161 481q85 100 203.5 154.5t252.5 54.5l189 -8h811q31 0 47 14.5t26 50.5h32v-346h-32q-10 35 -25 48q-13 13 -48 15h-553v-339h332q30 0 45.5 14t26.5 50h32v-337h-32q-10 36 -25 49q-12 13 -47 15h-332v-381h593q37 3 48 15q15 13 25 48h32v-345h-32 q-10 36 -25 49q-13 13 -48 15h-851q-10 0 -97 -5q-66 -3 -97 -3q-189 0 -343 110q-149 106 -217 284q-52 135 -52 297zM339 683q0 -254 129 -384q92 -93 261 -93q65 0 150 12v929q-81 12 -147 12q-190 0 -287 -118q-106 -129 -106 -358z" />
<glyph unicode="&#x153;" horiz-adv-x="1608" d="M45 561q0 264 173 424q72 67 170 105t198 38q35 0 101 -4q64 -4 92 -4h654q31 0 47 14t26 50h32v-323h-32q-10 36 -25 50q-13 13 -48 15h-477v-269h278q31 0 46.5 14t26.5 50h32v-305h-32q-10 36 -25 49q-13 13 -48 15h-278v-296h501q31 0 46.5 14t26.5 51h32v-313h-32 q-10 36 -25 49q-13 13 -48 15h-678q-29 0 -106 -5q-52 -3 -76 -3q-225 0 -379 144q-173 162 -173 425zM277 562q0 -224 123 -327q79 -67 217 -67q49 0 114 16v752q-61 21 -113 21q-156 0 -239 -87q-102 -106 -102 -308z" />
<glyph unicode="&#x178;" horiz-adv-x="1171" d="M-22 1331v34h414v-34q-55 -12 -55 -37q0 -21 24 -66l233 -426l229 426q25 46 25 64q0 27 -55 39v34h399v-34q-36 -6 -56 -28q-17 -20 -57 -92l-364 -645v-461q0 -30 13.5 -45t49.5 -26v-34h-385v34q36 10 49 24q12 12 15 47v461l-366 645q-43 78 -61 97q-19 17 -52 23z M290 1609q0 54 36 90t90 36q50 0 85 -36q36 -37 36 -88t-36 -87t-87 -36t-88 36q-36 35 -36 85zM646 1609q0 54 36 90t90 36q50 0 85 -36q36 -37 36 -88t-36 -87t-87 -36t-88 36q-36 35 -36 85z" />
<glyph unicode="&#x2c6;" horiz-adv-x="1024" d="M207 1246v27q19 1 30 8t31 34l126 149q9 11 9 25q0 17 -29 17v27h277v-27q-30 -2 -30 -18q0 -12 14 -28l142 -167q15 -19 40 -20v-27h-258v27q28 2 28 14q0 6 -14 24l-79 103l-82 -106q-8 -10 -8 -18q0 -15 28 -17v-27h-225z" />
<glyph unicode="&#x2dc;" horiz-adv-x="1024" d="M183 1385l13 17q22 -8 32 -8q19 0 35 22q57 80 141 80q31 0 61 -13l138 -58q26 -11 48 -11q28 0 45 29q7 12 7 21q0 13 -16 33l19 16l135 -126l-14 -20q-28 9 -34 9q-13 0 -25 -17q-62 -92 -133 -92q-35 0 -78 18l-138 57q-18 7 -39 7q-26 0 -45 -24q-11 -14 -11 -25 q0 -13 15 -31l-18 -15z" />
<glyph unicode="&#x2000;" horiz-adv-x="904" />
<glyph unicode="&#x2001;" horiz-adv-x="1808" />
<glyph unicode="&#x2002;" horiz-adv-x="904" />
<glyph unicode="&#x2003;" horiz-adv-x="1808" />
<glyph unicode="&#x2004;" horiz-adv-x="602" />
<glyph unicode="&#x2005;" horiz-adv-x="452" />
<glyph unicode="&#x2006;" horiz-adv-x="301" />
<glyph unicode="&#x2007;" horiz-adv-x="301" />
<glyph unicode="&#x2008;" horiz-adv-x="226" />
<glyph unicode="&#x2009;" horiz-adv-x="361" />
<glyph unicode="&#x200a;" horiz-adv-x="100" />
<glyph unicode="&#x2010;" horiz-adv-x="410" d="M0 407v305h32q10 -35 25 -49q12 -13 48 -15h200q31 0 47 14t26 50h32v-305h-32q-9 35 -25 49q-12 12 -48 15h-200q-31 0 -47 -14t-26 -50h-32z" />
<glyph unicode="&#x2011;" horiz-adv-x="410" d="M0 407v305h32q10 -35 25 -49q12 -13 48 -15h200q31 0 47 14t26 50h32v-305h-32q-9 35 -25 49q-12 12 -48 15h-200q-31 0 -47 -14t-26 -50h-32z" />
<glyph unicode="&#x2012;" horiz-adv-x="410" d="M0 407v305h32q10 -35 25 -49q12 -13 48 -15h200q31 0 47 14t26 50h32v-305h-32q-9 35 -25 49q-12 12 -48 15h-200q-31 0 -47 -14t-26 -50h-32z" />
<glyph unicode="&#x2013;" horiz-adv-x="1365" d="M89 418v305h32q10 -36 25 -49q12 -13 48 -15h978q31 0 47 14t26 50h32v-305h-32q-9 35 -25 49q-12 12 -48 15h-978q-31 0 -46.5 -13.5t-26.5 -50.5h-32z" />
<glyph unicode="&#x2014;" horiz-adv-x="1120" d="M0 418v305h32q10 -36 25 -49q12 -13 48 -15h910q31 0 47 14t26 50h32v-305h-32q-9 35 -25 49q-12 12 -48 15h-910q-31 0 -46.5 -13.5t-26.5 -50.5h-32z" />
<glyph unicode="&#x2018;" horiz-adv-x="600" d="M122 980q0 173 160 302q87 71 215 107v-75q-114 -48 -173 -106q-60 -60 -77 -148q48 12 73 12q66 0 110 -40q47 -42 47 -121q0 -81 -47 -129q-45 -45 -114 -45q-97 0 -148 79q-46 71 -46 164z" />
<glyph unicode="&#x2019;" horiz-adv-x="600" d="M102 737v75q114 48 173 106q60 60 77 148q-47 -12 -73 -12q-66 0 -111 40q-46 43 -46 121q0 81 47 129q45 45 114 45q97 0 148 -79q46 -71 46 -164q0 -173 -160 -303q-87 -70 -215 -106z" />
<glyph unicode="&#x201a;" horiz-adv-x="600" d="M102 -267q114 49 173 107q60 60 77 147q-48 -11 -73 -11q-66 0 -111 40q-46 42 -46 121q0 81 47 129q45 45 114 45q97 0 148 -79q46 -71 46 -164q0 -173 -160 -303q-87 -70 -215 -106v74z" />
<glyph unicode="&#x201c;" horiz-adv-x="1097" d="M122 980q0 173 160 302q87 71 215 107v-75q-114 -48 -173 -106q-60 -60 -77 -148q48 12 73 12q66 0 110 -40q47 -42 47 -121q0 -81 -47 -129q-45 -45 -114 -45q-97 0 -148 79q-46 71 -46 164zM619 980q0 173 160 302q87 71 215 107v-75q-114 -48 -173 -106 q-60 -60 -77 -148q48 12 73 12q66 0 111 -40q46 -42 46 -121q0 -81 -47 -129q-45 -45 -114 -45q-97 0 -148 79q-46 71 -46 164z" />
<glyph unicode="&#x201d;" horiz-adv-x="1097" d="M102 737v75q114 48 173 106q60 60 77 148q-47 -12 -73 -12q-66 0 -111 40q-46 43 -46 121q0 81 47 129q45 45 114 45q97 0 148 -79q46 -71 46 -164q0 -173 -160 -303q-87 -70 -215 -106zM599 737v75q114 48 173 106q60 60 77 148q-47 -12 -73 -12q-66 0 -111 40 q-46 42 -46 121q0 81 47 129q45 45 114 45q97 0 148 -79q46 -71 46 -164q0 -173 -160 -303q-87 -70 -215 -106z" />
<glyph unicode="&#x201e;" horiz-adv-x="1097" d="M102 -267q114 49 173 107q60 60 77 147q-48 -11 -73 -11q-66 0 -111 40q-46 42 -46 121q0 81 47 129q45 45 114 45q97 0 148 -79q46 -71 46 -164q0 -173 -160 -303q-87 -70 -215 -106v74zM599 -267q114 49 173 107q60 60 77 147q-48 -11 -73 -11q-66 0 -111 40 q-46 42 -46 121q0 81 47 129q45 45 114 45q97 0 148 -79q46 -71 46 -164q0 -173 -160 -303q-87 -70 -215 -106v74z" />
<glyph unicode="&#x2022;" horiz-adv-x="1365" d="M401 693q0 121 84 202q85 83 204 83q113 0 196 -83q84 -83 84 -201t-84 -201q-82 -83 -200 -83t-200 83q-84 83 -84 200z" />
<glyph unicode="&#x2026;" horiz-adv-x="1720" d="M123 140q0 69 48 116q49 48 118 48q66 0 114 -48t48 -115q0 -68 -48 -117q-48 -48 -116 -48t-116 48q-48 49 -48 116zM696 140q0 69 48 116q49 48 118 48q66 0 114 -48t48 -115q0 -68 -48 -117q-48 -48 -116 -48t-116 48q-48 49 -48 116zM1270 140q0 69 48 116 q49 48 118 48q66 0 114 -48t48 -115q0 -68 -48 -117q-48 -48 -116 -48t-116 48q-48 49 -48 116z" />
<glyph unicode="&#x202f;" horiz-adv-x="361" />
<glyph unicode="&#x2039;" horiz-adv-x="571" d="M98 580l187 403h166l-189 -403l189 -403h-166z" />
<glyph unicode="&#x203a;" horiz-adv-x="571" d="M120 177l188 403l-188 403h166l187 -403l-187 -403h-166z" />
<glyph unicode="&#x205f;" horiz-adv-x="452" />
<glyph unicode="&#x2122;" horiz-adv-x="1749" d="M2 1194v207h32q7 -22 14 -29q6 -6 26 -7h547q12 0 17 3q15 6 23 33h32v-207h-32q-6 22 -14 28q-6 5 -26 7h-186v-577q2 -17 7 -21q8 -7 32 -13v-31h-253v31q25 6 33 13q5 5 7 21v577h-187q-20 -1 -26 -7q-7 -6 -14 -28h-32zM748 1334v31h319v-32q-36 -6 -36 -21 q0 -12 13 -39l172 -355l178 355q17 36 17 41q0 14 -36 19v32h321v-31q-24 -5 -33 -13q-6 -5 -7 -21v-648q1 -16 7 -21q7 -7 32 -13v-31h-252v31q24 6 32 13q6 5 7 21v463l-274 -537l-262 536v-462q2 -16 7 -21q8 -7 33 -13v-31h-237v31q24 6 32 13q6 5 7 21v648q-1 16 -7 21 q-9 8 -33 13z" />
<glyph unicode="&#xe000;" horiz-adv-x="1120" d="M0 0v1120h1120v-1120h-1120z" />
</font>
</defs>
</svg>
