<?xml version="1.0" standalone="no"?>
<!DOCTYPE svg PUBLIC "-//W3C//DTD SVG 1.1//EN" "http://www.w3.org/Graphics/SVG/1.1/DTD/svg11.dtd" >
<svg xmlns="http://www.w3.org/2000/svg">
<metadata></metadata>
<defs>
<font id="theuerdank_frakturregular" horiz-adv-x="406" >
<font-face units-per-em="2048" ascent="1638" descent="-410" />
<missing-glyph horiz-adv-x="500" />
<glyph horiz-adv-x="2048" />
<glyph horiz-adv-x="2048" />
<glyph unicode="&#xd;" />
<glyph unicode=" " />
<glyph unicode="&#x22;" horiz-adv-x="588" d="M94 1135q0 29 64 30q69 0 69 -47q0 -12 -26.5 -109.5t-42.5 -133.5q-16 0 -25 12q2 18 -2 51q-12 51 -14 72q-2 10 -12.5 64t-10.5 61zM328 1100q0 64 39 65q-14 0 71 -8q29 -26 29 -51q0 -2 -16 -23q-18 -43 -45 -114q-4 -45 -13 -99h-31q-8 29 -22 127q-12 92 -12 103z " />
<glyph unicode="#" horiz-adv-x="1086" d="M53 375q0 6 4 19.5t4 19.5q0 12 -2 59q-4 35 0 59q0 4 5.5 15.5t5.5 17.5q0 70 18 107q8 16 111 98q6 8 16 19q12 4 33 8q4 16 34.5 49t43.5 33q14 0 131 -138h16q12 12 14 41q0 23 2 68q2 14 -2 44t-4 34q0 190 136 301q106 86 137 86q33 0 33 -19q0 -16 -35 -45 q-20 -8 -54 -32q-63 -59 -71 -131q-16 -127 -15 -115q0 -14 2 -58q2 -41 0 -71q0 -8 -5 -24.5t-5 -22.5q0 -8 4 -20.5t4 -16.5q0 -8 -2 -35t-2 -47q2 0 5 -2t10 -2q6 0 30.5 26.5t34.5 32.5q29 14 78 47q23 23 74 103l35 8q12 -10 12 -27q0 -6 -3 -21.5t-3 -21.5 q0 -18 20 -43q14 -20 29 -39q4 -20 16 -57q18 -25 47 -84q23 -84 23 -203v-28q-2 -23 -2 -31t-11.5 -24.5t-11.5 -26.5q0 -20 -4 -62q-4 -14 -45 -90q-23 -41 -33 -72q-8 -6 -17 -20t-25.5 -42t-59.5 -79q-94 -98 -183 -158l-89 -61q-27 0 -27 23q0 12 14 32q66 27 160 123 q84 88 102 129q14 14 35 39l11 33q6 10 16 33q2 14 6 39q8 14 18 45q14 66 13 194q0 37 -31 141q-4 29 -22 76q-55 92 -68 101q-6 4 -19 4q-14 0 -61 -23q-55 -25 -67.5 -49.5t-14.5 -73.5q-4 -33 0 -78q4 -53 4 -45q0 -4 6 -96q6 -100 7 -139q37 -33 86 -33q21 0 51 -8 q-20 -23 -90 -82q-6 -4 -43 -51q-27 -35 -52 -43q-2 8 1.5 32.5t3.5 28.5q0 68 -72 68q-8 0 -27.5 -12.5t-25.5 -16.5q-8 8 -7 19q0 8 11.5 28.5t13.5 28.5q2 31 20 90v440q-10 10 -24 9q-14 0 -31.5 -36t-32.5 -36q-135 127 -145 127q-20 0 -57 -80q-2 -6 -9 -72 q0 -8 -7 -24.5t-7 -24.5q0 -10 8 -24q-4 -45 -2 -134q18 -109 60 -178q6 -8 39.5 -22.5t44.5 -14.5q16 0 47 27h24q8 0 8 -14q0 -8 -108 -115q-8 -10 -37 -61q-21 -41 -49 -50q-16 4 -16 21q0 8 7 32.5t5 32.5q-6 20 -25 35q-35 27 -37 31q-76 76 -86 164q4 20 2 55 q-2 6 -5 12.5t-3 16.5z" />
<glyph unicode="$" horiz-adv-x="898" d="M-31 403q0 6 5.5 52.5t5.5 64.5q2 25 8 78q2 21 10 57q14 25 133 109q33 21 64 70q21 35 53 36q14 0 74 -77q37 -47 75 -91q4 2 11 9q4 61 4 200q-2 2 1 12.5t3 16.5q2 41 12 127q8 8 20 29q18 51 68 88q23 20 106 68t136 48q172 -1 205 -30q0 -25 -13 -72q-27 21 -47 27 q-59 18 -100 18q-90 0 -156 -45q-82 -55 -100 -158q-14 -92 -14 -79q0 -47 30 -46q31 0 168 105q18 0 28.5 -13.5t26 -61.5t15.5 -62t-31 -68q-12 -21 -57 -55q-4 -4 -74 -41q-51 -27 -57 -49q0 -14 20 -13q8 0 69.5 11.5t67.5 11.5q16 0 29 -14v-19q0 -2 -22.5 -32.5 t-32.5 -36.5q-10 12 -33 12q-70 0 -139 16q-18 -16 -17 -30q-8 -82 -8 -140q0 -6 4 -15t4 -13q0 -57 0 -56q4 -57 9 -116q18 -88 85 -87q29 0 50 11q12 6 33.5 25.5t29.5 19.5t15.5 -4t9.5 -4v-31q-135 -76 -230 -195h-20q2 27 -8 72q-31 23 -80 72q-10 12 -12 75 q-6 98 0 179q-4 20 -5 55q-2 8 7 24q-8 66 -2 111q18 131 -15 131q-23 0 -67 -72q-16 -2 -31 27q-21 39 -23 41q-70 66 -88 66q-27 0 -53 -54q-21 -43 -23 -61q0 -27 -4 -91.5t-4 -70.5q0 -72 25 -164q41 -141 117 -141q6 0 31.5 20.5t35.5 24.5q14 -14 13 -25q0 -6 -43 -51 q-59 -63 -72 -78q-20 -29 -70 -96q-31 14 -31 33q0 6 10.5 23.5t10.5 23.5t-27 33q-33 33 -43 49q-37 57 -57 119q-12 39 -21 84q-8 31 -8 73zM533 788q0 -47 2 -54t16 -21q68 25 125 84q24 27 24 47q0 18 -8 39q-14 31 -35 32q-53 0 -118 -53q-6 -35 -6 -74z" />
<glyph unicode="%" horiz-adv-x="871" d="M-25 758q0 18 12.5 48t10.5 46q31 35 45 121q18 96 39 129q10 20 33 53q107 96 135 111q49 29 135 30q12 0 107 -47q18 -10 34 -37q25 -6 17 -6q20 0 32 25q21 47 93 88q37 21 37 22q25 0 169 -75q8 0 22.5 14t18.5 16q2 0 9.5 -4t9.5 -4v-20q0 -6 -45 -56 q-55 -63 -72 -88q-8 -2 -20 -2q-29 0 -86 54q-41 41 -52 41q-33 0 -90 -60q-6 -4 -26 -8q-51 -106 -51 -105q-4 -16 -3 -77q0 -6 13.5 -183.5t13.5 -183.5q0 -35 -2 -45q0 -2 -7 -12t-7 -15q0 -20 2 -69v-72q0 -16 -8 -47q-10 -41 -11 -53q-10 -107 -43 -330q-2 -8 2 -129 q0 -49 -20 -129q2 10 2 -61q0 -25 -21 -46q-18 -2 -26 17q-10 31 -4 80q8 21 8 18v485q0 4 -6 53.5t-6 63.5q-2 41 0 113q2 84 2 115v153q0 10 -13 21q8 4 -41 4q-2 4 -8 14q8 0 15 12q35 88 110 279q2 6 16.5 25.5t14.5 25.5q0 12 -33 47q-74 82 -155 82q-29 0 -31 -2 q-78 -59 -88 -68q-39 -43 -39 -100l45 -399q0 -18 -10 -76q0 -37 -4 -107q-18 -100 -46 -301q2 -20 2 -61q-12 -39 -24 -111l-21 -342q-4 -10 -16 -24q-16 0 -16 26v566q-27 31 -17 125q4 55 -2 151q2 39 2 117q-2 6 -6 22.5t-4 24.5t9.5 34.5t11.5 35.5q-10 21 -43 14 q0 4 -2.5 14.5t-2.5 18.5z" />
<glyph unicode="&#x26;" />
<glyph unicode="'" horiz-adv-x="371" d="M94 1135q0 29 64 30q69 0 69 -47q0 -12 -26.5 -109.5t-42.5 -133.5q-16 0 -25 12q2 18 -2 51q-12 51 -14 72q-2 10 -12.5 64t-10.5 61z" />
<glyph unicode="(" />
<glyph unicode=")" />
<glyph unicode="*" />
<glyph unicode="+" horiz-adv-x="1160" d="M6 975q0 23 49 101.5t60 82.5q21 14 67 39q0 2 86 29q57 18 119 18q64 0 143 -24q10 -10 33 -25q70 -20 111 -83.5t41 -127.5q0 -86 -17 -196q-25 -45 -65 -128q-16 -18 -48 -73.5t-81 -116.5q-80 -98 -84 -102q-27 -39 -27 -56q0 -10 13 -22q88 -10 196 -88 q33 -25 49 -25q21 0 58 31q27 21 55 45q47 33 65 31q8 12 25 65v33q4 61 16 123q-4 43 -6 123q6 100 29 223q12 78 53 231q12 25 51 72q57 68 62 76q6 2 35.5 19.5t36.5 17.5q32 0 32 -25q0 -4 -35 -82q-39 -84 -47 -119q2 -27 -4 -75q-12 -31 -18 -82q-6 -39 -10 -78 q-16 -47 -35 -145q-14 -184 -13 -332q0 -47 11 -101q16 -72 18 -86q4 -37 17 -106q2 -8 14 -34t12 -34q0 -6 -16 -24q-25 -23 -27 -27q-59 -74 -125 -131q-20 -29 -69 -82q-4 2 -17 6q-6 18 -24 47q-12 12 -37 13q-18 0 -37 4t-59 8q-14 6 -44 14q-57 8 -196 8q-37 0 -44 -2 t-25.5 -17t-24.5 -15q-8 0 -15.5 3t-9.5 3v30q0 10 39 51.5t67.5 61t100.5 19.5q23 0 315 -62q8 0 7.5 3t5.5 3t29.5 -14t29.5 -14q25 0 25 65q0 39 -7 64q-8 12 -18 36q-14 88 -33 234q0 10 -16 25q-80 -64 -248 -216q-4 -12 -16 -34q-6 -8 -31 -35q-10 -6 -14 -6 q-8 8 -7 20q0 10 5.5 30.5t5.5 31.5q0 8 -2 14q-10 14 -37 37q-6 4 -60 26q-6 10 -22 25q-72 29 -125 29q-29 0 -25 2q-10 -4 -49 -41h-43q0 2 -3 12t-3 16q0 16 23 31q51 27 133 92q23 35 73 99q0 10 7 28q23 23 65 72q29 47 72 145q2 20 8 56q12 20 31 61q2 6 -8 45 q10 -6 10 8l-6 5q2 78 -2 114q-6 8 -13 29q-2 14 -10 37q-37 78 -127 119q-78 35 -170 36q-23 0 -74 -26q-63 -31 -63 -62q0 -49 84 -106l106 -66q12 -10 37 -51t25 -57q0 -8 -16.5 -45t-18.5 -49q-39 -47 -78 -91q-78 -88 -113 -88q-25 0 -26 27q0 16 18 31q10 8 19 18 q0 18 12 57q6 -12 6 -45q16 12 48 30t32 65q0 51 -70 90q-45 23 -90 47q-59 59 -63 61q-29 35 -29 68z" />
<glyph unicode="," horiz-adv-x="443" d="M59 205q33 47 91 78q41 23 42 53q0 12 -4 29q10 14 29 34q8 -37 45 -108q19 -25 115 -64q-29 -31 -146 -245q-70 -127 -141 -254q-8 0 -8 24q0 43 39 205q35 147 29 156q-33 43 -54 63q-20 14 -37 29z" />
<glyph unicode="-" horiz-adv-x="639" d="M88 627q33 53 186 159l250 164q0 -6 4.5 -27.5t4.5 -31.5q0 -45 -27 -94q-16 -31 -250 -131q-16 -6 -61 -39t-56 -33q-8 0 -27.5 15.5t-23.5 17.5zM109 391l374 307h56q-6 -21 -4 -45l4 -39q0 -41 -183 -147q-156 -92 -225 -113q-4 0 -22 37z" />
<glyph unicode="." horiz-adv-x="472" d="M78 205q33 47 92 78q41 23 41 53q0 12 -4 29q8 14 28 34q10 -37 44 -108q22 -25 118 -64q-86 -94 -151 -206q-25 2 -37 40q-16 51 -16 52q-33 43 -66 63q-43 23 -49 29z" />
<glyph unicode="/" />
<glyph unicode="0" horiz-adv-x="642" d="M61 235q0 125 95 263q98 147 198 147q55 0 107.5 -53t77.5 -125q10 -25 12 -72q2 -33 0 -76q-2 -49 -2 -43q0 14 -16 -86q0 -12 -5 -32q-59 -74 -159 -156q-49 -39 -109 -39q-43 0 -72 31q-10 23 -22 47q-18 41 -41 43q-4 29 -34 74t-30 77zM197 324q0 -63 4 -45 q104 -149 153 -148q62 0 62 139q0 18 -4 64q-2 12 -10.5 39.5t-8.5 32.5q0 10 12 24q-8 2 -40 57q-27 45 -58 45q-111 0 -102 -198z" />
<glyph unicode="1" horiz-adv-x="541" d="M49 41q0 6 56.5 68.5t66.5 95.5q6 41 20 125q-2 -6 -10 75q-2 16 13 37q-12 21 -11 35q0 12 8 19l7 6q0 4 -3 27.5t-1 31.5q-8 35 -29 105q-8 18 -26.5 24t-20.5 29q27 14 196 90q123 57 133 57q27 -1 27 -24q0 -6 -27.5 -31t-33.5 -39q-39 -76 -39 -180q0 -12 16 -43 l-10 -51q-4 -21 0 -56q8 -43 8 -57q0 -72 19 -117q6 -18 45 -45q10 -12 10 -45q-14 -20 -47 -24q-53 -8 -105 -31q-39 -16 -125 -70q-76 -47 -84 -47q-6 0 -21 4t-24 4q0 2 -4 9.5t-4 17.5z" />
<glyph unicode="2" horiz-adv-x="1057" d="M37 502q0 14 41 110q23 59 92 58q20 0 63 -5.5t64 -3.5l289 9q178 0 178 -74q0 -27 -53 -86q-55 -49 -125 -125q-10 -14 -68 -65q-51 -41 -72 -95q55 -29 218 -30q98 0 241 26q8 2 31.5 12.5t30.5 10.5q14 0 27.5 -20.5t13.5 -28.5q0 -39 -69 -120t-114 -81 q-4 0 -31.5 10t-64.5 17q-168 29 -227 30l-75 -4t-116 -4q-12 0 -40.5 -9t-35.5 -9q-10 0 -25 17t-15 30q0 8 93 95t120 97q6 8 90 127q53 72 53 98q0 51 -74 50q-150 0 -254 -27q-21 -6 -88 -33.5t-69 -27.5q-27 0 -29 51z" />
<glyph unicode="3" horiz-adv-x="1104" d="M29 821q0 29 47 54l180 96q8 0 92 -5.5t92 -5.5t12.5 -7t12.5 -7q39 0 143.5 -3t147.5 -3q8 0 114.5 10t114.5 10q31 0 55 -40q17 -33 17 -62t-58 -67q-78 -41 -157 -80q-129 -74 -129 -115q0 -31 26 -59q8 -8 187 -150q-4 -10 0 -35q6 -29 6 -32q0 -29 -39 -66 q-20 -6 -51 -18q-33 -25 -101 -78q-31 -12 -86 -41q-33 -25 -67 -51q-45 -35 -52.5 -35t-44 -3t-45.5 -3q-14 0 -81 8q-10 2 -41 33q18 25 194 110q150 72 150 141q0 18 -68 78q-76 64 -80 70q-8 14 -8 39q0 33 2 36t45 54q35 29 98 96q31 41 68 127q-10 10 -21 10l-583 -43 q-92 0 -92 37z" />
<glyph unicode="4" horiz-adv-x="975" d="M29 346q0 53 90 141q6 6 74 45q-2 8 -1 15q0 53 78 131q64 64 131 104q10 4 64 47q37 29 61 29q29 0 54 -33q0 -2 6 -6t6 -14q0 -6 -8.5 -45t-8.5 -55q0 -6 1 -41q2 -29 0 -46q-10 -18 -9 -20q0 -4 5.5 -27.5t3.5 -33.5q10 -14 51 -29q35 -12 49 -12q260 1 260 -56 q0 -25 -37 -66.5t-59 -41.5q-8 0 -91 7t-90 7q-59 0 -101 -39t-40 -96q8 -4 21 -12q2 -16 10 -43q0 -113 -14.5 -151t-75.5 -75q-39 -23 -54 -24q-43 0 -43 67q0 6 12.5 59.5t14.5 78.5q10 61 10 143q0 43 -9 54.5t-48 11.5q-8 0 -125 -9.5t-125 -9.5q-63 0 -63 45zM193 512 q-2 -6 6 -16q47 -14 133 -13q12 0 49 13.5t39 27.5q0 23 7 73t7 77q2 6 8 6q-4 2 -14 18q-8 10 -18 9q-16 0 -109 -89q-55 -53 -108 -106z" />
<glyph unicode="5" horiz-adv-x="1303" d="M2 6q4 -21 14 -47q72 -16 129 -16q8 0 40 -5.5t38 -5.5q160 0 291 70q152 84 178 201q4 18 17 63q12 37 12 45q0 14 -12 8q2 27 -21 74q-20 37 -38.5 71t-37.5 68q-33 61 -34 74q0 51 77 78q55 18 123 18q8 0 260 -28q12 0 28.5 -10.5t21.5 -10.5q76 0 102 6 q41 54 121 160q-20 21 -35 21q-166 -25 -197 -25q-8 0 -128 9.5t-128 9.5q-43 0 -63 -9q-16 -20 -49 -47q-55 -23 -181 -114q-141 -100 -141 -134q0 -14 50 -70.5t52 -80.5q12 -92 11 -105q0 -18 -8 -45q10 -35 -5 -61q-18 -12 -41 -33q-8 -27 -38 -65q-27 -16 -74 -37 q-72 -14 -105 -13q-8 0 -53 2.5t-51 2.5q-64 0 -125 -19z" />
<glyph unicode="6" horiz-adv-x="904" d="M33 182q0 33 33 80q25 37 53 74q10 25 30 74q31 64 62 90q184 139 281 186q20 10 55 10q8 0 20.5 -4t20.5 -4t68.5 9.5t68.5 9.5q18 0 72 -21q67 -26 77 -51q-6 -21 -55 -21q-8 0 -24.5 2.5t-24.5 2.5t-54 10t-54 10q-115 0 -173 -39q-80 -57 -165 -139 q-135 -129 -134 -205q0 -70 19 -102q12 -16 44 -35t44 -19q88 0 123 66q21 41 22 125q0 16 -39 69q-27 39 -57 76q6 10 16 27q102 -20 162 -92t60 -172q0 -53 -22.5 -90t-94.5 -74q-51 -25 -104 -51q-29 -4 -96.5 -28t-73.5 -24q-68 0 -119 103q-41 86 -41 147z" />
<glyph unicode="7" horiz-adv-x="945" d="M29 602q4 21 12 55q43 70 119 201q16 -29 53 -69q92 -29 262 -64q199 -43 295 -43q6 0 23.5 3t25.5 3q14 0 56.5 -14.5t46.5 -24.5q-2 -20 -21 -53q-141 -131 -217 -207q-137 -137 -209 -237q-10 -23 -22 -62q2 -27 2 -55q-4 -47 -31 -60q-203 166 -203 191q0 33 209 184 q229 164 268 223q-31 35 -49 35h-418q2 0 -64.5 -10t-105.5 -8z" />
<glyph unicode="8" horiz-adv-x="672" d="M55 281q0 68 21 100q14 20 129 119q6 6 6 30q0 23 -31 48q-47 39 -61 57q-39 55 -39 139q0 57 80 152q31 51 110 147q16 18 66 17q39 0 106 -31q55 -23 80 -41q18 -14 45 -91t27 -112q0 -61 -158 -180q-6 -16 17 -49q16 -21 32 -43q18 -31 48 -107q6 -25 2 -88q8 2 8 -14 t-35 -68.5t-43 -56.5q-14 -10 -113 -98q-57 -49 -112 -48q-29 0 -93 48q-55 43 -71 67q-21 33 -21 103zM174 342q0 12 8 -20q-2 -33 21.5 -58.5t54.5 -25.5q33 0 62.5 27.5t29.5 68.5q0 33 -15 64.5t-30 64.5h-61q-20 -33 -52 -64q-18 -16 -18 -57zM211 864 q0 -47 68.5 -120.5t117.5 -73.5q20 0 49 41.5t29 74.5q0 64 -48 109t-122 45q-20 0 -53 -22q-41 -25 -41 -54z" />
<glyph unicode="9" horiz-adv-x="754" d="M59 459q0 21 21.5 92.5t30.5 83.5q74 72 151 145q147 135 182 135q55 0 142 -100q76 -86 84 -123q16 -70 16 -160q0 -6 -7 -31.5t-9 -39.5q8 -20 0 -82q-14 -23 -41 -64q-16 -35 -60 -94q-107 -88 -155 -123q-94 -72 -146 -96q-35 -21 -69 -41q-39 -23 -74 -24 q-10 0 -35.5 9t-25.5 19q0 25 51 47q29 14 57 25q18 21 125 100q100 70 111 98q21 25 43 50q25 33 32 57q6 47 17 129q10 -6 10 8q0 8 -29 142q-33 33 -67 69q-31 29 -60 29q-45 0 -90 -31q-14 -12 -31 -72q-2 -4 -13 -22t-11 -23q0 -20 29 -71q33 -57 55 -56q8 0 46 18.5 t64 22.5q20 -4 19 -28q0 -20 -59 -56q-33 -20 -66 -39q-25 -27 -70 -79q-21 -21 -41 -21t-32 -6q-18 21 -48 64q-47 78 -47 139z" />
<glyph unicode=":" horiz-adv-x="437" d="M86 119q0 4 53 49q63 51 92 86q46 -47 146 -125q-2 -25 -22.5 -34t-37 -16t-96.5 -102q-10 16 -6 39q-10 25 -69.5 62t-59.5 41zM109 713q27 -14 55.5 -28.5t46.5 -70.5q8 -21 37 -24q8 20 63.5 77.5t55.5 61.5q0 6 -3 13l-2 6q-31 8 -75 65q-23 33 -47 66 q-33 -20 -27 -62q-14 -16 -59 -51q-33 -25 -45 -53z" />
<glyph unicode=";" horiz-adv-x="461" d="M70 141q33 47 92 80q41 23 41 51q0 12 -6 29q10 16 30 33q8 -35 45 -107q21 -24 115 -63q-29 -33 -147 -246q-68 -127 -138 -254q-10 0 -10 25q0 41 39 204q37 149 31 156q-33 43 -56 62q-18 14 -36 30zM100 713q27 -14 55.5 -28.5t45.5 -70.5q6 -21 35 -24 q10 20 66 77.5t56 61.5q0 6 -3 13l-3 6q-33 8 -75 65l-46 66q-35 -20 -30 -62q-14 -16 -58 -51q-33 -25 -43 -53z" />
<glyph unicode="&#x3c;" horiz-adv-x="672" d="M55 576q0 27 62 126q45 72 75 107q21 31 72 80q21 8 17 8q12 0 56 -25.5t83 -25.5q6 0 14 -3t15 -3q86 0 86 88q0 14 -17 55q-6 8 -20 12q-27 31 -47 31q-6 0 -31 -11.5t-33 -11.5q-16 0 -59 41v19q55 41 88 41q10 0 67.5 -32t61.5 -36q29 -55 30 -119q0 -35 -6 -49 q-16 -35 -30.5 -70.5t-55.5 -111.5q-31 -41 -32 -45q0 -16 24 -29q16 -10 31 -20q92 -76 92 -215q0 -45 -20 -94q-4 -8 -56 -84q-2 -2 -37 -29q-14 -20 -47 -53q-8 -2 -26 -10q-29 -21 -56.5 -43.5t-40.5 -47.5q-2 0 -28 -12h-17q-4 0 -10 35q-133 117 -186 133 q-14 10 -13 23q0 8 43 75q4 16 15 45q14 14 35 39q12 21 12 47v23q-111 125 -111 152zM156 662q0 -18 52 -87t62 -75q59 47 90 80q4 5 80 120q-190 68 -186 68q-31 0 -64.5 -38t-33.5 -68zM166 291q0 -16 61 -56q33 -21 64 -43q10 -12 24 -26q29 -12 62 -12q49 0 87 52 t38 101q0 33 -10 62q-21 64 -97 133q-16 16 -37 16q-10 0 -16 -4q-33 -25 -84 -72q-20 -35 -53 -94q-39 -59 -39 -57z" />
<glyph unicode="=" horiz-adv-x="639" d="M88 627q33 53 186 159l250 164q0 -6 4.5 -27.5t4.5 -31.5q0 -45 -27 -94q-16 -31 -250 -131q-16 -6 -61 -39t-56 -33q-8 0 -27.5 15.5t-23.5 17.5zM109 391l374 307h56q-6 -21 -4 -45l4 -39q0 -41 -183 -147q-156 -92 -225 -113q-4 0 -22 37z" />
<glyph unicode="&#x3e;" horiz-adv-x="771" d="M12 645q0 279 185 477q207 219 559 219l6 -124l-225 -43l-7 -998l175 -29l-15 -145q-320 -4 -508 197q-170 180 -170 446z" />
<glyph unicode="?" horiz-adv-x="697" d="M149 819q0 139 48 252q74 170 235 170q45 0 95.5 -44t50.5 -87q0 -27 -7 -63q-20 -82 -102 -142q-57 -43 -104 -55q-16 -6 -15 -19q0 -41 98.5 -146t139.5 -105q6 0 24.5 3t24.5 3q47 0 53 -33l-309 -186q-12 31 4 57q0 4 -45 55q-51 59 -65.5 78t-65.5 117 q-61 115 -60 145zM248 195q47 41 139 108q18 -12 55 -94t37 -98q0 -18 -74 -62q-43 -25 -88 -53q-27 16 -41 76.5t-28 122.5zM289 1010q0 -100 61 -99h25q66 0 121 82q47 70 47 121q0 27 -43 56.5t-68 29.5q-78 0 -115 -70q-27 -49 -28 -120z" />
<glyph unicode="@" horiz-adv-x="895" d="M53 700q0 12 41 60q23 25 47 51q43 74 64 113q12 14 28 37q16 39 44 108q10 43 34 121q8 25 29 26q31 0 31 -40q0 -2 -52 -193q-12 -14 -26 -45q-8 -47 -23 -145q31 -20 52 -19q2 0 25.5 3t37.5 1q6 0 25.5 -5t27.5 -5q14 0 19.5 4t75.5 98q55 72 79 72q21 0 21 -27 q0 -23 -30 -44t-30 -58q0 -6 48 -65q57 -68 71 -93q2 -4 2 -34q0 -53 -12 -91q-6 -16 -51 -77q-37 -53 -37 -72q0 -10 61.5 -49t73.5 -39q23 0 51 33q18 23 35 45q25 -11 25 -29q0 -2 -9 -25q-74 -41 -75 -92q0 -8 11 -29.5t15 -31.5q29 -94 29 -144q0 -6 -5 -28.5t-5 -30.5 q-4 -33 2 -84q-20 -31 -27 -78q0 -27 -12 -73q-88 -188 -172 -187q-63 0 -103 98q-29 70 -30 117q0 203 73 303q10 14 56 64q39 43 39 49q0 31 -49 55q-41 20 -64 19q-55 0 -123 -94q-49 -47 -131 -146q-8 -20 -37 -63h-20q-2 16 0 32q6 20 6 21q0 18 -8 33q-14 10 -33 30 q-33 31 -59 76v41l-11 96q2 8 8 21q2 23 -8 35l6 8q-6 23 0 86q6 80 21 244q-12 18 -31 16q-33 -2 -35 0q-6 6 -6 20zM219 291q0 -55 8 -68q41 -74 86 -74q21 0 66 41q4 8 10 21q43 39 113 108q23 41 65 105q27 41 27 70q0 47 -25 94q-10 21 -39 49q-35 33 -41 41 q-4 18 -14 45h-35q-43 -61 -84 -61q-6 0 -38.5 11t-40.5 11q-35 0 -39 -23q-2 -33 -3 -90q0 -84 -6 -252q0 -4 -5 -13t-5 -15zM498 -201q0 -45 20 -106q23 -76 58 -76q43 0 92 64q4 21 18 67q10 16 18 41q2 27 13.5 86.5t11.5 63.5q0 43 -27 124q-10 31 -55 64 q-45 -31 -106 -143q-8 -14 -25.5 -92t-17.5 -93z" />
<glyph unicode="A" horiz-adv-x="1160" d="M43 975q0 57 37 166q0 16 10 45q14 21 55 53q10 14 32 33.5t75 52.5q20 10 61 16q10 0 27.5 6.5t22.5 6.5q164 0 271 -101.5t107 -263.5q0 -35 -37 -207q-18 -80 -75 -141q-14 -25 -47 -78q-14 -6 -37 -20q-8 -10 -19 -31l-72 -39q-71 -39 -71 -53q0 -18 43 -57 q27 -23 55 -48q14 -16 27.5 -35.5t26.5 -19.5q8 0 106 74q10 14 29 35q37 14 77 26q47 20 54 47q2 14 -4 43q-8 39 -8 52q2 -18 12 55q-2 -8 -8 45q-2 8 8 68q-2 -16 -2 34q0 2 2 11.5t2 15.5q6 51 12 151q6 6 14 17q2 47 11 131q2 10 8 31q-1 10 -1 27t1 40q6 29 26.5 41 t40 25.5t91.5 97.5q8 2 26 12q6 4 19.5 21.5t21.5 17.5q31 -1 31 -26q0 -23 -14 -47q-12 -8 -27.5 -29t-24.5 -47q-36 -107 -36 -167q0 -9 1 -17q0 -6 -7 -19.5t-7 -19.5q-4 -64 -12 -123q0 -37 -8 -111v-246q10 -39 28 -123q4 -49 25 -139q4 -12 43 -18q33 -6 33 -37 q0 -18 -19.5 -33.5t-89.5 -85.5q-59 -59 -67 -59h-29q-12 12 -10 35q2 31 2 34q-16 43 -43 129q-4 37 -8 72q-12 64 -41 64q-14 0 -84 -48q-61 -43 -80 -63q-10 -21 -35 -53q-25 -12 -76 -52q-18 -31 -35 -63q-35 -61 -51 -61q-18 0 -22 17t-7 36q-39 109 -129 190 q-8 16 -28 35q-25 12 -78 33q-10 4 -51 3h-4q-38 0 -58 17v27q14 12 41 25q47 14 74 14h37q8 0 39 14q20 10 39 17q16 2 45 10q21 8 88 49q16 20 53 53q45 29 57 51q6 10 15 50q14 27 39 90q8 21 8 75q0 4 -6 68t-8 96q-2 72 -50.5 134.5t-117.5 89.5q-35 12 -136 12 q-21 0 -84 -35q-12 -4 -61 -74q-6 -10 -6 -30q0 -27 6 -44.5t43 -37.5q29 -17 66 -17h4q8 0 11 2t9 2q35 0 88 -30q16 -8 40 -54.5t24 -74.5q0 -47 -25 -107q-27 -66 -61 -86q-8 -12 -27 -31q-37 -23 -68 -24h-73q-6 0 -29 6t-33 6q-10 10 -26 21v22q14 23 39 23 q8 0 50 -8.5t48 -8.5q21 0 65.5 35t44.5 62q0 12 -14 37.5t-29 31.5q-64 29 -82 29q-8 0 -8 -2q0 -4 -6 -4q-33 0 -84 41q-18 25 -49 73q-2 8 -2 21z" />
<glyph unicode="B" horiz-adv-x="1432" d="M31 963q0 39 32 167q4 8 9 23q31 37 100 100q29 18 107 43l34 17q31 2 84 10q4 2 13.5 9t17.5 7t38 -9t38 -9q6 0 12 3t14 3t66.5 -27.5t91.5 -47t47 -38.5q6 -6 35 -63q23 -45 53 -64q31 31 107 105q29 39 59 78q57 68 82 69q30 0 30 -41q0 -17 -5 -41q14 -35 82 -65 q82 -37 107.5 -63.5t25.5 -49.5q0 -74 -10 -96q-23 -51 -89 -108q-49 -41 -96 -82q0 -6 15 -17q33 -12 79 -45q25 -14 64 -47q27 -37 69 -115q23 -69 23 -139v1q-2 0 -31 -157q-33 -66 -112 -135q-21 -20 -105 -67t-93 -47t-71.5 -5.5t-70.5 -5.5q-76 0 -168 25 q-51 12 -96 39q-16 12 -54 39q-10 12 -35 35q-57 43 -178 118q-25 13 -69 13h-6q-23 0 -62 -13.5t-47 -40.5q-2 -6 -4 -59q-2 -16 -6 -27h-35q-29 41 -29 62q0 14 22.5 59t33.5 55q23 20 120 56h10q42 0 117 14q16 8 33.5 32.5t26.5 31.5q135 102 198 235q4 20 9 60 q0 6 7 18t7 16q0 16 4 50t4 40q0 33 -20 105q-10 37 -45 94q-14 14 -38 40t-69 63q-10 0 -27 4q-8 2 -26.5 14t-26.5 12q-6 0 -8 -2q0 -4 -6 -4t-21.5 9.5t-23.5 11.5t-47 2q-8 0 -19.5 -4.5t-17.5 -4.5q-61 -10 -121 -47q-76 -51 -76 -114q0 -43 36 -84t79 -52 q21 -2 65.5 -10t85.5 -60t41 -87q0 -57 -38.5 -118.5t-81.5 -76.5q-23 0 -66 -8q-51 -16 -94 -16q-37 0 -66 32q23 41 47 41q6 0 27 -8t29 -8q6 0 21.5 3t21.5 3q14 0 54 16.5t51 29.5t11 40q0 25 -88 60q-104 41 -112 51q-18 14 -66 94q-20 29 -20 70zM467 385 q10 -14 49 -27q23 -8 49 -16q4 -8 15 -18q29 -20 79 -54q14 -18 41 -47q6 -4 64 -55q37 -33 103.5 -56.5t107.5 -23.5q37 0 88 18q21 14 57 35q8 4 21 9q86 98 86 186q0 6 -6 51q-8 53 -9 72q-2 12 -20 45q-16 27 -10 45q-16 4 -42 31.5t-38 35.5q-39 23 -117 56 q-72 12 -96 12q-55 0 -86 -18q-115 -72 -205 -162q-51 -39 -131 -119zM819 737l13 -14q41 6 120 33q35 12 119 69q117 77 117 136q0 45 -53 73q-20 6 -48 15q-8 12 -30 30q-12 4 -31 13q-23 23 -63 67q-31 -10 -74 -57t-64 -55v-35q0 -8 5.5 -14.5t5.5 -8.5v4q1 0 4 -84v-14 q0 -34 -8 -57q-2 -35 -13 -101z" />
<glyph unicode="C" horiz-adv-x="1074" d="M4 704q0 8 9.5 36t9.5 46.5t22 65.5q23 59 30 71.5t23 34.5q59 96 176 181q53 25 150 75q12 0 33 3l18 12q33 2 101 16q12 12 44.5 30.5t100.5 49.5q25 8 72 8t129 -45q49 -31 98 -61q18 -2 35 -4q33 -4 33 -25q0 2 -72 -84q-76 -92 -103 -137q-12 -20 -36 -19 q-23 0 -23 25q0 8 24.5 47t24.5 45q0 16 -31 64q-21 12 -70.5 47t-82.5 35q-6 0 -14.5 -2.5t-16.5 -2.5q-6 0 -14 5.5t-13 5.5q-20 0 -49 -19q-53 -31 -96 -100q-41 -61 -41 -111q0 -10 2 -20q-10 -14 -10 -21l43 -118q47 -129 47 -201q0 -39 -66 -152q-6 -25 -27.5 -69.5 t-74.5 -124.5q45 -35 133 -92q35 -17 100 -17h7q41 0 32 4q39 -16 46 -16q57 0 110 14q64 16 103 43q2 2 49 56q41 49 55 49q25 0 25 -29q0 -35 -140 -145q-49 -35 -147 -109q-8 0 -21 -2q-55 -33 -114 -33q-66 0 -275 80q-10 12 -33 31q-23 10 -69 37q-8 12 -23 31 q-86 86 -137 174q-39 66 -51 129q-12 55 -25 153q0 6 -5 27.5t-5 27.5zM166 766q0 -68 8 -141q6 -64 47 -129q16 -35 51 -90q21 -29 42.5 -56.5t45.5 -27.5q8 0 11.5 3t5.5 3q-2 23 18 57q25 41 25 47q14 55 14 82q0 20 -10 51q-10 18 -21 45q-16 53 -30 105q-23 82 -23 121 q0 20 8 69q10 14 21 39q2 12 6 27q12 25 33 67q33 46 94 138h-29h-3q-37 0 -117 -46q-88 -53 -115 -105q-28 -52 -52 -100q-23 -44 -22 -81v-6q0 -12 -4 -40t-4 -32z" />
<glyph unicode="D" horiz-adv-x="1430" d="M47 129q0 18 68 63q29 12 84 41q16 21 57 52q39 6 111 32q14 10 149 172q2 12 8 33q8 8 19 27q2 6 2 24q0 43 -31 101q-16 33 -65 98q-45 57 -44 64q0 16 17 34q33 39 37 43q20 29 57 84q68 94 68 115q0 20 -19 19q-39 0 -92 -13.5t-41 -13.5q-6 0 -9 3t-11 3 q-6 0 -18.5 -11t-18.5 -11q-72 -11 -72 -13h2h2q-6 0 -76.5 -5t-76.5 -5q-23 0 -41 29q-16 23 -15 37v-1q4 0 74 199q19 15 33 15h2q8 0 15 -2.5t9 -2.5q2 -6 2 -14q0 -10 -6 -29.5t-6 -27.5q0 -20 31 -19q6 0 29.5 -3t31.5 -3q14 0 205 49q25 6 141 15l11 4q10 4 18 4 q117 0 250 -23q10 -2 102 -47q12 -2 33 -10q66 -37 88.5 -65.5t67.5 -82.5q16 -33 49 -90q18 -25 39 -86q6 -29 18 -88q8 -51 8 -127q0 -2 -2 -32l-18 -117q-6 -35 -49 -135q-51 -113 -211 -228q-4 -2 -102 -49q-18 -8 -39 -35q-8 0 -21.5 -6t-60.5 -45q-39 -35 -47 -35 q-6 0 -46 17.5t-45 17.5q-8 0 -6 -3t-6 -3t-25.5 11.5t-23.5 13.5q-23 6 -78 26q-27 18 -84 47q-117 47 -223 47q-6 0 -55 -14q-29 -8 -64 -39q-23 -21 -47 -41h-26q0 2 -9 17q-8 10 -8 18zM455 322q4 -33 39 -23l340 -129q51 12 88 12q10 0 61 20.5t80 39t65 53.5 q14 23 37 55q51 43 88 141q35 92 35 158q0 84 -20 156q-4 6 -13 18q-12 51 -32.5 76t-51.5 64q-12 21 -108 102q-66 57 -203 82q-20 2 -106 2q-14 0 -38 5t-28 5q-49 0 -59 -18q-68 -150 -68 -191q0 -35 21.5 -60.5t44.5 -53.5q43 -61 49 -88q20 -72 20 -103q0 4 -59 -117 q-14 -31 -68 -65q-12 -33 -67 -72q-47 -33 -47 -69z" />
<glyph unicode="E" horiz-adv-x="1018" d="M35 682q0 147 24 207q53 137 172 229q27 23 84 62q57 27 143.5 64.5t98.5 37.5q6 0 6 -3t8 -3q4 0 63.5 31.5t70.5 31.5q6 0 90 -42t90 -42t27.5 10.5t31.5 10.5q29 0 29 -27q0 -21 -23 -37q-16 -2 -45 -14q-59 -41 -114 -94q-29 27 -91 76q-25 18 -125 41 q-25 -37 -51 -74t-26 -66q0 -35 43 -131q47 -104 80 -104q25 0 69.5 45t61.5 45q-10 0 215 -86q-39 -49 -107 -131q-2 -1 -6 -1q-23 0 -82 50q-16 14 -61 31q-6 4 -80 4q0 -2 -2 -6t-2 -11q0 -6 14 -27.5t18 -31.5q18 -72 17 -78q0 -8 -12 -41q-14 -39 -17 -55 q-164 -158 -268 -193q-8 -6 -21 -18q18 -25 54 -65q51 -35 157 -99q82 -41 158 -41q49 0 141 29q14 12 37 27.5t60 27.5q18 -20 18 -26q0 -23 -76 -74q-61 -41 -94 -55q-131 -52 -157 -52h-1q-8 0 -13 3t-12 3t-35 5.5t-32 5.5q-86 0 -131 28q-55 39 -112 80 q-51 33 -107 107q-41 59 -82 117q-25 35 -70 172q-25 78 -26 147zM168 827q0 -72 8 -123q12 -39 33 -106q12 -41 53 -119q53 -96 80 -96q21 0 68 35q35 25 69 51q43 33 56 66q2 7 2 38q0 35 -5 48q-12 31 -26 63q-4 2 -14 10q-41 66 -111 201q-12 31 -12 59q0 96 127 213 q16 18 41 47h-35h-2q-14 0 -70 -28q-60 -30 -98 -56q-27 -20 -60 -61q-21 -23 -51 -63q-8 -23 -22 -60q-10 -12 -20.5 -35.5t-10.5 -83.5z" />
<glyph unicode="F" horiz-adv-x="1012" d="M16 1022q0 8 5.5 21.5t5.5 19.5q8 51 36 90q125 180 343 180q45 0 137 -33q64 -23 129 -47q6 -2 39 -16q25 -10 32 -10t51 -3t50 -3q4 0 26.5 14t30.5 14q6 0 5 -3t7 -3q10 0 37 23q14 14 27 28h26q0 -2 3.5 -8t3.5 -14q0 -37 -67.5 -111t-98.5 -74q-96 0 -129 7 q-2 0 -47 14q-29 10 -45 8q-23 -31 -37 -67q-41 -107 -41 -154q0 -2 9 -44t7 -62q10 -20 27 -50q2 -10 4 -34q8 -8 20 -23q2 -21 19 -64q25 -61 47 -61q21 0 123 127q2 10 10 27q51 63 66 63q25 0 36 -24q53 -135 52 -134q0 -16 -45 -57q-23 -21 -46 -41q-39 37 -55 101 q-8 10 -20 10q-16 0 -29.5 -22.5t-24.5 -43.5q-14 -10 -36 -33q-12 -20 -11 -28q0 -2 45 -70q49 -76 64 -112q2 -18 8 -50q10 -12 19 -34q14 -74 14 -144q0 -35 -53 -209q-14 -20 -41 -63q-2 -14 -9 -33q-157 -159 -277 -159q-10 0 -19 1l-11 -12q-6 6 -24 6h-29 q-113 0 -205 80q-98 82 -98 188q0 76 35 127q23 31 67 66q64 53 107 53h-1q0 -3 132 -41q12 -4 23.5 -24.5t11.5 -34.5q0 -20 -28 -52t-40 -32q-2 0 -64.5 39t-80.5 39q-25 0 -62 -13q-33 -45 -38 -57t-5 -45q0 -199 215 -238q4 -2 15.5 -9t21.5 -7h25q12 0 26 10 q115 16 167.5 59.5t92.5 119.5q10 21 9.5 37t3.5 49.5t4 37.5q0 45 -14 109q-14 33 -33 100q-6 35 -41 99q-2 16 -10 41q-14 37 -41 38q-21 0 -35.5 -39.5t-38.5 -39.5q-8 0 -13.5 3t-7.5 3v24q0 14 29 50q4 4 23.5 21t19.5 24q0 20 -47 127q-43 100 -43 227q0 70 2 81 t8 28.5t6 37t31 88.5q10 21 43 68q27 39 27 47q0 18 -31 29q-20 8 -39 14q-41 27 -55 33q-33 18 -60 20h-108q-4 0 -14.5 4t-18.5 4q-41 0 -82 -24q-80 -49 -98 -104q-12 -39 -12 -85q0 -39 22 -88q27 -63 72 -63q23 0 43 19.5t37 37.5h20q12 -14 12 -30q0 -20 -39.5 -51 t-54.5 -31q-59 0 -94 31.5t-55 82.5q-13 38 -13 102v9z" />
<glyph unicode="G" horiz-adv-x="1371" d="M57.5 694.5q6.5 24.5 6.5 38.5q0 86 18 150q8 35 61 127q8 14 101 118q20 23 67 62q35 23 100.5 52.5t75.5 29.5q8 0 15.5 -3t15.5 -3q6 0 23.5 6t28 6t38 2t33.5 2t24.5 -8t26.5 -8q20 0 109 78h31q12 -14 12 -23q0 -20 -31 -41q-23 -14 -47 -29v-32q14 -6 39 -17 q39 -29 39 -115q0 -12 -4 -53q0 -23 -25 -35h-20q1 22 1 43q0 43 -3 82q-2 12 -19 39q-25 35 -55 35q-23 0 -53 -65q-23 -55 -23 -72q0 -23 19 -64q29 -55 90 -174q16 -29 36 -96q0 -23 11 -70h14q20 16 55 45q33 39 101 119q14 8 32 25q25 33 51.5 70.5t26.5 60.5 q0 47 -55 84q-10 12 -43 39q0 10 -7 39.5t-7 36.5q0 45 32 73q88 78 117 78q18 0 41 -24q-4 -20 -43 -38t-39 -53q0 -18 25 -30q96 -41 96 -115q0 -29 -16 -55q-20 -35 -41 -68q-31 -35 -88 -100q18 -6 59 -13q55 -6 102 -43q16 -12 56.5 -75.5t40.5 -75.5v-156q0 -4 -9 -18 q1 -5 1 -10q0 -46 -46 -119q-4 -16 -16 -39q-37 -49 -111 -133q-57 -51 -106 -74q-127 -57 -158 -57q-6 0 -139 3t-140 3t-40 13.5t-45 17.5q-72 20 -156 76.5t-133 123.5q-39 43 -100 138q-21 53 -41 155q-19 82 -19 101q0 8 6.5 32.5zM209 729q0 -8 4 -16t4 -9 q4 -20 -6 -61q12 -20 29 -57q6 -33 22 -90q29 -51 76 -138q25 -35 68 -90q18 -20 49 -51q16 -6 39 -20q35 -37 100 -60q59 -23 104 -24q20 0 66.5 -10.5t50.5 -10.5q55 0 118.5 18.5t94.5 39.5q70 47 100 94q41 68 52 118q12 43 12 125q0 61 -25 113q-18 37 -80 64 q-55 25 -100 26q-66 0 -127 -47q-59 -55 -119 -110q-18 -16 -41 -54q-27 -45 -43 -63q-16 -27 -34 -53q-30 -46 -42 -46h-1q-31 0 -31 33q0 8 33 45q37 45 47 62q49 80 49 129q0 21 -14 47q-10 18 -19 33q-29 64 -82 184q-2 6 -10 15t-8 13.5t-2 18.5v20q0 61 17.5 120 t88.5 159q0 8 -3 14.5t-3 8.5q-14 4 -35 4q-121 0 -192 -45q-41 -23 -99 -84q-31 -31 -59.5 -99.5t-42.5 -126.5q2 -16 2 -39q-2 -6 -8 -12v-88z" />
<glyph unicode="H" horiz-adv-x="1061" d="M53 184q10 27 54.5 57.5t60.5 55.5q31 57 31 172q0 35 -4 121q-3 53 -3 92q0 19 1 35q2 2 8 10q-11 65 -11 132v11q0 127 31 226q16 20 41 57q4 10 12 27q23 31 96.5 79t125.5 60q82 20 137 20q37 0 137 -38q25 -8 51 -27q2 0 8.5 -12.5t14.5 -12.5h31q14 0 67 39 q2 0 10 -3t8.5 -4t3.5 -9t3 -15q0 -16 -39 -45q-27 -12 -72 -38q-14 -10 -74 -70q-16 8 -26.5 30.5t-20.5 28.5q-146 103 -210 103h-1q-59 0 -102 -31q-55 -37 -64 -107q-2 -4 -9 -16t-7 -20q0 4 4 -108t4 -157q-1 -50 -1 -76.5t1 -29.5q2 -25 21 -25q6 0 12 4 q37 47 113 121q20 10 53 31l43 53q29 37 47 37q21 0 54.5 -13.5t99.5 -51.5q31 -21 88 -76q57 -80 77 -174q7 -33 7 -82v-13q0 -20 7 -64t7 -48q0 -6 -9 -49t-10 -64q1 -14 1 -37.5t-1 -56.5q-4 -76 -16 -123q-2 -4 -33 -84q-14 -45 -45 -129q-25 -63 -100.5 -128.5 t-124.5 -76.5q-8 -6 -25 -20q-25 -14 -63 -15q-98 -8 -133 -8q-16 0 -58 8q-12 8 -34 17q-72 21 -126.5 76t-54.5 120q0 136 119 136h2q27 0 58 -11q39 -16 39 -39q0 2 -50 -83q-8 -6 -20 -5q-6 0 -13.5 1.5t-13.5 1.5q-31 0 -32 -58q0 -29 49 -67q41 -31 61 -35 q114 -15 114 -17h-1h-2q68 0 155 35q18 6 41 33t43 53q70 76 86 144v34q33 266 33 273q0 18 7 62t7 48q0 6 -10 17q1 17 1 34q0 239 -109 338q-16 16 -59.5 36t-65.5 20q-45 0 -92 -37q-27 -27 -54 -55q-33 -18 -80 -62q-2 -64 -20 -190q-18 -25 -39 -66q-2 -4 -35 -29 q-23 -20 -24 -36q0 -16 34 -29q21 -10 41 -18q33 -27 101 -74q37 -18 47 -17q25 0 57 37q14 20 27 41q14 12 26 11q25 0 25 -29q0 -21 -51 -66q-31 -25 -62.5 -51.5t-44.5 -64.5q-8 -18 -30 -17q-6 0 -82 53q-88 61 -121 78q-14 8 -51 8q-8 0 -30 -9t-28 -9h-36z" />
<glyph unicode="I" horiz-adv-x="730" d="M-6 303v26.5v28.5q0 14 33.5 67.5t52.5 53.5q25 0 112 -74q2 -10 7 -28q-35 -16 -93 -66q-18 -25 -18 -82q0 -25 18 -82q6 -14 58 -34q6 -2 25.5 -16.5t29.5 -14.5q94 0 150 29q21 10 75 65q6 4 37 76q16 35 15 33v-1q-4 0 -70 201q-6 20 -23 101q-14 57 -14 39 q0 72 -2 107.5t-2 29.5q0 8 17.5 60t27.5 67q63 107 133 201q0 4 -2 8q-37 21 -63 22q-6 0 -14.5 -3t-16.5 -3q-6 0 -19.5 8.5t-21.5 8.5q-6 0 -8 -1q0 -4 -6 -4h3q0 2 -112 17q-18 4 -70.5 26.5t-58.5 22.5l-68 -37q-4 -18 -6 -16q-21 -16 -37 -66q-14 -43 -14 -72 q0 -49 37 -106q12 -23 57 -70q21 -6 43 -14q37 -16 37 -43q0 -8 -4 -16.5t-6 -9.5t-12.5 -4t-16.5 -3q-18 0 -82 60q-59 55 -69 71q-21 35 -27 66q-12 66 -12 102q0 20 39 140q4 12 112.5 91t131.5 79q6 0 42.5 -32t57.5 -40q45 -17 119 -17h8h115q27 0 73 33l45 33 q10 0 21.5 -10.5t11.5 -18.5q0 -14 -80 -88q-45 -43 -81 -114.5t-42 -122.5q4 -4 9 -13l-3 -12q-6 6 -12 6q-25 -70 -26 -180q0 -68 6 -96q2 -6 11 -20.5t9 -20.5q0 -35 -2 -43q10 -16 51 -107q49 -106 49 -129q0 -16 -36 -84q-29 -59 -41 -75q-51 -70 -103 -105 q-92 -57 -198 -57q-41 0 -89 16q-12 -2 -32.5 3t-53 25.5t-77.5 69.5q-35 74 -35 158z" />
<glyph unicode="J" horiz-adv-x="1022" d="M39 973q0 64 14 112q4 14 39 74q16 25 90 82q33 25 103 60q86 43 125 43q41 0 210 -53.5t226 -53.5q6 0 49 22.5t49 22.5q29 -1 29 -22t-55 -82q-8 -4 -25 -17q-25 -33 -31 -55q-23 -100 -24 -152q0 2 12 -131q18 -82 53 -247q41 -193 41 -269q0 -4 -7 -35.5t-9 -48.5 v-12q0 -48 -13 -127q-149 -365 -448 -365q-6 0 -38 2.5t-40 2.5h-24q-4 0 -50 18q-86 33 -128 66.5t-83 102t-57 122.5q-2 6 -2 51q0 49 10 111q6 53 31 102q14 14 27 45q29 23 79 61q10 8 68 21q66 16 70 16q59 0 121 -35q74 -39 75 -94q0 -33 -57 -145h-25q-20 35 -59 102 q-8 10 -49 37t-53 27q-57 0 -105 -29q-61 -37 -63 -102q0 -10 -6.5 -36t-6.5 -34v2q1 0 7 -82q8 -72 65 -143q27 -35 94 -76q78 -53 154 -53q6 0 41 -3t43 -3q10 0 58 17t70.5 31.5t63.5 53.5q4 8 13 25q14 8 32 24q21 35 41 111q15 64 15 107v5q0 39 -41 293 q-14 41 -35 107q-27 102 -37 196q-4 35 -4 64q0 197 96 328q-16 23 -39 24q-8 0 -17 -7t-15 -9q-41 -6 -56 -6h-78q-6 0 -29.5 9t-33.5 11q-29 8 -127 27q-113 20 -129 20q-14 0 -58 -28.5t-49 -36.5q-18 -27 -22 -45q-2 -6 -2 -23q0 -64 13.5 -82t70.5 -67q51 -41 51 -47 q0 -12 -42 -50.5t-54 -38.5q-43 0 -86 80q-37 68 -37 107z" />
<glyph unicode="K" horiz-adv-x="1049" d="M43 139l20 35q14 21 39 66q43 107 43 176q0 96 -24 96q-10 0 -58 -18q-2 2 -2 38q47 12 56 21q4 6 4 31q0 6 -10.5 106.5t-10.5 108.5q0 18 17 143q18 10 20 25q2 23 13 67q14 12 32 33q20 61 76 109q51 45 105 63q20 12 59 29.5t82 23.5q68 8 151 8q10 0 23 -12 q109 -2 223 -98q55 -47 73.5 -110t18.5 -122q0 -29 -14 -110q-14 -25 -39 -78q-10 -27 -65.5 -53.5t-85.5 -26.5q-31 0 -56.5 26.5t-25.5 45.5q0 12 10 25.5t20 13.5q29 0 68 -25.5t45 -25.5q12 0 39.5 30.5t28.5 40.5q2 21 10 62q14 57 14 49q0 16 -12 63q-14 55 -27 76 q-45 63 -127 103q-18 10 -72 22q-53 12 -81 12h-7q-4 -2 -18 3t-22 5q-6 0 -46.5 -20t-46.5 -20q-8 0 -7 3t-5 3q-8 0 -12 -9q-25 -2 -43 -16q-41 -29 -107 -119q-12 -4 -16 -16q-37 -141 -37 -168q0 -16 14 -29q90 51 136 99q14 12 55 73q31 45 65 62q10 -8 13 -8v-68 q-2 -20 28 -41q37 -29 39 -29q8 -18 8 -65q0 -51 -8 -62q-47 -59 -155 -127q0 -6 8 -9t24.5 -7t22.5 -4q8 0 16 3t15 3q10 0 81 -29q39 -18 68 -49q12 -16 43 -75q-4 -12 0 -33q10 -39 37 -117q61 -160 108 -160q6 0 5.5 -3t7.5 -3q23 0 32 33t33 33q20 -18 19 -25 q0 -6 -54 -86q-64 -96 -88 -133q-109 8 -210 297q-4 43 -19 123q-10 21 -27 67q-8 8 -20 21q-57 111 -172 112q-33 0 -70 -14q-12 -18 -12 -35q-2 -49 -18 -139q-10 -31 -68 -117q-76 -115 -143 -198h-21q0 2 -3 9t-3 15zM70 21q0 25 57 79l74 66q20 23 61 69q18 14 58 13 q33 0 101 -47t85 -47q27 0 37 14q18 25 26 29q15 -9 15 -15q0 -10 -129 -190q-45 39 -131 98q-63 29 -80 29q-45 0 -84 -49q-53 -68 -70 -78q-20 16 -20 29zM268 784q0 -2 11 -75q0 -23 2 -45q2 -33 22 -41q53 27 105 55q59 39 59 96q0 20 -14 49q-20 41 -52 41 q-25 0 -73 -35q-61 -45 -60 -45z" />
<glyph unicode="L" horiz-adv-x="1000" d="M31 117q0 25 14 35q57 45 127 83q31 18 111 31q14 16 47 68q41 66 41 88q0 21 -19 113q-8 12 -18 40q-2 16 -4 50q-4 8 -10.5 22t-51.5 156q-29 88 -28 129q2 16 -2.5 51t-4.5 39l13 29q2 14 10 34q8 8 51 62q16 8 43 24q29 25 84 64q25 14 94.5 39.5t94.5 25.5 q66 0 104.5 -26.5t75.5 -53t65 -83.5q23 -49 23 -78t-33 -99q-10 -20 -27 -61q-23 -82 -24 -104q0 -25 2 -30t13.5 -27.5t11.5 -30.5q0 -10 -11 -23h-20q-8 14 -25 41q-27 33 -53 66q-35 47 -35 69q0 29 8 51q2 8 35 88q17 43 17 73q0 11 -2 40t-3 39q-2 2 -41 43 q-45 49 -139 49q-37 0 -61 -18q-66 -53 -94 -82q-2 -14 -13 -45q-4 -2 -12 -11.5t-8 -42.5q0 -78 24 -161q8 -14 21 -45q2 0 4 -33q0 -2 34 -94.5t34 -118.5q0 -4 -7.5 -42t-9.5 -56l-112 -209q10 -25 51 -35q55 -12 69 -21q133 -90 203 -108q49 -12 74 -12q8 0 29.5 14 t29.5 18q51 21 92 84q6 12 7 27q0 8 12 8q31 0 31 -39q0 -18 -42 -63t-124 -125q-8 -4 -60 -23q-45 -18 -52 -18t-21.5 -3t-20.5 -3t-52 19.5t-134 60.5q-21 18 -66 47q-106 45 -190 45q-41 0 -74 -19.5t-64 -40.5h-26q0 2 -3 6.5t-3 12.5z" />
<glyph unicode="M" horiz-adv-x="1807" d="M47 1042q0 43 2 48q16 55 29 73q35 49 78 72q76 41 112 41q8 0 11.5 -3t11.5 -3q6 0 23.5 10t27.5 12t41 2q78 0 184 -71q31 -21 109 -125q12 20 33 49q121 141 168 141l12 -6q6 0 18.5 6t20.5 6q86 0 141 -63q27 -31 46.5 -79t35.5 -60q37 47 121 131q39 31 141 63 q25 8 45 8q29 0 96 -49q20 -20 50 -65q10 -35 38 -101q12 -18 33 -55q2 -4 34 -27.5t32 -35.5q-68 -64 -178 -191q-8 -25 -27 -78q-16 -41 -16 -117q0 -8 -2 -36v-37q0 -2 -3.5 -9.5t-3.5 -15.5q0 -68 35 -147q14 -12 31 -45q6 -25 25 -52q23 -35 45 -36q6 0 34.5 18 t36.5 18q27 -1 27 -30q0 -12 -53 -51q-33 -21 -64 -45q-20 -20 -53 -62q-25 -37 -72 -65q-6 6 -20 6q1 22 1 38q0 32 -3 42q-39 80 -101 241q-8 39 -26 117q0 72 -3 106.5t-3 28.5q0 12 15 63.5t26.5 75t74.5 97.5q21 27 66 53q37 23 76 47v16q-21 12 -58 45q-27 29 -45 76 q-27 78 -45 101q-31 43 -90 43q-55 0 -94 -27q-14 -10 -101 -90q-2 -20 -12 -55q14 -104 13 -99q1 -16 1 -39.5t-1 -56.5q-10 -72 -39 -178q-2 -8 -52 -90q-2 -6 -4 -17q-23 -14 -39 -51q-21 -47 -24 -51q-10 -4 -31 -17q-23 -33 -76 -98q2 -14 29 -28q18 -8 35 -17l59 -59 q51 -49 74 -49q29 0 55 24q33 33 39 37q8 0 31 -23q0 2 -8 -20q-29 -23 -82 -65q-43 -35 -105 -121h-32q-68 125 -168 176q-41 12 -107 49q0 16 14 24q45 27 144 113q6 16 24 45q59 68 101 195q20 53 20 172q0 6 -4 34.5t-4 37.5q-6 193 -59 260q-4 14 -13 36 q-20 23 -44.5 40.5t-69.5 17.5q-41 0 -91.5 -64.5t-50.5 -97.5q0 -6 6.5 -20.5t8.5 -20.5q6 -61 6 -90q0 -104 -35 -207q-37 -109 -106 -195q-35 -41 -97 -96q-82 -74 -102 -94q150 -131 180 -131q18 0 53 33t45 33q20 -18 19 -21q0 -14 -43 -59q-25 -25 -53 -52l-80 -112 h-41q-25 125 -178 182q-33 12 -117 16q-2 6 -13 15v31q18 14 70 28q39 12 55 43q63 29 129 88q76 66 101 125q35 84 45 135l10 15q14 80 14 151q0 78 -41 221q-14 18 -41 50q-72 123 -194 124q-61 0 -133 -36q-4 -2 -23 -31q-37 -51 -37 -70q0 -45 31 -69q20 -16 84 -37 q49 -18 70 -31q41 -23 69 -68q13 -21 13 -61v-6q0 -27 -17 -86q-6 -14 -57 -62q-29 -25 -123 -49q-37 -10 -25 -10q-14 0 -52 15.5t-48 25.5q8 37 33 37q6 0 38 -8t40 -8q63 0 84 12q16 8 29.5 33.5t13.5 35.5q0 47 -86 72q-25 12 -74 33q-29 10 -64 84q-16 33 -16 110z" />
<glyph unicode="N" horiz-adv-x="1389" d="M39 1028q0 152 135 221q100 51 244 51q14 0 73 -28q31 -12 87 -37q27 -18 67 -59q8 -20 16 -39q14 -33 35 -33q23 0 45 31q12 18 21 36q31 39 65.5 65t90.5 50q29 14 69 14q16 0 55 -8q10 -8 29 -20q21 -2 57 -13q29 -21 46 -65q14 -35 28 -68q12 -23 39 -67 q10 -12 55 -43q39 -27 39 -35q0 -16 -30 -35q-18 -8 -33 -16q-2 -2 -35 -25q-37 -49 -102 -135q-21 -31 -24 -61.5t-7 -92.5q-16 -102 -16 -116q0 -31 26 -125q14 -23 35 -72q37 -109 74 -110q21 0 53 38q20 10 29 7q14 -14 14 -25q0 -12 -74 -64q-84 -59 -98 -83 q-20 -27 -31 -41q-25 -31 -47 -33q-10 10 -16 26q8 48 8 71q0 12 -2 17q-29 61 -74 173q-6 41 -25 129q-21 64 -22 122q0 57 3 65.5t11 25.5q25 100 56 141q25 35 88 88q23 12 49 25q45 25 45 45q0 16 -33 35.5t-43 33.5q-18 43 -55 129q-8 8 -22.5 27.5t-45.5 40.5 q-59 8 -69 8q-33 0 -58 -8q-12 -4 -61 -33q-16 -10 -55 -51t-39 -51q0 -8 6 -14.5t6 -12.5q4 -31 8 -90q7 -68 8 -68v2q0 -20 -18 -114q-10 -10 -25 -33q-12 -33 -36.5 -92.5t-67.5 -110.5q-37 -39 -133 -121q-82 -68 -82 -75q0 -10 28 -27q37 -20 37 -19q129 -115 152 -116 q41 0 67.5 33.5t34.5 33.5t13.5 -3t6.5 -4t4 -5t3 -14q0 -6 -88 -80q-107 -92 -137 -123h-19q-27 88 -133 158q-95 62 -178 62q-10 0 -19 -1q-6 6 -6 16q0 27 29 35.5t55 14.5q29 16 84 45q33 33 101 92q100 70 145 207q14 41 29 127q0 8 4 26.5t4 24.5q0 14 -12.5 84.5 t-12.5 71.5q0 88 -71 169q-66 74 -148 93q-18 4 -88 4q-33 0 -110 -47q-18 -10 -36 -38t-18 -46q0 -74 64 -101q49 -12 145 -43q23 -12 45 -45q29 -49 29 -84q0 -41 -23 -92q-10 -8 -25.5 -28.5t-47.5 -49.5q-88 -35 -121 -35q-35 0 -98 25q-8 23 -7 19q0 23 27 24 q8 0 28.5 -9t28.5 -9q6 0 31 3t31 3q37 0 62.5 26.5t25.5 57.5q0 47 -31 59q-21 14 -68 33q-90 33 -121.5 68.5t-31.5 109.5z" />
<glyph unicode="O" horiz-adv-x="1358" d="M43 621q0 90 35 153q20 25 51 76q43 21 106 78q76 70 95 84q64 43 184 121q4 2 6 14q23 16 66 47q29 25 57 53q55 47 70 47q8 0 35 -14q-2 -2 -9 -18q-21 -14 -56.5 -42t-51.5 -69q-6 -20 -6 -74q0 -14 14 -71q-2 -20 -2 -60q2 -16 24 -26q6 4 44 47q35 35 102 114 q20 41 65 115q21 21 56 64q37 -16 37 -39q0 -8 -17 -23q-23 -21 -26 -25q-18 -21 -17 -45q0 -33 23 -53q29 -25 59 -49q20 -8 55 -25q98 -53 165 -140t69 -161q0 -6 7 -23.5t7 -23.5q0 -109 -26 -145q-10 -12 -29 -39q-8 -21 -27 -57q-12 -16 -78 -82q-25 -25 -67 -72 q-16 -12 -49 -37q-41 -37 -123 -112q-29 -37 -88 -105q-12 -12 -45 -12q-6 0 -48 6t-49 6q-6 0 -13 -3t-15 -3q-6 0 -26.5 5t-30.5 5q-141 0 -273 109q-80 68 -129 118q-14 27 -43 84q-2 4 -51 111q-27 64 -30 95.5t-3 62.5q0 4 -2 15t-2 18zM205 674q0 -94 35 -193 q12 -18 26 -45q4 -29 37 -74q25 -37 51 -73q80 80 95 96q39 45 65 96q12 12 25 33q8 60 8 74q0 80 -37 219q-19 72 -19 99q0 6 15 169h-19q-29 -27 -90 -82q-29 -18 -73 -49q-45 -51 -56 -70q-20 -29 -49 -96q-14 -27 -14 -104zM391 250q51 -25 101 -51q61 -31 114 -35 q8 -2 26.5 -6t24.5 -4h68q64 0 115 14q61 14 86 33q182 145 186 268q8 8 19 23q0 20 4 65q4 39 4 45q0 53 -34 118.5t-85 108.5q-39 20 -105 58q-35 21 -71 65q-12 14 -19 47q-8 27 -26 33l-66 -86q-41 -51 -74 -67q0 -18 6.5 -41t6.5 -27q10 -78 10 -176h20q43 27 50 27 q18 0 30 -13v-28q-14 -10 -57 -20.5t-53 -18.5q-25 -18 -68 -60q-4 -18 -14 -45q-78 -98 -127 -149q-2 -2 -47 -39q-27 -21 -25 -39z" />
<glyph unicode="P" horiz-adv-x="1401" d="M35 1053q8 0 14 -6q6 27 27 73q57 70 121 115q33 25 100 49q59 21 72 21q6 0 46 -8.5t46 -8.5q8 0 12 3t12 3q29 0 90 -35q49 -29 66 -61q27 -49 57 -127q10 0 15 10q14 35 43 78q16 8 41 33q10 16 18 33q2 21 14 63q9 17 34 17h3q45 0 82 -13q45 -16 127 -78 q14 -10 23 -24q102 -131 143 -131q6 0 23.5 3t24.5 3t17.5 11t14.5 11l25 -6v-32q-2 -4 -7 -9q-59 -16 -109 -79.5t-50 -124.5q0 -37 86 -209q14 -27 28 -52q21 -37 43 -42q-10 -10 -24 -9v-37q0 -8 12 -34.5t12 -32.5t-10 -20.5t-10 -18.5q-16 -166 -219 -281 q-59 -20 -178 -65q-6 -2 -30 -19.5t-32 -17.5q-10 0 -80 56l-69 55q-8 0 -23.5 -12.5t-15.5 -22.5v-146q0 2 -9 -12q4 -31 4 -68q0 -32 -3 -67q-20 -17 -47 -17h-3h-30q6 41 6 130v-3q-1 0 -12 109q6 21 8 63q0 6 -5.5 33t-5.5 39q0 4 3.5 19.5t3.5 25.5q-4 23 -33 35 t-66 12q-84 0 -129 -18q-16 -6 -50 -41t-42 -35q-29 0 -29 33q0 16 61.5 69.5t72.5 57.5q125 29 145 29q6 0 14 -5.5t13 -5.5q33 0 34 58q0 4 -4 33.5t-4 50.5q-2 147 -12 235q1 58 1 136.5t-1 176.5q0 20 -21 99q-6 23 -55 55q-43 25 -80 37q-12 4 -51 4q-6 0 -17.5 5 t-17.5 5q-47 0 -114 -37q-16 -6 -57.5 -65t-41.5 -80q0 -31 11 -78q6 -20 47 -60t69 -44q14 0 45 -8q29 -16 67 -52.5t44 -52.5q14 -41 14 -82q0 -82 -66.5 -152.5t-154.5 -78.5q-14 -10 -23 -10q-8 0 -32 36q6 16 41 21q27 6 58.5 14t64.5 37q43 37 43 74q0 14 -9 37 q-18 43 -77 65q-51 16 -101 31q-27 10 -39 33q-49 88 -55 147q-2 22 -2 44q0 44 8 89q-4 4 -9 7.5t-5 11.5zM700 412q12 -16 7 -35q0 -10 -3 -23q0 -29 7 -75q6 -14 31.5 -33t31.5 -29q6 4 14 4q10 0 39 -24q45 -35 54 -41q45 -29 114 -29q47 0 108.5 38t78.5 81 q14 33 14 123q0 57 -47 141q-27 37 -72 108q-37 78 -37 84q0 43 7 64q6 31 28 82q49 75 139 147q-25 25 -43 25q-6 0 -23.5 -3t-23.5 -3q-12 0 -32 10q-25 10 -27 12q-51 16 -100 68q-39 45 -93 45q-107 0 -137 -119q0 -12 2 -29q-2 -10 -10 -29.5t-8 -25.5q0 -92 -2 -102 q-8 -29 -8 -27q0 -8 5 -21.5t5 -17.5q0 -21 -6 -60.5t-6 -51.5q2 -43 2 -88.5t-2 -94.5q-2 -6 -4.5 -11t-2.5 -13q6 -12 5 -39z" />
<glyph unicode="Q" horiz-adv-x="1395" d="M66 629q0 8 5 20t5 17v21q0 76 26 114q47 72 144 160q35 33 77 61.5t130 83.5q27 18 139 111q12 18 39 47q100 64 104 65q23 0 23 -24q0 -25 -35 -43q-43 -20 -53 -33q-29 -47 -29 -92q0 -68 8 -107q6 -31 25 -70q16 2 69 72q25 16 64 55q29 55 57 109q51 88 78 88h35 q0 -2 3 -9t3 -15q0 -2 -28.5 -42t-28.5 -61q0 -39 78 -92q45 -25 88 -53q25 -25 73 -66q63 -55 99 -149q32 -80 32 -158q0 -96 -47 -182q-16 -8 -47 -33q-2 -4 -10 -21q-70 -80 -227 -241q-51 -41 -140 -127q-10 -12 -43.5 -24.5t-44.5 -12.5q-68 0 -107.5 17.5t-51.5 17.5 q-8 0 -15.5 -3t-15.5 -3t-60 18q-64 23 -84 27q-8 12 -28 32q-27 6 -78 31q-21 25 -57 64q-16 4 -43 30q-4 16 -15 39q-18 18 -41 51q-18 45 -51 134q-23 72 -24 176zM223 659q0 -35 25 -106q12 -43 29 -111q6 -21 40 -75q34 -60 50 -60q10 0 36.5 17.5t34.5 29.5 q47 59 84 130t37 96q0 6 -28.5 168.5t-28.5 169.5q0 55 33 172l-7 26q-33 -20 -86 -59q-53 -47 -151 -142q-27 -31 -39 -81l-16 -78q-13 -55 -13 -92v-5zM406 270q104 -84 245 -88q16 -2 50 -9t38 -7q6 0 33 6t35 6q80 0 166 57q16 18 41 44q90 98 117 174q20 51 20 131 q0 59 -14 98q-12 33 -23 65q-16 41 -43 58q-33 27 -96 74q-18 8 -43 20q-49 39 -57 47q-35 35 -50 84q-8 14 -26 14q-41 -57 -129 -141q12 -86 28 -256h25q43 27 51 27q23 0 23 -31q0 -23 -47 -31q-25 -4 -50 -6q-49 -31 -96 -88q-12 -25 -35 -69q-18 -23 -163 -179zM905 6 q0 25 45 72q33 31 66 63q10 4 29 15q4 12 22 32q27 17 50 17h3q6 0 57.5 -22.5t59.5 -22.5q6 0 35 13t37 15q8 -6 8 -22q0 -14 -66 -100q-23 -68 -41 -68q-8 0 -37 22q-37 27 -49 33q-31 19 -73 19h-4q-64 0 -111 -72q-10 0 -19.5 3t-11.5 3z" />
<glyph unicode="R" horiz-adv-x="1563" d="M-109 993q0 21 7 78q8 14 20 39q23 76 70 125q63 61 184 115q12 4 45 2t51 4q8 2 29 2q33 0 104.5 -43t102.5 -82q14 -16 31 -55q6 -16 22 -15q4 0 74 53q29 14 82 52q27 31 90 76q6 2 16 2q16 0 21 -5q12 -20 22 -38q20 -27 40 -32t59 -16q47 -21 63 -34q31 -23 55 -66 q10 -18 6 -51q8 -20 7 -23q0 -43 -41 -112q-18 -27 -99 -95q-12 -10 -49 -24q-27 -12 -45 -37q68 -76 119 -244q8 -12 18 -34q10 -35 23 -101q4 -29 16 -94q6 -43 10 -86q14 -62 45 -62h1q6 0 24.5 13.5t24.5 13.5q26 -1 26 -24q0 -14 -24 -31q-88 -61 -144 -103 q-18 -21 -57 -61h-25q-12 12 -10 35q2 18 4 35q1 14 1 29q0 105 -38 239q2 6 3 18q0 37 -21 54q1 10 1 21q0 55 -26 130q-10 35 -45 100q-31 39 -92 76q-4 2 -12 2q-51 0 -98 -20q-16 -6 -39 -53q-14 -27 -47 -76t-142 -135q-33 -20 -65 -41q-62 -40 -62 -61q0 -9 9 -17 q41 -4 86 -45t62 -79t44 -38q31 0 141 100h54q0 -43 -2 -43q-92 -20 -234 -149q-16 -25 -51 -80h-19q-8 37 -36 100l-41 41q-14 18 -41 47q-60 50 -94 50h-1q-33 0 -69 -11q-16 -6 -25.5 -19t-13.5 -58q-6 -8 -17 -23h-24q-14 25 -14 39q0 33 14 55q27 47 94 82q18 4 51 15 q14 10 17 18q18 6 61 31q8 16 23 37q23 18 63 51q29 35 90 108q12 12 45 70q21 41 27 84q0 14 4 45q18 81 19 81v-1q0 6 -5 74q-6 80 -8 112q-16 37 -55 105q-33 43 -92 71q-78 35 -119 35q-37 0 -57 -8q-25 -8 -78 -33q-64 -39 -86 -119q-8 -25 -8 -47q0 -21 59 -72t72 -51 q8 0 8 3t8 3q43 0 83 -31.5t64 -70.5q4 -4 3 -35q0 -59 -7 -96q-4 -16 -30 -41q-14 -16 -43 -43q-70 -41 -119 -41q-72 0 -107 6q-4 8 -12 19q6 6 6 24q31 -2 76 -6q37 -4 43 -4q33 0 79 31.5t46 66.5t-55 56q-35 10 -70 22q-61 25 -86 51q-18 18 -43 80t-25 88zM567 1133 q6 -21 21 -68q12 -39 12 -45v-139q0 -12 -6 -41t-6 -43q0 -23 14 -37h12q27 0 113 35q37 21 96 59q20 6 51 20q43 29 70 62q37 41 37 78q0 12 -19.5 48t-33.5 42q-41 12 -117 43q-10 6 -55 45q-39 31 -47 31q-6 0 -58 -37q-61 -43 -84 -53zM1661 -35l8 2l6 -22h-8z" />
<glyph unicode="S" horiz-adv-x="1410" d="M57 729q0 6 6.5 37t8.5 37q8 107 77 237q39 74 99 117q39 29 76 60q53 41 81 49q20 16 56 35q150 41 227 42q121 0 193 -14q25 -12 79 -35q21 -2 56 -16q29 -18 82 -49q16 -25 55 -70q49 -57 66 -57q16 0 81 63h23q8 -8 8 -20q0 -20 -72 -72q-37 -25 -75 -53 q-8 -2 -23 -8q-35 -35 -73 -72q-57 -55 -64 -55q-8 0 -14 3t-7 3q0 12 -8 20q4 6 45 33q33 23 33 41l-26 53q-45 90 -139.5 156t-178.5 78q-8 0 -38 8t-38 8q-45 0 -229 -53q-18 -18 -61 -47q-59 -29 -110.5 -85t-64.5 -104q-29 -98 -30 -196q0 -55 24 -139q10 -33 47 -88 q-2 -10 2 -27q37 -59 110 -153.5t179 -168.5q14 -4 39 -16q31 -23 145 -90q10 0 27 -4q6 -2 23.5 -13.5t25.5 -11.5t76 -6t76 -6q72 0 160 29q10 10 34 26q94 47 129 117q12 12 31 47q8 25 8 64q0 6 9.5 27.5t9.5 27.5t-6.5 17t-8.5 16q2 21 -2 55q-12 31 -48 73t-62 52 q-86 35 -201 35q-8 0 -66.5 -10.5t-64.5 -10.5q-8 0 -12 3t-11 3q-6 0 -20 -10t-20 -12q-97 -17 -134 -17h-4h-121q-33 0 -105.5 42t-88.5 77q-35 84 -35 150q0 70 23 120q27 25 79 78q23 0 75 8.5t57 8.5q39 0 67 -13q21 -21 58 -57q25 -102 26 -96q0 -12 -12 -33 q-18 2 -25 35q-10 43 -26 61q-50 60 -113 60h-2q-51 0 -47 0q-27 -4 -60 -31q-18 -14 -30.5 -50t-12.5 -52q0 -2 3.5 -30t1.5 -40q6 -16 26 -43q45 -39 100 -39q6 0 16.5 -3t16.5 -3q31 0 144 22q129 25 146.5 27t236.5 2q94 0 194 -96q90 -88 99 -164q8 -52 8 -156 q0 -51 -46.5 -145t-93.5 -123q-23 -21 -79 -59q-18 -8 -72 -25q-12 -8 -35 -20q-117 -29 -172 -29h-70q-55 0 -98 8q-20 2 -59 16.5t-45 14.5q-8 0 -10.5 -3t-8.5 -3q-27 0 -225 125q-6 12 -23 32q-35 23 -104 76q-12 25 -39 70q-90 141 -102 327q-2 10 -7.5 36t-5.5 34z " />
<glyph unicode="T" horiz-adv-x="1113" d="M18 -27q0 57 74 177q14 14 43 49q6 0 17 4q31 29 81 58.5t105 29.5q78 0 184 -33q45 41 56 70q47 106 47 157q0 61 -54 117q-8 6 -90 70q-20 31 -61 90q-2 6 -2 20q0 18 20 82q23 80 51 125q18 29 76 92q49 53 49 58q0 20 -65 45q-53 21 -84 28q-12 2 -88 2q-61 0 -88 -8 q-63 -18 -109 -71q-20 -21 -51 -72q-23 -68 -23 -109q0 -35 46 -118q2 -6 51 -45q39 -33 39 -58q0 -10 -2 -18q-63 -45 -86 -45q-43 0 -80 110q-29 84 -29 115q0 102 10 131q6 18 80 147q10 14 43 35q23 14 47 27q8 12 27 31q20 12 80 34q16 6 51 11q88 14 176 14 q61 0 236.5 -54t181.5 -54q16 0 37 16q14 25 28 72q8 6 21 18h31q0 -2 3 -8.5t3 -14.5q0 4 -13 -30q0 -2 -45 -78q-10 -10 -30 -29q-10 -18 -35 -49q-57 -41 -98 -41q-6 0 -105.5 36t-105.5 36q-21 0 -72 -90q-41 -70 -52.5 -103.5t-11.5 -62.5q0 -51 121 -125q4 -10 17 -25 q10 -2 26 -16q35 -53 35 -94q0 -45 -13 -79t-130 -286q-2 -2 -2 -26q16 -16 31.5 -16.5t44.5 -4.5q51 -21 102 -43q43 -18 96 -18q115 0 160 116q6 27 10 54q10 39 33 49q21 -8 22 -47q0 -27 -23.5 -82.5t-84.5 -110.5q-98 -92 -100.5 -95t-18.5 -35t-24 -32q-6 0 -39 15 q-39 18 -50 22q-18 2 -51 10q-82 37 -250 107q-18 8 -81.5 18.5t-75.5 10.5q-6 0 -8 -4.5t-7 -4.5q-8 0 -19 1.5t-18 1.5q-61 0 -109 -52q-46 -49 -46 -113v-5q0 -10 -18 -26q-16 -15 -30 -15h-3q-12 25 -11 34z" />
<glyph unicode="U" horiz-adv-x="1121" d="M53 254q0 2 60.5 52t78.5 85q44 100 44 154q0 6 -4.5 38.5t-4.5 45.5q-35 90 -49 141q-6 20 -16 96l-6 10q-7 9 -7 17v24.5v22.5q0 180 148 340q6 16 22 37q39 31 52 31q8 0 14 -2.5t8 -2.5v-32q0 -2 -31 -37q-35 -41 -45 -58q-16 -25 -22 -55q-14 -57 -14 -117 q0 -45 14 -77q20 -53 35 -95q0 -14 4 -45q12 -25 27.5 -72.5t15.5 -109.5q0 -49 -31 -106q-16 -29 -67 -107q-43 -64 -43 -72q0 -20 36 -40q23 -12 47 -25q18 -12 54 -39q23 -27 47 -55q35 -37 67 -37q6 0 38 21.5t42 33.5q27 20 80 60q31 16 80 57q15 21 15 111q0 27 -1 61 q3 35 3 96q0 30 -1 66q0 14 4 127q1 34 1 112v90q0 10 4 41t4 37q0 76 -41 76q-8 0 -27 -10q-25 -10 -35 -12q-20 20 -20 34q0 29 25.5 38t49 21.5t70.5 69.5q43 49 49 49q20 0 33.5 -21.5t24.5 -41.5q4 -6 57 -49q37 -31 43 -66q-12 -8 -70 -55q-2 -45 -4 -147 q-4 -94 -4 -97v-141v2q-1 0 -10 -135q-1 -12 -1 -26q0 -29 3 -70q2 -74 2 -95q0 -4 -8 -21t-8 -22q0 -61 18 -112q23 -70 68 -70q25 0 49 60h25q8 -6 8 -31q0 -27 -8 -39q-20 -16 -54 -43q-64 -57 -108 -113q-29 -8 -21 -8q-41 0 -78 113q-8 8 -20 22q-10 25 -21 74 q-2 33 -2 66q-4 0 -10 2l-6 2l-338 -273q-14 2 -43 39q-35 47 -47 57l-70 58q-45 33 -77.5 44t-64.5 20.5t-32 27.5z" />
<glyph unicode="V" horiz-adv-x="1399" d="M70 1003q0 76 47 175q20 14 49 41q39 51 90 75q21 10 107 33q16 4 40 4q61 0 125 -24q23 -10 54 -29q51 -29 84 -82q37 -63 59 -113q10 -8 14 -8q8 0 8 3t1 3q51 70 118 113q45 23 133 72q8 4 37 34q23 25 31 25t23.5 -13.5t23.5 -17.5q98 -47 148 -164l36 -69 q0 -14 3 -39q8 -8 18 -27l12 -90q2 -8 -2 -25.5t-4 -25.5q0 -16 7 -46t7 -34q0 -47 -36 -194q-10 -8 -19 -29q-10 -57 -39 -113q-27 -43 -55 -88q-12 -21 -64 -67q-18 -20 -57 -56q-37 -16 -100 -53q-29 -25 -82 -47q-63 -27 -86 -43q-55 -35 -117 -98h-25q-4 18 2.5 38.5 t6.5 24.5q0 35 -39 74q-35 31 -72 63q-14 2 -39 13q-25 21 -78 59q-43 23 -71 23q-86 0 -92.5 -31t-10.5 -63.5t-31 -43.5q-23 25 -24 52q0 115 168 182q18 8 49 39q41 43 53 53q41 33 60 63l28 50q10 10 19 32q4 29 14 68q16 57 16 121q0 6 -7 58t-9 71q-8 18 -22 55 q-2 12 -5 33q-12 41 -32 72q-23 18 -62 57q-27 43 -73 57q-54 19 -127 19h-7q-20 0 -71 -29q-21 -14 -43 -53q-27 -57 -27 -86q0 4 19 -45q6 -20 14 -37q14 -27 31 -39q55 -27 108 -53q80 -47 98 -101q8 -23 7 -47q0 -27 -7 -55q-18 -66 -83 -109q-57 -37 -119 -38h-92 q-18 0 -33 30q16 31 41 31q8 0 27.5 -9t27.5 -9h53q33 0 73 28.5t40 65.5t-34 53t-68.5 30.5t-63.5 26.5q-6 10 -22 27q-80 51 -80 196zM494 389q31 -16 98 -61q12 0 27 -4q55 -47 110 -93q94 -78 115 -79q43 0 125 81q64 59 94.5 102.5t77.5 160.5q6 31 20 88q21 90 21 125 q0 137 -8 178q-27 145 -84 217q-18 21 -52 45q-43 25 -75 25q-31 0 -90.5 -33t-84 -62.5t-34.5 -56.5q-6 -12 0 -35q8 -29 10 -33q2 -41 2 -74.5t-2 -58.5q0 -45 -10 -123q-21 -64 -49 -100q-55 -51 -142 -137q-37 -27 -43 -31q-23 -21 -26 -41z" />
<glyph unicode="W" horiz-adv-x="1786" d="M63 973q0 111 65 200t159 115q10 8 12 13q47 6 72 18q18 6 59 6q106 0 227 -133q68 84 123 96q8 2 27.5 14.5t24.5 12.5q66 0 100 -19q8 -6 57 -45q4 -4 21 -37q14 -25 37 -28l127 129h20q8 -8 8 -19q0 -20 -20.5 -42.5t-38 -43t-33.5 -55.5q-12 -20 -23 -20q-8 0 -11 3 t-5 3l-10 -10v-13q10 -10 16 -10q12 0 25 6q8 12 24 31q18 10 48 31q10 16 36 41q107 72 172 77q4 0 17.5 4.5t19.5 4.5q141 0 180 -80q12 -10 25 -27q21 -119 53 -201q21 -18 54 -51q-6 -25 -48 -26q-88 0 -98 -1q-47 -10 -92 -51q-51 -45 -51 -88q0 -23 3 -28t34 -39 l106 -78q84 -66 103 -119q4 -6 16 -24.5t12 -26.5q0 -18 -35 -213q-6 -4 -14 -12q-29 -88 -110 -150q-41 -31 -123 -68q-74 -35 -88 -36q-6 0 -27 -2t-27 -2q-29 0 -151.5 81.5t-161.5 81.5q-4 0 -102.5 -81.5t-110.5 -81.5q-49 0 -145 69q-55 43 -111 86q-31 14 -90 43 q-14 12 -37 29q-33 14 -84 14q-27 0 -31 -2q-29 -16 -55 -53q-6 -12 -6 -33q0 -6 33.5 -40t33.5 -40q0 -20 -29.5 -44.5t-39.5 -24.5q-29 0 -49 53q-16 39 -15 67q0 53 51 99q18 18 117 84q39 27 193 217q29 37 43 100q37 154 37 189q0 16 -9 38v41q-12 59 -30 172 q-8 20 -19 60q-20 21 -53 61q-18 18 -66 29q-6 8 -28 18q-10 2 -107 2q-23 0 -70.5 -37.5t-52.5 -50.5q-18 -43 -18 -69q0 -6 3 -21.5t5 -19.5q4 -57 74 -98q53 -25 106 -52q29 -21 54.5 -62.5t25.5 -68.5q0 -6 -5 -28.5t-5 -32.5q-18 -43 -53 -94q-18 -23 -86 -43 q-56 -15 -92 -15h-4h-43q-35 0 -35 31q0 23 24 23q8 0 55.5 -1.5t53.5 -1.5h41q16 6 49 36t33 46q0 14 -18.5 39t-24.5 27q-100 21 -162 93.5t-62 158.5zM436 350q35 -21 92 -55q33 -16 88 -55q21 -25 62 -62q98 -53 135 -53h31q41 0 108.5 56.5t71.5 92.5q2 14 17.5 66.5 t15.5 58.5q0 -2 -21 103q-8 37 -88 219q-37 84 -37 178q0 80 13 109q16 16 36 39q4 12 27 57q20 35 19 43q0 25 -46.5 60.5t-76.5 35.5q-63 0 -92 -2q-20 -2 -66 -29q-55 -35 -55 -65q0 -8 31.5 -88t31.5 -88q0 -12 -10 -144q-12 -25 -25 -73q2 -16 0 -39q-12 -12 -26 -33 q0 -14 -2 -33q-39 -61 -123 -178q-4 -4 -55 -51q-41 -35 -56 -70zM1051 926q0 -6 3 -35t6 -36t11 -19q6 -23 16 -66q10 -14 21 -39q2 -18 28.5 -85.5t26.5 -88.5q0 -78 -20 -121q-21 -49 -27 -61q-37 -76 -37 -86q0 -14 54 -43q29 -14 59 -27q164 -121 256 -121 q59 0 108.5 45t71.5 113q10 32 10 63q0 6 -13 36t-15 40q-10 21 -31 56q-12 10 -27 28q-16 6 -39 15q-10 16 -30 36q-47 25 -113 64q-2 0 -10 33q-10 8 -35 22q0 8 -6 28.5t-6 26.5q0 29 19.5 73t40 61.5t97.5 62.5q63 39 62 45q0 90 -25 127q6 41 0 55q-14 41 -58 69 t-83 28q-16 0 -29 -9q-57 0 -137 -57t-117 -119q-2 -2 -20 -24q0 -14 -6 -49t-6 -41z" />
<glyph unicode="X" horiz-adv-x="1195" d="M37 303l8 17q98 31 145 32q47 0 70 -12q0 -64 -2 -129q2 -76 25 -135q6 -8 15 -10.5t34.5 -8.5t30.5 -6q35 0 108 103q6 20 21 57q35 57 35 204q0 53 -5 118q0 10 8.5 41.5t8.5 37.5l-33 64h-14q-10 -16 -19.5 -30.5t-30.5 -14.5q-6 0 -12 6t-14 6t-16.5 -10t-12.5 -12 q-86 -43 -104 -89q-10 -23 -31 -34h-19q-12 16 -12 28q0 2 39 64q47 70 62 100q-4 12 -3 21q0 43 58 43q6 0 17 -3t16 -3q6 0 16 6t16 6t28 -8.5t30 -8.5q29 0 32 25q7 131 7 188v13q0 107 -11 159q-23 94 -92 111q-33 6 -90 6t-109.5 -31.5t-70.5 -72.5q-21 -55 -21 -133 q-16 -25 -28 -25q-27 0 -25 47q0 117 107 229q12 4 34 15q78 72 199 72q57 0 120.5 -31t78.5 -70q10 -33 45 -100q6 6 12 16q8 47 47 100.5t89 72t89 18.5q27 0 79.5 -36t58.5 -50q25 -78 34 -117q0 -23 3 -68q2 -16 25.5 -21t33.5 -16v-20q-35 -4 -102 -10q-12 0 -41 -9.5 t-35 -9.5l-31 17q0 51 4 141q4 27 4 45q0 82 -74 82q-70 0 -106.5 -46t-61.5 -147q-8 -33 -16 -141q2 -14 4 -39q0 -8 -4 -28.5t-4 -26.5q0 -115 18 -115q6 0 56.5 -3t56.5 -3q45 0 72 19q8 4 30 63q20 53 35 53q29 0 29 -28q0 -23 -92 -211q-16 -29 -41 -29q-6 0 -34 3 t-34 3q-21 0 -49 53q8 2 -29 2q-8 0 -19 -20t-11 -33v-229q0 -25 6 -35q-4 -20 2 -59q-2 -21 6 -56q74 -127 115 -127q6 0 31.5 -2t31.5 -2q59 0 117 47q53 45 76 101q4 10 0 22q6 12 16 56q8 31 27 41q25 -10 26 -33q0 -33 -8 -54q-10 -10 -26 -34q-2 -16 -7 -39 q-20 -37 -45 -74q-25 -20 -77 -63q-14 -18 -46 -43q-31 -14 -51 -15q-70 -8 -106 -8q-64 0 -152 90l-6 23q-23 10 -35 45q-18 49 -22 55q-8 0 -12 -6q-18 -49 -35 -98q-25 -59 -84 -91q-43 -23 -90 -24q-51 0 -74 14q-131 68 -131 240q0 6 -2 20.5t-2 22.5q-8 4 -49 4z" />
<glyph unicode="Y" horiz-adv-x="1410" d="M76 946q0 74 18 156q10 43 36 81t75 74q16 16 57 46q27 16 57 22q88 19 109 19h2q6 0 21.5 -6.5t23.5 -8.5q80 -6 170 -94q27 -27 76 -115q4 -23 14 -67q10 -14 23 -8q106 90 336 280q33 0 43 -18l-23 -43q0 -35 12 -48q23 -16 64 -57q10 -31 37 -96q18 -27 53 -82 q0 -4 4 -57q2 -6 39 -84q-1 -23 -1 -48q0 -60 7 -126q0 -8 7 -30t7 -28q0 -20 -8 -30.5t-18 -24.5q1 -8 1 -20q0 -25 -5 -64q-4 -27 -72 -227q-12 -16 -31 -47q0 -16 -10 -39q-4 -4 -39 -50q-2 -16 -16 -45q-111 -119 -117 -125q-64 -64 -135 -114q-49 -35 -94 -57 q-123 -62 -167 -62h-1q-8 0 -60.5 -6t-58.5 -6q-72 0 -139 12q-14 12 -45 31q-37 14 -95 53q0 6 -2 18q-10 6 -26 21q-8 10 -8 49q0 33 26.5 75t61.5 42q27 0 53.5 -33t26.5 -59q0 -6 -19.5 -48t-19.5 -49q0 -23 55 -41q43 -14 61 -14q6 0 21.5 -3t23.5 -3q6 0 41 3t43 3 q35 0 148 33q20 14 57 35q86 43 180 135q88 88 138 174q29 53 88 229q6 39 28 115q-3 3 -3 58t3 161l-30 129q-14 21 -35 72q-6 6 -16.5 23.5t-16.5 64.5q0 2 -68 92q-59 80 -81 80q-6 0 -98.5 -68.5t-92.5 -78t-14 -31.5q6 -71 6 -121q0 -65 -10 -96q-31 -98 -119 -213 q-4 -12 -16 -33q-31 -14 -119 -127q8 -18 47 -33q29 -12 54.5 -22.5t37.5 -22.5q59 -59 88 -111q2 -12 2 -26q6 -23 21 -23q18 0 65 43q27 25 55 50q29 20 66 49q10 2 31 10q20 -20 20 -33q0 -10 -4 -16q-14 -6 -43 -19q-106 -76 -258 -174q-14 -20 -51 -55h-17q-8 14 -4 37 l8 29q0 35 -55 90q-45 47 -84 73q-8 4 -49 13.5t-59 9.5q-6 0 -34 -14.5t-36 -14.5q-4 0 -29 14v25q21 14 68 43q23 10 66 37q6 12 24 31q76 55 115 190q14 21 37 66q29 80 30 162q0 2 -10 65.5t-12 95.5q4 20 2 60q-12 8 -29 30q0 16 -28 60q0 8 -3 28q-20 18 -65 45 q-6 16 -27 35q-61 25 -123 25q-174 0 -174 -189q0 -63 115 -129q14 -4 45 -14q43 -16 72.5 -68.5t29.5 -93.5q0 -37 -38 -104q-43 -78 -93 -78q12 0 -43 -14q-59 -13 -97 -13h-5q-18 0 -47 29v31q14 12 27 12q6 0 54 -6t54 -6q8 0 19.5 9t17.5 9q8 0 8 -3t6 -3 q27 0 45.5 24.5t18.5 53.5q0 33 -76 80q-53 35 -84 47q-12 0 -33 10q-6 2 -32 49q-31 55 -31 80z" />
<glyph unicode="Z" horiz-adv-x="1004" d="M64 491q0 16 34 39q27 18 47 23q59 12 172 43q35 12 99 43q80 53 205 166q2 10 8 27q39 61 47 94q2 10 2 34q0 35 -26.5 92.5t-49.5 77.5q-31 21 -102 60q-43 23 -127 24q-74 0 -133 -40q-64 -45 -64 -117q0 -23 43 -49q29 -16 57 -31q23 -21 43 -60q7 -14 7 -55v-10 q0 -6 -2 -22.5t-2 -26.5q-14 -29 -52 -78q-57 -41 -118 -41q-33 0 -70 18v31q2 2 70 2q90 0 90 62q0 43 -39 61q-64 29 -66 29q-29 25 -43 73q-2 6 -2 33q0 33 2 35q29 63 96 160q61 63 148 125q43 27 74 39q6 2 39 2q111 0 170 -31q123 -64 155 -139q4 -18 10 -51 q21 -78 21 -72l-16 -86q-20 -33 -58.5 -96.5t-85.5 -114.5q-23 -27 -72 -62q-76 -53 -81 -55q0 -10 10 -18q25 -6 112 -76q6 -14 19 -37q39 -51 55.5 -91t30.5 -77h22q21 0 95 94q20 23 20 54q0 53 -26 82q-14 8 -35 30q-29 61 -29 78q0 25 37 86q39 68 69 68q10 0 27 -19 q-8 -21 -34.5 -40t-26.5 -38q0 -6 32 -43q39 -43 50 -63q18 -31 18 -74q0 -33 -29 -96q-10 -8 -26 -27q-39 -76 -156 -129q33 -152 33 -149q0 -8 -2 -14.5t-2 -8.5q-14 -21 -18.5 -54.5t-6.5 -63.5q-8 -10 -20 -23q1 -4 1 -8q0 -32 -40 -96q-35 -59 -70 -95q-6 -6 -67 -39 q-100 -53 -185 -53q-84 0 -145 72q-55 66 -55 139q0 14 16 62q18 59 37 77q2 37 53 76q41 27 80 57l-2 5q150 80 190 81q6 0 5 -3t4 -3q37 0 38 33q0 8 -13 25.5t-15 21.5q-2 16 -8 39q-21 37 -72 94q-25 20 -74 40t-61 20q-68 0 -127 -27q-27 -14 -107 -67q-6 2 -19 18 t-13 24zM209 -88q0 -49 4 -59q8 -16 20 -45q4 -8 40 -30t59 -22q64 0 110 13q70 20 99 73q10 20 39 60q8 8 25.5 88.5t17.5 103.5q0 8 -9 66q-12 66 -14 92q-2 0 -7 4t-13 4q-23 0 -140.5 -60.5t-144.5 -88.5q-86 -90 -86 -199z" />
<glyph unicode="[" horiz-adv-x="908" d="M156 758q104 39 108 127q2 27 18.5 105.5t53.5 140.5q25 20 67 59q72 82 93 102q41 37 79 37q25 0 77.5 -33.5t62.5 -33.5q2 0 71 28q0 -2 3.5 -14t3.5 -19q-29 -20 -86 -63q-4 -4 -33 -37q-16 -18 -35 -18q-16 0 -37 18q-29 23 -41 31q-47 23 -74 24q-25 0 -57 -36 q-72 -80 -72 -160q0 -47 11 -111q12 -80 30 -84h187q29 0 51 39q29 45 35 51q29 -4 30 -26q0 -10 -7 -26.5t-7 -18.5q0 -18 31 -31q25 -10 35 -10q6 0 6 2t8 2q12 0 31 -19q-23 -23 -49 -73q-4 -23 -9 -207q0 -21 -7 -82.5t-7 -67.5q0 -53 14 -106q6 -21 29 -41q20 0 41 -2 q33 -2 33 -23q0 -12 -77 -89t-89 -77q-8 0 -14.5 3.5t-8.5 3.5q21 90 21 75q0 8 -3 8.5t-2 1.5t-50 33q-29 20 -29 60q0 43 20 159q-2 12 -2 35v72q18 0 21 4q-2 4 -10.5 6t-10.5 6q21 109 21 178q0 20 -21 58q-35 0 -107.5 9t-74.5 9q-8 0 -17.5 -10t-13.5 -12 q0 -119 -20 -371q-8 -35 -23 -113q-2 -66 -10 -196q-12 -113 -12 -127q2 -31 -6.5 -89.5t-8.5 -84.5v-96q-8 -23 -30 -23q-8 0 -17 12q2 74 6 203q-2 149 0 190q0 2 -6 11.5t-6 15.5q0 197 -6 268q2 16 -8 50q6 21 8 40q0 6 -5 19.5t-7 19.5q2 -12 6 162q2 43 2 84 q-2 47 -33 47q6 0 -59 -10l-3 13q-3 12 -3 18zM739 1028v29q0 -2 6 24q0 61 0 60q8 12 21 30q8 0 27.5 6.5t27.5 6.5q14 0 29.5 -15.5t15.5 -29.5q0 -6 -34.5 -56.5t-45.5 -58.5q-29 -8 -20 -8q-8 0 -16.5 6t-10.5 6z" />
<glyph unicode="\" />
<glyph unicode="]" horiz-adv-x="889" d="M-27 745q0 20 23 84q12 12 25 33q2 33 26 90q6 35 27 111q23 68 114 151q68 63 150 105q8 4 43 4q41 0 90 -45t66 -45q6 0 20 9t19 9h2q94 84 129 84q8 0 80.5 -39t80.5 -39q6 0 25.5 4.5t23.5 4.5q12 0 37 -23q-29 -49 -155 -133q-2 0 -29 21q-21 10 -55 32 q-43 37 -94 37q-20 0 -53 -33.5t-44 -54.5q-23 -51 -24 -119q0 -55 20 -114q25 -76 68 -76q6 0 31.5 6t33.5 6q33 0 33 -63q0 -55 -39 -54q-8 0 -25.5 7.5t-23.5 7.5q-39 0 -37 -68q0 -37 -2 -103.5t-2 -97.5v-213q0 -6 -8 -22t-8 -23q-4 -64 -11 -196l-2 -11v-16 q0 -190 4 -330q2 -18 -16 -36h-31q-21 18 -22 59q0 16 5 47t5 41q-6 6 0 190q-12 12 -22 39q6 -12 6 29v150q0 2 -5.5 31.5t-3.5 41.5q-2 16 1 39q-10 16 -9 53q0 6 -11 33t-11 43q0 149 6 174q-18 47 -18 54q0 6 4 15t4 15q0 61 4 183q4 53 6 84q8 39 18 112q12 23 31 74 l-10 -10q-41 25 -119 69q-6 8 -18 19q-39 23 -68 24q-23 0 -72 -61q-27 -35 -38 -60.5t-18 -51t-7 -48.5q0 -4 7 -33.5t9 -44.5q12 -86 23 -262l6 -276q-16 -14 -18 -93q-2 -51 -9 -163q-6 -102 -6 -105q0 -10 -10 -24q-4 -45 -4 -93q0 -27 4 -153q-4 -8 -10 -21 q12 -92 -9 -125h-20q-23 14 -18 64q-4 8 -9 27v241q0 51 -4 150q-6 18 -14 61q-2 20 3 56t5 44q0 16 -24 84q-2 10 0 19q12 33 8 55q-8 8 -13 27q0 49 -6 145q-2 10 7 129q-6 8 -33 23q-16 10 -15 28z" />
<glyph unicode="^" />
<glyph unicode="_" horiz-adv-x="732" d="M39 661q0 6 5 13.5t5 13.5q0 61 2 184q4 55 6 84q8 39 17 111q0 2 26 53q2 18 13 47q25 39 75 97q106 107 152 108q8 0 80 -39t80 -39q6 0 25.5 5.5t25.5 5.5q10 0 35 -25q-27 -49 -152 -131q-4 0 -31 20q-20 12 -55 31q-43 37 -94 37q-18 0 -52 -32t-44 -56 q-23 -51 -23 -117q0 -57 17 -115q25 -76 69 -77q-10 0 68 -6q68 -4 108 -2q35 33 88 83q23 16 68 52h31q6 0 6 -13q0 -6 -31 -61t-41 -78q21 -20 43 -20q6 0 28.5 5t29.5 5q18 0 43 -23q0 -94 -29 -94q-8 0 -51 8.5t-50 8.5q-35 0 -45 -25q-2 -57 -8 -175l-6 -118 q0 16 23 -152q66 -55 94 -55l37 6q14 -14 14 -18q0 -16 -141 -172h-25q0 21 -8 57q-20 16 -53 51q-8 16 -19 39q-20 16 -43 50q-6 31 -6 84q-6 -8 -6 6q0 35 20 151q-2 -10 -8 39q-2 14 11 96q10 63 10 97q0 8 11 33.5t11 33.5t-8 8h-65q-8 0 -46 5.5t-43 5.5q-39 0 -40 -70 q0 -35 -1 -100q-2 -70 -2 -101v-213q0 -4 -7 -19.5t-9 -25.5q-2 -63 -10 -196l-2 -9q-2 -10 -2 -18q0 -190 6 -328q0 -20 -16 -37h-31q-23 20 -23 58q0 18 5 49t5 39q-4 6 0 190q-12 14 -20 41q4 -14 4 29v149q0 2 -6 31t-4 43q0 14 2 37q-10 16 -10 55q0 4 -9.5 32 t-11.5 42q0 149 6 174q-18 49 -18 57z" />
<glyph unicode="`" />
<glyph unicode="a" horiz-adv-x="748" d="M53 410q0 41 22.5 121.5t41.5 113.5q14 20 57 59q41 33 82 68q27 23 131 88q100 59 105 58q10 0 19 -6l9 -5q-16 -80 -16 -94q0 -20 2 -24q18 -25 59 -37q55 -16 60 -19q20 -12 20 -26q0 -10 -4 -13q-84 -76 -84 -147q0 -18 -4 -55t-4 -43q0 -37 13 -101.5t26 -83.5 q8 -10 47 -43q31 -27 31 -35t-25 -34.5t-29 -36.5l-24 -54q-18 -37 -47 -51q-19 11 -19 54v8q-18 31 -49 90q-12 41 -39 121h-22q-47 -61 -136 -189q-12 -25 -41 -73q-2 0 -12 -7q-20 4 -24 35q-4 41 -9 51q-8 4 -24 17q-31 41 -61.5 82t-40.5 96q-11 61 -11 107v8zM186 512 q0 -18 13 -121q4 -29 37 -98q41 -78 67 -78q8 0 17.5 4t15.5 4q33 39 70 78q4 66 16 180q29 169 31 169v-1q0 18 -68 88q-25 25 -51 25q-33 0 -88 -90q-18 -21 -39 -64t-21 -96z" />
<glyph unicode="b" horiz-adv-x="676" d="M59 817q0 6 6.5 14.5t8.5 12.5q6 33 16 100q0 43 4 123q0 8 6 26.5t6 24.5q14 12 35 35q6 14 21 43l28.5 28.5t14.5 28.5q10 6 65 54q45 43 66 43q20 0 35 -19v-20q-104 -90 -127 -166q-6 -20 -15 -139q-14 -143 -14 -215l6 -7q0 -2 -4 -32q-4 -20 8 -29l10 -10 q86 72 134 139q12 25 32 72h31q4 -23 14 -56q20 -16 56 -49q29 -29 65 -90q39 -66 39 -96v-170q0 -25 -24 -111q-6 -23 -29 -63q-55 -57 -154 -137q-129 -106 -157 -132h-31q-4 12 0 33q4 25 4 23q0 12 -10 26q-55 20 -141 64q4 92 10 264l4 62q4 53 4 84q0 18 -2 55 q-4 29 2 36t6 3l-8 4q-2 2 2 47q0 4 -4 16q-2 2 1 12.5t3 16.5q-23 57 -23 51zM205 363q0 -39 12 -101q143 -74 145 -74q21 0 74 58q21 23 35 78q18 80 18 131q0 29 -12 91t-24 73q-27 37 -52 73q-45 55 -79 55q-98 -74 -105 -104q-12 -45 -12 -280z" />
<glyph unicode="c" horiz-adv-x="498" d="M53 522v-1l2 67q2 32 2 55t-2 39v7q0 50 52 89q55 35 110 72q76 68 98 68q23 0 73 -40.5t50 -56.5q0 -6 -12 -53q-14 -53 -18 -76q0 -8 -13 -8q-18 0 -44.5 34t-45.5 42q-72 37 -76 37q-23 0 -30 -21q-23 -76 -23 -115v-198q0 -6 8.5 -24.5t10.5 -24.5q12 -39 38 -105 q8 -16 42 -49t51 -33q18 0 45 27h20q14 -12 14 -21q0 -14 -30 -45q-37 -37 -37 -38q-25 -53 -88 -140q-10 6 -14.5 35t-10.5 37q-51 57 -137 170q2 6 2 12q0 14 -14.5 37t-16.5 33q-6 39 -6 188z" />
<glyph unicode="d" horiz-adv-x="676" d="M55 1073q0 59 19 107q10 27 62 60.5t61 60.5q2 2 29.5 20t33.5 18h35q12 -14 12 -24q0 -8 -28 -25q-14 -10 -29 -20q-27 -25 -78 -74q-12 -6 -31 -23q-18 -31 -18 -47q0 -29 137 -86q25 -18 74 -47q27 -2 78 -20q186 -119 186 -318q0 -2 -15.5 -97t-17.5 -134 q-2 -61 -88 -178q-27 -21 -88 -70q-21 -21 -92 -100q-55 -63 -62 -62q-27 0 -28 23q0 6 14 30.5t14 30.5q0 21 -38 62q-25 25 -51 54q-26 30 -50 102q-22 67 -22 107v7q0 20 -4 66l-4 45q0 84 30 125q64 92 94 92q27 0 27 -29q0 -6 -12 -22.5t-13 -24.5q-8 -27 -8 -76 q0 -63 9.5 -104t31.5 -121q8 -35 51 -88q53 -66 95 -66q21 0 67 58q39 51 41 63q8 23 19 66q10 59 10 123q0 66 -8 100q-4 8 -13 22q0 29 -49 89q-4 8 -10 22q-14 20 -35 29q-104 49 -246 147q-8 0 -22 4q-33 23 -51.5 55.5t-18.5 67.5z" />
<glyph unicode="e" horiz-adv-x="529" d="M57 448v134q8 14 19 67q6 10 14 27q14 82 103 129q23 2 67 14q21 16 74 68q47 49 53 49q18 0 25 -14q-2 -27 -2 -84q8 -20 26 -60q11 -35 23 -119q-117 -70 -267 -172q-2 -31 1 -45q39 -139 131 -190q10 -8 22 -16.5t23 -8.5q8 0 27.5 12.5t25.5 14.5h20q6 -8 6 -16 q0 -6 -47 -72q-53 -74 -69 -105q-4 -14 -19 -41q-16 0 -26 13q0 23 -18.5 39t-35.5 28q-10 12 -26 33q-35 27 -98 105q-18 33 -39 116v8q0 32 -13 86zM186 602q0 -59 2 -55q4 -6 11 -14q37 23 75 47q46 36 46 77l-41 121q-9 13 -18 13h-1q-35 -21 -57 -86q-17 -50 -17 -98 v-5z" />
<glyph unicode="f" horiz-adv-x="494" d="M-18 661q0 6 5 13.5t5 13.5q0 61 4 184q4 55 6 84q6 39 16 111q0 2 25 53q4 18 16 47q25 39 72 97q107 107 154 108q6 0 79.5 -39t79.5 -39q8 0 26.5 5.5t23.5 5.5q13 0 38 -25q-29 -49 -155 -131q-2 0 -29 20q-21 12 -55 31q-43 37 -94 37q-20 0 -54 -32t-43 -56 q-23 -51 -24 -117q0 -57 20 -115q23 -76 66 -77q8 0 33.5 6t31.5 6q33 0 33 -61q0 -56 -38 -56h-1q-6 0 -23.5 8.5t-23.5 8.5q-39 0 -39 -70q1 -18 1 -43t-1 -57q-2 -70 -2 -101v-213q0 -4 -8 -19.5t-8 -25.5q-4 -63 -12 -196l-1 -9q-2 -10 -2 -18q0 -190 5 -328 q2 -20 -15 -37h-31q-21 20 -22 58q0 18 5 49t5 39q-3 3 -3 50.5t3 139.5q-12 14 -22 41q4 -14 4 29v149q0 2 -6 31t-4 43q0 14 2 37q-8 16 -7 55q0 4 -11 32t-11 42v55q0 99 6 119q-20 49 -20 57z" />
<glyph unicode="g" horiz-adv-x="832" d="M10 -117q18 29 41 35q10 2 96 2q33 0 56 -14q8 -10 24 -25q41 -18 127 -53q10 -8 29 -20q119 -35 129 -35q33 0 82 37q43 31 57 57q18 35 17 74q0 45 -11 80q-20 35 -59 106q-31 68 -53 141q-6 10 -21 9q-10 0 -41 -33q-16 -16 -106 -92q-10 -8 -105 -121h-26 q-10 20 -4 32q8 16 8 15q0 6 -49 67q-55 70 -72 99q-8 14 -12 37q-2 29 8 38q-10 6 -19 39v140q33 100 33 106t-26.5 33t-34.5 41q41 16 90 49q66 41 195 131q20 23 61 64q21 8 22 8q18 0 80 -78q12 -8 41 -33h15q12 31 26 62q20 49 37 49q41 0 41 -33l-33 -121 q10 -16 54 -26q39 -10 45 -35q-28 -31 -28 -65q0 -7 1 -13q-14 -14 -20 -14q-8 0 -29 11t-29 11q-25 0 -29 -14q2 4 1 -27q0 -117 18 -217q12 -64 45 -156q12 -14 23 -39q2 -6 16 -71q10 -47 10 -76q0 -86 -8 -117q-16 -64 -33 -90q-23 -33 -74 -84q-12 -12 -45 -33 q-125 -59 -153 -59q-53 0 -144.5 53.5t-146.5 53.5q-37 0 -55 -27q-4 -14 -19 -39h-32q0 2 -2.5 9t-2.5 14q0 21 66 112q-8 18 -34.5 26.5t-37.5 18.5zM223 473q0 -33 8 -49q6 -2 11 -12q0 -27 10 -72q10 -21 41 -64q43 -55 69 -55q39 0 68 13.5t58 53.5q23 33 23 59 q0 6 -1 11q-2 12 -2 90q0 45 14 144q2 14 13.5 50t11.5 42q0 14 -84 71.5t-98 57.5q-8 0 -41 -33t-45 -51q-16 -27 -33 -96q-8 -14 -17 -39q-6 -33 -6 -121z" />
<glyph unicode="h" horiz-adv-x="707" d="M49 170q16 16 21 23q16 23 16 43q12 195 12 190q0 88 -1 88l-1 -2q0 4 5 14.5t5 18.5v178q0 10 -8 45q-8 8 -20 27v-2v2v8t12 29.5t14 31.5q7 25 7 50q0 13 -2 26q-2 22 -2 43q0 123 79 205q47 37 162 133q16 8 23 8q16 0 35 -18v-25q-23 -23 -50 -39q-96 -53 -110 -168 q-2 -98 -4 -194q-12 -163 -13 -163v3q0 -21 27 -21q20 0 35 37q31 6 76 48.5t61 74.5q18 41 39 41h22q8 -10 7 -20q0 -6 -5 -21q-4 -14 1 -22q16 -29 51 -90q2 -16 10 -45q10 -12 25 -33q2 -6 8 -45q12 -12 26 -33q13 -53 13 -164q0 -86 -25 -174q-4 -12 -57 -123 q-8 -8 -23 -28q-2 -12 -10 -33q-20 -31 -51 -74q-37 -53 -115 -121q-16 -16 -51 -39q-45 -25 -98 -76q-37 -37 -68 -38q-27 0 -27 26q0 2 7 21q53 35 108 69q66 47 88 84q4 8 64 68q8 18 26 47q43 64 60 113q14 39 28 127v90q10 14 10 16q0 10 -4 10t-6 2q1 8 1 19 q0 51 -29 164q-18 43 -60 123q14 23 -2 43q4 6 -10 6q-4 0 -45 -31q-55 -39 -80 -53.5t-27 -55.5q-4 -61 -6 -69q3 -3 3 -60.5t-3 -169.5q2 -10 6 -71q68 -43 80 -43q18 0 33 16h23q4 -6 14 -20q-29 -21 -78 -64q-53 -57 -113 -139q-21 12 -22 26q0 6 12 21.5t12 22.5 q0 21 -26.5 48t-50.5 27q-6 0 -28 -13t-28 -15q0 8 7 22q6 18 -15 37z" />
<glyph unicode="i" horiz-adv-x="412" d="M53 774q0 10 44 81t69 87q18 -14 18 -33q0 -8 -4 -23.5t-4 -23.5q20 -21 60 -37q31 -10 61 -18v-19q-20 -20 -51 -61q1 -19 1 -40q0 -43 -3 -95q-2 -18 -13 -76q3 -3 3 -56.5t-3 -156.5q4 -23 9 -45q8 -31 39 -31q6 0 23.5 5.5t23.5 5.5l16 -7q0 -2 3 -6t3 -12 q0 -12 -43 -45q-51 -37 -53 -37q-35 -45 -66 -94h-32q-4 10 0 31q4 29 4 30q0 21 -17 39q-25 23 -37 54.5t-12 121.5q0 37 12 68q0 4 -2 19.5t-2 25.5l13 219v-2q0 57 -7 76q-4 14 -40 29q-4 4 -8.5 11t-4.5 15zM158 1139q0 82 67 82q14 0 45 -29q-16 -121 -80 -121 q-31 0 -32 68z" />
<glyph unicode="j" horiz-adv-x="396" d="M23 -328l37 58q36 57 46 86q15 52 15 209v20t9 92t9 148q0 8 -6 29.5t-6 27.5l3 10q3 10 3 17q-1 16 -1 31q0 52 15 104v188q0 31 -55 51q-4 2 -12 11v16q0 4 108 166q25 -6 25 -37q-2 -70 -4 -55q16 -23 28.5 -25t30 -3t41.5 -17q-14 -18 -33 -62q-18 -63 -18 -164v3 q1 0 10 -162q5 -94 5 -157q0 -47 -3 -77q-2 -29 -2 -59q0 -122 27 -248q2 -10 15.5 -38t13.5 -34v-26q-12 -12 -19 -11q-16 0 -38.5 35t-24.5 52.5t-25 29.5q-18 -12 -35 -55q-10 -31 -22 -61q-21 -51 -88 -107q-16 -12 -35 -12q-14 12 -14 26zM174 1077q0 133 47 133 q70 0 70 -51q0 -27 -29 -66.5t-49 -39.5q-14 0 -39 24z" />
<glyph unicode="k" horiz-adv-x="705" d="M35 154v26q37 25 39 80q2 47 2 94q12 66 12 154q0 131 2 147q0 6 4 29t4 31q0 21 -6 34t-17.5 26t-11.5 24q0 12 29 32l4 3q4 47 15 112q10 53 10 78q0 23 -6 49q14 18 16 45t6 35q39 76 74 111q25 25 75 57.5t62 32.5q33 0 33 -35q0 -23 -57 -45q-20 -6 -47 -47 q-37 -51 -44 -199q0 -63 -10 -207q0 -10 -7 -40.5t-7 -37.5q0 -47 27 -47t129 109q10 4 24 10q8 6 68 76q39 45 65 45q31 0 54 -92q18 -68 18 -92q0 -37 -8 -60q-6 -14 -17 -39q-29 -70 -61 -118q-6 -8 -33 -35q-20 -23 -20 -31q0 -23 43 -92q39 -57 63 -84q4 -4 53 -47 q37 -29 37 -41q0 -10 -37.5 -51t-54.5 -52q-10 -6 -31 -41q-16 -25 -37 -24q-8 6 -14 6v35q0 6 10.5 19.5t10.5 19.5q0 33 -43 100q-27 31 -72 96q-12 43 -41 129q35 27 68 52q47 37 65 73q35 66 35 101q0 31 -27.5 74.5t-50.5 43.5q-25 0 -112 -71q-80 -63 -87 -80 q-29 -51 -30 -103v-253q0 -8 18 -43q14 -27 43 -27q8 0 16.5 6t14.5 6h35q0 -14 12 -26q-21 -10 -63 -37q-25 -20 -74 -86q-33 -43 -60 -58h-3q-17 0 -17 25q0 8 11 30.5t11 28.5q0 14 -32 37q-12 6 -33 17q-6 2 -47 2z" />
<glyph unicode="l" horiz-adv-x="422" d="M43 201q0 6 13.5 28.5t17.5 35t14 122t10 236.5q0 145 -6 170q-4 8 -18.5 24.5t-14.5 26.5q0 -4 26 32q23 31 23 88q0 9 -1 19q-1 12 -1 23q0 70 21 135q8 21 108 213q12 23 44 24q16 0 32 -32q-23 -25 -55 -84q-6 -84 -21 -279q0 -2 1 -119v-11q0 -64 -21 -105v-369 q0 -45 16 -84q21 -51 58 -51q6 0 18 2t17 2q26 0 26 -23q0 -18 -45 -59q-57 -57 -67 -66q-10 -25 -35 -63h-13q-16 6 -16 24q0 12 7 29t7 19q0 37 -27.5 60.5t-53.5 23.5q-18 0 -50 -11q-14 14 -14 19z" />
<glyph unicode="m" horiz-adv-x="1211" d="M51 698q23 39 45 91q14 10 31 28q4 8 47 96h25q8 -6 16 -18q-3 -16 -3 -32.5t3 -33.5q51 -57 62 -90q0 -20 12 -55h14l234 225h20q55 -111 111 -207q31 8 108.5 99.5t120.5 101.5q18 -18 21 -29q6 -21 24.5 -54.5t79.5 -33.5q6 0 17.5 2.5t19.5 2.5q29 0 29 -29q0 2 -1 2 q-3 0 -18 -60q-47 -158 -47 -245q0 -61 22 -150q25 -109 60 -110q6 0 8 5t8 5h25q0 -21 -2 -25q-33 -35 -86 -96q-16 -25 -29 -51q-23 -37 -43 -39q-20 8 -18 41q4 53 4 55q-47 27 -58 78q-8 41 -18 84q-12 37 -12 94q0 6 6 29.5t6 34.5q4 47 14 139q2 21 9 57q0 4 10 18.5 t10 22.5q0 55 -150 117q-10 0 -55 -43q-51 -49 -61 -82t-10 -86v-18q4 -94 4 -103q-2 -33 -4 -94q0 -12 -4.5 -56t-4.5 -51q0 -21 25.5 -37t38.5 -16q6 0 18.5 3t28.5 3q0 -2 3 -14t3 -20q-10 -6 -76 -60q-4 -8 -10 -22q-59 -68 -72 -68h-18q-10 16 -10 31q0 12 7 28.5 t7 20.5q0 43 -115 43q-10 0 -26 14q29 27 67 68q0 27 6 127q3 69 3 109v18q0 6 7 22.5t7 22.5q0 8 -7 27.5t-8 29.5q0 41 -2 80q-4 53 -24 74q-33 39 -70 39q-16 0 -65 -45q-57 -51 -80 -105q0 -33 -2 -100q-4 -33 -8 -100q-2 -10 8 -66q0 -2 -5 -6t-5 -12l6 -5 q-8 -51 -8 -55q0 -55 49 -82q10 6 57 6q8 -8 8 -18q0 6 -135 -160q-10 -12 -29 -12q-8 0 -13 3t-7 3q-2 10 0 31q6 27 6 29q0 51 -47 53q-68 4 -82 16q-2 20 21.5 35.5t27.5 23.5q10 37 19 138q0 6 -2.5 19.5t-2.5 19.5q0 8 15 39q-3 3 -3 46t3 126q-15 45 -15 71v8 q-27 43 -49 43q-25 -12 -47 -4z" />
<glyph unicode="n" horiz-adv-x="812" d="M49 129q0 12 23.5 39t25.5 39q19 88 19 257v17q0 129 -13 178q-12 41 -53 43v31q29 18 64 76q27 43 53 88h43q-1 -16 -1 -29q0 -25 3 -36q16 -39 35 -117q-4 -20 12 -58q84 25 182 129q6 6 84 117q20 -2 23 -24v-37q2 -25 49 -53q35 -20 72 -39q-12 -21 -27 -62 q-29 -137 -29 -307v1q3 0 50 -163q12 -14 26 -14q4 0 21 4q14 4 24 0q13 -11 13 -19q0 4 -7 -18q-53 -33 -79.5 -68.5t-71.5 -105.5q-2 0 -12.5 3t-12.5 3q0 8 2 26.5t2 26.5q0 20 -43 72q-6 8 -23.5 67.5t-17.5 80.5q0 141 7 215q2 20 17 86.5t15 70.5q0 25 -34.5 47.5 t-59.5 22.5q-23 0 -47 -14q-8 -12 -23 -29q-37 -21 -102 -68q-8 -8 -12 -61q-4 -68 -10 -205q-2 -16 -4.5 -54t-2.5 -44q0 -25 39 -47q33 -21 52 -21h16h8q4 -6 14 -20q-115 -106 -176 -164q-21 4 -22 24q0 8 6 32t4 36q-20 27 -59 31q-31 4 -60 6q-2 4 -2 8z" />
<glyph unicode="o" horiz-adv-x="682" d="M53 453q0 -2 8 61q-2 16 -2 41q6 12 13 33q37 59 123 141q63 59 125 119q12 18 34 55h33q4 -29 18 -74q8 -14 37 -36q37 -25 45 -33q25 -31 70 -84q59 -66 59 -228q0 -90 -53 -171q-39 -59 -129 -148q-109 -109 -137 -143q-21 2 -21 32q2 41 -3 50.5t-52 42t-61 45.5 q-35 39 -90 145q-17 35 -17 140v12zM152 528q0 -68 35.5 -143.5t119.5 -149.5q70 -64 103 -65q12 0 8 2q16 2 30 31q6 18 13 35q18 25 35 63q2 31 8 65.5t6 38.5q0 55 -29 123q-20 43 -63 91q-21 25 -72 59q-59 41 -90 41q-45 0 -78 -82q-25 -63 -26 -109z" />
<glyph unicode="p" horiz-adv-x="740" d="M53 723q0 18 97 180h24q14 -14 16 -20q16 -49 50 -140q4 -12 12 -41h22q14 0 48 54q20 33 40 67q18 20 44 56q4 1 9 1q31 0 76 -24q45 -25 74 -57q6 -20 25 -60q18 -16 41 -51q41 -116 41 -180t-6 -139q-8 -63 -35 -111q-12 -21 -42 -43.5t-91 -85.5q-53 -59 -90 -78 l-16 -23q-17 -24 -29 -24q-8 0 -47 27.5t-44 27.5q-23 0 -28 -36v-44q-6 -82 -19 -241q-8 -35 -18 -113q-6 -8 -15 -24h-20l-18 18q-6 40 -6 109q0 26 1 56q1 41 1 73q0 55 -3 86v141q-14 12 -42.5 16t-28.5 15q0 10 21.5 27.5t25.5 27.5q13 20 13 57q0 9 -1 19q-2 2 -8 10 q-3 32 -3 52t3 28q2 4 9 15.5t7 17.5q-3 84 -3 127.5t3 46.5q-2 31 -14 94q-12 31 -37 47q-18 12 -37 25q-2 6 -2 14zM260 205q10 -8 23 -21q23 -6 79 -28q45 -19 51 -19h1q31 0 73 41q20 21 31 74q6 23 10 31q7 20 21 30v125q0 66 -62 211q-4 10 -51 42t-71 32 q-18 0 -31 -8q-41 -25 -62 -76q-4 -16 -4 -53q0 -68 1 -68t1 4q-10 -16 -10 -26v-291z" />
<glyph unicode="q" horiz-adv-x="730" d="M63 410q0 4 1.5 39.5t1.5 52.5q0 4 40 98q21 51 58 82l90 66q14 8 39 28q16 8 45 27q10 18 33 47q29 18 78 59q18 -4 20 -26.5t2 -42.5q16 -12 98 -58q47 -28 47 -59q0 -4 -8 -34t-8 -46q0 -18 5 -58t5 -59q0 -20 -16 -112q-2 -12 4 -37q8 -31 8 -41v-16q0 -29 -4 -82 q-8 -76 -8 -103q0 -10 3 -37.5t3 -40.5q0 -23 -11 -74t-11 -67q-16 -320 -39 -321h-19q-6 0 -20 20v23q0 66 -9 180q-16 176 -18 205q2 55 2 112q0 72 -24 92q-57 -63 -185 -209q-2 -4 -33 -20q-2 23 -10 68q-16 12 -47 40q-55 55 -82 117q-2 16 -9 43t-19 53q0 8 4 23 q-2 10 -4.5 36.5t-2.5 31.5zM186 487q0 -64 23 -129q12 -33 92 -129q37 -47 47 -47q27 0 98 62q12 10 19.5 34.5t11.5 28.5v320q-4 14 -16 34q-10 14 -69.5 44t-76.5 30q-12 0 -71 -59q-35 -33 -41 -74q-18 -115 -17 -115z" />
<glyph unicode="r" horiz-adv-x="601" d="M49 727q66 111 101 176h32q-2 -21 2 -59q23 -25 64 -82q23 -49 39 -94q31 29 73 88q18 37 35 75q33 66 53 66q25 0 35 -18q56 -128 56 -132q0 -8 -26 -70.5t-36 -74.5q-16 8 -96 127h-21q-18 -47 -61 -131l-4 -301q0 -70 6 -82q21 -45 55 -45q14 0 41 29h19q6 -8 6 -23 q0 -8 -8 -26q-43 -35 -160 -152h-25v21q0 50 -8 69q-35 66 -121 72v26q16 6 43 23q13 17 13 75v23q-1 23 -1 45q0 44 3 84q0 10 4 41q4 25 4 31q0 37 -2 55.5t-17 79.5q-8 31 -45 49q-45 23 -53 35z" />
<glyph unicode="s" horiz-adv-x="646" d="M63 745q0 20 23 84q12 12 25 33q2 33 26 90q6 35 27 111q23 68 113 151q68 63 151 105q8 4 43 4q39 0 89 -45t67 -45q6 0 20 9t19 9q28 0 28 -20q0 -14 -12 -23q-37 -14 -74 -53q-27 -31 -57 -61q-39 25 -119 69q-4 8 -16 19q-39 23 -68 24q-23 0 -72 -61 q-27 -35 -38 -60.5t-18 -51t-7 -48.5q0 -4 7 -33.5t9 -44.5q10 -86 23 -262l6 -276q-16 -14 -20 -93q-2 -51 -7 -163q-6 -102 -6 -105q0 -10 -10 -24q-4 -45 -4 -93q0 -27 4 -153q-4 -8 -10 -21q3 -31 3 -55q0 -48 -13 -70h-19q-19 12 -19 47q0 8 1 17q-4 8 -9 27v241 q0 51 -4 150q-6 18 -14 61q-2 20 3 56t5 44q0 16 -24 84q-4 10 0 19q12 33 6 55q-6 8 -12 27q0 49 -5 145v7q0 24 7 122q-8 8 -33 23q-16 10 -15 28z" />
<glyph unicode="t" horiz-adv-x="553" d="M49 719q2 12 41 70q8 18 21 51q18 16 47 55q29 57 84 168q10 23 22 67q2 20 10 56q16 25 45 74q23 -10 37 -43l-96 -377q0 -8 10 -15h37q8 0 60.5 5.5t60.5 5.5q10 0 27.5 -10.5t17.5 -20.5q0 -103 -56 -103h-1q-6 0 -72.5 8.5t-71.5 8.5q-33 0 -34 -43v-297 q0 -6 7 -19.5t7 -17.5q0 -27 14 -78q21 -31 88 -71h17q8 0 30.5 11t28.5 11q12 0 31 -18q-16 -35 -66 -88q-57 -57 -76 -93q-10 -18 -28 -18q-6 0 -31 12q2 16 4 47q0 8 -41 43q-47 41 -78 84q-14 18 -24 41q-6 18 -10 133q-1 7 -1 24q0 34 3 110q0 16 -2 63q-1 20 -1 36.5 t1 27.5q2 33 12 59q4 10 2 20q-20 25 -39 25q-4 0 -20 -4q-12 -2 -17 0z" />
<glyph unicode="u" horiz-adv-x="801" d="M49 747q0 10 51.5 80t61.5 70q39 0 67 -96q21 -74 21 -127q0 -8 -5 -19.5t-5 -17.5v-105q0 -37 -4 -86q-10 -14 -9 -20v-141q16 -27 59.5 -73t57.5 -46q10 0 51 41q21 23 42.5 43t37.5 41q16 184 16 354q0 59 -8 80q-6 14 -24 20q-18 4 -39 0q-8 2 -23 2q-10 31 21 46 q14 4 45 22q25 23 51 47q37 35 55 35q21 0 31 -20q-1 -4 -1 -9q0 -40 62 -96q8 -21 7 -24q0 -6 -17.5 -19.5t-19.5 -24.5q-29 -96 -29 -229q0 -4 5 -22.5t3 -28.5q-2 -21 -2 -41q0 -74 23 -141q6 -20 44 -32.5t44 -17.5v-20q-43 -47 -105 -133q0 -14 -14 -41h-20 q0 27 -13 80q-20 21 -53 67q-10 18 -15 50t-32 32q-16 0 -94 -98q-98 -119 -109 -131h-20q2 18 -2 51q-14 29 -47 55.5t-62 26.5q2 0 -55 -10l-10 6q0 -10 18 41q0 23 4 68q2 2 8 10q4 121 4 196q0 37 3.5 108t3.5 73q0 82 -46 98q-4 4 -9 11t-5 15z" />
<glyph unicode="v" horiz-adv-x="762" d="M55 811q0 18 60 96q10 18 37 54q20 25 41 26q10 0 16 -4l6 -4l4 -5q4 -5 4 -13q0 4 -10 -19q-20 -12 -23 -25q-6 -43 -6 -53q0 -31 13.5 -58.5t17.5 -51.5q12 -29 33 -86h16q23 23 127 116q78 70 111 119h31q6 -12 6 -53q0 -18 30 -47q41 -41 49 -53q21 -31 56 -113 q-3 -64 -3 -97t3 -36q-2 -20 -25 -119q-4 -21 -12 -66q-21 -84 -61 -124q-41 -45 -115 -92.5t-123 -61.5q-10 -4 -51 -43q-10 0 -19.5 3t-11.5 3q4 12 15.5 35.5t11.5 30.5q0 29 -97 73q4 0 4 -1q0 -2 -77 -15q-8 6 -7 16q0 6 13.5 24.5t17.5 29.5q23 80 23 178 q0 53 -15 157q-10 16 -22 48q0 20 -10 61q-18 37 -35 74q-23 53 -23 96zM274 547q0 -35 17 -303q125 -96 135 -95q23 0 57 31q8 14 8 19q20 12 25 20q12 29 27 90q0 12 -2 25q22 49 22 47q0 12 -10 12q3 31 3 60q0 51 -9 93q-14 66 -43 105q-61 78 -113 78q-14 0 -67 -47 q-43 -41 -50 -76v-59z" />
<glyph unicode="w" horiz-adv-x="1092" d="M47 719v49v49q10 35 47 84l68 68q12 16 25.5 36.5t31.5 20.5q29 0 29 -29q0 -4 -37 -49q-41 -51 -52.5 -77.5t-11.5 -49.5q0 -8 111 -182q20 2 37.5 21.5t34.5 41.5q4 12 14 31q47 53 141 162q18 14 35 14q10 -15 10 -41q0 -11 -2 -24q29 -25 62 -80q20 -35 39 -72 q4 -16 24 -47q4 0 9 2q164 182 190 242q14 20 23 20q23 0 26 -35q0 -21 2 -45q21 -21 62 -67q27 -35 39 -90q26 -112 26 -139q0 -125 -26 -199q-20 -57 -52 -107.5t-80 -87.5q-45 -23 -135 -76q-20 -18 -39 -36q-37 -29 -63 -29q-8 0 -14.5 3t-8.5 3q0 8 4.5 29.5t4.5 29.5 q0 35 -48 60q-37 20 -63 20q-47 0 -116.5 -47t-96.5 -92h-25q0 21 -10 62q-27 49 -110 49q-31 0 -46 -11q-25 10 -26 31q0 4 17.5 35t23.5 49q14 57 16 100q0 8 -6 21q10 33 10 51q0 8 -4 18.5t-4 14.5q0 6 3 20.5t3 18.5t-6 13t-8 16q2 16 -2 47q-6 25 -23 69 q-18 35 -53 111zM258 403q0 -6 7 -40.5t9 -49.5q-6 -21 -8 -67q10 -18 66 -43q80 -37 94 -37q8 0 20.5 6t14.5 6q37 45 51 103q2 8 14 110q0 -1 0 146q0 27 -30 100q-6 14 -52 47q-2 2 -17 18.5t-22 16.5q-10 0 -26 -10q-43 -43 -96 -109q-18 -36 -18 -62l1 -8q0 -26 -4 -72 q-4 -52 -4 -55zM633 268q0 -20 59.5 -67t91.5 -47q55 0 91 98q27 76 28 133v78q0 6 5 14.5t5 14.5q0 12 -10 12q2 12 2 28q-10 41 -35 111q-8 18 -44.5 47t-49.5 29q-14 0 -63 -54.5t-56 -76.5q-6 -14 -2 -37q4 -31 4 -37q-4 -35 -16 -145q-10 -96 -10 -101z" />
<glyph unicode="x" horiz-adv-x="607" d="M41 -14q0 47 12 98q0 2 17 35q21 25 69 78q8 8 17 45q-1 8 -1 18q0 21 3 55q0 4 5 14.5t5 16.5l-4 291q2 14 -26.5 51t-47 43t-49.5 23q21 27 59 80q14 25 25 51q25 45 41 45t24 -13q0 -18 7 -55q12 -12 32 -39q12 -29 25 -61q25 -55 37 -55q10 0 61 71.5t64 104.5 q16 41 41 41q8 0 22 -7q70 -139 70 -155q0 -6 -9.5 -19.5t-11.5 -17.5q-12 -33 -30 -100q-6 -4 -19 -13q-8 4 -43 72t-61 68q-45 0 -70 -142v-78q-2 -25 -14 -75q0 -156 0 -154q2 -23 16.5 -58.5t61.5 -35.5q6 0 22.5 12t22.5 12q14 0 28 -12v-33q-51 -37 -96 -79 q-6 -6 -72 -89q-16 10 -19 52.5t-34 62.5q-21 14 -43 14q-18 0 -42.5 -22.5t-31.5 -48.5q-14 -35 -14 -94q0 -72 35 -121q12 -18 46 -45t46 -27q6 0 9 3t10 3q21 0 71 -8q12 -2 29 -22q2 -99 -76 -99h-2q6 0 -86 25q-6 14 -31 37q-39 37 -43 41q-14 16 -37 112 q-20 86 -20 103z" />
<glyph unicode="y" horiz-adv-x="861" d="M59 715q0 6 43 45q51 47 68 69q6 8 47 78h25q4 -21 14 -69q16 -20 41 -66q31 -74 31 -111q0 -8 -17.5 -157.5t-17.5 -157.5q0 -72 8 -100q2 -10 34 -34t52 -24q12 0 61 41q6 8 62 39q41 25 51 47q4 31 14 88q-14 39 -14 66q4 49 8 96q0 6 7.5 27.5t7.5 28.5 q0 39 -26 68.5t-58 29.5l-35 -17h-19q0 2 -3 9.5t-3 15.5q0 4 52 53q61 57 81 82q2 12 13 33q14 14 26 14q29 0 29 -26q0 -8 -11.5 -27.5t-11.5 -26.5q74 -43 89 -43l53 33h20q0 -2 5.5 -10t5.5 -16q0 -4 -33 -46t-39 -61q-3 -10 -3 -29t3 -47q2 -6 -1 -20t-3 -19 q0 -115 -11 -186q4 -25 5 -78q-2 -21 -7 -80q-6 -49 -6 -57q0 -4 9 -18q-2 -18 -1 -50q12 -27 27 -84q10 -53 10 -82t-55 -96q-27 -33 -57 -65q-4 -16 -19 -43q-18 -20 -51 -56l-100 -63h-23q-37 0 -111.5 55.5t-111.5 55.5q-6 0 -39 -19.5t-39 -19.5q-31 0 -31 30 q0 25 35 41q23 10 45 19q23 20 72 59q21 14 47 14q23 0 100.5 -57t114.5 -57q41 0 76 61q18 33 18 96q0 6 -18.5 58.5t-24.5 77.5q-2 16 -8 196q-6 8 -18 21q-82 -55 -238 -170q-16 -21 -45 -64h-25q-2 18 -4 51q-4 27 -49 56q-31 20 -61 39q14 16 31 51q10 47 10 117 q0 18 2 61q2 51 7 66.5t5 25.5v199q0 10 -18.5 28.5t-28.5 18.5t-43 -31h-20q0 2 -3.5 8.5t-3.5 14.5z" />
<glyph unicode="z" horiz-adv-x="529" d="M90 344q49 61 57 72q12 23 37 67q21 31 45 62q14 21 13 61q0 49 -49 103q0 6 -5.5 29.5t-5.5 29.5q0 41 77 107.5t108 66.5q25 0 26 -25q0 -8 -3 -16t-3 -10q-8 2 -14 2q-41 0 -41 -53q0 -21 20 -52q27 -43 34 -62t7 -62q0 -59 -102 -142q-12 -10 -41 -47t-29 -51 q0 -10 59.5 -64.5t71.5 -54.5q6 0 32 19.5t34 19.5q12 0 31 -18v-25q-62 -50 -62 -66q0 -6 11.5 -27.5t13.5 -33.5q2 -4 22 -106q15 -82 15 -76v4q-1 0 -7 -125q-6 -6 -14 -18q-8 -29 -6 -43q-8 -25 -27 -68q-37 -66 -79 -95.5t-95 -29.5q-35 0 -94 80q-2 12 -10 33 q-37 64 -37 133q0 88 14 143q10 47 39 84q2 2 47 51q29 33 29 41q0 33 -37 54q-53 29 -108 30q-11 13 -11 23q0 8 37 55zM125 -137q0 -8 7 -22.5t9 -18.5q0 -20 8 -53q33 -74 76 -74q23 0 52.5 35t35.5 57q19 80 19 141q0 37 -25 146q-10 41 -43 86h-22 q-72 -96 -94.5 -150.5t-22.5 -146.5z" />
<glyph unicode="{" horiz-adv-x="748" d="M25 745v19q14 -2 39.5 11.5t31.5 31.5q12 70 41 207q16 57 56 155q25 41 85 87.5t111 58.5q35 8 57 8q31 0 78 -39t58 -39q23 0 47 43q12 10 33 29h18q8 0 10 -12t-4 -19q-20 -25 -45 -84q-10 -49 -12 -135q-2 -109 -4 -137q-2 -18 -7.5 -63.5t-5.5 -53.5v-147 q0 12 -20 -129q-2 -14 -2 -88q0 -18 -8.5 -37t-8.5 -25t4.5 -16.5t4.5 -16.5q0 8 -4 -39q-2 -27 6 -44t38.5 -43.5t41.5 -26.5q6 0 16 2t18 2q7 -5 7 -15q0 -23 -13 -40q-31 -29 -96 -99q-2 -8 -4 -22q-8 -6 -21 -17h-26q0 8 5 32t5 30q0 37 -36 65.5t-68 28.5 q-6 0 -15.5 -6t-19.5 -6q-12 21 -11 37q21 12 31 18q23 106 31 188l16 183q0 43 -8 129q-4 8 -14 26q-57 -12 -61.5 -12t-37 -3t-40.5 -3q-16 0 -48 24q-31 -29 -32 -81q0 -14 3 -40t3 -38q0 -29 -10 -68l8 -16q-23 -168 -29 -303q-8 -18 -18 -56q-4 -31 -11 -100 q-6 -119 -28 -379q2 -16 -19 -47h-16q-18 18 -16 47q2 16 9 50t7 40v373q0 4 -8 54t-8 69v201q0 8 -5.5 25t-5.5 22q0 8 10.5 81.5t10.5 81.5q0 18 -14.5 45t-26.5 27q-8 0 -11 -3t-8 -3q-8 0 -18 8t-16 12zM209 1022q0 -45 14 -107q16 -72 37 -92q25 0 77 -4l52 -4h51 q35 0 43 23q2 29 4 57q12 115 11 178q12 0 18 6v41q-25 47 -72 78t-86 31q-53 0 -89 -33t-40 -92q-4 -6 -12 -17q-8 -23 -8 -65z" />
<glyph unicode="|" horiz-adv-x="801" d="M35 733q0 8 10 15.5t12 13.5q16 51 27 78q21 43 55 123q6 27 15 73q10 31 45.5 85.5t117.5 109.5q51 18 129 49q2 0 17.5 12.5t25.5 12.5q20 0 95 -58.5t80 -58.5q33 0 43 33h36q3 -5 13 -17q-12 -12 -84 -78q-23 -29 -70 -82q-121 104 -162 132q-12 6 -61 6 q-21 0 -73 -26t-58 -44q-45 -149 -45 -197q0 -6 10 -55q14 -55 16 -76q2 -14 0 -43q-4 -35 -4 -41q0 -8 8.5 -24.5t8.5 -24.5q0 -117 -6.5 -163t-12.5 -89q2 -20 0 -63q-10 -35 -24 -105q0 -29 -4 -84q-2 -8 -10.5 -31.5t-8.5 -35.5q0 -55 -8 -148q-10 -117 -12 -149 q0 -4 -6.5 -17.5t-6.5 -21.5q0 -100 2 -123q-18 -23 -26 -24q-23 0 -31 24q14 164 14 141v396q-14 35 -14 34q0 207 2 263q0 23 -8 87t-8 66q0 -20 24 84q-18 33 -55 23q0 2 -4 6t-4 12zM365 705q66 74 190 202q23 16 68 53h32q6 0 6 -14q0 -6 -31.5 -60.5t-41.5 -78.5 q21 -20 43 -19q6 0 28.5 4.5t30.5 4.5q18 0 43 -23q0 -94 -29 -94q-8 0 -51 9t-51 9q-35 0 -45 -26q-2 -57 -8 -175l-6 -118q0 16 24 -152q66 -55 94 -55l37 6q14 -14 13 -18q0 -16 -140 -172h-26q0 21 -8 57q-20 16 -52 51q-8 16 -22 39q-18 16 -41 51q-6 31 -6 84 q-6 -8 -6 6q0 35 20 150q-2 -10 -8 39q-2 14 12 96q10 63 10 98q0 39 -32 39q-6 0 -15.5 -3t-19.5 -3z" />
<glyph unicode="}" horiz-adv-x="760" d="M29 698q23 88 63 166q6 10 39 121q18 37 51 105q21 49 90 114q80 74 134 74q21 0 75 -37q47 -35 76 -35q2 0 39 33h23l14 -14q-18 -41 -68 -54q-6 -16 -26 -43q-51 -51 -78 -51q-10 0 -54 42t-85 42q-49 0 -99 -86q-43 -76 -43 -121q0 25 19 -96q6 -35 20 -180 q0 4 -16 -307q0 -45 -8 -135q-8 -21 -18.5 -61t-12.5 -79q0 -29 -4 -94q-4 -8 -11 -29q-2 -61 -10 -184q-2 -8 -6 -117q-2 -63 -22 -98q-2 0 -23 8q-16 37 -8 80q2 33 6 100q2 23 -2 217q-2 4 -8 11q4 27 4 84q0 43 -3 130t-3 89v377q-14 10 -45 28zM387 688q90 172 111 172 q23 0 24 -24q0 -16 -12 -45q0 -18 29.5 -33t36.5 -15q8 0 9 2.5t9 2.5q18 0 33 -31q-16 -8 -39 -29q-6 -14 -15 -45q-2 -8 -2 -133q0 -14 -8 -57t-8 -48v-163q0 4 8 -9q16 -82 51 -83q4 0 13.5 5t19.5 5q21 0 29 -17v-26q-82 -47 -144 -138q-2 -4 -36 -18q-14 10 -25 23 q10 33 12 63q-21 25 -61 88q-8 14 -8 74q0 119 34 223q-6 190 0 195q-21 49 -49 49q-2 4 -12 12zM565 1004q0 6 5 36.5t5 40t13 33.5q25 8 67 8q45 0 45 -41q0 -39 -20 -59q-57 -57 -82 -57q-33 0 -33 39z" />
<glyph unicode="~" horiz-adv-x="869" d="M-39 774q25 18 51.5 35.5t30.5 50.5q-2 27 2 74q8 20 18 53q2 33 15 100q25 64 90 130q72 76 135 90q4 2 25 14q16 8 39 8q53 0 125.5 -42t68.5 -42q14 0 69.5 45t86.5 45q51 0 89 -28.5t56 -28.5q20 0 45 18q25 -12 25 -28q0 -8 -80 -117q-18 -23 -37 -23 q-14 0 -75.5 50.5t-112.5 50.5q-21 0 -70 -41q-21 -18 -39 -44t-20 -57q-8 -80 -7 -127q0 -37 35 -118q18 -10 35 -10q6 0 27.5 5t27.5 5q70 0 70 -58q0 -10 -29 -69q-14 2 -49 15t-41 13q-29 0 -34 -34q2 12 2 -35v-176q0 -6 -4.5 -31t-4.5 -35q-2 -39 -4 -117 q-8 -100 -24 -301q-10 -39 -21 -118q0 -84 -6 -252q0 -2 -14 -19h-19q-18 0 -18 25q0 33 8 201q0 21 -4 71.5t-4 67.5q2 72 -10 241q0 4 -7 234q0 12 -7 56t-7 73q0 21 4 63q6 51 6 60q2 4 -4 20q-66 0 -198 11q-18 -14 -17 -58q0 -16 5 -52t5 -40l-79 -960q-4 -2 -13 -7 q-29 12 -30 31q0 16 3 54t5 51q4 107 0 223q-8 35 -13 96q0 -2 5 111q0 4 -15 145q0 45 -2 135q-10 90 -20 268q-10 12 -25 11h-29q-12 2 -16 18zM139 1042q0 -12 19 -129q12 -23 28 -67q41 -14 74 -14q90 0 135 6q10 61 35 174q6 16 27 63q18 41 18 47q0 18 -35 49 q-29 25 -45 33q-63 25 -102 25q-68 0 -113 -53q-21 -25 -33 -89q-8 -39 -8 -45z" />
<glyph unicode="&#xa0;" />
<glyph unicode="&#xad;" horiz-adv-x="639" d="M88 627q33 53 186 159l250 164q0 -6 4.5 -27.5t4.5 -31.5q0 -45 -27 -94q-16 -31 -250 -131q-16 -6 -61 -39t-56 -33q-8 0 -27.5 15.5t-23.5 17.5zM109 391l374 307h56q-6 -21 -4 -45l4 -39q0 -41 -183 -147q-156 -92 -225 -113q-4 0 -22 37z" />
<glyph unicode="&#xc4;" horiz-adv-x="1160" d="M43 975q0 57 37 166q0 16 10 45q14 21 55 53q10 14 32 33.5t75 52.5q20 10 61 16q10 0 27.5 6.5t22.5 6.5q164 0 271 -101.5t107 -263.5q0 -35 -37 -207q-18 -80 -75 -141q-14 -25 -47 -78q-14 -6 -37 -20q-8 -10 -19 -31l-72 -39q-71 -39 -71 -53q0 -18 43 -57 q27 -23 55 -48q14 -16 27.5 -35.5t26.5 -19.5q8 0 106 74q10 14 29 35q37 14 77 26q47 20 54 47q2 14 -4 43q-8 39 -8 52q2 -18 12 55q-2 -8 -8 45q-2 8 8 68q-2 -16 -2 34q0 2 2 11.5t2 15.5q6 51 12 151q6 6 14 17q2 47 11 131q2 10 8 31q-2 20 0 67q6 29 26.5 41t40 25.5 t91.5 97.5q8 2 26 12q6 4 19.5 21.5t21.5 17.5q31 -1 31 -26q0 -23 -14 -47q-12 -8 -27.5 -29t-24.5 -47q-41 -123 -35 -184q0 -6 -7 -19.5t-7 -19.5q-4 -64 -12 -123q0 -37 -8 -111v-246q10 -39 28 -123q4 -49 25 -139q4 -12 43 -18q33 -6 33 -37q0 -18 -19.5 -33.5 t-89.5 -85.5q-59 -59 -67 -59h-29q-12 12 -10 35q2 31 2 34q-16 43 -43 129q-4 37 -8 72q-12 64 -41 64q-14 0 -84 -48q-61 -43 -80 -63q-10 -21 -35 -53q-25 -12 -76 -52q-18 -31 -35 -63q-35 -61 -51 -61q-18 0 -22 17t-7 36q-39 109 -129 190q-8 16 -28 35q-25 12 -78 33 q-10 4 -51 3t-62 17v27q14 12 41 25q47 14 74 14h37q8 0 39 14q20 10 39 17q16 2 45 10q21 8 88 49q16 20 53 53q45 29 57 51q6 10 15 50q14 27 39 90q8 21 8 75q0 4 -6 68t-8 96q-2 72 -50.5 134.5t-117.5 89.5q-35 12 -136 12q-21 0 -84 -35q-12 -4 -61 -74q-6 -10 -6 -30 q0 -27 6 -44.5t43 -37.5q31 -18 70 -17q8 0 11 2t9 2q35 0 88 -30q16 -8 40 -54.5t24 -74.5q0 -47 -25 -107q-27 -66 -61 -86q-8 -12 -27 -31q-37 -23 -68 -24h-73q-6 0 -29 6t-33 6q-10 10 -26 21v22q14 23 39 23q8 0 50 -8.5t48 -8.5q21 0 65.5 35t44.5 62q0 12 -14 37.5 t-29 31.5q-64 29 -82 29q-8 0 -8 -2q0 -4 -6 -4q-33 0 -84 41q-18 25 -49 73q-2 8 -2 21zM614 1509q0 31 64 31q69 0 69 -49q0 -4 -69 -158q-16 0 -22.5 10.5t-16.5 57.5q-8 8 -20 29q-6 59 -5 79zM848 1475q0 64 39 65q-14 0 71 -8q29 -28 29 -51q0 -4 -16 -25 q-16 -27 -43 -82q-2 -16 -10 -41h-31q-39 160 -39 142z" />
<glyph unicode="&#xd6;" horiz-adv-x="1354" d="M43 621q0 90 35 153q20 25 51 76q43 21 106 78q76 70 95 84q64 43 184 121q4 2 6 14q23 16 66 47q29 25 57 53q55 47 70 47q8 0 35 -14q-2 -2 -9 -18q-21 -14 -56.5 -42t-51.5 -69q-6 -20 -6 -74q0 -14 14 -71q-2 -20 -2 -60q2 -16 24 -26q6 4 44 47q35 35 102 114 q20 41 65 115q21 21 56 64q37 -16 37 -39q0 -8 -17 -23q-23 -21 -26 -25q-18 -21 -17 -45q0 -33 23 -53q29 -25 59 -49q20 -8 55 -25q98 -53 165 -140t69 -161q0 -6 7 -23.5t7 -23.5q0 -109 -26 -145q-10 -12 -29 -39q-8 -21 -27 -57q-12 -16 -78 -82q-25 -25 -67 -72 q-16 -12 -49 -37q-41 -37 -123 -112q-29 -37 -88 -105q-12 -12 -45 -12q-6 0 -48 6t-49 6q-6 0 -13 -3t-15 -3q-6 0 -26.5 5t-30.5 5q-141 0 -273 109q-80 68 -129 118q-14 27 -43 84q-2 4 -51 111q-27 64 -30 95.5t-3 62.5q0 4 -2 15t-2 18zM205 674q0 -94 35 -193 q12 -18 26 -45q4 -29 37 -74q25 -37 51 -73q80 80 95 96q39 45 65 96q12 12 25 33q8 60 8 74q0 80 -37 219q-20 76 -19 102q0 4 15 166h-19q-29 -27 -90 -82q-29 -18 -73 -49q-45 -51 -56 -70q-20 -29 -49 -96q-14 -27 -14 -104zM391 250q51 -25 101 -51q61 -31 114 -35 q8 -2 26.5 -6t24.5 -4h68q64 0 115 14q61 14 86 33q182 145 186 268q8 8 19 23q0 20 4 65q4 39 4 45q0 53 -34 118.5t-85 108.5q-39 20 -105 58q-35 21 -71 65q-12 14 -19 47q-8 27 -26 33l-66 -86q-41 -51 -74 -67q0 -18 6.5 -41t6.5 -27q10 -78 10 -176h20q43 27 50 27 q18 0 30 -13v-28q-14 -10 -57 -20.5t-53 -18.5q-25 -18 -68 -60q-4 -18 -14 -45q-78 -98 -127 -149q-2 -2 -47 -39q-27 -21 -25 -39zM629 1516q0 31 65 32q68 0 68 -47q0 -6 -66 -158q-18 0 -25 9.5t-16 58.5q-8 8 -20 27q-6 61 -6 78zM864 1483q0 64 39 65q-14 0 70 -8 q30 -26 30 -51q0 -2 -16 -23q-16 -29 -43 -84q-2 -14 -10 -39h-31q-39 160 -39 140z" />
<glyph unicode="&#xdc;" horiz-adv-x="1121" d="M53 254q0 2 60.5 52t78.5 85q45 102 44 156q0 4 -4.5 36.5t-4.5 45.5q-35 90 -49 141q-6 20 -16 96l-6 10q-7 9 -7 17v24.5v22.5q0 180 148 340q6 16 22 37q39 31 52 31q8 0 14 -2.5t8 -2.5v-32q0 -2 -31 -37q-35 -41 -45 -58q-16 -25 -22 -55q-14 -57 -14 -117 q0 -45 14 -77q20 -53 35 -95q0 -14 4 -45q12 -25 27.5 -72.5t15.5 -109.5q0 -49 -31 -106q-16 -29 -67 -107q-43 -64 -43 -72q0 -20 36 -40q23 -12 47 -25q18 -12 54 -39q23 -27 47 -55q35 -37 67 -37q6 0 38 21.5t42 33.5q27 20 80 60q31 16 80 57q20 27 14 172q4 53 2 162 q0 14 4 127q2 51 1 202q0 10 4 41t4 37q0 76 -41 76q-8 0 -27 -10q-25 -10 -35 -12q-20 20 -20 34q0 29 25.5 38t49 21.5t70.5 69.5q43 49 49 49q20 0 33.5 -21.5t24.5 -41.5q4 -6 57 -49q37 -31 43 -66q-12 -8 -70 -55q-2 -45 -4 -147q-4 -94 -4 -97v-141q0 18 -10 -133 q-2 -35 2 -96q2 -74 2 -95q0 -4 -8 -21t-8 -22q0 -61 18 -112q23 -70 68 -70q25 0 49 60h25q8 -6 8 -31q0 -27 -8 -39q-20 -16 -54 -43q-64 -57 -108 -113q-29 -8 -21 -8q-41 0 -78 113q-8 8 -20 22q-10 25 -21 74q-2 33 -2 66q-4 0 -10 2l-6 2l-338 -273q-14 2 -43 39 q-35 47 -47 57l-70 58q-45 33 -77.5 44t-64.5 20.5t-32 27.5zM426 1524q0 29 65 30q70 0 70 -47q0 -6 -69 -159q-18 0 -24.5 11t-16.5 58q-8 8 -19 27q-6 61 -6 80zM661 1489q0 64 39 65q-14 0 70 -8q29 -26 29 -51q0 -2 -15 -23q-16 -27 -43 -85q-2 -14 -10 -39h-31 q-39 160 -39 141z" />
<glyph unicode="&#xdf;" horiz-adv-x="713" d="M25 727q23 64 71 186q16 55 53 162q25 57 113 129q21 18 72 37q8 8 28 23q20 8 60 28q8 4 16 4q29 0 87.5 -42t72.5 -42q6 0 8 -3t8 -3q8 0 30 9.5t34 11.5q0 -2 3 -6.5t3 -12.5q0 -21 -70 -75l-82 -62l-94 74q-53 37 -114 37q-23 0 -70 -44t-55 -71q-18 -59 -17 -135 q0 -27 11 -119q2 -35 6 -102q4 -37 4 -78q0 -47 -7.5 -137.5t-7.5 -135.5q0 -20 9 -38h20q12 12 45 32q209 109 209 207q0 4 -51 115q-8 6 -25 22q-29 47 -30 74q0 37 37.5 91t88.5 91h19q12 -12 12 -20q0 -6 -27.5 -44t-27.5 -44q0 -4 50 -82t58.5 -101.5t8.5 -43.5 q0 -27 -9 -39q-29 -41 -100 -121q-23 -16 -70 -54q31 -20 86 -63q18 -20 56 -65q27 23 84 57q8 -6 14 -6v-27q-66 -61 -67 -86q0 -8 22.5 -82t22.5 -80t-7.5 -18t-7.5 -17q-4 -121 -6 -133q-8 -84 -37 -141q-35 -66 -112 -133q-27 -25 -76 -25q-63 0 -100 80q-29 66 -21 107 q0 6 -4 20.5t-4 20.5q0 84 14 143q0 6 57 102q16 25 58 72q20 12 49 39q2 6 2 14q0 25 -55 68q-12 14 -39 35q-31 14 -68 14q-76 0 -90 -35q-6 -59 -14 -119q-4 -70 -21 -213q-16 -74 -16 -147q0 -6 -4 -21.5t-4 -21.5q-4 -41 -4 -141q-2 -2 -11.5 -5.5t-11.5 -5.5 q-21 8 -22 31q0 45 2 142q4 141 6 231q0 -25 -8 102v205q0 12 -3.5 34.5t-3.5 33.5q-6 150 3 323q-12 8 -39 33zM281 -174q0 -31 26 -100q29 -80 58 -80q55 0 96 90q37 76 37 149q0 8 6 29t6 27q-18 203 -55 204q-6 0 -68 -69q-90 -98 -98 -225q-8 -27 -8 -25z" />
<glyph unicode="&#xe4;" horiz-adv-x="754" d="M47 416q0 31 17.5 90t33.5 86q68 111 164 180q35 16 103 53q39 29 114 84h23l10 -8q2 -12 -3 -39.5t-5 -30.5q0 -45 65 -79q43 -20 86 -41v-15q-33 -29 -49 -47q-31 -33 -33 -51q2 -20 2 -57q-20 -96 -20 -107q0 -39 12 -69q29 -76 51 -111q6 -10 33 -27.5t27 -38.5 q0 -8 -14 -22q-16 -21 -19 -27q-2 -14 -10 -33q-72 -96 -90 -90q-4 4 -17 72q-59 98 -80 180q-8 4 -20 15q-29 -8 -82 -105q-10 -6 -26 -18q-4 -14 -13 -39q-16 -12 -35 -39l-22 -55q-8 -6 -21 -17h-26q0 49 6 66q-23 25 -76 80q-23 37 -63 112q-4 8 -9 62q-2 14 -8 47 t-6 39zM186 487q0 -8 4.5 -17t4.5 -11q-8 -59 4 -101q6 -25 34 -69q16 -23 43 -48.5t35 -25.5q10 0 47 43q51 57 60 64q0 -2 -4 86q-2 57 20 122q31 105 31 113q0 20 -64 76q-55 49 -67 55q-29 -29 -78 -74q-12 -10 -39 -90q-31 -86 -31 -123zM203 1130q0 29 65 29 q68 0 68 -47q0 -6 -68 -158q-16 0 -23 10.5t-16 57.5q-8 8 -20 27q-6 61 -6 81zM438 1094q0 64 39 65q-14 0 70 -8q29 -26 29 -51q0 -2 -15 -23q-16 -27 -45 -84q0 -14 -8 -39h-31q-39 160 -39 140z" />
<glyph unicode="&#xe5;" />
<glyph unicode="&#xe6;" horiz-adv-x="730" d="M49 766q0 16 84 158h27q10 -35 35 -101q14 -18 36 -51q6 -14 17 -45q12 -23 28 -49q35 27 74 72q-2 8 2 28q2 6 19 23q4 14 9 36.5t44 86.5q16 0 29 -27q8 -18 16 -35q14 -8 37 -24q53 -61 63 -72q41 -51 47 -78q6 -20 25 -86q18 -57 18 -63t-5 -18.5t-5 -18.5 q0 -100 0 -99q-12 -92 -39 -168q-12 -12 -35 -36q0 -8 -4 -21q-2 -4 -39 -51q-20 -23 -22 -49q-33 -35 -102 -105q-14 -16 -82 -55q-16 -18 -49 -47q-90 -66 -89 -106q0 -59 76 -58q8 0 10 3t9 3q12 0 23 -12t11 -20q0 -14 -19 -33t-26 -19q-45 0 -75 19q-12 6 -35 39.5 t-23 38.5q0 59 19 96q14 23 67 80q55 43 146 127q100 113 116 174q4 6 13 16q14 49 30 96q16 61 15 113q0 63 -26.5 145t-57.5 113q-14 12 -45 27.5t-41 15.5q-59 0 -80 -115q-6 -35 -21 -139q2 -25 2 -78q0 -6 -7 -20t-7 -21q0 -57 6 -73.5t30 -39t32 -22.5q18 0 51 33h20 q0 -2 2.5 -7t2.5 -12q0 -23 -43 -46t-62.5 -68t-36.5 -88q-6 -4 -16 -13q-4 4 -13 7q0 23 -4 69q-10 47 -57 68q-12 4 -59 12q-27 4 -27 19q0 4 25.5 28.5t25.5 46.5q2 31 6 88q0 2 7.5 11.5t7.5 15.5q0 8 -6.5 22.5t-8.5 22.5q6 20 7 57q-2 47 -9 132q-6 33 -34 79 q-16 21 -43 35q-18 10 -17 33z" />
<glyph unicode="&#xe7;" />
<glyph unicode="&#xe9;" />
<glyph unicode="&#xf6;" horiz-adv-x="711" d="M51 502q0 63 9.5 90t52.5 90t141 162q94 92 106 92q6 0 31 -12q0 -4 -6 -21q-4 -14 2 -18q16 -20 98 -88q66 -55 93 -97q47 -72 47 -219q0 -20 -7 -45q-12 -39 -18 -55q-16 -33 -33 -53q-53 -55 -69 -80q-21 -37 -25 -41q-18 -12 -43 -35q-47 -72 -131 -129 q-10 12 -10 23q0 8 6 21t6 20q0 14 -66 61q-76 55 -88 72q-53 72 -73 133q-23 74 -23 129zM156 571q0 -43 36 -141q25 -70 123 -133q25 -18 50 -37q49 -33 63 -33q10 0 43 49.5t35 59.5q14 96 14 98q0 55 -22 109q-27 68 -64 123q-18 23 -57 49q-78 49 -125 49q-8 0 -16 -2 q-80 -104 -80 -191zM184 1145q0 10 19.5 26.5t29.5 16.5q74 0 74 -51q0 -8 -22 -64q-29 -70 -37 -92q-16 8 -35 35q-29 149 -29 129zM414 1176q59 16 61 16q57 0 57 -43q0 2 -53 -150q-4 0 -14 -6q-33 57 -51 183z" />
<glyph unicode="&#xfc;" horiz-adv-x="789" d="M53 174q0 6 14.5 26.5t16.5 30.5q10 35 20 160q21 250 21 230q0 66 -29 137q-14 6 -37 18v17q0 6 10.5 13t14.5 11q6 16 14 37q23 20 51 68q6 4 11.5 9t15.5 5q18 0 29 -29q6 -18 10 -33q16 -20 31 -63q2 -41 -2 -113q-4 -88 -4 -118v-56q-10 -14 -9 -14v-176 q0 -21 11 -35q72 -84 104 -84q14 0 25 12q39 31 104 105q8 12 10 31q0 14 -2 40.5t-2 38.5q0 51 8.5 150.5t8.5 97.5q0 102 -41 101l-62 -11q-2 6 -8 13q10 16 25 20q23 6 32 12q43 37 129 105q18 0 25 -13q0 -74 80 -122v-25q-14 -6 -43 -27q0 -12 -4 -34 q-20 -49 -21.5 -90t-3.5 -82v-66q2 -53 2 -68q0 -8 -4 -24.5t-4 -22.5q0 -59 37 -90q23 -6 68 -24v-25q0 -4 -27 -39q-33 -39 -41 -55q-14 -18 -37 -51q0 -8 -3 -21.5t-28 -25.5q-18 6 -18 41q0 21 2 45q0 2 -35 55q-4 20 -10 51q-12 43 -29 66q-21 -8 -71 -56 q-2 -8 -11 -28q-20 -16 -53 -49q-41 -53 -76 -113h-35l-6 65q-4 53 -24 52q-8 0 -9 -2.5t-8 -2.5q-6 0 -31.5 13.5t-33.5 13.5q-6 0 -19.5 -11t-21.5 -11q-27 0 -27 20zM215 1137q0 45 78 45q49 1 49 -58q0 -6 -68 -143q-23 6 -45 125q0 4 -7 14t-7 17zM444 1139q0 37 64 37 q65 1 65 -56q0 -8 -22 -43q-4 -4 -23 -55q-16 -37 -32 -47q-8 4 -17 14q-35 133 -35 150z" />
<glyph unicode="&#x2000;" horiz-adv-x="777" />
<glyph unicode="&#x2001;" horiz-adv-x="1554" />
<glyph unicode="&#x2002;" horiz-adv-x="777" />
<glyph unicode="&#x2003;" horiz-adv-x="1554" />
<glyph unicode="&#x2004;" horiz-adv-x="518" />
<glyph unicode="&#x2005;" horiz-adv-x="388" />
<glyph unicode="&#x2006;" horiz-adv-x="259" />
<glyph unicode="&#x2007;" horiz-adv-x="259" />
<glyph unicode="&#x2008;" horiz-adv-x="194" />
<glyph unicode="&#x2009;" horiz-adv-x="310" />
<glyph unicode="&#x200a;" horiz-adv-x="86" />
<glyph unicode="&#x2010;" horiz-adv-x="639" d="M88 627q33 53 186 159l250 164q0 -6 4.5 -27.5t4.5 -31.5q0 -45 -27 -94q-16 -31 -250 -131q-16 -6 -61 -39t-56 -33q-8 0 -27.5 15.5t-23.5 17.5zM109 391l374 307h56q-6 -21 -4 -45l4 -39q0 -41 -183 -147q-156 -92 -225 -113q-4 0 -22 37z" />
<glyph unicode="&#x2011;" horiz-adv-x="639" d="M88 627q33 53 186 159l250 164q0 -6 4.5 -27.5t4.5 -31.5q0 -45 -27 -94q-16 -31 -250 -131q-16 -6 -61 -39t-56 -33q-8 0 -27.5 15.5t-23.5 17.5zM109 391l374 307h56q-6 -21 -4 -45l4 -39q0 -41 -183 -147q-156 -92 -225 -113q-4 0 -22 37z" />
<glyph unicode="&#x2012;" horiz-adv-x="639" d="M88 627q33 53 186 159l250 164q0 -6 4.5 -27.5t4.5 -31.5q0 -45 -27 -94q-16 -31 -250 -131q-16 -6 -61 -39t-56 -33q-8 0 -27.5 15.5t-23.5 17.5zM109 391l374 307h56q-6 -21 -4 -45l4 -39q0 -41 -183 -147q-156 -92 -225 -113q-4 0 -22 37z" />
<glyph unicode="&#x2013;" horiz-adv-x="1212" d="M88 627q75 53 422 159l568 164q0 -6 10 -27.5t10 -31.5q0 -45 -61 -94q-36 -31 -568 -131q-36 -6 -138 -39t-127 -33q-18 0 -62.5 15.5t-53.5 17.5zM136 391l849 307h127q-14 -21 -9 -45l9 -39q0 -41 -416 -147q-354 -92 -510 -113q-9 0 -50 37z" />
<glyph unicode="&#x2014;" horiz-adv-x="2236" d="M88 627q150 53 845 159q567 82 1135 164q0 -6 20.5 -27.5t20.5 -31.5q0 -45 -123 -94q-73 -31 -1135 -131q-73 -6 -277 -39t-254 -33q-37 0 -125.5 15.5t-106.5 17.5zM183 391l1699 307h254q-27 -21 -18 -45l18 -39q0 -41 -831 -147q-708 -92 -1022 -113q-18 0 -100 37z " />
<glyph unicode="&#x2018;" horiz-adv-x="371" d="M117 82q0 31 65 31q70 0 70 -47q0 -14 -27 -107q-27 -102 -43 -135q-16 0 -24 12q0 16 -4 51q-10 51 -13 72q0 10 -12 62.5t-12 60.5z" />
<glyph unicode="&#x2019;" horiz-adv-x="371" d="M94 1135q0 29 64 30q69 0 69 -47q0 -12 -26.5 -109.5t-42.5 -133.5q-16 0 -25 12q2 18 -2 51q-12 51 -14 72q-2 10 -12.5 64t-10.5 61z" />
<glyph unicode="&#x201c;" horiz-adv-x="588" d="M82 104q0 31 65 31q68 0 68 -47q0 -14 -25 -108q-27 -102 -43 -134q-16 0 -26 11q2 16 -2 51q-12 51 -13 72q-2 10 -13 64t-11 60zM317 70q0 64 39 65q-14 0 70 -8q29 -26 29 -51q0 -2 -15 -23q-18 -43 -45 -114q-4 -45 -14 -99h-31q-8 29 -22 127q-12 90 -11 103z" />
<glyph unicode="&#x201d;" horiz-adv-x="588" d="M94 1135q0 29 64 30q69 0 69 -47q0 -12 -26.5 -109.5t-42.5 -133.5q-16 0 -25 12q2 18 -2 51q-12 51 -14 72q-2 10 -12.5 64t-10.5 61zM328 1100q0 64 39 65q-14 0 71 -8q29 -26 29 -51q0 -2 -16 -23q-18 -43 -45 -114q-4 -45 -13 -99h-31q-8 29 -22 127q-12 92 -12 103z " />
<glyph unicode="&#x202f;" horiz-adv-x="310" />
<glyph unicode="&#x205f;" horiz-adv-x="388" />
<glyph unicode="&#xe000;" horiz-adv-x="928" d="M0 0v928h928v-928h-928z" />
</font>
</defs>
</svg>
