<?xml version="1.0" standalone="no"?>
<!DOCTYPE svg PUBLIC "-//W3C//DTD SVG 1.1//EN" "http://www.w3.org/Graphics/SVG/1.1/DTD/svg11.dtd" >
<svg xmlns="http://www.w3.org/2000/svg">
<metadata></metadata>
<defs>
<font id="old-englishnormal" horiz-adv-x="1253" >
<font-face units-per-em="2048" ascent="1638" descent="-410" />
<missing-glyph horiz-adv-x="784" />
<glyph horiz-adv-x="2048" />
<glyph horiz-adv-x="2048" />
<glyph unicode="&#xd;" horiz-adv-x="0" />
<glyph unicode=" "  horiz-adv-x="784" />
<glyph unicode="&#x09;" horiz-adv-x="784" />
<glyph unicode="&#xa0;" horiz-adv-x="784" />
<glyph unicode="!" horiz-adv-x="717" d="M94 1311q41 14 97 45.5t102.5 66t58.5 47.5q6 -21 94 -79.5t148 -83.5l-162 -78l-72 -762h-14l-90 762zM184 53l168 148l170 -152l-141 -65h-53z" />
<glyph unicode="&#x22;" horiz-adv-x="932" d="M109 963v434l100 61l82 -90l-162 -405h-20zM612 963v434l82 61l94 -90l-161 -405h-15z" />
<glyph unicode="#" horiz-adv-x="1198" d="M133 373v78h213l72 262h-195v78h219l105 421h86l-86 -421h213l110 421h91l-91 -421h156v-74h-176l-80 -271l191 5v-78h-220l-108 -418h-86l94 418h-223l-109 -418h-86l105 418h-195zM446 451h224l75 262h-223z" />
<glyph unicode="$" horiz-adv-x="1030" d="M115 905q0 74 57 114.5t114 52.5t85 13v218h65v-218h182v218h70v-218q59 -2 146.5 -14.5t87.5 -46.5v-139h-144v82q0 29 -33.5 40t-56.5 13v-369q91 -27 171.5 -98.5t80.5 -175.5q0 -74 -36 -132.5t-94.5 -90t-121.5 -31.5v-275h-70v279h-182v-279h-65v279 q-95 0 -166.5 34t-71.5 105v123h143v-123q0 -39 35.5 -54.5t59.5 -18.5v413q-96 35 -176 111t-80 188zM199 926q0 -54 42 -87.5t126 -68.5v254q-53 0 -110.5 -32.5t-57.5 -65.5zM442 188h176v340l-176 62v-402zM442 745l176 -61v340h-176v-279zM688 188q64 0 111 61t47 120 q0 34 -46 73.5t-112 57.5v-312z" />
<glyph unicode="%" horiz-adv-x="1292" d="M133 -16v77l828 754l-21 8h-285l-108 33v-172l-90 -78h-252l-72 78v217l72 62h266l270 -62h220l122 62h109v-78l-973 -901h-86zM223 745l53 -61h109l72 61v95l-72 45h-109l-53 -45v-95zM778 49v217l72 74h252l90 -74v-217l-90 -65h-252zM870 111l52 -50h104l76 50v90 l-76 65h-104l-52 -65v-90z" />
<glyph unicode="&#x26;" horiz-adv-x="1847" d="M115 340l479 422l-313 299l403 414h33l323 -369l-303 -266l293 -328l461 401h35l90 -57h37l125 57v-28l-72 -123l-90 -78h-125l-98 94l-334 -295l233 -266l144 -61h217l125 61v-41q-1 -63 -27.5 -105t-65 -63.5t-69.5 -23.5h-215q-39 0 -99 31t-122 82.5t-101 107.5 l-133 184l-461 -405h-34zM252 410l270 -316h33l363 312l-306 323zM414 1106l270 -234l234 177l-271 303v12z" />
<glyph unicode="'" horiz-adv-x="428" d="M61 1311l177 147l71 -123v-184l-71 -123l-162 -49h4l104 45l39 33v110z" />
<glyph unicode="(" horiz-adv-x="612" d="M100 647q1 143 52.5 275.5t120 228.5t136 154.5t91.5 58.5h32v-29q-192 -162 -259.5 -328.5t-67.5 -359.5q0 -86 17.5 -182t56.5 -189t103 -174t150 -135v-28h-32q-88 56 -163 136.5t-127 173t-81 196t-29 202.5z" />
<glyph unicode=")" horiz-adv-x="612" d="M-29 -33q86 54 149.5 133t102.5 170.5t57.5 187t18.5 189.5q0 194 -67 360t-261 328v29h33q24 0 90 -57.5t136 -154t121 -229.5t52 -276q0 -99 -28 -201.5t-78.5 -194t-125.5 -172.5t-167 -140h-33v28z" />
<glyph unicode="*" horiz-adv-x="1036" d="M90 823v78l381 131l-381 135v90h105l284 -188l-65 328l100 61l76 -61l-72 -328l309 188h91v-90l-381 -135l381 -131v-78h-91l-309 189l72 -328l-76 -78l-100 78l65 328l-284 -189h-105z" />
<glyph unicode="+" horiz-adv-x="1620" d="M184 606v94h568v557h84v-557h571v-94h-571v-557h-84v557h-568z" />
<glyph unicode="," horiz-adv-x="428" d="M61 53l162 148l86 -123v-168l-71 -127l-144 -62l-22 -8l8 21l143 65v127z" />
<glyph unicode="-" horiz-adv-x="1274" d="M166 610v90h942v-90h-942z" />
<glyph unicode="." horiz-adv-x="532" d="M72 53l166 148l172 -152l-148 -65h-49z" />
<glyph unicode="/" horiz-adv-x="1274" d="M94 -16v49l989 1442h91v-29l-990 -1462h-90z" />
<glyph unicode="0" horiz-adv-x="1569" d="M104 127v29q49 3 99 24t63 53v1102h195l399 95l105 45h51l252 -140h162v-28h-15l-147 -78v-1102h-195l-399 -78l-123 -65h-51q-69 54 -194 98.5t-202 44.5zM461 217l219 -135l393 78v1081l-237 139l-375 -90v-1073z" />
<glyph unicode="1" horiz-adv-x="821" d="M104 127v12h15l143 78v901l-158 193l15 24l252 123l71 -123v-1118q25 -29 95.5 -50t150.5 -28l-256 -155q-38 34 -95.5 67t-120 54.5t-112.5 21.5z" />
<glyph unicode="2" horiz-adv-x="1511" d="M109 -16v389q0 63 47 133.5t124.5 133.5t157 100.5t142.5 37.5h432v512l-228 94q-16 -29 -55.5 -63t-82.5 -57t-66 -23v4h-234l-147 62l6 32q325 0 393 136h53l375 -140h162v-590h-576q-72 0 -153.5 -40t-152.5 -103t-115 -133t-44 -125v-299l11 -12q118 69 229.5 109 t223.5 57.5t239 17.5q204 0 311.5 -14.5t206.5 -46.5v-29l-162 -143q-46 18 -151.5 31t-202 20.5t-139.5 9.5q-160 0 -309 -11.5t-224 -49.5h-71z" />
<glyph unicode="3" horiz-adv-x="1407" d="M115 127v29l141 61h233q43 0 111.5 -39.5t101.5 -87.5l310 82v418l-314 127l-47 -33h-53v29h39v32h-39v33h53l47 -33l314 123v422l-295 94l-156 -139h-215l-141 62v28q97 0 186.5 43.5t136.5 96.5h52l446 -140h180v-512h-180l-260 -90l260 -94h180v-512h-180l-285 -78 h-39l-122 -65h-52q-33 48 -115 95.5t-128 47.5h-170z" />
<glyph unicode="4" horiz-adv-x="1620" d="M129 406v372l807 697h33l161 -140v-45l-71 -106v-750h291l75 62h33v-168h-33l-75 78h-291v-173q0 -25 66 -51t153 -26h14v-29l-233 -143h-33q-58 46 -101.5 74.5t-100 48.5t-122.5 20v29h21l141 77v173h-735zM328 438h532v914l-532 -451v-463z" />
<glyph unicode="5" horiz-adv-x="1487" d="M109 127v29l147 61h229q22 0 69 -18.5t96.5 -48t72.5 -56.5l289 78v639l-148 74h-108l-248 -62h-309v635h1007q-18 -29 -101.5 -80.5t-150.5 -70.5h-716v-451h233l289 57l252 144h32l234 -144h90v-28h-18l-144 -74v-684h-180l-270 -66l-176 -77h-52q-31 43 -83.5 75 t-102 50t-72.5 18h-161z" />
<glyph unicode="6" horiz-adv-x="1569" d="M129 127v29h18l162 94v1085h162l447 140h51l237 -140h86v-28h-14l-129 -62h-213l-152 139l-299 -94v-520l375 86l238 135h32l220 -135h108v-33l-180 -90v-606h-180l-396 -78l-127 -65h-53q-21 31 -65.5 64t-91 56t-70.5 23h-166zM485 225q43 0 116 -46t83 -89l18 -8 l396 78v602l-148 61h-104l-361 -86v-512z" />
<glyph unicode="7" horiz-adv-x="1458" d="M86 1335l162 140q64 -20 132.5 -34t147 -21t189.5 -7q161 0 315 17t242 45h65v-29q-49 -85 -103 -155.5t-127 -150t-224 -239.5q-57 -59 -99.5 -134.5t-63 -147.5t-20.5 -132q0 -93 3.5 -154.5t17.5 -105.5t43 -96l-158 -147h-33q-24 0 -43 61.5t-28.5 146t-9.5 148.5 q0 104 29 196.5t95.5 182.5t180.5 186q116 95 214.5 189.5t162 172t98.5 138.5h-29q-102 -74 -299 -117t-385 -43q-166 0 -267.5 21t-207.5 69z" />
<glyph unicode="8" horiz-adv-x="1511" d="M104 127v29h15l147 77v406h180l252 90v4l-252 90h-180v451h195l360 61l252 140h35l231 -140h91v-28h-15l-147 -78v-406h-181l-251 -90l251 -94h181v-512h-195l-399 -78l-123 -65h-51q-79 69 -161.5 104.5t-234.5 38.5zM461 217l219 -135l393 78v446l-289 107h-32 l-291 -107v-389zM461 856l305 -106l307 106v385l-127 62h-143l-342 -62v-385z" />
<glyph unicode="9" horiz-adv-x="1511" d="M76 606v33l180 90v606h180l395 95l109 45h49l252 -140h166v-28h-21l-145 -78v-1102h-182l-318 -78l-108 -45l-21 -20h-51q-29 32 -80 66t-100 55.5t-72 21.5h-162v29l144 61h231q54 -3 119.5 -34.5t118.5 -88.5l284 78v512h-69l-324 -78l-219 -139h-33 q-40 56 -106.5 92.5t-134.5 46.5h-82zM436 700l144 -61h90l284 78h90v524l-237 139l-371 -90v-590z" />
<glyph unicode=":" horiz-adv-x="532" d="M72 53l166 148l172 -152l-148 -65h-49zM72 831l166 148l172 -148l-172 -86z" />
<glyph unicode=";" horiz-adv-x="532" d="M72 53l176 148l69 -123v-168l-69 -127l-144 -62l-24 -8l6 21l147 65v127zM72 831l166 148l172 -148l-172 -86z" />
<glyph unicode="&#x3c;" horiz-adv-x="1620" d="M119 606v45l1296 639h49v-45l-1259 -618l1259 -594v-49z" />
<glyph unicode="=" horiz-adv-x="1620" d="M100 328v90h1383v-90h-1383zM100 885v94h1383v-94h-1383z" />
<glyph unicode="&#x3e;" horiz-adv-x="1620" d="M-100 -16v49l1259 594l-1259 618v45h49l1296 -639v-45z" />
<glyph unicode="?" horiz-adv-x="1198" d="M86 1167q15 77 78 144t149.5 107t165.5 40h201q79 0 150 -25t127 -69.5t89 -105.5t33 -128q0 -82 -28.5 -149.5t-84.5 -123.5t-138.5 -105.5t-186.5 -96.5l-51 -172v-16h-15v16l-90 217h162q67 17 124.5 71.5t91.5 140.5t34 194q-1 98 -37 172t-91.5 113t-109.5 39h-174 q-219 0 -219 -324zM414 53l170 148l168 -152l-144 -65h-53z" />
<glyph unicode="A" horiz-adv-x="1925" d="M43 -16l162 155q38 22 112 42t125 20l357 676q0 11 -20 47.5t-58.5 68t-93.5 31.5q-81 0 -133 -61h-43q42 51 120.5 103t184.5 52q64 -3 89.5 -24t39.5 -54l41 95q-3 27 -18.5 83t-62 111t-128.5 55q-80 0 -132 -43t-91 -96h-37q15 23 44.5 56t81.5 70.5t128 64t174 26.5 q54 0 92.5 -11t73.5 -54l645 -1196h162l-162 -217h-105q-26 0 -51 18.5t-39 46.5l-250 475h-596l-166 -323q64 0 127 -7.5t100.5 -17.5t64.5 -22.5t36 -22.5l-170 -147q-23 28 -97.5 46.5t-131.5 18.5q-119 0 -211 -11t-164 -54zM670 561h571l-280 541h-15z" />
<glyph unicode="B" horiz-adv-x="1761" d="M100 606v156l72 78h160v61q8 44 64.5 115t117.5 102v-672q-15 -57 -68.5 -109.5t-113.5 -66.5v414h-142zM104 1311q36 18 93.5 45.5t72.5 27.5q25 0 70 -23t82 -54h252l153 147q-108 -53 -172 -53q-17 0 -123 57h-270l-153 -147h-5zM256 -20q29 35 112 87.5t183.5 93 t175.5 40.5h381l14 -13h23v652l172 82l151 118v205l-215 139l-327 -155v-623q-13 -64 -65 -120t-109 -80v651q17 53 62 113t93 87l432 201h91l143 -61l72 -123v-168l-162 -143l-144 -66q38 -14 91.5 -45.5t99.5 -67t80 -75t35 -70.5v-451h-181l-143 -61l-172 -143l-152 65 h-446q-73 0 -295 -69zM1178 172l110 -33h23l153 66v201h-286v-234zM1178 430h286v180h-286v-180zM1178 635h286v78l-53 94l-90 78h-39l-104 -54v-196z" />
<glyph unicode="C" horiz-adv-x="1739" d="M94 709q0 109 32 214t96.5 200t159 165.5t212.5 104.5q-88 -66 -161 -161.5t-118 -224t-45 -282.5q0 -177 95.5 -310t257 -204.5t352.5 -71.5q262 0 313 49v1057h-162l-133 53l-67 -53v-700l-70 -123l-53 -49v-13l-51 -32v852l393 278h33q81 -61 186 -61q53 0 109.5 13 t95.5 40l-68 -127l-141 -66l-39 -28v-1028q62 0 116 32.5t101 77.5t111 107q-12 -76 -78 -153t-171 -139t-242.5 -100t-283.5 -38q-197 0 -345 50.5t-244 144.5t-143.5 227t-47.5 299z" />
<glyph unicode="D" horiz-adv-x="1645" d="M94 -16q30 37 123 89t192 90t152 38h252v1106h-467q-35 0 -143.5 62.5t-108.5 88.5l1174 4q49 0 101 -31.5t88 -80t40 -93.5l-6 -1069h-180l-142 -61l-172 -143l-151 65h-451q-53 -3 -147 -23.5t-154 -41.5zM184 606v156l68 78h166v57q0 26 34.5 78.5t78.5 95.5t63 43 v-594q0 -21 -35.5 -68.5t-77.5 -85.5t-63 -38v356h-148zM846 205h72l208 -58l43 5l142 61v332l-127 61h-191l-147 -61v-340zM846 565l147 62h195l123 -62v377l-137 -57h-185l-143 57v-377zM846 963l162 -62h147l156 62v294l-70 46h-395v-340z" />
<glyph unicode="E" horiz-adv-x="1667" d="M72 606v156l75 78h162v61q6 43 60.5 114.5t115.5 102.5v-672q-11 -40 -38 -76.5t-63.5 -63.5t-74.5 -36v414h-147zM80 1311l158 147h266q104 -57 123 -57q60 0 176 53l-156 -147h-252q-38 31 -82 54t-65 23q-19 0 -76 -27.5t-92 -45.5zM270 -16q55 48 133 92t165 70 t173 26v791l177 356l90 78l141 61h215q66 -3 127.5 -20t91.5 -41l-172 -152l-151 62h-181l-147 -62l-158 -303v-479l144 299l90 78h176l147 -62l19 -24l-172 -148l-99 78h-147l-158 -262v-234h604q45 0 110.5 -14t94.5 -35l-162 -155q-37 25 -108.5 45t-124.5 20h-613 q-139 0 -305 -65z" />
<glyph unicode="F" horiz-adv-x="1696" d="M53 -16q24 47 84.5 97.5t127 85t95.5 34.5h195l305 -140h76l86 78v1041l418 278h33l124 -61h166l84 61v-28q0 -34 -37.5 -78.5t-89 -75.5t-86.5 -31h-180v-979h-14v418h-238v-434l-76 -123l-319 -143h-195l-127 65h-182q-55 0 -130.5 -19.5t-119.5 -45.5zM385 618v156 l72 78h161v61q8 48 62.5 117t112.5 100v-667q-13 -56 -68 -112t-107 -68v413h-147zM389 1323v4l158 143h266q104 -57 123 -57q57 0 176 53l-158 -147h-245q-41 32 -85.5 55t-68.5 23q-19 0 -75 -27.5t-91 -46.5zM1202 840h234v401l-129 62h-47l-58 -46v-417z" />
<glyph unicode="G" horiz-adv-x="1739" d="M100 721q0 110 30.5 213.5t91.5 193t157 158.5t215 103q-71 -41 -130.5 -112.5t-102 -163t-64 -188t-21.5 -184.5q0 -196 71 -367t195 -272t275 -102h328v840l305 442l-20 8l-91 -45h-213l-137 62l-63 -62l-4 -770q-13 -59 -58 -122.5t-112 -86.5v914l393 278h33l125 -61 h165l115 53l-409 -610q114 0 203 -24t148.5 -63.5t89.5 -86.5t30 -93v-262q0 -51 -49 -109.5t-121 -106t-155.5 -79.5t-141.5 -32h-375q-116 1 -241 59t-231 162t-168.5 238t-62.5 278zM1159 4q49 0 123 44.5t128 118t54 161.5h-305v-324zM1159 344h305v201h-305v-201z M1159 561h305q0 46 -48.5 104.5t-120.5 100t-136 41.5v-246z" />
<glyph unicode="H" horiz-adv-x="1739" d="M100 606v156l72 78h160v61q8 44 64.5 115t117.5 102v-672q-15 -57 -68.5 -109.5t-113.5 -66.5v414h-142zM104 1311q36 18 93.5 45.5t72.5 27.5q25 0 70 -23t82 -54h252l153 147q-108 -53 -172 -53q-17 0 -123 57h-270l-153 -147h-5zM262 -16q55 56 143.5 106t178.5 80.5 t143 30.5h289l100 -45l10 16v668l353 200l166 -262v-340q0 -59 -33 -150.5t-90.5 -176t-128.5 -127.5q22 69 37.5 143.5t25.5 147.5t12 131h-309v-279l-170 -143l-147 65h-277q-66 0 -153.5 -19t-149.5 -46zM752 406v651l69 123l252 217l144 61h213l143 -69l-166 -144 l-172 139h-127l-182 -155v-623q-15 -62 -60.5 -118.5t-113.5 -81.5zM1159 422h305v184h-305v-184zM1159 623h305v155l-71 107h-105l-129 -62v-200z" />
<glyph unicode="I" horiz-adv-x="1397" d="M39 -8q49 67 151 138t148 71h194l310 -140h141l111 140v790l69 189l176 139v-29l-71 -106v-856q0 -56 -69.5 -138t-163.5 -144t-161 -62h-284l-129 65h-271zM428 606v156l76 78h155v61q8 28 36 71.5t67 84t80 61.5v-672q-15 -56 -69 -109t-114 -67v414h-141zM436 1311 l158 147h266q104 -57 123 -57q60 0 176 53l-155 -147h-252q-39 30 -83 53.5t-65 23.5q-19 0 -76 -27.5t-92 -45.5z" />
<glyph unicode="J" horiz-adv-x="1354" d="M66 188v152l71 78h125l55 -45v-62l-55 -45h-125l-22 29l-15 -12v-66q0 -102 112.5 -153.5t258.5 -51.5h252q70 0 145 30.5t123.5 76.5t48.5 90v782l72 189l162 139h33v-29l-58 -94l-14 -12v-856q-1 -105 -63.5 -182t-170.5 -119.5t-235 -42.5h-320q-96 0 -184 22t-142 68 t-54 114zM238 1311l157 147h285l205 -61l137 61h51l-166 -151h-299l-190 77zM395 606v156l66 78h166v61l157 217h33v-590l-65 -122l-93 -78h-32v356h-127l-72 -78h-33z" />
<glyph unicode="K" horiz-adv-x="1753" d="M100 606v156l72 78h160v61q8 44 64.5 115t117.5 102v-672q-15 -57 -68.5 -109.5t-113.5 -66.5v414h-142zM104 1311q36 18 93.5 45.5t72.5 27.5q25 0 70 -23t82 -54h252l153 147q-108 -53 -172 -53q-17 0 -123 57h-270l-153 -147h-5zM219 -16q42 47 135.5 98t191 85 t138.5 34h285l118 -62l11 17v684l262 200l242 -147l-328 -340l166 -70l143 -389q5 -15 27 -24t43 -9q13 0 22 2t13 3q-10 -23 -36.5 -52.5t-49.5 -29.5h-97q-17 0 -49 25t-35 40l-71 418l-82 78l-152 -139v-279l-170 -143l-153 65h-271q-67 0 -145.5 -16t-157.5 -49z M702 406v651l72 123l252 217l143 61h213l148 -69l-170 -144l-172 139h-129l-180 -159v-619l-72 -123z" />
<glyph unicode="L" horiz-adv-x="1673" d="M72 606v156l75 78h162v61q6 43 60.5 114.5t115.5 102.5v-672q-11 -40 -38 -76.5t-63.5 -63.5t-74.5 -36v414h-147zM80 1311l158 147h266q104 -57 123 -57q60 0 176 53l-156 -147h-252q-38 31 -82 54t-65 23q-19 0 -76 -27.5t-92 -45.5zM270 -16q42 44 144.5 95.5 t214 86.5t178.5 35h420v1183h-115l-180 -155v-639q-8 -34 -30.5 -69.5t-60.5 -66.5t-85 -48v634l118 177l205 180l148 61h213l143 -69l-172 -144l-143 123l-8 -16v-1151h32q71 0 156.5 -16.5t134.5 -45.5l-162 -155q-29 29 -94 45.5t-139 19.5h-623q-62 0 -153.5 -20 t-141.5 -45z" />
<glyph unicode="M" horiz-adv-x="2144" d="M43 -8q57 79 150 144t145 65h213l129 -62h90l72 62v1106h-54l-161 -140v-561q-6 -62 -56 -115.5t-125 -80.5v274h-147l-104 -78v156l90 78h161v151l76 119l418 348l313 -270l334 270l332 -278v-914l90 -127h72l-166 -155l-176 143v557h-234v-496l-331 -204l-166 147 l86 70v483h-234v-512l-76 -123l-90 -65h-104l-125 65h-270zM860 840h234v278l-234 172v-450zM1274 250l72 -107h51l90 50v1110h-62l-151 -127v-926zM1505 840h234v278l-234 172v-450z" />
<glyph unicode="N" horiz-adv-x="1753" d="M53 -16l160 155l129 49l33 29v467h-148l-84 -78v156l70 78h162v544h-148l-166 -135q77 98 146 153.5t149 55.5h219q25 0 72 -26t92.5 -66t67.5 -76l129 -225l266 -164h148l161 78v266h-90l-147 66l166 147h33l124 -61h166l84 61v-28l-69 -123l-144 -62h-90v-1274h-4 q-74 0 -179.5 103t-186 208t-115.5 156l-51 45l-148 58h-305l-141 -70v-270h245l148 -70l-170 -147l-96 65h-238q-51 0 -122 -17.5t-128 -47.5zM414 496l141 65h305l156 -57l-336 643q-35 59 -76.5 111t-91 89t-98.5 37v-888zM950 1036l490 -831l65 -45v798l-155 -73h-148z " />
<glyph unicode="O" horiz-adv-x="1845" d="M104 791q0 131 45.5 254t122 216.5t165 145t171.5 51.5q-42 0 -98.5 -60.5t-107.5 -161t-84 -224.5t-33 -246q0 -272 91 -443t216.5 -243t234.5 -72h181l122 25v1319l-4 16l-284 -135v-787q-38 -133 -176 -180v914l575 278q86 -1 176 -61.5t163.5 -151t118 -180.5 t44.5 -152v-323q0 -100 -75 -205.5t-193 -197.5t-243 -147.5t-210 -55.5h-320q-106 2 -211 49t-193 145.5t-141 254t-53 358.5zM1169 45q60 0 155.5 85.5t167 203.5t71.5 207l-133 65h-119l-142 -61v-500zM1169 561l142 62h129l123 -62v385l-142 -61h-110l-142 57v-381z M1169 963l156 -62h86l152 62q0 50 -39.5 117.5t-102.5 133.5t-131.5 108t-120.5 42v-401z" />
<glyph unicode="P" horiz-adv-x="1489" d="M86 -16l18 32l213 107v561h-145l-86 -78v156l72 78h159v417q0 21 -28 63.5t-67 81.5t-70 56h38q48 0 120.5 -50t128 -113.5t55.5 -94.5v-65h24l547 323l328 -278v-992l-328 -204l-154 65h-166v-344h-28v1528l-203 -115l-20 -12v-1462l-177 -140v529l-8 16zM752 205h231 l234 -66v406l-138 61h-176l-151 -61v-340zM752 565l141 58h201l123 -54v377l-144 -61h-180l-141 61v-381zM752 963l155 -62h148l162 62v155l-234 185h-156l-75 -46v-294z" />
<glyph unicode="Q" horiz-adv-x="1788" d="M76 758q0 125 41.5 252t114 228.5t164 160.5t188.5 59q-68 0 -142.5 -114.5t-124 -284t-51.5 -318.5q0 -115 47.5 -247.5t122 -244t156.5 -180.5t145 -69h4l62 61h119l147 -61l39 20v1332l-291 -140v-761q-24 -62 -66 -107.5t-110 -77.5v914l576 278q103 0 193.5 -63 t159.5 -170.5t107 -234.5t39 -245q0 -133 -45 -253.5t-128 -217t-199 -169.5t-261 -121q22 -38 114 -137t195 -182t162 -83h70l-70 -78h-194l-168 78l-231 402h-248q-83 0 -192 54.5t-212 158.5t-168 247.5t-65 313.5zM766 4h174l-33 41h-104zM1141 33q128 84 217.5 177 t132.5 177.5t43 149.5l-137 69h-105l-151 -61v-512zM1141 565l137 58h137l119 -58v381l-141 -61h-111l-141 57v-377zM1141 963l151 -62h90l152 62q0 61 -69 156t-157 170t-134 75h-33v-401z" />
<glyph unicode="R" horiz-adv-x="1710" d="M72 606v156l75 78h162v61q6 43 60.5 114.5t115.5 102.5v-672q-11 -40 -38 -76.5t-63.5 -63.5t-74.5 -36v414h-147zM80 1311l158 147h266q104 -57 123 -57q60 0 176 53l-156 -147h-252q-38 31 -82 54t-65 23q-19 0 -76 -27.5t-92 -45.5zM190 -16q75 76 221.5 146.5 t247.5 70.5h211q60 0 122.5 -18t94.5 -44l-169 -155l-152 65h-277q-50 0 -145.5 -21t-153.5 -44zM674 406v651l176 221l338 180h80q73 0 125.5 -46.5t79 -119.5t28.5 -149q0 -74 -15 -134t-55 -108t-110 -78l-291 -127l129 -57l109 -94l305 -406h90l-166 -155l-176 143 l-162 401l-151 156l-152 -66zM856 639l231 106q94 44 146.5 87t71 89t18.5 111q0 35 -2 53q-5 68 -40.5 134.5t-83 111.5t-85.5 45q-6 0 -100 -47.5t-156 -79.5v-610z" />
<glyph unicode="S" horiz-adv-x="1710" d="M90 -16q116 95 270.5 156t266.5 61h309q24 0 66.5 -9.5t85.5 -24.5t61 -28h20l310 467v139q0 18 -45.5 52.5t-102 61t-90.5 26.5h-414l-125 -185h377q43 0 69 -39t26 -79q0 -49 -22 -90t-58 -70l-43 -21q8 26 8 33q0 31 -29.5 56t-67.5 40t-59 15h-309l-180 -156 l-144 -61h-90v90l86 -74l133 62l162 131l-20 8h-213q-51 0 -107 41.5t-93.5 108.5t-37.5 141q38 -43 124.5 -89.5t127.5 -46.5h342l129 185h-252q-49 0 -136.5 37.5t-156.5 87t-69 80.5v135q0 61 65 115t151 86t146 32h389l291 -61l-291 -357h432q38 0 104 -28t116.5 -68 t50.5 -76v-184l-559 -680l-15 -20h-35q-31 21 -91.5 43t-102.5 22h-455q-64 0 -149.5 -19t-155.5 -46zM270 1167q0 -15 55.5 -45.5t126 -56t109.5 -25.5h357l141 209l-252 148l-195 45h-57q-38 0 -108 -28t-123.5 -66.5t-53.5 -69.5v-111z" />
<glyph unicode="T" horiz-adv-x="1718" d="M100 631q0 168 22 268.5t57 156t102 124.5q-50 -79 -75.5 -159.5t-25.5 -213.5q0 -181 101.5 -334.5t278 -243.5t386.5 -90q109 0 210.5 17.5t131.5 31.5v1057h-233l-29 8l-100 -69v-639q-59 -160 -174 -217v790l227 148q-25 8 -119 44.5t-168 56t-157 19.5 q-14 0 -22.5 -0.5t-18.5 -1.5q-125 -8 -230 -44t-164 -91q0 49 34.5 97.5t86.5 80t96 31.5h410l381 -61h375l155 53q-169 -176 -317 -205v-1040q71 18 152.5 75t171.5 138q-38 -139 -156 -237t-280.5 -145.5t-334.5 -47.5q-182 0 -324 41.5t-244.5 125.5t-154 203t-51.5 273 z" />
<glyph unicode="U" horiz-adv-x="1761" d="M66 1311q36 18 93 45.5t74 27.5q45 0 152 -77h252l151 147q-104 -53 -170 -53q-28 0 -124 57h-271l-151 -147h-6zM123 705q0 82 24.5 172.5t67.5 172t94 130.5q-29 -73 -52.5 -180.5t-23.5 -196.5q0 -168 76.5 -322.5t225.5 -250t354 -95.5q14 -1 45 -2.5t59 -1.5 q66 0 86 8v1090l-200 -45v-639q-58 -172 -170 -213l-7 725l72 123l305 77l351 201l262 -151l-162 -78v-963l86 -127h76l-172 -155l-160 143q-25 -25 -95.5 -57t-182 -58.5t-240.5 -27.5q-265 0 -426.5 101.5t-227 263.5t-65.5 356zM1116 139l234 66v397h-234v-463zM1116 623 h234v262h-234v-262zM1116 905h234v352l-109 46l-125 -62v-336z" />
<glyph unicode="V" horiz-adv-x="1653" d="M39 606v156l90 78h162v405q0 57 -46 116t-116 97q76 0 155.5 -49t133 -116.5t53.5 -112.5v-979h289v975l414 143l165 139l263 -151l-162 -78v-1041h-180l-201 -49l-275 -155l-403 143h-252v12l162 78v467h-148zM793 205l266 -45l201 45v340l-144 61h-180l-143 -61v-340z M793 561l143 62h194l130 -62v385l-144 -61h-180l-143 61v-385zM793 963l157 -62h148l162 62v294l-72 46l-395 -140v-200z" />
<glyph unicode="W" horiz-adv-x="1858" d="M39 606v156l90 78h162v405q0 48 -48 114.5t-114 98.5q80 0 158.5 -48.5t128 -116t49.5 -113.5v-979h219v1118l262 139l166 -139v-1118h219v1118l260 139l172 -139v-1131l-432 -204l-215 204h-22l-400 -204l-313 143h-252v12h14l148 78v467h-148zM702 205l144 -58l86 41 v418h-230v-401zM702 623h230v262h-230v-262zM702 901h230v356l-72 46h-158v-402zM1350 205l155 -58l78 41v418h-233v-401zM1350 623h233v262h-233v-262zM1350 901h233v356l-78 46h-155v-402z" />
<glyph unicode="X" horiz-adv-x="1753" d="M53 -16q36 217 318 217q147 0 161 -45l261 483l-56 106h-356v33h342l-309 541q-18 32 -38 45t-59 16q-41 0 -73 -9.5t-61.5 -28t-53.5 -39.5t-68 -58q82 106 175 159.5t225 53.5q80 0 116.5 -12.5t49.5 -48.5l299 -574l262 480l72 155h32q37 -28 97.5 -44.5t115.5 -16.5 q131 0 176 53q-25 -86 -102 -145.5t-211 -59.5q-88 0 -115 3.5t-30 13.5t-6 28l-277 -512h424v-33h-403l313 -606q24 -38 62 -56t104 -22q63 0 132 41.5t109 94.5q-67 -76 -114.5 -118.5t-116.5 -68.5t-168 -26q-54 1 -91.5 9.5t-56 21.5t-32.5 34l-289 561l-258 -483 l-94 -143q-24 34 -78.5 49.5t-149.5 15.5q-76 0 -112.5 -16t-67.5 -49z" />
<glyph unicode="Y" horiz-adv-x="1653" d="M61 606v156l91 78h165v405q0 27 -25.5 67.5t-65.5 82.5t-74 63q64 0 145 -48.5t139 -115t58 -114.5v-979h309v979l395 139l170 139l262 -151l-166 -78v-1446l-71 -123l-187 -156l-475 140h-414v16l287 61h555l201 -61l90 139v185l-143 204l-220 -49l-274 -155l-403 143 h-258v12h20l145 78v467h-145zM821 205l266 -45l195 45v340l-141 61h-180l-140 -61v-340zM821 561l140 62h198l123 -58v381l-137 -61h-184l-140 61v-385zM821 963l158 -62h147l156 62v294l-70 46l-391 -140v-200z" />
<glyph unicode="Z" horiz-adv-x="1458" d="M61 -16l566 761h-332v17h342l518 581l-14 9h-6q-47 -47 -204 -77t-370 -30q-121 0 -208.5 7t-159.5 20.5t-132 34.5l158 151q46 -22 167 -38.5t327 -22.5q130 0 253 10.5t219 24t183 26.5l-518 -696h356v-17h-370l-580 -659q111 55 264.5 85t329.5 30q147 -1 290.5 -20.5 t209.5 -45.5l-144 -151q-68 34 -171 49.5t-312 15.5q-229 0 -373.5 -15.5t-288.5 -49.5z" />
<glyph unicode="[" horiz-adv-x="612" d="M129 -29v1409h426v-28h-322v-1352h322v-29h-426z" />
<glyph unicode="\" horiz-adv-x="1274" d="M-80 1446v29h90l989 -1442v-49h-90z" />
<glyph unicode="]" horiz-adv-x="612" d="M-47 0h321v1352h-321v28h426v-1409h-426v29z" />
<glyph unicode="^" horiz-adv-x="1511" d="M94 954l647 365l652 -369h-33l-637 279l-604 -275h-25z" />
<glyph unicode="_" horiz-adv-x="1620" d="M4 -434h1579v-62h-1579v62z" />
<glyph unicode="`" horiz-adv-x="428" d="M76 1106v151l90 140l151 53l-8 -20l-90 -29l-35 -33v-111l158 -147l-166 -147l-24 16z" />
<glyph unicode="a" horiz-adv-x="1087" d="M61 246q0 67 10.5 120t47.5 85l176 155l-234 205v29l172 139l242 -139h90l242 139l172 -148l-90 -86v-544l90 -62h72l-172 -155l-170 143v61l-215 -61l-166 -143q-69 0 -130.5 38t-99 99t-37.5 125zM158 414q0 -85 55 -176q36 -49 93.5 -65.5t137.5 -16.5h64l201 57v532 l-162 62h-53l-162 -62h-142l304 -270l-19 -8l-151 123l-152 -131q-14 -11 -14 -45z" />
<glyph unicode="b" horiz-adv-x="1212" d="M33 127v12h20l142 78v967l-72 127l252 147v-680l475 201l244 -139h90l-162 -95v-618h-180l-385 -143l-262 143h-162zM375 205l237 -135l230 82v610l-148 61h-139l-180 -78v-540z" />
<glyph unicode="c" horiz-adv-x="1083" d="M61 127v12h19l143 78v623l494 139l223 -139h111l-162 -95h-180l-144 119l-162 -53v-594l144 -78h71l232 94v-45l-455 -204l-262 143h-72z" />
<glyph unicode="d" horiz-adv-x="1141" d="M61 127v12h19l143 78v623l395 131l-395 340l271 147l67 -201l490 -417v-713h-181l-385 -143l-262 143h-162zM403 209l238 -143l229 86v610l-219 184l-248 -90v-647z" />
<glyph unicode="e" horiz-adv-x="997" d="M53 127v12h19l147 78v623l490 139l241 -287l-555 -270v-205l232 -78l-238 -155l-260 143h-76zM395 451l361 176l-201 258l-160 -62v-372z" />
<glyph unicode="f" horiz-adv-x="983" d="M61 963v28h252v328l381 139h33l252 -139h72v-12h-21l-123 -62h-198l-154 139l-61 -77v-316h323v-28h-323v-746l143 -78h90l-242 -155l-262 143h-71v12h20l141 78v746h-252z" />
<glyph unicode="g" horiz-adv-x="1233" d="M61 127v12h15l147 78v627h180l404 135l219 -139h180l-162 -95v-835l-69 -205l-162 -139l-172 -62l-256 140h-162l144 77h213l143 -61l76 -66l151 132l-80 307v151l-475 -200l-243 143h-91zM403 205l125 -66h170l166 74v549l-213 123h-43l-205 -62v-618z" />
<glyph unicode="h" horiz-adv-x="1219" d="M33 127v12h20l142 78v967l-72 127l252 147v-696l475 217l244 -139h90l-162 -95v-618l-223 -266v-201l151 -156h-108l-72 127v258l72 222v634l-162 78h-72l-233 -90v-516l162 -86l-170 -147l-244 143h-90z" />
<glyph unicode="i" horiz-adv-x="627" d="M66 840l262 139l237 -148l-162 -86v-544l91 -62h71l-166 -155l-172 143v618zM158 1311l170 147l166 -151l-142 -62h-53z" />
<glyph unicode="j" horiz-adv-x="655" d="M66 840l262 139l237 -148l-162 -86v-622l91 -246v-233l-162 -140h-174v78h32l134 -53l137 123v201l-234 274v618zM158 1311l170 147l166 -151l-142 -62h-53z" />
<glyph unicode="k" horiz-adv-x="1198" d="M72 127v12h18l143 78v967l-71 127l248 147v-680l407 201l166 -225l-246 -144q49 -10 87 -62.5t69 -121.5q19 -43 50.5 -116t61 -122t50.5 -49h90l-166 -155q-53 36 -91.5 83.5t-64 99.5t-42 100t-44.5 139q-13 42 -39 85.5t-57 61.5l-231 -139v-197l165 -86l-172 -147 l-241 143h-90zM414 438l407 238l-162 209l-245 -123v-324z" />
<glyph unicode="l" horiz-adv-x="707" d="M53 127v12h13l143 78v967l-72 127l248 147v-1241l147 -78h109l-260 -155l-244 143h-84z" />
<glyph unicode="m" horiz-adv-x="1960" d="M80 127v12h20l142 78v528l-70 78h-92l172 156l166 -139v-62l14 -16l465 217l168 -139v-62h22l457 201l332 -139l-160 -95v-544l160 -62l-170 -155l-166 143v618l-168 78h-69l-238 -90v-516l162 -86l-168 -147l-242 147l72 70v544l-162 78h-72l-237 -106v-500l166 -86 l-170 -147l-242 143h-92z" />
<glyph unicode="n" d="M61 127v12h15l147 78v528l-71 78h-91l166 156l172 -139v-62h19l461 201l237 -139h90l-162 -95v-544l91 -62h71l-166 -155l-170 143v618l-161 78h-76l-234 -90v-516l162 -86l-166 -147l-243 143h-91z" />
<glyph unicode="o" d="M61 127v12h15l147 78v631h172l412 131l219 -139h180l-162 -95v-618h-180l-379 -143l-262 143h-162zM403 205l224 -127l237 86v598l-213 123h-33l-215 -62v-618z" />
<glyph unicode="p" horiz-adv-x="1241" d="M33 127v12h20l142 78v623l-62 131l43 -8l109 -50l90 -73v-62h20l375 123l80 78l244 -139h90l-162 -95v-618h-180l-385 -143l-72 49l-10 -17v-217l90 -151l-270 -144v623h-162zM375 205l243 -144l224 78v623l-148 61h-86l-233 -78v-540z" />
<glyph unicode="q" d="M61 127v12h15l147 78v623h180l404 139l219 -139h180l-162 -95v-1241l-251 144l77 135v397l-475 -196l-243 143h-91zM403 205l125 -66h142l194 70v553l-213 123h-43l-205 -74v-606z" />
<glyph unicode="r" horiz-adv-x="1087" d="M61 127v12h19l143 78v528l-90 78h-72l172 156l162 -139l322 139l223 -139h111l-162 -95h-180l-158 140l-148 -62v-606l144 -78h90l-242 -155l-262 143h-72z" />
<glyph unicode="s" horiz-adv-x="1065" d="M47 -16l475 483h-241l-162 78v295l409 139h37l162 -78h129l33 33l37 45h35v-29l-386 -467h242l144 -65v-291l-377 -143h-70l-125 65h-166l-129 -65h-47zM143 53l152 86h256l123 -57h53l33 45v279l-123 61h-86zM317 545l144 -62h86l323 402l-143 -62h-199l-133 62l-78 -45 v-295z" />
<glyph unicode="t" horiz-adv-x="821" d="M66 963v28h233v193l-72 127l248 147v-467h252v-28h-252v-746l143 -78h109l-256 -155l-244 143h-90v12h21l141 78v746h-233z" />
<glyph unicode="u" horiz-adv-x="1274" d="M61 127v12h15l147 78v528l-71 78h-91l166 156l172 -139v-623l142 -78h110l219 78v528l-161 86l170 148l237 -139h90l-162 -95v-544l91 -62h71l-166 -155l-170 143v45h-20l-342 -111l-113 -77l-243 143h-91z" />
<glyph unicode="v" horiz-adv-x="1161" d="M61 971q61 -6 139.5 -50t102.5 -81v-561l219 -136l248 74v528l-162 86l170 148l244 -139h90l-162 -95v-557h-180l-215 -61l-170 -143l-262 204v652z" />
<glyph unicode="w" horiz-adv-x="1817" d="M53 971l27 -8h14l111 -50l90 -73v-561l227 -132l244 70v528l-162 86l170 148l256 -148l-90 -86v-466l219 -136l252 74v528l-162 86l172 148l242 -139h86l-158 -95v-557h-180l-219 -61l-166 -143l-260 204h-6l-213 -61l-166 -143l-262 204v652z" />
<glyph unicode="x" horiz-adv-x="1325" d="M53 -16q4 55 38.5 105.5t88.5 81t111 30.5q34 0 100 -28t66 -34l151 271l-43 57h-280v29h270l-109 188q-14 26 -61.5 59.5t-113 56.5t-134.5 23h-14l172 156q53 -12 105 -35.5t92 -55t59 -65.5l147 -254l242 410q41 -37 77.5 -56t98.5 -22q94 6 158 78 q-15 -82 -85 -149.5t-138 -67.5q-44 0 -98.5 18.5t-82.5 42.5l-161 -278l22 -49h309v-29h-288l155 -238q60 -50 129 -70t162 -20l-162 -155q-70 3 -155 45.5t-129 109.5l-134 250l-233 -405q-25 33 -62.5 47t-109.5 14q-109 0 -160 -61z" />
<glyph unicode="y" horiz-adv-x="1247" d="M61 127v12h15l147 78v528l-71 78h-91l166 156l172 -139v-623l142 -78h110l219 78v528l-161 86l170 148l237 -139h90l-162 -95v-835l-69 -205l-162 -139l-172 -62q-47 55 -143 97.5t-213 42.5q-9 0 -31 -2t-31 -2q46 46 94.5 63.5t124.5 17.5h33q81 0 140.5 -14.5 t102.5 -44.5t81 -80l162 139v140l-91 172v155l-475 -204l-243 143h-91z" />
<glyph unicode="z" horiz-adv-x="1141" d="M53 831l166 148q51 -28 150.5 -53t185.5 -25q92 0 219 23t234 55h51l-469 -483h303v-29h-324l-426 -414q158 78 301 113t316 35q106 0 168.5 -11t130.5 -59l-166 -147q-123 65 -324 65q-64 0 -157 -7t-185 -20t-166 -30l467 475h-309v29h332l418 430l-8 8 q-72 -39 -168 -79.5t-218.5 -75t-228.5 -34.5q-81 0 -158.5 23.5t-134.5 62.5z" />
<glyph unicode="{" horiz-adv-x="428" d="M80 172q0 33 10.5 58.5t26 41.5t32.5 28t35 24q57 40 82 80t25 104q0 100 -211 147q110 30 162.5 62t52.5 98q0 60 -24.5 103t-80.5 86q-2 2 -26 18t-40 33t-27 42t-11 58q0 91 64.5 132t177.5 69l-11 -21q-77 -16 -125.5 -59t-48.5 -117q0 -25 14 -46.5t38 -42t53 -42.5 q49 -42 73.5 -90t30.5 -115q0 -68 -48 -94.5t-175 -69.5q104 -33 154.5 -63.5t62.5 -95.5q4 -26 4 -35q0 -48 -28.5 -87.5t-83.5 -82.5q-46 -35 -73.5 -66t-27.5 -65q0 -135 176 -180l4 -17q-114 31 -175.5 72t-61.5 133z" />
<glyph unicode="|" horiz-adv-x="666" d="M266 4v1409h105v-1409h-105z" />
<glyph unicode="}" horiz-adv-x="428" d="M20 823q8 71 32 117.5t73 87.5q53 40 78.5 68t25.5 63q0 73 -48 116.5t-126 59.5l-10 21q81 -21 127.5 -40.5t80.5 -58.5t34 -102q0 -33 -12 -60t-27 -42t-35.5 -29t-30.5 -20q-54 -43 -79 -86.5t-25 -102.5q0 -66 52 -97.5t163 -62.5q-211 -47 -211 -147 q0 -63 25 -103.5t81 -80.5q13 -9 33 -22.5t35.5 -29.5t26 -39.5t10.5 -60.5q0 -92 -61.5 -133.5t-176.5 -71.5l4 17q177 45 177 180q0 36 -29.5 68t-71.5 63q-54 44 -83 83t-29 87q0 9 4 35q8 43 37.5 72.5t69 46.5t110.5 40q-88 29 -125.5 43.5t-68 43.5t-30.5 77z" />
<glyph unicode="~" horiz-adv-x="1696" d="M109 872v168l110 201l141 62h181l196 -91l303 -200l144 -66h147l166 78l72 123v156h14v-168l-53 -172l-166 -91h-215l-141 62l-324 217l-143 61h-181l-147 -61l-90 -139v-140h-14z" />
<glyph unicode="&#xa1;" horiz-adv-x="717" d="M125 -184l162 82l90 761h14l72 -761l162 -78q-63 -26 -149.5 -84.5t-92.5 -79.5q-19 24 -106.5 81.5t-151.5 78.5zM215 1073l143 70h54l141 -66l-170 -151z" />
<glyph unicode="&#xa2;" horiz-adv-x="1094" d="M39 127v12h18l142 78v623l323 90v160h72v-140l100 29l224 -139h104l-158 -95h-180l-90 74v-680l233 94v-45l-233 -106v-188h-72v155l-151 -65l-262 143h-70zM381 217l141 -78v717l-141 -45v-594z" />
<glyph unicode="&#xa3;" horiz-adv-x="1540" d="M119 647v58h219q-49 111 -69.5 169.5t-20.5 124.5q0 127 69 233.5t191.5 168t269.5 61.5h215q66 -3 127.5 -20t91.5 -41l-172 -152l-151 62l-262 41q-62 0 -114 -24t-83 -66t-31 -91q0 -26 7.5 -52.5t22 -58.5t22.5 -48l129 -307h299v-58h-285q10 -32 17 -53t11.5 -44 t4.5 -46q0 -98 -155.5 -235.5t-295.5 -219.5q68 59 144 167.5t79 180.5q0 134 -43 250h-237zM162 -90q55 49 141 96.5t181.5 78t181.5 30.5h602q45 0 110.5 -15t94.5 -34l-162 -156q-35 27 -107.5 46t-124.5 19h-614q-140 0 -303 -65z" />
<glyph unicode="&#xa4;" horiz-adv-x="1382" d="M90 967l76 53l190 -148q141 86 310 86q79 0 145 -18.5t164 -67.5l194 148l72 -53l-190 -148q52 -65 73 -116.5t21 -112.5q0 -62 -22 -110.5t-83 -119.5l201 -143l-78 -57l-188 147q-95 -45 -161.5 -63.5t-147.5 -18.5q-84 0 -148 17.5t-151 64.5l-195 -147l-78 57 l191 143q-58 62 -83.5 113.5t-25.5 112.5q0 58 25.5 112t79.5 121zM317 590q0 -72 48 -132t127.5 -95t173.5 -35q93 0 173 35.5t126.5 95.5t46.5 131q0 72 -46 132t-127.5 95t-172.5 35q-72 0 -134.5 -20t-111.5 -57.5t-76 -84.5t-27 -100z" />
<glyph unicode="&#xa5;" horiz-adv-x="1886" d="M104 684v156h318v405q0 21 -14 49.5t-38 59.5t-53 59.5t-55 44.5q64 0 145 -48.5t139 -115t58 -114.5v-340h307v340l396 139l172 139l256 -151l-162 -78v-389h233v-156h-233v-160h227v-159h-227v-582l-72 -123l-184 -156l-475 140h-420v16l291 61h555l186 -53l78 135v179 l-121 206l-489 -204l-408 143h-252v12h19l141 78v148h-313v159h313v160h-318zM604 201h307v164h-307v-164zM604 524h307v160h-307v-160zM932 205l280 -51l179 79l2 132h-461v-160zM932 524h461v160h-461v-160zM932 840h461v417l-72 46l-389 -140v-323z" />
<glyph unicode="&#xa6;" horiz-adv-x="666" d="M266 4v1409h105v-1409h-105z" />
<glyph unicode="&#xa7;" horiz-adv-x="1249" d="M80 -299q37 63 112 134t107 71h147l242 -139h111q22 30 53.5 73.5t48.5 81.5t17 82q0 81 -59 126t-165 75q-45 14 -186 44.5t-224.5 62.5t-138.5 93.5t-55 163.5q0 67 42 140t120 180q-109 94 -109 233q0 94 60 174.5t162.5 127t224.5 46.5h336q65 -3 131 -23t98 -46 l-172 -152l-152 62l-370 57q-94 0 -151.5 -48t-57.5 -124q0 -104 96 -149t311.5 -99.5t325 -120t109.5 -204.5q0 -48 -23 -99t-69 -117.5t-66 -99.5q104 -81 104 -205q-2 -100 -38.5 -195t-110.5 -154.5t-178 -59.5h-219l-99 61h-211zM172 664q0 -80 51 -130.5t132.5 -79 t195.5 -48.5t133 -25q49 -12 143 -45q7 13 35.5 54t42 69.5t13.5 64.5q0 87 -86 149.5t-196.5 98.5t-230.5 62.5t-124 29.5q-13 -21 -45 -63t-48 -72.5t-16 -64.5z" />
<glyph unicode="&#xa8;" horiz-adv-x="1169" d="M137 1692l223 172l201 -172l-151 -115l-154 131l-80 -61zM618 1749l152 115l156 -131l71 57l43 -49l-223 -164z" />
<glyph unicode="&#xa9;" horiz-adv-x="1911" d="M104 700q0 155 68 292.5t188 237t276.5 154t332.5 54.5t332.5 -54.5t277.5 -155t188.5 -236t67.5 -292.5t-67 -290.5t-190 -236t-280.5 -156.5t-328.5 -54t-328.5 54t-279.5 155.5t-189.5 237t-67.5 290.5zM270 700q0 -130 53.5 -243.5t150 -198t225.5 -130.5t270 -46 q142 0 271 46t223.5 130t147 197.5t52.5 244.5q0 173 -91.5 314t-251 221t-351.5 80q-191 0 -351.5 -80t-254 -221.5t-93.5 -313.5zM494 705q0 128 60.5 230.5t174 161t264.5 58.5q107 0 198.5 -35.5t150 -104.5t73.5 -167h-147q-19 79 -93.5 127.5t-181.5 48.5 q-80 0 -141.5 -24t-102.5 -66.5t-62 -100.5t-21 -128q0 -137 92.5 -232.5t245.5 -95.5q101 0 174 52.5t90 135.5h153q-21 -96 -81 -167.5t-147.5 -109.5t-188.5 -38q-151 0 -267.5 59t-179.5 163t-63 233z" />
<glyph unicode="&#xaa;" horiz-adv-x="850" d="M143 946q0 90 37 123l105 94l-142 119v16l105 86l147 -86h47l142 86l104 -86l-51 -49v-327l51 -41h43l-98 -82l-105 78v28l-122 -33l-97 -73q-64 0 -115 44t-51 103zM152 635v65h585v-65h-585zM205 1049q0 -58 33 -107q21 -31 52.5 -40t80.5 -9h45l112 31v321l-92 37h-33 l-94 -37h-86l180 -164l-8 -4l-92 78l-96 -84q-2 0 -2 -22z" />
<glyph unicode="&#xab;" horiz-adv-x="879" d="M123 283l258 249l22 -28l-208 -205l237 -156l-61 -110zM465 283l262 249l25 -28l-211 -205l237 -156l-61 -110z" />
<glyph unicode="&#xac;" horiz-adv-x="1221" d="M80 582v135h1075v-524h-158v389h-917z" />
<glyph unicode="&#xad;" horiz-adv-x="1274" d="M166 610v90h942v-90h-942z" />
<glyph unicode="&#xae;" horiz-adv-x="1886" d="M80 692q0 207 116 373.5t314 261t430 94.5q175 0 331.5 -54.5t275 -152.5t186 -231.5t67.5 -290.5t-67.5 -290.5t-187.5 -232.5t-275 -152.5t-330 -53.5q-232 0 -430 94.5t-314 261t-116 373.5zM248 692q0 -172 91.5 -312t249.5 -219t351 -79q195 0 352 79t247.5 219.5 t90.5 311.5q0 170 -90.5 309.5t-247.5 218t-352 78.5q-193 0 -351 -78.5t-249.5 -217.5t-91.5 -310zM612 270v844h377q177 0 261.5 -58t84.5 -184q0 -73 -32.5 -122.5t-88.5 -75t-131 -31.5l277 -373h-168l-260 365h-172v-365h-148zM760 741h180q77 0 126.5 8.5t80.5 38.5 t31 93q0 73 -58.5 98t-154.5 25h-205v-263z" />
<glyph unicode="&#xaf;" horiz-adv-x="961" d="M80 1286v115h805v-115h-805z" />
<glyph unicode="&#xb0;" horiz-adv-x="655" d="M152 1602q0 67 57.5 113t136.5 46q82 0 136.5 -46.5t54.5 -112.5q0 -68 -54 -116t-137 -48q-78 0 -136 49t-58 115zM205 1602q0 -53 42 -90t99 -37q62 0 102.5 36t40.5 86q0 53 -41 88t-106 35q-57 0 -97 -34.5t-40 -83.5z" />
<glyph unicode="&#xb1;" horiz-adv-x="1516" d="M137 799l6 98l555 -4v557h86v-557l576 4v-98h-576v-557h-86v557h-561zM285 20v91h946v-91h-946z" />
<glyph unicode="&#xb2;" horiz-adv-x="1008" d="M158 635v213q0 70 93.5 147.5t166.5 77.5h237v283l-127 53l-110 -78h-133l-76 33v20q66 0 111 9.5t70.5 26t37.5 38.5h23l208 -78h93v-327h-320q-51 0 -112 -36.5t-102.5 -89.5t-41.5 -96v-163l8 -9q64 39 125 61.5t124 32t128 9.5q188 0 285 -33v-16l-86 -78 q-96 33 -271 33q-115 -2 -183.5 -8.5t-110.5 -24.5h-37z" />
<glyph unicode="&#xb3;" horiz-adv-x="903" d="M143 713v16l76 33h133q20 0 59.5 -23t53.5 -47l176 45v230l-176 73l-23 -20h-28v16h18v17h-18v20h28l23 -20l176 69v234l-166 53l-86 -78h-119l-80 33v16q56 0 106 24.5t75 53.5h28l252 -78h101v-282h-101l-147 -49l147 -54h101v-282h-101l-162 -45h-18l-72 -33h-28 q-15 24 -62.5 51t-70.5 27h-95z" />
<glyph unicode="&#xb4;" horiz-adv-x="784" d="M166 1573v57l129 193l379 90l-455 -340h-53z" />
<glyph unicode="&#xb5;" horiz-adv-x="879" d="M61 127v12h15l147 78v528l-71 78h-91l166 156l172 -139v-623l142 -78h110l219 78v528l-161 86l170 148l237 -139h90l-162 -95v-544l91 -62h71l-166 -155l-170 143v45h-20l-342 -111l-113 -77l-243 143h-91z" />
<glyph unicode="&#xb6;" horiz-adv-x="1174" d="M109 1151q0 109 54 179t153.5 103t238.5 33h471v-1466h-137v1368h-230v-1368h-141v848q-117 0 -211 40.5t-146 109.5t-52 153z" />
<glyph unicode="&#xb8;" horiz-adv-x="983" d="M299 -492l18 62l43 -4q54 0 89.5 22t35.5 56q0 46 -50.5 61.5t-117.5 20.5l201 135q162 -46 162 -160q0 -87 -82 -142t-213 -55q-53 0 -86 4z" />
<glyph unicode="&#xb9;" horiz-adv-x="612" d="M147 713v8h11l80 41v508l-58 86h-14l-19 24l11 13l141 69l39 -69v-631q14 -16 55 -27t86 -14l-147 -86z" />
<glyph unicode="&#xba;" horiz-adv-x="850" d="M61 877v8h11l90 49v389h104l252 82l137 -86h111l-100 -57v-385h-111l-141 -46l-97 -36l-155 82h-101zM66 639v66h679v-66h-679zM270 926l144 -76l141 45v375l-133 78h-19l-133 -41v-381z" />
<glyph unicode="&#xbb;" horiz-adv-x="879" d="M0 143l238 156l-211 205l24 28l262 -249l-252 -250zM346 143l238 156l-209 205l22 28l258 -249l-247 -250z" />
<glyph unicode="&#xbc;" horiz-adv-x="1778" d="M176 664v8h8l86 45v532l-61 90h-10l-23 21l8 16l154 70l37 -70v-659q15 -18 57 -30t90 -15l-151 -90zM190 -41l1051 1483h137l-1050 -1483h-138zM879 229v222l475 409h18l96 -82v-28l-43 -62v-442h172l41 37h21v-99h-21l-41 45h-172v-102q0 -17 38 -31t91 -14h9v-16 l-138 -82h-18q-107 82 -190 82v16h14l80 45v102h-432zM997 250h314v536l-314 -266v-270z" />
<glyph unicode="&#xbd;" horiz-adv-x="1829" d="M176 664v8h8l86 45v532l-61 90h-10l-23 21l8 16l154 70l37 -70v-659q15 -18 57 -30t90 -15l-151 -90zM190 -41l1051 1483h137l-1050 -1483h-138zM954 -25v226q0 51 48 107.5t116 95t117 38.5h256v299l-137 58q-9 -18 -32.5 -38.5t-47 -34t-39.5 -13.5v4h-137l-90 37l4 16 q200 0 233 82h33l223 -82h90v-348h-338q-57 0 -122 -40.5t-108.5 -97t-43.5 -100.5v-176l4 -8q107 61 203.5 86t210.5 25q118 0 177.5 -9t127.5 -28v-17l-100 -82q-97 33 -252 33h-33q-243 0 -320 -33h-43z" />
<glyph unicode="&#xbe;" horiz-adv-x="1944" d="M86 668v16l80 37h137q29 0 69.5 -24.5t59.5 -53.5l180 49v246l-184 78l-29 -21h-28v17h24v20h-24v21h28l29 -21l184 74v246l-170 57l-96 -82h-123l-86 37v16q106 0 191 82h28l267 -82h104v-303h-104l-158 -53l158 -53h104v-303h-104l-166 -45h-25l-76 -37h-28 q-19 26 -68 54t-76 28h-98zM381 -41l1049 1483h139l-1051 -1483h-137zM1069 229v222l475 409h19l96 -82v-28l-43 -62v-442h170l43 37h18v-99h-18l-43 45h-170v-102q0 -17 37.5 -31t89.5 -14h10v-16l-137 -82h-19q-52 39 -94.5 60.5t-95.5 21.5v16h14l80 45v102h-432z M1188 250h313v536l-313 -266v-270z" />
<glyph unicode="&#xbf;" horiz-adv-x="1198" d="M-55 -78q0 110 49.5 193t144.5 149t244 133l51 172v17h15v-17l90 -217h-162q-69 -18 -125.5 -71.5t-90.5 -139.5t-34 -194q3 -146 76.5 -235t161.5 -89h174q219 0 219 324l180 -62q-15 -77 -78 -143.5t-151 -107t-164 -40.5h-201q-78 0 -150.5 26t-129 72.5t-88 105 t-31.5 124.5zM272 1004l144 65h53l141 -70l-170 -147z" />
<glyph unicode="&#xc0;" horiz-adv-x="1925" d="M43 -16l162 155q38 22 112 42t125 20l357 676q0 11 -20 47.5t-58.5 68t-93.5 31.5q-81 0 -133 -61h-43q42 51 120.5 103t184.5 52q64 -3 89.5 -24t39.5 -54l41 95q-3 27 -18.5 83t-62 111t-128.5 55q-80 0 -132 -43t-91 -96h-37q15 23 44.5 56t81.5 70.5t128 64t174 26.5 q54 0 92.5 -11t73.5 -54l645 -1196h162l-162 -217h-105q-26 0 -51 18.5t-39 46.5l-250 475h-596l-166 -323q64 0 127 -7.5t100.5 -17.5t64.5 -22.5t36 -22.5l-170 -147q-23 28 -97.5 46.5t-131.5 18.5q-119 0 -211 -11t-164 -54zM231 1888l379 -90l129 -192v-58h-53z M670 561h571l-280 541h-15z" />
<glyph unicode="&#xc1;" horiz-adv-x="1925" d="M43 -16l162 155q38 22 112 42t125 20l357 676q0 11 -20 47.5t-58.5 68t-93.5 31.5q-81 0 -133 -61h-43q42 51 120.5 103t184.5 52q64 -3 89.5 -24t39.5 -54l41 95q-3 27 -18.5 83t-62 111t-128.5 55q-80 0 -132 -43t-91 -96h-37q15 23 44.5 56t81.5 70.5t128 64t174 26.5 q54 0 92.5 -11t73.5 -54l645 -1196h162l-162 -217h-105q-26 0 -51 18.5t-39 46.5l-250 475h-596l-166 -323q64 0 127 -7.5t100.5 -17.5t64.5 -22.5t36 -22.5l-170 -147q-23 28 -97.5 46.5t-131.5 18.5q-119 0 -211 -11t-164 -54zM670 561h571l-280 541h-15zM768 1536v57 l129 193l379 90l-455 -340h-53z" />
<glyph unicode="&#xc2;" horiz-adv-x="1925" d="M43 -16l162 155q38 22 112 42t125 20l357 676q0 11 -20 47.5t-58.5 68t-93.5 31.5q-81 0 -133 -61h-43q42 51 120.5 103t184.5 52q64 -3 89.5 -24t39.5 -54l41 95q-3 27 -18.5 83t-62 111t-128.5 55q-80 0 -132 -43t-91 -96h-37q15 23 44.5 56t81.5 70.5t128 64t174 26.5 q54 0 92.5 -11t73.5 -54l645 -1196h162l-162 -217h-105q-26 0 -51 18.5t-39 46.5l-250 475h-596l-166 -323q64 0 127 -7.5t100.5 -17.5t64.5 -22.5t36 -22.5l-170 -147q-23 28 -97.5 46.5t-131.5 18.5q-119 0 -211 -11t-164 -54zM454 1589l248 241l242 54l233 -283v-45 l-438 176l-242 -184zM670 561h571l-280 541h-15z" />
<glyph unicode="&#xc3;" horiz-adv-x="1925" d="M43 -16l162 155q38 22 112 42t125 20l357 676q0 11 -20 47.5t-58.5 68t-93.5 31.5q-81 0 -133 -61h-43q42 51 120.5 103t184.5 52q64 -3 89.5 -24t39.5 -54l41 95q-3 27 -18.5 83t-62 111t-128.5 55q-80 0 -132 -43t-91 -96h-37q15 23 44.5 56t81.5 70.5t128 64t174 26.5 q54 0 92.5 -11t73.5 -54l645 -1196h162l-162 -217h-105q-26 0 -51 18.5t-39 46.5l-250 475h-596l-166 -323q64 0 127 -7.5t100.5 -17.5t64.5 -22.5t36 -22.5l-170 -147q-23 28 -97.5 46.5t-131.5 18.5q-119 0 -211 -11t-164 -54zM454 1622q81 81 143 120.5t158 39.5 q39 0 68.5 -8.5t63 -21.5t78.5 -26.5t79 -13.5q21 0 62 30t71 40h58q-29 -32 -61 -66.5t-67.5 -62.5t-78.5 -45.5t-92 -17.5q-18 0 -53.5 16t-78 38t-80.5 35t-79 13q-22 0 -49 -25.5t-88 -89.5zM670 561h571l-280 541h-15z" />
<glyph unicode="&#xc4;" horiz-adv-x="1925" d="M43 -16l162 155q38 22 112 42t125 20l357 676q0 11 -20 47.5t-58.5 68t-93.5 31.5q-81 0 -133 -61h-43q42 51 120.5 103t184.5 52q64 -3 89.5 -24t39.5 -54l41 95q-3 27 -18.5 83t-62 111t-128.5 55q-80 0 -132 -43t-91 -96h-37q15 23 44.5 56t81.5 70.5t128 64t174 26.5 q54 0 92.5 -11t73.5 -54l645 -1196h162l-162 -217h-105q-26 0 -51 18.5t-39 46.5l-250 475h-596l-166 -323q64 0 127 -7.5t100.5 -17.5t64.5 -22.5t36 -22.5l-170 -147q-23 28 -97.5 46.5t-131.5 18.5q-119 0 -211 -11t-164 -54zM358 1667l223 172l201 -172l-151 -115 l-154 131l-80 -61zM670 561h571l-280 541h-15zM839 1724l152 115l156 -131l71 57l43 -49l-223 -164z" />
<glyph unicode="&#xc5;" horiz-adv-x="1925" d="M43 -16l162 155q38 22 112 42t125 20l357 676q0 11 -20 47.5t-58.5 68t-93.5 31.5q-81 0 -133 -61h-43q42 51 120.5 103t184.5 52q64 -3 89.5 -24t39.5 -54l41 95q-3 27 -18.5 83t-62 111t-128.5 55q-80 0 -132 -43t-91 -96h-37q15 23 44.5 56t81.5 70.5t128 64t174 26.5 q54 0 92.5 -11t73.5 -54l645 -1196h162l-162 -217h-105q-26 0 -51 18.5t-39 46.5l-250 475h-596l-166 -323q64 0 127 -7.5t100.5 -17.5t64.5 -22.5t36 -22.5l-170 -147q-23 28 -97.5 46.5t-131.5 18.5q-119 0 -211 -11t-164 -54zM618 1724q0 68 57.5 114t137.5 46 q83 0 137 -47t54 -113q0 -69 -54 -116t-137 -47q-79 0 -137 48t-58 115zM670 561h571l-280 541h-15zM672 1724q0 -52 42.5 -89.5t98.5 -37.5q60 0 101.5 36.5t41.5 86.5q0 53 -41 88t-106 35q-57 0 -97 -34.5t-40 -84.5z" />
<glyph unicode="&#xc6;" horiz-adv-x="2390" d="M18 -16l162 155q39 21 113 41.5t121 20.5l360 676q0 11 -19.5 47.5t-59 68t-97.5 31.5q-88 0 -127 -61h-43q44 54 119 104.5t180 50.5q107 -4 129 -78l47 95q-3 27 -18.5 82t-63.5 111t-133 56q-80 0 -129 -41t-94 -98h-33q164 217 428 217q54 0 93 -11t69 -54l461 -852 v438l180 356l90 78l143 62h213q63 -3 124.5 -20.5t95.5 -41.5l-172 -151l-152 61h-180l-148 -61l-157 -267v-516l143 299l90 78h176l148 -61l14 -25l-166 -147l-100 78h-148l-147 -254l137 -242h457q45 0 110.5 -15t94.5 -34l-162 -156q-35 26 -108 46t-126 20h-612 q-137 0 -305 -66q39 38 101.5 75t137.5 65t146 40l-174 348h-594l-172 -331q92 0 162.5 -12t111 -27.5t53.5 -30.5l-165 -147q-25 28 -100 46.5t-128 18.5q-121 0 -212.5 -11t-164.5 -54zM641 561h576l-285 541h-10zM1087 1343l140 148h237q42 -28 70 -42.5t39 -14.5 q50 0 156 53l-142 -148h-223q-30 30 -69.5 54t-59.5 24z" />
<glyph unicode="&#xc7;" horiz-adv-x="1702" d="M76 709q0 107 32 213.5t95.5 202t156 165t209.5 103.5q-136 -100 -226.5 -272.5t-90.5 -395.5q0 -176 94.5 -309.5t254.5 -205t349 -71.5q263 0 314 49v1057h-162l-133 53l-66 -53v-700l-72 -123l-104 -94v852l395 278h33q77 -61 184 -61q55 0 113 13t92 40l-65 -127 l-144 -66l-39 -28v-1028q62 0 117 32.5t109 85.5t102 99q-13 -102 -124 -202.5t-286 -164t-364 -63.5q-196 0 -344 50.5t-243 145t-141 227.5t-46 298zM514 -406l18 62l43 -4q55 0 89 22t34 56q0 45 -49.5 61t-116.5 21l199 135q162 -46 162 -160q0 -87 -82 -142t-213 -55 q-51 0 -84 4z" />
<glyph unicode="&#xc8;" horiz-adv-x="1667" d="M72 606v156l75 78h162v61q6 43 60.5 114.5t115.5 102.5v-672q-11 -40 -38 -76.5t-63.5 -63.5t-74.5 -36v414h-147zM80 1311l158 147h266q104 -57 123 -57q60 0 176 53l-156 -147h-252q-38 31 -82 54t-65 23q-19 0 -76 -27.5t-92 -45.5zM270 -16q55 48 133 92t165 70 t173 26v791l177 356l90 78l141 61h215q66 -3 127.5 -20t91.5 -41l-172 -152l-151 62h-181l-147 -62l-158 -303v-479l144 299l90 78h176l147 -62l19 -24l-172 -148l-99 78h-147l-158 -262v-234h604q45 0 110.5 -14t94.5 -35l-162 -155q-37 25 -108.5 45t-124.5 20h-613 q-139 0 -305 -65zM309 1888l379 -90l129 -192v-58h-53z" />
<glyph unicode="&#xc9;" horiz-adv-x="1667" d="M72 606v156l75 78h162v61q6 43 60.5 114.5t115.5 102.5v-672q-11 -40 -38 -76.5t-63.5 -63.5t-74.5 -36v414h-147zM80 1311l158 147h266q104 -57 123 -57q60 0 176 53l-156 -147h-252q-38 31 -82 54t-65 23q-19 0 -76 -27.5t-92 -45.5zM270 -16q55 48 133 92t165 70 t173 26v791l177 356l90 78l141 61h215q66 -3 127.5 -20t91.5 -41l-172 -152l-151 62h-181l-147 -62l-158 -303v-479l144 299l90 78h176l147 -62l19 -24l-172 -148l-99 78h-147l-158 -262v-234h604q45 0 110.5 -14t94.5 -35l-162 -155q-37 25 -108.5 45t-124.5 20h-613 q-139 0 -305 -65zM694 1561v57l129 193l379 90l-455 -340h-53z" />
<glyph unicode="&#xca;" horiz-adv-x="1667" d="M72 606v156l75 78h162v61q6 43 60.5 114.5t115.5 102.5v-672q-11 -40 -38 -76.5t-63.5 -63.5t-74.5 -36v414h-147zM80 1311l158 147h266q104 -57 123 -57q60 0 176 53l-156 -147h-252q-38 31 -82 54t-65 23q-19 0 -76 -27.5t-92 -45.5zM270 -16q55 48 133 92t165 70 t173 26v791l177 356l90 78l141 61h215q66 -3 127.5 -20t91.5 -41l-172 -152l-151 62h-181l-147 -62l-158 -303v-479l144 299l90 78h176l147 -62l19 -24l-172 -148l-99 78h-147l-158 -262v-234h604q45 0 110.5 -14t94.5 -35l-162 -155q-37 25 -108.5 45t-124.5 20h-613 q-139 0 -305 -65zM577 1589l248 241l242 54l233 -283v-45l-438 176l-242 -184z" />
<glyph unicode="&#xcb;" horiz-adv-x="1667" d="M72 606v156l75 78h162v61q6 43 60.5 114.5t115.5 102.5v-672q-11 -40 -38 -76.5t-63.5 -63.5t-74.5 -36v414h-147zM80 1311l158 147h266q104 -57 123 -57q60 0 176 53l-156 -147h-252q-38 31 -82 54t-65 23q-19 0 -76 -27.5t-92 -45.5zM270 -16q55 48 133 92t165 70 t173 26v791l177 356l90 78l141 61h215q66 -3 127.5 -20t91.5 -41l-172 -152l-151 62h-181l-147 -62l-158 -303v-479l144 299l90 78h176l147 -62l19 -24l-172 -148l-99 78h-147l-158 -262v-234h604q45 0 110.5 -14t94.5 -35l-162 -155q-37 25 -108.5 45t-124.5 20h-613 q-139 0 -305 -65zM444 1680l223 172l201 -172l-151 -115l-154 131l-80 -61zM925 1737l152 115l156 -131l71 57l43 -49l-223 -164z" />
<glyph unicode="&#xcc;" horiz-adv-x="1397" d="M39 -8q49 67 151 138t148 71h194l310 -140h141l111 140v790l69 189l176 139v-29l-71 -106v-856q0 -56 -69.5 -138t-163.5 -144t-161 -62h-284l-129 65h-271zM383 1876l379 -90l129 -193v-57h-53zM428 606v156l76 78h155v61q8 28 36 71.5t67 84t80 61.5v-672 q-15 -56 -69 -109t-114 -67v414h-141zM436 1311l158 147h266q104 -57 123 -57q60 0 176 53l-155 -147h-252q-39 30 -83 53.5t-65 23.5q-19 0 -76 -27.5t-92 -45.5z" />
<glyph unicode="&#xcd;" horiz-adv-x="1397" d="M39 -8q49 67 151 138t148 71h194l310 -140h141l111 140v790l69 189l176 139v-29l-71 -106v-856q0 -56 -69.5 -138t-163.5 -144t-161 -62h-284l-129 65h-271zM428 606v156l76 78h155v61q8 28 36 71.5t67 84t80 61.5v-672q-15 -56 -69 -109t-114 -67v414h-141zM436 1311 l158 147h266q104 -57 123 -57q60 0 176 53l-155 -147h-252q-39 30 -83 53.5t-65 23.5q-19 0 -76 -27.5t-92 -45.5zM916 1548v57l129 193l379 90l-455 -340h-53z" />
<glyph unicode="&#xce;" horiz-adv-x="1397" d="M39 -8q49 67 151 138t148 71h194l310 -140h141l111 140v790l69 189l176 139v-29l-71 -106v-856q0 -56 -69.5 -138t-163.5 -144t-161 -62h-284l-129 65h-271zM428 606v156l76 78h155v61q8 28 36 71.5t67 84t80 61.5v-672q-15 -56 -69 -109t-114 -67v414h-141zM436 1311 l158 147h266q104 -57 123 -57q60 0 176 53l-155 -147h-252q-39 30 -83 53.5t-65 23.5q-19 0 -76 -27.5t-92 -45.5zM577 1614l248 241l242 54l233 -283v-45l-438 176l-242 -184z" />
<glyph unicode="&#xcf;" horiz-adv-x="1397" d="M39 -8q49 67 151 138t148 71h194l310 -140h141l111 140v790l69 189l176 139v-29l-71 -106v-856q0 -56 -69.5 -138t-163.5 -144t-161 -62h-284l-129 65h-271zM428 606v156l76 78h155v61q8 28 36 71.5t67 84t80 61.5v-672q-15 -56 -69 -109t-114 -67v414h-141zM436 1311 l158 147h266q104 -57 123 -57q60 0 176 53l-155 -147h-252q-39 30 -83 53.5t-65 23.5q-19 0 -76 -27.5t-92 -45.5zM469 1692l223 172l201 -172l-151 -115l-154 131l-80 -61zM950 1749l152 115l156 -131l71 57l43 -49l-223 -164z" />
<glyph unicode="&#xd0;" horiz-adv-x="1620" d="M80 684v156h338l4 57q0 43 71 130t105 87v-274h215v467h-467q-20 0 -83 30.5t-116 67t-53 53.5l1174 4q50 0 102.5 -31.5t88 -79.5t38.5 -94v-1069h-180l-313 -204l-154 65h-451q-55 -3 -150 -23.5t-155 -41.5q33 38 125.5 89.5t192.5 89.5t153 38h248v483h-215v-164 q0 -21 -36.5 -69.5t-78 -85.5t-65.5 -37v356h-338zM850 205h72l213 -66h49l133 82v324l-129 61h-195l-143 -61v-340zM850 565l143 62h199l125 -62v377l-143 -57h-185l-139 57v-102h139v-156h-139v-119zM850 963l158 -62h147l162 62v294l-76 46h-391v-340z" />
<glyph unicode="&#xd1;" horiz-adv-x="1753" d="M53 -16l160 155l129 49l33 29v467h-148l-84 -78v156l70 78h162v544h-148l-166 -135q77 98 146 153.5t149 55.5h219q25 0 72 -26t92.5 -66t67.5 -76l129 -225l266 -164h148l161 78v266h-90l-147 66l166 147h33l124 -61h166l84 61v-28l-69 -123l-144 -62h-90v-1274h-4 q-74 0 -179.5 103t-186 208t-115.5 156l-51 45l-148 58h-305l-141 -70v-270h245l148 -70l-170 -147l-96 65h-238q-51 0 -122 -17.5t-128 -47.5zM414 496l141 65h305l156 -57l-336 643q-35 59 -76.5 111t-91 89t-98.5 37v-888zM553 1609q81 81 143 120.5t158 39.5 q39 0 68.5 -8.5t63 -21.5t78.5 -26.5t79 -13.5q21 0 62 30t71 40h58q-29 -32 -61 -66.5t-67.5 -62.5t-78.5 -45.5t-92 -17.5q-18 0 -53.5 16t-78 38t-80.5 35t-79 13q-22 0 -49 -25.5t-88 -89.5zM950 1036l490 -831l65 -45v798l-155 -73h-148z" />
<glyph unicode="&#xd2;" horiz-adv-x="1845" d="M104 791q0 131 45.5 254t122 216.5t165 145t171.5 51.5q-42 0 -98.5 -60.5t-107.5 -161t-84 -224.5t-33 -246q0 -272 91 -443t216.5 -243t234.5 -72h181l122 25v1319l-4 16l-284 -135v-787q-38 -133 -176 -180v914l575 278q86 -1 176 -61.5t163.5 -151t118 -180.5 t44.5 -152v-323q0 -100 -75 -205.5t-193 -197.5t-243 -147.5t-210 -55.5h-320q-106 2 -211 49t-193 145.5t-141 254t-53 358.5zM272 1864l379 -90l129 -193v-57h-53zM1169 45q60 0 155.5 85.5t167 203.5t71.5 207l-133 65h-119l-142 -61v-500zM1169 561l142 62h129l123 -62 v385l-142 -61h-110l-142 57v-381zM1169 963l156 -62h86l152 62q0 50 -39.5 117.5t-102.5 133.5t-131.5 108t-120.5 42v-401z" />
<glyph unicode="&#xd3;" horiz-adv-x="1845" d="M104 791q0 131 45.5 254t122 216.5t165 145t171.5 51.5q-42 0 -98.5 -60.5t-107.5 -161t-84 -224.5t-33 -246q0 -272 91 -443t216.5 -243t234.5 -72h181l122 25v1319l-4 16l-284 -135v-787q-38 -133 -176 -180v914l575 278q86 -1 176 -61.5t163.5 -151t118 -180.5 t44.5 -152v-323q0 -100 -75 -205.5t-193 -197.5t-243 -147.5t-210 -55.5h-320q-106 2 -211 49t-193 145.5t-141 254t-53 358.5zM768 1512v57l129 193l379 90l-455 -340h-53zM1169 45q60 0 155.5 85.5t167 203.5t71.5 207l-133 65h-119l-142 -61v-500zM1169 561l142 62h129 l123 -62v385l-142 -61h-110l-142 57v-381zM1169 963l156 -62h86l152 62q0 50 -39.5 117.5t-102.5 133.5t-131.5 108t-120.5 42v-401z" />
<glyph unicode="&#xd4;" horiz-adv-x="1845" d="M104 791q0 131 45.5 254t122 216.5t165 145t171.5 51.5q-42 0 -98.5 -60.5t-107.5 -161t-84 -224.5t-33 -246q0 -272 91 -443t216.5 -243t234.5 -72h181l122 25v1319l-4 16l-284 -135v-787q-38 -133 -176 -180v914l575 278q86 -1 176 -61.5t163.5 -151t118 -180.5 t44.5 -152v-323q0 -100 -75 -205.5t-193 -197.5t-243 -147.5t-210 -55.5h-320q-106 2 -211 49t-193 145.5t-141 254t-53 358.5zM466 1589l248 241l242 54l233 -283v-45l-438 176l-242 -184zM1169 45q60 0 155.5 85.5t167 203.5t71.5 207l-133 65h-119l-142 -61v-500z M1169 561l142 62h129l123 -62v385l-142 -61h-110l-142 57v-381zM1169 963l156 -62h86l152 62q0 50 -39.5 117.5t-102.5 133.5t-131.5 108t-120.5 42v-401z" />
<glyph unicode="&#xd5;" horiz-adv-x="1845" d="M104 791q0 131 45.5 254t122 216.5t165 145t171.5 51.5q-42 0 -98.5 -60.5t-107.5 -161t-84 -224.5t-33 -246q0 -272 91 -443t216.5 -243t234.5 -72h181l122 25v1319l-4 16l-284 -135v-787q-38 -133 -176 -180v914l575 278q86 -1 176 -61.5t163.5 -151t118 -180.5 t44.5 -152v-323q0 -100 -75 -205.5t-193 -197.5t-243 -147.5t-210 -55.5h-320q-106 2 -211 49t-193 145.5t-141 254t-53 358.5zM479 1585q81 81 143 120.5t158 39.5q39 0 68.5 -8.5t63 -21.5t78.5 -26.5t79 -13.5q21 0 62 30t71 40h58q-29 -32 -61 -66.5t-67.5 -62.5 t-78.5 -45.5t-92 -17.5q-18 0 -53.5 16t-78 38t-80.5 35t-79 13q-22 0 -49 -25.5t-88 -89.5zM1169 45q60 0 155.5 85.5t167 203.5t71.5 207l-133 65h-119l-142 -61v-500zM1169 561l142 62h129l123 -62v385l-142 -61h-110l-142 57v-381zM1169 963l156 -62h86l152 62 q0 50 -39.5 117.5t-102.5 133.5t-131.5 108t-120.5 42v-401z" />
<glyph unicode="&#xd6;" horiz-adv-x="1845" d="M104 791q0 131 45.5 254t122 216.5t165 145t171.5 51.5q-42 0 -98.5 -60.5t-107.5 -161t-84 -224.5t-33 -246q0 -272 91 -443t216.5 -243t234.5 -72h181l122 25v1319l-4 16l-284 -135v-787q-38 -133 -176 -180v914l575 278q86 -1 176 -61.5t163.5 -151t118 -180.5 t44.5 -152v-323q0 -100 -75 -205.5t-193 -197.5t-243 -147.5t-210 -55.5h-320q-106 2 -211 49t-193 145.5t-141 254t-53 358.5zM407 1655l223 172l201 -172l-151 -115l-154 131l-80 -61zM888 1712l152 115l156 -131l71 57l43 -49l-223 -164zM1169 45q60 0 155.5 85.5 t167 203.5t71.5 207l-133 65h-119l-142 -61v-500zM1169 561l142 62h129l123 -62v385l-142 -61h-110l-142 57v-381zM1169 963l156 -62h86l152 62q0 50 -39.5 117.5t-102.5 133.5t-131.5 108t-120.5 42v-401z" />
<glyph unicode="&#xd7;" horiz-adv-x="1325" d="M90 98l457 398l-457 397l115 98l454 -393l457 393l119 -98l-461 -397l461 -398l-119 -98l-457 393l-460 -393z" />
<glyph unicode="&#xd8;" horiz-adv-x="1810" d="M57 16l195 185q-54 65 -92 150.5t-59 195t-21 244.5q0 175 77.5 329.5t196 246t230.5 91.5q-41 0 -97.5 -60.5t-107.5 -161t-84 -224.5t-33 -246q0 -285 105 -463l274 250v627l576 278q64 -3 131 -38.5t131 -96.5l145 139h64l-183 -172q60 -58 109 -128.5t77.5 -137 t28.5 -111.5v-323q0 -131 -128 -273t-302.5 -237.5t-292.5 -95.5h-317q-110 0 -213 47.5t-191 140.5l-186 -172zM381 266q83 -135 201 -197.5t221 -62.5h180l125 27v897l-291 -266v-218q-33 -132 -176 -180v238zM817 713l291 270v369l-6 16l-285 -135v-520zM1145 45 q60 0 156 85.5t167.5 203t71.5 207.5l-133 65h-119l-143 -61v-500zM1145 561l143 62h127l125 -62v385l-143 -61h-109l-143 57v-381zM1145 963l162 -62h79l154 62q0 44 -38.5 108t-100.5 129zM1145 1020l233 217q-57 57 -120 92t-113 35v-344z" />
<glyph unicode="&#xd9;" horiz-adv-x="1761" d="M66 1311q36 18 93 45.5t74 27.5q45 0 152 -77h252l151 147q-104 -53 -170 -53q-28 0 -124 57h-271l-151 -147h-6zM123 705q0 82 24.5 172.5t67.5 172t94 130.5q-29 -73 -52.5 -180.5t-23.5 -196.5q0 -168 76.5 -322.5t225.5 -250t354 -95.5q14 -1 45 -2.5t59 -1.5 q66 0 86 8v1090l-200 -45v-639q-58 -172 -170 -213l-7 725l72 123l305 77l351 201l262 -151l-162 -78v-963l86 -127h76l-172 -155l-160 143q-25 -25 -95.5 -57t-182 -58.5t-240.5 -27.5q-265 0 -426.5 101.5t-227 263.5t-65.5 356zM346 1864l379 -90l129 -193v-57h-53z M1116 139l234 66v397h-234v-463zM1116 623h234v262h-234v-262zM1116 905h234v352l-109 46l-125 -62v-336z" />
<glyph unicode="&#xda;" horiz-adv-x="1761" d="M66 1311q36 18 93 45.5t74 27.5q45 0 152 -77h252l151 147q-104 -53 -170 -53q-28 0 -124 57h-271l-151 -147h-6zM123 705q0 82 24.5 172.5t67.5 172t94 130.5q-29 -73 -52.5 -180.5t-23.5 -196.5q0 -168 76.5 -322.5t225.5 -250t354 -95.5q14 -1 45 -2.5t59 -1.5 q66 0 86 8v1090l-200 -45v-639q-58 -172 -170 -213l-7 725l72 123l305 77l351 201l262 -151l-162 -78v-963l86 -127h76l-172 -155l-160 143q-25 -25 -95.5 -57t-182 -58.5t-240.5 -27.5q-265 0 -426.5 101.5t-227 263.5t-65.5 356zM866 1512v57l129 193l379 90l-455 -340 h-53zM1116 139l234 66v397h-234v-463zM1116 623h234v262h-234v-262zM1116 905h234v352l-109 46l-125 -62v-336z" />
<glyph unicode="&#xdb;" horiz-adv-x="1761" d="M66 1311q36 18 93 45.5t74 27.5q45 0 152 -77h252l151 147q-104 -53 -170 -53q-28 0 -124 57h-271l-151 -147h-6zM123 705q0 82 24.5 172.5t67.5 172t94 130.5q-29 -73 -52.5 -180.5t-23.5 -196.5q0 -168 76.5 -322.5t225.5 -250t354 -95.5q14 -1 45 -2.5t59 -1.5 q66 0 86 8v1090l-200 -45v-639q-58 -172 -170 -213l-7 725l72 123l305 77l351 201l262 -151l-162 -78v-963l86 -127h76l-172 -155l-160 143q-25 -25 -95.5 -57t-182 -58.5t-240.5 -27.5q-265 0 -426.5 101.5t-227 263.5t-65.5 356zM553 1577l248 241l242 54l233 -283v-45 l-438 176l-242 -184zM1116 139l234 66v397h-234v-463zM1116 623h234v262h-234v-262zM1116 905h234v352l-109 46l-125 -62v-336z" />
<glyph unicode="&#xdc;" horiz-adv-x="1761" d="M66 1311q36 18 93 45.5t74 27.5q45 0 152 -77h252l151 147q-104 -53 -170 -53q-28 0 -124 57h-271l-151 -147h-6zM123 705q0 82 24.5 172.5t67.5 172t94 130.5q-29 -73 -52.5 -180.5t-23.5 -196.5q0 -168 76.5 -322.5t225.5 -250t354 -95.5q14 -1 45 -2.5t59 -1.5 q66 0 86 8v1090l-200 -45v-639q-58 -172 -170 -213l-7 725l72 123l305 77l351 201l262 -151l-162 -78v-963l86 -127h76l-172 -155l-160 143q-25 -25 -95.5 -57t-182 -58.5t-240.5 -27.5q-265 0 -426.5 101.5t-227 263.5t-65.5 356zM444 1667l223 172l201 -172l-151 -115 l-154 131l-80 -61zM925 1724l152 115l156 -131l71 57l43 -49l-223 -164zM1116 139l234 66v397h-234v-463zM1116 623h234v262h-234v-262zM1116 905h234v352l-109 46l-125 -62v-336z" />
<glyph unicode="&#xdd;" horiz-adv-x="1653" d="M61 606v156l91 78h165v405q0 27 -25.5 67.5t-65.5 82.5t-74 63q64 0 145 -48.5t139 -115t58 -114.5v-979h309v979l395 139l170 139l262 -151l-166 -78v-1446l-71 -123l-187 -156l-475 140h-414v16l287 61h555l201 -61l90 139v185l-143 204l-220 -49l-274 -155l-403 143 h-258v12h20l145 78v467h-145zM621 1512v57l129 193l379 90l-455 -340h-53zM821 205l266 -45l195 45v340l-141 61h-180l-140 -61v-340zM821 561l140 62h198l123 -58v381l-137 -61h-184l-140 61v-385zM821 963l158 -62h147l156 62v294l-70 46l-391 -140v-200z" />
<glyph unicode="&#xde;" horiz-adv-x="1221" d="M33 127v12h20l142 78v1114l-62 131l43 -8l109 -49l90 -74v-553l395 123l80 78l244 -139h90l-162 -95v-618h-180l-385 -143l-72 49l-10 -17v-217l90 -151l-270 -144v623h-162zM375 205l243 -144l224 78v623l-148 61h-90l-229 -78v-540z" />
<glyph unicode="&#xdf;" horiz-adv-x="1036" d="M57 123v12h19l143 78v1102l379 139h35l252 -139h69v-12h-18l-123 -62h-201l-151 139l-62 -77v-541q67 23 133 86q92 -45 148 -45h80q54 0 104 45l68 -29l-305 -360h237v-328q29 -6 86 -25l-28 -45q-44 25 -80 25q-52 0 -96 -27.5t-44 -58.5q0 -34 20 -57t71.5 -67 t75.5 -74t24 -68q0 -43 -20 -79t-70 -78t-144 -101l-32 32q110 85 110 136q0 31 -16 58.5t-47.5 67.5t-48.5 73t-17 71q0 46 17 81.5t59 78.5v299h-162l266 332q-40 -29 -83.5 -37.5t-110.5 -8.5q-55 0 -94 16t-101 58v-520l142 -78h92l-244 -155l-260 143h-72z" />
<glyph unicode="&#xe0;" horiz-adv-x="1087" d="M-47 1421l379 -90l129 -192v-58h-53zM61 246q0 67 10.5 120t47.5 85l176 155l-234 205v29l172 139l242 -139h90l242 139l172 -148l-90 -86v-544l90 -62h72l-172 -155l-170 143v61l-215 -61l-166 -143q-69 0 -130.5 38t-99 99t-37.5 125zM158 414q0 -85 55 -176 q36 -49 93.5 -65.5t137.5 -16.5h64l201 57v532l-162 62h-53l-162 -62h-142l304 -270l-19 -8l-151 123l-152 -131q-14 -11 -14 -45z" />
<glyph unicode="&#xe1;" horiz-adv-x="1087" d="M61 246q0 67 10.5 120t47.5 85l176 155l-234 205v29l172 139l242 -139h90l242 139l172 -148l-90 -86v-544l90 -62h72l-172 -155l-170 143v61l-215 -61l-166 -143q-69 0 -130.5 38t-99 99t-37.5 125zM158 414q0 -85 55 -176q36 -49 93.5 -65.5t137.5 -16.5h64l201 57v532 l-162 62h-53l-162 -62h-142l304 -270l-19 -8l-151 123l-152 -131q-14 -11 -14 -45zM436 1057v57l129 193l379 90l-455 -340h-53z" />
<glyph unicode="&#xe2;" horiz-adv-x="1087" d="M61 246q0 67 10.5 120t47.5 85l176 155l-234 205v29l172 139l242 -139h90l242 139l172 -148l-90 -86v-544l90 -62h72l-172 -155l-170 143v61l-215 -61l-166 -143q-69 0 -130.5 38t-99 99t-37.5 125zM158 414q0 -85 55 -176q36 -49 93.5 -65.5t137.5 -16.5h64l201 57v532 l-162 62h-53l-162 -62h-142l304 -270l-19 -8l-151 123l-152 -131q-14 -11 -14 -45zM159 1110l248 241l242 54l233 -283v-45l-438 176l-242 -184z" />
<glyph unicode="&#xe3;" horiz-adv-x="1087" d="M61 246q0 67 10.5 120t47.5 85l176 155l-234 205v29l172 139l242 -139h90l242 139l172 -148l-90 -86v-544l90 -62h72l-172 -155l-170 143v61l-215 -61l-166 -143q-69 0 -130.5 38t-99 99t-37.5 125zM158 414q0 -85 55 -176q36 -49 93.5 -65.5t137.5 -16.5h64l201 57v532 l-162 62h-53l-162 -62h-142l304 -270l-19 -8l-151 123l-152 -131q-14 -11 -14 -45zM159 1155q81 81 143 120.5t158 39.5q39 0 68.5 -8.5t63 -21.5t78.5 -26.5t79 -13.5q21 0 62 30t71 40h58q-29 -32 -61 -66.5t-67.5 -62.5t-78.5 -45.5t-92 -17.5q-18 0 -53.5 16t-78 38 t-80.5 35t-79 13q-22 0 -49 -25.5t-88 -89.5z" />
<glyph unicode="&#xe4;" horiz-adv-x="1087" d="M61 246q0 67 10.5 120t47.5 85l176 155l-234 205v29l172 139l242 -139h90l242 139l172 -148l-90 -86v-544l90 -62h72l-172 -155l-170 143v61l-215 -61l-166 -143q-69 0 -130.5 38t-99 99t-37.5 125zM100 1188l223 172l201 -172l-151 -115l-154 131l-80 -61zM158 414 q0 -85 55 -176q36 -49 93.5 -65.5t137.5 -16.5h64l201 57v532l-162 62h-53l-162 -62h-142l304 -270l-19 -8l-151 123l-152 -131q-14 -11 -14 -45zM581 1245l152 115l156 -131l71 57l43 -49l-223 -164z" />
<glyph unicode="&#xe5;" horiz-adv-x="1087" d="M61 246q0 67 10.5 120t47.5 85l176 155l-234 205v29l172 139l242 -139h90l242 139l172 -148l-90 -86v-544l90 -62h72l-172 -155l-170 143v61l-215 -61l-166 -143q-69 0 -130.5 38t-99 99t-37.5 125zM158 414q0 -85 55 -176q36 -49 93.5 -65.5t137.5 -16.5h64l201 57v532 l-162 62h-53l-162 -62h-142l304 -270l-19 -8l-151 123l-152 -131q-14 -11 -14 -45zM311 1245q0 66 57.5 113t137.5 47q54 0 97.5 -21.5t68 -58.5t24.5 -80q0 -44 -24.5 -82t-68 -60t-97.5 -22q-77 0 -136 49t-59 115zM365 1245q0 -52 42.5 -89.5t98.5 -37.5q60 0 101.5 36.5 t41.5 86.5q0 53 -41 88t-106 35q-57 0 -97 -34.5t-40 -84.5z" />
<glyph unicode="&#xe6;" horiz-adv-x="1491" d="M61 246q0 150 58 205l180 155l-233 205v29l172 139l241 -139h90l244 139l90 -82l303 86l238 -287l-551 -270v-205l229 -78l-237 -155l-267 131h-124l-162 -135q-69 0 -131.5 38.5t-101 99t-38.5 124.5zM162 414q0 -34 13.5 -80.5t43.5 -95.5q30 -43 78 -65t97.5 -28 t119.5 -6l199 82v524l-162 62h-51l-162 -62h-143l305 -270l-21 -8l-151 123l-152 -123q-14 -11 -14 -53zM893 442l367 181l-209 266l-158 -66v-381z" />
<glyph unicode="&#xe7;" horiz-adv-x="1094" d="M66 127v12h20l141 78v623l496 139l223 -139h105l-158 -95h-180l-144 119l-159 -53v-594l141 -78h72l233 94v-45l-457 -204l-262 143h-71zM172 -434l18 61l43 -4q53 0 88 22t35 56q0 46 -47.5 61.5t-118.5 20.5l199 135q162 -46 162 -160q0 -86 -82 -141t-213 -55 q-51 0 -84 4z" />
<glyph unicode="&#xe8;" horiz-adv-x="997" d="M-35 1421l379 -90l129 -192v-58h-53zM53 127v12h19l147 78v623l490 139l241 -287l-555 -270v-205l232 -78l-238 -155l-260 143h-76zM395 451l361 176l-201 258l-160 -62v-372z" />
<glyph unicode="&#xe9;" horiz-adv-x="997" d="M53 127v12h19l147 78v623l490 139l241 -287l-555 -270v-205l232 -78l-238 -155l-260 143h-76zM395 451l361 176l-201 258l-160 -62v-372zM436 1069v57l129 193l379 90l-455 -340h-53z" />
<glyph unicode="&#xea;" horiz-adv-x="997" d="M53 127v12h19l147 78v623l490 139l241 -287l-555 -270v-205l232 -78l-238 -155l-260 143h-76zM159 1086l248 241l242 54l233 -283v-45l-438 176l-242 -184zM395 451l361 176l-201 258l-160 -62v-372z" />
<glyph unicode="&#xeb;" horiz-adv-x="997" d="M53 127v12h19l147 78v623l490 139l241 -287l-555 -270v-205l232 -78l-238 -155l-260 143h-76zM63 1188l223 172l201 -172l-151 -115l-154 131l-80 -61zM395 451l361 176l-201 258l-160 -62v-372zM544 1245l152 115l156 -131l71 57l43 -49l-223 -164z" />
<glyph unicode="&#xec;" horiz-adv-x="627" d="M-268 1434l379 -91l129 -192v-57h-54zM66 840l262 139l237 -148l-162 -86v-544l91 -62h71l-166 -155l-172 143v618z" />
<glyph unicode="&#xed;" horiz-adv-x="627" d="M66 840l262 139l237 -148l-162 -86v-544l91 -62h71l-166 -155l-172 143v618zM289 1106v57l129 193l379 90l-455 -340h-53z" />
<glyph unicode="&#xee;" horiz-adv-x="627" d="M-25 1073l248 241l242 54l233 -283v-45l-438 176l-242 -184zM66 840l262 139l237 -148l-162 -86v-544l91 -62h71l-166 -155l-172 143v618z" />
<glyph unicode="&#xef;" horiz-adv-x="627" d="M-72 1225l223 172l201 -172l-151 -115l-154 131l-80 -61zM66 840l262 139l237 -148l-162 -86v-544l91 -62h71l-166 -155l-172 143v618zM409 1282l152 115l156 -131l71 57l43 -49l-223 -164z" />
<glyph unicode="&#xf0;" d="M61 127v12h15l147 78v631h172l213 70l-147 77v135l-170 58h170l565 -348h180l-162 -95v-618h-180l-379 -143l-262 143h-162zM403 205l224 -127l237 86v598l-213 123h-33l-215 -62v-618z" />
<glyph unicode="&#xf1;" d="M61 127v12h15l147 78v528l-71 78h-91l166 156l172 -139v-62h19l461 201l237 -139h90l-162 -95v-544l91 -62h71l-166 -155l-170 143v618l-161 78h-76l-234 -90v-516l162 -86l-166 -147l-243 143h-91zM258 1130q81 81 143 120.5t158 39.5q39 0 68.5 -8.5t63 -21.5 t78.5 -26.5t79 -13.5q21 0 62 30t71 40h58q-29 -32 -61 -66.5t-67.5 -62.5t-78.5 -45.5t-92 -17.5q-18 0 -53.5 16t-78 38t-80.5 35t-79 13q-22 0 -49 -25.5t-88 -89.5z" />
<glyph unicode="&#xf2;" d="M61 127v12h15l147 78v631h172l412 131l219 -139h180l-162 -95v-618h-180l-379 -143l-262 143h-162zM76 1421l379 -90l129 -192v-58h-54zM403 205l224 -127l237 86v598l-213 123h-33l-215 -62v-618z" />
<glyph unicode="&#xf3;" d="M61 127v12h15l147 78v631h172l412 131l219 -139h180l-162 -95v-618h-180l-379 -143l-262 143h-162zM403 205l224 -127l237 86v598l-213 123h-33l-215 -62v-618zM522 1081v57l129 193l379 90l-455 -340h-53z" />
<glyph unicode="&#xf4;" d="M61 127v12h15l147 78v631h172l412 131l219 -139h180l-162 -95v-618h-180l-379 -143l-262 143h-162zM270 1122l248 241l242 54l233 -283v-45l-438 176l-242 -184zM403 205l224 -127l237 86v598l-213 123h-33l-215 -62v-618z" />
<glyph unicode="&#xf5;" d="M61 127v12h15l147 78v631h172l412 131l219 -139h180l-162 -95v-618h-180l-379 -143l-262 143h-162zM233 1130q81 81 143 120.5t158 39.5q39 0 68.5 -8.5t63 -21.5t78.5 -26.5t79 -13.5q21 0 62 30t71 40h58q-29 -32 -61 -66.5t-67.5 -62.5t-78.5 -45.5t-92 -17.5 q-18 0 -53.5 16t-78 38t-80.5 35t-79 13q-22 0 -49 -25.5t-88 -89.5zM403 205l224 -127l237 86v598l-213 123h-33l-215 -62v-618z" />
<glyph unicode="&#xf6;" d="M61 127v12h15l147 78v631h172l412 131l219 -139h180l-162 -95v-618h-180l-379 -143l-262 143h-162zM174 1176l223 172l201 -172l-151 -115l-154 131l-80 -61zM403 205l224 -127l237 86v598l-213 123h-33l-215 -62v-618zM655 1233l152 115l156 -131l71 57l43 -49 l-223 -164z" />
<glyph unicode="&#xf7;" horiz-adv-x="1354" d="M86 414v147h1145v-147h-1145zM500 94q0 53 45 92t110 39q42 0 76.5 -18.5t55 -48.5t20.5 -64q0 -51 -45 -91t-107 -40q-66 0 -110.5 37.5t-44.5 93.5zM500 885q0 55 45 95t110 40t108.5 -39.5t43.5 -95.5q0 -53 -44.5 -94t-107.5 -41q-64 0 -109.5 40.5t-45.5 94.5z" />
<glyph unicode="&#xf8;" horiz-adv-x="1227" d="M33 127v12h20l146 78v631h172l407 131l53 -37l76 143l62 -24l-90 -152l125 -69h180l-162 -95v-618h-180l-385 -143l-76 36l-115 -213l-53 25l119 217l-133 78h-166zM381 205l29 -21l346 623l-129 78h-33l-213 -62v-618zM451 156l157 -82l234 82v606l-43 20z" />
<glyph unicode="&#xf9;" horiz-adv-x="1161" d="M14 1360l379 -90l129 -193v-57h-53zM61 971q61 -6 139.5 -50t102.5 -81v-561l219 -136l248 74v528l-162 86l170 148l244 -139h90l-162 -95v-557h-180l-215 -61l-170 -143l-262 204v652z" />
<glyph unicode="&#xfa;" horiz-adv-x="1161" d="M61 971q61 -6 139.5 -50t102.5 -81v-561l219 -136l248 74v528l-162 86l170 148l244 -139h90l-162 -95v-557h-180l-215 -61l-170 -143l-262 204v652zM449 1057v57l129 193l379 90l-455 -340h-53z" />
<glyph unicode="&#xfb;" horiz-adv-x="1161" d="M61 971q61 -6 139.5 -50t102.5 -81v-561l219 -136l248 74v528l-162 86l170 148l244 -139h90l-162 -95v-557h-180l-215 -61l-170 -143l-262 204v652zM172 1135l248 241l242 54l233 -283v-45l-438 176l-242 -184z" />
<glyph unicode="&#xfc;" horiz-adv-x="1161" d="M61 971q61 -6 139.5 -50t102.5 -81v-561l219 -136l248 74v528l-162 86l170 148l244 -139h90l-162 -95v-557h-180l-215 -61l-170 -143l-262 204v652zM125 1237l223 172l201 -172l-151 -115l-154 131l-80 -61zM606 1294l152 115l156 -131l71 57l43 -49l-223 -164z" />
<glyph unicode="&#xfd;" horiz-adv-x="1247" d="M61 127v12h15l147 78v528l-71 78h-91l166 156l172 -139v-623l142 -78h110l219 78v528l-161 86l170 148l237 -139h90l-162 -95v-835l-69 -205l-162 -139l-172 -62q-47 55 -143 97.5t-213 42.5q-9 0 -31 -2t-31 -2q46 46 94.5 63.5t124.5 17.5h33q81 0 140.5 -14.5 t102.5 -44.5t81 -80l162 139v140l-91 172v155l-475 -204l-243 143h-91zM510 1057v57l129 193l379 90l-455 -340h-53z" />
<glyph unicode="&#xfe;" horiz-adv-x="1307" d="M90 127v12h19l143 78v1114l-62 131l43 -8l109 -49l90 -74v-553h19l376 123l80 78l242 -139h92l-162 -95v-618h-182l-383 -143l-72 49l-10 -17v-217l90 -151l-270 -144v623h-162zM432 205l234 -135l231 90v602l-145 61h-97l-223 -78v-540z" />
<glyph unicode="&#xff;" horiz-adv-x="1247" d="M61 127v12h15l147 78v528l-71 78h-91l166 156l172 -139v-623l142 -78h110l219 78v528l-161 86l170 148l237 -139h90l-162 -95v-835l-69 -205l-162 -139l-172 -62q-47 55 -143 97.5t-213 42.5q-9 0 -31 -2t-31 -2q46 46 94.5 63.5t124.5 17.5h33q81 0 140.5 -14.5 t102.5 -44.5t81 -80l162 139v140l-91 172v155l-475 -204l-243 143h-91zM174 1213l223 172l201 -172l-151 -115l-154 131l-80 -61zM655 1270l152 115l156 -131l71 57l43 -49l-223 -164z" />
<glyph unicode="&#x152;" horiz-adv-x="2814" d="M104 791q0 131 45.5 254t122 216.5t165 145t171.5 51.5q-42 0 -98.5 -60.5t-107.5 -161t-84 -224.5t-33 -246q0 -272 91 -443t216.5 -243t234.5 -72h181l122 25v1319l-4 16l-284 -135v-787q-38 -133 -176 -180v914l575 278q86 0 182 -67l72 67h266q104 -57 123 -57 q62 0 176 53l-155 -147h-252q-39 30 -83 53.5t-65 23.5q-12 0 -49 -16q104 -84 180 -199q54 64 107 93v-349v-323v-287q-14 -56 -69 -110t-107 -66v139q-79 -77 -179.5 -142t-197.5 -102.5t-168 -37.5h-320q-106 2 -211 49t-193 145.5t-141 254t-53 358.5zM1169 45 q60 0 155.5 85.5t167 203.5t71.5 207l-133 65h-119l-142 -61v-500zM1169 561l142 62h129l123 -62v385l-142 -61h-110l-142 57v-381zM1169 963l156 -62h86l152 62q0 50 -39.5 117.5t-102.5 133.5t-131.5 108t-120.5 42v-401zM1384 -78q120 106 237.5 178t233.5 72v791 l177 356l90 78l141 61h215q66 -3 127.5 -20t91.5 -41l-172 -152l-151 62h-181l-147 -62l-158 -303v-479l144 299l90 78h176l147 -62l19 -24l-172 -148l-99 78h-147l-158 -262v-234h604q45 0 110.5 -14t94.5 -35l-162 -155q-37 25 -108.5 45t-124.5 20h-508q-29 0 -81 -12.5 t-106.5 -31.5t-115.5 -41.5t-107 -41.5z" />
<glyph unicode="&#x153;" horiz-adv-x="1647" d="M61 127v12h15l147 78v631h172l412 131l170 -109l381 109l241 -287l-555 -270v-205l232 -78l-238 -155l-225 122q-36 -13 -100 -37l-128 -48t-100 -37l-262 143h-162zM403 205l224 -127l237 86v598l-213 123h-33l-215 -62v-618zM1044 451l361 176l-201 258l-160 -62v-372z " />
<glyph unicode="&#x178;" horiz-adv-x="1653" d="M61 606v156l91 78h165v405q0 27 -25.5 67.5t-65.5 82.5t-74 63q64 0 145 -48.5t139 -115t58 -114.5v-979h309v979l395 139l170 139l262 -151l-166 -78v-1446l-71 -123l-187 -156l-475 140h-414v16l287 61h555l201 -61l90 139v185l-143 204l-220 -49l-274 -155l-403 143 h-258v12h20l145 78v467h-145zM401 1667l258 172l234 -172l-176 -115l-178 131l-93 -61zM821 205l266 -45l195 45v340l-141 61h-180l-140 -61v-340zM821 561l140 62h198l123 -58v381l-137 -61h-184l-140 61v-385zM821 963l158 -62h147l156 62v294l-70 46l-391 -140v-200z M961 1724l174 115l182 -131l82 57l51 -49l-260 -164z" />
<glyph unicode="&#x2c6;" horiz-adv-x="1012" d="M147 1614l248 241l242 54l233 -283v-45l-438 176l-242 -184z" />
<glyph unicode="&#x2dc;" horiz-adv-x="1098" d="M184 1634q81 81 143 120.5t158 39.5q39 0 68.5 -8.5t63 -21.5t78.5 -26.5t79 -13.5q21 0 62 30t71 40h58q-29 -32 -61 -66.5t-67.5 -62.5t-78.5 -45.5t-92 -17.5q-18 0 -53.5 16t-78 38t-80.5 35t-79 13q-22 0 -49 -25.5t-88 -89.5z" />
<glyph unicode="&#x2000;" horiz-adv-x="956" />
<glyph unicode="&#x2001;" horiz-adv-x="1913" />
<glyph unicode="&#x2002;" horiz-adv-x="956" />
<glyph unicode="&#x2003;" horiz-adv-x="1913" />
<glyph unicode="&#x2004;" horiz-adv-x="637" />
<glyph unicode="&#x2005;" horiz-adv-x="478" />
<glyph unicode="&#x2006;" horiz-adv-x="318" />
<glyph unicode="&#x2007;" horiz-adv-x="318" />
<glyph unicode="&#x2008;" horiz-adv-x="239" />
<glyph unicode="&#x2009;" horiz-adv-x="382" />
<glyph unicode="&#x200a;" horiz-adv-x="106" />
<glyph unicode="&#x2010;" horiz-adv-x="1274" d="M166 610v90h942v-90h-942z" />
<glyph unicode="&#x2011;" horiz-adv-x="1274" d="M166 610v90h942v-90h-942z" />
<glyph unicode="&#x2012;" horiz-adv-x="1274" d="M166 610v90h942v-90h-942z" />
<glyph unicode="&#x2013;" d="M125 610v90h1024v-90h-1024z" />
<glyph unicode="&#x2014;" horiz-adv-x="1960" d="M125 610v90h1720v-90h-1720z" />
<glyph unicode="&#x2018;" horiz-adv-x="451" d="M119 1098v184l71 123l162 49h-6l-104 -45l-37 -33v-110l162 -144l-177 -147z" />
<glyph unicode="&#x2019;" horiz-adv-x="428" d="M61 1311l177 147l71 -123v-184l-71 -123l-162 -49h4l104 45l39 33v110z" />
<glyph unicode="&#x201c;" horiz-adv-x="850" d="M76 1372l96 90l80 -61v-434h-14zM575 1372l80 90l101 -61v-434h-19z" />
<glyph unicode="&#x201d;" horiz-adv-x="932" d="M109 963v434l100 61l82 -90l-162 -405h-20zM612 963v434l82 61l94 -90l-161 -405h-15z" />
<glyph unicode="&#x202f;" horiz-adv-x="382" />
<glyph unicode="&#x205f;" horiz-adv-x="478" />
<glyph unicode="&#xe000;" horiz-adv-x="980" d="M0 0v980h980v-980h-980z" />
</font>
</defs>
</svg>
